<svg viewBox="0 0 24 24" fill="none" xmlns="http://www.w3.org/2000/svg">
<path fill-rule="evenodd" clip-rule="evenodd" d="M5 11V15C5 15.55 4.55 16 4 16C3.45 16 3 15.55 3 15V11C3 10.45 3.45 10 4 10C4.55 10 5 10.45 5 11ZM11 21V18H9V21C9 21.55 9.45 22 10 22C10.55 22 11 21.55 11 21ZM15 21V18H13V21C13 21.55 13.45 22 14 22C14.55 22 15 21.55 15 21ZM21 15V11C21 10.45 20.55 10 20 10C19.45 10 19 10.45 19 11V15C19 15.55 19.45 16 20 16C20.55 16 21 15.55 21 15Z" fill="#292D32"/>
<path opacity="0.4" fill-rule="evenodd" clip-rule="evenodd" d="M16 6C16 6.88 15.28 7.6 14.4 7.6H9.59998C8.71998 7.6 8 6.88 8 6C8 3.79 9.79 2 12 2C14.21 2 16 3.79 16 6ZM17 16V11C17 9.9 16.1 9 15 9H9C7.9 9 7 9.9 7 11V16C7 17.1 7.9 18 9 18H15C16.1 18 17 17.1 17 16Z" fill="#292D32"/>
</svg>
