<svg viewBox="0 0 25 24" fill="none" xmlns="http://www.w3.org/2000/svg">
<path fill-rule="evenodd" clip-rule="evenodd" d="M7.75 5.3999C7.75 6.6999 8.79998 7.74991 10.1 7.74991H14.9C16.2 7.74991 17.25 6.6999 17.25 5.3999C17.25 2.7799 15.12 0.649902 12.5 0.649902C9.88 0.649902 7.75 2.7799 7.75 5.3999ZM9.25 5.3999C9.25 3.6099 10.71 2.1499 12.5 2.1499C14.29 2.1499 15.75 3.6099 15.75 5.3999C15.75 5.8699 15.37 6.24991 14.9 6.24991H10.1C9.62998 6.24991 9.25 5.8699 9.25 5.3999ZM16.25 18.6467C17.4049 18.3206 18.25 17.2599 18.25 16V11C18.25 9.48 17.02 8.25 15.5 8.25H9.5C7.98 8.25 6.75 9.48 6.75 11V16C6.75 17.2599 7.59512 18.3206 8.75 18.6467V21C8.75 21.96 9.54 22.75 10.5 22.75C11.46 22.75 12.25 21.96 12.25 21V18.75H12.75V21C12.75 21.96 13.54 22.75 14.5 22.75C15.46 22.75 16.25 21.96 16.25 21V18.6467ZM15.5 17.25H13.5H11.5H9.5C8.81 17.25 8.25 16.69 8.25 16V11C8.25 10.31 8.81 9.75 9.5 9.75H15.5C16.19 9.75 16.75 10.31 16.75 11V16C16.75 16.69 16.19 17.25 15.5 17.25ZM14.25 18.75V21C14.25 21.27 14.75 21.27 14.75 21V18.75H14.25ZM10.75 18.75H10.25V21C10.25 21.27 10.75 21.27 10.75 21V18.75ZM4.5 16.75C3.54 16.75 2.75 15.96 2.75 15V11C2.75 10.04 3.54 9.25 4.5 9.25C5.46 9.25 6.25 10.04 6.25 11V15C6.25 15.96 5.46 16.75 4.5 16.75ZM4.5 10.75C4.36 10.75 4.25 10.86 4.25 11V15C4.25 15.28 4.75 15.28 4.75 15V11C4.75 10.86 4.64 10.75 4.5 10.75ZM18.75 15C18.75 15.96 19.54 16.75 20.5 16.75C21.46 16.75 22.25 15.96 22.25 15V11C22.25 10.04 21.46 9.25 20.5 9.25C19.54 9.25 18.75 10.04 18.75 11V15ZM20.25 11C20.25 10.86 20.36 10.75 20.5 10.75C20.64 10.75 20.75 10.86 20.75 11V15C20.75 15.28 20.25 15.28 20.25 15V11Z" fill="#292D32"/>
</svg>
