<svg viewBox="0 0 24 24" fill="none" xmlns="http://www.w3.org/2000/svg">
<path fill-rule="evenodd" clip-rule="evenodd" d="M16 6C16 6.88 15.28 7.60001 14.4 7.60001H9.59998C8.71998 7.60001 8 6.88 8 6C8 3.79 9.79 2 12 2C14.21 2 16 3.79 16 6ZM17 11V16C17 17.1 16.1 18 15 18V21C15 21.55 14.55 22 14 22C13.45 22 13 21.55 13 21V18H11V21C11 21.55 10.55 22 10 22C9.45 22 9 21.55 9 21V18C7.9 18 7 17.1 7 16V11C7 9.9 7.9 9 9 9H15C16.1 9 17 9.9 17 11ZM5 15V11C5 10.45 4.55 10 4 10C3.45 10 3 10.45 3 11V15C3 15.55 3.45 16 4 16C4.55 16 5 15.55 5 15ZM21 11V15C21 15.55 20.55 16 20 16C19.45 16 19 15.55 19 15V11C19 10.45 19.45 10 20 10C20.55 10 21 10.45 21 11Z" fill="#292D32"/>
</svg>
