<svg viewBox="0 0 25 24" fill="none" xmlns="http://www.w3.org/2000/svg">
<path d="M9.72371 22.7506C9.71371 22.7506 9.7037 22.7506 9.6837 22.7506C8.00371 22.7406 6.8037 21.2306 5.9537 19.9206C3.7837 16.5906 3.3437 12.4006 4.9137 9.97055C5.9637 8.34055 7.6637 7.33054 9.3437 7.33054C10.2137 7.33054 10.8937 7.57056 11.4937 7.79056C11.9737 7.96056 12.3837 8.11054 12.8137 8.11054C13.1937 8.11054 13.5237 7.98056 13.9437 7.82056C14.5237 7.60056 15.2337 7.33054 16.2637 7.33054C17.7437 7.33054 19.2637 8.12054 20.3237 9.46054C20.4637 9.63054 20.5137 9.86056 20.4737 10.0706C20.4337 10.2906 20.2937 10.4705 20.1037 10.5805C18.9737 11.2005 18.3537 12.3305 18.4437 13.6105C18.5337 14.9105 19.3337 16.0105 20.5337 16.4605C20.7237 16.5305 20.8837 16.6805 20.9637 16.8705C21.0437 17.0605 21.0437 17.2805 20.9537 17.4605C20.5137 18.4405 20.2937 18.8905 19.7237 19.7705C18.7737 21.2305 17.5737 22.7306 15.9337 22.7506C15.2237 22.7506 14.7437 22.5406 14.3237 22.3405C13.9037 22.1505 13.4937 22.0006 12.8437 21.9806C12.1437 21.9806 11.7737 22.1505 11.3437 22.3405C10.9037 22.5406 10.4237 22.7506 9.72371 22.7506ZM9.3437 8.83054C8.1637 8.83054 6.9537 9.58055 6.1737 10.7806C5.1137 12.4206 5.1237 15.8906 7.2137 19.1006C7.8637 20.1006 8.7337 21.2406 9.7037 21.2506C10.0637 21.2406 10.3337 21.1406 10.7037 20.9806C11.1937 20.7606 11.8037 20.4906 12.8137 20.4806C13.8037 20.4606 14.4437 20.7506 14.9337 20.9806C15.2937 21.1506 15.5337 21.2606 15.9037 21.2506C16.8437 21.2406 17.7537 20.0205 18.4537 18.9605C18.8237 18.3905 19.0337 18.0305 19.2637 17.5205C17.9237 16.7305 17.0437 15.3406 16.9337 13.7206C16.8237 12.1906 17.4437 10.7606 18.5837 9.81055C17.8837 9.19055 17.0537 8.84055 16.2537 8.84055C15.5037 8.84055 15.0037 9.03056 14.4737 9.23056C13.9737 9.42056 13.4537 9.62055 12.8037 9.62055C12.1137 9.62055 11.5437 9.41055 10.9837 9.22055C10.4537 9.01055 9.9437 8.83054 9.3437 8.83054ZM12.3137 7.13056C12.2837 7.13056 12.2437 7.13056 12.2137 7.13056C11.8637 7.12056 11.5637 6.86056 11.5037 6.51056C11.2937 5.38056 11.6937 4.08054 12.5637 3.02054C13.3637 2.05054 14.6837 1.33055 15.8537 1.25055C16.2637 1.23055 16.5937 1.50057 16.6437 1.89057C16.8137 3.06057 16.4437 4.34056 15.6137 5.41056C14.8037 6.46056 13.5137 7.13056 12.3137 7.13056ZM15.1437 2.95057C14.6037 3.17057 14.0737 3.54055 13.7237 3.97055C13.3937 4.37055 13.0837 4.93056 12.9837 5.51056C13.5237 5.33056 14.0637 4.97054 14.4337 4.49054C14.6337 4.24054 15.0137 3.66057 15.1437 2.95057Z" fill="#292D32"/>
</svg>
