<svg viewBox="0 0 24 24" fill="none" xmlns="http://www.w3.org/2000/svg">
<path fill-rule="evenodd" clip-rule="evenodd" d="M14.9604 4.95001C15.5504 4.19001 16.0004 3.1 15.8404 2C14.8704 2.07 13.7404 2.68999 13.0704 3.48999C12.4704 4.21999 11.9804 5.31 12.1704 6.37C13.2304 6.41 14.3304 5.77001 14.9604 4.95001ZM20.3601 16.79C19.9101 17.8 19.6901 18.26 19.1001 19.16C18.2801 20.42 17.1201 21.98 15.6701 22C15.0964 22.0097 14.7212 21.8398 14.3148 21.6557C14.3033 21.6505 14.2917 21.6453 14.2801 21.64C14.2625 21.6321 14.2449 21.6242 14.2273 21.6163C13.7523 21.4024 13.2368 21.1704 12.3401 21.18C11.4146 21.18 10.8853 21.4177 10.3973 21.6368L10.3901 21.64C10.3787 21.645 10.3674 21.6501 10.356 21.6551C9.9393 21.8394 9.5542 22.0097 8.97007 22C7.54007 21.98 6.44007 20.57 5.62007 19.31C3.33007 15.79 3.08007 11.67 4.50007 9.47C5.51007 7.91 7.10006 7 8.59006 7C9.39006 7 10.0301 7.23001 10.6401 7.45001L10.6455 7.45195C11.2035 7.65124 11.732 7.84 12.3301 7.84C12.8901 7.84 13.3401 7.67001 13.8401 7.48001C14.4301 7.25001 15.0901 7 16.0501 7C17.3801 7 18.7901 7.72999 19.7901 8.98999C16.5101 10.8 17.0401 15.53 20.3601 16.79Z" fill="#292D32"/>
</svg>
