<svg viewBox="0 0 24 24" fill="none" xmlns="http://www.w3.org/2000/svg">
<path fill-rule="evenodd" clip-rule="evenodd" d="M3.76957 22.45C4.11957 22.65 4.50957 22.75 4.92957 22.75C5.44957 22.75 5.99957 22.59 6.53957 22.29L11.4196 19.58C11.7096 19.42 12.2796 19.42 12.5696 19.58L17.4496 22.29C18.4396 22.84 19.4496 22.89 20.2196 22.44C20.9896 21.99 21.4296 21.08 21.4296 19.95V5.86C21.4296 3.32 19.3596 1.25 16.8196 1.25H7.16957C4.62957 1.25 2.55957 3.32 2.55957 5.86V19.96C2.55957 21.09 2.99957 22 3.76957 22.45ZM4.06957 5.86C4.06957 4.15 5.46957 2.75 7.17957 2.75H16.8196C18.5296 2.75 19.9296 4.15 19.9296 5.86V19.95C19.9296 20.53 19.7596 20.97 19.4596 21.15C19.1596 21.33 18.6896 21.27 18.1796 20.98L13.2996 18.27C12.5596 17.86 11.4396 17.86 10.6996 18.27L5.81957 20.98C5.30957 21.27 4.83957 21.33 4.53957 21.15C4.23957 20.98 4.06957 20.54 4.06957 19.95V5.86ZM9.5 11.3999H14.5C14.91 11.3999 15.25 11.0599 15.25 10.6499C15.25 10.2399 14.91 9.8999 14.5 9.8999H9.5C9.09 9.8999 8.75 10.2399 8.75 10.6499C8.75 11.0599 9.09 11.3999 9.5 11.3999Z" fill="#292D32"/>
</svg>
