<svg viewBox="0 0 24 24" fill="none" xmlns="http://www.w3.org/2000/svg">
<path fill-rule="evenodd" clip-rule="evenodd" d="M5.25 10.75H18.75V19C18.75 20.74 18.45 21.25 16.5 21.25H7.5C5.55 21.25 5.25 20.74 5.25 19V10.75ZM1.25 7C1.25 8.96412 2.1261 10.2102 3.75 10.61V19C3.75 20.95 4.2 22.75 7.5 22.75H16.5C19.8 22.75 20.25 20.95 20.25 19V10.61C21.8739 10.2102 22.75 8.96412 22.75 7V5C22.75 2.58 21.42 1.25 19 1.25H5C2.58 1.25 1.25 2.58 1.25 5V7ZM5 2.75C3.42 2.75 2.75 3.42 2.75 5V7C2.75 8.58 3.42 9.25 5 9.25H19C20.58 9.25 21.25 8.58 21.25 7V5C21.25 3.42 20.58 2.75 19 2.75H5ZM10.1797 14.75H13.8197C14.2297 14.75 14.5697 14.41 14.5697 14C14.5697 13.59 14.2297 13.25 13.8197 13.25H10.1797C9.76969 13.25 9.42969 13.59 9.42969 14C9.42969 14.41 9.76969 14.75 10.1797 14.75Z" fill="#292D32"/>
</svg>
