<svg viewBox="0 0 24 24" fill="none" xmlns="http://www.w3.org/2000/svg">
<path fill-rule="evenodd" clip-rule="evenodd" d="M3.32031 19.5998V5.86C3.32031 3.74 5.05031 2 7.18031 2H16.8203C17.942 2 18.9545 2.48141 19.6573 3.25396L20.6809 2.22988C20.9809 1.92988 21.4709 1.92988 21.7709 2.22988C22.0809 2.52988 22.0809 3.00988 21.7709 3.30988L3.31086 21.7699C3.16086 21.9199 2.97086 21.9999 2.77086 21.9999C2.57086 21.9999 2.38086 21.9199 2.23086 21.7799C1.93086 21.4799 1.93086 20.9899 2.23086 20.6899L3.32031 19.5998Z" fill="#292D32"/>
<path opacity="0.4" d="M20.68 6.31982V19.9498C20.68 21.7498 19.39 22.5098 17.82 21.6398L12.94 18.9198C12.42 18.6398 11.58 18.6398 11.06 18.9198L6.18 21.6398C5.76 21.8698 5.36 21.9898 5 21.9998L20.68 6.31982Z" fill="#292D32"/>
</svg>
