<svg viewBox="0 0 24 24" fill="none" xmlns="http://www.w3.org/2000/svg">
<path fill-rule="evenodd" clip-rule="evenodd" d="M17.4554 22.29C17.9954 22.6 18.5554 22.75 19.0654 22.75C19.4754 22.75 19.8754 22.65 20.2254 22.44C20.9954 21.99 21.4354 21.08 21.4354 19.95V5.86C21.4354 3.32 19.3654 1.25 16.8254 1.25H7.17543C4.63543 1.25 2.56543 3.32 2.56543 5.86V19.95C2.56543 21.08 3.00543 21.99 3.77543 22.44C4.54543 22.9 5.55543 22.84 6.54543 22.29L11.4254 19.58C11.7154 19.42 12.2854 19.42 12.5754 19.58L17.4554 22.29ZM13.2954 18.27C12.9254 18.06 12.4654 17.96 11.9954 17.96C11.5254 17.96 11.0654 18.06 10.6954 18.27L5.81543 20.98C5.30543 21.27 4.83543 21.32 4.53543 21.15C4.23543 20.98 4.06543 20.54 4.06543 19.95V5.86C4.06543 4.15 5.46543 2.75 7.17543 2.75H16.8154C18.5254 2.75 19.9254 4.15 19.9254 5.86V19.95C19.9254 20.54 19.7554 20.97 19.4554 21.15C19.1554 21.33 18.6854 21.27 18.1754 20.98L13.2954 18.27ZM12 13.96C11.59 13.96 11.25 13.62 11.25 13.21V11.3999H9.5C9.09 11.3999 8.75 11.0599 8.75 10.6499C8.75 10.2399 9.09 9.8999 9.5 9.8999H11.25V8.20996C11.25 7.79996 11.59 7.45996 12 7.45996C12.41 7.45996 12.75 7.79996 12.75 8.20996V9.8999H14.5C14.91 9.8999 15.25 10.2399 15.25 10.6499C15.25 11.0599 14.91 11.3999 14.5 11.3999H12.75V13.21C12.75 13.62 12.41 13.96 12 13.96Z" fill="#292D32"/>
</svg>
