<svg viewBox="0 0 24 24" fill="none" xmlns="http://www.w3.org/2000/svg">
<path fill-rule="evenodd" clip-rule="evenodd" d="M3.32031 5.86V19.5989L2.23086 20.6889C1.93086 20.9889 1.93086 21.4789 2.23086 21.7789C2.38086 21.9189 2.57086 21.9989 2.77086 21.9989C2.97086 21.9989 3.16086 21.9189 3.31086 21.7689L21.7709 3.30891C22.0809 3.00891 22.0809 2.52891 21.7709 2.22891C21.4709 1.92891 20.9809 1.92891 20.6809 2.22891L19.6569 3.25345C18.954 2.4812 17.9417 2 16.8203 2H7.18031C5.05031 2 3.32031 3.74 3.32031 5.86ZM11.9001 15.1005L19.2901 7.71054C19.9202 7.08054 21.0001 7.52054 20.9901 8.41054V20.2305C20.9901 21.0105 20.1501 21.4905 19.4801 21.0905L12.0901 16.6605C11.5301 16.3305 11.4401 15.5605 11.9001 15.1005Z" fill="#292D32"/>
</svg>
