<svg viewBox="0 0 24 24" fill="none" xmlns="http://www.w3.org/2000/svg">
<path fill-rule="evenodd" clip-rule="evenodd" d="M14.9303 8.4V2.5C14.9303 2.22 14.7103 2 14.4303 2H9.57031C9.29031 2 9.07031 2.22 9.07031 2.5V8.4C9.07031 8.83 9.59031 9.06 9.91031 8.76L11.6603 7.16C11.8503 6.98 12.1503 6.98 12.3403 7.16L14.0903 8.77C14.4103 9.06 14.9303 8.84 14.9303 8.4ZM16.43 2.55891C16.43 2.26891 16.69 2.01891 16.98 2.05891C19.78 2.40891 21 4.29891 21 6.99891V16.9989C21 19.9989 19.5 21.9989 16 21.9989H8C4.5 21.9989 3 19.9989 3 16.9989V6.99891C3 4.29891 4.22 2.40891 7.02 2.05891C7.31 2.01891 7.57 2.26891 7.57 2.55891V8.57891C7.57 9.33891 8.02 10.0289 8.72 10.3389C8.97 10.4489 9.23 10.4989 9.49 10.4989C9.96 10.4989 10.43 10.3289 10.79 9.98891L11.66 9.18891C11.86 9.00891 12.15 9.00891 12.34 9.18891L13.21 9.98891C13.77 10.5089 14.58 10.6389 15.28 10.3389C15.98 10.0289 16.43 9.33891 16.43 8.57891V2.55891ZM8.25 17.9989C8.25 18.4089 8.59 18.7489 9 18.7489H17.5C17.91 18.7489 18.25 18.4089 18.25 17.9989C18.25 17.5889 17.91 17.2489 17.5 17.2489H9C8.59 17.2489 8.25 17.5889 8.25 17.9989ZM13.25 14.7489H17.5C17.91 14.7489 18.25 14.4089 18.25 13.9989C18.25 13.5889 17.91 13.2489 17.5 13.2489H13.25C12.84 13.2489 12.5 13.5889 12.5 13.9989C12.5 14.4089 12.84 14.7489 13.25 14.7489Z" fill="#292D32"/>
</svg>
