<svg viewBox="0 0 24 24" fill="none" xmlns="http://www.w3.org/2000/svg">
<path fill-rule="evenodd" clip-rule="evenodd" d="M22 7V5C22 3 21 2 19 2H5C3 2 2 3 2 5V7C2 8.83 2.83 9.82 4.5 9.97C4.66 9.99 4.83 10 5 10H19C19.17 10 19.34 9.99 19.5 9.97C21.17 9.82 22 8.83 22 7ZM10.1797 14.75H13.8197C14.2297 14.75 14.5697 14.41 14.5697 14C14.5697 13.59 14.2297 13.25 13.8197 13.25H10.1797C9.76969 13.25 9.42969 13.59 9.42969 14C9.42969 14.41 9.76969 14.75 10.1797 14.75Z" fill="#292D32"/>
<path opacity="0.4" d="M19.5 9.96997V19C19.5 21 19 22 16.5 22H7.5C5 22 4.5 21 4.5 19V9.96997C4.66 9.98997 4.83 9.99997 5 9.99997H19C19.17 9.99997 19.34 9.98997 19.5 9.96997Z" fill="#292D32"/>
</svg>
