<svg viewBox="0 0 24 24" fill="none" xmlns="http://www.w3.org/2000/svg">
<path fill-rule="evenodd" clip-rule="evenodd" d="M1.25 12C1.25 17.93 6.07 22.75 12 22.75C17.93 22.75 22.75 17.93 22.75 12C22.75 6.07 17.93 1.25 12 1.25C6.07 1.25 1.25 6.07 1.25 12ZM2.75 12C2.75 6.9 6.9 2.75 12 2.75C17.1 2.75 21.25 6.9 21.25 12C21.25 17.1 17.1 21.25 12 21.25C6.9 21.25 2.75 17.1 2.75 12ZM10.4191 7.67011L8.65923 9.42993H17.1498C17.5598 9.42993 17.8998 9.76993 17.8998 10.1799C17.8998 10.5899 17.5698 10.9299 17.1498 10.9299H6.86451H6.83984L6.83172 10.9299C6.42536 10.9254 6.08984 10.5872 6.08984 10.1799C6.08984 9.94428 6.20216 9.73176 6.37553 9.59362L9.35904 6.61008C9.64904 6.32008 10.1291 6.32008 10.4191 6.61008C10.7091 6.90008 10.7091 7.38011 10.4191 7.67011ZM14.6408 17.39L17.6656 14.3652C17.8105 14.2278 17.8998 14.0334 17.8998 13.8201C17.8998 13.7356 17.8854 13.654 17.8589 13.5778C17.8234 13.4722 17.7641 13.3733 17.6808 13.29C17.608 13.2172 17.5233 13.1627 17.4326 13.1265C17.3451 13.0902 17.2495 13.0701 17.1498 13.0701H6.83984C6.42984 13.0701 6.08984 13.4101 6.08984 13.8201C6.08984 14.2301 6.42984 14.5701 6.83984 14.5701H15.3407L13.5808 16.33C13.2908 16.62 13.2908 17.1 13.5808 17.39C13.7308 17.54 13.9208 17.61 14.1108 17.61C14.3108 17.61 14.5008 17.53 14.6408 17.39Z" fill="#292D32"/>
</svg>
