<svg viewBox="0 0 24 24" fill="none" xmlns="http://www.w3.org/2000/svg">
<path fill-rule="evenodd" clip-rule="evenodd" d="M10.0375 6.75C10.0375 6.34 10.3775 6 10.7875 6C11.2075 6 11.5375 6.33 11.5475 6.75V17.05C11.5475 17.15 11.5275 17.25 11.4875 17.34C11.4075 17.53 11.2575 17.67 11.0775 17.75C10.9775 17.79 10.8875 17.81 10.7875 17.81C10.6875 17.81 10.5875 17.79 10.4975 17.75C10.4075 17.71 10.3275 17.66 10.2575 17.59L7.2175 14.55C6.9275 14.26 6.9275 13.78 7.2175 13.49C7.5075 13.2 7.9875 13.2 8.2775 13.49L10.0375 15.25V6.75ZM14.3503 6.3201L17.3903 9.3601C17.6803 9.6501 17.6803 10.1201 17.3903 10.4301C17.2403 10.5801 17.0503 10.6501 16.8603 10.6501C16.6703 10.6501 16.4803 10.5801 16.3303 10.4301L14.5703 8.6701V17.1701C14.5703 17.5801 14.2303 17.9201 13.8203 17.9201C13.4103 17.9201 13.0703 17.5801 13.0703 17.1701V6.8601C13.0703 6.7601 13.0903 6.6601 13.1303 6.5701C13.2103 6.3801 13.3603 6.2401 13.5403 6.1601C13.7203 6.0801 13.9303 6.0801 14.1103 6.1601C14.2003 6.2001 14.2803 6.2501 14.3503 6.3201Z" fill="#292D32"/>
<path opacity="0.4" d="M16.19 2H7.82C4.17 2 2 4.17 2 7.81V16.18C2 19.82 4.17 21.99 7.81 21.99H16.18C19.82 21.99 21.99 19.82 21.99 16.18V7.81C22 4.17 19.83 2 16.19 2Z" fill="#292D32"/>
</svg>
