<svg viewBox="0 0 24 24" fill="none" xmlns="http://www.w3.org/2000/svg">
<path fill-rule="evenodd" clip-rule="evenodd" d="M15 22.75H9C3.57 22.75 1.25 20.43 1.25 15V9C1.25 3.57 3.57 1.25 9 1.25H15C20.43 1.25 22.75 3.57 22.75 9V15C22.75 20.43 20.43 22.75 15 22.75ZM9 2.75C4.39 2.75 2.75 4.39 2.75 9V15C2.75 19.61 4.39 21.25 9 21.25H15C19.61 21.25 21.25 19.61 21.25 15V9C21.25 4.39 19.61 2.75 15 2.75H9ZM14.1108 17.61C13.9208 17.61 13.7308 17.54 13.5808 17.39C13.2908 17.1 13.2908 16.62 13.5808 16.33L15.3407 14.5701H6.84961C6.43961 14.5701 6.09961 14.2301 6.09961 13.8201C6.09961 13.4101 6.43961 13.0701 6.84961 13.0701H17.1596C17.5696 13.0701 17.9096 13.4101 17.9096 13.8201C17.9096 14.0502 17.8025 14.2583 17.6342 14.3965L14.6408 17.39C14.5008 17.53 14.3108 17.61 14.1108 17.61ZM6.80136 10.9286C6.62752 10.9178 6.4565 10.8475 6.31906 10.7101C6.2452 10.6362 6.19014 10.55 6.15391 10.4578C6.11893 10.3717 6.09961 10.2779 6.09961 10.1802C6.09961 10.0846 6.11809 9.9928 6.15163 9.90825C6.18782 9.8138 6.24363 9.72551 6.31906 9.65008L9.35906 6.61008C9.64906 6.32008 10.1291 6.32008 10.4191 6.61008C10.7091 6.90008 10.7091 7.38008 10.4191 7.67008L8.65896 9.43018H17.1596C17.5696 9.43018 17.9096 9.77018 17.9096 10.1802C17.9096 10.5902 17.5696 10.9302 17.1496 10.9302H6.84961C6.83341 10.9302 6.81732 10.9296 6.80136 10.9286Z" fill="#292D32"/>
</svg>
