<svg viewBox="0 0 24 24" fill="none" xmlns="http://www.w3.org/2000/svg">
<path fill-rule="evenodd" clip-rule="evenodd" d="M10.1801 6C10.5901 6 10.9301 6.34 10.9301 6.75H10.9401V17.05C10.9401 17.15 10.9201 17.25 10.8801 17.34C10.8001 17.53 10.6501 17.67 10.4701 17.75C10.3701 17.79 10.2801 17.81 10.1801 17.81C10.0801 17.81 9.98011 17.79 9.89011 17.75C9.80011 17.71 9.72009 17.66 9.65009 17.59L6.61008 14.55C6.32008 14.26 6.32008 13.78 6.61008 13.49C6.90008 13.2 7.38011 13.2 7.67011 13.49L9.43009 15.25V6.75C9.43009 6.34 9.77009 6 10.1801 6ZM13.28 6.22L16.32 9.25998C16.61 9.54998 16.61 10.02 16.32 10.33C16.17 10.48 15.98 10.55 15.79 10.55C15.6 10.55 15.41 10.48 15.26 10.33L13.5 8.57001V17.07C13.5 17.48 13.16 17.82 12.75 17.82C12.34 17.82 12 17.48 12 17.07V6.75998C12 6.65998 12.02 6.56 12.06 6.47C12.14 6.28 12.29 6.14 12.47 6.06C12.65 5.98 12.86 5.98 13.04 6.06C13.13 6.1 13.21 6.15 13.28 6.22Z" fill="#292D32"/>
<path opacity="0.4" d="M12 22C17.5228 22 22 17.5228 22 12C22 6.47715 17.5228 2 12 2C6.47715 2 2 6.47715 2 12C2 17.5228 6.47715 22 12 22Z" fill="#292D32"/>
</svg>
