<svg viewBox="0 0 24 24" fill="none" xmlns="http://www.w3.org/2000/svg">
<path fill-rule="evenodd" clip-rule="evenodd" d="M15 22.75H9C3.57 22.75 1.25 20.43 1.25 15V9C1.25 3.57 3.57 1.25 9 1.25H15C20.43 1.25 22.75 3.57 22.75 9V15C22.75 20.43 20.43 22.75 15 22.75ZM9 2.75C4.39 2.75 2.75 4.39 2.75 9V15C2.75 19.61 4.39 21.25 9 21.25H15C19.61 21.25 21.25 19.61 21.25 15V9C21.25 4.39 19.61 2.75 15 2.75H9ZM10.1255 17.8981C9.95404 17.8859 9.78571 17.8157 9.65008 17.68L6.61008 14.64C6.32008 14.35 6.32008 13.87 6.61008 13.58C6.90008 13.29 7.38008 13.29 7.67008 13.58L9.42969 15.3397V6.8501C9.42969 6.4401 9.76969 6.1001 10.1797 6.1001C10.5897 6.1001 10.9297 6.4401 10.9297 6.8501V17.1601C10.9297 17.4158 10.8013 17.6404 10.6029 17.7732C10.4879 17.8535 10.3524 17.8944 10.2108 17.8995C10.2005 17.8999 10.1901 17.9001 10.1797 17.9001C10.1615 17.9001 10.1434 17.8994 10.1255 17.8981ZM16.8598 10.64C16.6698 10.64 16.4798 10.57 16.3298 10.42L14.5703 8.66058V17.1601C14.5703 17.5701 14.2303 17.9001 13.8203 17.9001C13.4103 17.9001 13.0703 17.5601 13.0703 17.1501V6.8501C13.0703 6.7541 13.089 6.66194 13.1228 6.57709C13.159 6.48306 13.2146 6.39517 13.2898 6.32004C13.3595 6.25031 13.4402 6.19734 13.5266 6.16114C13.6171 6.12191 13.7165 6.1001 13.8203 6.1001C13.9377 6.1001 14.0494 6.12797 14.1489 6.17738C14.2218 6.21254 14.2898 6.26009 14.3498 6.32004L17.3898 9.36004C17.6798 9.65004 17.6798 10.13 17.3898 10.42C17.2398 10.56 17.0498 10.64 16.8598 10.64Z" fill="#292D32"/>
</svg>
