<svg viewBox="0 0 24 24" fill="none" xmlns="http://www.w3.org/2000/svg">
<path fill-rule="evenodd" clip-rule="evenodd" d="M6.56016 10.8801C6.37016 10.8001 6.23016 10.6501 6.15016 10.4701C6.08016 10.2901 6.08016 10.0801 6.15016 9.90009C6.19016 9.81009 6.25016 9.72009 6.32016 9.65009L9.36016 6.62009C9.65016 6.33009 10.1302 6.33009 10.4202 6.62009C10.7102 6.91009 10.7102 7.39009 10.4202 7.68009L8.66016 9.44009H17.1602C17.5702 9.44009 17.9102 9.78009 17.9102 10.1901C17.9102 10.6001 17.5702 10.9401 17.1602 10.9401H6.85016C6.75016 10.9401 6.65016 10.9201 6.56016 10.8801ZM17.4396 13.1201C17.6296 13.2001 17.7696 13.3501 17.8496 13.5301C17.9196 13.7101 17.9196 13.9201 17.8496 14.1001C17.8096 14.1901 17.7596 14.2701 17.6896 14.3401L14.6496 17.3801C14.4996 17.5301 14.3096 17.6001 14.1196 17.6001C13.9296 17.6001 13.7396 17.5301 13.5896 17.3801C13.2996 17.0901 13.2996 16.6101 13.5896 16.3201L15.3496 14.5601H6.84961C6.43961 14.5601 6.09961 14.2201 6.09961 13.8101C6.09961 13.4001 6.43961 13.0601 6.84961 13.0601H17.1496C17.2496 13.0601 17.3496 13.0801 17.4396 13.1201Z" fill="#292D32"/>
<path opacity="0.4" d="M16.19 2H7.81C4.17 2 2 4.17 2 7.81V16.18C2 19.83 4.17 22 7.81 22H16.18C19.82 22 21.99 19.83 21.99 16.19V7.81C22 4.17 19.83 2 16.19 2Z" fill="#292D32"/>
</svg>
