<svg viewBox="0 0 24 24" fill="none" xmlns="http://www.w3.org/2000/svg">
<path fill-rule="evenodd" clip-rule="evenodd" d="M8.64984 9.43009H17.1498C17.5698 9.43009 17.9099 9.77009 17.9099 10.1801C17.9099 10.5901 17.5699 10.9301 17.1599 10.9301H6.84986C6.74986 10.9301 6.64985 10.9101 6.55985 10.8701C6.36985 10.7901 6.22984 10.6401 6.14984 10.4601C6.06984 10.2801 6.06984 10.0701 6.14984 9.89011C6.18984 9.80011 6.23985 9.72009 6.30985 9.65009L9.34986 6.61008C9.63986 6.32008 10.1199 6.32008 10.4099 6.61008C10.6999 6.90008 10.6999 7.38011 10.4099 7.67011L8.64984 9.43009ZM17.4398 13.1201C17.6298 13.2001 17.7699 13.3501 17.8499 13.5301C17.9199 13.7101 17.9198 13.9201 17.8398 14.1001C17.7998 14.1901 17.7498 14.2701 17.6798 14.3401L14.6399 17.3801C14.4899 17.5301 14.2998 17.6001 14.1098 17.6001C13.9198 17.6001 13.7298 17.5301 13.5798 17.3801C13.2898 17.0901 13.2898 16.6101 13.5798 16.3201L15.3398 14.5601H6.83984C6.42984 14.5601 6.08984 14.2201 6.08984 13.8101C6.08984 13.4001 6.42984 13.0601 6.83984 13.0601H17.1498C17.2498 13.0601 17.3498 13.0801 17.4398 13.1201Z" fill="#292D32"/>
<path opacity="0.4" d="M12 22C17.5228 22 22 17.5228 22 12C22 6.47715 17.5228 2 12 2C6.47715 2 2 6.47715 2 12C2 17.5228 6.47715 22 12 22Z" fill="#292D32"/>
</svg>
