<svg viewBox="0 0 24 24" fill="none" xmlns="http://www.w3.org/2000/svg">
<path fill-rule="evenodd" clip-rule="evenodd" d="M1.25 12C1.25 17.93 6.07 22.75 12 22.75C17.93 22.75 22.75 17.93 22.75 12C22.75 6.07 17.93 1.25 12 1.25C6.07 1.25 1.25 6.07 1.25 12ZM2.75 12C2.75 6.9 6.9 2.75 12 2.75C17.1 2.75 21.25 6.9 21.25 12C21.25 17.1 17.1 21.25 12 21.25C6.9 21.25 2.75 17.1 2.75 12ZM13.8203 17.8998C13.4103 17.8998 13.0703 17.5598 13.0703 17.1498V6.83984C13.0703 6.42984 13.4103 6.08984 13.8203 6.08984C14.0589 6.08984 14.2737 6.20496 14.4117 6.382L17.3898 9.36002C17.6798 9.65002 17.6798 10.13 17.3898 10.42C17.2398 10.56 17.0497 10.64 16.8597 10.64C16.6697 10.64 16.4797 10.57 16.3297 10.42L14.5703 8.6606V17.1498C14.5703 17.5698 14.2303 17.8998 13.8203 17.8998ZM9.65009 17.6798C9.78856 17.8183 9.96111 17.8886 10.1363 17.8986C10.1507 17.8994 10.1651 17.8998 10.1797 17.8998L10.2015 17.8995C10.3548 17.8957 10.5013 17.8502 10.6229 17.7584C10.8099 17.6232 10.9297 17.4029 10.9297 17.1498V6.83984C10.9297 6.42984 10.5897 6.08984 10.1797 6.08984C9.76969 6.08984 9.42969 6.42984 9.42969 6.83984V15.3394L7.67011 13.5798C7.38011 13.2898 6.90008 13.2898 6.61008 13.5798C6.32008 13.8698 6.32008 14.3498 6.61008 14.6398L9.65009 17.6798Z" fill="#292D32"/>
</svg>
