<svg viewBox="0 0 24 24" fill="none" xmlns="http://www.w3.org/2000/svg">
<path fill-rule="evenodd" clip-rule="evenodd" d="M13.8991 18.6001C14.0491 18.7501 14.2391 18.8201 14.4291 18.8201C14.6191 18.8201 14.8091 18.7501 14.9591 18.6001L21.0291 12.5301C21.3191 12.2401 21.3191 11.7601 21.0291 11.4701L14.9591 5.40012C14.6691 5.11012 14.1891 5.11012 13.8991 5.40012C13.6091 5.69012 13.6091 6.17012 13.8991 6.46012L18.689 11.25H3.5C3.09 11.25 2.75 11.59 2.75 12C2.75 12.41 3.09 12.75 3.5 12.75H18.6893L13.8991 17.5401C13.6091 17.8301 13.6091 18.3101 13.8991 18.6001Z" fill="#292D32"/>
</svg>
