<svg viewBox="0 0 24 24" fill="none" xmlns="http://www.w3.org/2000/svg">
<path fill-rule="evenodd" clip-rule="evenodd" d="M9.03945 18.6001C9.18945 18.7501 9.37945 18.8201 9.56945 18.8201C9.75945 18.8201 9.95945 18.7501 10.0995 18.6001C10.3895 18.3101 10.3895 17.8301 10.0995 17.5401L5.30934 12.75H20.4999C20.9099 12.75 21.2499 12.41 21.2499 12C21.2499 11.59 20.9099 11.25 20.4999 11.25H5.30957L10.0995 6.46012C10.3895 6.17012 10.3895 5.69012 10.0995 5.40012C9.80945 5.11012 9.32945 5.11012 9.03945 5.40012L2.96945 11.4701C2.67945 11.7601 2.67945 12.2401 2.96945 12.5301L9.03945 18.6001Z" fill="#292D32"/>
</svg>
