<svg viewBox="0 0 24 24" fill="none" xmlns="http://www.w3.org/2000/svg">
<path fill-rule="evenodd" clip-rule="evenodd" d="M7.27141 2.48L10.9814 6.19C11.2714 6.49 11.2714 6.96 10.9814 7.25C10.8314 7.4 10.6414 7.47 10.4514 7.47C10.2614 7.47 10.0714 7.4 9.92141 7.25L7.48141 4.81V21C7.48141 21.41 7.14141 21.75 6.73141 21.75C6.32141 21.75 5.98141 21.41 5.98141 21V4.8L3.53141 7.25C3.24141 7.54 2.76141 7.54 2.47141 7.25C2.18141 6.96 2.18141 6.48 2.47141 6.19L6.20141 2.47C6.34141 2.33 6.53141 2.25 6.73141 2.25C6.82141 2.25 6.90141 2.27 6.98141 2.3C6.99141 2.31 7.00141 2.31 7.01141 2.31C7.11141 2.35 7.20141 2.41 7.27141 2.48ZM20.4683 16.75C20.7583 16.46 21.2383 16.46 21.5283 16.75C21.8183 17.04 21.8183 17.51 21.5283 17.81L17.8083 21.53C17.6683 21.67 17.4783 21.75 17.2783 21.75C17.1883 21.75 17.0983 21.73 17.0183 21.7C17.0083 21.69 16.9983 21.69 16.9883 21.69C16.8883 21.65 16.7983 21.59 16.7283 21.52L13.0183 17.81C12.7283 17.52 12.7283 17.04 13.0183 16.75C13.3083 16.46 13.7883 16.46 14.0783 16.75L16.5183 19.19V3C16.5183 2.59 16.8583 2.25 17.2683 2.25C17.6783 2.25 18.0183 2.59 18.0183 3V19.2L20.4683 16.75Z" fill="#292D32"/>
</svg>
