<svg viewBox="0 0 24 24" fill="none" xmlns="http://www.w3.org/2000/svg">
<path fill-rule="evenodd" clip-rule="evenodd" d="M1.25 12C1.25 17.93 6.07 22.75 12 22.75C17.93 22.75 22.75 17.93 22.75 12C22.75 6.07 17.93 1.25 12 1.25C6.07 1.25 1.25 6.07 1.25 12ZM2.75 12C2.75 6.9 6.9 2.75 12 2.75C17.1 2.75 21.25 6.9 21.25 12C21.25 17.1 17.1 21.25 12 21.25C6.9 21.25 2.75 17.1 2.75 12ZM11.4702 14.7899C11.6202 14.9399 11.8102 15.0099 12.0002 15.0099C12.1902 15.0099 12.3802 14.9399 12.5302 14.7899L16.0602 11.2599C16.3502 10.9699 16.3502 10.4899 16.0602 10.1999C15.7702 9.90992 15.2902 9.90992 15.0002 10.1999L12.0002 13.1999L9.00016 10.1999C8.71016 9.90992 8.23016 9.90992 7.94016 10.1999C7.65016 10.4899 7.65016 10.9699 7.94016 11.2599L11.4702 14.7899Z" fill="#292D32"/>
</svg>
