<svg viewBox="0 0 24 24" fill="none" xmlns="http://www.w3.org/2000/svg">
<path fill-rule="evenodd" clip-rule="evenodd" d="M9 22.75H15C20.43 22.75 22.75 20.43 22.75 15V9C22.75 3.57 20.43 1.25 15 1.25H9C3.57 1.25 1.25 3.57 1.25 9V15C1.25 20.43 3.57 22.75 9 22.75ZM2.75 9C2.75 4.39 4.39 2.75 9 2.75H15C19.61 2.75 21.25 4.39 21.25 9V15C21.25 19.61 19.61 21.25 15 21.25H9C4.39 21.25 2.75 19.61 2.75 15V9ZM11.4702 14.6898C11.6202 14.8398 11.8102 14.9098 12.0002 14.9098C12.1902 14.9098 12.3802 14.8398 12.5302 14.6898L16.0602 11.1598C16.3502 10.8698 16.3502 10.3898 16.0602 10.0998C15.7702 9.80982 15.2902 9.80982 15.0002 10.0998L12.0002 13.0998L9.00016 10.0998C8.71016 9.80982 8.23016 9.80982 7.94016 10.0998C7.65016 10.3898 7.65016 10.8698 7.94016 11.1598L11.4702 14.6898Z" fill="#292D32"/>
</svg>
