<svg viewBox="0 0 24 24" fill="none" xmlns="http://www.w3.org/2000/svg">
<path d="M15.7475 10.9975H10.5575L12.2775 9.2775C12.5675 8.9875 12.5675 8.5075 12.2775 8.2175C11.9875 7.9275 11.5075 7.9275 11.2175 8.2175L8.2175 11.2175C7.9275 11.5075 7.9275 11.9875 8.2175 12.2775L11.2175 15.2775C11.3675 15.4275 11.5575 15.4975 11.7475 15.4975C11.9375 15.4975 12.1275 15.4275 12.2775 15.2775C12.5675 14.9875 12.5675 14.5075 12.2775 14.2175L10.5575 12.4975H15.7475C16.1575 12.4975 16.4975 12.1575 16.4975 11.7475C16.4975 11.3375 16.1575 10.9975 15.7475 10.9975Z" fill="#292D32"/>
<path opacity="0.4" d="M12 22C17.5228 22 22 17.5228 22 12C22 6.47715 17.5228 2 12 2C6.47715 2 2 6.47715 2 12C2 17.5228 6.47715 22 12 22Z" fill="#292D32"/>
</svg>
