<svg viewBox="0 0 24 24" fill="none" xmlns="http://www.w3.org/2000/svg">
<path fill-rule="evenodd" clip-rule="evenodd" d="M1.25 12C1.25 17.93 6.07 22.75 12 22.75C17.93 22.75 22.75 17.93 22.75 12C22.75 6.07 17.93 1.25 12 1.25C6.07 1.25 1.25 6.07 1.25 12ZM2.75 12C2.75 6.9 6.9 2.75 12 2.75C17.1 2.75 21.25 6.9 21.25 12C21.25 17.1 17.1 21.25 12 21.25C6.9 21.25 2.75 17.1 2.75 12ZM12.7299 16.0602C12.8799 16.2102 13.0699 16.2802 13.2599 16.2802C13.4599 16.2802 13.6499 16.2102 13.7899 16.0602C14.0799 15.7702 14.0799 15.2902 13.7899 15.0002L10.7899 12.0002L13.7899 9.00016C14.0799 8.71016 14.0799 8.23016 13.7899 7.94016C13.4999 7.65016 13.0199 7.65016 12.7299 7.94016L9.19992 11.4702C8.90992 11.7602 8.90992 12.2402 9.19992 12.5302L12.7299 16.0602Z" fill="#292D32"/>
</svg>
