<svg viewBox="0 0 24 24" fill="none" xmlns="http://www.w3.org/2000/svg">
<path fill-rule="evenodd" clip-rule="evenodd" d="M17.5391 10.0999C17.6891 10.2499 17.8791 10.3199 18.0691 10.3199C18.2591 10.3199 18.4591 10.2499 18.5991 10.0999C18.8891 9.80994 18.8891 9.32994 18.5991 9.03994L12.5291 2.96994C12.2391 2.67994 11.7591 2.67994 11.4691 2.96994L5.39914 9.03994C5.10914 9.32994 5.10914 9.80994 5.39914 10.0999C5.68914 10.3899 6.16914 10.3899 6.45914 10.0999L11.25 5.30908V20.4999C11.25 20.9099 11.59 21.2499 12 21.2499C12.41 21.2499 12.75 20.9099 12.75 20.4999V5.3108L17.5391 10.0999Z" fill="#292D32"/>
</svg>
