<svg viewBox="0 0 24 24" fill="none" xmlns="http://www.w3.org/2000/svg">
<path fill-rule="evenodd" clip-rule="evenodd" d="M9 22.75H15C20.43 22.75 22.75 20.43 22.75 15V9C22.75 3.57 20.43 1.25 15 1.25H9C3.57 1.25 1.25 3.57 1.25 9V15C1.25 20.43 3.57 22.75 9 22.75ZM2.75 9C2.75 4.39 4.39 2.75 9 2.75H15C19.61 2.75 21.25 4.39 21.25 9V15C21.25 19.61 19.61 21.25 15 21.25H9C4.39 21.25 2.75 19.61 2.75 15V9ZM15.0002 13.9901C15.1502 14.1401 15.3402 14.2101 15.5302 14.2101C15.7202 14.2101 15.9102 14.1401 16.0602 13.9901C16.3502 13.7001 16.3502 13.2201 16.0602 12.9301L12.5302 9.40012C12.2402 9.11012 11.7602 9.11012 11.4702 9.40012L7.94016 12.9301C7.65016 13.2201 7.65016 13.7001 7.94016 13.9901C8.23016 14.2801 8.71016 14.2801 9.00016 13.9901L12.0002 10.9901L15.0002 13.9901Z" fill="#292D32"/>
</svg>
