<svg viewBox="0 0 24 24" fill="none" xmlns="http://www.w3.org/2000/svg">
<path fill-rule="evenodd" clip-rule="evenodd" d="M14.28 6.22L17.23 9.17C17.52 9.46 17.52 9.94 17.23 10.23C17.08 10.38 16.89 10.45 16.7 10.45C16.51 10.45 16.32 10.38 16.17 10.23L14.5 8.56V16.75C14.5 17.16 14.16 17.5 13.75 17.5C13.34 17.5 13 17.16 13 16.75V6.75C13 6.65 13.02 6.56 13.06 6.47C13.14 6.28 13.29 6.14 13.47 6.06C13.65 5.98 13.86 5.98 14.04 6.06C14.13 6.1 14.21 6.15 14.28 6.22ZM9.49047 7C9.49047 6.59 9.82047 6.25 10.2405 6.25C10.6505 6.25 10.9905 6.59 11.0005 7V16.99C11.0005 17.09 10.9805 17.19 10.9405 17.28C10.8605 17.47 10.7105 17.61 10.5305 17.69C10.4305 17.73 10.3405 17.75 10.2405 17.75C10.1405 17.75 10.0405 17.73 9.95047 17.69C9.86047 17.65 9.78047 17.6 9.71047 17.53L6.76047 14.58C6.47047 14.29 6.47047 13.81 6.76047 13.52C7.05047 13.23 7.53047 13.23 7.82047 13.52L9.49047 15.19V7Z" fill="#292D32"/>
<path opacity="0.4" d="M7.81 2H16.18C19.83 2 22 4.17 22 7.81V16.18C22 19.82 19.83 21.99 16.19 21.99H7.81C4.17 22 2 19.83 2 16.19V7.81C2 4.17 4.17 2 7.81 2Z" fill="#292D32"/>
</svg>
