<svg viewBox="0 0 24 24" fill="none" xmlns="http://www.w3.org/2000/svg">
<path fill-rule="evenodd" clip-rule="evenodd" d="M9.06137 21.2482C9.04409 21.2495 9.02676 21.2502 9.00945 21.2502C8.81945 21.2502 8.62945 21.1802 8.47945 21.0302L3.46945 16.0202C3.17945 15.7302 3.17945 15.2502 3.46945 14.9602C3.75945 14.6702 4.23945 14.6702 4.52945 14.9602L8.25977 18.6905V3.5C8.25977 3.09 8.59977 2.75 9.00977 2.75C9.41977 2.75 9.75977 3.09 9.75977 3.5V20.5C9.75977 20.618 9.73162 20.7301 9.68177 20.8301C9.64664 20.9026 9.5992 20.9704 9.53945 21.0302C9.52546 21.0432 9.51111 21.0558 9.49645 21.0678C9.37721 21.1704 9.22607 21.2367 9.06137 21.2482ZM20.0095 9.25994C19.8195 9.25994 19.6295 9.18994 19.4795 9.03994L15.7402 5.30072V20.5C15.7402 20.91 15.4102 21.25 14.9902 21.25C14.5802 21.25 14.2402 20.91 14.2402 20.5V3.5C14.2402 3.09 14.5802 2.75 14.9902 2.75C15.0427 2.75 15.0941 2.75558 15.1437 2.76616C15.2856 2.79343 15.4209 2.86136 15.5295 2.96994L20.5395 7.97994C20.8295 8.26994 20.8295 8.74994 20.5395 9.03994C20.3895 9.18994 20.1995 9.25994 20.0095 9.25994Z" fill="#292D32"/>
</svg>
