<svg viewBox="0 0 24 24" fill="none" xmlns="http://www.w3.org/2000/svg">
<path fill-rule="evenodd" clip-rule="evenodd" d="M1.25 12C1.25 17.93 6.07 22.75 12 22.75C17.93 22.75 22.75 17.93 22.75 12C22.75 6.07 17.93 1.25 12 1.25C6.07 1.25 1.25 6.07 1.25 12ZM2.75 12C2.75 6.9 6.9 2.75 12 2.75C17.1 2.75 21.25 6.9 21.25 12C21.25 17.1 17.1 21.25 12 21.25C6.9 21.25 2.75 17.1 2.75 12ZM10.2097 16.0602C10.3597 16.2102 10.5497 16.2802 10.7397 16.2802C10.9297 16.2802 11.1197 16.2102 11.2697 16.0602L14.7997 12.5302C15.0897 12.2402 15.0897 11.7602 14.7997 11.4702L11.2697 7.94016C10.9797 7.65016 10.4997 7.65016 10.2097 7.94016C9.91969 8.23016 9.91969 8.71016 10.2097 9.00016L13.2097 12.0002L10.2097 15.0002C9.91969 15.2902 9.91969 15.7702 10.2097 16.0602Z" fill="#292D32"/>
</svg>
