<svg viewBox="0 0 24 24" fill="none" xmlns="http://www.w3.org/2000/svg">
<path fill-rule="evenodd" clip-rule="evenodd" d="M1.25 12C1.25 17.93 6.07 22.75 12 22.75C17.93 22.75 22.75 17.93 22.75 12C22.75 6.07 17.93 1.25 12 1.25C6.07 1.25 1.25 6.07 1.25 12ZM2.75 12C2.75 6.9 6.9 2.75 12 2.75C17.1 2.75 21.25 6.9 21.25 12C21.25 17.1 17.1 21.25 12 21.25C6.9 21.25 2.75 17.1 2.75 12ZM15.0002 13.7899C15.1502 13.9399 15.3402 14.0099 15.5302 14.0099C15.7202 14.0099 15.9102 13.9399 16.0602 13.7899C16.3502 13.4999 16.3502 13.0199 16.0602 12.7299L12.5302 9.19992C12.2402 8.90992 11.7602 8.90992 11.4702 9.19992L7.94016 12.7299C7.65016 13.0199 7.65016 13.4999 7.94016 13.7899C8.23016 14.0799 8.71016 14.0799 9.00016 13.7899L12.0002 10.7899L15.0002 13.7899Z" fill="#292D32"/>
</svg>
