<svg viewBox="0 0 24 24" fill="none" xmlns="http://www.w3.org/2000/svg">
<path fill-rule="evenodd" clip-rule="evenodd" d="M6.72 10.93C6.53 10.85 6.39 10.7 6.31 10.52C6.23 10.34 6.23 10.14 6.31 9.94998C6.35 9.85998 6.4 9.77998 6.47 9.70998L9.42 6.75998C9.71 6.46998 10.19 6.46998 10.48 6.75998C10.77 7.04998 10.77 7.52998 10.48 7.81998L8.81 9.48998H17C17.41 9.48998 17.75 9.82998 17.75 10.24C17.75 10.65 17.41 10.99 17 10.99H7C6.9 10.99 6.81 10.97 6.72 10.93ZM17.28 13.0698C17.47 13.1498 17.61 13.2998 17.69 13.4798C17.77 13.6598 17.77 13.8598 17.69 14.0498C17.65 14.1398 17.6 14.2198 17.53 14.2898L14.58 17.2398C14.43 17.3898 14.24 17.4598 14.05 17.4598C13.86 17.4598 13.67 17.3898 13.52 17.2398C13.23 16.9498 13.23 16.4698 13.52 16.1798L15.19 14.5098H7C6.59 14.5098 6.25 14.1698 6.25 13.7598C6.25 13.3498 6.59 13.0098 7 13.0098H16.99C17.09 13.0098 17.19 13.0298 17.28 13.0698Z" fill="#292D32"/>
<path opacity="0.4" d="M7.81 2H16.18C19.83 2 22 4.17 22 7.81V16.18C22 19.82 19.83 21.99 16.19 21.99H7.81C4.17 22 2 19.83 2 16.19V7.81C2 4.17 4.17 2 7.81 2Z" fill="#292D32"/>
</svg>
