<svg viewBox="0 0 24 24" fill="none" xmlns="http://www.w3.org/2000/svg">
<path fill-rule="evenodd" clip-rule="evenodd" d="M3.49945 9.75994C3.30945 9.75994 3.11945 9.68994 2.96945 9.53994C2.89341 9.4639 2.83731 9.3748 2.80115 9.27949C2.76816 9.19554 2.75 9.10452 2.75 9.00977C2.75 8.91117 2.76966 8.81663 2.80523 8.72988C2.84147 8.63853 2.89622 8.55318 2.96945 8.47994L7.97945 3.46994C8.26945 3.17994 8.74945 3.17994 9.03945 3.46994C9.32945 3.75994 9.32945 4.23994 9.03945 4.52994L5.30963 8.25977H20.5C20.91 8.25977 21.25 8.59977 21.25 9.00977C21.25 9.41977 20.91 9.75977 20.5 9.75977H3.5149C3.50975 9.75988 3.5046 9.75994 3.49945 9.75994ZM18.6994 15.7402H3.5C3.09 15.7402 2.75 15.4002 2.75 14.9902C2.75 14.5802 3.09 14.2402 3.5 14.2402H20.5C20.91 14.2402 21.25 14.5802 21.25 14.9902C21.25 15.0471 21.2434 15.1027 21.2311 15.1562C21.2023 15.2937 21.1352 15.4244 21.0297 15.5299L16.0197 20.5399C15.8697 20.6799 15.6797 20.7599 15.4897 20.7599C15.2997 20.7599 15.1097 20.6899 14.9597 20.5399C14.6697 20.2499 14.6697 19.7699 14.9597 19.4799L18.6994 15.7402Z" fill="#292D32"/>
</svg>
