<svg viewBox="0 0 24 24" fill="none" xmlns="http://www.w3.org/2000/svg">
<path fill-rule="evenodd" clip-rule="evenodd" d="M21.53 6.19922C21.67 6.33922 21.75 6.52922 21.75 6.72922C21.75 6.81922 21.73 6.89922 21.7 6.97922C21.69 6.98922 21.69 6.99922 21.69 7.00922C21.65 7.10922 21.59 7.19922 21.52 7.26922L17.81 10.9792C17.66 11.1292 17.47 11.1992 17.28 11.1992C17.09 11.1992 16.9 11.1292 16.75 10.9792C16.46 10.6892 16.46 10.2092 16.75 9.91922L19.19 7.47922H3C2.59 7.47922 2.25 7.14922 2.25 6.73922C2.25 6.32922 2.59 5.98922 3 5.98922H19.2L16.75 3.53922C16.46 3.24922 16.46 2.76922 16.75 2.47922C17.04 2.18922 17.52 2.18922 17.81 2.47922L21.53 6.19922ZM4.81 16.5183H21C21.41 16.5183 21.75 16.8583 21.75 17.2683C21.75 17.6783 21.41 18.0183 21 18.0183H4.8L7.25 20.4683C7.54 20.7583 7.54 21.2383 7.25 21.5283C7.1 21.6783 6.91 21.7483 6.72 21.7483C6.53 21.7483 6.34 21.6783 6.19 21.5283L2.47 17.8083C2.33 17.6683 2.25 17.4783 2.25 17.2783C2.25 17.1883 2.27 17.0983 2.3 17.0183C2.31 17.0083 2.31 16.9983 2.31 16.9883C2.35 16.8883 2.41 16.7983 2.48 16.7283L6.19 13.0183C6.48 12.7283 6.96 12.7283 7.25 13.0183C7.54 13.3083 7.54 13.7883 7.25 14.0783L4.81 16.5183Z" fill="#292D32"/>
</svg>
