<svg viewBox="0 0 24 24" fill="none" xmlns="http://www.w3.org/2000/svg">
<path fill-rule="evenodd" clip-rule="evenodd" d="M16.75 5V6.43787L13.6698 4.66006C12.7198 4.11006 11.2898 4.11006 10.3398 4.66006L7.25 6.44411V5C7.25 3.42 7.92 2.75 9.5 2.75H14.5C16.08 2.75 16.75 3.42 16.75 5ZM5.75 5V7.31022L5.55977 7.42006C3.63977 8.71006 3.50977 8.95006 3.50977 11.0201V15.9801C3.50977 18.0501 3.63977 18.2901 5.59977 19.6101L10.3298 22.3401C10.8098 22.6101 11.3998 22.7501 11.9998 22.7501C12.5898 22.7501 13.1898 22.6201 13.6598 22.3401L18.4398 19.5801C20.3598 18.2901 20.4898 18.0501 20.4898 15.9801V11.0201C20.4898 8.95006 20.3598 8.71006 18.3998 7.39006L18.25 7.30362V5C18.25 2.58 16.92 1.25 14.5 1.25H9.5C7.08 1.25 5.75 2.58 5.75 5ZM11.9998 5.75006C11.6598 5.75006 11.3198 5.82006 11.0798 5.96006L6.34977 8.69006C5.00977 9.60006 5.00977 9.60006 5.00977 11.0201V15.9801C5.00977 16.6415 5.00977 16.9949 5.15028 17.2787C5.3114 17.604 5.65728 17.8379 6.39977 18.3401L11.0898 21.0401C11.5698 21.3201 12.4398 21.3201 12.9198 21.0401L17.6498 18.3101C18.3559 17.8305 18.6899 17.6037 18.8479 17.2886C18.9898 17.0057 18.9898 16.6518 18.9898 15.9801V11.0201C18.9898 9.60006 18.9898 9.60006 17.5998 8.66006L12.9098 5.96006C12.6798 5.82006 12.3398 5.75006 11.9998 5.75006ZM12.9802 17.5001C13.2002 17.5901 13.4202 17.6301 13.6302 17.6301C13.9302 17.6301 14.2102 17.5401 14.4502 17.3701C14.8502 17.0701 15.0602 16.5801 15.0302 16.0101L14.9702 14.9601L15.6402 14.1501C16.0002 13.7101 16.1202 13.1801 15.9702 12.7101C15.8202 12.2401 15.4102 11.8801 14.8602 11.7401L13.8402 11.4801L13.2702 10.5901C12.6602 9.63012 11.3502 9.63012 10.7402 10.5901L10.1702 11.4801L9.15024 11.7401C8.60024 11.8801 8.19024 12.2401 8.04024 12.7101C7.88024 13.1901 8.00024 13.7101 8.36024 14.1601L9.03024 14.9701L8.97024 16.0201C8.94024 16.5901 9.15024 17.0901 9.55024 17.3801C9.95024 17.6701 10.4902 17.7201 11.0202 17.5101L12.0002 17.1201L12.9802 17.5001ZM10.1902 14.0101L9.52024 13.2001L10.5502 12.9501C10.8902 12.8601 11.2502 12.6001 11.4402 12.3001L12.0102 11.4201L12.5702 12.3001C12.7602 12.5901 13.1202 12.8501 13.4602 12.9401L14.4802 13.2001L13.8102 14.0101C13.5802 14.2901 13.4502 14.7101 13.4702 15.0601L13.5302 16.1101L12.5502 15.7201C12.2202 15.5901 11.7802 15.5901 11.4502 15.7201L10.4702 16.1101L10.5302 15.0601C10.5502 14.7101 10.4202 14.2801 10.1902 14.0101Z" fill="#292D32"/>
</svg>
