<svg viewBox="0 0 24 24" fill="none" xmlns="http://www.w3.org/2000/svg">
<path fill-rule="evenodd" clip-rule="evenodd" d="M7.57945 6.83L6.18945 7.64V5.49C6.18945 3.24 7.41945 2 9.66945 2H14.3195C16.5695 2 17.8095 3.24 17.8095 5.49V7.63L16.4195 6.83L13.6795 5.25L13.5495 5.17C12.6695 4.66 11.3295 4.66 10.4495 5.17L10.3195 5.25L7.57945 6.83ZM14.2197 14.1L14.8397 13.34C15.2297 12.88 15.0597 12.37 14.4797 12.22L13.5297 11.98C13.3797 11.94 13.1997 11.8 13.1197 11.67L12.5897 10.85C12.2597 10.34 11.7397 10.34 11.4097 10.85L10.8797 11.67C10.7997 11.8 10.6197 11.94 10.4697 11.98L9.51975 12.22C8.93975 12.37 8.76975 12.88 9.15975 13.34L9.77975 14.1C9.87975 14.21 9.94975 14.43 9.93975 14.58L9.87975 15.56C9.83975 16.16 10.2697 16.47 10.8297 16.25L11.7397 15.89C11.8797 15.84 12.1197 15.84 12.2597 15.89L13.1697 16.25C13.7297 16.47 14.1597 16.16 14.1197 15.56L14.0597 14.58C14.0497 14.43 14.1197 14.21 14.2197 14.1Z" fill="#292D32"/>
<path opacity="0.4" d="M17.9496 7.7101L17.8096 7.6301L16.4196 6.8301L13.5496 5.1701C12.6696 4.6601 11.3296 4.6601 10.4496 5.1701L7.57961 6.8301L6.18961 7.6401L6.00961 7.7401C4.21961 8.9401 4.09961 9.1601 4.09961 11.0901V15.7001C4.09961 17.6301 4.21961 17.8501 6.04961 19.0801L10.4496 21.6201C10.8896 21.8801 11.4396 22.0001 11.9996 22.0001C12.5496 22.0001 13.1096 21.8801 13.5496 21.6201L17.9896 19.0501C19.7796 17.8501 19.8996 17.6301 19.8996 15.7001V11.0901C19.8996 9.1601 19.7796 8.9401 17.9496 7.7101Z" fill="#292D32"/>
</svg>
