<svg viewBox="0 0 24 24" fill="none" xmlns="http://www.w3.org/2000/svg">
<path fill-rule="evenodd" clip-rule="evenodd" d="M17.8114 6.23V5.49C17.8114 3.24 16.5814 2 14.3314 2H9.67141C7.42141 2 6.19141 3.24 6.19141 5.49V6.24L9.73141 4.18C11.0614 3.41 12.9314 3.41 14.2714 4.18L17.8114 6.23ZM17.7 7.89828L17.84 7.96828C19.63 9.17828 19.75 9.39828 19.75 11.2883V15.8083C19.75 17.7083 19.64 17.9183 17.88 19.0983L13.52 21.6183C13.09 21.8683 12.54 21.9883 12 21.9883C11.45 21.9883 10.91 21.8783 10.48 21.6183L6.16 19.1283C4.37 17.9183 4.25 17.6983 4.25 15.8083V11.2883C4.25 9.39828 4.37 9.17828 6.12 7.99828L6.3 7.90828L7.66 7.10828L10.48 5.48828C11.34 4.98828 12.66 4.98828 13.52 5.48828L16.34 7.11828L17.7 7.89828ZM14.18 14.2483L14.79 13.4983C15.17 13.0483 15 12.5483 14.43 12.3983L13.5 12.1583C13.36 12.1183 13.18 11.9883 13.1 11.8583L12.58 11.0583C12.25 10.5583 11.74 10.5583 11.42 11.0583L10.9 11.8583C10.82 11.9783 10.65 12.1183 10.5 12.1583L9.57 12.3983C9 12.5483 8.83 13.0483 9.21 13.4983L9.83 14.2383C9.93 14.3483 10 14.5583 9.99 14.7083L9.93 15.6683C9.89 16.2583 10.31 16.5683 10.86 16.3483L11.75 15.9983C11.89 15.9483 12.12 15.9483 12.26 15.9983L13.15 16.3583C13.7 16.5683 14.12 16.2683 14.08 15.6783L14.02 14.7183C14.01 14.5683 14.08 14.3583 14.18 14.2483Z" fill="#292D32"/>
</svg>
