<svg viewBox="0 0 24 24" fill="none" xmlns="http://www.w3.org/2000/svg">
<path fill-rule="evenodd" clip-rule="evenodd" d="M9.35086 2.52994L6.7807 5.1001H17.2193L14.6491 2.52994C14.3591 2.23994 14.3591 1.75994 14.6491 1.46994C14.9391 1.17994 15.4191 1.17994 15.7091 1.46994L19.3391 5.09994L19.3393 5.1001H19.78C20.74 5.1001 22.75 5.1001 22.75 7.8501C22.75 8.8901 22.54 9.5801 22.08 10.0301C21.8109 10.2992 21.4937 10.4424 21.1601 10.518L19.5507 18.9C19.1607 20.93 18.5107 22.75 14.8907 22.75H8.86073C5.28073 22.75 4.48073 20.62 4.17073 18.77L2.82544 10.517C2.49795 10.44 2.18586 10.296 1.92 10.0301C1.46 9.5801 1.25 8.8801 1.25 7.8501C1.25 5.1001 3.26 5.1001 4.22 5.1001H4.6607L4.66086 5.09994L8.29086 1.46994C8.58086 1.17994 9.06086 1.17994 9.35086 1.46994C9.64086 1.75994 9.64086 2.23994 9.35086 2.52994ZM4.35825 10.6001L5.65073 18.52C5.94073 20.29 6.54073 21.25 8.86073 21.25H14.8907C17.4607 21.25 17.7507 20.35 18.0807 18.61L19.6186 10.6001H4.35825ZM4.22 9.1001H20.01C20.46 9.1101 20.88 9.1101 21.02 8.9701C21.09 8.9001 21.24 8.6601 21.24 7.8501C21.24 6.7201 20.96 6.6001 19.77 6.6001H4.22C3.03 6.6001 2.75 6.7201 2.75 7.8501C2.75 8.6601 2.91 8.9001 2.97 8.9701C3.11 9.1001 3.54 9.1001 3.98 9.1001H4.22ZM9.00977 17.55C9.00977 17.96 9.34977 18.3 9.75977 18.3C10.1698 18.3 10.5098 17.97 10.5098 17.55V14C10.5098 13.59 10.1698 13.25 9.75977 13.25C9.34977 13.25 9.00977 13.59 9.00977 14V17.55ZM14.3594 18.3C13.9494 18.3 13.6094 17.96 13.6094 17.55V14C13.6094 13.59 13.9494 13.25 14.3594 13.25C14.7694 13.25 15.1094 13.59 15.1094 14V17.55C15.1094 17.97 14.7694 18.3 14.3594 18.3Z" fill="#292D32"/>
</svg>
