<svg viewBox="0 0 24 24" fill="none" xmlns="http://www.w3.org/2000/svg">
<path fill-rule="evenodd" clip-rule="evenodd" d="M4.66086 5.09994L4.6607 5.1001H4.22C3.26 5.1001 1.25 5.1001 1.25 7.8501C1.25 8.8801 1.46 9.5801 1.92 10.0301C2.18586 10.296 2.49795 10.44 2.82544 10.517L4.17073 18.77C4.48073 20.62 5.28073 22.75 8.86073 22.75H14.8907C18.5107 22.75 19.1607 20.93 19.5507 18.9L21.1601 10.518C21.4937 10.4424 21.8109 10.2992 22.08 10.0301C22.54 9.5801 22.75 8.8901 22.75 7.8501C22.75 5.1001 20.74 5.1001 19.78 5.1001H19.3393L19.3391 5.09994L15.7091 1.46994C15.4191 1.17994 14.9391 1.17994 14.6491 1.46994C14.3591 1.75994 14.3591 2.23994 14.6491 2.52994L17.2193 5.1001H6.7807L9.35086 2.52994C9.64086 2.23994 9.64086 1.75994 9.35086 1.46994C9.06086 1.17994 8.58086 1.17994 8.29086 1.46994L4.66086 5.09994ZM19.6186 10.6001H4.35825L5.65073 18.52C5.94073 20.29 6.54073 21.25 8.86073 21.25H14.8907C17.4607 21.25 17.7507 20.35 18.0807 18.61L19.6186 10.6001ZM11.1205 18.25C10.9305 18.25 10.7405 18.18 10.5905 18.03L9.09055 16.53C8.80055 16.24 8.80055 15.76 9.09055 15.47C9.38055 15.18 9.86055 15.18 10.1505 15.47L11.1405 16.46L13.8605 13.95C14.1605 13.67 14.6405 13.69 14.9205 13.99C15.2005 14.29 15.1805 14.77 14.8805 15.05L11.6305 18.05C11.4905 18.18 11.3105 18.25 11.1205 18.25ZM4.22 9.1001H20.01C20.46 9.1101 20.88 9.1101 21.02 8.9701C21.09 8.9001 21.24 8.6601 21.24 7.8501C21.24 6.7201 20.96 6.6001 19.77 6.6001H4.22C3.03 6.6001 2.75 6.7201 2.75 7.8501C2.75 8.6601 2.91 8.9001 2.97 8.9701C3.11 9.1001 3.54 9.1001 3.98 9.1001H4.22Z" fill="#292D32"/>
</svg>
