<svg viewBox="0 0 24 24" fill="none" xmlns="http://www.w3.org/2000/svg">
<path fill-rule="evenodd" clip-rule="evenodd" d="M15.75 7.25V6.50005C15.75 5.45006 15.3 4.43005 14.52 3.72005C13.73 3.00005 12.7 2.67005 11.63 2.77005C9.83 2.94005 8.25 4.78005 8.25 6.70005V7.25H15.75ZM6.75 7.31141V6.69005C6.75 4.00005 8.92 1.52005 11.49 1.27005C12.99 1.13005 14.43 1.60005 15.53 2.61005C16.62 3.60005 17.25 5.02005 17.25 6.50005V7.31193C18.7558 7.47205 19.8424 7.94307 20.5498 8.73C21.5898 9.89 21.5598 11.44 21.4498 12.5L20.6998 18.51C20.4798 20.6 19.6198 22.75 14.9998 22.75H8.99982C4.37982 22.75 3.51982 20.6 3.29982 18.51L2.54982 12.52C2.43982 11.44 2.39982 9.89 3.44982 8.73C4.16449 7.93592 5.2512 7.46973 6.75 7.31141ZM7.99982 8.75C6.30982 8.75 5.14982 9.08 4.55982 9.74C4.06982 10.28 3.90982 11.11 4.03982 12.35L4.78982 18.34C4.95982 19.94 5.39982 21.26 8.99982 21.26H14.9998C18.5998 21.26 19.0398 19.95 19.2098 18.36L19.9598 12.35C20.0898 11.13 19.9298 10.3 19.4398 9.75C18.8498 9.08 17.6898 8.75 15.9998 8.75H7.99982ZM7.25 15C7.25 17.62 9.38 19.75 12 19.75C14.62 19.75 16.75 17.62 16.75 15C16.75 12.38 14.62 10.25 12 10.25C9.38 10.25 7.25 12.38 7.25 15ZM8.75 15C8.75 13.21 10.21 11.75 12 11.75C13.79 11.75 15.25 13.21 15.25 15C15.25 16.79 13.79 18.25 12 18.25C10.21 18.25 8.75 16.79 8.75 15ZM9.91086 15.52L10.5609 16.17C10.8009 16.42 11.1209 16.54 11.4409 16.54C11.7409 16.54 12.0509 16.43 12.3009 16.2L14.0809 14.56C14.3809 14.28 14.4009 13.8 14.1209 13.5C13.8409 13.2 13.3609 13.18 13.0609 13.46L11.4509 14.94L10.9709 14.46C10.6809 14.17 10.2009 14.17 9.91086 14.46C9.62086 14.75 9.62086 15.23 9.91086 15.52Z" fill="#292D32"/>
</svg>
