<svg viewBox="0 0 24 24" fill="none" xmlns="http://www.w3.org/2000/svg">
<path fill-rule="evenodd" clip-rule="evenodd" d="M16.8797 7.63844C18.2797 7.78844 19.2897 8.21844 19.9597 8.95844C20.9297 10.0384 20.8997 11.4784 20.7897 12.4684L20.0897 18.0584C19.8797 19.9984 19.0897 21.9984 14.7897 21.9984H9.20975C4.90975 21.9984 4.11975 19.9984 3.90975 18.0484L3.20975 12.4784C3.09975 11.4784 3.06975 10.0384 4.03975 8.95844C4.70975 8.21844 5.71975 7.78844 7.11975 7.63844V7.05844C7.11975 4.55844 9.12975 2.24844 11.5197 2.01844C12.9097 1.88844 14.2497 2.32844 15.2797 3.26844C16.2997 4.18844 16.8797 5.50844 16.8797 6.87844V7.63844ZM14.3497 4.29844C13.6097 3.62844 12.6597 3.31844 11.6597 3.40844C9.97975 3.56844 8.50975 5.27844 8.50975 7.05844V7.57844H15.4897V6.87844C15.4897 5.89844 15.0797 4.95844 14.3497 4.29844ZM8.20975 14.7884C8.20975 16.8784 9.90975 18.5784 11.9997 18.5784C14.0897 18.5784 15.7897 16.8784 15.7897 14.7884C15.7897 12.6984 14.0897 10.9984 11.9997 10.9984C9.90975 10.9984 8.20975 12.6984 8.20975 14.7884ZM10.9009 16.42C11.0509 16.57 11.2409 16.64 11.4309 16.64C11.6109 16.64 11.7909 16.57 11.9409 16.44L14.0709 14.47C14.3709 14.19 14.3909 13.71 14.1109 13.41C13.8309 13.11 13.3509 13.09 13.0509 13.37L11.4509 14.85L10.9709 14.37C10.6809 14.08 10.2009 14.08 9.91086 14.37C9.62086 14.66 9.62086 15.14 9.91086 15.43L10.9009 16.42Z" fill="#292D32"/>
</svg>
