<svg viewBox="0 0 24 24" fill="none" xmlns="http://www.w3.org/2000/svg">
<path fill-rule="evenodd" clip-rule="evenodd" d="M18.84 5.57859H19.24C20.13 5.57859 22 5.57859 22 8.13859C22 9.81859 21.36 10.4186 20.52 10.6186C20.24 10.6786 19.95 10.6986 19.64 10.6986H4.36C4.06 10.6986 3.75 10.6886 3.46 10.6186C3.15 10.5486 2.86 10.4186 2.62 10.1686C2.2 9.74859 2 9.10859 2 8.13859C2 5.57859 3.87 5.57859 4.77 5.57859H5.17L8.54 2.19859C8.82 1.92859 9.26 1.92859 9.53 2.19859C9.8 2.47859 9.8 2.91859 9.53 3.18859L7.14 5.57859H16.86L14.47 3.18859C14.2 2.90859 14.2 2.46859 14.47 2.19859C14.75 1.92859 15.19 1.92859 15.46 2.19859L18.84 5.57859ZM4.87064 12H19.0506C19.6806 12 20.1506 12.57 20.0306 13.19L19.0206 18.42C18.6606 20.31 18.0606 22 14.6906 22H9.08064C5.75064 22 5.00064 20.02 4.72064 18.3L3.88064 13.16C3.78064 12.55 4.25064 12 4.87064 12ZM7.75064 15.25C7.75064 17.59 9.66064 19.5 12.0006 19.5C14.3406 19.5 16.2506 17.59 16.2506 15.25C16.2506 14.84 15.9106 14.5 15.5006 14.5C15.0906 14.5 14.7506 14.84 14.7506 15.25C14.7506 16.77 13.5206 18 12.0006 18C10.4806 18 9.25064 16.77 9.25064 15.25C9.25064 14.84 8.91064 14.5 8.50064 14.5C8.09064 14.5 7.75064 14.84 7.75064 15.25Z" fill="#292D32"/>
</svg>
