<svg viewBox="0 0 24 24" fill="none" xmlns="http://www.w3.org/2000/svg">
<path fill-rule="evenodd" clip-rule="evenodd" d="M18.84 5.57859H19.24C20.13 5.57859 22 5.57859 22 8.13859C22 9.81859 21.36 10.4186 20.52 10.6186C20.24 10.6786 19.95 10.6986 19.64 10.6986H4.36C4.06 10.6986 3.75 10.6886 3.46 10.6186C3.15 10.5486 2.86 10.4186 2.62 10.1686C2.2 9.74859 2 9.10859 2 8.13859C2 5.57859 3.87 5.57859 4.77 5.57859H5.17L8.54 2.19859C8.82 1.92859 9.26 1.92859 9.53 2.19859C9.8 2.47859 9.8 2.91859 9.53 3.18859L7.14 5.57859H16.86L14.47 3.18859C14.2 2.90859 14.2 2.46859 14.47 2.19859C14.75 1.92859 15.19 1.92859 15.46 2.19859L18.84 5.57859ZM4.90971 12H19.0897C19.7197 12 20.1897 12.57 20.0697 13.19L19.0597 18.42C18.6997 20.31 18.0997 22 14.7297 22H9.11971C5.78971 22 5.03971 20.02 4.75971 18.3L3.91971 13.16C3.81971 12.55 4.28971 12 4.90971 12ZM11.6297 19.05L14.8797 16.05C15.1897 15.77 15.2097 15.3 14.9297 14.99C14.6497 14.69 14.1697 14.67 13.8697 14.95L11.1497 17.46L10.1597 16.47C9.8597 16.18 9.38971 16.18 9.08971 16.47C8.79971 16.76 8.79971 17.24 9.08971 17.53L10.5897 19.03C10.7397 19.18 10.9297 19.25 11.1197 19.25C11.3097 19.25 11.4897 19.18 11.6297 19.05Z" fill="#292D32"/>
</svg>
