<svg viewBox="0 0 24 24" fill="none" xmlns="http://www.w3.org/2000/svg">
<path fill-rule="evenodd" clip-rule="evenodd" d="M16.8797 7.63844C18.2797 7.78844 19.2897 8.21844 19.9597 8.95844C20.9297 10.0384 20.8997 11.4784 20.7897 12.4684L20.0897 18.0584C19.8797 19.9984 19.0897 21.9984 14.7897 21.9984H9.20975C4.90975 21.9984 4.11975 19.9984 3.90975 18.0484L3.20975 12.4784C3.09975 11.4784 3.06975 10.0384 4.03975 8.95844C4.70975 8.21844 5.71975 7.78844 7.11975 7.63844V7.05844C7.11975 4.55844 9.12975 2.24844 11.5197 2.01844C12.9097 1.88844 14.2497 2.32844 15.2797 3.26844C16.2997 4.18844 16.8797 5.50844 16.8797 6.87844V7.63844ZM14.3497 4.29844C13.6097 3.62844 12.6597 3.31844 11.6597 3.40844C9.97975 3.56844 8.50975 5.27844 8.50975 7.05844V7.57844H15.4897V6.87844C15.4897 5.89844 15.0797 4.95844 14.3497 4.29844ZM8.20975 14.7884C8.20975 16.8784 9.90975 18.5784 11.9997 18.5784C14.0897 18.5784 15.7897 16.8784 15.7897 14.7884C15.7897 12.6984 14.0897 10.9984 11.9997 10.9984C9.90975 10.9984 8.20975 12.6984 8.20975 14.7884ZM13.0691 14.7802L13.5991 15.3102C13.8891 15.6102 13.8891 16.0802 13.5991 16.3702C13.4491 16.5202 13.2591 16.5902 13.0691 16.5902C12.8791 16.5902 12.6891 16.5202 12.5391 16.3702L12.0091 15.8402L11.4591 16.3902C11.3091 16.5402 11.1191 16.6102 10.9291 16.6102C10.7391 16.6102 10.5491 16.5402 10.3991 16.3902C10.1091 16.1002 10.1091 15.6202 10.3991 15.3302L10.9491 14.7802L10.4191 14.2502C10.1291 13.9602 10.1291 13.4802 10.4191 13.1902C10.7091 12.9002 11.1891 12.9002 11.4791 13.1902L12.0091 13.7202L12.5091 13.2202C12.7991 12.9302 13.2791 12.9302 13.5691 13.2202C13.8591 13.5102 13.8591 13.9902 13.5691 14.2802L13.0691 14.7802Z" fill="#292D32"/>
</svg>
