<svg viewBox="0 0 24 24" fill="none" xmlns="http://www.w3.org/2000/svg">
<path fill-rule="evenodd" clip-rule="evenodd" d="M18.84 5.57859H19.24C20.13 5.57859 22 5.57859 22 8.13859C22 9.81859 21.36 10.4186 20.52 10.6186C20.24 10.6786 19.95 10.6986 19.64 10.6986H4.36C4.06 10.6986 3.75 10.6886 3.46 10.6186C3.15 10.5486 2.86 10.4186 2.62 10.1686C2.2 9.74859 2 9.10859 2 8.13859C2 5.57859 3.87 5.57859 4.77 5.57859H5.17L8.54 2.19859C8.82 1.92859 9.26 1.92859 9.53 2.19859C9.8 2.47859 9.8 2.91859 9.53 3.18859L7.14 5.57859H16.86L14.47 3.18859C14.2 2.90859 14.2 2.46859 14.47 2.19859C14.75 1.92859 15.19 1.92859 15.46 2.19859L18.84 5.57859ZM4.90971 12H19.0897C19.7197 12 20.1897 12.57 20.0697 13.19L19.0597 18.42C18.6997 20.31 18.0997 22 14.7297 22H9.11971C5.78971 22 5.03971 20.02 4.75971 18.3L3.91971 13.16C3.81971 12.55 4.28971 12 4.90971 12ZM13.3897 19.11C13.5897 19.11 13.7797 19.04 13.9197 18.89C14.2197 18.6 14.2197 18.13 13.9197 17.83L13.0797 16.98L13.8897 16.17C14.1897 15.87 14.1897 15.4 13.8897 15.11C13.5997 14.81 13.1297 14.81 12.8297 15.11L12.0197 15.92L11.1697 15.08C10.8697 14.78 10.3997 14.78 10.1097 15.08C9.80971 15.37 9.80971 15.84 10.1097 16.14L10.9597 16.98L10.0797 17.86C9.77971 18.16 9.77971 18.63 10.0797 18.92C10.2197 19.07 10.4097 19.14 10.6097 19.14C10.7997 19.14 10.9897 19.07 11.1397 18.92L12.0197 18.04L12.8597 18.89C13.0097 19.04 13.1997 19.11 13.3897 19.11Z" fill="#292D32"/>
</svg>
