<svg viewBox="0 0 24 24" fill="none" xmlns="http://www.w3.org/2000/svg">
<path fill-rule="evenodd" clip-rule="evenodd" d="M15.7197 7.58008C17.7397 7.58008 19.1197 8.03008 19.9597 8.96008C20.9297 10.0401 20.8997 11.4801 20.7897 12.4701L20.0897 18.0601C19.8797 20.0001 19.0897 22.0001 14.7897 22.0001H9.20975C4.90975 22.0001 4.11975 20.0001 3.90975 18.0501L3.20975 12.4801C3.09975 11.4801 3.06975 10.0401 4.03975 8.96008C4.87975 8.03008 6.25975 7.58008 8.27975 7.58008H15.7197ZM8.20975 14.7901C8.20975 16.8801 9.90975 18.5801 11.9997 18.5801C14.0897 18.5801 15.7897 16.8801 15.7897 14.7901C15.7897 12.7001 14.0897 11.0001 11.9997 11.0001C9.90975 11.0001 8.20975 12.7001 8.20975 14.7901ZM13.0691 14.7799L13.5991 15.3099C13.8891 15.6099 13.8891 16.0799 13.5991 16.3699C13.4491 16.5199 13.2591 16.5899 13.0691 16.5899C12.8791 16.5899 12.6891 16.5199 12.5391 16.3699L12.0091 15.8399L11.4591 16.3899C11.3091 16.5399 11.1191 16.6099 10.9291 16.6099C10.7391 16.6099 10.5491 16.5399 10.3991 16.3899C10.1091 16.0999 10.1091 15.6199 10.3991 15.3299L10.9491 14.7799L10.4191 14.2499C10.1291 13.9599 10.1291 13.4799 10.4191 13.1899C10.7091 12.8999 11.1891 12.8999 11.4791 13.1899L12.0091 13.7199L12.5091 13.2199C12.7991 12.9299 13.2791 12.9299 13.5691 13.2199C13.8591 13.5099 13.8591 13.9899 13.5691 14.2799L13.0691 14.7799Z" fill="#292D32"/>
<path opacity="0.4" fill-rule="evenodd" clip-rule="evenodd" d="M15.4894 8.1599C15.4894 8.5499 15.7994 8.8599 16.1894 8.8599C16.5694 8.8599 16.8794 8.5499 16.8794 8.1599V6.8799C16.8794 5.5099 16.2994 4.1899 15.2794 3.2699C14.2494 2.3299 12.9094 1.8899 11.5194 2.0199C9.12938 2.2499 7.10938 4.5599 7.10938 7.0599V7.9599C7.10938 8.3499 7.41937 8.6599 7.80937 8.6599C8.19937 8.6599 8.50938 8.3499 8.50938 7.9599V7.0599C8.50938 5.2799 9.97937 3.5699 11.6594 3.4099C12.6594 3.3199 13.6094 3.6299 14.3494 4.2999C15.0694 4.9599 15.4894 5.8999 15.4894 6.8799V8.1599ZM15.7909 14.79C15.7909 16.8832 14.0941 18.58 12.0009 18.58C9.90778 18.58 8.21094 16.8832 8.21094 14.79C8.21094 12.6968 9.90778 11 12.0009 11C14.0941 11 15.7909 12.6968 15.7909 14.79Z" fill="#292D32"/>
</svg>
