<svg viewBox="0 0 24 24" fill="none" xmlns="http://www.w3.org/2000/svg">
<path fill-rule="evenodd" clip-rule="evenodd" d="M15.7197 7.58008C17.7397 7.58008 19.1197 8.03008 19.9597 8.96008C20.9297 10.0401 20.8997 11.4801 20.7897 12.4701L20.0897 18.0601C19.8797 20.0001 19.0897 22.0001 14.7897 22.0001H9.20975C4.90975 22.0001 4.11975 20.0001 3.90975 18.0501L3.20975 12.4801C3.09975 11.4801 3.06975 10.0401 4.03975 8.96008C4.87975 8.03008 6.25975 7.58008 8.27975 7.58008H15.7197ZM8.20975 14.7901C8.20975 16.8801 9.90975 18.5801 11.9997 18.5801C14.0897 18.5801 15.7897 16.8801 15.7897 14.7901C15.7897 12.7001 14.0897 11.0001 11.9997 11.0001C9.90975 11.0001 8.20975 12.7001 8.20975 14.7901ZM10.3599 16.2201C10.4999 16.4501 10.7499 16.5801 10.9999 16.5801C11.1299 16.5801 11.2699 16.5401 11.3899 16.4701L12.6399 15.7201C12.8599 15.5901 12.9999 15.3401 12.9999 15.0801V13.5801C12.9999 13.1601 12.6699 12.8301 12.2599 12.8301C11.8499 12.8301 11.5099 13.1701 11.5099 13.5801V14.6601L10.6199 15.1901C10.2599 15.4001 10.1499 15.8701 10.3599 16.2201Z" fill="#292D32"/>
<path opacity="0.4" fill-rule="evenodd" clip-rule="evenodd" d="M15.4894 8.1599C15.4894 8.5499 15.7994 8.8599 16.1894 8.8599C16.5694 8.8599 16.8794 8.5499 16.8794 8.1599V6.8799C16.8794 5.5099 16.2994 4.1899 15.2794 3.2699C14.2494 2.3299 12.9094 1.8899 11.5194 2.0199C9.12938 2.2499 7.10938 4.5599 7.10938 7.0599V7.9599C7.10938 8.3499 7.41937 8.6599 7.80937 8.6599C8.19937 8.6599 8.50938 8.3499 8.50938 7.9599V7.0599C8.50938 5.2799 9.97937 3.5699 11.6594 3.4099C12.6594 3.3199 13.6094 3.6299 14.3494 4.2999C15.0694 4.9599 15.4894 5.8999 15.4894 6.8799V8.1599ZM12.0009 18.58C14.0909 18.58 15.7909 16.88 15.7909 14.79C15.7909 12.7 14.0909 11 12.0009 11C9.91094 11 8.21094 12.7 8.21094 14.79C8.21094 16.88 9.91094 18.58 12.0009 18.58Z" fill="#292D32"/>
</svg>
