<svg viewBox="0 0 24 24" fill="none" xmlns="http://www.w3.org/2000/svg">
<path fill-rule="evenodd" clip-rule="evenodd" d="M21.37 5.74982L12.37 2.14984C12.17 2.06984 11.83 2.06984 11.63 2.14984L2.63 5.74982C2.28 5.88982 2 6.29981 2 6.67981V9.99982C2 10.5498 2.45 10.9998 3 10.9998H21C21.55 10.9998 22 10.5498 22 9.99982V6.67981C22 6.29981 21.72 5.88982 21.37 5.74982ZM12 8.49982C11.17 8.49982 10.5 7.82982 10.5 6.99982C10.5 6.16982 11.17 5.49982 12 5.49982C12.83 5.49982 13.5 6.16982 13.5 6.99982C13.5 7.82982 12.83 8.49982 12 8.49982ZM14 11V18H21C21.55 18 22 18.45 22 19V21.25H23C23.41 21.25 23.75 21.59 23.75 22C23.75 22.41 23.41 22.75 23 22.75H1C0.59 22.75 0.25 22.41 0.25 22C0.25 21.59 0.59 21.25 1 21.25H2V19C2 18.45 2.45 18 3 18H10V11H14Z" fill="#292D32"/>
<path opacity="0.4" fill-rule="evenodd" clip-rule="evenodd" d="M4 11H8V18H4V11ZM16 11H20V18H16V11Z" fill="#292D32"/>
</svg>
