<svg viewBox="0 0 24 24" fill="none" xmlns="http://www.w3.org/2000/svg">
<path fill-rule="evenodd" clip-rule="evenodd" d="M3 12.0001C2.04 12.0001 1.25 11.2101 1.25 10.2501V6.93013C1.25 6.25013 1.71998 5.56013 2.34998 5.31013L11.35 1.71016C11.73 1.56016 12.27 1.56016 12.65 1.71016L21.65 5.31013C22.28 5.56013 22.75 6.26013 22.75 6.93013V10.2501C22.75 11.2101 21.96 12.0001 21 12.0001H20.75V17.25H21C21.96 17.25 22.75 18.04 22.75 19V21.25H23C23.41 21.25 23.75 21.59 23.75 22C23.75 22.41 23.41 22.75 23 22.75H22H2H1C0.59 22.75 0.25 22.41 0.25 22C0.25 21.59 0.59 21.25 1 21.25H1.25V19C1.25 18.04 2.04 17.25 3 17.25H3.25V12.0001H3ZM21.25 19V21.25H2.75V19C2.75 18.86 2.86 18.75 3 18.75H4H8H12H16H20H21C21.14 18.75 21.25 18.86 21.25 19ZM19.25 17.25V12.0001H16.75V17.25H19.25ZM12.75 12.0001H15.25V17.25H12.75V12.0001ZM11.25 17.25V12.0001H8.75V17.25H11.25ZM4.75 12.0001H7.25V17.25H4.75V12.0001ZM12 3.09016H11.9994C11.9596 3.09016 11.9199 3.09016 11.9 3.10011L2.90997 6.70015C2.84997 6.73015 2.75 6.86013 2.75 6.93013V10.2501C2.75 10.3901 2.86 10.5001 3 10.5001H21C21.14 10.5001 21.25 10.3901 21.25 10.2501V6.93013C21.25 6.86013 21.16 6.73015 21.09 6.70015L12.09 3.10011C12.0701 3.09016 12.0403 3.09016 12.0006 3.09016H12ZM9.75 7C9.75 8.24 10.76 9.25 12 9.25C13.24 9.25 14.25 8.24 14.25 7C14.25 5.76 13.24 4.75 12 4.75C10.76 4.75 9.75 5.76 9.75 7ZM11.25 7C11.25 6.59 11.59 6.25 12 6.25C12.41 6.25 12.75 6.59 12.75 7C12.75 7.41 12.41 7.75 12 7.75C11.59 7.75 11.25 7.41 11.25 7Z" fill="#292D32"/>
</svg>
