<svg viewBox="0 0 24 24" fill="none" xmlns="http://www.w3.org/2000/svg">
<path fill-rule="evenodd" clip-rule="evenodd" d="M12.37 2.14984L21.37 5.74984C21.72 5.88984 22 6.29984 22 6.67984V9.99984C22 10.5498 21.55 10.9998 21 10.9998H3C2.45 10.9998 2 10.5498 2 9.99984V6.67984C2 6.29984 2.28 5.88984 2.63 5.74984L11.63 2.14984C11.83 2.06984 12.17 2.06984 12.37 2.14984ZM10.5 6.99984C10.5 7.82984 11.17 8.49984 12 8.49984C12.83 8.49984 13.5 7.82984 13.5 6.99984C13.5 6.16984 12.83 5.49984 12 5.49984C11.17 5.49984 10.5 6.16984 10.5 6.99984ZM7 11H5V18H3C2.45 18 2 18.45 2 19V21.25H1C0.59 21.25 0.25 21.59 0.25 22C0.25 22.41 0.59 22.75 1 22.75H23C23.41 22.75 23.75 22.41 23.75 22C23.75 21.59 23.41 21.25 23 21.25H22V19C22 18.45 21.55 18 21 18H19V11H17V18H15V11H13V18H11V11H9V18H7V11Z" fill="#292D32"/>
</svg>
