<svg viewBox="0 0 24 24" fill="none" xmlns="http://www.w3.org/2000/svg">
<path fill-rule="evenodd" clip-rule="evenodd" d="M1.25 15.5C1.25 19.15 3.35 21.25 7 21.25H17C20.65 21.25 22.75 19.15 22.75 15.5V8.5C22.75 4.85 20.65 2.75 17 2.75H7C3.35 2.75 1.25 4.85 1.25 8.5V15.5ZM2.75 8.5C2.75 5.64 4.14 4.25 7 4.25H17C19.86 4.25 21.25 5.64 21.25 8.5V15.5C21.25 18.36 19.86 19.75 17 19.75H7C4.14 19.75 2.75 18.36 2.75 15.5V8.5ZM5.25 16C5.25 16.41 5.59 16.75 6 16.75C6.41 16.75 6.75 16.41 6.75 16V8C6.75 7.59 6.41 7.25 6 7.25C5.59 7.25 5.25 7.59 5.25 8V16ZM9 12.75C8.59 12.75 8.25 12.41 8.25 12V8C8.25 7.59 8.59 7.25 9 7.25C9.41 7.25 9.75 7.59 9.75 8V12C9.75 12.41 9.41 12.75 9 12.75ZM8.25 16C8.25 16.41 8.59 16.75 9 16.75C9.41 16.75 9.75 16.41 9.75 16V15C9.75 14.59 9.41 14.25 9 14.25C8.59 14.25 8.25 14.59 8.25 15V16ZM15 9.75C14.59 9.75 14.25 9.41 14.25 9V8C14.25 7.59 14.59 7.25 15 7.25C15.41 7.25 15.75 7.59 15.75 8V9C15.75 9.41 15.41 9.75 15 9.75ZM11.25 16C11.25 16.41 11.59 16.75 12 16.75C12.41 16.75 12.75 16.41 12.75 16V8C12.75 7.59 12.41 7.25 12 7.25C11.59 7.25 11.25 7.59 11.25 8V16ZM15 16.75C14.59 16.75 14.25 16.41 14.25 16V12C14.25 11.59 14.59 11.25 15 11.25C15.41 11.25 15.75 11.59 15.75 12V16C15.75 16.41 15.41 16.75 15 16.75ZM17.25 16C17.25 16.41 17.59 16.75 18 16.75C18.41 16.75 18.75 16.41 18.75 16V8C18.75 7.59 18.41 7.25 18 7.25C17.59 7.25 17.25 7.59 17.25 8V16Z" fill="#292D32"/>
</svg>
