<svg viewBox="0 0 24 24" fill="none" xmlns="http://www.w3.org/2000/svg">
<path d="M20.1406 13.1578L19.2992 13.9406L19.2715 13.9195C19.3675 13.5614 19.4635 13.205 19.5612 12.8485C19.8053 11.9615 20.0495 11.0761 20.2952 10.1891C20.2952 10.1859 20.2952 10.1826 20.2952 10.181C20.2952 10.137 20.318 10.0963 20.3571 10.0752C20.4157 10.0654 20.414 10.1321 20.4352 10.1696C20.5605 10.4007 20.6549 10.6465 20.8014 10.8662C20.9397 11.2015 21.1009 11.5351 21.275 11.8525C21.2962 11.885 21.3092 11.9225 21.3092 11.9615C21.3092 12.0282 21.275 12.0917 21.218 12.1275C20.8518 12.4677 20.497 12.8144 20.1406 13.1578Z" fill="#292D32"/>
<path d="M20.1403 13.1588C20.4984 12.8153 20.8532 12.4687 21.2161 12.1301C21.2731 12.0943 21.3073 12.0309 21.3073 11.9641C21.3073 11.9251 21.2959 11.8876 21.2731 11.8551C21.0973 11.5377 20.9378 11.2041 20.7995 10.8688L21.0501 10.0273C21.1543 10.2275 21.2405 10.3919 21.3235 10.5579C21.5335 10.9762 21.7386 11.3977 21.9566 11.8128C21.9859 11.8535 22.0006 11.9023 22.0006 11.9527C22.0006 12.0357 21.9583 12.1139 21.8867 12.1578C21.291 12.7096 20.7067 13.2743 20.1191 13.8342C20.0817 13.883 20.0312 13.9205 19.9727 13.94C20.0475 13.6845 20.1045 13.4224 20.1403 13.1588Z" fill="#292D32"/>
<path fill-rule="evenodd" clip-rule="evenodd" d="M6.94353 12.0042C7.06723 12.0611 7.14698 12.1848 7.14698 12.3199C7.14698 12.3753 7.13396 12.4306 7.10792 12.4794C7.01026 12.7968 6.93051 13.119 6.84263 13.438C6.81821 13.7408 6.56431 13.9735 6.26159 13.9735C6.22741 13.9735 6.19323 13.9703 6.15905 13.9654C4.81307 13.9654 3.46871 13.967 2.12272 13.9686C2.01693 13.9686 1.97787 13.9589 2.01205 13.8401C2.35872 12.6112 2.7005 11.3824 3.04066 10.1536C3.0488 10.0804 3.11065 10.0234 3.18388 10.0234C3.1904 10.0234 3.19853 10.0234 3.20504 10.0251C4.59009 10.0283 5.97677 10.0267 7.36181 10.0299C7.38135 10.0267 7.40088 10.0234 7.42041 10.0234C7.57502 10.0234 7.69872 10.1488 7.69872 10.3017C7.69872 10.3408 7.69058 10.3782 7.6743 10.4141C7.57014 10.8242 7.45621 11.2311 7.3374 11.638C7.27393 11.817 7.12745 11.9537 6.94353 12.0042ZM10.2165 11.6136C10.669 11.6136 11.1215 11.6054 11.5739 11.6184C11.5837 11.6184 11.5935 11.6201 11.6032 11.6201C11.7171 11.6201 11.8099 11.5322 11.8181 11.4199C11.9238 11.0162 12.0378 10.6142 12.1371 10.209C12.1403 10.1048 12.2249 10.0234 12.3275 10.0234C12.3421 10.0234 12.3551 10.0251 12.3698 10.0283C12.4447 10.0332 12.5195 10.0365 12.596 10.0365C12.6693 10.0365 12.7441 10.0332 12.8174 10.0283C12.9378 10.0218 12.9655 10.0576 12.9313 10.1764C12.7604 10.7819 12.5977 11.3906 12.4316 11.996C12.2721 12.5803 12.1094 13.1646 11.9548 13.7505C11.9515 13.8726 11.8522 13.9703 11.7302 13.9703C11.7123 13.9703 11.6944 13.9686 11.6765 13.9637C11.6016 13.9572 11.5267 13.954 11.4519 13.954C11.3835 13.954 11.3151 13.9572 11.2468 13.9621C11.1312 13.967 11.1133 13.9296 11.1442 13.8205C11.2679 13.3974 11.3786 12.9726 11.5007 12.5478C11.5365 12.4241 11.5202 12.3736 11.3737 12.3753C10.4525 12.3818 9.52972 12.3818 8.60852 12.3769C8.59876 12.3753 8.58899 12.3753 8.57922 12.3753C8.47832 12.3753 8.39531 12.4534 8.39043 12.5543C8.28301 12.9807 8.15769 13.4039 8.04539 13.8287C8.03888 13.9052 7.97377 13.9654 7.89565 13.9654C7.88589 13.9654 7.87612 13.9637 7.86636 13.9621C7.78823 13.9572 7.70686 13.9556 7.62873 13.9556C7.54736 13.9556 7.46598 13.9589 7.38623 13.9637C7.21859 13.9751 7.24626 13.8889 7.27555 13.7847C7.45621 13.1288 7.63687 12.4713 7.8159 11.8154C7.96726 11.2636 8.11863 10.7119 8.26673 10.1602C8.27162 10.0853 8.33346 10.0267 8.40833 10.0267C8.41484 10.0267 8.42298 10.0267 8.42949 10.0283C8.60038 10.0365 8.7729 10.0365 8.9438 10.0283C9.06261 10.0234 9.07563 10.0674 9.04633 10.1715C8.92427 10.6061 8.81196 11.0439 8.68664 11.4785C8.65246 11.594 8.68176 11.6168 8.79081 11.6152C9.26605 11.6103 9.7413 11.6136 10.2165 11.6136ZM13.8818 10.0413C13.9388 10.0413 13.9957 10.0413 14.0527 10.0413C14.2805 10.0413 14.2822 10.0413 14.2236 10.2513C13.9046 11.4069 13.5856 12.564 13.2649 13.7196C13.1933 13.9784 13.1901 13.9784 12.9248 13.9784C12.7995 13.9784 12.6725 13.9751 12.5472 13.98C12.4349 13.9849 12.4121 13.9475 12.443 13.8368C12.7474 12.7528 13.0469 11.6673 13.3463 10.5817C13.3838 10.4678 13.4147 10.3522 13.4375 10.235C13.4375 10.2318 13.4375 10.2301 13.4375 10.2269C13.4375 10.1178 13.5254 10.0316 13.6344 10.0316C13.6539 10.0316 13.6751 10.0348 13.693 10.0413C13.7272 10.0446 13.763 10.0446 13.7988 10.0446C13.8248 10.043 13.8541 10.043 13.8818 10.0413ZM18.2892 12.1539C18.1574 12.2711 18.0255 12.385 17.897 12.5038C17.4038 12.9579 16.9139 13.412 16.4224 13.8677C16.341 13.9442 16.2987 13.9572 16.2352 13.8449C15.8723 13.2086 15.5028 12.5771 15.135 11.944C15.1236 11.9277 15.109 11.9114 15.0943 11.8984C15.039 11.9684 15.0032 12.0546 14.995 12.1441C14.8404 12.6943 14.6907 13.246 14.5442 13.7994C14.541 13.8938 14.4645 13.9686 14.3701 13.9686C14.3587 13.9686 14.3473 13.967 14.3359 13.9654C14.1715 13.9524 14.0039 13.9605 13.8378 13.9637C13.7614 13.9654 13.719 13.954 13.7467 13.8563C14.0917 12.6112 14.4352 11.3645 14.7769 10.1178C14.7851 10.1048 14.7949 10.0918 14.8062 10.0804C14.873 10.1406 14.9267 10.2139 14.9641 10.2952C15.4296 11.07 15.8934 11.8447 16.3573 12.621C16.4615 12.7952 16.4582 12.7919 16.6145 12.6584C17.4543 11.9423 18.2941 11.2262 19.1372 10.5133C19.3064 10.3701 19.4741 10.2253 19.658 10.069C19.6612 10.0885 19.6629 10.1097 19.6629 10.1309C19.6629 10.1943 19.6466 10.2578 19.6173 10.3131C19.2983 11.4834 18.9744 12.6519 18.657 13.8221C18.6522 13.9052 18.5822 13.9703 18.4992 13.9703C18.4894 13.9703 18.4796 13.9686 18.4715 13.967C18.3901 13.9621 18.3071 13.9605 18.2257 13.9605C18.1476 13.9605 18.0679 13.9621 17.9897 13.967C17.853 13.9751 17.8416 13.9247 17.8758 13.8059C18.0207 13.2948 18.159 12.7805 18.299 12.2678C18.3071 12.2532 18.312 12.2369 18.312 12.2206C18.312 12.193 18.3039 12.1702 18.2892 12.1539ZM3.7991 10.7982C4.67635 10.8095 5.55035 10.7965 6.42597 10.7965C6.58059 10.7965 6.70591 10.9218 6.70591 11.0765C6.70591 11.1155 6.69777 11.1546 6.6815 11.192C6.63755 11.4362 6.42434 11.6152 6.17533 11.6152C5.30947 11.6136 4.44198 11.6136 3.5745 11.6184C3.43127 11.6184 3.42639 11.5615 3.4622 11.4508C3.51916 11.288 3.56636 11.1237 3.60217 10.956C3.60379 10.8665 3.67703 10.7965 3.76655 10.7965C3.77794 10.7949 3.78771 10.7965 3.7991 10.7982ZM3.3206 12.3785C4.19134 12.3785 5.06371 12.3801 5.93608 12.3834C6.23555 12.385 6.35436 12.6601 6.17858 12.9433C6.08419 13.1028 5.91329 13.2004 5.72775 13.2004C4.87329 13.2004 4.02045 13.1907 3.16598 13.202C3.03415 13.2037 2.9723 13.1858 3.02601 13.0328C3.08623 12.8619 3.12855 12.6812 3.17249 12.5055C3.18388 12.4322 3.24736 12.3785 3.3206 12.3785Z" fill="#292D32"/>
</svg>
