<svg viewBox="0 0 24 24" fill="none" xmlns="http://www.w3.org/2000/svg">
<path opacity="0.4" d="M9.46921 17.9977L5.16875 21.9987L5.02734 21.8906C5.51811 20.0606 6.00888 18.2389 6.50797 16.4173C7.75568 11.8839 9.0034 7.35885 10.2594 2.82548C10.2594 2.80884 10.2594 2.79221 10.2594 2.78389C10.2594 2.5593 10.3759 2.35135 10.5755 2.24321C10.875 2.1933 10.8667 2.53434 10.9748 2.72566C11.6153 3.90683 12.0977 5.16287 12.8464 6.28581C13.5534 7.99934 14.3769 9.70455 15.2669 11.3266C15.3751 11.4929 15.4416 11.6843 15.4416 11.8839C15.4416 12.2249 15.2669 12.5493 14.9758 12.7323C13.1042 14.4708 11.2909 16.2426 9.46921 17.9977Z" fill="#292D32"/>
<path d="M9.46809 18.004C11.2981 16.2489 13.1114 14.4772 14.9664 12.747C15.2575 12.564 15.4322 12.2396 15.4322 11.8985C15.4322 11.6989 15.374 11.5076 15.2575 11.3412C14.3591 9.7192 13.544 8.01399 12.8369 6.30046L14.1179 2C14.6503 3.02313 15.0911 3.86326 15.5154 4.7117C16.5884 6.84946 17.6365 9.00384 18.7511 11.125C18.9008 11.3329 18.9757 11.5825 18.9757 11.8403C18.9757 12.2645 18.7594 12.6638 18.3934 12.8884C15.349 15.7082 12.3628 18.5946 9.35996 21.456C9.16864 21.7056 8.91078 21.8969 8.61133 21.9967C8.99396 20.6908 9.28509 19.3516 9.46809 18.004Z" fill="#292D32"/>
</svg>
