<svg viewBox="0 0 24 24" fill="none" xmlns="http://www.w3.org/2000/svg">
<path fill-rule="evenodd" clip-rule="evenodd" d="M21.0799 3.25H22C22.41 3.25 22.75 2.91 22.75 2.5C22.75 2.09 22.41 1.75 22 1.75H2C1.59 1.75 1.25 2.09 1.25 2.5C1.25 2.91 1.59 3.25 2 3.25H2.91992V14.4798C2.91992 15.6898 3.49991 16.8498 4.46991 17.5798L9.6799 21.4798C10.3599 21.9898 11.1799 22.2498 11.9999 22.2498C12.8199 22.2498 13.6399 21.9898 14.3199 21.4798L19.5299 17.5798C20.4999 16.8498 21.0799 15.6898 21.0799 14.4798V3.25ZM4.41992 3.25H19.5899V14.4698C19.5899 15.2098 19.2299 15.9198 18.6399 16.3698L13.4299 20.2698C12.5899 20.8998 11.4199 20.8998 10.5799 20.2698L5.3699 16.3698C4.7799 15.9198 4.41992 15.2098 4.41992 14.4698V3.25ZM16 8.75H8C7.59 8.75 7.25 8.41 7.25 8C7.25 7.59 7.59 7.25 8 7.25H16C16.41 7.25 16.75 7.59 16.75 8C16.75 8.41 16.41 8.75 16 8.75ZM8 13.75H16C16.41 13.75 16.75 13.41 16.75 13C16.75 12.59 16.41 12.25 16 12.25H8C7.59 12.25 7.25 12.59 7.25 13C7.25 13.41 7.59 13.75 8 13.75Z" fill="#292D32"/>
</svg>
