<svg viewBox="0 0 24 24" fill="none" xmlns="http://www.w3.org/2000/svg">
<path fill-rule="evenodd" clip-rule="evenodd" d="M2 16.74V4.67002C2 3.47002 2.97998 2.58003 4.16998 2.68003H4.22998C6.32998 2.86003 9.51999 3.93002 11.3 5.05002L11.47 5.16001C11.62 5.25001 11.81 5.30002 12 5.30002V21.3301C11.82 21.3301 11.66 21.3 11.53 21.22C9.61003 20.16 6.25001 19.05 4.07001 18.76L3.73999 18.72C2.77999 18.6 2 17.7 2 16.74ZM19 7.07025V2.78027C17.77 2.98027 16.31 3.40023 15 3.92023V7.07025C15 7.47025 15.45 7.71023 15.78 7.49023L17 6.68024L18.22 7.49023C18.56 7.71023 19 7.47025 19 7.07025Z" fill="#292D32"/>
<path opacity="0.4" d="M12 5.30019V21.3302C12.17 21.3302 12.35 21.3002 12.49 21.2202L12.53 21.2002C14.45 20.1502 17.8 19.0502 19.97 18.7602L20.26 18.7202C21.22 18.6002 22 17.7002 22 16.7402V4.66018C22 3.47018 21.03 2.57019 19.84 2.67019C17.74 2.84019 14.56 3.90022 12.78 5.01022L12.53 5.16018C12.38 5.25018 12.19 5.30019 12 5.30019Z" fill="#292D32"/>
</svg>
