<svg viewBox="0 0 24 24" fill="none" xmlns="http://www.w3.org/2000/svg">
<path fill-rule="evenodd" clip-rule="evenodd" d="M4.22828 2.67969C6.10828 2.83969 8.87828 3.71969 10.7083 4.70969C11.0383 4.88969 11.2383 5.21969 11.2383 5.59969V19.5097C11.2383 20.2197 10.5183 20.7097 9.86828 20.4397C8.00828 19.6597 5.69828 18.9797 4.05828 18.7597L3.74828 18.7197C2.77828 18.5997 1.98828 17.7097 1.98828 16.7397V4.84969C1.98828 3.64969 2.95828 2.67969 4.15828 2.67969H4.22828ZM7.24828 7.73969H4.99828C4.58828 7.73969 4.24828 8.07969 4.24828 8.48969C4.24828 8.90969 4.58828 9.23969 4.99828 9.23969H7.24828C7.65828 9.23969 7.99828 8.90969 7.99828 8.48969C7.99828 8.07969 7.65828 7.73969 7.24828 7.73969ZM4.99828 12.2397H7.99828C8.40828 12.2397 8.74828 11.9097 8.74828 11.4897C8.74828 11.0797 8.40828 10.7397 7.99828 10.7397H4.99828C4.58828 10.7397 4.24828 11.0797 4.24828 11.4897C4.24828 11.9097 4.58828 12.2397 4.99828 12.2397ZM22 16.7397V4.84969C22 3.64969 21.03 2.67969 19.83 2.67969H19.77C17.89 2.83969 15.12 3.71969 13.29 4.70969C12.96 4.88969 12.75 5.22969 12.75 5.59969V19.5097C12.75 20.2197 13.47 20.7097 14.12 20.4397C15.98 19.6597 18.29 18.9797 19.93 18.7597L20.24 18.7197C21.21 18.5997 22 17.7097 22 16.7397Z" fill="#292D32"/>
</svg>
