<svg viewBox="0 0 24 24" fill="none" xmlns="http://www.w3.org/2000/svg">
<path fill-rule="evenodd" clip-rule="evenodd" d="M11.9998 22.08C11.6998 22.08 11.3998 22.01 11.1498 21.87C9.27978 20.85 5.99976 19.77 3.93976 19.5L3.64978 19.46C2.33978 19.3 1.25977 18.07 1.25977 16.74V4.65999C1.25977 3.86999 1.56977 3.15002 2.13977 2.63002C2.70977 2.11002 3.44974 1.86001 4.22974 1.93001C6.41974 2.11001 9.73975 3.21002 11.6198 4.38002L11.8597 4.52003C11.9297 4.55003 12.0798 4.56003 12.1398 4.52003L12.2997 4.42C12.9538 4.01001 13.7698 3.60954 14.6641 3.24652C14.6823 3.23699 14.7009 3.22813 14.72 3.21996C16.0765 2.67932 17.5586 2.25464 18.815 2.05038C18.8297 2.04648 18.8446 2.04301 18.8597 2.03999C19.1497 1.98999 19.4398 1.95001 19.6998 1.93001H19.8198C20.5498 1.87001 21.2997 2.12003 21.8597 2.64003C22.4297 3.16003 22.7397 3.88 22.7397 4.67V16.74C22.7397 18.08 21.6598 19.3 20.3398 19.46L20.0098 19.5C17.9498 19.77 14.6498 20.86 12.8198 21.87C12.5998 22.01 12.2998 22.08 11.9998 22.08ZM17.0049 7.57325L18.58 8.61998C18.71 8.70998 18.85 8.74999 19 8.74999C19.0352 8.74999 19.0704 8.74741 19.1053 8.74224C19.1921 8.73001 19.278 8.70247 19.3597 8.65999C19.6097 8.52999 19.7598 8.28001 19.7598 8.00002V3.43001H19.8998C20.2598 3.41001 20.6097 3.52001 20.8597 3.75001C21.1097 3.99001 21.2498 4.31001 21.2498 4.68001V16.75C21.2498 17.34 20.7397 17.92 20.1697 17.99L19.8298 18.03C17.7979 18.2998 14.796 19.2484 12.75 20.2439V5.89011C12.8156 5.86086 12.8791 5.8275 12.9398 5.78999L13.0997 5.69002C13.4372 5.49153 13.8239 5.2832 14.25 5.07479V7.99999C14.25 8.27999 14.41 8.52996 14.65 8.65996C14.7627 8.71853 14.8834 8.74666 15.0031 8.74617C15.1525 8.74749 15.3006 8.70426 15.4297 8.62001L17.0049 7.57325ZM18.2498 3.69005C17.453 3.86934 16.5867 4.12799 15.7598 4.43635V6.59349L16.58 6.04998C16.71 5.95998 16.86 5.91997 17 5.91997C17.14 5.91997 17.29 5.95998 17.42 6.04998L18.2498 6.5998V3.69005ZM3.97974 3.40999C3.65974 3.40999 3.36977 3.51999 3.13977 3.73C2.88977 3.96 2.74976 4.28999 2.74976 4.65999V16.74C2.74976 17.33 3.25977 17.9 3.82977 17.98L4.12976 18.02C6.1751 18.2927 9.21206 19.2513 11.25 20.2497V5.89101C11.191 5.86415 11.1341 5.83381 11.0798 5.8L10.8398 5.65004C9.14978 4.59004 6.06974 3.56999 4.10974 3.40999H3.97974Z" fill="#292D32"/>
</svg>
