<svg viewBox="0 0 24 24" fill="none" xmlns="http://www.w3.org/2000/svg">
<path fill-rule="evenodd" clip-rule="evenodd" d="M16.25 3C16.25 2.45 15.8 2 15.25 2H8.75C8.2 2 7.75 2.45 7.75 3V12.42C7.75 13.06 7.94 13.54 8.27 13.73C8.61 13.92 9.15 13.83 9.75 13.47L11.07 12.68C11.58 12.37 12.42 12.37 12.93 12.68L14.25 13.47C14.85 13.83 15.39 13.93 15.73 13.73C16.06 13.54 16.25 13.06 16.25 12.42V3ZM22 16.1898V7.80983C22 5.31983 20.98 3.50983 19.17 2.62983C18.52 2.30983 17.75 2.80983 17.75 3.53983V12.4198C17.75 13.6098 17.29 14.5598 16.48 15.0298C16.24 15.1698 15.84 15.3298 15.32 15.3298C14.82 15.3298 14.2 15.1898 13.48 14.7598L12.16 13.9698C12.1 13.9398 11.9 13.9398 11.82 13.9798L10.52 14.7598C9.44 15.4098 8.38 15.5098 7.54 15.0398C6.71 14.5598 6.25 13.6098 6.25 12.4198V3.53983C6.25 2.80983 5.49 2.30983 4.83 2.62983C3.02 3.50983 2 5.31983 2 7.80983V16.1898C2 19.3998 4.6 21.9998 7.81 21.9998H16.19C19.4 21.9998 22 19.3998 22 16.1898Z" fill="#292D32"/>
</svg>
