<svg viewBox="0 0 24 24" fill="none" xmlns="http://www.w3.org/2000/svg">
<path fill-rule="evenodd" clip-rule="evenodd" d="M15 22.75C20.43 22.75 22.75 20.43 22.75 15V9C22.75 3.57 20.43 1.25 15 1.25H9C3.57 1.25 1.25 3.57 1.25 9V15C1.25 20.43 3.57 22.75 9 22.75H15ZM7.75 2.79678C8.13993 2.7652 8.5562 2.75 9 2.75H15C15.44 2.75 15.853 2.76494 16.24 2.79598V12.4199C16.24 13.0599 16.05 13.5399 15.72 13.7299C15.38 13.9299 14.84 13.8399 14.24 13.4799L12.92 12.6899C12.38 12.3699 11.61 12.3699 11.07 12.6899L9.75 13.4799C9.16 13.8299 8.62 13.9299 8.27 13.7299C7.94 13.5499 7.75 13.0699 7.75 12.4199V2.79678ZM6.25 3.03253V12.4199C6.25 13.6399 6.7 14.5699 7.53 15.0399C7.87 15.2299 8.26 15.3299 8.68 15.3299C9.26 15.3299 9.9 15.1399 10.52 14.7699L11.84 13.9799C11.9 13.9399 12.09 13.9399 12.15 13.9799L13.47 14.7699C14.54 15.4099 15.63 15.5099 16.46 15.0399C17.29 14.5699 17.74 13.6399 17.74 12.4199V3.03001C20.2813 3.66819 21.25 5.45692 21.25 9V15C21.25 19.61 19.61 21.25 15 21.25H9C4.39 21.25 2.75 19.61 2.75 15V9C2.75 5.46157 3.71619 3.67289 6.25 3.03253Z" fill="#292D32"/>
</svg>
