<svg viewBox="0 0 24 24" fill="none" xmlns="http://www.w3.org/2000/svg">
<path fill-rule="evenodd" clip-rule="evenodd" d="M22.75 15C22.75 20.43 20.43 22.75 15 22.75H9C3.57 22.75 1.25 20.43 1.25 15V9C1.25 3.57 3.57 1.25 9 1.25H15C20.43 1.25 22.75 3.57 22.75 9V15ZM9 2.75C4.39 2.75 2.75 4.39 2.75 9V15C2.75 19.61 4.39 21.25 9 21.25H15C19.61 21.25 21.25 19.61 21.25 15V9C21.25 4.39 19.61 2.75 15 2.75H9ZM12.0001 18.9501C11.7601 18.9501 11.5201 18.8901 11.3201 18.7801C10.1601 18.1501 8.11013 17.4701 6.82013 17.3001L6.63013 17.2701C5.65013 17.1501 4.87012 16.2701 4.87012 15.2601V7.56009C4.87012 6.99009 5.11014 6.44009 5.52014 6.06009C5.94014 5.68009 6.48012 5.4901 7.06012 5.5401C8.52012 5.6601 10.6401 6.3601 11.8901 7.1401L11.9901 7.2001L12.0302 7.1701C13.2902 6.3801 15.4101 5.6701 16.8801 5.5401H16.9801C17.5001 5.4901 18.0601 5.69009 18.4701 6.06009C18.8901 6.44009 19.1201 6.97008 19.1201 7.55008V15.2401C19.1201 16.2401 18.3401 17.1201 17.3501 17.2501L17.1401 17.2801C15.8601 17.4501 13.8001 18.1301 12.6601 18.7601C12.4701 18.9001 12.2401 18.9501 12.0001 18.9501ZM6.89014 7.05008C6.75014 7.05008 6.6301 7.10008 6.5401 7.18008C6.4301 7.28008 6.38013 7.4201 6.38013 7.5701V15.2701C6.38013 15.5101 6.60014 15.7601 6.83014 15.7901L7.02014 15.8201C8.2214 15.9847 9.9507 16.508 11.25 17.0838V8.52401L11.1101 8.44009C10.0601 7.78009 8.15012 7.15008 6.94012 7.05008H6.89014ZM12.75 8.51415V17.0872C14.0019 16.5122 15.7402 15.9765 16.9501 15.8201L17.1701 15.7901C17.4001 15.7601 17.6201 15.5101 17.6201 15.2701V7.58007C17.6201 7.42007 17.5601 7.29009 17.4601 7.19009C17.3501 7.09009 17.2101 7.05009 17.0501 7.06009H16.9501C15.7901 7.16009 13.8801 7.80008 12.8401 8.46008L12.75 8.51415Z" fill="#292D32"/>
</svg>
