<svg viewBox="0 0 24 24" fill="none" xmlns="http://www.w3.org/2000/svg">
<path fill-rule="evenodd" clip-rule="evenodd" d="M18.38 15.2698V7.69983C18.38 6.92983 17.76 6.3098 16.99 6.2998H16.95C15.72 6.4098 13.91 6.98983 12.75 7.63983C12.59 7.72983 12.5 7.8998 12.5 8.0798V17.2298C12.5 17.5898 12.86 17.8298 13.19 17.6898C14.4 17.1798 15.97 16.7098 17.06 16.5598L17.27 16.5398C17.88 16.4598 18.38 15.8898 18.38 15.2698ZM11.4991 17.25V8.09C11.4991 7.91 11.4092 7.74001 11.2592 7.67001C10.0992 7.01001 8.24915 6.41 6.99915 6.31C6.23915 6.25 5.61914 6.81999 5.61914 7.57999V15.28C5.61914 15.9 6.11913 16.47 6.72913 16.55L6.91913 16.57C8.01913 16.71 9.59914 17.19 10.8091 17.71C11.1391 17.85 11.4991 17.61 11.4991 17.25Z" fill="#292D32"/>
<path opacity="0.4" d="M16.1898 2H7.81976C4.17976 2 2.00977 4.17 2.00977 7.81V16.18C2.00977 19.82 4.17976 21.99 7.81976 21.99H16.1898C19.8298 21.99 21.9998 19.82 21.9998 16.18V7.81C21.9998 4.17 19.8298 2 16.1898 2Z" fill="#292D32"/>
</svg>
