<svg viewBox="0 0 24 24" fill="none" xmlns="http://www.w3.org/2000/svg">
<path fill-rule="evenodd" clip-rule="evenodd" d="M17 12.08V4.96C16.98 2.99 15.98 2 14 2H10C8.01 2 7.01 3 7 4.99V12.08C7 14.07 8.41 14.84 10.14 13.8L11.46 13C11.76 12.82 12.24 12.82 12.54 13L13.86 13.8C15.59 14.84 17 14.07 17 12.08ZM22 14.9308V11.9008C22 9.21083 21.43 7.38083 20.15 6.26083C19.51 5.70083 18.5 6.18083 18.5 7.03083V12.0808C18.5 13.5708 17.89 14.7708 16.83 15.3708C16.37 15.6308 15.86 15.7608 15.32 15.7608C14.6 15.7608 13.83 15.5308 13.09 15.0808L12 14.4308L10.92 15.0808C9.6 15.8708 8.24 15.9808 7.17 15.3708C6.11 14.7708 5.5 13.5708 5.5 12.0808V7.04083C5.5 6.19083 4.5 5.71083 3.85 6.26083C2.57 7.38083 2 9.21083 2 11.9008V14.9308C2 19.9808 4 22.0008 9 22.0008H15C20 22.0008 22 19.9808 22 14.9308Z" fill="#292D32"/>
</svg>
