<svg viewBox="0 0 24 24" fill="none" xmlns="http://www.w3.org/2000/svg">
<path fill-rule="evenodd" clip-rule="evenodd" d="M13.47 14.44C14.1 14.83 14.73 15.02 15.31 15.02C15.72 15.02 16.11 14.92 16.46 14.72C17.29 14.26 17.75 13.32 17.75 12.08V5.87583C20.2478 6.53159 21.24 8.29273 21.24 11.9V14.93C21.24 19.54 19.55 21.25 14.99 21.25H8.99C4.43 21.25 2.74 19.54 2.74 14.93V11.9C2.74 8.27154 3.74077 6.51741 6.25 5.87217V12.08C6.25 13.31 6.71 14.25 7.54 14.72C8.39 15.2 9.45 15.1 10.53 14.44L11.85 13.64C11.91 13.6 12.09 13.6 12.15 13.64L13.47 14.44ZM6.29039 4.32513C6.52954 2.33319 7.82422 1.25 10 1.25H14C16.1772 1.25 17.4721 2.3346 17.7101 4.32902C21.182 5.06052 22.74 7.41472 22.74 11.9V14.93C22.75 20.41 20.43 22.75 15 22.75H9C3.57 22.75 1.25 20.41 1.25 14.93V11.9C1.25 7.40845 2.81074 5.05363 6.29039 4.32513ZM12.93 12.35C12.66 12.19 12.33 12.11 12 12.11C11.67 12.11 11.34 12.19 11.05 12.36L9.73 13.16C9.14 13.52 8.6 13.61 8.26 13.42C7.93 13.23 7.74 12.74 7.74 12.08V5.03C7.74 3.43 8.41 2.75 9.99 2.75H13.99C15.57 2.75 16.24 3.43 16.24 5.03V12.07C16.24 12.73 16.05 13.22 15.72 13.41C15.38 13.6 14.84 13.51 14.25 13.15L12.93 12.35Z" fill="#292D32"/>
</svg>
