<svg viewBox="0 0 24 24" fill="none" xmlns="http://www.w3.org/2000/svg">
<path fill-rule="evenodd" clip-rule="evenodd" d="M8.5 2H15.5C19.5 2 20.5 3 20.5 7V12.5C20.5 13.05 20.05 13.5 19.5 13.5H6.35C5.26 13.5 4.26 13.91 3.5 14.58V7C3.5 3 4.5 2 8.5 2ZM8 10.75H13C13.41 10.75 13.75 10.41 13.75 10C13.75 9.59 13.41 9.25 13 9.25H8C7.59 9.25 7.25 9.59 7.25 10C7.25 10.41 7.59 10.75 8 10.75ZM8 7.25H16C16.41 7.25 16.75 6.91 16.75 6.5C16.75 6.09 16.41 5.75 16 5.75H8C7.59 5.75 7.25 6.09 7.25 6.5C7.25 6.91 7.59 7.25 8 7.25ZM20.5 18.5V16C20.5 15.45 20.05 15 19.5 15H6.35C4.78 15 3.5 16.28 3.5 17.85V18.5C3.5 20.43 5.07 22 7 22H17C18.93 22 20.5 20.43 20.5 18.5Z" fill="#292D32"/>
</svg>
