<svg viewBox="0 0 24 24" fill="none" xmlns="http://www.w3.org/2000/svg">
<path fill-rule="evenodd" clip-rule="evenodd" d="M11.25 19.9081V5.99813C11.25 5.61812 11.05 5.28813 10.72 5.10813C8.89 4.11812 6.12 3.23813 4.24 3.07812H4.17C2.97 3.07812 2 4.04813 2 5.24813V17.1381C2 18.1081 2.79 18.9981 3.76 19.1181L4.07 19.1581C5.71 19.3781 8.02 20.0581 9.88 20.8381C10.53 21.1081 11.25 20.6181 11.25 19.9081ZM19.77 3.07812H19.83C21.03 3.07812 22 4.04813 22 5.24813V17.1381C22 18.1081 21.21 18.9981 20.24 19.1181L19.93 19.1581C18.29 19.3781 15.98 20.0581 14.12 20.8381C13.47 21.1081 12.75 20.6181 12.75 19.9081V5.99813C12.75 5.62813 12.96 5.28813 13.29 5.10813C13.8 4.83813 14.38 4.56813 15 4.31813C16.31 3.79813 17.77 3.37813 19 3.17813C19.27 3.12813 19.53 3.09812 19.77 3.07812ZM18.65 14.0981C18.99 14.2881 19.27 14.1181 19.27 13.7281H19.28V10.6581C19.28 10.1981 18.9 9.81812 18.44 9.81812H16.34C15.88 9.81812 15.5 10.1981 15.5 10.6581V13.7281C15.5 14.1181 15.78 14.2881 16.12 14.0981L17.18 13.5081C17.3 13.4481 17.48 13.4481 17.59 13.5081L18.65 14.0981Z" fill="#292D32"/>
</svg>
