<svg viewBox="0 0 24 24" fill="none" xmlns="http://www.w3.org/2000/svg">
<path fill-rule="evenodd" clip-rule="evenodd" d="M12.0006 22.75C11.1206 22.75 10.2506 22.56 9.56061 22.18L4.22061 19.21C2.77061 18.41 1.64062 16.48 1.64062 14.82V9.16998C1.64062 7.50998 2.77061 5.59002 4.22061 4.78002L9.56061 1.82C10.9306 1.06 13.0706 1.06 14.4406 1.82L19.7806 4.78997C21.2306 5.58997 22.3606 7.51999 22.3606 9.17999V14.83C22.3606 16.49 21.2306 18.41 19.7806 19.22L14.4406 22.18C13.7506 22.56 12.8806 22.75 12.0006 22.75ZM12.0006 2.74999C11.3706 2.74999 10.7506 2.88 10.2906 3.13L8.76333 3.97944L17.044 8.76117L20.0467 7.02389C19.7564 6.63272 19.4112 6.30284 19.0506 6.09997L13.7106 3.13C13.2506 2.88 12.6306 2.74999 12.0006 2.74999ZM16.2512 10.9629V13.24C16.2512 13.65 16.5912 13.99 17.0012 13.99C17.4112 13.99 17.7512 13.6501 17.7512 13.2601V10.0941L20.7306 8.36824C20.8141 8.64685 20.8606 8.92272 20.8606 9.17999V14.83C20.8606 15.94 20.0106 17.37 19.0506 17.91L13.7106 20.88C13.4395 21.0319 13.1071 21.1386 12.75 21.2V12.991L16.2512 10.9629ZM15.5586 9.62062L11.9994 11.6799L3.95289 7.02338C4.24358 6.63251 4.58931 6.30321 4.95062 6.09997L7.24338 4.82479L15.5586 9.62062ZM11.25 12.9861L3.26955 8.36779C3.18671 8.64569 3.14062 8.92151 3.14062 9.17999V14.83C3.14062 15.93 3.99062 17.37 4.95062 17.91L10.2906 20.88C10.5614 21.0318 10.8933 21.1384 11.25 21.1998V12.9861Z" fill="#292D32"/>
</svg>
