<svg viewBox="0 0 24 24" fill="none" xmlns="http://www.w3.org/2000/svg">
<path fill-rule="evenodd" clip-rule="evenodd" d="M16.761 5.56953C18.821 5.56953 20.241 6.03953 21.091 6.97953C22.031 8.01953 22.051 9.39953 21.971 10.4095C21.9663 10.4428 21.9638 10.4715 21.9614 10.499C21.9588 10.5293 21.9563 10.558 21.951 10.5895L21.901 11.0595L21.8852 11.2023C21.8698 11.3408 21.7975 11.4668 21.6845 11.5484C21.3093 11.819 20.8977 12.0953 20.501 12.3195C20.4843 12.3295 20.4688 12.3395 20.4532 12.3495C20.4221 12.3695 20.391 12.3895 20.351 12.4095C18.571 13.4495 16.601 14.1595 14.561 14.4895C14.491 15.4595 14.061 16.5495 11.871 16.5495C9.68101 16.5495 9.27101 15.4495 9.18101 14.5095C7.27101 14.1995 5.39101 13.5695 3.68101 12.6295C3.53101 12.5495 3.38101 12.4695 3.24101 12.3795C3.00044 12.2459 2.59909 11.9872 2.35929 11.8303C2.2334 11.7479 2.15273 11.6126 2.13847 11.4628L2.06101 10.6495L2.05101 10.5795C1.95101 9.56953 1.92101 8.08953 2.91101 6.98953C3.76101 6.04953 5.17101 5.57953 7.24101 5.57953H7.48101V5.52953C7.48101 3.85953 7.48101 1.76953 11.241 1.76953H12.761C16.521 1.76953 16.521 3.84953 16.521 5.52953V5.56953H16.761ZM11.861 15.0495C13.091 15.0495 13.091 14.8895 13.091 13.8295V12.5795H10.631V13.8395C10.631 14.8595 10.631 15.0495 11.861 15.0495ZM8.91101 5.52953V5.56953V5.57953H15.091V5.52953C15.091 3.83953 15.091 3.19953 12.761 3.19953H11.241C8.91101 3.19953 8.91101 3.82953 8.91101 5.52953ZM21.5988 14.2369C21.6342 13.8469 21.2269 13.5666 20.8733 13.7349C19.6816 14.3019 17.443 15.3243 16.0635 15.6873C15.8991 15.7305 15.766 15.8481 15.694 16.0021C15.085 17.3034 13.752 18.0207 11.8698 18.0207C9.96896 18.0207 8.65253 17.33 8.04556 16.0319C7.97361 15.878 7.84072 15.7604 7.67641 15.7174C6.37724 15.3771 4.2741 14.4625 3.13468 13.947C2.78205 13.7874 2.38409 14.0674 2.41913 14.4529L2.75984 18.2007C2.96984 20.1907 3.78984 22.2307 8.18984 22.2307H15.8098C20.2098 22.2307 21.0298 20.1907 21.2398 18.1907L21.5988 14.2369Z" fill="#292D32"/>
</svg>
