<svg viewBox="0 0 24 24" fill="none" xmlns="http://www.w3.org/2000/svg">
<path fill-rule="evenodd" clip-rule="evenodd" d="M15.25 5.2V5.26001H8.75V5.2C8.75 3.42 8.75 2.75 11.2 2.75H12.8C15.25 2.75 15.25 3.42 15.25 5.2ZM7.25 5.2V5.26001H7.00023C4.84023 5.26001 3.35023 5.74001 2.45023 6.74001C1.41023 7.90001 1.44023 9.45001 1.55023 10.5L2.30023 18.51C2.52023 20.6 3.38023 22.75 8.00023 22.75H16.0002C20.6202 22.75 21.4802 20.6 21.7002 18.5L22.3968 11.0788C22.3973 11.0742 22.3978 11.0696 22.3982 11.0649C22.3985 11.0621 22.3987 11.0593 22.3989 11.0565L22.4502 10.51C22.5602 9.45001 22.5902 7.90001 21.5502 6.74001C20.6602 5.75001 19.1702 5.26001 17.0002 5.26001H16.75V5.2C16.75 3.44 16.75 1.25 12.8 1.25H11.2C7.25 1.25 7.25 3.44 7.25 5.2ZM20.9602 10.36L20.9394 10.5821C19.0977 11.8624 16.9749 12.7402 14.75 13.1417V13C14.75 11.59 14.41 11.25 13 11.25H11C9.59 11.25 9.25 11.59 9.25 13V13.1721C7.05662 12.7963 4.93937 11.944 3.07086 10.6772L3.04023 10.35C2.91023 9.11001 3.07023 8.28001 3.56023 7.74001C4.15023 7.08001 5.31023 6.75001 7.00023 6.75001H17.0002C18.6902 6.75001 19.8502 7.08001 20.4402 7.74001C20.9302 8.28001 21.0902 9.11001 20.9602 10.36ZM3.24692 12.5575L3.79023 18.36C3.96023 19.94 4.39023 21.25 8.00023 21.25H16.0002C19.6002 21.25 20.0402 19.94 20.2102 18.35L20.7609 12.4834C18.9153 13.5771 16.8664 14.3231 14.7288 14.6764C14.6427 15.6489 14.2068 16.75 12 16.75C9.79255 16.75 9.35704 15.6546 9.27112 14.6948C7.16308 14.3726 5.11038 13.6432 3.24692 12.5575ZM10.75 13V12.75H11H13H13.25V13V14.02C13.25 15.09 13.25 15.25 12 15.25C10.75 15.25 10.75 15.06 10.75 14.03V13Z" fill="#292D32"/>
</svg>
