<svg viewBox="0 0 24 24" fill="none" xmlns="http://www.w3.org/2000/svg">
<path fill-rule="evenodd" clip-rule="evenodd" d="M15.25 5.26001V5.2C15.25 3.42 15.25 2.75 12.8 2.75H11.2C8.75 2.75 8.75 3.42 8.75 5.2V5.26001H15.25ZM7.25 5.26001V5.2C7.25 3.44 7.25 1.25 11.2 1.25H12.8C16.75 1.25 16.75 3.44 16.75 5.2V5.26001H17.0002C19.1702 5.26001 20.6602 5.75001 21.5502 6.74001C22.5902 7.90001 22.5602 9.45001 22.4502 10.51L21.7002 18.5C21.4802 20.6 20.6202 22.75 16.0002 22.75H8.00023C3.38023 22.75 2.52023 20.6 2.30023 18.51L1.55023 10.5C1.44023 9.45001 1.41023 7.90001 2.45023 6.74001C3.35023 5.74001 4.84023 5.26001 7.00023 5.26001H7.25ZM7.00023 6.75001C5.31023 6.75001 4.15023 7.08001 3.56023 7.74001C3.07023 8.28001 2.91023 9.11001 3.04023 10.35L3.0685 10.652C4.43825 11.5827 5.9128 12.281 7.47918 12.7404C8.09616 10.8327 9.88903 9.44995 12 9.44995C14.103 9.44995 15.8904 10.8223 16.5138 12.7189C18.0985 12.2428 19.5833 11.5227 20.94 10.5758L20.9602 10.36C21.0902 9.11001 20.9302 8.28001 20.4402 7.74001C19.8502 7.08001 18.6902 6.75001 17.0002 6.75001H7.00023ZM7.25014 14.2366C5.84867 13.8428 4.50881 13.2713 3.24459 12.5326L3.79023 18.36C3.96023 19.94 4.39023 21.25 8.00023 21.25H16.0002C19.6002 21.25 20.0402 19.94 20.2102 18.35L20.7614 12.4783C19.5057 13.2255 18.1646 13.8077 16.75 14.2161C16.7413 16.8287 14.6146 18.95 12 18.95C9.39221 18.95 7.26987 16.8398 7.25014 14.2366ZM12 10.95C10.21 10.95 8.75 12.41 8.75 14.2C8.75 15.99 10.21 17.45 12 17.45C13.79 17.45 15.25 15.99 15.25 14.2C15.25 12.41 13.79 10.95 12 10.95ZM13.0704 16.0599C12.8804 16.0599 12.6904 15.9899 12.5404 15.8399L12.0148 15.3143L11.4591 15.8699C11.3091 16.0099 11.1191 16.0899 10.9291 16.0899C10.7391 16.0899 10.5491 16.0199 10.3991 15.8699C10.1091 15.5799 10.1091 15.0999 10.3991 14.8099L10.9548 14.2543L10.4304 13.7299C10.1404 13.4399 10.1404 12.9599 10.4304 12.6699C10.7204 12.3799 11.2004 12.3799 11.4904 12.6699L12.0148 13.1943L12.5091 12.6999C12.7991 12.4099 13.2791 12.4099 13.5691 12.6999C13.8591 12.9899 13.8591 13.4699 13.5691 13.7599L13.0748 14.2543L13.6004 14.7799C13.8904 15.0699 13.8904 15.5499 13.6004 15.8399C13.4504 15.9899 13.2604 16.0599 13.0704 16.0599Z" fill="#292D32"/>
</svg>
