<svg viewBox="0 0 24 24" fill="none" xmlns="http://www.w3.org/2000/svg">
<path fill-rule="evenodd" clip-rule="evenodd" d="M15.25 5.26001V5.2C15.25 3.42 15.25 2.75 12.8 2.75H11.2C8.75 2.75 8.75 3.42 8.75 5.2V5.26001H15.25ZM7.25 5.26001V5.2C7.25 3.44 7.25 1.25 11.2 1.25H12.8C16.75 1.25 16.75 3.44 16.75 5.2V5.26001H17.0002C19.1702 5.26001 20.6602 5.75001 21.5502 6.74001C22.5902 7.90001 22.5602 9.45001 22.4502 10.51L21.7002 18.5C21.4802 20.6 20.6202 22.75 16.0002 22.75H8.00023C3.38023 22.75 2.52023 20.6 2.30023 18.51L1.55023 10.5C1.44023 9.45001 1.41023 7.90001 2.45023 6.74001C3.35023 5.74001 4.84023 5.26001 7.00023 5.26001H7.25ZM7.00023 6.75001C5.31023 6.75001 4.15023 7.08001 3.56023 7.74001C3.07023 8.28001 2.91023 9.11001 3.04023 10.35L3.06987 10.6666C4.43806 11.596 5.9108 12.2936 7.47516 12.7529C8.08834 10.8387 9.88443 9.44995 12 9.44995C14.103 9.44995 15.8904 10.8223 16.5138 12.7189C18.0985 12.2428 19.5833 11.5227 20.94 10.5758L20.9602 10.36C21.0902 9.11001 20.9302 8.28001 20.4402 7.74001C19.8502 7.08001 18.6902 6.75001 17.0002 6.75001H7.00023ZM7.25026 14.2503C5.84925 13.8566 4.50981 13.2854 3.24595 12.5471L3.79023 18.36C3.96023 19.94 4.39023 21.25 8.00023 21.25H16.0002C19.6002 21.25 20.0402 19.94 20.2102 18.35L20.7614 12.4783C19.5057 13.2255 18.1646 13.8077 16.75 14.2161C16.7413 16.8287 14.6146 18.95 12 18.95C9.39679 18.95 7.27732 16.8472 7.25026 14.2503ZM8.75 14.2C8.75 12.41 10.21 10.95 12 10.95C13.79 10.95 15.25 12.41 15.25 14.2C15.25 15.99 13.79 17.45 12 17.45C10.21 17.45 8.75 15.99 8.75 14.2ZM9.91086 14.8201L10.5609 15.4701C10.8009 15.7101 11.1209 15.8301 11.4409 15.8301C11.7509 15.8301 12.0509 15.7201 12.3009 15.5001L14.0809 13.8601C14.3809 13.5801 14.4009 13.1001 14.1209 12.8001C13.8409 12.5001 13.3609 12.4801 13.0609 12.7601L11.4509 14.2401L10.9709 13.7601C10.6809 13.4701 10.2009 13.4701 9.91086 13.7601C9.62086 14.0501 9.62086 14.5301 9.91086 14.8201Z" fill="#292D32"/>
</svg>
