<svg viewBox="0 0 24 24" fill="none" xmlns="http://www.w3.org/2000/svg">
<path fill-rule="evenodd" clip-rule="evenodd" d="M18 22.75H19C21.42 22.75 22.75 21.42 22.75 19V5C22.75 2.58 21.42 1.25 19 1.25H13C11.2481 1.25 10.0674 1.94702 9.54905 3.25H7C5.48 3.25 4.25 4.48 4.25 6V7.29681C2.30665 7.55193 1.25 8.84297 1.25 11V19C1.25 21.42 2.58 22.75 5 22.75H13H14H18ZM9.25 19V8.75H5C3.42 8.75 2.75 9.42 2.75 11V19C2.75 20.58 3.42 21.25 5 21.25H9.79844C9.43703 20.6617 9.25 19.9075 9.25 19ZM9.25 7.25V5V4.75H7C6.31 4.75 5.75 5.31 5.75 6V7.25H9.25ZM10.8501 4.08561C11.0894 3.15729 11.7681 2.75 13 2.75H19C20.58 2.75 21.25 3.42 21.25 5V19C21.25 20.58 20.58 21.25 19 21.25H18.75V18C18.75 17.04 17.96 16.25 17 16.25H15C14.04 16.25 13.25 17.04 13.25 18V21.25H13C11.42 21.25 10.75 20.58 10.75 19V8V5C10.75 4.73733 10.7685 4.49982 10.8067 4.28635C10.8137 4.2535 10.8214 4.22145 10.83 4.19C10.8394 4.1556 10.8461 4.12072 10.8501 4.08561ZM14.75 21.25H17.25V18C17.25 17.86 17.14 17.75 17 17.75H15C14.86 17.75 14.75 17.86 14.75 18V21.25ZM13.25 13C13.25 13.41 13.59 13.75 14 13.75C14.41 13.75 14.75 13.41 14.75 13V8C14.75 7.59 14.41 7.25 14 7.25C13.59 7.25 13.25 7.59 13.25 8V13ZM18 13.75C17.59 13.75 17.25 13.41 17.25 13V8C17.25 7.59 17.59 7.25 18 7.25C18.41 7.25 18.75 7.59 18.75 8V13C18.75 13.41 18.41 13.75 18 13.75ZM6 17.75C5.59 17.75 5.25 17.41 5.25 17V13C5.25 12.59 5.59 12.25 6 12.25C6.41 12.25 6.75 12.59 6.75 13V17C6.75 17.41 6.41 17.75 6 17.75Z" fill="#292D32"/>
</svg>
