<svg viewBox="0 0 24 24" fill="none" xmlns="http://www.w3.org/2000/svg">
<path fill-rule="evenodd" clip-rule="evenodd" d="M10.6 4.15C10.6 4.34 10.44 4.5 10.25 4.5H9.12C6.96 4.5 5.2 6.26 5.2 8.42V17.65C5.2 17.84 5.04 18 4.85 18H4.15C2.96 18 2 17.04 2 15.85V4.15C2 2.96 2.96 2 4.15 2H8.45C9.64 2 10.6 2.96 10.6 4.15ZM22.0004 4.15V15.85C22.0004 17.04 21.0404 18 19.8504 18H19.2204C19.0304 18 18.8704 17.84 18.8704 17.65V8.42C18.8704 6.26 17.1104 4.5 14.9504 4.5H13.7504C13.5604 4.5 13.4004 4.34 13.4004 4.15C13.4004 2.96 14.3604 2 15.5504 2H19.8504C21.0404 2 22.0004 2.96 22.0004 4.15ZM9.08406 6H14.9141C16.2541 6 17.3341 7.08 17.3341 8.42V19.59C17.3341 20.92 16.2541 22 14.9241 22H13.2141C12.9341 22 12.7141 21.78 12.7141 21.5V19C12.7141 18.59 12.3741 18.25 11.9641 18.25C11.5541 18.25 11.2141 18.59 11.2141 19V21.5C11.2141 21.78 10.9941 22 10.7141 22H9.08406C7.74406 22 6.66406 20.92 6.66406 19.58V8.42C6.66406 7.08 7.74406 6 9.08406 6ZM9.96406 14.75H13.9641C14.3741 14.75 14.7141 14.41 14.7141 14C14.7141 13.59 14.3741 13.25 13.9641 13.25H9.96406C9.55406 13.25 9.21406 13.59 9.21406 14C9.21406 14.41 9.55406 14.75 9.96406 14.75ZM9.96406 11.75H13.9641C14.3741 11.75 14.7141 11.41 14.7141 11C14.7141 10.59 14.3741 10.25 13.9641 10.25H9.96406C9.55406 10.25 9.21406 10.59 9.21406 11C9.21406 11.41 9.55406 11.75 9.96406 11.75Z" fill="#292D32"/>
</svg>
