<svg viewBox="0 0 24 24" fill="none" xmlns="http://www.w3.org/2000/svg">
<path fill-rule="evenodd" clip-rule="evenodd" d="M5.08961 3H11.3196C13.3096 3 14.2996 4.01 14.2996 6.02V21.2511H19.22V18.2411C18.29 17.9211 17.61 17.0411 17.61 16.0011V14.0011C17.61 12.6911 18.68 11.6211 19.99 11.6211C21.3 11.6211 22.37 12.6911 22.37 14.0011V16.0011C22.37 17.0511 21.68 17.9411 20.73 18.2511V21.2511H23C23.41 21.2511 23.75 21.5911 23.75 22.0011C23.75 22.4111 23.41 22.7511 23 22.7511H20.03C20.02 22.7511 20.0125 22.7536 20.005 22.7561C19.9975 22.7586 19.99 22.7611 19.98 22.7611C19.97 22.7611 19.9625 22.7586 19.955 22.7561C19.9475 22.7536 19.94 22.7511 19.93 22.7511H1C0.59 22.7511 0.25 22.4111 0.25 22.0011C0.25 21.5911 0.59 21.2511 1 21.2511H2.09961V6.02C2.09961 4.01 3.09961 3 5.08961 3ZM7.49961 21.2511H8.99961V18.25C8.99961 17.83 8.65961 17.5 8.24961 17.5C7.83961 17.5 7.49961 17.84 7.49961 18.25V21.2511ZM5.79961 12.75H10.7496C11.1596 12.75 11.4996 12.41 11.4996 12C11.4996 11.59 11.1596 11.25 10.7496 11.25H5.79961C5.38961 11.25 5.04961 11.59 5.04961 12C5.04961 12.41 5.38961 12.75 5.79961 12.75ZM5.79961 9H10.7496C11.1596 9 11.4996 8.66 11.4996 8.25C11.4996 7.84 11.1596 7.5 10.7496 7.5H5.79961C5.38961 7.5 5.04961 7.84 5.04961 8.25C5.04961 8.66 5.38961 9 5.79961 9Z" fill="#292D32"/>
</svg>
