<svg viewBox="0 0 24 24" fill="none" xmlns="http://www.w3.org/2000/svg">
<path fill-rule="evenodd" clip-rule="evenodd" d="M3.01001 22.7598C2.96925 22.7598 2.92891 22.7565 2.88933 22.75H2C1.59 22.75 1.25 22.41 1.25 22C1.25 21.59 1.59 21.25 2 21.25H2.2595L2.2547 14.0832C2.2516 14.0558 2.25 14.0281 2.25 14C2.25 13.9723 2.25156 13.9448 2.25459 13.9178L2.25 7.0698C2.25 6.1598 2.70997 5.29977 3.46997 4.78977L7.46997 2.11979C8.39997 1.49979 9.60002 1.49979 10.52 2.11979L14.52 4.78977C15.29 5.29977 15.74 6.1498 15.74 7.0698L15.7446 13.9107C15.7482 13.94 15.75 13.9698 15.75 14C15.75 14.0298 15.7482 14.0593 15.7447 14.0883L15.7495 21.25H19.2305V18.6411C18.0856 18.3086 17.25 17.2528 17.25 16V14C17.25 12.48 18.48 11.25 20 11.25C21.52 11.25 22.75 12.48 22.75 14V16C22.75 17.267 21.8953 18.3326 20.7305 18.6521V21.25H22C22.41 21.25 22.75 21.59 22.75 22C22.75 22.41 22.41 22.75 22 22.75H20.104C20.0639 22.7566 20.0226 22.76 19.9805 22.76C19.9393 22.76 19.8988 22.7566 19.8594 22.75H9H8.87883L3.01001 22.7598ZM8.25 18.25V21.25H3.76L3.75542 14.75H14.2554L14.26 21.2398L9.75 21.2484V18.25C9.75 17.84 9.41 17.5 9 17.5C8.59 17.5 8.25 17.84 8.25 18.25ZM14.25 7.0698L14.2544 13.25H3.75436L3.75 7.0698C3.75 6.6498 3.96 6.25982 4.31 6.02982L8.31 3.35978C8.52 3.21978 8.76 3.14981 9 3.14981C9.24 3.14981 9.49001 3.21979 9.70001 3.36979L13.7 6.03977C14.04 6.25977 14.25 6.6498 14.25 7.0698ZM18.75 14C18.75 13.31 19.31 12.75 20 12.75C20.69 12.75 21.25 13.31 21.25 14V16C21.25 16.69 20.69 17.25 20 17.25C19.31 17.25 18.75 16.69 18.75 16V14ZM6.75 9C6.75 10.24 7.76 11.25 9 11.25C10.24 11.25 11.25 10.24 11.25 9C11.25 7.76 10.24 6.75 9 6.75C7.76 6.75 6.75 7.76 6.75 9ZM8.25 9C8.25 8.59 8.59 8.25 9 8.25C9.41 8.25 9.75 8.59 9.75 9C9.75 9.41 9.41 9.75 9 9.75C8.59 9.75 8.25 9.41 8.25 9Z" fill="#292D32"/>
</svg>
