<svg viewBox="0 0 24 24" fill="none" xmlns="http://www.w3.org/2000/svg">
<path fill-rule="evenodd" clip-rule="evenodd" d="M5.5 9.75H8.97C9.39 9.75 9.72 9.41 9.72 9C9.72 8.59 9.38 8.25 8.97 8.25H5.5C5.09 8.25 4.75 8.59 4.75 9C4.75 9.41 5.09 9.75 5.5 9.75ZM5.5 13.75H8.97C9.39 13.75 9.72 13.41 9.72 13C9.72 12.59 9.38 12.25 8.97 12.25H5.5C5.09 12.25 4.75 12.59 4.75 13C4.75 13.41 5.09 13.75 5.5 13.75ZM12.5 10.4199V16.4199C12.96 17.0299 13.68 17.4199 14.5 17.4199C15.8818 17.4199 16.9968 16.3131 17.0099 14.9443C17.023 16.3033 18.128 17.4199 19.5098 17.4199C20.8498 17.4199 21.9198 16.3699 21.9998 15.0599V15.0499C21.9998 15.0199 21.9973 14.9899 21.9948 14.9599C21.9923 14.9299 21.9898 14.8999 21.9898 14.8699C21.9198 13.8899 21.6198 13.2199 21.1598 12.7599C21.0698 12.6699 20.9698 12.5899 20.8698 12.5199C20.8698 12.5199 20.8598 12.5199 20.8598 12.5099C20.4698 12.2599 20.0198 12.0899 19.5298 11.9899L17.4898 11.5299L17.0098 11.4199V11.4299L12.97 10.5299L12.5 10.4199Z" fill="#292D32"/>
<path opacity="0.6" d="M22 15.0499V19.4999C22 20.8799 20.88 21.9999 19.5 21.9999H12.5V10.4199L12.97 10.5199L17.01 11.4199L17.49 11.5299L19.53 11.9899C20.02 12.0899 20.47 12.2599 20.86 12.5099C20.86 12.5199 20.87 12.5199 20.87 12.5199C20.97 12.5899 21.07 12.6699 21.16 12.7599C21.62 13.2199 21.92 13.8899 21.99 14.8699C21.99 14.9299 22 14.9899 22 15.0499Z" fill="#292D32"/>
<path opacity="0.4" d="M12.5007 7.40986V21.9999H4.0807C2.9207 21.9999 1.9707 21.0699 1.9707 19.9299V5.08986C1.9707 2.46986 3.9307 1.27986 6.3207 2.44986L10.7507 4.63986C11.7107 5.10986 12.5007 6.35986 12.5007 7.40986Z" fill="#292D32"/>
</svg>
