<svg viewBox="0 0 24 24" fill="none" xmlns="http://www.w3.org/2000/svg">
<path fill-rule="evenodd" clip-rule="evenodd" d="M14 13.75C13.59 13.75 13.25 13.41 13.25 13V8C13.25 7.59 13.59 7.25 14 7.25C14.41 7.25 14.75 7.59 14.75 8V13C14.75 13.41 14.41 13.75 14 13.75ZM10 8V19C10 21 11 22 13 22H5C3 22 2 21 2 19V11C2 9 3 8 5 8H10ZM6 17.75C6.41 17.75 6.75 17.41 6.75 17V13C6.75 12.59 6.41 12.25 6 12.25C5.59 12.25 5.25 12.59 5.25 13V17C5.25 17.41 5.59 17.75 6 17.75ZM18 22V18C18 17.45 17.55 17 17 17H15C14.45 17 14 17.45 14 18V22H18ZM17.25 13C17.25 13.41 17.59 13.75 18 13.75C18.41 13.75 18.75 13.41 18.75 13V8C18.75 7.59 18.41 7.25 18 7.25C17.59 7.25 17.25 7.59 17.25 8V13Z" fill="#292D32"/>
<path opacity="0.6" d="M10.11 4C10.03 4.3 10 4.63 10 5V8H5V6C5 4.9 5.9 4 7 4H10.11Z" fill="#292D32"/>
<path opacity="0.4" d="M14 22H13C11 22 10 21 10 19V5C10 3 11 2 13 2H19C21 2 22 3 22 5V19C22 21 21 22 19 22H18" fill="#292D32"/>
</svg>
