<svg viewBox="0 0 24 24" fill="none" xmlns="http://www.w3.org/2000/svg">
<path fill-rule="evenodd" clip-rule="evenodd" d="M10.7507 4.64035L6.3207 2.45035C3.9307 1.28035 1.9707 2.47035 1.9707 5.09035V19.9303C1.9707 21.0703 2.9207 22.0003 4.0807 22.0003H11.5007C12.0507 22.0003 12.5007 21.5503 12.5007 21.0003V7.41035C12.5007 6.36035 11.7107 5.11035 10.7507 4.64035ZM8.9707 13.7503H5.5007C5.0907 13.7503 4.7507 13.4103 4.7507 13.0003C4.7507 12.5903 5.0907 12.2503 5.5007 12.2503H8.9707C9.3807 12.2503 9.7207 12.5903 9.7207 13.0003C9.7207 13.4103 9.3907 13.7503 8.9707 13.7503ZM8.9707 9.75035H5.5007C5.0907 9.75035 4.7507 9.41035 4.7507 9.00035C4.7507 8.59035 5.0907 8.25035 5.5007 8.25035H8.9707C9.3807 8.25035 9.7207 8.59035 9.7207 9.00035C9.7207 9.41035 9.3907 9.75035 8.9707 9.75035ZM22 18.0391V19.4991C22 20.8791 20.88 21.9991 19.5 21.9991H14.97C14.43 21.9991 14 21.5691 14 21.0291V18.8691C15.07 18.9991 16.2 18.6891 17.01 18.0391C17.69 18.5891 18.56 18.9191 19.51 18.9191C20.44 18.9191 21.31 18.5891 22 18.0391ZM22 15.0605V15.0505C22 15.0205 21.9975 14.9905 21.995 14.9605C21.9925 14.9305 21.99 14.9005 21.99 14.8705C21.92 13.8905 21.62 13.2205 21.16 12.7605C21.07 12.6705 20.97 12.5905 20.87 12.5205C20.87 12.5205 20.86 12.5205 20.86 12.5105C20.47 12.2605 20.02 12.0905 19.53 11.9905L17.49 11.5305L17.01 11.4205L15.22 11.0205C14.59 10.8805 14 11.3605 14 12.0005V17.3705C15.6 17.6805 17.01 16.4505 17.01 14.9205C17.01 16.2905 18.12 17.4205 19.51 17.4205C20.85 17.4205 21.92 16.3705 22 15.0605Z" fill="#292D32"/>
</svg>
