<svg viewBox="0 0 24 24" fill="none" xmlns="http://www.w3.org/2000/svg">
<path fill-rule="evenodd" clip-rule="evenodd" d="M4.07973 22.7502H12.4997C12.5079 22.7502 12.5161 22.75 12.5243 22.7498H18.81C21.37 22.7498 22.72 21.3998 22.73 18.8398V15.0598C22.73 14.9498 22.73 14.8498 22.72 14.8498C22.66 12.8598 21.66 11.6898 19.67 11.2498L17.6996 10.8099C17.6768 10.8022 17.6535 10.7956 17.6297 10.79L13.2497 9.80691V7.41019C13.2497 6.07019 12.2997 4.56019 11.0897 3.96019L6.64973 1.78019C5.23973 1.08019 3.87973 1.06019 2.82973 1.72019C1.78973 2.37019 1.21973 3.56019 1.21973 5.09019V19.9302C1.21973 21.4902 2.50973 22.7502 4.07973 22.7502ZM15.2197 17.75C14.4677 17.75 13.778 17.4695 13.25 17.0081V21.2498H18.81C20.57 21.2498 21.22 20.5998 21.22 18.8398V17.3491C20.7787 17.6044 20.2661 17.7501 19.7197 17.7501C18.8267 17.7501 18.0215 17.3546 17.4707 16.7302C16.9215 17.3552 16.1174 17.75 15.2197 17.75ZM16.7197 14.75V12.13L13.7197 11.46V14.75C13.7197 15.58 14.3897 16.25 15.2197 16.25C16.0497 16.25 16.7197 15.58 16.7197 14.75ZM20.2034 13.0066C20.7984 13.3193 21.0993 13.8123 21.1921 14.6036C21.2003 14.6859 21.2062 14.7714 21.2097 14.8601C21.1597 15.6401 20.5097 16.2501 19.7197 16.2501C18.8897 16.2501 18.2197 15.5801 18.2197 14.7501V14.74V12.4601L19.3397 12.7101C19.6789 12.7858 19.965 12.8825 20.2034 13.0066ZM3.61973 3.00019C3.88973 2.83019 4.20973 2.75019 4.55973 2.75019C4.98973 2.75019 5.46973 2.88019 5.97973 3.13019L10.4197 5.31019C11.1297 5.65019 11.7497 6.64019 11.7497 7.41019V21.2502H4.07973C3.32973 21.2502 2.71973 20.6602 2.71973 19.9302V5.09019C2.71973 4.11019 3.03973 3.36019 3.61973 3.00019ZM8.97 9.75H5.5C5.09 9.75 4.75 9.41 4.75 9C4.75 8.59 5.09 8.25 5.5 8.25H8.97C9.38 8.25 9.72 8.59 9.72 9C9.72 9.41 9.39 9.75 8.97 9.75ZM5.5 13.75H8.97C9.39 13.75 9.72 13.41 9.72 13C9.72 12.59 9.38 12.25 8.97 12.25H5.5C5.09 12.25 4.75 12.59 4.75 13C4.75 13.41 5.09 13.75 5.5 13.75Z" fill="#292D32"/>
</svg>
