<svg viewBox="0 0 24 24" fill="none" xmlns="http://www.w3.org/2000/svg">
<path fill-rule="evenodd" clip-rule="evenodd" d="M14.11 5.40984C14.67 5.77984 15 6.39984 15 7.06984V12.7498C15 13.0298 14.78 13.2498 14.5 13.2498H3.5C3.22 13.2498 3 13.0298 3 12.7498V7.06984C3 6.39984 3.34 5.77984 3.89 5.40984L7.89 2.73984C8.56 2.28984 9.44 2.28984 10.11 2.73984L14.11 5.40984ZM7.25 8.99984C7.25 9.95984 8.04 10.7498 9 10.7498C9.96 10.7498 10.75 9.95984 10.75 8.99984C10.75 8.03984 9.96 7.24984 9 7.24984C8.04 7.24984 7.25 8.03984 7.25 8.99984ZM20.73 21.2511H22C22.41 21.2511 22.75 21.5911 22.75 22.0011C22.75 22.4111 22.41 22.7511 22 22.7511H20.03C20.02 22.7511 20.0125 22.7536 20.005 22.7561C19.9975 22.7586 19.99 22.7611 19.98 22.7611C19.97 22.7611 19.9625 22.7586 19.955 22.7561C19.9475 22.7536 19.94 22.7511 19.93 22.7511H2C1.59 22.7511 1.25 22.4111 1.25 22.0011C1.25 21.5911 1.59 21.2511 2 21.2511H3V15.2511C3 14.9711 3.22 14.7511 3.5 14.7511H14.5C14.78 14.7511 15 14.9711 15 15.2511V21.2511H19.22V18.2411C18.29 17.9211 17.61 17.0411 17.61 16.0011V14.0011C17.61 12.6911 18.68 11.6211 19.99 11.6211C21.3 11.6211 22.37 12.6911 22.37 14.0011V16.0011C22.37 17.0511 21.68 17.9411 20.73 18.2511V21.2511ZM9 17.5011C8.59 17.5011 8.25 17.8411 8.25 18.2511V21.2511H9.75V18.2511C9.75 17.8411 9.41 17.5011 9 17.5011Z" fill="#292D32"/>
</svg>
