<svg viewBox="0 0 24 24" fill="none" xmlns="http://www.w3.org/2000/svg">
<path fill-rule="evenodd" clip-rule="evenodd" d="M5.9502 17.25V8.41998C5.9502 6.40998 7.11018 5.25 9.12018 5.25H9.84998V4.15002C9.84998 3.13002 9.47001 2.75 8.45001 2.75H4.15002C3.13002 2.75 2.75 3.13002 2.75 4.15002V15.85C2.75 16.87 3.13002 17.25 4.15002 17.25H5.9502ZM5.9502 18.75H4.15002C2.31002 18.75 1.25 17.69 1.25 15.85V4.15002C1.25 2.31002 2.31002 1.25 4.15002 1.25H8.45001C10.29 1.25 11.35 2.31002 11.35 4.15002V5.25H12.75V4.15002C12.75 2.31002 13.81 1.25 15.65 1.25H19.95C21.79 1.25 22.85 2.31002 22.85 4.15002V15.85C22.85 17.69 21.79 18.75 19.95 18.75H18.1202V19.58C18.1202 21.59 16.9702 22.75 14.9602 22.75H12H9.12018C7.11018 22.75 5.9502 21.59 5.9502 19.58V18.75ZM12.75 21.25V19C12.75 18.59 12.41 18.25 12 18.25C11.59 18.25 11.25 18.59 11.25 19V21.25H9.12018C7.92018 21.25 7.4502 20.78 7.4502 19.58V8.41998C7.4502 7.21998 7.92018 6.75 9.12018 6.75H10.6H13.5H14.9602C16.1502 6.75 16.6202 7.21998 16.6202 8.41998V19.58C16.6202 20.78 16.1502 21.25 14.9602 21.25H12.75ZM14.25 4.15002V5.25H14.9602C16.9702 5.25 18.1202 6.40998 18.1202 8.41998V17.25H19.95C20.97 17.25 21.35 16.87 21.35 15.85V4.15002C21.35 3.13002 20.97 2.75 19.95 2.75H15.65C14.63 2.75 14.25 3.13002 14.25 4.15002ZM10 11.75H14C14.41 11.75 14.75 11.41 14.75 11C14.75 10.59 14.41 10.25 14 10.25H10C9.59 10.25 9.25 10.59 9.25 11C9.25 11.41 9.59 11.75 10 11.75ZM14 14.75H10C9.59 14.75 9.25 14.41 9.25 14C9.25 13.59 9.59 13.25 10 13.25H14C14.41 13.25 14.75 13.59 14.75 14C14.75 14.41 14.41 14.75 14 14.75Z" fill="#292D32"/>
</svg>
