<svg viewBox="0 0 24 24" fill="none" xmlns="http://www.w3.org/2000/svg">
<path fill-rule="evenodd" clip-rule="evenodd" d="M5.80078 9H10.7508C11.1608 9 11.5008 8.66 11.5008 8.25C11.5008 7.84 11.1608 7.5 10.7508 7.5H5.80078C5.39078 7.5 5.05078 7.84 5.05078 8.25C5.05078 8.66 5.39078 9 5.80078 9ZM5.80078 12.75H10.7508C11.1608 12.75 11.5008 12.41 11.5008 12C11.5008 11.59 11.1608 11.25 10.7508 11.25H5.80078C5.39078 11.25 5.05078 11.59 5.05078 12C5.05078 12.41 5.39078 12.75 5.80078 12.75ZM9 21.2501V18.25C9 17.84 8.66 17.5 8.25 17.5C7.84 17.5 7.5 17.84 7.5 18.25V21.2501H1C0.59 21.2501 0.25 21.5901 0.25 22.0001C0.25 22.4101 0.59 22.7501 1 22.7501H19.93C19.94 22.7501 19.9475 22.7526 19.955 22.7551C19.9625 22.7576 19.97 22.7601 19.98 22.7601C19.99 22.7601 19.9975 22.7576 20.005 22.7551C20.0125 22.7526 20.02 22.7501 20.03 22.7501H23C23.41 22.7501 23.75 22.4101 23.75 22.0001C23.75 21.5901 23.41 21.2501 23 21.2501H20.73V18.2501C21.68 17.9401 22.37 17.0501 22.37 16.0001V14.0001C22.37 12.6901 21.3 11.6201 19.99 11.6201C18.68 11.6201 17.61 12.6901 17.61 14.0001V16.0001C17.61 17.0401 18.29 17.9201 19.22 18.2401V21.2501H9Z" fill="#292D32"/>
<path opacity="0.4" d="M2.09961 21.9998V6.02979C2.09961 4.01979 3.09966 3.00977 5.08966 3.00977H11.3196C13.3096 3.00977 14.2996 4.01979 14.2996 6.02979V21.9998" fill="#292D32"/>
</svg>
