<svg viewBox="0 0 24 24" fill="none" xmlns="http://www.w3.org/2000/svg">
<path fill-rule="evenodd" clip-rule="evenodd" d="M13.5498 6.02979V21.25H9V18.25C9 17.84 8.66 17.5 8.25 17.5C7.84 17.5 7.5 17.84 7.5 18.25V21.25H2.83984V6.02979C2.83984 4.43979 3.51984 3.75977 5.08984 3.75977H11.3198C12.8798 3.75977 13.5498 4.43979 13.5498 6.02979ZM8.25 22.75H1C0.59 22.75 0.25 22.41 0.25 22C0.25 21.59 0.59 21.25 1 21.25H1.33984V6.02979C1.33984 3.59979 2.66984 2.25977 5.08984 2.25977H11.3198C13.7298 2.25977 15.0498 3.59979 15.0498 6.02979V21.25H19.0303V18.1987C17.7737 17.8605 16.8496 16.7137 16.8496 15.3499V13.0799C16.8496 11.4499 18.1696 10.1299 19.7996 10.1299C21.4296 10.1299 22.7496 11.4499 22.7496 13.0799V15.3499C22.7496 16.7276 21.8065 17.8839 20.5303 18.2088V21.25H23C23.41 21.25 23.75 21.59 23.75 22C23.75 22.41 23.41 22.75 23 22.75H19.9027C19.8629 22.7565 19.8221 22.7598 19.7803 22.7598C19.7395 22.7598 19.6994 22.7565 19.6603 22.75H8.25ZM19.8856 16.8074C20.6457 16.7628 21.2496 16.131 21.2496 15.3599V13.0899C21.2496 12.2899 20.5996 11.6399 19.7996 11.6399C18.9996 11.6399 18.3496 12.2899 18.3496 13.0899V15.3599C18.3496 16.1223 18.9399 16.7484 19.6878 16.8056C19.7182 16.8018 19.749 16.7998 19.7803 16.7998C19.816 16.7998 19.8511 16.8024 19.8856 16.8074ZM5.7998 9H10.7498C11.1598 9 11.4998 8.66 11.4998 8.25C11.4998 7.84 11.1598 7.5 10.7498 7.5H5.7998C5.3898 7.5 5.0498 7.84 5.0498 8.25C5.0498 8.66 5.3898 9 5.7998 9ZM10.7498 12.75H5.7998C5.3898 12.75 5.0498 12.41 5.0498 12C5.0498 11.59 5.3898 11.25 5.7998 11.25H10.7498C11.1598 11.25 11.4998 11.59 11.4998 12C11.4998 12.41 11.1598 12.75 10.7498 12.75Z" fill="#292D32"/>
</svg>
