<svg viewBox="0 0 24 24" fill="none" xmlns="http://www.w3.org/2000/svg">
<path fill-rule="evenodd" clip-rule="evenodd" d="M10.75 9C10.75 9.9665 9.9665 10.75 9 10.75C8.0335 10.75 7.25 9.9665 7.25 9C7.25 8.0335 8.0335 7.25 9 7.25C9.9665 7.25 10.75 8.0335 10.75 9ZM20.73 21.2501H22C22.41 21.2501 22.75 21.5901 22.75 22.0001C22.75 22.4101 22.41 22.7501 22 22.7501H20.03C20.02 22.7501 20.0125 22.7526 20.005 22.7551C19.9975 22.7576 19.99 22.7601 19.98 22.7601C19.97 22.7601 19.9625 22.7576 19.955 22.7551C19.9475 22.7526 19.94 22.7501 19.93 22.7501H2C1.59 22.7501 1.25 22.4101 1.25 22.0001C1.25 21.5901 1.59 21.2501 2 21.2501H8.25V18.25C8.25 17.84 8.59 17.5 9 17.5C9.41 17.5 9.75 17.84 9.75 18.25V21.2501H19.22V18.2401C18.29 17.9201 17.61 17.0401 17.61 16.0001V14.0001C17.61 12.6901 18.68 11.6201 19.99 11.6201C21.3 11.6201 22.37 12.6901 22.37 14.0001V16.0001C22.37 17.0501 21.68 17.9401 20.73 18.2501V21.2501ZM3.01001 14.75H15.01L15 13.25H3L3.01001 14.75Z" fill="#292D32"/>
<path opacity="0.4" d="M15.01 14.7499V21.9898L3.01001 22.0099V14.7499L3 13.2499V7.06986C3 6.39986 3.34001 5.77983 3.89001 5.40983L7.89001 2.73984C8.56001 2.28984 9.43999 2.28984 10.11 2.73984L14.11 5.40983C14.67 5.77983 15 6.39986 15 7.06986V13.2499L15.01 14.7499Z" fill="#292D32"/>
</svg>
