<svg viewBox="0 0 24 24" fill="none" xmlns="http://www.w3.org/2000/svg">
<path fill-rule="evenodd" clip-rule="evenodd" d="M7 2H17C20 2 21 3.79 21 6V21.25H22C22.41 21.25 22.75 21.59 22.75 22C22.75 22.41 22.41 22.75 22 22.75H2C1.59 22.75 1.25 22.41 1.25 22C1.25 21.59 1.59 21.25 2 21.25H3V6C3 3.79 4 2 7 2ZM7 17.25H10C10.41 17.25 10.75 16.91 10.75 16.5C10.75 16.09 10.41 15.75 10 15.75H7C6.59 15.75 6.25 16.09 6.25 16.5C6.25 16.91 6.59 17.25 7 17.25ZM7 12.75H10C10.41 12.75 10.75 12.41 10.75 12C10.75 11.59 10.41 11.25 10 11.25H7C6.59 11.25 6.25 11.59 6.25 12C6.25 12.41 6.59 12.75 7 12.75ZM7 8.25H10C10.41 8.25 10.75 7.91 10.75 7.5C10.75 7.09 10.41 6.75 10 6.75H7C6.59 6.75 6.25 7.09 6.25 7.5C6.25 7.91 6.59 8.25 7 8.25ZM14 17.25H17C17.41 17.25 17.75 16.91 17.75 16.5C17.75 16.09 17.41 15.75 17 15.75H14C13.59 15.75 13.25 16.09 13.25 16.5C13.25 16.91 13.59 17.25 14 17.25ZM14 12.75H17C17.41 12.75 17.75 12.41 17.75 12C17.75 11.59 17.41 11.25 17 11.25H14C13.59 11.25 13.25 11.59 13.25 12C13.25 12.41 13.59 12.75 14 12.75ZM14 8.25H17C17.41 8.25 17.75 7.91 17.75 7.5C17.75 7.09 17.41 6.75 17 6.75H14C13.59 6.75 13.25 7.09 13.25 7.5C13.25 7.91 13.59 8.25 14 8.25Z" fill="#292D32"/>
</svg>
