<svg viewBox="0 0 24 24" fill="none" xmlns="http://www.w3.org/2000/svg">
<path fill-rule="evenodd" clip-rule="evenodd" d="M9.75 5.5H14.75C15.16 5.5 15.5 5.16 15.5 4.75C15.5 4.34 15.16 4 14.75 4H9.75C9.34 4 9 4.34 9 4.75C9 5.16 9.34 5.5 9.75 5.5ZM4 8H20V13H4V8ZM7.75999 18.7301C7.83999 18.7401 7.92 18.7501 8 18.7501C8.33 18.7501 8.65 18.6201 8.88 18.3801C9.12 18.1501 9.25 17.8301 9.25 17.5001C9.25 17.1701 9.12 16.8501 8.88 16.6201C8.59 16.3301 8.15999 16.1901 7.75999 16.2701C7.67999 16.2901 7.6 16.3101 7.52 16.3501C7.45 16.3801 7.37 16.4201 7.31 16.4601C7.24 16.5101 7.17 16.5601 7.12 16.6201C6.88 16.8501 6.75 17.1701 6.75 17.5001C6.75 17.8301 6.88 18.1501 7.12 18.3801C7.17 18.4401 7.24 18.4901 7.31 18.5401C7.37 18.5801 7.45 18.6201 7.52 18.6501C7.6 18.6901 7.67999 18.7101 7.75999 18.7301ZM16 18.7501C15.92 18.7501 15.84 18.7401 15.76 18.7301C15.68 18.7101 15.6 18.6901 15.52 18.6501C15.45 18.6201 15.37 18.5801 15.31 18.5401C15.24 18.4901 15.17 18.4401 15.12 18.3801C14.88 18.1501 14.75 17.8301 14.75 17.5001C14.75 17.1701 14.88 16.8501 15.12 16.6201C15.17 16.5601 15.24 16.5101 15.31 16.4601C15.37 16.4201 15.45 16.3801 15.52 16.3501C15.6 16.3101 15.68 16.2901 15.76 16.2701C15.92 16.2401 16.08 16.2401 16.25 16.2701L16.2762 16.2774C16.3396 16.2953 16.4098 16.315 16.48 16.3501C16.55 16.3801 16.63 16.4201 16.69 16.4601C16.76 16.5101 16.83 16.5601 16.88 16.6201C17.12 16.8501 17.25 17.1701 17.25 17.5001C17.25 17.8301 17.12 18.1501 16.88 18.3801C16.83 18.4401 16.76 18.4901 16.69 18.5401C16.63 18.5801 16.55 18.6201 16.48 18.6501C16.4098 18.6852 16.3396 18.7049 16.2762 18.7227L16.25 18.7301L16.2232 18.7331L16.2232 18.7331C16.144 18.742 16.072 18.7501 16 18.7501Z" fill="#292D32"/>
<path opacity="0.4" d="M16.9 22H7.10001C5.40001 22 4 20.61 4 18.9V5.10001C4 3.40001 5.39001 2 7.10001 2H16.9C18.6 2 20 3.39001 20 5.10001V18.9C20 20.61 18.61 22 16.9 22Z" fill="#292D32"/>
</svg>
