<svg viewBox="0 0 24 24" fill="none" xmlns="http://www.w3.org/2000/svg">
<path fill-rule="evenodd" clip-rule="evenodd" d="M16.9 22.75H7.10001C4.98001 22.75 3.25 21.02 3.25 18.9V11.5V9.5V5.10001C3.25 2.98001 4.98001 1.25 7.10001 1.25H16.9C19.02 1.25 20.75 2.98001 20.75 5.10001V9.5V11.5V18.9C20.75 21.02 19.02 22.75 16.9 22.75ZM4.75 18.9V13.6213C4.98472 13.7046 5.23719 13.75 5.5 13.75H18.5C18.7628 13.75 19.0153 13.7046 19.25 13.6213V18.9C19.25 20.2 18.19 21.25 16.9 21.25H7.10001C5.80001 21.25 4.75 20.19 4.75 18.9ZM5.5 12.25C5.09 12.25 4.75 11.91 4.75 11.5V9.5C4.75 9.09 5.09 8.75 5.5 8.75H18.5C18.91 8.75 19.25 9.09 19.25 9.5V11.5C19.25 11.91 18.91 12.25 18.5 12.25H5.5ZM5.5 7.25C5.23719 7.25 4.98472 7.29537 4.75 7.37868V5.10001C4.75 3.80001 5.81001 2.75 7.10001 2.75H16.9C18.2 2.75 19.25 3.81001 19.25 5.10001V7.37868C19.0153 7.29537 18.7628 7.25 18.5 7.25H5.5ZM7.12 18.3801C7.35 18.6201 7.67 18.7501 8 18.7501C8.33 18.7501 8.65001 18.6201 8.88 18.3801C8.93997 18.3301 8.98994 18.2602 9.03991 18.1902L9.03999 18.1901C9.07999 18.1301 9.11999 18.0501 9.14999 17.9801C9.18999 17.9001 9.20999 17.8201 9.22998 17.7401L9.23 17.7401L9.23001 17.7399C9.24001 17.66 9.25 17.58 9.25 17.5001C9.25 17.4201 9.24001 17.3402 9.23001 17.2602L9.23 17.2601L9.22999 17.2601C9.20999 17.1801 9.18999 17.1001 9.14999 17.0201C9.11999 16.9501 9.07999 16.8701 9.03999 16.8101L9.03992 16.81C8.98995 16.74 8.93998 16.6701 8.88 16.6201C8.41 16.1501 7.58 16.1501 7.12 16.6201C7.06002 16.6701 7.01006 16.74 6.96008 16.81L6.96001 16.8101C6.92001 16.8701 6.88001 16.9501 6.85001 17.0201C6.81001 17.1001 6.79001 17.1801 6.77001 17.2601L6.77 17.2601L6.76999 17.2602C6.75999 17.3402 6.75 17.4201 6.75 17.5001C6.75 17.58 6.75999 17.66 6.76999 17.7399L6.77 17.7401L6.77001 17.7401C6.79001 17.8201 6.81001 17.9001 6.85001 17.9801C6.88001 18.0501 6.92001 18.1301 6.96001 18.1901L6.96009 18.1902C7.01006 18.2602 7.06003 18.3301 7.12 18.3801ZM16 18.7501C15.67 18.7501 15.35 18.6201 15.12 18.3801C14.88 18.1501 14.75 17.8301 14.75 17.5001C14.75 17.1701 14.88 16.8501 15.12 16.6201C15.58 16.1501 16.42 16.1501 16.88 16.6201C17.12 16.8501 17.25 17.1701 17.25 17.5001C17.25 17.8301 17.12 18.1501 16.88 18.3801C16.65 18.6201 16.33 18.7501 16 18.7501ZM9.5 5.75H14.5C14.91 5.75 15.25 5.41 15.25 5C15.25 4.59 14.91 4.25 14.5 4.25H9.5C9.09 4.25 8.75 4.59 8.75 5C8.75 5.41 9.09 5.75 9.5 5.75Z" fill="#292D32"/>
</svg>
