<svg viewBox="0 0 24 24" fill="none" xmlns="http://www.w3.org/2000/svg">
<path fill-rule="evenodd" clip-rule="evenodd" d="M16.7502 2V3.56C19.4502 3.81 20.7602 5.42 20.9602 7.81C20.9902 8.09 20.7502 8.34 20.4602 8.34H3.54023C3.26023 8.34 3.02023 8.1 3.04023 7.81C3.24023 5.42 4.55023 3.81 7.25023 3.56V2C7.25023 1.59 7.59023 1.25 8.00023 1.25C8.41023 1.25 8.75023 1.59 8.75023 2V3.5H15.2502V2C15.2502 1.59 15.5902 1.25 16.0002 1.25C16.4102 1.25 16.7502 1.59 16.7502 2ZM4 9.83984H20C20.55 9.83984 21 10.2898 21 10.8398V16.9998C21 19.9998 19.5 21.9998 16 21.9998H8C4.5 21.9998 3 19.9998 3 16.9998V10.8398C3 10.2898 3.45 9.83984 4 9.83984ZM8.88 18.4198C9 18.3698 9.11 18.2998 9.21 18.2098C9.39 18.0198 9.5 17.7598 9.5 17.4998C9.5 17.2398 9.39 16.9798 9.21 16.7898C9.11 16.6998 9 16.6298 8.88 16.5798C8.64 16.4798 8.36 16.4798 8.12 16.5798C8 16.6298 7.89 16.6998 7.79 16.7898C7.61 16.9798 7.5 17.2398 7.5 17.4998C7.5 17.7598 7.61 18.0198 7.79 18.2098C7.89 18.2998 8 18.3698 8.12 18.4198C8.24 18.4698 8.37 18.4998 8.5 18.4998C8.63 18.4998 8.76 18.4698 8.88 18.4198ZM9.21 14.7098C9.3 14.6098 9.37 14.4998 9.42 14.3798C9.47 14.2598 9.5 14.1298 9.5 13.9998C9.5 13.8698 9.47 13.7398 9.42 13.6198C9.37 13.4998 9.3 13.3898 9.21 13.2898C9.11 13.1998 9 13.1298 8.88 13.0798C8.64 12.9798 8.36 12.9798 8.12 13.0798C8 13.1298 7.89 13.1998 7.79 13.2898C7.7 13.3898 7.63 13.4998 7.58 13.6198C7.53 13.7398 7.5 13.8698 7.5 13.9998C7.5 14.1298 7.53 14.2598 7.58 14.3798C7.63 14.4998 7.7 14.6098 7.79 14.7098C7.89 14.7998 8 14.8698 8.12 14.9198C8.24 14.9698 8.37 14.9998 8.5 14.9998C8.63 14.9998 8.76 14.9698 8.88 14.9198C9 14.8698 9.11 14.7998 9.21 14.7098ZM12.38 14.9198C12.5 14.8698 12.61 14.7998 12.71 14.7098C12.89 14.5198 13 14.2598 13 13.9998C13 13.7398 12.89 13.4798 12.71 13.2898C12.61 13.1998 12.5 13.1298 12.38 13.0798C12.14 12.9698 11.86 12.9698 11.62 13.0798C11.5 13.1298 11.39 13.1998 11.29 13.2898C11.11 13.4798 11 13.7398 11 13.9998C11 14.2598 11.11 14.5198 11.29 14.7098C11.39 14.7998 11.5 14.8698 11.62 14.9198C11.74 14.9698 11.87 14.9998 12 14.9998C12.13 14.9998 12.26 14.9698 12.38 14.9198Z" fill="#292D32"/>
</svg>
