<svg viewBox="0 0 24 24" fill="none" xmlns="http://www.w3.org/2000/svg">
<path fill-rule="evenodd" clip-rule="evenodd" d="M16.7502 2V3.56C19.4502 3.81 20.7602 5.42 20.9602 7.81C20.9902 8.09 20.7502 8.34 20.4602 8.34H3.54023C3.26023 8.34 3.02023 8.1 3.04023 7.81C3.24023 5.42 4.55023 3.81 7.25023 3.56V2C7.25023 1.59 7.59023 1.25 8.00023 1.25C8.41023 1.25 8.75023 1.59 8.75023 2V3.5H15.2502V2C15.2502 1.59 15.5902 1.25 16.0002 1.25C16.4102 1.25 16.7502 1.59 16.7502 2ZM4 9.83984H20C20.55 9.83984 21 10.2898 21 10.8398V16.9998C21 19.9998 19.5 21.9998 16 21.9998H8C4.5 21.9998 3 19.9998 3 16.9998V10.8398C3 10.2898 3.45 9.83984 4 9.83984ZM15.13 19.7498C15.32 19.7498 15.51 19.6798 15.66 19.5298C15.95 19.2398 15.95 18.7598 15.66 18.4698L14.92 17.7298C15.3 17.1498 15.53 16.4498 15.53 15.6998C15.53 13.6598 13.87 11.9998 11.83 11.9998C9.79 11.9998 8.13 13.6598 8.13 15.6998C8.13 17.7398 9.79 19.3998 11.83 19.3998C12.58 19.3998 13.28 19.1698 13.86 18.7898L14.6 19.5298C14.75 19.6798 14.94 19.7498 15.13 19.7498Z" fill="#292D32"/>
</svg>
