<svg viewBox="0 0 24 24" fill="none" xmlns="http://www.w3.org/2000/svg">
<path fill-rule="evenodd" clip-rule="evenodd" d="M8 5.75C7.59 5.75 7.25 5.41 7.25 5V4.28515C4.94552 4.51256 3.79811 5.84536 3.75148 8.33984H20.2485C20.2019 5.84536 19.0545 4.51256 16.75 4.28515V5C16.75 5.41 16.41 5.75 16 5.75C15.59 5.75 15.25 5.41 15.25 5V4.25H8.75V5C8.75 5.41 8.41 5.75 8 5.75ZM7.25 2.78123V2C7.25 1.59 7.59 1.25 8 1.25C8.41 1.25 8.75 1.59 8.75 2V2.75H15.25V2C15.25 1.59 15.59 1.25 16 1.25C16.41 1.25 16.75 1.59 16.75 2V2.78123C19.9362 3.05438 21.75 5.1078 21.75 8.5V16.0909C22.3988 16.9303 22.75 17.9484 22.75 19C22.75 19.87 22.51 20.72 22.06 21.45C21.22 22.87 19.66 23.75 18 23.75C16.9302 23.75 15.9105 23.3988 15.0939 22.75H8C4.35 22.75 2.25 20.65 2.25 17V8.5C2.25 5.1078 4.06383 3.05438 7.25 2.78123ZM13.25 19C13.25 16.38 15.38 14.25 18 14.25C18.1973 14.25 18.3933 14.2624 18.5871 14.2868C19.1719 14.3602 19.7357 14.5424 20.25 14.8198V9.83984H3.75V17C3.75 19.86 5.14 21.25 8 21.25H13.82C13.7363 21.0963 13.6614 20.9379 13.5955 20.7757C13.3698 20.2203 13.25 19.6191 13.25 19ZM17.995 15.75C16.2073 15.7527 14.75 17.2117 14.75 19C14.75 19.59 14.91 20.17 15.22 20.67C15.39 20.97 15.61 21.22 15.85 21.43C16.45 21.97 17.2 22.25 18 22.25C19.15 22.25 20.19 21.66 20.78 20.68C21.09 20.17 21.25 19.6 21.25 19C21.25 18.2476 20.9801 17.5137 20.4942 16.9152C20.4718 16.895 20.4503 16.8733 20.43 16.85C19.8111 16.1513 18.9232 15.7514 17.995 15.75ZM7.79 14.2099C7.98 14.3899 8.24 14.4999 8.5 14.4999C8.76 14.4999 9.02 14.3899 9.21 14.2099L9.33 14.0599C9.37 13.9999 9.4 13.9399 9.42 13.8799C9.45 13.8199 9.47 13.76 9.48 13.7C9.49 13.63 9.5 13.5599 9.5 13.4999C9.5 13.2399 9.39 12.98 9.21 12.79C8.83 12.42 8.16 12.42 7.79 12.79C7.7 12.89 7.63 12.9999 7.58 13.1199C7.53 13.2399 7.5 13.3699 7.5 13.4999C7.5 13.7699 7.61 14.0199 7.79 14.2099ZM12 14.5001C11.87 14.5001 11.74 14.4701 11.62 14.4201C11.49 14.3701 11.39 14.3001 11.29 14.2101C11.11 14.0201 11 13.7701 11 13.5001C11 13.3701 11.03 13.2401 11.08 13.1201C11.13 13.0001 11.2 12.8901 11.29 12.7901C11.39 12.7001 11.49 12.6301 11.62 12.5801C11.99 12.4301 12.43 12.5101 12.71 12.7901C12.89 12.9801 13 13.2401 13 13.5001C13 13.5601 12.99 13.6301 12.98 13.7001C12.97 13.7601 12.95 13.8201 12.92 13.8801C12.9 13.9401 12.87 14.0001 12.83 14.0601C12.81 14.0934 12.7811 14.1267 12.7523 14.16L12.7523 14.16L12.7523 14.16L12.7522 14.16L12.7522 14.16L12.7522 14.16C12.7378 14.1767 12.7233 14.1934 12.71 14.2101C12.52 14.3901 12.26 14.5001 12 14.5001ZM8.12 17.92C8.24 17.97 8.37 18 8.5 18C8.63 18 8.76 17.97 8.88 17.92C9.01 17.87 9.12 17.8 9.21 17.71C9.3 17.62 9.37 17.51 9.42 17.38C9.47 17.26 9.5 17.13 9.5 17C9.5 16.87 9.47 16.74 9.42 16.62C9.37 16.49 9.3 16.38 9.21 16.29C9.12 16.2 9.01 16.13 8.88 16.08C8.64 15.97 8.36 15.98 8.12 16.08C7.99 16.13 7.88 16.2 7.79 16.29C7.7 16.38 7.63 16.49 7.58 16.62C7.53 16.74 7.5 16.87 7.5 17C7.5 17.13 7.53 17.26 7.58 17.38C7.63 17.51 7.7 17.62 7.79 17.71C7.88 17.8 7.99 17.87 8.12 17.92ZM17.4299 20.74C17.2399 20.74 17.0499 20.67 16.8999 20.52L15.9099 19.53C15.6199 19.24 15.6199 18.76 15.9099 18.4701C16.1999 18.18 16.6799 18.18 16.9699 18.4701L17.4499 18.9501L19.0499 17.4701C19.3499 17.1901 19.8299 17.2101 20.1099 17.5101C20.3899 17.8101 20.3699 18.2901 20.0699 18.5701L17.9399 20.5401C17.7899 20.6701 17.6099 20.74 17.4299 20.74Z" fill="#292D32"/>
</svg>
