<svg viewBox="0 0 24 24" fill="none" xmlns="http://www.w3.org/2000/svg">
<path fill-rule="evenodd" clip-rule="evenodd" d="M7.25 5C7.25 5.41 7.59 5.75 8 5.75C8.41 5.75 8.75 5.41 8.75 5V4.25H15.25V5C15.25 5.41 15.59 5.75 16 5.75C16.41 5.75 16.75 5.41 16.75 5V4.28515C19.0545 4.51256 20.2019 5.84536 20.2485 8.33984H3.75148C3.79811 5.84536 4.94552 4.51256 7.25 4.28515V5ZM8.75 2.75V2C8.75 1.59 8.41 1.25 8 1.25C7.59 1.25 7.25 1.59 7.25 2V2.78123C4.06383 3.05438 2.25 5.1078 2.25 8.5V17C2.25 20.65 4.35 22.75 8 22.75H15.0869C15.8918 23.3765 16.9029 23.75 18 23.75C20.62 23.75 22.75 21.62 22.75 19C22.75 17.9029 22.3765 16.8918 21.75 16.0869V8.5C21.75 5.1078 19.9362 3.05438 16.75 2.78123V2C16.75 1.59 16.41 1.25 16 1.25C15.59 1.25 15.25 1.59 15.25 2V2.75H8.75ZM17.995 15.75C18.9232 15.7514 19.8111 16.1513 20.43 16.85C20.4442 16.8662 20.4589 16.8817 20.4741 16.8964C20.9576 17.464 21.25 18.199 21.25 19C21.25 20.79 19.79 22.25 18 22.25C16.21 22.25 14.75 20.79 14.75 19C14.75 17.2117 16.2073 15.7527 17.995 15.75ZM20.25 14.8171V9.83984H3.75V17C3.75 19.86 5.14 21.25 8 21.25H13.8171C13.4736 20.6137 13.2711 19.8905 13.2516 19.1224C13.2505 19.0818 13.25 19.0409 13.25 19C13.25 16.38 15.38 14.25 18 14.25C18.8136 14.25 19.58 14.4554 20.25 14.8171ZM8.5 14.5001C8.37 14.5001 8.24 14.4801 8.12 14.4201C8 14.3701 7.88999 14.3001 7.78999 14.2101C7.60999 14.0201 7.5 13.7601 7.5 13.5001C7.5 13.3701 7.53 13.2401 7.58 13.1201C7.63 13.0001 7.69999 12.8901 7.78999 12.7901C7.88999 12.7001 8 12.6301 8.12 12.5801C8.47999 12.4301 8.93001 12.5101 9.21001 12.7901C9.30001 12.8901 9.37 13.0001 9.42 13.1201C9.47 13.2401 9.5 13.3701 9.5 13.5001C9.5 13.7601 9.39001 14.0201 9.21001 14.2101C9.02001 14.3901 8.76 14.5001 8.5 14.5001ZM11.29 14.2099C11.48 14.3899 11.74 14.4999 12 14.4999C12.13 14.4999 12.26 14.4799 12.38 14.4199C12.5 14.3699 12.61 14.2999 12.71 14.2099C12.8 14.1099 12.87 13.9999 12.92 13.8799C12.98 13.7599 13 13.6299 13 13.4999C13 13.2399 12.89 12.9799 12.71 12.7899C12.61 12.6999 12.5 12.6299 12.38 12.5799C12.01 12.4199 11.57 12.5099 11.29 12.7899C11.11 12.9799 11 13.2399 11 13.4999C11 13.6299 11.03 13.7599 11.08 13.8799C11.13 13.9999 11.2 14.1099 11.29 14.2099ZM8.5 17.9999C8.37 17.9999 8.24 17.9699 8.12 17.9199C8 17.8699 7.88999 17.7999 7.78999 17.7099C7.60999 17.5199 7.5 17.2699 7.5 16.9999C7.5 16.8699 7.53 16.7399 7.58 16.6199C7.63 16.4899 7.69999 16.3899 7.78999 16.2899C7.88999 16.1999 8 16.1299 8.12 16.0799C8.47999 15.9199 8.93001 16.0099 9.21001 16.2899C9.30001 16.3899 9.37 16.4899 9.42 16.6199C9.47 16.7399 9.5 16.8699 9.5 16.9999C9.5 17.2699 9.39001 17.5199 9.21001 17.7099C9.02001 17.8899 8.76 17.9999 8.5 17.9999ZM16.5 19.7998H17.25V20.5798C17.25 20.9898 17.59 21.3298 18 21.3298C18.41 21.3298 18.75 20.9898 18.75 20.5798V19.7998H19.49C19.91 19.7998 20.24 19.4598 20.24 19.0498C20.24 18.6398 19.9 18.2998 19.49 18.2998H18.75V17.5898C18.75 17.1798 18.41 16.8398 18 16.8398C17.59 16.8398 17.25 17.1798 17.25 17.5898V18.2998H16.5C16.09 18.2998 15.75 18.6398 15.75 19.0498C15.75 19.4598 16.09 19.7998 16.5 19.7998Z" fill="#292D32"/>
</svg>
