<svg viewBox="0 0 24 24" fill="none" xmlns="http://www.w3.org/2000/svg">
<path fill-rule="evenodd" clip-rule="evenodd" d="M16.7502 3.56V2C16.7502 1.59 16.4102 1.25 16.0002 1.25C15.5902 1.25 15.2502 1.59 15.2502 2V3.5H8.75023V2C8.75023 1.59 8.41023 1.25 8.00023 1.25C7.59023 1.25 7.25023 1.59 7.25023 2V3.56C4.55023 3.81 3.24023 5.42 3.04023 7.81C3.02023 8.1 3.26023 8.34 3.54023 8.34H20.4602C20.7502 8.34 20.9902 8.09 20.9602 7.81C20.7602 5.42 19.4502 3.81 16.7502 3.56ZM19 15C16.79 15 15 16.79 15 19C15 19.75 15.21 20.46 15.58 21.06C16.27 22.22 17.54 23 19 23C20.46 23 21.73 22.22 22.42 21.06C22.79 20.46 23 19.75 23 19C23 16.79 21.21 15 19 15ZM21.07 18.57L18.94 20.54C18.8 20.67 18.61 20.74 18.43 20.74C18.24 20.74 18.05 20.67 17.9 20.52L16.91 19.53C16.62 19.24 16.62 18.76 16.91 18.47C17.2 18.18 17.68 18.18 17.97 18.47L18.45 18.95L20.05 17.47C20.35 17.19 20.83 17.21 21.11 17.51C21.39 17.81 21.37 18.28 21.07 18.57ZM4 9.83984H20C20.55 9.83984 21 10.2898 21.01 10.8498V12.5898C21.01 13.1898 20.47 13.6598 19.87 13.5698C19.59 13.5198 19.3 13.4998 19.01 13.4998C15.98 13.4998 13.51 15.9698 13.51 18.9998C13.51 19.4598 13.68 20.0998 13.88 20.6798C14.1 21.3298 13.62 21.9998 12.93 21.9998H8C4.5 21.9998 3 19.9998 3 16.9998V10.8398C3 10.2898 3.45 9.83984 4 9.83984ZM8.5 18.4998C8.76 18.4998 9.02 18.3898 9.21 18.2098C9.39 18.0198 9.5 17.7598 9.5 17.4998C9.5 17.2398 9.39 16.9798 9.21 16.7898C8.93 16.5098 8.49 16.4198 8.12 16.5798C7.99 16.6298 7.89 16.6998 7.79 16.7898C7.61 16.9798 7.5 17.2398 7.5 17.4998C7.5 17.7598 7.61 18.0198 7.79 18.2098C7.98 18.3898 8.24 18.4998 8.5 18.4998ZM9.06 14.8298L9.21 14.7098C9.39 14.5198 9.5 14.2598 9.5 13.9998C9.5 13.7398 9.39 13.4798 9.21 13.2898L9.06 13.1698C9 13.1298 8.94 13.0998 8.88 13.0798C8.82 13.0498 8.76 13.0298 8.7 13.0198C8.37 12.9498 8.02 13.0598 7.79 13.2898C7.61 13.4798 7.5 13.7398 7.5 13.9998C7.5 14.2598 7.61 14.5198 7.79 14.7098C7.98 14.8898 8.24 14.9998 8.5 14.9998C8.56 14.9998 8.63 14.9898 8.7 14.9798C8.76 14.9698 8.82 14.9498 8.88 14.9198C8.94 14.8998 9 14.8698 9.06 14.8298ZM12 14.9998C12.26 14.9998 12.52 14.8898 12.71 14.7098C12.89 14.5198 13 14.2598 13 13.9998C13 13.7398 12.89 13.4798 12.71 13.2898C12.34 12.9198 11.67 12.9198 11.29 13.2898C11.11 13.4798 11 13.7398 11 13.9998C11 14.2598 11.11 14.5198 11.29 14.7098C11.48 14.8898 11.74 14.9998 12 14.9998Z" fill="#292D32"/>
</svg>
