<svg viewBox="0 0 24 24" fill="none" xmlns="http://www.w3.org/2000/svg">
<path fill-rule="evenodd" clip-rule="evenodd" d="M8 5.75C7.59 5.75 7.25 5.41 7.25 5V4.28515C4.94552 4.51256 3.79811 5.84536 3.75148 8.33984H20.2485C20.2019 5.84536 19.0545 4.51256 16.75 4.28515V5C16.75 5.41 16.41 5.75 16 5.75C15.59 5.75 15.25 5.41 15.25 5V4.25H8.75V5C8.75 5.41 8.41 5.75 8 5.75ZM7.25 2.78123V2C7.25 1.59 7.59 1.25 8 1.25C8.41 1.25 8.75 1.59 8.75 2V2.75H15.25V2C15.25 1.59 15.59 1.25 16 1.25C16.41 1.25 16.75 1.59 16.75 2V2.78123C19.9362 3.05438 21.75 5.1078 21.75 8.5V12C21.75 12.41 21.41 12.75 21 12.75C20.59 12.75 20.25 12.41 20.25 12V9.83984H3.75V17C3.75 19.86 5.14 21.25 8 21.25H12C12.41 21.25 12.75 21.59 12.75 22C12.75 22.41 12.41 22.75 12 22.75H8C4.35 22.75 2.25 20.65 2.25 17V8.5C2.25 5.1078 4.06383 3.05438 7.25 2.78123ZM8.12 14.4199C8.24 14.4699 8.37 14.4999 8.5 14.4999C8.63 14.4999 8.76 14.4699 8.88 14.4199C9 14.3699 9.10999 14.2999 9.20999 14.2099C9.38999 14.0199 9.5 13.7599 9.5 13.4999C9.5 13.4399 9.49001 13.3699 9.48001 13.2999C9.47001 13.2399 9.45001 13.1799 9.42001 13.1199C9.40001 13.0599 9.36999 12.9999 9.32999 12.9399C9.30999 12.9066 9.2811 12.8732 9.25221 12.8399C9.23777 12.8232 9.22332 12.8066 9.20999 12.7899C9.10999 12.6999 9 12.6299 8.88 12.5799C8.64001 12.4799 8.35999 12.4799 8.12 12.5799C8 12.6299 7.89001 12.6999 7.79001 12.7899C7.61001 12.9799 7.5 13.2399 7.5 13.4999C7.5 13.7599 7.61001 14.0199 7.79001 14.2099C7.89001 14.2999 7.99 14.3699 8.12 14.4199ZM12 14.4999C11.87 14.4999 11.74 14.47 11.62 14.42C11.49 14.37 11.39 14.2999 11.29 14.2099C11.11 14.0199 11 13.7599 11 13.4999C11 13.4399 11.01 13.3699 11.02 13.2999C11.03 13.2399 11.05 13.1799 11.08 13.1199C11.1 13.0599 11.13 12.9999 11.17 12.9399L11.29 12.79C11.66 12.42 12.33 12.42 12.71 12.79L12.83 12.9399C12.87 12.9999 12.9 13.0599 12.92 13.1199C12.95 13.1799 12.97 13.2399 12.98 13.2999C12.99 13.3699 13 13.4399 13 13.4999C13 13.7599 12.89 14.0199 12.71 14.2099C12.52 14.3899 12.27 14.4999 12 14.4999ZM8.12 17.9199C8.24 17.9699 8.37 17.9999 8.5 17.9999C8.63 17.9999 8.76 17.9699 8.88 17.9199C9 17.8699 9.10999 17.7999 9.20999 17.7099C9.38999 17.5199 9.5 17.2599 9.5 16.9999C9.5 16.9399 9.49001 16.8699 9.48001 16.8099C9.47001 16.7399 9.45001 16.6799 9.42001 16.6199C9.40001 16.5599 9.36999 16.4999 9.32999 16.4399C9.30999 16.4066 9.28111 16.3732 9.25223 16.3399L9.25221 16.3399C9.23777 16.3232 9.22332 16.3066 9.20999 16.2899C9.10999 16.1999 9 16.1299 8.88 16.0799C8.64001 15.9799 8.35999 15.9799 8.12 16.0799C8 16.1299 7.89001 16.1999 7.79001 16.2899C7.77668 16.3066 7.76223 16.3232 7.74779 16.3399L7.74778 16.3399C7.71889 16.3732 7.69001 16.4066 7.67001 16.4399C7.63001 16.4999 7.59999 16.5599 7.57999 16.6199C7.54999 16.6799 7.52999 16.7399 7.51999 16.8099C7.50999 16.8699 7.5 16.9399 7.5 16.9999C7.5 17.2599 7.61001 17.5199 7.79001 17.7099C7.89001 17.7999 8 17.8699 8.12 17.9199ZM14.8196 22.3801C15.0796 22.6401 15.4396 22.7801 15.8196 22.7801C15.8915 22.7801 15.9553 22.772 16.0256 22.7631L16.0257 22.7631L16.0495 22.7601L17.3996 22.5701C17.7496 22.5201 18.1696 22.3101 18.4196 22.0601L21.4208 19.0588C21.4446 19.0378 21.4672 19.0153 21.4883 18.9913L21.9596 18.5201C23.3896 17.0901 22.5696 15.8501 21.9596 15.2401C21.3796 14.6601 20.7696 14.4001 20.1396 14.4601C19.6296 14.5101 19.1596 14.7601 18.6796 15.2401L18.198 15.7217C18.1826 15.7358 18.1679 15.7506 18.1538 15.7658L15.1396 18.7801C14.8896 19.0301 14.6796 19.4501 14.6296 19.8001L14.4396 21.1501C14.3696 21.6201 14.5096 22.0701 14.8196 22.3801ZM20.8996 17.4501L20.731 17.6187C20.228 17.3759 19.8191 16.9656 19.578 16.4617L19.7396 16.3001C19.9496 16.0901 20.1396 15.9601 20.2796 15.9501H20.3096C20.5096 15.9501 20.7396 16.1401 20.8996 16.2901C21.3996 16.7901 21.3396 17.0101 20.8996 17.4501ZM19.6278 18.7218C19.1685 18.4204 18.7745 18.0257 18.474 17.5656L16.1996 19.8401C16.1696 19.8701 16.1196 19.9701 16.1196 20.0101L15.9396 21.2601L17.1896 21.0801C17.2296 21.0701 17.3295 21.0201 17.3595 20.9901L19.6278 18.7218Z" fill="#292D32"/>
</svg>
