<svg viewBox="0 0 24 24" fill="none" xmlns="http://www.w3.org/2000/svg">
<path fill-rule="evenodd" clip-rule="evenodd" d="M7.25 5C7.25 5.41 7.59 5.75 8 5.75C8.41 5.75 8.75 5.41 8.75 5V4.25H15.25V5C15.25 5.41 15.59 5.75 16 5.75C16.41 5.75 16.75 5.41 16.75 5V4.28515C19.0654 4.51364 20.2128 5.85806 20.2491 8.37549H3.75089C3.78723 5.85806 4.93457 4.51364 7.25 4.28515V5ZM8.75 2.75V2C8.75 1.59 8.41 1.25 8 1.25C7.59 1.25 7.25 1.59 7.25 2V2.78123C4.06383 3.05438 2.25 5.1078 2.25 8.5V17C2.25 20.65 4.35 22.75 8 22.75H15.0869C15.8918 23.3765 16.9029 23.75 18 23.75C20.62 23.75 22.75 21.62 22.75 19C22.75 17.9029 22.3765 16.8918 21.75 16.0869V8.5C21.75 5.1078 19.9362 3.05438 16.75 2.78123V2C16.75 1.59 16.41 1.25 16 1.25C15.59 1.25 15.25 1.59 15.25 2V2.75H8.75ZM17.995 15.75C18.9232 15.7514 19.8111 16.1513 20.43 16.85C20.4442 16.8662 20.4589 16.8817 20.4741 16.8964C20.9576 17.464 21.25 18.199 21.25 19C21.25 20.79 19.79 22.25 18 22.25C16.21 22.25 14.75 20.79 14.75 19C14.75 17.2117 16.2073 15.7527 17.995 15.75ZM20.25 14.8171V9.87549H3.75V17C3.75 19.86 5.14 21.25 8 21.25H13.8171C13.4736 20.6137 13.2711 19.8905 13.2516 19.1224C13.2505 19.0818 13.25 19.0409 13.25 19C13.25 16.38 15.38 14.25 18 14.25C18.8136 14.25 19.58 14.4554 20.25 14.8171ZM8.5 14.4999C8.24 14.4999 7.97999 14.3899 7.78999 14.2099C7.77666 14.1933 7.76222 14.1766 7.74777 14.1599C7.71888 14.1266 7.69 14.0933 7.67 14.0599C7.63 13.9999 7.6 13.9399 7.58 13.8799C7.55 13.8199 7.53 13.76 7.52 13.7L7.52 13.6999C7.51 13.6299 7.5 13.5599 7.5 13.4999C7.5 13.2399 7.60999 12.98 7.78999 12.79C8.15999 12.42 8.83001 12.42 9.21001 12.79C9.39001 12.98 9.5 13.2399 9.5 13.4999C9.5 13.5599 9.49 13.6299 9.48 13.6999L9.48 13.7C9.47 13.76 9.45 13.8199 9.42 13.8799C9.4 13.9399 9.37 13.9999 9.33 14.0599L9.21001 14.2099C9.02001 14.3899 8.76 14.4999 8.5 14.4999ZM11.62 14.4199C11.74 14.4699 11.87 14.4999 12 14.4999C12.26 14.4999 12.52 14.3899 12.71 14.2099L12.83 14.0599C12.87 13.9999 12.9 13.9399 12.92 13.8799C12.95 13.8199 12.97 13.7599 12.98 13.6999L12.98 13.6998V13.6998V13.6998V13.6998V13.6998V13.6998V13.6998C12.99 13.6298 13 13.5598 13 13.4999C13 13.2399 12.89 12.9799 12.71 12.7899C12.43 12.5099 11.98 12.4199 11.62 12.5799C11.49 12.6299 11.38 12.6999 11.29 12.7899C11.11 12.9799 11 13.2399 11 13.4999C11 13.5599 11.01 13.6298 11.02 13.6998V13.6998L11.02 13.6999C11.03 13.7599 11.05 13.8199 11.08 13.8799C11.1 13.9399 11.13 13.9999 11.17 14.0599C11.19 14.0932 11.2189 14.1265 11.2478 14.1599C11.2622 14.1765 11.2767 14.1932 11.29 14.2099C11.38 14.2999 11.49 14.3699 11.62 14.4199ZM8.5 18C8.23 18 7.97999 17.89 7.78999 17.71C7.60999 17.52 7.5 17.26 7.5 17C7.5 16.74 7.60999 16.48 7.78999 16.29C7.80665 16.2767 7.82332 16.2623 7.83998 16.2478C7.87332 16.2189 7.90666 16.19 7.94 16.17C8 16.13 8.05999 16.1 8.12 16.08C8.18 16.05 8.24 16.03 8.3 16.02C8.5 15.98 8.7 16 8.88 16.08C9.01 16.13 9.11001 16.2 9.21001 16.29C9.39001 16.48 9.5 16.74 9.5 17C9.5 17.26 9.39001 17.52 9.21001 17.71C9.11001 17.8 9.01 17.87 8.88 17.92C8.76 17.97 8.63 18 8.5 18ZM18.5404 20.64C18.6904 20.79 18.8804 20.8599 19.0704 20.8599C19.2604 20.8599 19.4504 20.79 19.6004 20.64C19.8904 20.35 19.8904 19.8699 19.6004 19.5799L19.0753 19.0548L19.5701 18.56C19.8601 18.27 19.8601 17.79 19.5701 17.5C19.2801 17.21 18.8001 17.21 18.5101 17.5L18.0153 17.9948L17.4904 17.4699C17.2004 17.1799 16.7204 17.1799 16.4304 17.4699C16.1404 17.7599 16.1404 18.2399 16.4304 18.5299L16.9553 19.0548L16.4001 19.61C16.1101 19.9 16.1101 20.38 16.4001 20.67C16.5501 20.82 16.7401 20.89 16.9301 20.89C17.1201 20.89 17.3101 20.81 17.4601 20.67L18.0153 20.1148L18.5404 20.64Z" fill="#292D32"/>
</svg>
