<svg viewBox="0 0 24 24" fill="none" xmlns="http://www.w3.org/2000/svg">
<path fill-rule="evenodd" clip-rule="evenodd" d="M8 5.75C7.59 5.75 7.25 5.41 7.25 5V4.03613C4.89669 4.26836 3.75 5.65333 3.75 8.25098V8.33984H20.25V8.25098C20.25 5.65333 19.1033 4.26836 16.75 4.03613V5C16.75 5.41 16.41 5.75 16 5.75C15.59 5.75 15.25 5.41 15.25 5V4.00098H8.75V5C8.75 5.41 8.41 5.75 8 5.75ZM8.75 2V2.50098H15.25V2C15.25 1.59 15.59 1.25 16 1.25C16.41 1.25 16.75 1.59 16.75 2V2.53221C19.9362 2.80535 21.75 4.85877 21.75 8.25098V16.751C21.75 20.401 19.65 22.501 16 22.501H8C4.35 22.501 2.25 20.401 2.25 16.751V8.25098C2.25 4.85877 4.06383 2.80535 7.25 2.53221V2C7.25 1.59 7.59 1.25 8 1.25C8.41 1.25 8.75 1.59 8.75 2ZM3.75 16.751V9.83984H20.25V16.751C20.25 19.611 18.86 21.001 16 21.001H8C5.14 21.001 3.75 19.611 3.75 16.751ZM8.12 14.42C8.24 14.47 8.37 14.5 8.5 14.5C8.76 14.5 9.01999 14.39 9.20999 14.21C9.38999 14.02 9.5 13.76 9.5 13.5C9.5 13.4378 9.49212 13.3835 9.48335 13.3231L9.48001 13.3C9.47001 13.24 9.45001 13.18 9.42001 13.12C9.40001 13.06 9.36999 13 9.32999 12.94C9.30999 12.9067 9.2811 12.8734 9.25221 12.84C9.23777 12.8234 9.22332 12.8067 9.20999 12.79L9.06 12.67C9 12.63 8.94 12.6 8.88 12.58C8.82001 12.55 8.76001 12.53 8.70001 12.52C8.50001 12.48 8.3 12.5 8.12 12.58C8 12.63 7.89001 12.7 7.79001 12.79C7.61001 12.98 7.5 13.24 7.5 13.5C7.5 13.63 7.52999 13.76 7.57999 13.88C7.62999 14 7.70001 14.11 7.79001 14.21C7.89001 14.3 8 14.37 8.12 14.42ZM12 14.4999C11.74 14.4999 11.48 14.3899 11.29 14.2099L11.17 14.0599C11.13 13.9999 11.1 13.9399 11.08 13.8799C11.05 13.8199 11.03 13.7599 11.02 13.6999L11.0167 13.6768C11.0079 13.6164 11 13.5621 11 13.4999C11 13.3699 11.03 13.2399 11.08 13.1199C11.13 12.9999 11.2 12.8899 11.29 12.7899C11.57 12.5099 12.02 12.4199 12.38 12.5799C12.51 12.6299 12.61 12.6999 12.71 12.7899C12.89 12.9799 13 13.2399 13 13.4999C13 13.5621 12.9921 13.6164 12.9833 13.6768L12.98 13.6999C12.97 13.7599 12.95 13.8199 12.92 13.8799C12.9 13.9399 12.87 13.9999 12.83 14.0599L12.71 14.2099C12.61 14.2999 12.51 14.3699 12.38 14.4199C12.26 14.4699 12.13 14.4999 12 14.4999ZM8.12 17.9199C8.24 17.9699 8.37 17.9999 8.5 17.9999C8.76 17.9999 9.01999 17.8899 9.20999 17.7099C9.38999 17.5199 9.5 17.2599 9.5 16.9999C9.5 16.9399 9.49001 16.8699 9.48001 16.8099C9.47001 16.7399 9.45001 16.6799 9.42001 16.6199C9.40001 16.5599 9.36999 16.4999 9.32999 16.4399C9.30999 16.4065 9.2811 16.3732 9.25221 16.3399C9.23777 16.3232 9.22332 16.3065 9.20999 16.2899C8.92999 16.0099 8.49 15.9199 8.12 16.0799C8 16.1299 7.89001 16.1999 7.79001 16.2899C7.61001 16.4799 7.5 16.7399 7.5 16.9999C7.5 17.1299 7.52999 17.2599 7.57999 17.3799C7.62999 17.5099 7.70001 17.6099 7.79001 17.7099C7.89001 17.7999 8 17.8699 8.12 17.9199Z" fill="#292D32"/>
</svg>
