<svg viewBox="0 0 24 24" fill="none" xmlns="http://www.w3.org/2000/svg">
<path fill-rule="evenodd" clip-rule="evenodd" d="M16.7502 3.56V2C16.7502 1.59 16.4102 1.25 16.0002 1.25C15.5902 1.25 15.2502 1.59 15.2502 2V3.5H8.75024V2C8.75024 1.59 8.41024 1.25 8.00024 1.25C7.59024 1.25 7.25024 1.59 7.25024 2V3.56C4.55024 3.81 3.24023 5.42 3.04023 7.81C3.02023 8.1 3.26023 8.34 3.54023 8.34H20.4602C20.7502 8.34 20.9902 8.09 20.9602 7.81C20.7602 5.42 19.4502 3.81 16.7502 3.56ZM8.5 14.9999C8.24 14.9999 7.98 14.8899 7.79 14.7099C7.61 14.5199 7.5 14.2599 7.5 13.9999C7.5 13.7399 7.61 13.4799 7.79 13.2899C8.02 13.0599 8.37 12.9499 8.7 13.0199C8.76 13.0299 8.82 13.0499 8.88 13.0799C8.94 13.0999 9 13.1299 9.06 13.1699L9.21 13.2899C9.39 13.4799 9.5 13.7399 9.5 13.9999C9.5 14.2599 9.39 14.5199 9.21 14.7099L9.06 14.8299C9 14.8699 8.94 14.8999 8.88 14.9199C8.82 14.9499 8.76 14.9699 8.7 14.9799C8.63 14.9899 8.56 14.9999 8.5 14.9999ZM11.29 14.7099C11.48 14.8899 11.74 14.9999 12 14.9999C12.26 14.9999 12.52 14.8899 12.71 14.7099C12.89 14.5199 13 14.2599 13 13.9999C13 13.7399 12.89 13.48 12.71 13.29C12.34 12.92 11.67 12.92 11.29 13.29C11.11 13.48 11 13.7399 11 13.9999C11 14.2599 11.11 14.5199 11.29 14.7099ZM8.5 18.4999C8.24 18.4999 7.98 18.3899 7.79 18.2099C7.61 18.0199 7.5 17.7599 7.5 17.4999C7.5 17.2399 7.61 16.9799 7.79 16.7899C7.89 16.6999 7.99 16.6299 8.12 16.5799C8.49 16.4199 8.93 16.5099 9.21 16.7899C9.39 16.9799 9.5 17.2399 9.5 17.4999C9.5 17.7599 9.39 18.0199 9.21 18.2099C9.02 18.3899 8.76 18.4999 8.5 18.4999ZM16.17 16.17C17.73 14.61 20.27 14.61 21.83 16.17C23.39 17.73 23.39 20.27 21.83 21.83C20.27 23.39 17.73 23.39 16.17 21.83C14.61 20.27 14.61 17.73 16.17 16.17ZM20.54 19.78C20.75 19.78 20.94 19.7 21.07 19.56C21.21 19.43 21.29 19.24 21.29 19.03C21.29 18.62 20.96 18.28 20.54 18.28H19.8V17.57C19.8 17.16 19.46 16.82 19.05 16.82C18.63 16.82 18.3 17.16 18.3 17.57V18.28H17.55C17.14 18.28 16.8 18.62 16.8 19.03C16.8 19.45 17.14 19.78 17.55 19.78H18.3V20.56C18.3 20.97 18.64 21.31 19.05 21.31C19.26 21.31 19.44 21.23 19.58 21.09C19.72 20.95 19.8 20.77 19.8 20.56V19.78H20.54Z" fill="#292D32"/>
<path opacity="0.4" d="M21 10.8401V12.5801C21 13.1901 20.46 13.6601 19.86 13.5601C19.58 13.5201 19.29 13.4901 19 13.4901C15.97 13.4901 13.5 15.9601 13.5 18.9901C13.5 19.4501 13.68 20.0901 13.87 20.6701C14.09 21.3201 13.61 21.9901 12.92 21.9901H8C4.5 21.9901 3 19.9901 3 16.9901V10.8301C3 10.2801 3.45 9.83008 4 9.83008H20C20.55 9.84008 21 10.2901 21 10.8401Z" fill="#292D32"/>
</svg>
