<svg viewBox="0 0 24 24" fill="none" xmlns="http://www.w3.org/2000/svg">
<path fill-rule="evenodd" clip-rule="evenodd" d="M16.7502 2V3.56C19.4502 3.81 20.7602 5.42 20.9602 7.81C20.9902 8.09 20.7502 8.34 20.4602 8.34H3.54023C3.26023 8.34 3.02023 8.1 3.04023 7.81C3.24023 5.42 4.55022 3.81 7.25022 3.56V2C7.25022 1.59 7.59022 1.25 8.00022 1.25C8.41022 1.25 8.75022 1.59 8.75022 2V3.5H15.2502V2C15.2502 1.59 15.5902 1.25 16.0002 1.25C16.4102 1.25 16.7502 1.59 16.7502 2ZM14.3409 15.4999L14.8409 14.9899C15.4509 14.3799 15.7409 13.6699 14.8409 12.7699C14.4309 12.3599 14.0609 12.2 13.7209 12.2C13.3209 12.2 12.9509 12.4399 12.6209 12.7699L12.1209 13.2799L9.08091 16.3099C8.95091 16.4499 8.82093 16.7099 8.79093 16.8999L8.60093 18.2599C8.53093 18.7399 8.87091 19.0899 9.36091 19.0199L10.7109 18.8199C10.9009 18.7999 11.1709 18.6599 11.3009 18.5299L14.3309 15.4999H14.3409Z" fill="#292D32"/>
<path opacity="0.4" d="M20 9.84009C20.55 9.84009 21 10.2901 21 10.8401V17.0001C21 20.0001 19.5 22.0001 16 22.0001H8C4.5 22.0001 3 20.0001 3 17.0001V10.8401C3 10.2901 3.45 9.84009 4 9.84009H20Z" fill="#292D32"/>
</svg>
