<svg viewBox="0 0 24 24" fill="none" xmlns="http://www.w3.org/2000/svg">
<path fill-rule="evenodd" clip-rule="evenodd" d="M16.7502 2V3.56C19.4502 3.81 20.7602 5.42 20.9602 7.81C20.9902 8.09 20.7502 8.34 20.4602 8.34H3.54023C3.26023 8.34 3.02023 8.1 3.04023 7.81C3.24023 5.42 4.55023 3.81 7.25023 3.56V2C7.25023 1.59 7.59023 1.25 8.00023 1.25C8.41023 1.25 8.75023 1.59 8.75023 2V3.5H15.2502V2C15.2502 1.59 15.5902 1.25 16.0002 1.25C16.4102 1.25 16.7502 1.59 16.7502 2ZM4 9.83984H20C20.55 9.83984 21 10.2898 21 10.8398V16.9998C21 19.9998 19.5 21.9998 16 21.9998H8C4.5 21.9998 3 19.9998 3 16.9998V10.8398C3 10.2898 3.45 9.83984 4 9.83984ZM14.34 15.4998L14.84 14.9898C15.45 14.3798 15.74 13.6698 14.84 12.7698C14.43 12.3598 14.06 12.1998 13.72 12.1998C13.32 12.1998 12.95 12.4398 12.62 12.7698L12.12 13.2798L9.08 16.3098C8.95 16.4498 8.82 16.7098 8.79 16.8998L8.6 18.2598C8.53 18.7398 8.87 19.0898 9.36 19.0198L10.71 18.8198C10.9 18.7998 11.17 18.6598 11.3 18.5298L14.33 15.4998H14.34Z" fill="#292D32"/>
</svg>
