<svg viewBox="0 0 24 24" fill="none" xmlns="http://www.w3.org/2000/svg">
<path fill-rule="evenodd" clip-rule="evenodd" d="M12 22.75C6.07 22.75 1.25 17.93 1.25 12C1.25 6.07 6.07 1.25 12 1.25C17.93 1.25 22.75 6.07 22.75 12C22.75 17.93 17.93 22.75 12 22.75ZM12 2.75C6.9 2.75 2.75 6.9 2.75 12C2.75 17.1 6.9 21.25 12 21.25C17.1 21.25 21.25 17.1 21.25 12C21.25 6.9 17.1 2.75 12 2.75ZM9.89062 8.58008C9.48063 8.58008 9.14062 8.24008 9.14062 7.83008V7.65952C8.29634 7.99186 7.75064 8.63774 7.4722 9.39165C7.48786 9.39065 7.50364 9.39014 7.51953 9.39014H16.4695C16.4892 9.39014 16.5088 9.39092 16.5281 9.39246C16.2498 8.6382 15.704 7.99198 14.8594 7.65952V7.83008C14.8594 8.24008 14.5194 8.58008 14.1094 8.58008C13.6994 8.58008 13.3594 8.24008 13.3594 7.83008V7.41992H10.6406V7.83008C10.6406 8.24008 10.3106 8.58008 9.89062 8.58008ZM9.14062 6.09461V5.83008C9.14062 5.42008 9.48063 5.08008 9.89062 5.08008C10.3006 5.08008 10.6406 5.42008 10.6406 5.83008V5.91992H13.3594V5.83008C13.3594 5.42008 13.6994 5.08008 14.1094 5.08008C14.5194 5.08008 14.8594 5.42008 14.8594 5.83008V6.09461C16.8848 6.63781 18.25 8.39789 18.25 10.6699V13.6699C18.25 16.4199 16.25 18.4199 13.5 18.4199H10.5C7.75 18.4199 5.75 16.4199 5.75 13.6699V10.6699C5.75 8.39789 7.11519 6.63781 9.14062 6.09461ZM16.75 10.8364C16.6637 10.871 16.5692 10.8901 16.4695 10.8901H7.51953C7.42485 10.8901 7.33389 10.872 7.25 10.8391V13.6699C7.25 15.2899 8.25 16.9199 10.5 16.9199H13.5C15.75 16.9199 16.75 15.2899 16.75 13.6699V10.8364Z" fill="#292D32"/>
</svg>
