<svg viewBox="0 0 24 24" fill="none" xmlns="http://www.w3.org/2000/svg">
<path fill-rule="evenodd" clip-rule="evenodd" d="M16.7502 2V3.56C19.4502 3.81 20.7602 5.42 20.9602 7.81C20.9902 8.09 20.7502 8.34 20.4602 8.34H3.54023C3.26023 8.34 3.02023 8.1 3.04023 7.81C3.24023 5.42 4.55023 3.81 7.25023 3.56V2C7.25023 1.59 7.59023 1.25 8.00023 1.25C8.41023 1.25 8.75023 1.59 8.75023 2V3.5H15.2502V2C15.2502 1.59 15.5902 1.25 16.0002 1.25C16.4102 1.25 16.7502 1.59 16.7502 2ZM4 9.83984H20C20.55 9.83984 21 10.2898 21 10.8398V16.9998C21 19.9998 19.5 21.9998 16 21.9998H8C4.5 21.9998 3 19.9998 3 16.9998V10.8398C3 10.2898 3.45 9.83984 4 9.83984ZM9.16 18.2521C9.17667 18.2376 9.19333 18.2232 9.21 18.2098C9.39 18.0198 9.5 17.7598 9.5 17.4998C9.5 17.2398 9.39 16.9798 9.21 16.7898L9.06 16.6698C9 16.6298 8.94 16.5998 8.88 16.5798C8.82 16.5498 8.76 16.5298 8.7 16.5198C8.5 16.4798 8.3 16.4998 8.12 16.5798C7.99 16.6298 7.89 16.6998 7.79 16.7898C7.61 16.9798 7.5 17.2398 7.5 17.4998C7.5 17.7598 7.61 18.0198 7.79 18.2098C7.89 18.2998 7.99 18.3698 8.12 18.4198C8.24 18.4698 8.37 18.4998 8.5 18.4998C8.56212 18.4998 8.61637 18.492 8.67672 18.4832C8.68437 18.4821 8.69212 18.481 8.7 18.4798C8.76 18.4698 8.82 18.4498 8.88 18.4198C8.94 18.3998 9 18.3698 9.06 18.3298C9.09333 18.3098 9.12667 18.281 9.16 18.2521ZM8.5 14.9998C8.76 14.9998 9.02 14.8898 9.21 14.7098C9.39 14.5198 9.5 14.2598 9.5 13.9998C9.5 13.7398 9.39 13.4798 9.21 13.2898C9.12 13.1998 9.01 13.1298 8.88 13.0798C8.51 12.9198 8.07 13.0098 7.79 13.2898C7.61 13.4798 7.5 13.7398 7.5 13.9998C7.5 14.2598 7.61 14.5198 7.79 14.7098C7.98 14.8898 8.24 14.9998 8.5 14.9998ZM12 18.4998C12.26 18.4998 12.52 18.3898 12.71 18.2098C12.89 18.0198 13 17.7598 13 17.4998C13 17.2398 12.89 16.9798 12.71 16.7898C12.34 16.4198 11.66 16.4198 11.29 16.7898C11.11 16.9798 11 17.2398 11 17.4998C11 17.7598 11.11 18.0198 11.29 18.2098C11.48 18.3898 11.74 18.4998 12 18.4998ZM12.56 14.8298L12.71 14.7098C12.89 14.5198 13 14.2598 13 13.9998C13 13.7398 12.89 13.4798 12.71 13.2898C12.43 13.0098 11.99 12.9198 11.62 13.0798C11.49 13.1298 11.38 13.1998 11.29 13.2898C11.11 13.4798 11 13.7398 11 13.9998C11 14.2598 11.11 14.5198 11.29 14.7098C11.48 14.8898 11.74 14.9998 12 14.9998C12.0621 14.9998 12.1164 14.992 12.1767 14.9832C12.1844 14.9821 12.1921 14.981 12.2 14.9798C12.26 14.9698 12.32 14.9498 12.38 14.9198C12.44 14.8998 12.5 14.8698 12.56 14.8298ZM15.5 18.4998C15.76 18.4998 16.02 18.3898 16.21 18.2098C16.39 18.0198 16.5 17.7598 16.5 17.4998C16.5 17.2398 16.39 16.9798 16.21 16.7898C15.84 16.4198 15.16 16.4198 14.79 16.7898C14.61 16.9798 14.5 17.2398 14.5 17.4998C14.5 17.7598 14.61 18.0198 14.79 18.2098C14.98 18.3898 15.24 18.4998 15.5 18.4998ZM16.06 14.8298L16.21 14.7098C16.39 14.5198 16.5 14.2598 16.5 13.9998C16.5 13.7398 16.39 13.4798 16.21 13.2898L16.06 13.1698C16 13.1298 15.94 13.0998 15.88 13.0798C15.82 13.0498 15.76 13.0298 15.7 13.0198C15.5 12.9798 15.3 12.9998 15.12 13.0798C14.99 13.1298 14.89 13.1998 14.79 13.2898C14.61 13.4798 14.5 13.7398 14.5 13.9998C14.5 14.2598 14.61 14.5198 14.79 14.7098C14.98 14.8898 15.24 14.9998 15.5 14.9998C15.56 14.9998 15.63 14.9898 15.7 14.9798C15.76 14.9698 15.82 14.9498 15.88 14.9198C15.94 14.8998 16 14.8698 16.06 14.8298Z" fill="#292D32"/>
</svg>
