<svg viewBox="0 0 24 24" fill="none" xmlns="http://www.w3.org/2000/svg">
<path fill-rule="evenodd" clip-rule="evenodd" d="M14.8493 7.3801C15.9393 7.7201 16.7293 8.47009 17.1493 9.44009C17.2893 9.77009 17.0493 10.1401 16.6693 10.1501H7.29931C6.93931 10.1501 6.69931 9.77009 6.83931 9.44009C7.25931 8.47009 8.04933 7.7201 9.13933 7.3801V6.59009C9.13933 6.18009 9.47933 5.84009 9.88933 5.84009C10.2993 5.84009 10.6393 6.18009 10.6393 6.59009V7.18008H13.3493V6.59009C13.3493 6.18009 13.6893 5.84009 14.0993 5.84009C14.5093 5.84009 14.8493 6.18009 14.8493 6.59009V7.3801ZM17.5 11.6401C17.5 11.3601 17.28 11.1401 17 11.1401H7C6.72 11.1401 6.5 11.3601 6.5 11.6401V14.1701C6.5 16.3701 8 18.1701 10.5 18.1701H13.5C16 18.1701 17.5 16.3701 17.5 14.1701V11.6401Z" fill="#292D32"/>
<path opacity="0.4" d="M12 22C17.5228 22 22 17.5228 22 12C22 6.47715 17.5228 2 12 2C6.47715 2 2 6.47715 2 12C2 17.5228 6.47715 22 12 22Z" fill="#292D32"/>
</svg>
