<svg viewBox="0 0 24 24" fill="none" xmlns="http://www.w3.org/2000/svg">
<path fill-rule="evenodd" clip-rule="evenodd" d="M8 5.75C7.59 5.75 7.25 5.41 7.25 5V4.28515C4.94552 4.51256 3.79811 5.84536 3.75148 8.33984H20.2485C20.2019 5.84536 19.0545 4.51256 16.75 4.28515V5C16.75 5.41 16.41 5.75 16 5.75C15.59 5.75 15.25 5.41 15.25 5V4.25H8.75V5C8.75 5.41 8.41 5.75 8 5.75ZM7.25 2.78123V2C7.25 1.59 7.59 1.25 8 1.25C8.41 1.25 8.75 1.59 8.75 2V2.75H15.25V2C15.25 1.59 15.59 1.25 16 1.25C16.41 1.25 16.75 1.59 16.75 2V2.78123C19.9362 3.05438 21.75 5.1078 21.75 8.5V13C21.75 13.41 21.41 13.75 21 13.75C20.59 13.75 20.25 13.41 20.25 13V9.83984H3.75V17C3.75 19.86 5.14 21.25 8 21.25H13.37C13.78 21.25 14.12 21.59 14.12 22C14.12 22.41 13.78 22.75 13.37 22.75H8C4.35 22.75 2.25 20.65 2.25 17V8.5C2.25 5.1078 4.06383 3.05438 7.25 2.78123ZM14.25 18.2C14.25 20.38 16.02 22.15 18.2 22.15C19.0208 22.15 19.7835 21.8991 20.4155 21.4698C20.4322 21.4906 20.4502 21.5107 20.4695 21.5299L21.4695 22.5299C21.6195 22.6799 21.8095 22.7499 21.9995 22.7499C22.1895 22.7499 22.3794 22.6799 22.5295 22.5299C22.8195 22.2399 22.8195 21.7599 22.5295 21.4699L21.5295 20.4699C21.5102 20.4507 21.4902 20.4328 21.4694 20.4161C21.8989 19.784 22.15 19.0211 22.15 18.2C22.15 16.02 20.38 14.25 18.2 14.25C16.02 14.25 14.25 16.02 14.25 18.2ZM15.75 18.2C15.75 16.85 16.85 15.75 18.2 15.75C19.55 15.75 20.65 16.85 20.65 18.2C20.65 19.55 19.55 20.65 18.2 20.65C16.85 20.65 15.75 19.55 15.75 18.2ZM8.12 14.4199C8.24 14.4699 8.37 14.4999 8.5 14.4999C8.76 14.4999 9.02001 14.3899 9.21001 14.2099L9.33 14.0599C9.37 13.9999 9.4 13.9399 9.42 13.8799C9.45 13.8199 9.47 13.7599 9.48 13.6999L9.48 13.6998V13.6998V13.6998V13.6998V13.6998C9.49 13.6298 9.5 13.5598 9.5 13.4999C9.5 13.2399 9.39001 12.9799 9.21001 12.7899C8.93001 12.5099 8.47999 12.4199 8.12 12.5799C7.99 12.6299 7.87999 12.6999 7.78999 12.7899C7.60999 12.9799 7.5 13.2399 7.5 13.4999C7.5 13.5599 7.51 13.6299 7.52 13.6998L7.52 13.6999C7.53 13.7599 7.55 13.8199 7.58 13.8799C7.6 13.9399 7.63 13.9999 7.67 14.0599C7.69 14.0932 7.71888 14.1265 7.74777 14.1599C7.76222 14.1765 7.77666 14.1932 7.78999 14.2099C7.87999 14.2999 7.99 14.3699 8.12 14.4199ZM12 14.4999C11.74 14.4999 11.48 14.3899 11.29 14.2099C11.11 14.0199 11 13.7699 11 13.4999C11 13.3699 11.03 13.2399 11.08 13.1199C11.13 12.9999 11.2 12.89 11.29 12.79C11.66 12.42 12.33 12.42 12.71 12.79C12.89 12.98 13 13.2399 13 13.4999C13 13.5599 12.99 13.6299 12.98 13.6999L12.98 13.7C12.97 13.76 12.95 13.8199 12.92 13.8799C12.9 13.9399 12.87 13.9999 12.83 14.0599L12.71 14.2099C12.52 14.3899 12.26 14.4999 12 14.4999ZM7.78999 17.7099C7.97999 17.8899 8.24 17.9999 8.5 17.9999C8.76 17.9999 9.02001 17.8899 9.21001 17.7099C9.39001 17.5199 9.5 17.2599 9.5 16.9999C9.5 16.7399 9.39001 16.48 9.21001 16.29C8.84001 15.92 8.15999 15.92 7.78999 16.29C7.69999 16.38 7.63 16.4899 7.58 16.6199C7.53 16.7399 7.5 16.8699 7.5 16.9999C7.5 17.2599 7.60999 17.5199 7.78999 17.7099Z" fill="#292D32"/>
</svg>
