<svg viewBox="0 0 24 24" fill="none" xmlns="http://www.w3.org/2000/svg">
<path fill-rule="evenodd" clip-rule="evenodd" d="M8 5.75C7.59 5.75 7.25 5.41 7.25 5V4.31603C4.9415 4.60501 3.75 5.69771 3.75 9.65V15.82C3.75 16.1832 3.75657 16.5264 3.77231 16.8501H20.2277C20.2434 16.5264 20.25 16.1832 20.25 15.82V9.65C20.25 5.71389 19.071 4.61068 16.75 4.31785V5C16.75 5.41 16.41 5.75 16 5.75C15.59 5.75 15.25 5.41 15.25 5V4.25H8.75V5C8.75 5.41 8.41 5.75 8 5.75ZM9 21.25C5.64626 21.25 4.37903 20.3691 3.94836 18.3501H20.0516C19.621 20.3691 18.3537 21.25 15 21.25H9ZM7.25 2.80967V2C7.25 1.59 7.59 1.25 8 1.25C8.41 1.25 8.75 1.59 8.75 2V2.75H15.25V2C15.25 1.59 15.59 1.25 16 1.25C16.41 1.25 16.75 1.59 16.75 2V2.80967C20.3355 3.22066 21.75 5.1932 21.75 9.65V15.82C21.75 20.1 20.62 22.75 15 22.75H9C3.38 22.75 2.25 20.1 2.25 15.82V9.65C2.25 5.1932 3.66452 3.22066 7.25 2.80967ZM9.73 10.22C9.73 8.92 10.77 8.25 12 8.25C13.23 8.25 14.26 8.92 14.26 10.22C14.26 10.84 13.98 11.3 13.53 11.61C14.15 11.96 14.5 12.55 14.5 13.23C14.5 14.47 13.54 15.24 12 15.24C10.45 15.24 9.5 14.47 9.5 13.23C9.5 12.55 9.85 11.97 10.46 11.61C10.02 11.31 9.73 10.84 9.73 10.22ZM11.1 10.29C11.1 10.78 11.48 11.09 12 11.09C12.52 11.09 12.9 10.78 12.9 10.29C12.9 9.79 12.52 9.5 12 9.5C11.48 9.5 11.1 9.79 11.1 10.29ZM10.86 13.07C10.86 13.67 11.34 14 12 14C12.66 14 13.14 13.67 13.14 13.07C13.14 12.48 12.66 12.15 12 12.15C11.34 12.15 10.86 12.47 10.86 13.07Z" fill="#292D32"/>
</svg>
