<svg viewBox="0 0 24 24" fill="none" xmlns="http://www.w3.org/2000/svg">
<path fill-rule="evenodd" clip-rule="evenodd" d="M7.25 5C7.25 5.41 7.59 5.75 8 5.75C8.41 5.75 8.75 5.41 8.75 5V4.25H15.25V5C15.25 5.41 15.59 5.75 16 5.75C16.41 5.75 16.75 5.41 16.75 5V4.28515C19.0545 4.51256 20.2019 5.84536 20.2485 8.33984H3.75148C3.79811 5.84536 4.94552 4.51256 7.25 4.28515V5ZM8.75 2.75V2C8.75 1.59 8.41 1.25 8 1.25C7.59 1.25 7.25 1.59 7.25 2V2.78123C4.06383 3.05438 2.25 5.1078 2.25 8.5V17C2.25 20.65 4.35 22.75 8 22.75H16C19.65 22.75 21.75 20.65 21.75 17V8.5C21.75 5.1078 19.9362 3.05438 16.75 2.78123V2C16.75 1.59 16.41 1.25 16 1.25C15.59 1.25 15.25 1.59 15.25 2V2.75H8.75ZM3.75 9.83984V17C3.75 19.86 5.14 21.25 8 21.25H16C18.86 21.25 20.25 19.86 20.25 17V9.83984H3.75ZM8.5 14.5001C8.37 14.5001 8.24 14.4701 8.12 14.4201C7.99 14.3701 7.89 14.3001 7.79 14.2101C7.61 14.0201 7.5 13.7701 7.5 13.5001C7.5 13.3701 7.53 13.2401 7.58 13.1201C7.63 13.0001 7.7 12.8901 7.79 12.7901C7.89 12.7001 7.99 12.6301 8.12 12.5801C8.48 12.4301 8.93 12.5101 9.21 12.7901C9.39 12.9801 9.5 13.2401 9.5 13.5001C9.5 13.5601 9.49 13.6301 9.48 13.7001C9.47 13.7601 9.45 13.8201 9.42 13.8801C9.4 13.9401 9.37 14.0001 9.33 14.0601C9.31002 14.0934 9.28115 14.1267 9.25227 14.16L9.25227 14.16L9.25226 14.16L9.25226 14.16L9.25225 14.16L9.25225 14.16L9.25224 14.16L9.25223 14.16C9.23779 14.1767 9.22334 14.1934 9.21 14.2101C9.02 14.3901 8.76 14.5001 8.5 14.5001ZM11.62 14.4199C11.74 14.4699 11.87 14.4999 12 14.4999C12.26 14.4999 12.52 14.3899 12.71 14.2099C12.7233 14.1932 12.7378 14.1765 12.7522 14.1599L12.7522 14.1598L12.7522 14.1598L12.7523 14.1598L12.7523 14.1598L12.7523 14.1598L12.7523 14.1598C12.7811 14.1265 12.81 14.0932 12.83 14.0599C12.87 13.9999 12.9 13.9399 12.92 13.8799C12.95 13.8199 12.97 13.7599 12.98 13.6999C12.99 13.6299 13 13.5599 13 13.4999C13 13.2399 12.89 12.9799 12.71 12.7899C12.43 12.5099 11.98 12.4199 11.62 12.5799C11.49 12.6299 11.39 12.6999 11.29 12.7899C11.2 12.8899 11.13 12.9999 11.08 13.1199C11.03 13.2399 11 13.3699 11 13.4999C11 13.7699 11.11 14.0199 11.29 14.2099C11.39 14.2999 11.49 14.3699 11.62 14.4199ZM15.5 14.4999C15.37 14.4999 15.24 14.4699 15.12 14.4199C14.99 14.3699 14.89 14.2999 14.79 14.2099L14.67 14.0599C14.63 13.9999 14.6 13.9399 14.58 13.8799C14.55 13.8199 14.53 13.7599 14.52 13.6999C14.51 13.6299 14.5 13.5599 14.5 13.4999C14.5 13.2399 14.61 12.9799 14.79 12.7899C14.89 12.6999 14.99 12.6299 15.12 12.5799C15.49 12.4199 15.93 12.5099 16.21 12.7899C16.39 12.9799 16.5 13.2399 16.5 13.4999C16.5 13.5599 16.49 13.6299 16.48 13.6999C16.47 13.7599 16.45 13.8199 16.42 13.8799C16.4 13.9399 16.37 13.9999 16.33 14.0599C16.31 14.0932 16.2811 14.1265 16.2522 14.1599L16.2522 14.1599L16.2521 14.16L16.2521 14.16L16.2521 14.1601L16.252 14.1601C16.2376 14.1767 16.2233 14.1933 16.21 14.2099C16.02 14.3899 15.76 14.4999 15.5 14.4999ZM8.12 17.92C8.24 17.97 8.37 17.9999 8.5 17.9999C8.76 17.9999 9.02 17.8899 9.21 17.7099C9.39 17.5199 9.5 17.2599 9.5 16.9999C9.5 16.7399 9.39 16.48 9.21 16.29C8.84 15.92 8.16 15.92 7.79 16.29C7.7 16.38 7.63 16.4899 7.58 16.6199C7.53 16.7399 7.5 16.8699 7.5 16.9999C7.5 17.2599 7.61 17.5199 7.79 17.7099C7.89 17.7999 8 17.87 8.12 17.92ZM12 17.9999C11.74 17.9999 11.48 17.8899 11.29 17.7099C11.11 17.5199 11 17.2599 11 16.9999C11 16.8699 11.03 16.7399 11.08 16.6199C11.13 16.4899 11.2 16.38 11.29 16.29C11.66 15.92 12.34 15.92 12.71 16.29C12.8 16.38 12.87 16.4899 12.92 16.6199C12.97 16.7399 13 16.8699 13 16.9999C13 17.2599 12.89 17.5199 12.71 17.7099C12.52 17.8899 12.26 17.9999 12 17.9999ZM14.79 17.7099C14.98 17.8899 15.24 17.9999 15.5 17.9999C15.76 17.9999 16.02 17.8899 16.21 17.7099C16.39 17.5199 16.5 17.2599 16.5 16.9999C16.5 16.7399 16.39 16.4799 16.21 16.2899C16.1933 16.2766 16.1767 16.2621 16.16 16.2477C16.1267 16.2188 16.0933 16.1899 16.06 16.1699C16 16.1299 15.94 16.0999 15.88 16.0799C15.82 16.0499 15.76 16.0299 15.69 16.0199C15.37 15.9499 15.02 16.0599 14.79 16.2899C14.7 16.3799 14.63 16.4899 14.58 16.6199C14.53 16.7399 14.5 16.8699 14.5 16.9999C14.5 17.1299 14.53 17.2599 14.58 17.3799C14.63 17.5099 14.7 17.6199 14.79 17.7099Z" fill="#292D32"/>
</svg>
