<svg viewBox="0 0 24 24" fill="none" xmlns="http://www.w3.org/2000/svg">
<path fill-rule="evenodd" clip-rule="evenodd" d="M16.1992 8.55H20.9992C21.4092 8.55 21.7492 8.21 21.7492 7.8C21.7492 7.39 21.4092 7.05 20.9992 7.05H16.9492V3C16.9492 2.59 16.6092 2.25 16.1992 2.25C15.7892 2.25 15.4492 2.59 15.4492 3V7.8C15.4492 8.21 15.7892 8.55 16.1992 8.55ZM21.8196 19.18C21.9196 18.9 21.9696 18.61 21.9696 18.33C21.9696 18.05 21.9096 17.8 21.8096 17.55C21.6996 17.3 21.5196 17.09 21.2596 16.91L17.9496 14.56C17.6996 14.39 17.4696 14.26 17.2496 14.17C17.0296 14.08 16.8296 14.04 16.6396 14.04C16.3896 14.04 16.1596 14.11 15.9296 14.25C15.6996 14.37 15.4596 14.56 15.2096 14.81L14.4496 15.56C14.3396 15.67 14.2096 15.73 14.0396 15.73C13.9496 15.73 13.8696 15.72 13.7896 15.69C13.7575 15.6763 13.7275 15.6625 13.6996 15.6497C13.6667 15.6346 13.6367 15.6209 13.6096 15.61C13.3996 15.5 13.1496 15.34 12.8696 15.13L9.59961 18.4C9.96961 18.71 10.3596 19 10.7496 19.29C11.8896 20.12 13.0396 20.78 14.1896 21.27C15.3396 21.76 16.4296 22 17.4496 22C18.1396 22 18.7796 21.87 19.3696 21.63C19.3746 21.63 19.3796 21.6275 19.3846 21.625C19.3896 21.6225 19.3946 21.62 19.3996 21.62C20.0096 21.37 20.5496 20.98 21.0396 20.44C21.3296 20.12 21.5496 19.78 21.7196 19.42C21.7596 19.34 21.7896 19.26 21.8196 19.18Z" fill="#292D32"/>
<path opacity="0.4" d="M11.79 14.21L8.52 17.48C8.16 17.16 7.81 16.83 7.47 16.49C6.44 15.45 5.51 14.36 4.68 13.22C3.86 12.08 3.2 10.94 2.72 9.81C2.24 8.67 2 7.58 2 6.54C2 5.86 2.12 5.21 2.36 4.61C2.6 4 2.98 3.44 3.51 2.94C4.15 2.31 4.85 2 5.59 2C5.87 2 6.15 2.06 6.4 2.18C6.66 2.3 6.89 2.48 7.07 2.74L9.39 6.01C9.57 6.26 9.7 6.49 9.79 6.71C9.88 6.92 9.93 7.13 9.93 7.32C9.93 7.56 9.86 7.8 9.72 8.03C9.59 8.26 9.4 8.5 9.16 8.74L8.4 9.53C8.29 9.64 8.24 9.77 8.24 9.93C8.24 10.01 8.25 10.08 8.27 10.16C8.3 10.24 8.33 10.3 8.35 10.36C8.53 10.69 8.84 11.12 9.28 11.64C9.73 12.16 10.21 12.69 10.73 13.22C11.09 13.57 11.44 13.91 11.79 14.21Z" fill="#292D32"/>
</svg>
