<svg viewBox="0 0 24 24" fill="none" xmlns="http://www.w3.org/2000/svg">
<path fill-rule="evenodd" clip-rule="evenodd" d="M13.9 21.96C15.13 22.48 16.32 22.75 17.45 22.75C18.24 22.75 18.99 22.6 19.68 22.32C20.4 22.03 21.02 21.58 21.59 20.95C21.92 20.59 22.18 20.2 22.39 19.75C22.6 19.3 22.71 18.82 22.71 18.34C22.71 17.99 22.64 17.64 22.49 17.26C22.33 16.88 22.05 16.56 21.69 16.31L18.37 13.95C18.07 13.74 17.79 13.59 17.53 13.48C16.83 13.19 16.13 13.25 15.58 13.59C15.29 13.74 14.99 13.97 14.68 14.28L13.95 15L13.97 14.95C13.75 14.84 13.38 14.6 12.81 14.12C12.35 13.74 11.87 13.29 11.27 12.7C10.81 12.22 10.34 11.72 9.86 11.16C9.4 10.62 9.16 10.26 9.04 10.05C9.03 10.03 9.02 10.01 9.01 9.98L9.69 9.27C9.98 8.98 10.21 8.69 10.36 8.42C10.57 8.07 10.68 7.7 10.68 7.32C10.68 7.03 10.61 6.73 10.48 6.43C10.37 6.15 10.21 5.87 10 5.58L7.68 2.31C7.44 1.95 7.11 1.68 6.72 1.5C6.38 1.34 5.98 1.25 5.59 1.25C4.65 1.25 3.77 1.64 3 2.39C2.39 2.96 1.95 3.61 1.66 4.33C1.39 5.02 1.25 5.76 1.25 6.54C1.25 7.67 1.51 8.87 2.03 10.1C2.52 11.27 3.21 12.46 4.07 13.66C4.92 14.82 5.88 15.95 6.94 17.02C8 18.07 9.13 19.04 10.31 19.9C11.49 20.75 12.7 21.45 13.9 21.96ZM4.04 3.47C4.53 2.99 5.04 2.75 5.59 2.75C5.76 2.75 5.93 2.79 6.09 2.86C6.24 2.93 6.36 3.03 6.46 3.17L8.78 6.45C8.92 6.65 9.03 6.82 9.09 6.99C9.14 7.11 9.17 7.23 9.17 7.31C9.17 7.41 9.14 7.52 9.06 7.65C8.96 7.82 8.81 8.01 8.61 8.21L7.86 8.99C7.61 9.24 7.48 9.56 7.48 9.92C7.48 10.06 7.5 10.19 7.56 10.41L7.69 10.71C7.9 11.1 8.24 11.57 8.71 12.12C9.22 12.7 9.7 13.23 10.2 13.74C10.84 14.37 11.34 14.84 11.83 15.25C12.36 15.7 12.84 16.04 13.25 16.26L13.52 16.38C13.98 16.55 14.58 16.46 14.97 16.08L15.73 15.33C15.93 15.13 16.11 14.98 16.31 14.88C16.53 14.74 16.7 14.75 16.96 14.85C17.13 14.92 17.31 15.02 17.51 15.16L20.83 17.52C21.02 17.65 21.09 17.77 21.11 17.82C21.19 18 21.22 18.16 21.22 18.32C21.22 18.58 21.16 18.84 21.04 19.09C20.89 19.41 20.71 19.68 20.48 19.93C20.07 20.39 19.62 20.71 19.11 20.92C17.79 21.47 16.19 21.3 14.48 20.57C13.38 20.11 12.27 19.47 11.19 18.68C10.08 17.87 9 16.95 8 15.96C7 14.95 6.09 13.88 5.29 12.78C4.49 11.68 3.86 10.58 3.41 9.52C2.97 8.48 2.75 7.47 2.75 6.54C2.75 5.95 2.85 5.4 3.06 4.88C3.26 4.37 3.59 3.9 4.04 3.47ZM13.79 15.69L13.95 15.01C13.98 14.99 14.02 14.98 14.06 14.99L13.79 15.69ZM15.5 6.75H20.5C20.91 6.75 21.25 6.41 21.25 6C21.25 5.59 20.91 5.25 20.5 5.25H15.5C15.09 5.25 14.75 5.59 14.75 6C14.75 6.41 15.09 6.75 15.5 6.75Z" fill="#292D32"/>
</svg>
