<svg viewBox="0 0 24 24" fill="none" xmlns="http://www.w3.org/2000/svg">
<path fill-rule="evenodd" clip-rule="evenodd" d="M8.52 17.48L11.79 14.21C11.44 13.91 11.09 13.57 10.73 13.22C10.21 12.69 9.73 12.16 9.28 11.64C8.84 11.12 8.53 10.69 8.35 10.36C8.33917 10.3275 8.32541 10.295 8.31031 10.2594C8.29752 10.2292 8.28376 10.1967 8.27 10.16C8.25 10.08 8.24 10.01 8.24 9.93C8.24 9.77 8.29 9.64 8.4 9.53L9.16 8.74C9.4 8.5 9.59 8.26 9.72 8.03C9.86 7.8 9.93 7.56 9.93 7.32C9.93 7.13 9.88 6.92 9.79 6.71C9.7 6.49 9.57 6.26 9.39 6.01L7.07 2.74C6.89 2.48 6.66 2.3 6.4 2.18C6.15 2.06 5.87 2 5.59 2C4.85 2 4.15 2.31 3.51 2.94C2.98 3.44 2.6 4 2.36 4.61C2.12 5.21 2 5.86 2 6.54C2 7.58 2.24 8.67 2.72 9.81C3.2 10.94 3.86 12.08 4.68 13.22C5.51 14.36 6.44 15.45 7.47 16.49C7.81 16.83 8.16 17.16 8.52 17.48ZM21.8196 19.1791C21.9196 18.8991 21.9696 18.6091 21.9696 18.3291C21.9696 18.0491 21.9096 17.7991 21.8096 17.5491C21.6996 17.2991 21.5196 17.0891 21.2596 16.9091L17.9496 14.5591C17.6996 14.3891 17.4696 14.2591 17.2496 14.1691C17.0296 14.0791 16.8296 14.0391 16.6396 14.0391C16.3896 14.0391 16.1596 14.1091 15.9296 14.2491C15.6996 14.3691 15.4596 14.5591 15.2096 14.8091L14.4496 15.5591C14.3396 15.6691 14.2096 15.7291 14.0396 15.7291C13.9496 15.7291 13.8696 15.7191 13.7896 15.6891C13.7575 15.6753 13.7275 15.6615 13.6996 15.6488C13.6667 15.6336 13.6367 15.6199 13.6096 15.6091C13.3996 15.4991 13.1496 15.3391 12.8696 15.1291L9.59961 18.3991C9.96961 18.7091 10.3596 18.9991 10.7496 19.2891C11.8896 20.1191 13.0396 20.7791 14.1896 21.2691C15.3396 21.7591 16.4296 21.9991 17.4496 21.9991C18.1396 21.9991 18.7796 21.8691 19.3696 21.6291C19.3746 21.6291 19.3796 21.6266 19.3846 21.6241C19.3896 21.6216 19.3946 21.6191 19.3996 21.6191C20.0096 21.3691 20.5496 20.9791 21.0396 20.4391C21.3296 20.1191 21.5496 19.7791 21.7196 19.4191C21.7596 19.3391 21.7896 19.2591 21.8196 19.1791Z" fill="#292D32"/>
</svg>
