<svg viewBox="0 0 24 24" fill="none" xmlns="http://www.w3.org/2000/svg">
<path fill-rule="evenodd" clip-rule="evenodd" d="M8.52 17.48L11.79 14.21C11.44 13.91 11.09 13.57 10.73 13.22C10.21 12.69 9.73 12.16 9.28 11.64C8.84 11.12 8.53 10.69 8.35 10.36C8.33917 10.3275 8.32541 10.295 8.31031 10.2594C8.29752 10.2292 8.28376 10.1967 8.27 10.16C8.25 10.08 8.24 10.01 8.24 9.93C8.24 9.77 8.29 9.64 8.4 9.53L9.16 8.74C9.4 8.5 9.59 8.26 9.72 8.03C9.86 7.8 9.93 7.56 9.93 7.32C9.93 7.13 9.88 6.92 9.79 6.71C9.7 6.49 9.57 6.26 9.39 6.01L7.07 2.74C6.89 2.48 6.66 2.3 6.4 2.18C6.15 2.06 5.87 2 5.59 2C4.85 2 4.15 2.31 3.51 2.94C2.98 3.44 2.6 4 2.36 4.61C2.12 5.21 2 5.86 2 6.54C2 7.58 2.24 8.67 2.72 9.81C3.2 10.94 3.86 12.08 4.68 13.22C5.51 14.36 6.44 15.45 7.47 16.49C7.81 16.83 8.16 17.16 8.52 17.48ZM19.0599 6.00187L20.2999 4.76188C20.5899 4.47188 20.5899 3.99187 20.2999 3.70188C20.0099 3.41188 19.5299 3.41188 19.2399 3.70188L17.9999 4.94187L16.7599 3.70188C16.4699 3.41188 15.9899 3.41188 15.6999 3.70188C15.4099 3.99187 15.4099 4.47188 15.6999 4.76188L16.9399 6.00187L15.6999 7.24187C15.4099 7.53187 15.4099 8.01188 15.6999 8.30188C15.8499 8.45188 16.0399 8.52188 16.2299 8.52188C16.4199 8.52188 16.6099 8.45188 16.7599 8.30188L17.9999 7.06187L19.2399 8.30188C19.3899 8.45188 19.5799 8.52188 19.7699 8.52188C19.9599 8.52188 20.1499 8.45188 20.2999 8.30188C20.5899 8.01188 20.5899 7.53187 20.2999 7.24187L19.0599 6.00187ZM21.9696 18.3291C21.9696 18.6091 21.9196 18.8991 21.8196 19.1791C21.7896 19.2591 21.7596 19.3391 21.7196 19.4191C21.5496 19.7791 21.3296 20.1191 21.0396 20.4391C20.5496 20.9791 20.0096 21.3691 19.3996 21.6191C19.3946 21.6191 19.3896 21.6216 19.3846 21.6241C19.3796 21.6266 19.3746 21.6291 19.3696 21.6291C18.7796 21.8691 18.1396 21.9991 17.4496 21.9991C16.4296 21.9991 15.3396 21.7591 14.1896 21.2691C13.0396 20.7791 11.8896 20.1191 10.7496 19.2891C10.3596 18.9991 9.96961 18.7091 9.59961 18.3991L12.8696 15.1291C13.1496 15.3391 13.3996 15.4991 13.6096 15.6091C13.6367 15.6199 13.6667 15.6336 13.6996 15.6487L13.6996 15.6487L13.6996 15.6488C13.7275 15.6616 13.7575 15.6753 13.7896 15.6891C13.8696 15.7191 13.9496 15.7291 14.0396 15.7291C14.2096 15.7291 14.3396 15.6691 14.4496 15.5591L15.2096 14.8091C15.4596 14.5591 15.6996 14.3691 15.9296 14.2491C16.1596 14.1091 16.3896 14.0391 16.6396 14.0391C16.8296 14.0391 17.0296 14.0791 17.2496 14.1691C17.4696 14.2591 17.6996 14.3891 17.9496 14.5591L21.2596 16.9091C21.5196 17.0891 21.6996 17.2991 21.8096 17.5491C21.9096 17.7991 21.9696 18.0491 21.9696 18.3291Z" fill="#292D32"/>
</svg>
