<svg viewBox="0 0 24 24" fill="none" xmlns="http://www.w3.org/2000/svg">
<path fill-rule="evenodd" clip-rule="evenodd" d="M20.6809 2.22988C20.9809 1.92988 21.4709 1.92988 21.7709 2.22988C22.0809 2.52988 22.0809 3.00988 21.7709 3.30988L3.31086 21.7699C3.16086 21.9199 2.97086 21.9999 2.77086 21.9999C2.57086 21.9999 2.38086 21.9199 2.23086 21.7799C1.93086 21.4799 1.93086 20.9899 2.23086 20.6899L8.66783 14.2494C8.88543 12.7903 10.0397 11.6355 11.4986 11.4171L20.6809 2.22988ZM6.5 10.75H9.5C9.91 10.75 10.25 10.41 10.25 10C10.25 9.59 9.91 9.25 9.5 9.25H6.5C6.09 9.25 5.75 9.59 5.75 10C5.75 10.41 6.09 10.75 6.5 10.75ZM12 18.12C13.86 18.12 15.38 16.61 15.38 14.75C15.38 13.88 15.05 13.09 14.5 12.5L9.75 17.25C10.34 17.79 11.13 18.12 12 18.12Z" fill="#292D32"/>
<path opacity="0.4" fill-rule="evenodd" clip-rule="evenodd" d="M3.48017 20.52L18.0002 6C17.3902 6 16.8302 5.65 16.5502 5.11L15.8302 3.66C15.3702 2.75 14.1702 2 13.1502 2H10.8602C9.83017 2 8.63017 2.75 8.17017 3.66L7.45017 5.11C7.17017 5.65 6.61017 6 6.00017 6C3.83017 6 2.11017 7.83 2.25017 9.99L2.77017 18.25C2.82017 19.1 3.03017 19.89 3.48017 20.52ZM21.2307 18.25L21.7507 9.99C21.8407 8.67 21.2307 7.48 20.2507 6.75L5.2207 21.78C5.6607 21.92 6.1707 22 6.7607 22H17.2407C20.0007 22 21.1007 20.31 21.2307 18.25Z" fill="#292D32"/>
</svg>
