<svg viewBox="0 0 24 24" fill="none" xmlns="http://www.w3.org/2000/svg">
<path fill-rule="evenodd" clip-rule="evenodd" d="M16.5502 5.11L15.8302 3.66C15.3702 2.75 14.1702 2 13.1502 2H10.8602C9.83017 2 8.63017 2.75 8.17017 3.66L7.45017 5.11C7.17017 5.65 6.61017 6 6.00017 6C3.83017 6 2.11017 7.83 2.25017 9.99L2.77017 18.25C2.80301 18.8083 2.90488 19.3407 3.09844 19.8189L2.22891 20.6889C1.92891 20.9889 1.92891 21.4789 2.22891 21.7789C2.37891 21.9189 2.56891 21.9989 2.76891 21.9989C2.96891 21.9989 3.15891 21.9189 3.30891 21.7689L21.7689 3.30891C22.0789 3.00891 22.0789 2.52891 21.7689 2.22891C21.4689 1.92891 20.9789 1.92891 20.6789 2.22891L17.1519 5.75781C16.9004 5.6028 16.6903 5.38018 16.5502 5.11ZM9.50017 10.75H6.50017C6.09017 10.75 5.75017 10.41 5.75017 10C5.75017 9.59 6.09017 9.25 6.50017 9.25H9.50017C9.91017 9.25 10.2502 9.59 10.2502 10C10.2502 10.41 9.91017 10.75 9.50017 10.75ZM21.4725 18.2483L21.9925 9.98835C22.0525 9.06835 21.7824 8.20835 21.2625 7.52835C20.9124 7.05835 20.2225 7.00835 19.8125 7.41835L15.3124 11.9183C14.9924 12.2283 14.9624 12.7183 15.1824 13.1083C15.5624 13.7783 15.7125 14.5883 15.5424 15.4483C15.2924 16.7283 14.2624 17.7683 12.9924 18.0383C12.1124 18.2283 11.2824 18.0784 10.5924 17.6883C10.2024 17.4683 9.72245 17.5083 9.41245 17.8183L6.94245 20.2883C6.31245 20.9184 6.76245 21.9983 7.65245 21.9983H17.4824C20.2425 21.9983 21.3424 20.3083 21.4725 18.2483Z" fill="#292D32"/>
</svg>
