<svg viewBox="0 0 24 24" fill="none" xmlns="http://www.w3.org/2000/svg">
<path fill-rule="evenodd" clip-rule="evenodd" d="M19.9874 7.25011L19.6094 5.44008C19.2394 3.70008 18.4894 2.08008 15.5194 2.08008H8.48937C5.51937 2.08008 4.76937 3.69008 4.39937 5.44008L4.02057 7.25029L4 7.25H3C2.59 7.25 2.25 7.59 2.25 8C2.25 8.41 2.59 8.75 3 8.75H3.70674L3.29053 10.739C2.15534 11.3768 1.92109 12.5436 1.8196 13.66L1.2596 19.75C1.1896 20.51 1.4396 21.27 1.9596 21.84C2.4896 22.42 3.2496 22.75 4.0396 22.75H5.9196C7.52819 22.75 7.83531 21.8429 8.04515 21.2231L8.0496 21.21L8.2496 20.61C8.4796 19.92 8.5396 19.75 9.4396 19.75H14.5596C15.4554 19.75 15.4893 19.8491 15.746 20.5994L15.7496 20.61L15.9496 21.21C16.1496 21.82 16.4596 22.75 18.0796 22.75H19.9596C20.7496 22.75 21.5096 22.42 22.0396 21.84C22.5596 21.27 22.8096 20.51 22.7396 19.75L22.1796 13.66C22.0717 12.5472 21.841 11.3843 20.7174 10.7451L20.3007 8.75H21C21.41 8.75 21.75 8.41 21.75 8C21.75 7.59 21.41 7.25 21 7.25H20L19.9874 7.25011ZM18.4166 10.2501H19.0694L18.1294 5.75008C17.8494 4.44008 17.5194 3.58008 15.5094 3.58008H12.75V4.25H13.5C13.91 4.25 14.25 4.59 14.25 5C14.25 5.41 13.91 5.75 13.5 5.75H12H10.5C10.09 5.75 9.75 5.41 9.75 5C9.75 4.59 10.09 4.25 10.5 4.25H11.25V3.58008H8.48937C6.47937 3.58008 6.14937 4.44008 5.86937 5.75008L4.91937 10.2501H5.58263L5.6196 10.25H18.3796L18.4166 10.2501ZM17.1696 20.12C16.8096 19.06 16.3796 18.25 14.5596 18.25H9.4396C7.4596 18.25 7.0896 19.34 6.8396 20.14L6.6396 20.75L6.63643 20.7593C6.46958 21.2501 6.46622 21.26 5.9296 21.26H4.0496C3.6796 21.26 3.3196 21.11 3.0796 20.84C2.8396 20.58 2.7296 20.25 2.7596 19.9L3.3196 13.81C3.4396 12.46 3.5996 11.76 5.6196 11.76H18.3996C20.4096 11.76 20.5696 12.46 20.6996 13.81L21.2596 19.9C21.2896 20.25 21.1796 20.58 20.9396 20.84C20.6896 21.11 20.3396 21.26 19.9696 21.26H18.0896C17.5529 21.26 17.5496 21.2501 17.3827 20.7493L17.3796 20.74L17.1696 20.12ZM9 15.75H6C5.59 15.75 5.25 15.41 5.25 15C5.25 14.59 5.59 14.25 6 14.25H9C9.41 14.25 9.75 14.59 9.75 15C9.75 15.41 9.41 15.75 9 15.75ZM15 15.75H18C18.41 15.75 18.75 15.41 18.75 15C18.75 14.59 18.41 14.25 18 14.25H15C14.59 14.25 14.25 14.59 14.25 15C14.25 15.41 14.59 15.75 15 15.75Z" fill="#292D32"/>
</svg>
