<svg viewBox="0 0 24 24" fill="none" xmlns="http://www.w3.org/2000/svg">
<path fill-rule="evenodd" clip-rule="evenodd" d="M21 7.25008H20H19.98L19.6 5.44008C19.24 3.69008 18.49 2.08008 15.51 2.08008H12.75H11.25H8.49C5.51 2.08008 4.76 3.69008 4.4 5.44008L4.02 7.25008H4H3C2.59 7.25008 2.25 7.59008 2.25 8.00008C2.25 8.41008 2.59 8.75008 3 8.75008H3.71L3.29 10.7501C3.83 10.4401 4.58 10.2501 5.62 10.2501H18.38C19.42 10.2501 20.17 10.4401 20.71 10.7501L20.29 8.75008H21C21.41 8.75008 21.75 8.41008 21.75 8.00008C21.75 7.59008 21.41 7.25008 21 7.25008ZM9 15.75H6C5.59 15.75 5.25 15.41 5.25 15C5.25 14.59 5.59 14.25 6 14.25H9C9.41 14.25 9.75 14.59 9.75 15C9.75 15.41 9.41 15.75 9 15.75ZM15 15.75H18C18.41 15.75 18.75 15.41 18.75 15C18.75 14.59 18.41 14.25 18 14.25H15C14.59 14.25 14.25 14.59 14.25 15C14.25 15.41 14.59 15.75 15 15.75Z" fill="#292D32"/>
<path opacity="0.4" d="M22.1796 13.66C22.0296 12.01 21.5896 10.25 18.3796 10.25H5.6196C2.4096 10.25 1.9796 12.01 1.8196 13.66L1.2596 19.75C1.1896 20.51 1.4396 21.27 1.9596 21.84C2.4896 22.42 3.2396 22.75 4.0396 22.75H5.9196C7.5396 22.75 7.8496 21.82 8.0496 21.21L8.2496 20.61C8.4796 19.92 8.5396 19.75 9.4396 19.75H14.5596C15.4596 19.75 15.4896 19.85 15.7496 20.61L15.9496 21.21C16.1496 21.82 16.4596 22.75 18.0796 22.75H19.9596C20.7496 22.75 21.5096 22.42 22.0396 21.84C22.5596 21.27 22.8096 20.51 22.7396 19.75L22.1796 13.66Z" fill="#292D32"/>
</svg>
