<svg viewBox="0 0 24 24" fill="none" xmlns="http://www.w3.org/2000/svg">
<path fill-rule="evenodd" clip-rule="evenodd" d="M21 8.74813C21.41 8.74813 21.75 8.40812 21.75 7.99813C21.75 7.58813 21.41 7.24813 21 7.24813H19.98L19.6 5.43813C19.24 3.68813 18.49 2.07812 15.51 2.07812H8.49C5.51 2.07812 4.76 3.68813 4.4 5.43813L4.02 7.24813H3C2.59 7.24813 2.25 7.58813 2.25 7.99813C2.25 8.40812 2.59 8.74813 3 8.74813H21ZM18.3815 10.25C21.5915 10.25 22.0316 12.01 22.1816 13.66L22.7416 19.75C22.8116 20.51 22.5616 21.27 22.0416 21.84C21.5116 22.42 20.7516 22.75 19.9615 22.75H18.0816C16.4616 22.75 16.1516 21.82 15.9516 21.21L15.7516 20.61L15.7479 20.5994C15.4913 19.8491 15.4574 19.75 14.5616 19.75H9.44155C8.54155 19.75 8.48155 19.92 8.25155 20.61L8.05155 21.21C7.85155 21.82 7.54155 22.75 5.92155 22.75H4.04155C3.24155 22.75 2.49155 22.42 1.96155 21.84C1.44155 21.27 1.19155 20.51 1.26155 19.75L1.82155 13.66C1.98155 12.01 2.41155 10.25 5.62155 10.25H18.3815ZM6.00155 15.75H9.00155C9.41155 15.75 9.75155 15.41 9.75155 15C9.75155 14.59 9.41155 14.25 9.00155 14.25H6.00155C5.59155 14.25 5.25155 14.59 5.25155 15C5.25155 15.41 5.59155 15.75 6.00155 15.75ZM15.0016 15.75H18.0016C18.4116 15.75 18.7516 15.41 18.7516 15C18.7516 14.59 18.4116 14.25 18.0016 14.25H15.0016C14.5916 14.25 14.2516 14.59 14.2516 15C14.2516 15.41 14.5916 15.75 15.0016 15.75Z" fill="#292D32"/>
</svg>
