<svg viewBox="0 0 24 24" fill="none" xmlns="http://www.w3.org/2000/svg">
<path fill-rule="evenodd" clip-rule="evenodd" d="M8.24931 21.25C8.15127 21.1576 8.05183 21.0609 7.95089 20.9599L3.43311 16.4421C3.42158 16.4319 3.41025 16.4212 3.39914 16.4101C3.3884 16.3994 3.37806 16.3884 3.36812 16.3771L3.04089 16.0499C0.650891 13.6599 0.660891 12.1199 3.07089 9.70991L9.71089 3.06991C12.1209 0.659914 13.6609 0.649914 16.0509 3.03991L20.9609 7.94991C23.3509 10.3399 23.3409 11.8799 20.9309 14.2899L14.2909 20.9299C14.1791 21.0417 14.0691 21.1484 13.9609 21.25H22C22.41 21.25 22.75 21.59 22.75 22C22.75 22.41 22.41 22.75 22 22.75H2C1.59 22.75 1.25 22.41 1.25 22C1.25 21.59 1.59 21.25 2 21.25H8.24931ZM9.01089 19.8999L4.99489 15.8839L15.8803 4.98936L19.9009 9.00991C20.8509 9.95991 21.2509 10.5899 21.2509 11.1099C21.2509 11.6199 20.8209 12.2799 19.8709 13.2299L13.2309 19.8699C12.2809 20.8199 11.6309 21.2499 11.1109 21.2499H11.1009C10.5809 21.2499 9.96089 20.8499 9.01089 19.8999ZM14.8197 3.9296L3.93144 14.8178C3.10309 13.9627 2.75089 13.3779 2.75089 12.8899C2.75089 12.3799 3.18089 11.7199 4.13089 10.7699L10.7709 4.12991C11.7209 3.17991 12.3809 2.74991 12.9009 2.74991C13.3887 2.74991 13.9732 3.10187 14.8197 3.9296ZM11.0991 19.03C10.9091 19.03 10.7191 18.96 10.5691 18.81C10.2791 18.52 10.2791 18.04 10.5691 17.75L11.7691 16.55C12.0591 16.26 12.5391 16.26 12.8291 16.55C13.1191 16.84 13.1191 17.32 12.8291 17.61L11.6291 18.81C11.4891 18.95 11.2991 19.03 11.0991 19.03ZM13.2605 16.1201C13.4105 16.2701 13.6005 16.3401 13.7905 16.3401C13.9805 16.3401 14.1805 16.2601 14.3205 16.1201L16.7105 13.7301C17.0005 13.4401 17.0005 12.9601 16.7105 12.6701C16.4205 12.3801 15.9405 12.3801 15.6505 12.6701L13.2605 15.0601C12.9705 15.3501 12.9705 15.8301 13.2605 16.1201Z" fill="#292D32"/>
</svg>
