<svg viewBox="0 0 24 24" fill="none" xmlns="http://www.w3.org/2000/svg">
<path fill-rule="evenodd" clip-rule="evenodd" d="M11.5502 21.2498H6.44025C2.46025 21.2498 1.24023 20.0498 1.24023 16.1098V7.88977C1.24023 4.73977 1.91022 2.98977 5.48022 2.77977C5.78022 2.76977 6.10025 2.75977 6.44025 2.75977H17.5502C21.5302 2.75977 22.7502 3.95976 22.7502 7.89977V12.3098C22.7502 12.7198 22.4102 13.0598 22.0002 13.0598C21.5902 13.0598 21.2502 12.7198 21.2502 12.3098V10.75H2.74023V16.1198C2.74023 19.2098 3.29025 19.7598 6.44025 19.7598H11.5502C11.9602 19.7598 12.3002 20.0998 12.3002 20.5098C12.3002 20.9198 11.9702 21.2498 11.5502 21.2498ZM2.74023 9.25H21.2502V7.89977C21.2502 4.80976 20.7002 4.25977 17.5502 4.25977H6.44025C6.12025 4.25977 5.83023 4.26977 5.55023 4.27977C3.38023 4.40977 2.74023 4.89977 2.74023 7.89977V9.25ZM6 16.75H10C10.41 16.75 10.75 16.41 10.75 16C10.75 15.59 10.41 15.25 10 15.25H6C5.59 15.25 5.25 15.59 5.25 16C5.25 16.41 5.59 16.75 6 16.75ZM18 22.75C16.34 22.75 14.78 21.87 13.94 20.44C13.49 19.72 13.25 18.87 13.25 18C13.25 15.38 15.38 13.25 18 13.25C20.62 13.25 22.75 15.38 22.75 18C22.75 18.87 22.51 19.72 22.06 20.45C21.22 21.87 19.66 22.75 18 22.75ZM18 14.75C16.21 14.75 14.75 16.21 14.75 18C14.75 18.59 14.91 19.17 15.22 19.67C15.8 20.65 16.87 21.25 18 21.25C19.13 21.25 20.2 20.65 20.78 19.68C21.09 19.17 21.25 18.6 21.25 18C21.25 16.21 19.79 14.75 18 14.75ZM16.899 19.5201C17.049 19.6701 17.2389 19.7401 17.4289 19.7401C17.6089 19.7401 17.7889 19.67 17.9389 19.54L20.0689 17.5701C20.3689 17.2901 20.3889 16.8101 20.1089 16.51C19.8289 16.2101 19.3489 16.1901 19.0489 16.4701L17.4489 17.9501L16.9689 17.4701C16.6789 17.1801 16.1989 17.1801 15.9089 17.4701C15.6189 17.7601 15.6189 18.2401 15.9089 18.5301L16.899 19.5201Z" fill="#292D32"/>
</svg>
