<svg viewBox="0 0 24 24" fill="none" xmlns="http://www.w3.org/2000/svg">
<path fill-rule="evenodd" clip-rule="evenodd" d="M17.56 21.25H6.44C2.46 21.25 1.25 20.05 1.25 16.11V8.5V7.89C1.25 3.95 2.46 2.75 6.44 2.75H13.5C13.91 2.75 14.25 3.09 14.25 3.5C14.25 3.91 13.91 4.25 13.5 4.25H6.44C3.34787 4.25 2.76737 4.77366 2.75039 7.75H13.5C13.91 7.75 14.25 8.09 14.25 8.5C14.25 8.91 13.91 9.25 13.5 9.25H2.75V16.1C2.75 19.2 3.3 19.74 6.44 19.74H17.55C20.69 19.74 21.24 19.2 21.24 16.1V11.02C21.24 10.61 21.58 10.27 21.99 10.27C22.4 10.27 22.74 10.61 22.74 11.02V16.1C22.75 20.05 21.54 21.25 17.56 21.25ZM8 17.25H6C5.59 17.25 5.25 16.91 5.25 16.5C5.25 16.09 5.59 15.75 6 15.75H8C8.41 15.75 8.75 16.09 8.75 16.5C8.75 16.91 8.41 17.25 8 17.25ZM10.5 17.25H14.5C14.91 17.25 15.25 16.91 15.25 16.5C15.25 16.09 14.91 15.75 14.5 15.75H10.5C10.09 15.75 9.75 16.09 9.75 16.5C9.75 16.91 10.09 17.25 10.5 17.25ZM17.4695 8.02994C17.6195 8.17994 17.8095 8.24994 17.9995 8.24994C18.1895 8.24994 18.3795 8.17994 18.5295 8.02994L22.5295 4.02994C22.8195 3.73994 22.8195 3.25994 22.5295 2.96994C22.2395 2.67994 21.7595 2.67994 21.4695 2.96994L17.9995 6.43994L17.0295 5.46994C16.7395 5.17994 16.2595 5.17994 15.9695 5.46994C15.6795 5.75994 15.6795 6.23994 15.9695 6.52994L17.4695 8.02994Z" fill="#292D32"/>
</svg>
