<svg viewBox="0 0 24 24" fill="none" xmlns="http://www.w3.org/2000/svg">
<path fill-rule="evenodd" clip-rule="evenodd" d="M17.03 2H19.97C21.24 2 22 2.76 22 4.03V6.97C22 8.24 21.24 9 19.97 9H17.03C15.76 9 15 8.24 15 6.97V4.03C15 2.76 15.76 2 17.03 2ZM18.26 7.22L20.63 4.45C20.81 4.24 20.79 3.91 20.56 3.73C20.34 3.55 20.02 3.57 19.83 3.79L17.83 6.13L17.13 5.44C16.93 5.23 16.6 5.24 16.4 5.44C16.2 5.64 16.2 5.97 16.4 6.17L17.5 7.25C17.6 7.35 17.73 7.4 17.87 7.4H17.89C18.03 7.4 18.17 7.33 18.26 7.22ZM13.5 4.60844V7.53844C13.5 8.20844 12.96 8.74844 12.29 8.74844H3.21C2.53 8.74844 2 8.18844 2 7.51844C2.01 6.38844 2.46 5.35844 3.21 4.60844C3.96 3.85844 5 3.39844 6.14 3.39844H12.29C12.96 3.39844 13.5 3.93844 13.5 4.60844ZM2 11.46V16.46C2 18.75 3.85 20.6 6.14 20.6H17.85C20.14 20.6 22 18.74 22 16.45V11.46C22 10.79 21.46 10.25 20.79 10.25H3.21C2.54 10.25 2 10.79 2 11.46ZM8 17.25H6C5.59 17.25 5.25 16.91 5.25 16.5C5.25 16.09 5.59 15.75 6 15.75H8C8.41 15.75 8.75 16.09 8.75 16.5C8.75 16.91 8.41 17.25 8 17.25ZM14.5 17.25H10.5C10.09 17.25 9.75 16.91 9.75 16.5C9.75 16.09 10.09 15.75 10.5 15.75H14.5C14.91 15.75 15.25 16.09 15.25 16.5C15.25 16.91 14.91 17.25 14.5 17.25Z" fill="#292D32"/>
</svg>
