<svg viewBox="0 0 24 24" fill="none" xmlns="http://www.w3.org/2000/svg">
<path fill-rule="evenodd" clip-rule="evenodd" d="M18.03 1H20.97C22.24 1 23 1.76 23 3.03V5.97C23 7.24 22.24 8 20.97 8H18.03C16.76 8 16 7.24 16 5.97V3.03C16 1.76 16.76 1 18.03 1ZM21.51 5.93C21.51 5.76 21.45 5.62 21.34 5.49L20.36 4.52L21.36 3.52C21.46 3.4 21.52 3.24 21.52 3.1C21.51 2.94 21.46 2.79 21.35 2.66C21.12 2.43 20.73 2.43 20.5 2.66L19.5 3.66L18.52 2.67C18.28 2.43 17.89 2.42 17.66 2.66C17.43 2.9 17.44 3.29 17.67 3.52L18.66 4.51L17.66 5.49C17.43 5.72 17.43 6.11 17.66 6.34C17.9 6.58 18.29 6.58 18.52 6.35L19.5 5.35L20.49 6.34C20.72 6.57 21.11 6.57 21.34 6.34C21.45 6.23 21.51 6.07 21.51 5.93ZM2 16.46V9H22V16.46C22 18.75 20.14 20.6 17.85 20.6H6.15C3.86 20.6 2 18.75 2 16.46ZM6 17.25H8C8.41 17.25 8.75 16.91 8.75 16.5C8.75 16.09 8.41 15.75 8 15.75H6C5.59 15.75 5.25 16.09 5.25 16.5C5.25 16.91 5.59 17.25 6 17.25ZM10.5 17.25H14.5C14.91 17.25 15.25 16.91 15.25 16.5C15.25 16.09 14.91 15.75 14.5 15.75H10.5C10.09 15.75 9.75 16.09 9.75 16.5C9.75 16.91 10.09 17.25 10.5 17.25Z" fill="#292D32"/>
<path opacity="0.4" d="M22 7.7699V8.9999H2V7.5399C2 5.2499 3.86 3.3999 6.15 3.3999H16V5.9699C16 7.2399 16.76 7.9999 18.03 7.9999H20.97C21.37 7.9999 21.71 7.9299 22 7.7699Z" fill="#292D32"/>
</svg>
