<svg viewBox="0 0 24 24" fill="none" xmlns="http://www.w3.org/2000/svg">
<path fill-rule="evenodd" clip-rule="evenodd" d="M22 13.72V6.73C22 3.75 21.24 3 18.22 3H8.78003C5.81003 3 5.03 3.72 5 6.57C5.24 6.56 5.50003 6.55 5.78003 6.55H15.22C18.24 6.55 19 7.3 19 10.28V11.8599H2V13.3599H19V17.43C21.37 17.29 22 16.42 22 13.72ZM5.24023 18.5601H6.96027C7.38027 18.5601 7.71027 18.2201 7.71027 17.8101C7.71027 17.4001 7.37027 17.0601 6.96027 17.0601H5.24023C4.83023 17.0601 4.49023 17.4001 4.49023 17.8101C4.49023 18.2201 4.83023 18.5601 5.24023 18.5601ZM12.5494 18.5601H9.10938C8.69938 18.5601 8.35938 18.2201 8.35938 17.8101C8.35938 17.4001 8.69938 17.0601 9.10938 17.0601H12.5494C12.9594 17.0601 13.2994 17.4001 13.2994 17.8101C13.2994 18.2201 12.9694 18.5601 12.5494 18.5601Z" fill="#292D32"/>
<path opacity="0.4" d="M19 10.2798V17.4298C18.97 20.2798 18.19 20.9998 15.22 20.9998H5.78003C2.76003 20.9998 2 20.2498 2 17.2698V10.2798C2 7.5798 2.63 6.7098 5 6.5698C5.24 6.5598 5.50003 6.5498 5.78003 6.5498H15.22C18.24 6.5498 19 7.2998 19 10.2798Z" fill="#292D32"/>
</svg>
