<svg viewBox="0 0 24 24" fill="none" xmlns="http://www.w3.org/2000/svg">
<path fill-rule="evenodd" clip-rule="evenodd" d="M20.6809 2.22988C20.9809 1.92988 21.4709 1.92988 21.7709 2.22988C22.0809 2.52988 22.0809 3.00988 21.7709 3.30988L3.31086 21.7699C3.16086 21.9199 2.97086 21.9999 2.77086 21.9999C2.57086 21.9999 2.38086 21.9199 2.23086 21.7799C1.93086 21.4799 1.93086 20.9899 2.23086 20.6899L5.72293 17.1959C5.44748 17.0843 5.25 16.8125 5.25 16.5C5.25 16.09 5.59 15.75 6 15.75H7.16807L13.9145 8.9999H2V7.5399C2 5.2499 3.86 3.3999 6.15 3.3999H17.85C18.3485 3.3999 18.8232 3.48751 19.2639 3.64765L20.6809 2.22988ZM22 7.53978V8.99978H18L21.47 5.52979C21.81 6.11979 22 6.80978 22 7.53978ZM15.2507 16.5C15.2507 16.91 14.9107 17.25 14.5007 17.25H10.5007C10.3007 17.25 10.1107 17.16 9.9707 17.03L11.2507 15.75H14.5007C14.9107 15.75 15.2507 16.09 15.2507 16.5Z" fill="#292D32"/>
<path opacity="0.4" fill-rule="evenodd" clip-rule="evenodd" d="M4 20L15 9H2V16.46C2 17.96 2.8 19.28 4 20ZM22.0004 16.46V9H18.0004L11.2504 15.75L9.97039 17.03L6.40039 20.6H17.8504C20.1404 20.6 22.0004 18.75 22.0004 16.46Z" fill="#292D32"/>
</svg>
