<svg viewBox="0 0 24 24" fill="none" xmlns="http://www.w3.org/2000/svg">
<path fill-rule="evenodd" clip-rule="evenodd" d="M17.03 8.73828C15.76 8.73828 15 7.97828 15 6.70828V3.76828C15 2.49828 15.76 1.73828 17.03 1.73828H19.97C21.24 1.73828 22 2.49828 22 3.76828V6.70828C22 7.97828 21.24 8.73828 19.97 8.73828H17.03ZM20.19 5.42828C20.07 5.30828 19.91 5.24828 19.75 5.24828C19.59 5.24828 19.43 5.30828 19.31 5.42828L19.13 5.60828V3.36828C19.13 3.01828 18.85 2.73828 18.5 2.73828C18.15 2.73828 17.87 3.01828 17.87 3.36828V5.60828L17.69 5.42828C17.45 5.18828 17.05 5.18828 16.81 5.42828C16.57 5.66828 16.57 6.06828 16.81 6.30828L18.06 7.55828C18.11 7.60828 18.18 7.64828 18.25 7.67828C18.26 7.68328 18.27 7.68578 18.28 7.68828C18.29 7.69078 18.3 7.69328 18.31 7.69828C18.36 7.71828 18.41 7.72828 18.47 7.72828H18.53C18.6 7.72828 18.66 7.71828 18.73 7.68828H18.75C18.82 7.65828 18.88 7.61828 18.93 7.56828C18.94 7.55828 18.94 7.55828 18.95 7.55828L20.2 6.30828C20.44 6.06828 20.44 5.66828 20.19 5.42828ZM2 11.4614V16.4614C2 18.7514 3.85 20.6014 6.14 20.6014H17.85C20.14 20.6014 22 18.7414 22 16.4514V11.4614C22 10.7914 21.46 10.2514 20.79 10.2514H3.21C2.54 10.2514 2 10.7914 2 11.4614ZM8 17.2514H6C5.59 17.2514 5.25 16.9114 5.25 16.5014C5.25 16.0914 5.59 15.7514 6 15.7514H8C8.41 15.7514 8.75 16.0914 8.75 16.5014C8.75 16.9114 8.41 17.2514 8 17.2514ZM14.5 17.2514H10.5C10.09 17.2514 9.75 16.9114 9.75 16.5014C9.75 16.0914 10.09 15.7514 10.5 15.7514H14.5C14.91 15.7514 15.25 16.0914 15.25 16.5014C15.25 16.9114 14.91 17.2514 14.5 17.2514ZM13.5 7.53756V4.60756C13.5 3.93756 12.96 3.39756 12.29 3.39756H6.14C5 3.39756 3.96 3.85756 3.21 4.60756C2.46 5.35756 2.01 6.38756 2 7.51756C2 8.18756 2.53 8.74756 3.21 8.74756H12.29C12.96 8.74756 13.5 8.20756 13.5 7.53756Z" fill="#292D32"/>
</svg>
