<svg viewBox="0 0 24 24" fill="none" xmlns="http://www.w3.org/2000/svg">
<path fill-rule="evenodd" clip-rule="evenodd" d="M6.44 21.25H17.56C21.54 21.25 22.75 20.05 22.74 16.1V8.62105C22.7466 8.58159 22.75 8.54115 22.75 8.5C22.75 8.45885 22.7466 8.41841 22.74 8.37895V7.89C22.74 3.95 21.53 2.75 17.55 2.75H6.44C2.46 2.75 1.25 3.95 1.25 7.89V8.5V16.11C1.25 20.05 2.46 21.25 6.44 21.25ZM2.75039 7.75C2.76737 4.77366 3.34787 4.25 6.44 4.25H17.55C20.6421 4.25 21.2226 4.77366 21.2396 7.75H2.75039ZM2.75 9.25H21.24V16.1C21.24 19.2 20.69 19.74 17.55 19.74H6.44C3.3 19.74 2.75 19.2 2.75 16.1V9.25ZM6 17.25H8C8.41 17.25 8.75 16.91 8.75 16.5C8.75 16.09 8.41 15.75 8 15.75H6C5.59 15.75 5.25 16.09 5.25 16.5C5.25 16.91 5.59 17.25 6 17.25ZM14.5 17.25H10.5C10.09 17.25 9.75 16.91 9.75 16.5C9.75 16.09 10.09 15.75 10.5 15.75H14.5C14.91 15.75 15.25 16.09 15.25 16.5C15.25 16.91 14.91 17.25 14.5 17.25Z" fill="#292D32"/>
</svg>
