<svg viewBox="0 0 24 24" fill="none" xmlns="http://www.w3.org/2000/svg">
<path fill-rule="evenodd" clip-rule="evenodd" d="M18.03 1H20.97C22.24 1 23 1.76 23 3.03V5.97C23 7.24 22.24 8 20.97 8H18.03C16.76 8 16 7.24 16 5.97V3.03C16 1.76 16.76 1 18.03 1ZM21.5 5.11C21.66 5.1 21.81 5.03 21.91 4.93C22.02 4.81 22.09 4.67 22.1 4.5C22.1 4.17 21.83 3.9 21.5 3.9H20.09L20.1 2.51C20.1 2.18 19.83 1.9 19.5 1.9C19.17 1.9 18.9 2.18 18.9 2.51V3.91L17.5 3.9C17.17 3.9 16.9 4.17 16.9 4.5C16.9 4.83 17.17 5.11 17.5 5.11L18.9 5.1V6.5C18.9 6.83 19.17 7.1 19.5 7.1C19.66 7.1 19.81 7.03 19.91 6.93C20.03 6.81 20.09 6.67 20.1 6.5L20.09 5.11H21.5ZM2 16.46V9H22V16.46C22 18.75 20.14 20.6 17.85 20.6H6.15C3.86 20.6 2 18.75 2 16.46ZM6 17.25H8C8.41 17.25 8.75 16.91 8.75 16.5C8.75 16.09 8.41 15.75 8 15.75H6C5.59 15.75 5.25 16.09 5.25 16.5C5.25 16.91 5.59 17.25 6 17.25ZM10.5 17.25H14.5C14.91 17.25 15.25 16.91 15.25 16.5C15.25 16.09 14.91 15.75 14.5 15.75H10.5C10.09 15.75 9.75 16.09 9.75 16.5C9.75 16.91 10.09 17.25 10.5 17.25Z" fill="#292D32"/>
<path opacity="0.4" d="M22 7.7699V8.9999H2V7.5399C2 5.2499 3.86 3.3999 6.15 3.3999H16V5.9699C16 7.2399 16.76 7.9999 18.03 7.9999H20.97C21.37 7.9999 21.71 7.9299 22 7.7699Z" fill="#292D32"/>
</svg>
