<svg viewBox="0 0 24 24" fill="none" xmlns="http://www.w3.org/2000/svg">
<path fill-rule="evenodd" clip-rule="evenodd" d="M22 7.54844V7.99844C22 8.54844 21.55 8.99844 21 8.99844H3C2.45 8.99844 2 8.54844 2 7.99844V7.53844C2 5.24844 3.85 3.39844 6.14 3.39844H17.85C20.14 3.39844 22 5.25844 22 7.54844ZM19 15C16.79 15 15 16.79 15 19C15 19.75 15.21 20.46 15.58 21.06C16.27 22.22 17.54 23 19 23C20.46 23 21.73 22.22 22.42 21.06C22.79 20.46 23 19.75 23 19C23 16.79 21.21 15 19 15ZM21.07 18.57L18.94 20.54C18.8 20.67 18.61 20.74 18.43 20.74C18.24 20.74 18.05 20.67 17.9 20.52L16.91 19.53C16.62 19.24 16.62 18.76 16.91 18.47C17.2 18.18 17.68 18.18 17.97 18.47L18.45 18.95L20.05 17.47C20.35 17.19 20.83 17.21 21.11 17.51C21.39 17.81 21.37 18.28 21.07 18.57ZM2 16.4583V11.4983C2 10.9483 2.45 10.4983 3 10.4883H21C21.55 10.4883 22 10.9383 22 11.4883V12.8783C22 13.5683 21.32 14.0383 20.67 13.8183C19.6 13.4583 18.39 13.4083 17.14 13.8083C16.39 14.0483 15.7 14.4683 15.14 15.0183C13.78 16.3383 13.29 17.9983 13.43 19.5283C13.48 20.1083 12.98 20.5983 12.4 20.5983H6.14C3.85 20.5983 2 18.7483 2 16.4583ZM6 17.2483H8C8.41 17.2483 8.75 16.9083 8.75 16.4983C8.75 16.0883 8.41 15.7483 8 15.7483H6C5.59 15.7483 5.25 16.0883 5.25 16.4983C5.25 16.9083 5.59 17.2483 6 17.2483Z" fill="#292D32"/>
</svg>
