<svg viewBox="0 0 24 24" fill="none" xmlns="http://www.w3.org/2000/svg">
<path fill-rule="evenodd" clip-rule="evenodd" d="M17.03 2H19.97C21.24 2 22 2.76 22 4.03V6.97C22 8.24 21.24 9 19.97 9H17.03C15.76 9 15 8.24 15 6.97V4.03C15 2.76 15.76 2 17.03 2ZM20.5 6.11C20.66 6.1 20.81 6.03 20.91 5.93C21.02 5.81 21.09 5.67 21.1 5.5C21.1 5.17 20.83 4.9 20.5 4.9H19.09L19.1 3.51C19.1 3.18 18.83 2.9 18.5 2.9C18.17 2.9 17.9 3.18 17.9 3.51V4.91L16.5 4.9C16.17 4.9 15.9 5.17 15.9 5.5C15.9 5.83 16.17 6.11 16.5 6.11L17.9 6.1V7.5C17.9 7.83 18.17 8.1 18.5 8.1C18.66 8.1 18.81 8.03 18.91 7.93C19.03 7.81 19.09 7.67 19.1 7.5L19.09 6.11H20.5ZM13.5 4.60844V7.53844C13.5 8.20844 12.96 8.74844 12.29 8.74844H3.21C2.53 8.74844 2 8.18844 2 7.51844C2.01 6.38844 2.46 5.35844 3.21 4.60844C3.96 3.85844 5 3.39844 6.14 3.39844H12.29C12.96 3.39844 13.5 3.93844 13.5 4.60844ZM2 11.46V16.46C2 18.75 3.85 20.6 6.14 20.6H17.85C20.14 20.6 22 18.74 22 16.45V11.46C22 10.79 21.46 10.25 20.79 10.25H3.21C2.54 10.25 2 10.79 2 11.46ZM8 17.25H6C5.59 17.25 5.25 16.91 5.25 16.5C5.25 16.09 5.59 15.75 6 15.75H8C8.41 15.75 8.75 16.09 8.75 16.5C8.75 16.91 8.41 17.25 8 17.25ZM14.5 17.25H10.5C10.09 17.25 9.75 16.91 9.75 16.5C9.75 16.09 10.09 15.75 10.5 15.75H14.5C14.91 15.75 15.25 16.09 15.25 16.5C15.25 16.91 14.91 17.25 14.5 17.25Z" fill="#292D32"/>
</svg>
