<svg viewBox="0 0 24 24" fill="none" xmlns="http://www.w3.org/2000/svg">
<path fill-rule="evenodd" clip-rule="evenodd" d="M22 7.54844V7.99844C22 8.54844 21.55 8.99844 21 8.99844H3C2.45 8.99844 2 8.54844 2 7.99844V7.53844C2 5.24844 3.85 3.39844 6.14 3.39844H17.85C20.14 3.39844 22 5.25844 22 7.54844ZM18.8984 15.0312C16.6884 15.0312 14.8984 16.8213 14.8984 19.0312C14.8984 21.2413 16.6884 23.0312 18.8984 23.0312C21.1084 23.0312 22.8984 21.2413 22.8984 19.0312C22.8984 16.8213 21.1084 15.0312 18.8984 15.0312ZM20.4984 20.6813C20.3484 20.8313 20.1584 20.9012 19.9684 20.9012C19.7784 20.9012 19.5884 20.8313 19.4384 20.6813L18.9084 20.1512L18.3584 20.7013C18.2084 20.8513 18.0184 20.9212 17.8284 20.9212C17.6384 20.9212 17.4484 20.8513 17.2984 20.7013C17.0084 20.4113 17.0084 19.9312 17.2984 19.6413L17.8484 19.0913L17.3184 18.5612C17.0284 18.2712 17.0284 17.7913 17.3184 17.5013C17.6084 17.2113 18.0884 17.2113 18.3784 17.5013L18.9084 18.0312L19.4084 17.5312C19.6984 17.2413 20.1784 17.2413 20.4684 17.5312C20.7584 17.8213 20.7584 18.3013 20.4684 18.5913L19.9684 19.0913L20.4984 19.6213C20.7884 19.9113 20.7884 20.3913 20.4984 20.6813ZM2 16.4583V11.4983C2 10.9483 2.45 10.4983 3 10.4883H21C21.55 10.4883 22 10.9383 22 11.4883V12.8783C22 13.5683 21.32 14.0383 20.67 13.8183C19.6 13.4583 18.39 13.4083 17.14 13.8083C16.39 14.0483 15.7 14.4683 15.14 15.0183C13.78 16.3383 13.29 17.9983 13.43 19.5283C13.48 20.1083 12.98 20.5983 12.4 20.5983H6.14C3.85 20.5983 2 18.7483 2 16.4583ZM6 17.2483H8C8.41 17.2483 8.75 16.9083 8.75 16.4983C8.75 16.0883 8.41 15.7483 8 15.7483H6C5.59 15.7483 5.25 16.0883 5.25 16.4983C5.25 16.9083 5.59 17.2483 6 17.2483Z" fill="#292D32"/>
</svg>
