<svg viewBox="0 0 24 24" fill="none" xmlns="http://www.w3.org/2000/svg">
<path fill-rule="evenodd" clip-rule="evenodd" d="M6.44 21.25H17.56C21.54 21.25 22.75 20.05 22.74 16.1V14.02C22.74 13.61 22.4 13.27 21.99 13.27C21.58 13.27 21.24 13.61 21.24 14.02V16.1C21.24 19.2 20.69 19.74 17.55 19.74H6.44C3.3 19.74 2.75 19.2 2.75 16.1V9.25H14.5C14.91 9.25 15.25 8.91 15.25 8.5C15.25 8.09 14.91 7.75 14.5 7.75H2.75039C2.76737 4.77366 3.34787 4.25 6.44 4.25H14.5C14.91 4.25 15.25 3.91 15.25 3.5C15.25 3.09 14.91 2.75 14.5 2.75H6.44C2.46 2.75 1.25 3.95 1.25 7.89V8.5V16.11C1.25 20.05 2.46 21.25 6.44 21.25ZM6 17.25H8C8.41 17.25 8.75 16.91 8.75 16.5C8.75 16.09 8.41 15.75 8 15.75H6C5.59 15.75 5.25 16.09 5.25 16.5C5.25 16.91 5.59 17.25 6 17.25ZM14.5 17.25H10.5C10.09 17.25 9.75 16.91 9.75 16.5C9.75 16.09 10.09 15.75 10.5 15.75H14.5C14.91 15.75 15.25 16.09 15.25 16.5C15.25 16.91 14.91 17.25 14.5 17.25ZM20.4232 10.1187C20.4612 10.0927 20.497 10.063 20.53 10.03L22.53 8.03C22.82 7.74 22.82 7.26 22.53 6.97C22.24 6.68 21.76 6.68 21.47 6.97L20.75 7.69V3.5C20.75 3.09 20.41 2.75 20 2.75C19.59 2.75 19.25 3.09 19.25 3.5V7.69049L18.5295 6.96994C18.2395 6.67994 17.7595 6.67994 17.4695 6.96994C17.1795 7.25994 17.1795 7.73994 17.4695 8.02994L19.4695 10.0299C19.6109 10.1714 19.788 10.2417 19.967 10.2493C19.9779 10.2498 19.9889 10.25 20 10.25C20.0278 10.25 20.0555 10.2484 20.0829 10.2454C20.202 10.2323 20.3187 10.191 20.4232 10.1187Z" fill="#292D32"/>
</svg>
