<svg viewBox="0 0 24 24" fill="none" xmlns="http://www.w3.org/2000/svg">
<path fill-rule="evenodd" clip-rule="evenodd" d="M21.7689 3.30891C22.0717 3.01583 22.0787 2.55099 21.7899 2.24998C21.7831 2.24286 21.7761 2.23584 21.7689 2.22891L21.7686 2.22859L21.7682 2.22819C21.5218 1.97396 21.1543 1.92858 20.8647 2.09208C20.7978 2.12719 20.735 2.17281 20.6789 2.22891L19.0756 3.83313C18.69 3.71416 18.2773 3.64844 17.85 3.64844H6.14C3.85 3.64844 2 5.49844 2 7.78844V7.79844C2 8.45844 2.54 8.99844 3.2 8.99844H13.913L12.6622 10.25H3.2C2.54 10.25 2 10.79 2 11.45V16.46C2 17.6893 2.52938 18.7887 3.37851 19.5387L2.22859 20.6886C1.97638 20.9327 1.92937 21.2959 2.08754 21.5844C2.12324 21.6546 2.17036 21.7204 2.22891 21.7789C2.37891 21.9189 2.56891 21.9989 2.76891 21.9989C2.96891 21.9989 3.15891 21.9189 3.30891 21.7689L21.7689 3.30891ZM7.16514 15.75H6C5.59 15.75 5.25 16.09 5.25 16.5C5.25 16.8089 5.44857 17.088 5.727 17.1889L7.16514 15.75ZM21.9987 11V16.46C21.9987 18.75 20.1487 20.6 17.8587 20.6H8.8087C7.9187 20.6 7.4687 19.52 8.0987 18.89L9.4487 17.54C9.6387 17.35 9.8887 17.25 10.1587 17.25H14.4987C14.9087 17.25 15.2487 16.91 15.2487 16.5C15.2487 16.09 14.9087 15.75 14.4987 15.75H13.6587C12.7687 15.75 12.3187 14.67 12.9487 14.04L16.4087 10.58C16.7887 10.21 17.2987 10 17.8287 10H20.9987C21.5487 10 21.9987 10.45 21.9987 11ZM20.2905 6.70026C20.9205 6.07026 22.0005 6.52026 22.0005 7.41026V8.00026C22.0005 8.55026 21.5505 9.00026 21.0005 9.00026H20.4105C19.5205 9.00026 19.0805 7.92026 19.7105 7.29026L20.0005 7.00026L20.2905 6.70026Z" fill="#292D32"/>
</svg>
