<svg viewBox="0 0 24 24" fill="none" xmlns="http://www.w3.org/2000/svg">
<path fill-rule="evenodd" clip-rule="evenodd" d="M16 5.97C16 7.24 16.76 8 18.03 8H20.97C22.24 8 23 7.24 23 5.97V3.03C23 1.76 22.24 1 20.97 1H18.03C16.76 1 16 1.76 16 3.03V5.97ZM20.75 4.51C20.91 4.51 21.07 4.57 21.19 4.69C21.44 4.93 21.44 5.33 21.2 5.57L19.95 6.82C19.94 6.82 19.94 6.82 19.93 6.83C19.88 6.88 19.82 6.92 19.75 6.95H19.73C19.66 6.98 19.6 6.99 19.53 6.99H19.47C19.41 6.99 19.36 6.98 19.31 6.96C19.3 6.955 19.29 6.9525 19.28 6.95C19.27 6.9475 19.26 6.945 19.25 6.94C19.18 6.91 19.11 6.87 19.06 6.82L17.81 5.57C17.57 5.33 17.57 4.93 17.81 4.69C18.05 4.45 18.45 4.45 18.69 4.69L18.87 4.87V2.63C18.87 2.28 19.15 2 19.5 2C19.85 2 20.13 2.28 20.13 2.63V4.87L20.31 4.69C20.43 4.57 20.59 4.51 20.75 4.51ZM2 16.46V9H22V16.46C22 18.75 20.14 20.6 17.85 20.6H6.15C3.86 20.6 2 18.75 2 16.46ZM6 17.25H8C8.41 17.25 8.75 16.91 8.75 16.5C8.75 16.09 8.41 15.75 8 15.75H6C5.59 15.75 5.25 16.09 5.25 16.5C5.25 16.91 5.59 17.25 6 17.25ZM10.5 17.25H14.5C14.91 17.25 15.25 16.91 15.25 16.5C15.25 16.09 14.91 15.75 14.5 15.75H10.5C10.09 15.75 9.75 16.09 9.75 16.5C9.75 16.91 10.09 17.25 10.5 17.25Z" fill="#292D32"/>
<path opacity="0.4" d="M22 7.7699V8.9999H2V7.5399C2 5.2499 3.86 3.3999 6.15 3.3999H16V5.9699C16 7.2399 16.76 7.9999 18.03 7.9999H20.97C21.37 7.9999 21.71 7.9299 22 7.7699Z" fill="#292D32"/>
</svg>
