<svg viewBox="0 0 24 24" fill="none" xmlns="http://www.w3.org/2000/svg">
<path fill-rule="evenodd" clip-rule="evenodd" d="M6.44 21.25H17.56C21.54 21.25 22.75 20.05 22.74 16.1V14.02C22.74 13.61 22.4 13.27 21.99 13.27C21.58 13.27 21.24 13.61 21.24 14.02V16.1C21.24 19.2 20.69 19.74 17.55 19.74H6.44C3.3 19.74 2.75 19.2 2.75 16.1V9.25H14.5C14.91 9.25 15.25 8.91 15.25 8.5C15.25 8.09 14.91 7.75 14.5 7.75H2.75039C2.76737 4.77366 3.34787 4.25 6.44 4.25H14.5C14.91 4.25 15.25 3.91 15.25 3.5C15.25 3.09 14.91 2.75 14.5 2.75H6.44C2.46 2.75 1.25 3.95 1.25 7.89V8.5V16.11C1.25 20.05 2.46 21.25 6.44 21.25ZM6 17.25H8C8.41 17.25 8.75 16.91 8.75 16.5C8.75 16.09 8.41 15.75 8 15.75H6C5.59 15.75 5.25 16.09 5.25 16.5C5.25 16.91 5.59 17.25 6 17.25ZM14.5 17.25H10.5C10.09 17.25 9.75 16.91 9.75 16.5C9.75 16.09 10.09 15.75 10.5 15.75H14.5C14.91 15.75 15.25 16.09 15.25 16.5C15.25 16.91 14.91 17.25 14.5 17.25ZM20 10.2499C19.59 10.2499 19.25 9.90994 19.25 9.49994V5.3094L18.5295 6.02994C18.3795 6.17994 18.1895 6.24994 17.9995 6.24994C17.8095 6.24994 17.6195 6.17994 17.4695 6.02994C17.1795 5.73994 17.1795 5.25994 17.4695 4.96994L19.4375 3.0019C19.5057 2.92445 19.5904 2.86124 19.688 2.819C19.9597 2.69655 20.2927 2.74306 20.5178 2.95855C20.5219 2.9623 20.526 2.96609 20.53 2.96994L22.53 4.96994C22.82 5.25994 22.82 5.73994 22.53 6.02994C22.24 6.31994 21.76 6.31994 21.47 6.02994L20.75 5.30994V9.49994C20.75 9.90994 20.41 10.2499 20 10.2499Z" fill="#292D32"/>
</svg>
