<svg viewBox="0 0 24 24" fill="none" xmlns="http://www.w3.org/2000/svg">
<path fill-rule="evenodd" clip-rule="evenodd" d="M18.03 1H20.97C22.24 1 23 1.76 23 3.03V5.97C23 7.24 22.24 8 20.97 8H18.03C16.76 8 16 7.24 16 5.97V3.03C16 1.76 16.76 1 18.03 1ZM18.86 6.64C18.91 6.64 18.98 6.6 19.01 6.57L20.71 4.86C20.64 4.84 20.56 4.81 20.48 4.77C20.4 4.73 20.32 4.69 20.25 4.65C20.2075 4.62875 20.17 4.60249 20.1305 4.57477C20.1142 4.56334 20.0975 4.55167 20.08 4.54C20.0533 4.52 20.0178 4.4911 19.9822 4.46221C19.9644 4.44777 19.9467 4.43333 19.93 4.42C19.92 4.42 19.9 4.4 19.88 4.38C19.79 4.31 19.69 4.21 19.6 4.1C19.59 4.09 19.58 4.08 19.56 4.05C19.53 4.02001 19.49 3.96005 19.45 3.90007L19.45 3.9C19.41 3.86 19.37 3.8 19.34 3.74C19.3 3.67 19.26 3.6 19.22 3.52L19.22 3.51987C19.19 3.43992 19.16 3.35996 19.13 3.29L17.43 4.99C17.4 5.02 17.37 5.09 17.36 5.14L17.21 6.18C17.18 6.36 17.23 6.53 17.35 6.65C17.44 6.75 17.57 6.8 17.72 6.8C17.75 6.8 17.79 6.8 17.82 6.79L18.86 6.64ZM21.08 4.5L21.4 4.18C21.67 3.91 21.8 3.65 21.81 3.39C21.81 3.13 21.68 2.87 21.41 2.6C20.88 2.07 20.37 2.06 19.83 2.6L19.5 2.93C19.47 2.96 19.46 3 19.47 3.04C19.68 3.76 20.25 4.33 20.97 4.54H21C21.03 4.54 21.06 4.53 21.08 4.5ZM2 16.46V9H22V16.46C22 18.75 20.14 20.6 17.85 20.6H6.15C3.86 20.6 2 18.75 2 16.46ZM6 17.25H8C8.41 17.25 8.75 16.91 8.75 16.5C8.75 16.09 8.41 15.75 8 15.75H6C5.59 15.75 5.25 16.09 5.25 16.5C5.25 16.91 5.59 17.25 6 17.25ZM10.5 17.25H14.5C14.91 17.25 15.25 16.91 15.25 16.5C15.25 16.09 14.91 15.75 14.5 15.75H10.5C10.09 15.75 9.75 16.09 9.75 16.5C9.75 16.91 10.09 17.25 10.5 17.25Z" fill="#292D32"/>
<path opacity="0.4" d="M22 7.7699V8.9999H2V7.5399C2 5.2499 3.86 3.3999 6.15 3.3999H16V5.9699C16 7.2399 16.76 7.9999 18.03 7.9999H20.97C21.37 7.9999 21.71 7.9299 22 7.7699Z" fill="#292D32"/>
</svg>
