<svg viewBox="0 0 24 24" fill="none" xmlns="http://www.w3.org/2000/svg">
<path fill-rule="evenodd" clip-rule="evenodd" d="M18.03 1H20.97C22.24 1 23 1.76 23 3.03V5.97C23 7.24 22.24 8 20.97 8H18.03C16.76 8 16 7.24 16 5.97V3.03C16 1.76 16.76 1 18.03 1ZM20.75 4.49C20.91 4.49 21.07 4.43 21.19 4.31C21.44 4.07 21.44 3.67 21.2 3.43L19.95 2.18C19.9458 2.18 19.9433 2.18 19.9411 2.17923C19.9382 2.17819 19.9358 2.17575 19.93 2.17C19.88 2.12 19.82 2.08 19.75 2.05H19.73C19.66 2.02 19.6 2.01 19.53 2.01H19.47C19.41 2.01 19.36 2.02 19.31 2.04C19.3 2.045 19.29 2.0475 19.28 2.05C19.27 2.0525 19.26 2.055 19.25 2.06C19.18 2.09 19.11 2.13 19.06 2.18L17.81 3.43C17.57 3.67 17.57 4.07 17.81 4.31C18.05 4.55 18.45 4.55 18.69 4.31L18.87 4.13V6.37C18.87 6.72 19.15 7 19.5 7C19.85 7 20.13 6.72 20.13 6.37V4.13L20.31 4.31C20.43 4.43 20.59 4.49 20.75 4.49ZM2 16.46V9H22V16.46C22 18.75 20.14 20.6 17.85 20.6H6.15C3.86 20.6 2 18.75 2 16.46ZM6 17.25H8C8.41 17.25 8.75 16.91 8.75 16.5C8.75 16.09 8.41 15.75 8 15.75H6C5.59 15.75 5.25 16.09 5.25 16.5C5.25 16.91 5.59 17.25 6 17.25ZM10.5 17.25H14.5C14.91 17.25 15.25 16.91 15.25 16.5C15.25 16.09 14.91 15.75 14.5 15.75H10.5C10.09 15.75 9.75 16.09 9.75 16.5C9.75 16.91 10.09 17.25 10.5 17.25Z" fill="#292D32"/>
<path opacity="0.4" d="M22 7.7699V8.9999H2V7.5399C2 5.2499 3.86 3.3999 6.15 3.3999H16V5.9699C16 7.2399 16.76 7.9999 18.03 7.9999H20.97C21.37 7.9999 21.71 7.9299 22 7.7699Z" fill="#292D32"/>
</svg>
