<svg viewBox="0 0 24 24" fill="none" xmlns="http://www.w3.org/2000/svg">
<path fill-rule="evenodd" clip-rule="evenodd" d="M6.44 21.25H17.56C21.54 21.25 22.75 20.05 22.74 16.1V12.02C22.74 11.61 22.4 11.27 21.99 11.27C21.58 11.27 21.24 11.61 21.24 12.02V16.1C21.24 19.2 20.69 19.74 17.55 19.74H6.44C3.3 19.74 2.75 19.2 2.75 16.1V9.25H11.5C11.91 9.25 12.25 8.91 12.25 8.5C12.25 8.09 11.91 7.75 11.5 7.75H2.75039C2.76737 4.77366 3.34787 4.25 6.44 4.25H14.5C14.91 4.25 15.25 3.91 15.25 3.5C15.25 3.09 14.91 2.75 14.5 2.75H6.44C2.46 2.75 1.25 3.95 1.25 7.89V8.5V16.11C1.25 20.05 2.46 21.25 6.44 21.25ZM6 17.25H8C8.41 17.25 8.75 16.91 8.75 16.5C8.75 16.09 8.41 15.75 8 15.75H6C5.59 15.75 5.25 16.09 5.25 16.5C5.25 16.91 5.59 17.25 6 17.25ZM14.5 17.25H10.5C10.09 17.25 9.75 16.91 9.75 16.5C9.75 16.09 10.09 15.75 10.5 15.75H14.5C14.91 15.75 15.25 16.09 15.25 16.5C15.25 16.91 14.91 17.25 14.5 17.25ZM15.5194 11.4401C15.1294 11.4401 14.7594 11.3001 14.4994 11.0301C14.1794 10.7101 14.0394 10.2501 14.1094 9.77005L14.3094 8.35005C14.3594 7.99005 14.5794 7.56005 14.8294 7.31005L18.5394 3.60005C20.0094 2.13005 21.2894 2.97005 21.9294 3.60005C22.5594 4.23005 23.3994 5.51005 21.9294 6.99005L21.4598 7.45969C21.4294 7.49588 21.3962 7.52911 21.3604 7.55905L18.2194 10.7001C17.9594 10.9601 17.5294 11.1701 17.1794 11.2201L15.7594 11.4201C15.6794 11.4301 15.5994 11.4401 15.5194 11.4401ZM20.6771 6.11236L20.8694 5.92005C21.3394 5.45005 21.4094 5.19005 20.8694 4.66005C20.6094 4.40005 20.4194 4.28005 20.2294 4.28005C20.0294 4.28005 19.8494 4.42005 19.5994 4.66005L19.4215 4.83848C19.6794 5.39403 20.1259 5.8466 20.6771 6.11236ZM18.3117 5.95131C18.6341 6.45868 19.0664 6.89089 19.5738 7.21568L17.1594 9.63005C17.1194 9.66005 17.0094 9.72005 16.9594 9.73005L15.5994 9.92005L15.7994 8.57005C15.8094 8.52005 15.8694 8.41005 15.8994 8.37005L18.3117 5.95131Z" fill="#292D32"/>
</svg>
