<svg viewBox="0 0 24 24" fill="none" xmlns="http://www.w3.org/2000/svg">
<path fill-rule="evenodd" clip-rule="evenodd" d="M19.97 1.75H17.03C15.76 1.75 15 2.51 15 3.78V6.72C15 7.99 15.76 8.75 17.03 8.75H19.97C21.24 8.75 22 7.99 22 6.72V3.78C22 2.51 21.24 1.75 19.97 1.75ZM20.19 5.06C20.07 5.18 19.91 5.24 19.75 5.24C19.59 5.24 19.43 5.18 19.31 5.06L19.13 4.88V7.12C19.13 7.47 18.85 7.75 18.5 7.75C18.15 7.75 17.87 7.47 17.87 7.12V4.88L17.69 5.06C17.45 5.3 17.05 5.3 16.81 5.06C16.57 4.82 16.57 4.42 16.81 4.18L18.06 2.93C18.11 2.88 18.18 2.84 18.25 2.81C18.26 2.805 18.27 2.8025 18.28 2.8C18.29 2.7975 18.3 2.795 18.31 2.79C18.36 2.77 18.41 2.76 18.47 2.76H18.53C18.6 2.76 18.66 2.77 18.73 2.8H18.75C18.82 2.83 18.88 2.87 18.93 2.92C18.9358 2.92575 18.9382 2.92819 18.9411 2.92923C18.9433 2.93 18.9458 2.93 18.95 2.93L20.2 4.18C20.44 4.42 20.44 4.82 20.19 5.06ZM2 11.46V16.46C2 18.75 3.85 20.6 6.14 20.6H17.85C20.14 20.6 22 18.74 22 16.45V11.46C22 10.79 21.46 10.25 20.79 10.25H3.21C2.54 10.25 2 10.79 2 11.46ZM8 17.25H6C5.59 17.25 5.25 16.91 5.25 16.5C5.25 16.09 5.59 15.75 6 15.75H8C8.41 15.75 8.75 16.09 8.75 16.5C8.75 16.91 8.41 17.25 8 17.25ZM14.5 17.25H10.5C10.09 17.25 9.75 16.91 9.75 16.5C9.75 16.09 10.09 15.75 10.5 15.75H14.5C14.91 15.75 15.25 16.09 15.25 16.5C15.25 16.91 14.91 17.25 14.5 17.25ZM13.5 7.53844V4.60844C13.5 3.93844 12.96 3.39844 12.29 3.39844H6.14C5 3.39844 3.96 3.85844 3.21 4.60844C2.46 5.35844 2.01 6.38844 2 7.51844C2 8.18844 2.53 8.74844 3.21 8.74844H12.29C12.96 8.74844 13.5 8.20844 13.5 7.53844Z" fill="#292D32"/>
</svg>
