<svg viewBox="0 0 24 24" fill="none" xmlns="http://www.w3.org/2000/svg">
<path fill-rule="evenodd" clip-rule="evenodd" d="M1.46945 22.5299C1.61945 22.6799 1.80945 22.7499 1.99945 22.7499C2.18945 22.7499 2.37945 22.6799 2.52945 22.5299L22.5295 2.52994C22.8195 2.23994 22.8195 1.75994 22.5295 1.46994C22.2395 1.17994 21.7595 1.17994 21.4695 1.46994L19.9622 2.97715C19.3389 2.82104 18.5628 2.75 17.55 2.75H6.44C2.46 2.75 1.25 3.95 1.25 7.89V8.5V16.11C1.25 18.0105 1.49829 19.4882 2.58309 20.3563L1.46945 21.4699C1.17945 21.7599 1.17945 22.2399 1.46945 22.5299ZM3.65613 19.2833L5.73768 17.2017C5.45456 17.0939 5.25 16.818 5.25 16.5C5.25 16.09 5.59 15.75 6 15.75H7.18939L13.6894 9.25H2.75V16.11C2.75 18.147 3.06236 18.9055 3.65613 19.2833ZM15.1894 7.75L18.6429 4.29645C18.3241 4.27191 17.9626 4.26 17.55 4.26H6.44C3.35134 4.26 2.76868 4.78249 2.75045 7.75H15.1894ZM7.98047 21.2501H17.5605C21.5405 21.2501 22.7505 20.0501 22.7505 16.1001V6.89014C22.7505 6.48014 22.4105 6.14014 22.0005 6.14014C21.5905 6.14014 21.2505 6.48014 21.2505 6.89014V16.1101C21.2505 19.2101 20.7005 19.7501 17.5605 19.7501H7.98047C7.57047 19.7501 7.23047 20.0901 7.23047 20.5001C7.23047 20.9101 7.57047 21.2501 7.98047 21.2501ZM14.5 17.25H11C10.59 17.25 10.25 16.91 10.25 16.5C10.25 16.09 10.59 15.75 11 15.75H14.5C14.91 15.75 15.25 16.09 15.25 16.5C15.25 16.91 14.91 17.25 14.5 17.25Z" fill="#292D32"/>
</svg>
