<svg viewBox="0 0 24 24" fill="none" xmlns="http://www.w3.org/2000/svg">
<path fill-rule="evenodd" clip-rule="evenodd" d="M19.7237 18.1119C22.2318 17.7441 22.75 16.1992 22.75 13.72V6.73C22.75 3.34 21.65 2.25 18.22 2.25H8.78003C5.63478 2.25 4.46078 3.15386 4.2757 5.88802C1.76809 6.25597 1.25 7.80077 1.25 10.2798V12.6099V17.2698C1.25 20.6598 2.35003 21.7498 5.78003 21.7498H15.22C18.3621 21.7498 19.5369 20.8477 19.7237 18.1119ZM19.75 16.6C20.91 16.39 21.25 15.79 21.25 13.72V6.73C21.25 4.17 20.83 3.75 18.22 3.75H8.78003C6.50011 3.75 5.91007 4.05998 5.78004 5.7998H15.22C18.3419 5.7998 19.5336 6.70279 19.7225 9.42112C19.7395 9.6661 19.7484 9.92583 19.7498 10.201L19.75 10.28V16.6ZM5.01997 7.32043C3.23819 7.43124 2.75 7.81444 2.75 10.2798V11.8599H18.25V10.28V10.2798C18.25 9.95989 18.2434 9.67338 18.2269 9.41695C18.1108 7.62156 17.5037 7.3 15.22 7.3H5.78003C5.51003 7.3 5.26003 7.31 5.03003 7.32L5.01997 7.32043ZM18.25 13.3599H2.75V17.2698C2.75 19.8298 3.17003 20.2498 5.78003 20.2498H15.22C17.8 20.2498 18.22 19.8498 18.25 17.4198V13.3599ZM6.96027 18.5601H5.24023C4.83023 18.5601 4.49023 18.2201 4.49023 17.8101C4.49023 17.4001 4.83023 17.0601 5.24023 17.0601H6.96027C7.37027 17.0601 7.71027 17.4001 7.71027 17.8101C7.71027 18.2201 7.38027 18.5601 6.96027 18.5601ZM9.10938 18.5601H12.5494C12.9694 18.5601 13.2994 18.2201 13.2994 17.8101C13.2994 17.4001 12.9594 17.0601 12.5494 17.0601H9.10938C8.69938 17.0601 8.35938 17.4001 8.35938 17.8101C8.35938 18.2201 8.69938 18.5601 9.10938 18.5601Z" fill="#292D32"/>
</svg>
