<svg viewBox="0 0 24 24" fill="none" xmlns="http://www.w3.org/2000/svg">
<path fill-rule="evenodd" clip-rule="evenodd" d="M17.03 2H19.97C21.24 2 22 2.76 22 4.03V6.97C22 8.24 21.24 9 19.97 9H17.03C15.76 9 15 8.24 15 6.97V4.03C15 2.76 15.76 2 17.03 2ZM20.51 6.93C20.51 6.76 20.45 6.62 20.34 6.49L19.36 5.52L20.36 4.52C20.46 4.4 20.52 4.24 20.52 4.1C20.51 3.94 20.46 3.79 20.35 3.66C20.12 3.43 19.73 3.43 19.5 3.66L18.5 4.66L17.52 3.67C17.28 3.43 16.89 3.42 16.66 3.66C16.43 3.9 16.44 4.29 16.67 4.52L17.66 5.51L16.66 6.49C16.43 6.72 16.43 7.11 16.66 7.34C16.9 7.58 17.29 7.58 17.52 7.35L18.5 6.35L19.49 7.34C19.72 7.57 20.11 7.57 20.34 7.34C20.45 7.23 20.51 7.07 20.51 6.93ZM13.5 4.60844V7.53844C13.5 8.20844 12.96 8.74844 12.29 8.74844H3.21C2.53 8.74844 2 8.18844 2 7.51844C2.01 6.38844 2.46 5.35844 3.21 4.60844C3.96 3.85844 5 3.39844 6.14 3.39844H12.29C12.96 3.39844 13.5 3.93844 13.5 4.60844ZM2 11.46V16.46C2 18.75 3.85 20.6 6.14 20.6H17.85C20.14 20.6 22 18.74 22 16.45V11.46C22 10.79 21.46 10.25 20.79 10.25H3.21C2.54 10.25 2 10.79 2 11.46ZM8 17.25H6C5.59 17.25 5.25 16.91 5.25 16.5C5.25 16.09 5.59 15.75 6 15.75H8C8.41 15.75 8.75 16.09 8.75 16.5C8.75 16.91 8.41 17.25 8 17.25ZM14.5 17.25H10.5C10.09 17.25 9.75 16.91 9.75 16.5C9.75 16.09 10.09 15.75 10.5 15.75H14.5C14.91 15.75 15.25 16.09 15.25 16.5C15.25 16.91 14.91 17.25 14.5 17.25Z" fill="#292D32"/>
</svg>
