<svg viewBox="0 0 24 24" fill="none" xmlns="http://www.w3.org/2000/svg">
<path fill-rule="evenodd" clip-rule="evenodd" d="M6.35034 21.28H11.4604C11.8704 21.28 12.2104 20.95 12.2104 20.54C12.2104 20.13 11.8704 19.79 11.4604 19.79H6.35034C3.20034 19.79 2.65039 19.24 2.65039 16.15V10.7803H21.1603V12.34C21.1603 12.75 21.5003 13.09 21.9103 13.09C22.3203 13.09 22.6603 12.75 22.6603 12.34V7.93004C22.6603 3.99004 21.4404 2.79004 17.4604 2.79004H6.35034C6.01052 2.79004 5.7007 2.80003 5.39086 2.81003H5.39086H5.39085L5.39038 2.81004C1.82038 3.02004 1.15039 4.77004 1.15039 7.92004V10.0303V16.14C1.15039 20.08 2.37034 21.28 6.35034 21.28ZM2.65039 9.28027V7.93004C2.65039 4.93004 3.29039 4.44004 5.46039 4.31004C5.74039 4.30004 6.03034 4.29004 6.35034 4.29004H17.4604C20.6104 4.29004 21.1603 4.84004 21.1603 7.93004V9.28027H2.65039ZM17.9004 22.7803C15.2804 22.7803 13.1504 20.6503 13.1504 18.0303C13.1504 15.4103 15.2804 13.2803 17.9004 13.2803C20.5204 13.2803 22.6504 15.4103 22.6504 18.0303C22.6504 20.6503 20.5204 22.7803 17.9004 22.7803ZM17.9004 14.7803C16.1104 14.7803 14.6504 16.2403 14.6504 18.0303C14.6504 19.8203 16.1104 21.2803 17.9004 21.2803C19.6904 21.2803 21.1504 19.8203 21.1504 18.0303C21.1504 16.2403 19.6904 14.7803 17.9004 14.7803ZM18.4408 19.68C18.5908 19.83 18.7807 19.9 18.9707 19.9C19.1607 19.9 19.3608 19.82 19.5008 19.68C19.7908 19.39 19.7908 18.91 19.5008 18.62L18.9702 18.0894L19.4695 17.59C19.7595 17.3 19.7595 16.82 19.4695 16.53C19.1795 16.24 18.6995 16.24 18.4095 16.53L17.9102 17.0294L17.3908 16.51C17.1008 16.22 16.6208 16.22 16.3308 16.51C16.0408 16.8 16.0408 17.28 16.3308 17.57L16.8502 18.0894L16.2995 18.64C16.0095 18.93 16.0095 19.41 16.2995 19.7C16.4495 19.85 16.6396 19.92 16.8296 19.92C17.0296 19.92 17.2195 19.85 17.3595 19.7L17.9102 19.1494L18.4408 19.68ZM5.90039 16.7803H9.90039C10.3204 16.7803 10.6504 16.4403 10.6504 16.0303C10.6504 15.6203 10.3104 15.2803 9.90039 15.2803H5.90039C5.49039 15.2803 5.15039 15.6203 5.15039 16.0303C5.15039 16.4403 5.49039 16.7803 5.90039 16.7803Z" fill="#292D32"/>
</svg>
