<svg viewBox="0 0 24 24" fill="none" xmlns="http://www.w3.org/2000/svg">
<path fill-rule="evenodd" clip-rule="evenodd" d="M18.03 1H20.97C22.24 1 23 1.76 23 3.03V5.97C23 7.24 22.24 8 20.97 8H18.03C16.76 8 16 7.24 16 5.97V3.03C16 1.76 16.76 1 18.03 1ZM19.26 6.22L21.63 3.45C21.81 3.24 21.79 2.91 21.56 2.73C21.34 2.55 21.02 2.57 20.83 2.79L18.83 5.13L18.13 4.44C17.93 4.23 17.6 4.24 17.4 4.44C17.2 4.64 17.2 4.97 17.4 5.17L18.5 6.25C18.6 6.35 18.73 6.4 18.87 6.4H18.89C19.03 6.4 19.17 6.33 19.26 6.22ZM2 16.46V9H22V16.46C22 18.75 20.14 20.6 17.85 20.6H6.15C3.86 20.6 2 18.75 2 16.46ZM6 17.25H8C8.41 17.25 8.75 16.91 8.75 16.5C8.75 16.09 8.41 15.75 8 15.75H6C5.59 15.75 5.25 16.09 5.25 16.5C5.25 16.91 5.59 17.25 6 17.25ZM10.5 17.25H14.5C14.91 17.25 15.25 16.91 15.25 16.5C15.25 16.09 14.91 15.75 14.5 15.75H10.5C10.09 15.75 9.75 16.09 9.75 16.5C9.75 16.91 10.09 17.25 10.5 17.25Z" fill="#292D32"/>
<path opacity="0.4" d="M22 7.7699V8.9999H2V7.5399C2 5.2499 3.86 3.3999 6.15 3.3999H16V5.9699C16 7.2399 16.76 7.9999 18.03 7.9999H20.97C21.37 7.9999 21.71 7.9299 22 7.7699Z" fill="#292D32"/>
</svg>
