<svg viewBox="0 0 24 24" fill="none" xmlns="http://www.w3.org/2000/svg">
<path fill-rule="evenodd" clip-rule="evenodd" d="M15.3914 4.52172L4.65141 15.2617C4.24141 15.6717 3.58141 15.6717 3.18141 15.2617H3.17141C1.78141 13.8617 1.78141 11.6017 3.17141 10.2117L10.3214 3.06172C11.7214 1.66172 13.9814 1.66172 15.3814 3.06172C15.7914 3.45172 15.7914 4.12172 15.3914 4.52172ZM22 21.25C22 21.66 21.66 22 21.25 22H2.75C2.34 22 2 21.66 2 21.25C2 20.84 2.34 20.5 2.75 20.5H8.27759L5.6825 17.8964C5.2725 17.4864 5.2725 16.8264 5.6825 16.4264L16.4225 5.68641C16.8225 5.27641 17.4825 5.27641 17.8925 5.68641L20.9425 8.73641C22.3525 10.1364 22.3525 12.4064 20.9325 13.8064L14.2483 20.5H21.25C21.66 20.5 22 20.84 22 21.25ZM11.6725 18.9864L12.8825 17.7664C13.1325 17.5264 13.1325 17.0964 12.8825 16.8464C12.6325 16.6064 12.2125 16.6064 11.9725 16.8464L10.7525 18.0664C10.5025 18.3264 10.5025 18.7364 10.7525 18.9864C11.0125 19.2364 11.4225 19.2364 11.6725 18.9864ZM14.4125 16.2464L16.8525 13.7964C17.1025 13.5464 17.1025 13.1364 16.8525 12.8764C16.6025 12.6364 16.1825 12.6364 15.9425 12.8764L13.4925 15.3264C13.2425 15.5864 13.2425 15.9964 13.4925 16.2464C13.7525 16.4864 14.1625 16.4864 14.4125 16.2464Z" fill="#292D32"/>
</svg>
