<svg viewBox="0 0 24 24" fill="none" xmlns="http://www.w3.org/2000/svg">
<path fill-rule="evenodd" clip-rule="evenodd" d="M5.34 2H7.24C9.42 2 10.57 3.15 10.56 5.33V7.23C10.56 9.41 9.41 10.56 7.23 10.56H5.33C3.15 10.56 2 9.41 2 7.23V5.33C2 3.15 3.15 2 5.34 2ZM16.7695 2H18.6695C20.8495 2 21.9995 3.15 21.9995 5.33V7.23C21.9995 9.41 20.8495 10.56 18.6695 10.56H16.7695C14.5895 10.56 13.4395 9.41 13.4395 7.23V5.33C13.4395 3.15 14.5895 2 16.7695 2ZM18.6695 13.4297H16.7695C14.5895 13.4297 13.4395 14.5797 13.4395 16.7597V18.6597C13.4395 20.8397 14.5895 21.9897 16.7695 21.9897H18.6695C20.8495 21.9897 21.9995 20.8397 21.9995 18.6597V16.7597C21.9995 14.5797 20.8495 13.4297 18.6695 13.4297ZM5.34 13.4297H7.24C9.42 13.4297 10.57 14.5797 10.56 16.7697V18.6697C10.56 20.8497 9.41 21.9997 7.23 21.9997H5.33C3.15 21.9997 2 20.8497 2 18.6597V16.7597C2 14.5797 3.15 13.4297 5.34 13.4297Z" fill="#292D32"/>
</svg>
