<svg viewBox="0 0 24 24" fill="none" xmlns="http://www.w3.org/2000/svg">
<path fill-rule="evenodd" clip-rule="evenodd" d="M16.7695 2H18.6695C20.8495 2 21.9995 3.15 21.9995 5.33V7.23C21.9995 9.41 20.8495 10.56 18.6695 10.56H16.7695C14.5895 10.56 13.4395 9.41 13.4395 7.23V5.33C13.4395 3.15 14.5895 2 16.7695 2ZM7.24 13.4297C9.42 13.4297 10.57 14.5797 10.56 16.7697V18.6697C10.56 20.8497 9.41 21.9997 7.23 21.9997H5.33C3.15 21.9997 2 20.8497 2 18.6597V16.7597C2 14.5797 3.15 13.4297 5.34 13.4297H7.24ZM6.29 10.58C8.6593 10.58 10.58 8.6593 10.58 6.29C10.58 3.9207 8.6593 2 6.29 2C3.9207 2 2 3.9207 2 6.29C2 8.6593 3.9207 10.58 6.29 10.58ZM21.9999 17.7119C21.9999 20.0812 20.0792 22.0019 17.7099 22.0019C15.3406 22.0019 13.4199 20.0812 13.4199 17.7119C13.4199 15.3426 15.3406 13.4219 17.7099 13.4219C20.0792 13.4219 21.9999 15.3426 21.9999 17.7119Z" fill="#292D32"/>
</svg>
