<svg viewBox="0 0 24 24" fill="none" xmlns="http://www.w3.org/2000/svg">
<path fill-rule="evenodd" clip-rule="evenodd" d="M5.34 2H7.24C9.42 2 10.57 3.15 10.56 5.33V7.23C10.56 9.41 9.41 10.56 7.23 10.56H5.33C3.15 10.56 2 9.41 2 7.23V5.33C2 3.15 3.15 2 5.34 2ZM16.7695 13.4302H18.6695C20.8495 13.4302 21.9995 14.5802 21.9995 16.7602V18.6602C21.9995 20.8402 20.8495 21.9902 18.6695 21.9902H16.7695C14.5895 21.9902 13.4395 20.8402 13.4395 18.6602V16.7602C13.4395 14.5802 14.5895 13.4302 16.7695 13.4302Z" fill="#292D32"/>
<path opacity="0.4" fill-rule="evenodd" clip-rule="evenodd" d="M16.7695 2H18.6695C20.8495 2 21.9995 3.15 21.9995 5.33V7.23C21.9995 9.41 20.8495 10.56 18.6695 10.56H16.7695C14.5895 10.56 13.4395 9.41 13.4395 7.23V5.33C13.4395 3.15 14.5895 2 16.7695 2ZM5.34 13.4302H7.24C9.42 13.4302 10.57 14.5802 10.56 16.7702V18.6702C10.56 20.8502 9.41 22.0002 7.23 22.0002H5.33C3.15 22.0002 2 20.8502 2 18.6602V16.7602C2 14.5802 3.15 13.4302 5.34 13.4302Z" fill="#292D32"/>
</svg>
