<svg viewBox="0 0 24 24" fill="none" xmlns="http://www.w3.org/2000/svg">
<path fill-rule="evenodd" clip-rule="evenodd" d="M10.58 6.29C10.58 8.6593 8.6593 10.58 6.29 10.58C3.9207 10.58 2 8.6593 2 6.29C2 3.9207 3.9207 2 6.29 2C8.6593 2 10.58 3.9207 10.58 6.29ZM21.9999 17.7099C21.9999 20.0792 20.0792 21.9999 17.7099 21.9999C15.3406 21.9999 13.4199 20.0792 13.4199 17.7099C13.4199 15.3406 15.3406 13.4199 17.7099 13.4199C20.0792 13.4199 21.9999 15.3406 21.9999 17.7099Z" fill="#292D32"/>
<path opacity="0.4" fill-rule="evenodd" clip-rule="evenodd" d="M16.7695 2H18.6695C20.8495 2 21.9995 3.15 21.9995 5.33V7.23C21.9995 9.41 20.8495 10.56 18.6695 10.56H16.7695C14.5895 10.56 13.4395 9.41 13.4395 7.23V5.33C13.4395 3.15 14.5895 2 16.7695 2ZM5.34 13.4302H7.24C9.42 13.4302 10.57 14.5802 10.56 16.7702V18.6702C10.56 20.8502 9.41 22.0002 7.23 22.0002H5.33C3.15 22.0002 2 20.8502 2 18.6602V16.7602C2 14.5802 3.15 13.4302 5.34 13.4302Z" fill="#292D32"/>
</svg>
