<svg viewBox="0 0 24 24" fill="none" xmlns="http://www.w3.org/2000/svg">
<path fill-rule="evenodd" clip-rule="evenodd" d="M9.75 22.75H7H3H2C1.59 22.75 1.25 22.41 1.25 22C1.25 21.59 1.59 21.25 2 21.25H2.25V10C2.25 8.28 3.13 7.25 4.6 7.25H5.4C6.87 7.25 7.75 8.28 7.75 10V21.25H9V4C9 2.28 9.95 1.25 11.55 1.25H12.45C14.05 1.25 15 2.28 15 4V21.25H16.25V15C16.25 13.28 17.13 12.25 18.6 12.25H19.4C20.87 12.25 21.75 13.28 21.75 15V21.25H22C22.41 21.25 22.75 21.59 22.75 22C22.75 22.41 22.41 22.75 22 22.75H21H17H14.25H9.75ZM20.25 21.25V15C20.25 13.75 19.7 13.75 19.4 13.75H18.6C18.3 13.75 17.75 13.75 17.75 15V21.25H20.25ZM6.25 21.25H3.75V10C3.75 8.75 4.3 8.75 4.6 8.75H5.4C5.7 8.75 6.25 8.75 6.25 10V21.25ZM13.5 21.25V4C13.5 2.85 12.96 2.75 12.45 2.75H11.55C11.04 2.75 10.5 2.85 10.5 4V21.25H13.5Z" fill="#292D32"/>
</svg>
