<svg viewBox="0 0 24 24" fill="none" xmlns="http://www.w3.org/2000/svg">
<path fill-rule="evenodd" clip-rule="evenodd" d="M9.75 20.5V4C9.75 2.9 10.2 2 11.55 2H12.45C13.8 2 14.25 2.9 14.25 4V20.5H22C22.41 20.5 22.75 20.84 22.75 21.25C22.75 21.66 22.41 22 22 22H14.25H9.75H2C1.59 22 1.25 21.66 1.25 21.25C1.25 20.84 1.59 20.5 2 20.5H9.75Z" fill="#292D32"/>
<path opacity="0.4" fill-rule="evenodd" clip-rule="evenodd" d="M3 22V10C3 8.9 3.4 8 4.6 8H5.4C6.6 8 7 8.9 7 10V22H3ZM17 22V15C17 13.9 17.4 13 18.6 13H19.4C20.6 13 21 13.9 21 15V22H17Z" fill="#292D32"/>
</svg>
