<svg viewBox="0 0 24 24" fill="none" xmlns="http://www.w3.org/2000/svg">
<path fill-rule="evenodd" clip-rule="evenodd" d="M18.4004 19.75H20.0004C20.9604 19.75 21.7504 18.96 21.7504 18V3C21.7504 2.04 20.9604 1.25 20.0004 1.25H18.4004C17.4404 1.25 16.6504 2.04 16.6504 3V18C16.6504 18.96 17.4404 19.75 18.4004 19.75ZM18.1504 3C18.1504 2.86 18.2604 2.75 18.4004 2.75H20.0004C20.1404 2.75 20.2504 2.86 20.2504 3V18C20.2504 18.14 20.1404 18.25 20.0004 18.25H18.4004C18.2604 18.25 18.1504 18.14 18.1504 18V3ZM12.8002 19.7499H11.2002C10.2402 19.7499 9.4502 18.9599 9.4502 17.9999V6.18994C9.4502 5.22994 10.2402 4.43994 11.2002 4.43994H12.8002C13.7602 4.43994 14.5502 5.22994 14.5502 6.18994V17.9999C14.5502 18.9599 13.7602 19.7499 12.8002 19.7499ZM11.2002 5.93994C11.0602 5.93994 10.9502 6.04994 10.9502 6.18994V17.9999C10.9502 18.1399 11.0602 18.2499 11.2002 18.2499H12.8002C12.9402 18.2499 13.0502 18.1399 13.0502 17.9999V6.18994C13.0502 6.04994 12.9402 5.93994 12.8002 5.93994H11.2002ZM4 19.7499H5.59998C6.55998 19.7499 7.34998 18.9599 7.34998 17.9999V9.37988C7.34998 8.41988 6.55998 7.62988 5.59998 7.62988H4C3.04 7.62988 2.25 8.41988 2.25 9.37988V17.9999C2.25 18.9599 3.04 19.7499 4 19.7499ZM3.75 9.36987C3.75 9.22987 3.86 9.11987 4 9.11987V9.12988H5.59998C5.73998 9.12988 5.84998 9.23988 5.84998 9.37988V17.9999C5.84998 18.1399 5.73998 18.2499 5.59998 18.2499H4C3.86 18.2499 3.75 18.1399 3.75 17.9999V9.36987ZM3 22.75H21C21.41 22.75 21.75 22.41 21.75 22C21.75 21.59 21.41 21.25 21 21.25H3C2.59 21.25 2.25 21.59 2.25 22C2.25 22.41 2.59 22.75 3 22.75Z" fill="#292D32"/>
</svg>
