<svg viewBox="0 0 24 24" fill="none" xmlns="http://www.w3.org/2000/svg">
<path fill-rule="evenodd" clip-rule="evenodd" d="M18.4004 2H20.0004C20.5504 2 21.0004 2.45 21.0004 3V18C21.0004 18.55 20.5504 19 20.0004 19H18.4004C17.8504 19 17.4004 18.55 17.4004 18V3C17.4004 2.45 17.8504 2 18.4004 2ZM12.7992 5.19141H11.1992C10.6492 5.19141 10.1992 5.64141 10.1992 6.19141V18.0014C10.1992 18.5514 10.6492 19.0014 11.1992 19.0014H12.7992C13.3492 19.0014 13.7992 18.5514 13.7992 18.0014V6.19141C13.7992 5.64141 13.3492 5.19141 12.7992 5.19141ZM4 8.37891H5.6C6.15 8.37891 6.6 8.81891 6.6 9.37891V17.9989C6.6 18.5489 6.15 18.9989 5.6 18.9989H4C3.45 18.9989 3 18.5489 3 17.9989V9.37891C3 8.82891 3.45 8.37891 4 8.37891ZM3 22.75H21C21.41 22.75 21.75 22.41 21.75 22C21.75 21.59 21.41 21.25 21 21.25H3C2.59 21.25 2.25 21.59 2.25 22C2.25 22.41 2.59 22.75 3 22.75Z" fill="#292D32"/>
</svg>
