<svg viewBox="0 0 24 24" fill="none" xmlns="http://www.w3.org/2000/svg">
<path fill-rule="evenodd" clip-rule="evenodd" d="M14 6.75H10C9.14223 6.75 7.62182 6.75 7.30773 4.7883C4.64932 4.98966 3.29297 5.91877 3.29297 10.0002V16.0002C3.29297 19.7002 4.02297 21.2502 8.54297 21.2502H13.543C13.953 21.2502 14.293 21.5902 14.293 22.0002C14.293 22.4102 13.953 22.7502 13.543 22.7502H8.54297C2.92297 22.7502 1.79297 20.1702 1.79297 16.0002V10.0002C1.79297 5.51864 3.3867 3.55806 7.29562 3.2926C7.58046 1.25 9.1306 1.25 10 1.25H14C14.8739 1.25 16.4355 1.25 16.7087 3.32423C20.2828 3.71952 21.7509 5.69803 21.7509 9.98993V14.9899C21.7509 15.4099 21.4109 15.7499 21.0009 15.7499C20.5909 15.7499 20.2509 15.4099 20.2509 14.9999V9.99993C20.2509 6.16699 19.0547 5.1142 16.7072 4.83344C16.5786 5.7422 16.0634 6.75 14 6.75ZM10 2.75C9.01 2.75 8.75 2.75 8.75 4C8.75 5.25 9.01 5.25 10 5.25H14C15.25 5.25 15.25 4.99 15.25 4C15.25 2.75 14.99 2.75 14 2.75H10ZM15 19.75C14.59 19.75 14.25 19.41 14.25 19V16C14.25 15.59 14.59 15.25 15 15.25H18C18.41 15.25 18.75 15.59 18.75 16C18.75 16.41 18.41 16.75 18 16.75H16.8105L21.5305 21.47C21.8205 21.76 21.8205 22.24 21.5305 22.53C21.3805 22.68 21.1905 22.75 21.0005 22.75C20.8105 22.75 20.6205 22.68 20.4705 22.53L15.75 17.8095V19C15.75 19.41 15.41 19.75 15 19.75Z" fill="#292D32"/>
</svg>
