<svg viewBox="0 0 24 24" fill="none" xmlns="http://www.w3.org/2000/svg">
<path fill-rule="evenodd" clip-rule="evenodd" d="M9.64977 2H14.3498C15.3898 2 16.2398 2.84 16.2298 3.88V4.82C16.2298 5.86 15.3898 6.7 14.3498 6.7H9.63977C8.59977 6.7 7.75977 5.86 7.75977 4.82V3.88C7.75977 2.84 8.60977 2 9.64977 2ZM14.3491 7.70949C15.9391 7.70949 17.2391 6.40949 17.2391 4.81949C17.2391 4.25949 17.8391 3.90949 18.3391 4.16949C19.7491 4.91949 20.7091 6.40949 20.7091 8.11949V17.5295C20.7091 19.9895 18.6991 21.9995 16.2391 21.9995H7.75906C5.29906 21.9995 3.28906 19.9895 3.28906 17.5295V8.11949C3.28906 6.40949 4.24906 4.91949 5.65906 4.16949C6.15906 3.90949 6.75906 4.25949 6.75906 4.81949C6.75906 6.40949 8.05906 7.70949 9.64906 7.70949H14.3491ZM13.9991 16.9095C14.1891 16.9095 14.3791 16.8395 14.5291 16.6895C14.8191 16.3895 14.8191 15.9195 14.5291 15.6295L13.0791 14.1795L14.4791 12.7795C14.7691 12.4895 14.7691 12.0095 14.4791 11.7195C14.1891 11.4295 13.7091 11.4295 13.4191 11.7195L12.0191 13.1195L10.5691 11.6695C10.2791 11.3795 9.79906 11.3795 9.50906 11.6695C9.21906 11.9595 9.21906 12.4395 9.50906 12.7295L10.9591 14.1795L9.46906 15.6695C9.17906 15.9595 9.17906 16.4395 9.46906 16.7295C9.61906 16.8795 9.80906 16.9495 9.99906 16.9495C10.1891 16.9495 10.3791 16.8795 10.5291 16.7295L12.0191 15.2395L13.4691 16.6895C13.6191 16.8395 13.8091 16.9095 13.9991 16.9095Z" fill="#292D32"/>
</svg>
