<svg viewBox="0 0 24 24" fill="none" xmlns="http://www.w3.org/2000/svg">
<path fill-rule="evenodd" clip-rule="evenodd" d="M9.64977 2H14.3498C15.3898 2 16.2398 2.84 16.2298 3.88V4.82C16.2298 5.86 15.3898 6.7 14.3498 6.7H9.63977C8.59977 6.7 7.75977 5.86 7.75977 4.82V3.88C7.75977 2.84 8.60977 2 9.64977 2ZM10.28 16.7301C10.43 16.8801 10.62 16.9501 10.81 16.9501C11 16.9501 11.2 16.8801 11.34 16.7301L15.34 12.7301C15.63 12.4401 15.63 11.9601 15.34 11.6701C15.05 11.3801 14.57 11.3801 14.28 11.6701L10.81 15.1401L9.84 14.1701C9.55 13.8801 9.07 13.8801 8.78 14.1701C8.49 14.4601 8.49 14.9401 8.78 15.2301L10.28 16.7301Z" fill="#292D32"/>
<path opacity="0.4" d="M16.2391 3.6499H7.75906C5.28906 3.6499 3.28906 5.6599 3.28906 8.1199V17.5299C3.28906 19.9899 5.29906 21.9999 7.75906 21.9999H16.2291C18.6991 21.9999 20.6991 19.9899 20.6991 17.5299V8.1199C20.7091 5.6499 18.6991 3.6499 16.2391 3.6499Z" fill="#292D32"/>
</svg>
