<svg viewBox="0 0 24 24" fill="none" xmlns="http://www.w3.org/2000/svg">
<path fill-rule="evenodd" clip-rule="evenodd" d="M9.64977 2H14.3498C15.3898 2 16.2398 2.84 16.2298 3.88V4.82C16.2298 5.86 15.3898 6.7 14.3498 6.7H9.63977C8.59977 6.7 7.75977 5.86 7.75977 4.82V3.88C7.75977 2.84 8.60977 2 9.64977 2ZM14.3491 7.70949C15.9391 7.70949 17.2391 6.40949 17.2391 4.81949C17.2391 4.25949 17.8391 3.90949 18.3391 4.16949C19.7491 4.91949 20.7091 6.40949 20.7091 8.11949V17.5295C20.7091 19.9895 18.6991 21.9995 16.2391 21.9995H7.75906C5.29906 21.9995 3.28906 19.9895 3.28906 17.5295V8.11949C3.28906 6.40949 4.24906 4.91949 5.65906 4.16949C6.15906 3.90949 6.75906 4.25949 6.75906 4.81949C6.75906 6.40949 8.05906 7.70949 9.64906 7.70949H14.3491ZM14.9991 17.7495C15.4091 17.7495 15.7491 17.4095 15.7491 16.9995V13.9995C15.7491 13.5895 15.4091 13.2495 14.9991 13.2495C14.5891 13.2495 14.2491 13.5895 14.2491 13.9995V15.1895L9.52906 10.4695C9.23906 10.1795 8.75906 10.1795 8.46906 10.4695C8.17906 10.7595 8.17906 11.2395 8.46906 11.5295L13.1891 16.2495H11.9991C11.5891 16.2495 11.2491 16.5895 11.2491 16.9995C11.2491 17.4095 11.5891 17.7495 11.9991 17.7495H14.9991Z" fill="#292D32"/>
</svg>
