<svg viewBox="0 0 24 24" fill="none" xmlns="http://www.w3.org/2000/svg">
<path fill-rule="evenodd" clip-rule="evenodd" d="M9.64977 2H14.3498C15.3898 2 16.2398 2.84 16.2298 3.88V4.82C16.2298 5.86 15.3898 6.7 14.3498 6.7H9.63977C8.59977 6.7 7.75977 5.86 7.75977 4.82V3.88C7.75977 2.84 8.60977 2 9.64977 2ZM14.3491 7.70949C15.9391 7.70949 17.2391 6.40949 17.2391 4.81949C17.2391 4.25949 17.8391 3.90949 18.3391 4.16949C19.7491 4.91949 20.7091 6.40949 20.7091 8.11949V17.5295C20.7091 19.9895 18.6991 21.9995 16.2391 21.9995H7.75906C5.29906 21.9995 3.28906 19.9895 3.28906 17.5295V8.11949C3.28906 6.40949 4.24906 4.91949 5.65906 4.16949C6.15906 3.90949 6.75906 4.25949 6.75906 4.81949C6.75906 6.40949 8.05906 7.70949 9.64906 7.70949H14.3491ZM14.9991 17.7495C15.1891 17.7495 15.3791 17.6795 15.5291 17.5295C15.8191 17.2395 15.8191 16.7595 15.5291 16.4695L10.8091 11.7495H11.9991C12.4091 11.7495 12.7491 11.4095 12.7491 10.9995C12.7491 10.5895 12.4091 10.2495 11.9991 10.2495H8.99906C8.58906 10.2495 8.24906 10.5895 8.24906 10.9995V13.9995C8.24906 14.4095 8.58906 14.7495 8.99906 14.7495C9.40906 14.7495 9.74906 14.4095 9.74906 13.9995V12.8095L14.4691 17.5295C14.6191 17.6795 14.8091 17.7495 14.9991 17.7495Z" fill="#292D32"/>
</svg>
