<svg viewBox="0 0 24 24" fill="none" xmlns="http://www.w3.org/2000/svg">
<path fill-rule="evenodd" clip-rule="evenodd" d="M14 6.75H10C9.14853 6.75 7.64412 6.75 7.31485 4.83121C4.9534 5.10819 3.75 6.15576 3.75 10.0002V16.0002C3.75 19.7002 4.48 21.2502 9 21.2502H14C14.41 21.2502 14.75 21.5902 14.75 22.0002C14.75 22.4102 14.41 22.7502 14 22.7502H9C3.38 22.7502 2.25 20.1702 2.25 16.0002V10.0002C2.25 5.6997 3.71756 3.72059 7.29017 3.33313C7.56006 1.25 9.12488 1.25 10 1.25H14C14.8739 1.25 16.4355 1.25 16.7087 3.32423C20.2828 3.71952 21.7509 5.69803 21.7509 9.98993V14.9899C21.7509 15.4099 21.4109 15.7499 21.0009 15.7499C20.5909 15.7499 20.2509 15.4099 20.2509 14.9999V9.99993C20.2509 6.16699 19.0547 5.1142 16.7072 4.83344C16.5786 5.7422 16.0634 6.75 14 6.75ZM10 5.25C9.02608 5.25 8.75864 5.25 8.75021 4.05992C8.75117 4.037 8.75112 4.01379 8.75 3.99033C8.75135 2.75 9.01256 2.75 10 2.75H14C14.99 2.75 15.25 2.75 15.25 4C15.25 4.99 15.25 5.25 14 5.25H10ZM21 22.75H18C17.59 22.75 17.25 22.41 17.25 22C17.25 21.59 17.59 21.25 18 21.25H19.1895L14.4695 16.5299C14.1795 16.2399 14.1795 15.7599 14.4695 15.4699C14.7595 15.1799 15.2395 15.1799 15.5295 15.4699L20.25 20.1905V19C20.25 18.59 20.59 18.25 21 18.25C21.41 18.25 21.75 18.59 21.75 19V22C21.75 22.41 21.41 22.75 21 22.75Z" fill="#292D32"/>
</svg>
