<svg viewBox="0 0 24 24" fill="none" xmlns="http://www.w3.org/2000/svg">
<path fill-rule="evenodd" clip-rule="evenodd" d="M9.64977 2H14.3498C15.3898 2 16.2398 2.84 16.2298 3.88V4.82C16.2298 5.86 15.3898 6.7 14.3498 6.7H9.63977C8.59977 6.7 7.75977 5.86 7.75977 4.82V3.88C7.75977 2.84 8.60977 2 9.64977 2ZM13.0795 14.1699L14.5295 15.6199C14.8195 15.9199 14.8195 16.3899 14.5295 16.6799C14.3795 16.8299 14.1895 16.8999 13.9995 16.8999C13.8095 16.8999 13.6195 16.8299 13.4695 16.6799L12.0195 15.2299L10.5295 16.7199C10.3795 16.8699 10.1895 16.9399 9.99945 16.9399C9.80945 16.9399 9.61945 16.8699 9.46945 16.7199C9.17945 16.4299 9.17945 15.9499 9.46945 15.6599L10.9595 14.1699L9.50945 12.7199C9.21945 12.4299 9.21945 11.9499 9.50945 11.6599C9.79945 11.3699 10.2795 11.3699 10.5695 11.6599L12.0195 13.1099L13.4195 11.7099C13.7095 11.4199 14.1895 11.4199 14.4795 11.7099C14.7695 11.9999 14.7695 12.4799 14.4795 12.7699L13.0795 14.1699Z" fill="#292D32"/>
<path opacity="0.4" d="M16.2391 3.6499H7.75906C5.28906 3.6499 3.28906 5.6599 3.28906 8.1199V17.5299C3.28906 19.9899 5.29906 21.9999 7.75906 21.9999H16.2291C18.6991 21.9999 20.6991 19.9899 20.6991 17.5299V8.1199C20.7091 5.6499 18.6991 3.6499 16.2391 3.6499Z" fill="#292D32"/>
</svg>
