<svg viewBox="0 0 24 24" fill="none" xmlns="http://www.w3.org/2000/svg">
<path fill-rule="evenodd" clip-rule="evenodd" d="M14 6.75H10C9.14 6.75 7.61391 6.75 7.30531 4.77297C4.95016 5.05166 3.75 6.10158 3.75 9.94085V15.9408C3.75 19.6409 4.48 21.1908 9 21.1908H15C19.52 21.1908 20.25 19.6409 20.25 15.9408V9.94085C20.25 6.11259 19.0567 5.0577 16.7149 4.77539C16.5999 5.69872 16.1075 6.75 14 6.75ZM15.25 3.99364C15.25 3.99575 15.25 3.99787 15.25 4C15.25 4.99 15.25 5.25 14 5.25H10C9.01136 5.25 8.75071 5.25 8.75 4.00513C8.75109 3.98243 8.75119 3.95943 8.75024 3.93619C8.75922 2.75 9.02714 2.75 10 2.75H14C14.9705 2.75 15.2395 2.75 15.2497 3.92775C15.2488 3.94988 15.2489 3.97186 15.25 3.99364ZM16.7003 3.26433C16.4052 1.25 14.8654 1.25 14 1.25H10C9.1334 1.25 7.59046 1.25 7.29842 3.27287C3.71982 3.65819 2.25 5.63703 2.25 9.94085V15.9408C2.25 20.1108 3.38 22.6908 9 22.6908H15C20.62 22.6908 21.75 20.1108 21.75 15.9308V9.93085C21.75 5.63596 20.2798 3.6577 16.7003 3.26433ZM8 12.9502H15C15.41 12.9502 15.75 12.6102 15.75 12.2002C15.75 11.7902 15.41 11.4502 15 11.4502H8C7.59 11.4502 7.25 11.7902 7.25 12.2002C7.25 12.6102 7.59 12.9502 8 12.9502ZM8 16.9502H12.38C12.79 16.9502 13.13 16.6102 13.13 16.2002C13.13 15.7902 12.79 15.4502 12.38 15.4502H8C7.59 15.4502 7.25 15.7902 7.25 16.2002C7.25 16.6102 7.59 16.9502 8 16.9502Z" fill="#292D32"/>
</svg>
