<svg viewBox="0 0 24 24" fill="none" xmlns="http://www.w3.org/2000/svg">
<path fill-rule="evenodd" clip-rule="evenodd" d="M14 6.75H10C9.2698 6.75 8.0594 6.75 7.52176 5.53983C5.02372 5.78084 3.75 6.77572 3.75 10.7309V16.7309C3.75 20.4309 4.48 21.9809 9 21.9809H15C19.52 21.9809 20.25 20.4309 20.25 16.7309V10.7309C20.25 6.79153 18.9865 5.78885 16.5082 5.54275C16.2062 6.19805 15.5271 6.75 14 6.75ZM16.75 4.05994C16.75 4.03963 16.75 4.01964 16.75 4C16.75 1.25 14.96 1.25 14 1.25H10C9.04 1.25 7.25 1.25 7.25 4C7.25 4.02292 7.25012 4.04565 7.25037 4.06819C3.70665 4.46603 2.25 6.44638 2.25 10.7309V16.7309C2.25 20.9009 3.38 23.4809 9 23.4809H15C20.62 23.4809 21.75 20.9009 21.75 16.7209V10.7209C21.75 6.44591 20.2934 4.46613 16.75 4.05994ZM10 2.75C9.01 2.75 8.75 2.75 8.75 4C8.75 5.25 9.01 5.25 10 5.25H14C15.25 5.25 15.25 4.99 15.25 4C15.25 2.75 14.99 2.75 14 2.75H10ZM13.4705 16.6901C13.6205 16.8401 13.8105 16.9101 14.0005 16.9101C14.1905 16.9101 14.3805 16.8301 14.5305 16.6901C14.8205 16.4001 14.8205 15.9201 14.5305 15.6301L13.08 14.1796L14.4895 12.7702C14.7795 12.4802 14.7795 12.0002 14.4895 11.7102C14.1995 11.4202 13.7195 11.4202 13.4295 11.7102L12.02 13.1196L10.5705 11.6701C10.2805 11.3801 9.80047 11.3801 9.51047 11.6701C9.22047 11.9601 9.22047 12.4401 9.51047 12.7301L10.96 14.1796L9.46945 15.6702C9.17945 15.9602 9.17945 16.4402 9.46945 16.7302C9.61945 16.8802 9.80945 16.9502 9.99945 16.9502C10.1895 16.9502 10.3795 16.8802 10.5295 16.7302L12.02 15.2396L13.4705 16.6901Z" fill="#292D32"/>
</svg>
