<svg viewBox="0 0 24 24" fill="none" xmlns="http://www.w3.org/2000/svg">
<path fill-rule="evenodd" clip-rule="evenodd" d="M9.64977 2H14.3498C15.3898 2 16.2398 2.84 16.2298 3.88V4.82C16.2298 5.86 15.3898 6.7 14.3498 6.7H9.63977C8.59977 6.7 7.75977 5.86 7.75977 4.82V3.88C7.75977 2.84 8.60977 2 9.64977 2ZM14.3491 7.70949C15.9391 7.70949 17.2391 6.40949 17.2391 4.81949C17.2391 4.25949 17.8391 3.90949 18.3391 4.16949C19.7491 4.91949 20.7091 6.40949 20.7091 8.11949V17.5295C20.7091 19.9895 18.6991 21.9995 16.2391 21.9995H7.75906C5.29906 21.9995 3.28906 19.9895 3.28906 17.5295V8.11949C3.28906 6.40949 4.24906 4.91949 5.65906 4.16949C6.15906 3.90949 6.75906 4.25949 6.75906 4.81949C6.75906 6.40949 8.05906 7.70949 9.64906 7.70949H14.3491ZM11.3391 16.7295L15.3391 12.7295C15.6291 12.4395 15.6291 11.9595 15.3391 11.6695C15.0491 11.3795 14.5691 11.3795 14.2791 11.6695L10.8091 15.1395L9.83906 14.1695C9.54906 13.8795 9.06906 13.8795 8.77906 14.1695C8.48906 14.4595 8.48906 14.9395 8.77906 15.2295L10.2791 16.7295C10.4291 16.8795 10.6191 16.9495 10.8091 16.9495C10.9991 16.9495 11.1891 16.8795 11.3391 16.7295Z" fill="#292D32"/>
</svg>
