<svg viewBox="0 0 24 24" fill="none" xmlns="http://www.w3.org/2000/svg">
<path fill-rule="evenodd" clip-rule="evenodd" d="M9.64977 2H14.3498C15.3898 2 16.2398 2.84 16.2298 3.88V4.82C16.2298 5.86 15.3898 6.7 14.3498 6.7H9.63977C8.59977 6.7 7.75977 5.86 7.75977 4.82V3.88C7.75977 2.84 8.60977 2 9.64977 2ZM14.3491 7.70949C15.9391 7.70949 17.2391 6.40949 17.2391 4.81949C17.2391 4.25949 17.8391 3.90949 18.3391 4.16949C19.7491 4.91949 20.7091 6.40949 20.7091 8.11949V17.5295C20.7091 19.9895 18.6991 21.9995 16.2391 21.9995H7.75906C5.29906 21.9995 3.28906 19.9895 3.28906 17.5295V8.11949C3.28906 6.40949 4.24906 4.91949 5.65906 4.16949C6.15906 3.90949 6.75906 4.25949 6.75906 4.81949C6.75906 6.40949 8.05906 7.70949 9.64906 7.70949H14.3491ZM7.99906 16.9495H12.3791C12.7891 16.9495 13.1291 16.6095 13.1291 16.1995C13.1291 15.7895 12.7891 15.4495 12.3791 15.4495H7.99906C7.58906 15.4495 7.24906 15.7895 7.24906 16.1995C7.24906 16.6095 7.58906 16.9495 7.99906 16.9495ZM7.99906 12.9495H14.9991C15.4091 12.9495 15.7491 12.6095 15.7491 12.1995C15.7491 11.7895 15.4091 11.4495 14.9991 11.4495H7.99906C7.58906 11.4495 7.24906 11.7895 7.24906 12.1995C7.24906 12.6095 7.58906 12.9495 7.99906 12.9495Z" fill="#292D32"/>
</svg>
