<svg viewBox="0 0 24 24" fill="none" xmlns="http://www.w3.org/2000/svg">
<path fill-rule="evenodd" clip-rule="evenodd" d="M14 6.75H10C9.2698 6.75 8.0594 6.75 7.52176 5.53983C5.02372 5.78084 3.75 6.77572 3.75 10.7309V16.7309C3.75 20.4309 4.48 21.9809 9 21.9809H15C19.52 21.9809 20.25 20.4309 20.25 16.7309V10.7309C20.25 6.79153 18.9865 5.78885 16.5082 5.54275C16.2062 6.19805 15.5271 6.75 14 6.75ZM16.75 4.05994C16.75 4.03963 16.75 4.01964 16.75 4C16.75 1.25 14.96 1.25 14 1.25H10C9.04 1.25 7.25 1.25 7.25 4C7.25 4.02292 7.25012 4.04565 7.25037 4.06819C3.70665 4.46603 2.25 6.44638 2.25 10.7309V16.7309C2.25 20.9009 3.38 23.4809 9 23.4809H15C20.62 23.4809 21.75 20.9009 21.75 16.7209V10.7209C21.75 6.44591 20.2934 4.46613 16.75 4.05994ZM10 2.75C9.01 2.75 8.75 2.75 8.75 4C8.75 5.25 9.01 5.25 10 5.25H14C15.25 5.25 15.25 4.99 15.25 4C15.25 2.75 14.99 2.75 14 2.75H10ZM10.81 16.9501C10.62 16.9501 10.43 16.8801 10.28 16.7301L8.78 15.2301C8.49 14.9401 8.49 14.4601 8.78 14.1701C9.07 13.8801 9.55 13.8801 9.84 14.1701L10.81 15.1401L14.28 11.6701C14.57 11.3801 15.05 11.3801 15.34 11.6701C15.63 11.9601 15.63 12.4401 15.34 12.7301L11.34 16.7301C11.2 16.8801 11 16.9501 10.81 16.9501Z" fill="#292D32"/>
</svg>
