<svg viewBox="0 0 24 24" fill="none" xmlns="http://www.w3.org/2000/svg">
<path fill-rule="evenodd" clip-rule="evenodd" d="M9.64977 2H14.3498C15.3898 2 16.2398 2.84 16.2298 3.88V4.82C16.2298 5.86 15.3898 6.7 14.3498 6.7H9.63977C8.59977 6.7 7.75977 5.86 7.75977 4.82V3.88C7.75977 2.84 8.60977 2 9.64977 2ZM10.81 11.75L15.53 16.47C15.82 16.76 15.82 17.24 15.53 17.53C15.38 17.68 15.19 17.75 15 17.75C14.81 17.75 14.62 17.68 14.47 17.53L9.75 12.81V14C9.75 14.41 9.41 14.75 9 14.75C8.59 14.75 8.25 14.41 8.25 14V11C8.25 10.59 8.59 10.25 9 10.25H12C12.41 10.25 12.75 10.59 12.75 11C12.75 11.41 12.41 11.75 12 11.75H10.81Z" fill="#292D32"/>
<path opacity="0.4" d="M15.95 4H7.47C5 4 3 6.01 3 8.47V17.88C3 20.34 5.01 22.35 7.47 22.35H15.94C18.41 22.35 20.41 20.34 20.41 17.88V8.47C20.42 6 18.41 4 15.95 4Z" fill="#292D32"/>
</svg>
