<svg viewBox="0 0 24 24" fill="none" xmlns="http://www.w3.org/2000/svg">
<path fill-rule="evenodd" clip-rule="evenodd" d="M12 22.75C6.07 22.75 1.25 17.93 1.25 12C1.25 6.07 6.07 1.25 12 1.25C17.93 1.25 22.75 6.07 22.75 12C22.75 17.93 17.93 22.75 12 22.75ZM12 2.75C6.9 2.75 2.75 6.9 2.75 12C2.75 17.1 6.9 21.25 12 21.25C17.1 21.25 21.25 17.1 21.25 12C21.25 6.9 17.1 2.75 12 2.75ZM9.16937 15.5801C8.97937 15.5801 8.78938 15.5101 8.63937 15.3601C8.34937 15.0701 8.34937 14.5901 8.63937 14.3001L10.9394 12.0001L8.63937 9.70011C8.34937 9.41011 8.34937 8.93011 8.63937 8.64011C8.92937 8.35011 9.40937 8.35011 9.69937 8.64011L11.9994 10.9401L14.2994 8.64011C14.5894 8.35011 15.0694 8.35011 15.3594 8.64011C15.6494 8.93011 15.6494 9.41011 15.3594 9.70011L13.0594 12.0001L15.3594 14.3001C15.6494 14.5901 15.6494 15.0701 15.3594 15.3601C15.2094 15.5101 15.0194 15.5801 14.8294 15.5801C14.6394 15.5801 14.4494 15.5101 14.2994 15.3601L11.9994 13.0601L9.69937 15.3601C9.55937 15.5101 9.35938 15.5801 9.16937 15.5801Z" fill="#292D32"/>
</svg>
