<svg viewBox="0 0 24 24" fill="none" xmlns="http://www.w3.org/2000/svg">
<path fill-rule="evenodd" clip-rule="evenodd" d="M14.9707 22.75H8.9707C3.5407 22.75 1.2207 20.43 1.2207 15V9C1.2207 3.57 3.5407 1.25 8.9707 1.25H14.9707C20.4007 1.25 22.7207 3.57 22.7207 9V15C22.7207 20.43 20.4107 22.75 14.9707 22.75ZM8.9707 2.75C4.3607 2.75 2.7207 4.39 2.7207 9V15C2.7207 16.508 2.89619 17.6982 3.29372 18.6172L18.5879 3.32302C17.6689 2.92549 16.4787 2.75 14.9707 2.75H8.9707ZM19.8544 4.17652L4.14722 19.8837C5.13506 20.8483 6.68914 21.25 8.9707 21.25H14.9707C19.5807 21.25 21.2207 19.61 21.2207 15V9C21.2207 6.71844 20.819 5.16436 19.8544 4.17652ZM15.3105 18C15.3105 18.41 15.6505 18.75 16.0605 18.75C16.4705 18.75 16.8105 18.41 16.8105 18V16.25H18.5C18.91 16.25 19.25 15.91 19.25 15.5C19.25 15.09 18.91 14.75 18.5 14.75H16.8105V13C16.8105 12.59 16.4705 12.25 16.0605 12.25C15.6505 12.25 15.3105 12.59 15.3105 13V14.75H13.5C13.09 14.75 12.75 15.09 12.75 15.5C12.75 15.91 13.09 16.25 13.5 16.25H15.3105V18ZM5.5 8.25H10.5C10.91 8.25 11.25 7.91 11.25 7.5C11.25 7.09 10.91 6.75 10.5 6.75H5.5C5.09 6.75 4.75 7.09 4.75 7.5C4.75 7.91 5.09 8.25 5.5 8.25Z" fill="#292D32"/>
</svg>
