<svg viewBox="0 0 24 24" fill="none" xmlns="http://www.w3.org/2000/svg">
<path fill-rule="evenodd" clip-rule="evenodd" d="M7.81 2H16.19C17.68 2 18.92 2.36 19.87 3.05L3.05 19.87C2.36 18.92 2 17.68 2 16.19V7.81C2 4.17 4.17 2 7.81 2ZM5.5 8.25H10.5C10.91 8.25 11.25 7.91 11.25 7.5C11.25 7.09 10.91 6.75 10.5 6.75H5.5C5.09 6.75 4.75 7.09 4.75 7.5C4.75 7.91 5.09 8.25 5.5 8.25ZM4.13086 20.9489L20.9509 4.12891C21.6409 5.07891 22.0009 6.31891 22.0009 7.80891V16.1889C22.0009 19.8289 19.8309 21.9989 16.1909 21.9989H7.81086C6.32086 21.9989 5.08086 21.6389 4.13086 20.9489ZM16.8109 16.2489H18.5009C18.9109 16.2489 19.2509 15.9089 19.2509 15.4989C19.2509 15.0889 18.9109 14.7489 18.5009 14.7489H16.8109V12.9989C16.8109 12.5889 16.4709 12.2489 16.0609 12.2489C15.6509 12.2489 15.3109 12.5889 15.3109 12.9989V14.7489H13.5009C13.0909 14.7489 12.7509 15.0889 12.7509 15.4989C12.7509 15.9089 13.0909 16.2489 13.5009 16.2489H15.3109V17.9989C15.3109 18.4089 15.6509 18.7489 16.0609 18.7489C16.4709 18.7489 16.8109 18.4089 16.8109 17.9989V16.2489Z" fill="#292D32"/>
</svg>
