<svg viewBox="0 0 24 24" fill="none" xmlns="http://www.w3.org/2000/svg">
<path fill-rule="evenodd" clip-rule="evenodd" d="M16.57 11.68L16.58 7.13C16.58 6.72 16.25 6.38 15.83 6.38C15.42 6.38 15.08 6.72 15.08 7.13L15.07 9.87L8.21 3C7.78 3.27 7.38 3.57 7 3.89C7.03 3.93 7.06 3.97 7.1 4.01L15.29 12.21C15.43 12.35 15.62 12.43 15.82 12.43C15.91 12.43 16.01 12.41 16.1 12.37C16.38 12.26 16.57 11.99 16.57 11.68ZM17.3309 20.5101C17.7609 20.2401 18.1609 19.9401 18.5409 19.6201C18.5109 19.5801 18.4809 19.5401 18.4409 19.5001L10.2509 11.3001C10.0409 11.0801 9.71094 11.0201 9.44094 11.1401C9.16094 11.2501 8.97094 11.5201 8.97094 11.8301L8.96094 16.3801C8.96094 16.7901 9.29094 17.1301 9.71094 17.1301C10.1209 17.1301 10.4609 16.7901 10.4609 16.3801L10.4709 13.6401L17.3309 20.5101Z" fill="#292D32"/>
<path opacity="0.4" d="M22.0293 12.03C22.0293 15.06 20.6793 17.78 18.5393 19.62C18.1593 19.94 17.7593 20.24 17.3293 20.51C15.7993 21.47 13.9793 22.03 12.0293 22.03C6.5093 22.03 2.0293 17.55 2.0293 12.03C2.0293 9.00003 3.3793 6.28003 5.5193 4.44003C5.8993 4.12003 6.2993 3.82003 6.7293 3.55003C8.2593 2.59003 10.0793 2.03003 12.0293 2.03003C17.5493 2.03003 22.0293 6.51003 22.0293 12.03Z" fill="#292D32"/>
</svg>
