<svg viewBox="0 0 24 24" fill="none" xmlns="http://www.w3.org/2000/svg">
<path fill-rule="evenodd" clip-rule="evenodd" d="M14.5 6.22993C13.9134 6.22993 13.3269 6.15985 12.75 6.01967V7.25H17C19.42 7.25 20.75 8.58 20.75 11V21.25H22C22.41 21.25 22.75 21.59 22.75 22C22.75 22.41 22.41 22.75 22 22.75H20H4H2C1.59 22.75 1.25 22.41 1.25 22C1.25 21.59 1.59 21.25 2 21.25H3.25V11C3.25 8.58 4.58 7.25 7 7.25H11.25V5L11.25 4.995L11.25 4.98994V1.98994C11.25 1.73994 11.37 1.50995 11.58 1.36995C11.79 1.22995 12.05 1.19993 12.28 1.28993C13.71 1.85993 15.29 1.85993 16.72 1.28993C16.95 1.19993 17.21 1.22995 17.42 1.36995C17.63 1.50995 17.75 1.73994 17.75 1.98994V4.98994C17.75 5.29994 17.56 5.56995 17.28 5.68995C16.38 6.04995 15.44 6.22993 14.5 6.22993ZM19.25 21.25V12.75H16.7402V21.25H19.25ZM15.2402 21.25H12.7402V12.75H15.2402V21.25ZM11.2402 21.25V12.75H8.74023V21.25H11.2402ZM7.24023 21.25H4.75V12.75H7.24023V21.25ZM19.25 11V11.25H4.75V11C4.75 9.42 5.42 8.75 7 8.75H12H17C18.58 8.75 19.25 9.42 19.25 11ZM16.25 4.46992C15.11 4.81992 13.89 4.81992 12.75 4.46992V3.01997C13.9 3.29997 15.1 3.29997 16.25 3.01997V4.46992Z" fill="#292D32"/>
</svg>
