<svg viewBox="0 0 24 24" fill="none" xmlns="http://www.w3.org/2000/svg">
<path fill-rule="evenodd" clip-rule="evenodd" d="M11.4004 16.727C8.53277 16.506 6.09484 14.7141 4.94934 12.2139C4.28008 11.9375 3.6549 11.5146 3.12039 10.9801C1.97039 9.7101 1.40039 8.3201 1.40039 6.8501C1.40039 5.0301 2.83039 3.6001 4.65039 3.6001H4.90159C5.72733 2.19488 7.25498 1.25 9 1.25H15C16.7284 1.25 18.2435 2.17696 19.0746 3.56006H19.3507C21.1407 3.56006 22.6007 5.06006 22.6007 6.91006C22.6007 8.44006 21.9707 9.95006 20.8807 11.0401C20.869 11.0518 20.8435 11.0738 20.8225 11.092C20.8076 11.1049 20.7948 11.1159 20.7907 11.1201C20.2892 11.5366 19.7299 11.9964 19.0207 12.2785C17.904 14.6575 15.6125 16.382 12.9004 16.6979V18.25H15.1504C16.6704 18.25 17.9004 19.48 17.9004 21V21.25H18.1504C18.5604 21.25 18.9004 21.59 18.9004 22C18.9004 22.41 18.5604 22.75 18.1504 22.75H17.9004H6.40039H6.15039C5.74039 22.75 5.40039 22.41 5.40039 22C5.40039 21.59 5.74039 21.25 6.15039 21.25H6.40039V21C6.40039 19.48 7.63039 18.25 9.15039 18.25H11.4004V16.727ZM17.68 11.61C16.6906 13.7579 14.5185 15.25 12 15.25C9.4919 15.25 7.32732 13.7702 6.33235 11.6366C6.3315 11.5399 6.31152 11.4426 6.27039 11.3501C5.92039 10.5501 5.75039 9.7101 5.75039 8.8501V5.94932C5.77764 4.18252 7.22692 2.75 9 2.75H15C16.79 2.75 18.25 4.21 18.25 6V9C18.25 9.00219 18.25 9.00437 18.25 9.00656C18.2379 9.84147 18.0681 10.6389 17.7407 11.3901C17.7081 11.4606 17.6881 11.5349 17.68 11.61ZM19.6719 10.1007C19.6976 10.0794 19.7216 10.0597 19.7457 10.0401C19.7732 10.0176 19.8007 9.99506 19.8307 9.97006C20.6307 9.17006 21.1007 8.05006 21.1007 6.91006C21.1007 6.01006 20.4907 5.25006 19.6807 5.09006C19.7307 5.36006 19.7507 5.64006 19.7507 5.91006V8.91006C19.7507 8.94669 19.7505 8.98317 19.75 9.0195C19.7491 9.38635 19.7225 9.74734 19.6719 10.1007ZM4.25039 5.93858V5.8501C4.25039 5.6101 4.27039 5.3701 4.30039 5.1301C3.49039 5.2901 2.90039 5.9901 2.90039 6.8501C2.90039 7.9401 3.34039 8.9901 4.21039 9.9501C4.2428 9.99061 4.28178 10.0246 4.32201 10.0573C4.27453 9.71148 4.25 9.35852 4.25 9V6C4.25 5.9795 4.25013 5.95902 4.25039 5.93858ZM16.4004 21V21.25H7.90039V21C7.90039 20.31 8.46039 19.75 9.15039 19.75H15.1504C15.8404 19.75 16.4004 20.31 16.4004 21Z" fill="#292D32"/>
</svg>
