<svg viewBox="0 0 24 24" fill="none" xmlns="http://www.w3.org/2000/svg">
<path fill-rule="evenodd" clip-rule="evenodd" d="M20.1793 10.52C19.7193 10.98 19.1393 11.39 18.4793 11.64C17.4393 14.2 14.9393 16 11.9993 16C9.0593 16 6.5593 14.2 5.5193 11.64C4.8593 11.39 4.2793 10.98 3.8193 10.52C2.8893 9.49 2.2793 8.26 2.2793 6.82C2.2793 5.38 3.4093 4.25 4.8493 4.25H5.4093C6.0593 2.92 7.4193 2 8.9993 2H14.9993C16.5793 2 17.9393 2.92 18.5893 4.25H19.1493C20.5893 4.25 21.7193 5.38 21.7193 6.82C21.7193 8.26 21.1093 9.49 20.1793 10.52ZM14.2193 9.21L14.8393 8.45C15.2293 7.99 15.0593 7.48 14.4793 7.33L13.5293 7.09C13.3793 7.05 13.1993 6.91 13.1193 6.78L12.5893 5.96C12.2593 5.45 11.7393 5.45 11.4093 5.96L10.8793 6.78C10.7993 6.91 10.6193 7.05 10.4693 7.09L9.5193 7.33C8.9393 7.48 8.7693 7.99 9.1593 8.45L9.7793 9.21C9.8793 9.32 9.9493 9.54 9.9393 9.69L9.8793 10.67C9.8393 11.27 10.2693 11.58 10.8293 11.36L11.7393 11C11.8793 10.95 12.1193 10.95 12.2593 11L13.1693 11.36C13.7293 11.58 14.1593 11.27 14.1193 10.67L14.0593 9.69C14.0493 9.54 14.1193 9.32 14.2193 9.21ZM9 18.2509H11.25V15.9609C11.5 15.9909 11.75 16.0009 12 16.0009C12.25 16.0009 12.5 15.9909 12.75 15.9609V18.2509H15C16.1 18.2509 17 19.1509 17 20.2509V20.5009H18C18.41 20.5009 18.75 20.8409 18.75 21.2509C18.75 21.6609 18.41 22.0009 18 22.0009H6C5.59 22.0009 5.25 21.6609 5.25 21.2509C5.25 20.8409 5.59 20.5009 6 20.5009H7V20.2509C7 19.1509 7.9 18.2509 9 18.2509Z" fill="#292D32"/>
</svg>
