<svg viewBox="0 0 24 24" fill="none" xmlns="http://www.w3.org/2000/svg">
<path fill-rule="evenodd" clip-rule="evenodd" d="M5.94046 22.1601H18.0605C20.0105 22.1601 21.5005 21.4501 22.2605 20.1801C23.0205 18.8901 22.9105 17.2501 21.9605 15.5401L15.9005 4.63009C14.9005 2.83009 13.5205 1.84009 12.0005 1.84009C10.4805 1.84009 9.10046 2.83009 8.10046 4.63009L2.04046 15.5301C1.09046 17.2401 0.990464 18.8901 1.74046 20.1701C2.50046 21.4501 3.99046 22.1601 5.94046 22.1601ZM9.41046 5.36009C10.1405 4.06009 11.0605 3.34009 12.0005 3.34009C12.9405 3.34009 13.8605 4.06009 14.5905 5.36009L20.6605 16.2701C21.3405 17.5001 21.4605 18.6101 20.9805 19.4201C20.5005 20.2301 19.4705 20.6701 18.0705 20.6701H5.95046C4.55046 20.6701 3.51046 20.2301 3.04046 19.4201C2.57046 18.6101 2.68046 17.4901 3.36046 16.2701L9.41046 5.36009ZM12 14.75C11.59 14.75 11.25 14.41 11.25 14V9C11.25 8.59 11.59 8.25 12 8.25C12.41 8.25 12.75 8.59 12.75 9V14C12.75 14.41 12.41 14.75 12 14.75ZM12 18.0001C11.94 18.0001 11.87 17.9901 11.8 17.9801C11.74 17.9701 11.68 17.9501 11.62 17.9201C11.56 17.9001 11.5 17.8701 11.44 17.8301L11.29 17.7101C11.11 17.5201 11 17.2601 11 17.0001C11 16.7401 11.11 16.4801 11.29 16.2901L11.44 16.1701C11.5 16.1301 11.56 16.1001 11.62 16.0801C11.68 16.0501 11.74 16.0301 11.8 16.0201C11.93 15.9901 12.07 15.9901 12.19 16.0201C12.26 16.0301 12.32 16.0501 12.38 16.0801C12.44 16.1001 12.5 16.1301 12.56 16.1701L12.71 16.2901C12.89 16.4801 13 16.7401 13 17.0001C13 17.2601 12.89 17.5201 12.71 17.7101L12.56 17.8301C12.5 17.8701 12.44 17.9001 12.38 17.9201C12.32 17.9501 12.26 17.9701 12.19 17.9801C12.13 17.9901 12.06 18.0001 12 18.0001Z" fill="#292D32"/>
</svg>
