<svg viewBox="0 0 24 24" fill="none" xmlns="http://www.w3.org/2000/svg">
<path fill-rule="evenodd" clip-rule="evenodd" d="M20 13.9V12.2C19.62 12.33 19.2 12.4 18.75 12.4H16.15L13.26 14.33C12.83 14.61 12.25 14.3 12.25 13.79V12.4C11.28 12.4 10.46 12.08 9.89 11.51C9.32 10.94 9 10.12 9 9.15002V5.25C9 4.8 9.07 4.38 9.2 4H6.5C3.8 4 2 5.35 2 8.5V13.9C2 17.05 3.8 18.4 6.5 18.4H15.5C18.2 18.4 20 17.05 20 13.9ZM14.6895 7.25C14.6895 7.66 15.0195 8 15.4395 8C15.8495 8 16.1895 7.66 16.1895 7.25C16.1895 6.84 15.8495 6.5 15.4395 6.5C15.0295 6.5 14.6895 6.84 14.6895 7.25ZM18.25 8C17.83 8 17.5 7.66 17.5 7.25C17.5 6.84 17.84 6.5 18.25 6.5C18.66 6.5 19 6.84 19 7.25C19 7.66 18.66 8 18.25 8ZM11.8691 7.25C11.8691 7.66 12.1991 8 12.6191 8C13.0391 8 13.3691 7.66 13.3691 7.25C13.3691 6.84 13.0291 6.5 12.6191 6.5C12.2091 6.5 11.8691 6.84 11.8691 7.25Z" fill="#292D32"/>
<path opacity="0.4" fill-rule="evenodd" clip-rule="evenodd" d="M22 9.15002V5.25C22 3.3 20.7 2 18.75 2H12.25C10.76 2 9.64 2.76 9.2 4C9.07 4.38 9 4.8 9 5.25V9.15002C9 10.12 9.32 10.94 9.89 11.51C10.46 12.08 11.28 12.4 12.25 12.4V13.79C12.25 14.3 12.83 14.61 13.26 14.33L16.15 12.4H18.75C19.2 12.4 19.62 12.33 20 12.2C21.24 11.76 22 10.64 22 9.15002ZM11.7504 21.2499H14.6004C15.0104 21.2499 15.3504 21.5899 15.3504 21.9999C15.3504 22.4099 15.0104 22.7499 14.6004 22.7499H7.40039C6.99039 22.7499 6.65039 22.4099 6.65039 21.9999C6.65039 21.5899 6.99039 21.2499 7.40039 21.2499H10.2504V18.3999C10.2504 17.9899 10.5904 17.6499 11.0004 17.6499C11.4104 17.6499 11.7504 17.9899 11.7504 18.3999V21.2499Z" fill="#292D32"/>
</svg>
