<svg viewBox="0 0 24 24" fill="none" xmlns="http://www.w3.org/2000/svg">
<path fill-rule="evenodd" clip-rule="evenodd" d="M12.9611 15.1789C12.7936 15.1861 12.6256 15.1633 12.4651 15.1094C12.3847 15.0831 12.306 15.0498 12.23 15.01C11.78 14.77 11.5 14.3 11.5 13.79V13.09C10.66 12.96 9.92 12.59 9.36 12.04C8.65 11.33 8.25 10.3 8.25 9.15002V5.25C8.25 5.08014 8.25822 4.91337 8.27465 4.75H6.5C3.98 4.75 2.75 5.98 2.75 8.5V13.9C2.75 16.42 3.98 17.65 6.5 17.65H10.9866L11 17.6499L11.0134 17.65H15.5C18.02 17.65 19.25 16.42 19.25 13.9V13.1247C19.0854 13.1416 18.9188 13.15 18.75 13.15H16.38L13.68 14.95C13.4581 15.0979 13.2105 15.169 12.9611 15.1789ZM11.75 19.15H15.5C18.84 19.15 20.75 17.24 20.75 13.89V12.6925C22.0155 12.0335 22.75 10.7497 22.75 9.15002V5.25C22.75 2.89 21.1 1.25 18.75 1.25H12.25C10.6544 1.25 9.37311 1.98865 8.71262 3.25H6.5C3.16 3.25 1.25 5.16 1.25 8.5V13.9C1.25 17.24 3.16 19.15 6.5 19.15H10.25V21.25H7.40039C6.99039 21.25 6.65039 21.59 6.65039 22C6.65039 22.41 6.99039 22.75 7.40039 22.75H14.6004C15.0104 22.75 15.3504 22.41 15.3504 22C15.3504 21.59 15.0104 21.25 14.6004 21.25H11.75V19.15ZM9.75 5.25C9.75 4.89 9.81 4.55 9.91 4.25C10.25 3.3 11.1 2.75 12.25 2.75V2.73999H18.75C20.29 2.73999 21.25 3.69999 21.25 5.23999V9.14001C21.25 10.29 20.71 11.14 19.76 11.48C19.45 11.59 19.11 11.64 18.75 11.64H16.15C16 11.64 15.85 11.69 15.73 11.77L13 13.6V12.4C13 11.99 12.66 11.65 12.25 11.65C11.49 11.65 10.86 11.42 10.42 10.98C9.98 10.54 9.75 9.91002 9.75 9.15002V5.25ZM12.6211 8C12.2011 8 11.8711 7.66 11.8711 7.25C11.8711 6.84 12.2111 6.5 12.6211 6.5C13.0311 6.5 13.3711 6.84 13.3711 7.25C13.3711 7.66 13.0411 8 12.6211 8ZM15.4395 8C15.0195 8 14.6895 7.66 14.6895 7.25C14.6895 6.84 15.0295 6.5 15.4395 6.5C15.8495 6.5 16.1895 6.84 16.1895 7.25C16.1895 7.66 15.8495 8 15.4395 8ZM17.5 7.25C17.5 7.66 17.83 8 18.25 8C18.66 8 19 7.66 19 7.25C19 6.84 18.66 6.5 18.25 6.5C17.84 6.5 17.5 6.84 17.5 7.25Z" fill="#292D32"/>
</svg>
