<svg viewBox="0 0 24 24" fill="none" xmlns="http://www.w3.org/2000/svg">
<path fill-rule="evenodd" clip-rule="evenodd" d="M7.81 2H16.19C19.83 2 22 4.17 22 7.81V10.85C21.78 10.77 21.54 10.73 21.3 10.73H17.82C16.27 10.73 14.88 11.59 14.19 12.97L13.44 14.45H10.58L9.83 12.98C9.14 11.59 7.75 10.73 6.2 10.73H2.7C2.46 10.73 2.22 10.77 2 10.85V7.81C2 4.17 4.17 2 7.81 2ZM13.55 5.41H10.45C10.07 5.41 9.75 5.72 9.75 6.1C9.75 6.49 10.07 6.8 10.45 6.8H13.55C13.93 6.8 14.25 6.49 14.25 6.1C14.25 5.72 13.93 5.41 13.55 5.41ZM9.67 9.59H14.33C14.71 9.59 15.02 9.28 15.02 8.9C15.02 8.51 14.71 8.2 14.33 8.2H9.67C9.29 8.2 8.98 8.51 8.98 8.9C8.98 9.28 9.29 9.59 9.67 9.59ZM17.82 12H21.3C21.69 12 22 12.32 22 12.7V16.55C21.74 19.89 19.63 21.77 16.2 21.77H7.82C4.18 21.77 2 19.6 2 15.97V12.71C2 12.32 2.31 12.01 2.7 12.01H6.2C7.17 12.01 8.05 12.56 8.49 13.43L9.33 15.08C9.62 15.66 10.06 15.73 10.37 15.73H13.65C14.09 15.73 14.49 15.48 14.69 15.08L15.53 13.42C15.97 12.54 16.84 12 17.82 12Z" fill="#292D32"/>
</svg>
