<svg viewBox="0 0 24 24" fill="none" xmlns="http://www.w3.org/2000/svg">
<path fill-rule="evenodd" clip-rule="evenodd" d="M12.75 2C12.75 1.59 12.41 1.25 12 1.25C11.59 1.25 11.25 1.59 11.25 2V4H7.81C4.17 4 2 6.17 2 9.81V10.85C2.22 10.77 2.46 10.73 2.7 10.73H6.2C7.75 10.73 9.14 11.59 9.83 12.98L10.58 14.45H13.44L14.19 12.97C14.88 11.59 16.27 10.73 17.82 10.73H21.3C21.54 10.73 21.78 10.77 22 10.85V9.81C22 6.17 19.83 4 16.19 4H12.75V2ZM12.75 4V7.19L13.47 6.47C13.76 6.18 14.24 6.18 14.53 6.47C14.82 6.76 14.82 7.24 14.53 7.53L12.53 9.53C12.46 9.6 12.37 9.66 12.28 9.69C12.19 9.73 12.1 9.75 12 9.75C11.9 9.75 11.81 9.73 11.71 9.69C11.63 9.66 11.56 9.61 11.49 9.55C11.49 9.54382 11.4862 9.54146 11.4809 9.5382C11.4776 9.53618 11.4738 9.53382 11.47 9.53L9.47 7.53C9.18 7.24 9.18 6.76 9.47 6.47C9.76 6.18 10.24 6.18 10.53 6.47L11.25 7.19V4H12.75ZM21.3 12.2305H17.82C16.84 12.2305 15.97 12.7705 15.53 13.6505L14.69 15.3105C14.49 15.7105 14.09 15.9605 13.65 15.9605H10.37C10.06 15.9605 9.62 15.8905 9.33 15.3105L8.49 13.6605C8.05 12.7905 7.17 12.2405 6.2 12.2405H2.7C2.31 12.2405 2 12.5505 2 12.9405V16.2005C2 19.8305 4.18 22.0005 7.82 22.0005H16.2C19.63 22.0005 21.74 20.1205 22 16.7805V12.9305C22 12.5505 21.69 12.2305 21.3 12.2305Z" fill="#292D32"/>
</svg>
