<svg viewBox="0 0 24 24" fill="none" xmlns="http://www.w3.org/2000/svg">
<path fill-rule="evenodd" clip-rule="evenodd" d="M11.9995 8.74999C11.5895 8.74999 11.2495 8.40999 11.2495 7.99999V3.80999L10.5295 4.52999C10.2395 4.81999 9.75945 4.81999 9.46945 4.52999C9.17945 4.23999 9.17945 3.75999 9.46945 3.46999L11.4645 1.47496L11.4695 1.46994C11.5615 1.37785 11.6728 1.315 11.7911 1.2814C11.9466 1.23651 12.1165 1.24087 12.2723 1.3029C12.2821 1.30668 12.2919 1.31067 12.3015 1.31487C12.405 1.35776 12.4943 1.42404 12.5654 1.5059L14.5295 3.46994C14.8195 3.75994 14.8195 4.23994 14.5295 4.52994C14.3795 4.67994 14.1895 4.74994 13.9995 4.74994C13.8095 4.74994 13.6195 4.67994 13.4695 4.52994L12.7495 3.80994V7.99999C12.7495 8.40999 12.4095 8.74999 11.9995 8.74999ZM2.25 17C2.25 19.7 2.25 22.75 8 22.75H16C19.82 22.75 21.75 20.82 21.77 17V16C21.77 14.3257 21.77 12.4878 19.7594 11.6759V10.0002C19.7594 8.06022 19.7594 5.65022 16.0794 5.30022C15.6594 5.25022 15.2994 5.56022 15.2594 5.97022C15.2194 6.38022 15.5194 6.75022 15.9294 6.79022C18.2494 7.01022 18.2494 7.95022 18.2494 10.0002V11.3158C17.8798 11.2728 17.4713 11.25 17.02 11.25C15.83 11.25 15.39 11.53 14.77 12C14.73 12.03 14.7 12.06 14.67 12.09L13.65 13.17C12.79 14.08 11.23 14.08 10.37 13.17L9.35 12.09C9.3317 12.0656 9.30967 12.0486 9.28846 12.0323C9.27491 12.0219 9.2617 12.0117 9.25 12C8.63 11.54 8.19 11.25 7 11.25C6.54027 11.25 6.12504 11.2736 5.75 11.3183V10.0002C5.75 7.95022 5.75 7.01022 8.07 6.80022C8.49 6.76022 8.79 6.39022 8.75 5.98022C8.71 5.56022 8.33 5.25022 7.93 5.30022C4.25 5.65022 4.25 8.06022 4.25 10.0002V11.6802C2.25 12.4943 2.25 14.3286 2.25 16V17ZM3.75 16C3.75 13.77 3.75 12.75 7 12.75C7.72 12.75 7.87 12.84 8.3 13.16L9.27 14.19C9.99 14.95 10.96 15.37 12 15.37C13.04 15.37 14.01 14.95 14.73 14.19L15.7 13.16C16.13 12.84 16.28 12.75 17 12.75C20.25 12.75 20.25 13.77 20.25 16V17C20.25 19.98 18.98 21.25 16 21.25H8C3.75 21.25 3.75 19.74 3.75 17V16Z" fill="#292D32"/>
</svg>
