<svg viewBox="0 0 24 24" fill="none" xmlns="http://www.w3.org/2000/svg">
<path fill-rule="evenodd" clip-rule="evenodd" d="M11.2495 8.99999C11.2495 9.40999 11.5895 9.74999 11.9995 9.74999C12.4095 9.74999 12.7495 9.40999 12.7495 8.99999V3.80994L13.4695 4.52994C13.6195 4.67994 13.8095 4.74994 13.9995 4.74994C14.1895 4.74994 14.3795 4.67994 14.5295 4.52994C14.8195 4.23994 14.8195 3.75994 14.5295 3.46994L12.5654 1.5059C12.4943 1.42404 12.405 1.35776 12.3015 1.31487C12.2919 1.31067 12.2821 1.30668 12.2723 1.3029C12.1165 1.24087 11.9466 1.23651 11.7911 1.2814C11.6728 1.315 11.5615 1.37785 11.4695 1.46994L11.4645 1.47496L9.46945 3.46999C9.17945 3.75999 9.17945 4.23999 9.46945 4.52999C9.75945 4.81999 10.2395 4.81999 10.5295 4.52999L11.2495 3.80999V8.99999ZM13.7605 17.75H10.2305C9.18047 17.75 8.24047 17.17 7.77047 16.23L6.60047 13.89C6.56047 13.8 6.47047 13.75 6.38047 13.75H2.75V14.9999C2.75 19.6099 4.39 21.2499 9 21.2499H15C19.61 21.2499 21.25 19.6099 21.25 14.9999V13.75H17.6405C17.5405 13.75 17.4605 13.8 17.4205 13.89L16.2505 16.23C15.7505 17.17 14.8105 17.75 13.7605 17.75ZM21.25 12.25H17.6405C16.9705 12.25 16.3705 12.62 16.0705 13.22L14.9005 15.56C14.6905 15.99 14.2605 16.25 13.7805 16.25H10.2505C9.77047 16.25 9.34047 15.99 9.13047 15.56L7.96047 13.22C7.66047 12.62 7.06047 12.25 6.39047 12.25H2.75V11.9999C2.75 8.04993 3.97 6.32993 7.11 5.86993C7.52 5.80993 7.8 5.42993 7.74 5.01993C7.68 4.60993 7.31 4.32993 6.89 4.38993C2.99 4.95993 1.25 7.30993 1.25 11.9999V12.8315C1.23723 12.8857 1.23047 12.9422 1.23047 13C1.23047 13.0578 1.23723 13.1143 1.25 13.1685V14.9999C1.25 20.4299 3.57 22.7499 9 22.7499H15C20.43 22.7499 22.75 20.4299 22.75 14.9999V13.0264C22.7503 13.0176 22.7505 13.0088 22.7505 13C22.7505 12.9912 22.7503 12.9824 22.75 12.9736V11.9999C22.75 7.30993 21.01 4.95993 17.11 4.38993C16.7 4.32993 16.32 4.60993 16.26 5.01993C16.2 5.42993 16.48 5.80993 16.89 5.86993C20.03 6.32993 21.25 8.04993 21.25 11.9999V12.25Z" fill="#292D32"/>
</svg>
