<svg viewBox="0 0 24 24" fill="none" xmlns="http://www.w3.org/2000/svg">
<path fill-rule="evenodd" clip-rule="evenodd" d="M19 8.75C16.93 8.75 15.25 7.07 15.25 5C15.25 2.93 16.93 1.25 19 1.25C21.07 1.25 22.75 2.93 22.75 5C22.75 7.07 21.07 8.75 19 8.75ZM19 2.75C17.76 2.75 16.75 3.76 16.75 5C16.75 6.24 17.76 7.25 19 7.25C20.24 7.25 21.25 6.24 21.25 5C21.25 3.76 20.24 2.75 19 2.75ZM13.7605 17.75H10.2305C9.13047 17.75 8.26047 17.21 7.77047 16.23L6.88047 14.44C6.67047 14.01 6.24047 13.75 5.76047 13.75H2.75V15C2.75 19.61 4.39 21.25 9 21.25H15C19.61 21.25 21.25 19.61 21.25 15V13.75H18.2405C17.7605 13.75 17.3305 14.01 17.1205 14.44L16.2305 16.23C15.7505 17.17 14.8105 17.75 13.7605 17.75ZM21.25 12.25H18.2405C17.1905 12.25 16.2505 12.83 15.7805 13.77L14.8905 15.56C14.6805 15.99 14.2505 16.25 13.7705 16.25H10.2405C9.72047 16.25 9.35047 16.02 9.12047 15.56L8.23047 13.77C7.76047 12.83 6.82047 12.25 5.77047 12.25H2.75V9C2.75 4.39 4.39 2.75 9 2.75H14C14.41 2.75 14.75 2.41 14.75 2C14.75 1.59 14.41 1.25 14 1.25H9C3.57 1.25 1.25 3.57 1.25 9V12.8315C1.23723 12.8857 1.23047 12.9422 1.23047 13C1.23047 13.0578 1.23723 13.1143 1.25 13.1685V15C1.25 20.43 3.57 22.75 9 22.75H15C20.43 22.75 22.75 20.43 22.75 15V10C22.75 9.59 22.41 9.25 22 9.25C21.59 9.25 21.25 9.59 21.25 10V12.25Z" fill="#292D32"/>
</svg>
