<svg viewBox="0 0 24 24" fill="none" xmlns="http://www.w3.org/2000/svg">
<path fill-rule="evenodd" clip-rule="evenodd" d="M12.5292 1.47023L14.5292 3.47023C14.8192 3.76023 14.8192 4.24023 14.5292 4.53023C14.3792 4.68023 14.1892 4.75023 13.9992 4.75023C13.8092 4.75023 13.6192 4.68023 13.4692 4.53023L12.7492 3.81023V9.00023C12.7492 9.41023 12.4192 9.75023 12.0092 9.75023C11.5992 9.75023 11.2592 9.41023 11.2592 9.00023V3.80023L10.5392 4.52023C10.2492 4.81023 9.76922 4.81023 9.47922 4.52023C9.18922 4.23023 9.18922 3.75023 9.47922 3.46023L11.4792 1.46023C11.5392 1.39023 11.6192 1.35023 11.6992 1.31023C11.7192 1.30023 11.7392 1.29023 11.7692 1.28023C11.8292 1.26023 11.8892 1.24023 11.9492 1.24023H12.0292C12.1092 1.25023 12.1892 1.26023 12.2692 1.29023C12.275 1.29598 12.2774 1.29843 12.2804 1.29947C12.2825 1.30023 12.285 1.30023 12.2892 1.30023C12.3692 1.34023 12.4492 1.39023 12.5092 1.45023C12.5092 1.45641 12.513 1.45878 12.5183 1.46204C12.5216 1.46405 12.5254 1.46641 12.5292 1.47023ZM17.82 12H21.3C21.69 12 22 12.32 22 12.7V16.55C21.74 19.89 19.63 21.77 16.2 21.77H7.82C4.18 21.77 2 19.6 2 15.97V12.71C2 12.32 2.31 12.01 2.7 12.01H6.2C7.17 12.01 8.05 12.56 8.49 13.43L9.33 15.08C9.62 15.66 10.06 15.73 10.37 15.73H13.65C14.09 15.73 14.49 15.48 14.69 15.08L15.53 13.42C15.97 12.54 16.84 12 17.82 12Z" fill="#292D32"/>
<path opacity="0.4" d="M16.19 6H7.81C4.17 6 2 8.17 2 11.81V16.18C2 19.83 4.17 22 7.81 22H16.18C19.82 22 21.99 19.83 21.99 16.19V11.82C22 8.17 19.83 6 16.19 6Z" fill="#292D32"/>
</svg>
