<svg viewBox="0 0 24 24" fill="none" xmlns="http://www.w3.org/2000/svg">
<path fill-rule="evenodd" clip-rule="evenodd" d="M9.20906 2H14.7891C19.2091 2 19.2091 4.35 19.2091 6.42V10.12C19.1756 10.1032 19.135 10.0935 19.0992 10.0849C19.0923 10.0832 19.0856 10.0816 19.0791 10.08C18.3791 9.89 17.5891 9.8 16.6491 9.8C15.1091 9.8 14.3891 10.25 13.6491 10.81C13.5491 10.88 13.4591 10.97 13.3791 11.05L13.3791 11.05L12.4191 12.06C12.3291 12.16 12.1691 12.22 11.9991 12.22C11.8291 12.22 11.6691 12.16 11.5691 12.05L10.6291 11.06C10.5391 10.96 10.4391 10.87 10.3391 10.8C9.61906 10.25 8.88906 9.8 7.34906 9.8C6.40906 9.8 5.61906 9.89 4.91906 10.08C4.91257 10.0816 4.90581 10.0832 4.89888 10.0849C4.86309 10.0935 4.82257 10.1032 4.78906 10.12V6.42C4.78906 4.35 4.78906 2 9.20906 2ZM10.4491 8.5H13.5491C13.9291 8.5 14.2491 8.18 14.2491 7.8C14.2491 7.41 13.9291 7.1 13.5491 7.1H10.4491C10.0691 7.1 9.74906 7.41 9.74906 7.8C9.74906 8.18 10.0691 8.5 10.4491 8.5ZM9.66906 5.71H14.3291C14.7091 5.71 15.0191 5.39 15.0191 5.01C15.0191 4.62 14.7091 4.31 14.3291 4.31H9.66906C9.28906 4.31 8.97906 4.62 8.97906 5.01C8.97906 5.39 9.28906 5.71 9.66906 5.71ZM16.6497 11.3008C17.4497 11.3008 18.1197 11.3808 18.6897 11.5308C21.0697 12.1708 21.0697 14.0608 21.0697 15.7208V16.6508C21.0697 20.2008 19.2697 22.0008 15.7197 22.0008H8.27969C2.92969 22.0008 2.92969 19.1608 2.92969 16.6508V15.7208C2.92969 14.0608 2.92969 12.1708 5.30969 11.5308C5.87969 11.3708 6.54969 11.3008 7.34969 11.3008C8.44969 11.3008 8.85969 11.5708 9.43969 12.0008C9.46969 12.0208 9.49969 12.0508 9.52969 12.0908L10.4797 13.0908C11.2797 13.9408 12.7297 13.9408 13.5197 13.0908L14.4697 12.0808C14.4997 12.0508 14.5297 12.0208 14.5597 12.0008C15.1297 11.5708 15.5397 11.3008 16.6497 11.3008Z" fill="#292D32"/>
</svg>
