<svg viewBox="0 0 24 24" fill="none" xmlns="http://www.w3.org/2000/svg">
<path fill-rule="evenodd" clip-rule="evenodd" d="M12 8.75C11.9889 8.75 11.9779 8.74975 11.967 8.74926C11.845 8.74412 11.7239 8.70982 11.6143 8.64371C11.5472 8.60464 11.4876 8.55502 11.4371 8.49759L9.46945 6.52994C9.17945 6.23994 9.17945 5.75994 9.46945 5.46994C9.75945 5.17994 10.2395 5.17994 10.5295 5.46994L11.25 6.19049V2C11.25 1.59 11.59 1.25 12 1.25C12.41 1.25 12.75 1.59 12.75 2V6.19L13.47 5.47C13.76 5.18 14.24 5.18 14.53 5.47C14.82 5.76 14.82 6.24 14.53 6.53L12.53 8.53C12.5125 8.54745 12.4942 8.56397 12.475 8.57952C12.3436 8.68817 12.188 8.74288 12.0309 8.7493C12.0206 8.74977 12.0103 8.75 12 8.75ZM2.25 17C2.25 19.7 2.25 22.75 8 22.75H16C19.82 22.75 21.75 20.82 21.77 17V16C21.77 14.3257 21.77 12.4878 19.7594 11.6759V8.00022C19.7594 6.06022 19.7594 3.65022 16.0794 3.30022C15.6594 3.25022 15.2994 3.56022 15.2594 3.97022C15.2194 4.38022 15.5194 4.75022 15.9294 4.79022C18.2494 5.01022 18.2494 5.95022 18.2494 8.00022V11.3158C17.8798 11.2728 17.4713 11.25 17.02 11.25C15.83 11.25 15.39 11.53 14.77 12C14.73 12.03 14.7 12.06 14.67 12.09L13.65 13.17C12.79 14.08 11.23 14.08 10.37 13.17L9.35 12.09C9.3317 12.0656 9.30967 12.0486 9.28846 12.0323C9.27491 12.0219 9.2617 12.0117 9.25 12C8.63 11.54 8.19 11.25 7 11.25C6.54027 11.25 6.12504 11.2736 5.75 11.3183V7.99996C5.75 5.94996 5.75 5.00996 8.07 4.79996C8.49 4.75996 8.79 4.38996 8.75 3.97996C8.71 3.55996 8.34 3.25996 7.93 3.29996C4.25 3.64996 4.25 6.05996 4.25 7.99996V11.6802C2.25 12.4943 2.25 14.3286 2.25 16V17ZM3.75 16C3.75 13.77 3.75 12.75 7 12.75C7.72 12.75 7.87 12.84 8.3 13.16L9.27 14.19C9.99 14.95 10.96 15.37 12 15.37C13.04 15.37 14.01 14.95 14.73 14.19L15.7 13.16C16.13 12.84 16.28 12.75 17 12.75C20.25 12.75 20.25 13.77 20.25 16V17C20.25 19.98 18.98 21.25 16 21.25H8C3.75 21.25 3.75 19.74 3.75 17V16Z" fill="#292D32"/>
</svg>
