<svg viewBox="0 0 24 24" fill="none" xmlns="http://www.w3.org/2000/svg">
<path fill-rule="evenodd" clip-rule="evenodd" d="M19.5516 13.5418L21.2916 17.0218C22.7816 20.0018 19.5716 23.1518 16.6216 21.5918L9.38164 17.7818C8.88164 17.5218 8.67164 16.9118 8.90164 16.3918L14.6016 3.75178C14.7016 3.53178 14.8716 3.35178 15.0816 3.24178L16.6216 2.42178C19.5716 0.861782 22.7816 4.00178 21.2916 6.99178L19.5516 10.4718C19.0716 11.4418 19.0716 12.5718 19.5516 13.5418ZM11.4195 7.32045L7.68953 15.6004C7.42953 16.1704 6.75953 16.4004 6.20953 16.1104L4.16953 15.0404C1.71953 13.7504 1.71953 10.2504 4.16953 8.96045L9.93953 5.93045C10.8395 5.45045 11.8395 6.39045 11.4195 7.32045Z" fill="#292D32"/>
</svg>
