<svg viewBox="0 0 24 24" fill="none" xmlns="http://www.w3.org/2000/svg">
<path fill-rule="evenodd" clip-rule="evenodd" d="M18.25 11.3159V6C18.25 3.77 18.25 2.75 15 2.75H9C5.75 2.75 5.75 3.77 5.75 6V11.3183C6.12504 11.2736 6.54027 11.25 7 11.25C8.19 11.25 8.63 11.54 9.25 12C9.2617 12.0117 9.27491 12.0219 9.28846 12.0323C9.30967 12.0486 9.3317 12.0656 9.35 12.09L10.37 13.17C11.23 14.08 12.79 14.08 13.65 13.17L14.67 12.09C14.7 12.06 14.73 12.03 14.77 12C15.39 11.53 15.83 11.25 17.02 11.25C17.4716 11.25 17.8802 11.2728 18.25 11.3159ZM4.25 11.6802V6C4.25 3.77 4.25 1.25 9 1.25H15C19.75 1.25 19.75 3.77 19.75 6V11.6721C21.77 12.4821 21.77 14.323 21.77 16V17C21.75 20.82 19.82 22.75 16 22.75H8C2.25 22.75 2.25 19.7 2.25 17V16C2.25 14.3286 2.25 12.4943 4.25 11.6802ZM3.75 16C3.75 13.77 3.75 12.75 7 12.75C7.72 12.75 7.87 12.84 8.3 13.16L9.27 14.19C9.99 14.95 10.96 15.37 12 15.37C13.04 15.37 14.01 14.95 14.73 14.19L15.7 13.16C16.13 12.84 16.28 12.75 17 12.75C20.25 12.75 20.25 13.77 20.25 16V17C20.25 19.98 18.98 21.25 16 21.25H8C3.75 21.25 3.75 19.74 3.75 17V16Z" fill="#292D32"/>
</svg>
