<svg viewBox="0 0 24 24" fill="none" xmlns="http://www.w3.org/2000/svg">
<path fill-rule="evenodd" clip-rule="evenodd" d="M13.3243 6.8C13.5843 6.54 14.0143 6.54 14.2743 6.8C14.5343 7.06 14.5343 7.49 14.2843 7.74L12.4843 9.54C12.4243 9.61 12.3443 9.66 12.2643 9.69C12.1743 9.72 12.0943 9.74 12.0043 9.74C11.9143 9.74 11.8243 9.72 11.7443 9.69C11.6643 9.66 11.6043 9.61 11.5443 9.56C11.5343 9.56 11.5343 9.56 11.5243 9.55L9.7243 7.75C9.4643 7.49 9.4643 7.06 9.7243 6.8C9.9843 6.54 10.4143 6.54 10.6743 6.8L11.3143 7.44V2.67C11.3143 2.3 11.6243 2 11.9943 2C12.3643 2 12.6743 2.3 12.6743 2.67V7.45L13.3243 6.8ZM16.6497 11.2998C17.4497 11.2998 18.1197 11.3798 18.6897 11.5298C21.0697 12.1698 21.0697 14.0598 21.0697 15.7198V16.6498C21.0697 20.1998 19.2697 21.9998 15.7197 21.9998H8.27969C2.92969 21.9998 2.92969 19.1598 2.92969 16.6498V15.7198C2.92969 14.0598 2.92969 12.1698 5.30969 11.5298C5.87969 11.3798 6.54969 11.2998 7.34969 11.2998C8.45969 11.2998 8.86969 11.5698 9.43969 11.9998C9.46968 12.0198 9.49968 12.0498 9.52967 12.0798L9.52969 12.0798L10.4797 13.0798C11.2797 13.9398 12.7197 13.9298 13.5197 13.0898L14.4697 12.0798C14.4997 12.0498 14.5297 12.0198 14.5597 11.9998C15.1297 11.5698 15.5397 11.2998 16.6497 11.2998ZM9.66969 18.3998H14.3297C14.7097 18.3998 15.0197 18.0898 15.0197 17.6998C15.0197 17.3098 14.7097 16.9998 14.3297 16.9998H9.66969C9.28969 16.9998 8.97969 17.3098 8.97969 17.6998C8.97969 18.0898 9.28969 18.3998 9.66969 18.3998Z" fill="#292D32"/>
<path opacity="0.4" fill-rule="evenodd" clip-rule="evenodd" d="M9.20906 4H14.7891C19.1866 4 19.2089 6.32618 19.2288 8.38842L19.2291 8.42V12.21C19.2291 12.42 19.1291 12.63 18.9591 12.76C18.7791 12.89 18.5591 12.94 18.3491 12.88C17.8991 12.76 17.3391 12.7 16.6691 12.7C15.9991 12.7 15.8591 12.78 15.4591 13.08L14.5491 14.04C13.8891 14.74 12.9691 15.14 12.0091 15.14C11.0491 15.14 10.1191 14.74 9.46906 14.04L8.55906 13.08C8.15906 12.78 8.01906 12.7 7.34906 12.7C6.67906 12.7 6.11906 12.76 5.66906 12.88C5.45906 12.94 5.22906 12.89 5.05906 12.76C4.88906 12.63 4.78906 12.43 4.78906 12.21V8.42C4.78906 6.35 4.78906 4 9.20906 4ZM14.3305 18.4C14.7105 18.4 15.0205 18.09 15.0205 17.7C15.0205 17.31 14.7105 17 14.3305 17H9.67047C9.29047 17 8.98047 17.31 8.98047 17.7C8.98047 18.09 9.29047 18.4 9.67047 18.4H14.3305Z" fill="#292D32"/>
</svg>
