<svg viewBox="0 0 24 24" fill="none" xmlns="http://www.w3.org/2000/svg">
<path fill-rule="evenodd" clip-rule="evenodd" d="M22 5C22 6.65685 20.6569 8 19 8C17.3431 8 16 6.65685 16 5C16 3.34315 17.3431 2 19 2C20.6569 2 22 3.34315 22 5ZM17.03 12.72H20.34C20.7 12.72 21 13.02 21 13.38V17.04C20.76 20.21 18.75 22 15.49 22H7.53C4.07 22 2 19.94 2 16.47V13.38C2 13.02 2.3 12.72 2.66 12.71H5.99C6.92 12.71 7.75 13.23 8.17 14.06L8.96 15.63C9.23 16.19 9.66 16.25 9.95 16.25H13.06C13.48 16.25 13.86 16.02 14.05 15.64L14.85 14.06C15.27 13.24 16.1 12.72 17.03 12.72Z" fill="#292D32"/>
<path opacity="0.4" d="M19 9.5C16.52 9.5 14.5 7.48 14.5 5C14.5 4.28 14.69 3.61 14.99 3H7.52C4.07 3 2 5.06 2 8.52V16.47C2 19.94 4.07 22 7.52 22H15.47C18.93 22 20.99 19.94 20.99 16.48V9.01C20.39 9.31 19.72 9.5 19 9.5Z" fill="#292D32"/>
</svg>
