<svg viewBox="0 0 24 24" fill="none" xmlns="http://www.w3.org/2000/svg">
<path fill-rule="evenodd" clip-rule="evenodd" d="M7.32045 11.4195L15.6004 7.68953C16.1604 7.43953 16.4004 6.75953 16.1204 6.20953L15.0504 4.16953C13.7604 1.71953 10.2604 1.71953 8.97045 4.16953L5.93045 9.93953C5.45045 10.8395 6.39045 11.8395 7.32045 11.4195ZM13.5392 19.5516L17.0192 21.2916C19.9992 22.7816 23.1392 19.5716 21.5792 16.6216L17.7692 9.38164C17.5092 8.88164 16.8992 8.67164 16.3792 8.90164L3.73918 14.6016C3.51918 14.7016 3.33918 14.8716 3.22918 15.0816L2.40918 16.6216C0.84918 19.5716 3.99918 22.7816 6.98918 21.2916L10.4692 19.5516C11.4392 19.0716 12.5692 19.0716 13.5392 19.5516Z" fill="#292D32"/>
</svg>
