<svg viewBox="0 0 24 24" fill="none" xmlns="http://www.w3.org/2000/svg">
<path fill-rule="evenodd" clip-rule="evenodd" d="M4.44911 13.5392L2.70911 17.0192C1.21911 19.9992 4.42911 23.1492 7.36911 21.5892L14.6091 17.7792C15.1091 17.5192 15.3191 16.9092 15.0891 16.3892L9.39911 3.73924C9.30911 3.51924 9.13911 3.33924 8.91911 3.22924L7.37911 2.40924C4.42911 0.849241 1.21911 3.99924 2.70911 6.97924L4.44911 10.4692C4.92911 11.4392 4.92911 12.5692 4.44911 13.5392ZM12.5793 7.32045L16.3093 15.6004C16.5693 16.1704 17.2393 16.4004 17.7893 16.1204L19.8293 15.0504C22.2793 13.7604 22.2793 10.2604 19.8293 8.97045L14.0593 5.93045C13.1593 5.45045 12.1593 6.39045 12.5793 7.32045Z" fill="#292D32"/>
</svg>
