<svg viewBox="0 0 24 24" fill="none" xmlns="http://www.w3.org/2000/svg">
<path fill-rule="evenodd" clip-rule="evenodd" d="M9 22.75H15C20.43 22.75 22.75 20.43 22.75 15V9C22.75 3.57 20.43 1.25 15 1.25H9C3.57 1.25 1.25 3.57 1.25 9V12.882C1.24358 12.9205 1.24023 12.9599 1.24023 13C1.24023 13.0407 1.24358 13.0806 1.25 13.1196V15C1.25 20.43 3.57 22.75 9 22.75ZM2.75 13.75V15C2.75 19.61 4.39 21.25 9 21.25H15C19.61 21.25 21.25 19.61 21.25 15V13.75H18.2302C17.7502 13.75 17.3202 14.01 17.1102 14.44L16.2202 16.23C15.7502 17.17 14.8102 17.75 13.7602 17.75H10.2302C9.13023 17.75 8.26023 17.21 7.77023 16.23L6.88023 14.44C6.67023 14.01 6.24023 13.75 5.76023 13.75H2.75ZM2.75 12.25H5.76023C6.81024 12.25 7.75024 12.83 8.22023 13.77L9.11023 15.56C9.34023 16.02 9.71023 16.25 10.2302 16.25H13.7602C14.2402 16.25 14.6702 15.99 14.8802 15.56L15.7702 13.77C16.2402 12.83 17.1802 12.25 18.2302 12.25H21.25V9C21.25 4.39 19.61 2.75 15 2.75H9C4.39 2.75 2.75 4.39 2.75 9V12.25ZM13.6701 7.75H10.3401C9.92008 7.75 9.58008 7.41 9.58008 7C9.58008 6.59 9.92008 6.25 10.3301 6.25H13.6601C14.0701 6.25 14.4101 6.59 14.4101 7C14.4101 7.41 14.0801 7.75 13.6701 7.75ZM9.5 10.75H14.5C14.91 10.75 15.25 10.41 15.25 10C15.25 9.59 14.91 9.25 14.5 9.25H9.5C9.09 9.25 8.75 9.59 8.75 10C8.75 10.41 9.09 10.75 9.5 10.75Z" fill="#292D32"/>
</svg>
