<svg viewBox="0 0 24 24" fill="none" xmlns="http://www.w3.org/2000/svg">
<path fill-rule="evenodd" clip-rule="evenodd" d="M13.4695 6.47C13.7595 6.18 14.2395 6.18 14.5295 6.47C14.8195 6.76 14.8195 7.24 14.5295 7.53L12.5295 9.53C12.4495 9.6 12.3695 9.65 12.2795 9.69C12.1895 9.73 12.0995 9.75 11.9995 9.75C11.8995 9.75 11.8095 9.73 11.7095 9.7C11.6295 9.66 11.5495 9.61 11.4895 9.55C11.4895 9.54382 11.4856 9.54146 11.4804 9.5382C11.4771 9.53618 11.4733 9.53382 11.4695 9.53L9.46945 7.53C9.17945 7.24 9.17945 6.76 9.46945 6.47C9.75945 6.18 10.2395 6.18 10.5295 6.47L11.2495 7.19V2C11.2495 1.59 11.5895 1.25 11.9995 1.25C12.4095 1.25 12.7495 1.59 12.7495 2V7.19L13.4695 6.47ZM17.82 12.23H21.3C21.69 12.23 22 12.55 22 12.93V16.78C21.74 20.12 19.63 22 16.2 22H7.82C4.18 22 2 19.83 2 16.2V12.94C2 12.55 2.31 12.24 2.7 12.24H6.2C7.17 12.24 8.05 12.79 8.49 13.66L9.33 15.31C9.62 15.89 10.06 15.96 10.37 15.96H13.65C14.09 15.96 14.49 15.71 14.69 15.31L15.53 13.65C15.97 12.77 16.84 12.23 17.82 12.23Z" fill="#292D32"/>
<path opacity="0.4" d="M16.19 4H7.81C4.17 4 2 6.17 2 9.81V16.18C2 19.83 4.17 22 7.81 22H16.18C19.82 22 21.99 19.83 21.99 16.19V9.81C22 6.17 19.83 4 16.19 4Z" fill="#292D32"/>
</svg>
