<svg viewBox="0 0 24 24" fill="none" xmlns="http://www.w3.org/2000/svg">
<path fill-rule="evenodd" clip-rule="evenodd" d="M12.6684 4.3L13.3184 4.95C13.5784 5.21 14.0084 5.21 14.2684 4.95C14.5284 4.69 14.5284 4.26 14.2684 4L12.4684 2.2C12.4084 2.14 12.3284 2.09 12.2484 2.05C12.1684 2.02 12.0884 2 11.9984 2C11.9084 2 11.8284 2.02 11.7384 2.05C11.6584 2.08 11.5984 2.13 11.5384 2.18L11.5384 2.18L11.5384 2.18001C11.5327 2.18575 11.5302 2.18819 11.5273 2.18923C11.5251 2.19 11.5227 2.19 11.5184 2.19L9.71844 4C9.45844 4.26 9.45844 4.69 9.71844 4.95C9.97844 5.21 10.4084 5.21 10.6684 4.95L11.3184 4.3V6H9.20906C4.99906 6 4.79906 8.13 4.78906 10.12C4.82257 10.1032 4.8631 10.0935 4.89888 10.0849C4.90582 10.0832 4.91257 10.0816 4.91906 10.08C5.63906 9.89 6.42906 9.8 7.34906 9.8C8.88906 9.8 9.61906 10.25 10.3391 10.8C10.3691 10.82 10.4891 10.91 10.5891 11.02L11.5691 12.05C11.7191 12.21 11.9391 12.22 11.9991 12.22C12.1691 12.22 12.3291 12.16 12.4291 12.06L13.3791 11.05L13.3791 11.05C13.4791 10.95 13.5791 10.85 13.7191 10.75C14.3791 10.25 15.1091 9.8 16.6491 9.8C17.5691 9.8 18.3591 9.89 19.0691 10.08H19.0791C19.0856 10.0816 19.0923 10.0832 19.0992 10.0849C19.135 10.0935 19.1756 10.1032 19.2091 10.12C19.1991 8.13 18.9991 6 14.7891 6H12.6691V9.08C12.6691 9.45 12.3691 9.75 11.9991 9.75C11.6291 9.75 11.3291 9.45 11.3291 9.08V6H12.6684V4.3ZM18.6897 11.5308C18.1197 11.3808 17.4497 11.3008 16.6497 11.3008C15.5397 11.3008 15.1297 11.5708 14.5597 12.0008C14.5297 12.0208 14.4997 12.0508 14.4697 12.0808L13.5197 13.0908C12.7197 13.9308 11.2797 13.9408 10.4797 13.0808L9.52969 12.0808C9.49969 12.0508 9.46969 12.0208 9.43969 12.0008C8.86969 11.5708 8.45969 11.3008 7.34969 11.3008C6.54969 11.3008 5.87969 11.3808 5.30969 11.5308C2.92969 12.1708 2.92969 14.0608 2.92969 15.7208V16.6508C2.92969 19.1608 2.92969 22.0008 8.27969 22.0008H15.7197C19.2697 22.0008 21.0697 20.2008 21.0697 16.6508V15.7208C21.0697 14.0608 21.0697 12.1708 18.6897 11.5308ZM14.3297 18.4008H9.66969C9.28969 18.4008 8.97969 18.0908 8.97969 17.7008C8.97969 17.3108 9.28969 17.0008 9.66969 17.0008H14.3297C14.7097 17.0008 15.0197 17.3108 15.0197 17.7008C15.0197 18.0908 14.7097 18.4008 14.3297 18.4008Z" fill="#292D32"/>
</svg>
