<svg viewBox="0 0 24 24" fill="none" xmlns="http://www.w3.org/2000/svg">
<path fill-rule="evenodd" clip-rule="evenodd" d="M19.2091 10.12V6.42C19.2091 4.35 19.2091 2 14.7891 2H9.20906C4.78906 2 4.78906 4.35 4.78906 6.42V10.12C4.82257 10.1032 4.86309 10.0935 4.89888 10.0849C4.90581 10.0832 4.91257 10.0816 4.91906 10.08C5.61906 9.89 6.40906 9.8 7.34906 9.8C8.88906 9.8 9.61906 10.25 10.3391 10.8C10.4391 10.87 10.5391 10.96 10.6291 11.06L11.5691 12.05C11.6691 12.16 11.8291 12.22 11.9991 12.22C12.1691 12.22 12.3291 12.16 12.4191 12.06L13.3791 11.05L13.3791 11.05C13.4591 10.97 13.5491 10.88 13.6491 10.81C14.3891 10.25 15.1091 9.8 16.6491 9.8C17.5891 9.8 18.3791 9.89 19.0791 10.08C19.0856 10.0816 19.0923 10.0832 19.0992 10.0849C19.135 10.0935 19.1756 10.1032 19.2091 10.12ZM16.6497 11.3008C17.4497 11.3008 18.1197 11.3808 18.6897 11.5308C21.0697 12.1708 21.0697 14.0608 21.0697 15.7208V16.6508C21.0697 20.2008 19.2697 22.0008 15.7197 22.0008H8.27969C2.92969 22.0008 2.92969 19.1608 2.92969 16.6508V15.7208C2.92969 14.0608 2.92969 12.1708 5.30969 11.5308C5.87969 11.3808 6.54969 11.3008 7.34969 11.3008C8.45969 11.3008 8.86969 11.5708 9.43969 12.0008C9.46969 12.0208 9.49969 12.0508 9.52969 12.0808L10.4797 13.0808C11.2797 13.9408 12.7197 13.9308 13.5197 13.0908L14.4697 12.0808C14.4997 12.0508 14.5297 12.0208 14.5597 12.0008C15.1297 11.5708 15.5397 11.3008 16.6497 11.3008ZM9.66969 18.4008H14.3297C14.7097 18.4008 15.0197 18.0908 15.0197 17.7008C15.0197 17.3108 14.7097 17.0008 14.3297 17.0008H9.66969C9.28969 17.0008 8.97969 17.3108 8.97969 17.7008C8.97969 18.0908 9.28969 18.4008 9.66969 18.4008Z" fill="#292D32"/>
</svg>
