<svg viewBox="0 0 24 24" fill="none" xmlns="http://www.w3.org/2000/svg">
<path fill-rule="evenodd" clip-rule="evenodd" d="M13.4692 4.52828L12.7592 3.81828V4.99828H11.2592V3.79828L10.5392 4.51828C10.2492 4.80828 9.76922 4.80828 9.47922 4.51828C9.18922 4.22828 9.18922 3.74828 9.47922 3.45828L11.4792 1.45828C11.5392 1.38828 11.6192 1.34828 11.6992 1.30828C11.7192 1.29828 11.7392 1.28828 11.7692 1.27828C11.8292 1.25828 11.8892 1.23828 11.9492 1.23828H12.0292C12.1092 1.24828 12.1892 1.25828 12.2692 1.28828C12.275 1.29403 12.2774 1.29648 12.2804 1.29751C12.2825 1.29828 12.285 1.29828 12.2892 1.29828C12.3692 1.33828 12.4492 1.38828 12.5092 1.44828C12.5092 1.45446 12.513 1.45682 12.5183 1.46008C12.5216 1.4621 12.5254 1.46446 12.5292 1.46828L14.5292 3.46828C14.8192 3.75828 14.8192 4.23828 14.5292 4.52828C14.3792 4.67828 14.1892 4.74828 13.9992 4.74828C13.8092 4.74828 13.6192 4.67828 13.4692 4.52828ZM21.3 12.2305H17.82C16.84 12.2305 15.97 12.7705 15.53 13.6505L14.69 15.3105C14.49 15.7105 14.09 15.9605 13.65 15.9605H10.37C10.06 15.9605 9.62 15.8905 9.33 15.3105L8.49 13.6605C8.05 12.7905 7.17 12.2405 6.2 12.2405H2.7C2.31 12.2405 2 12.5505 2 12.9405V16.2005C2 19.8305 4.18 22.0005 7.82 22.0005H16.2C19.63 22.0005 21.74 20.1205 22 16.7805V12.9305C22 12.5505 21.69 12.2305 21.3 12.2305ZM22 10.85V10.81C22 7.17 19.83 5 16.19 5H12.75V9C12.75 9.41 12.41 9.75 12 9.75C11.59 9.75 11.25 9.41 11.25 9V5H7.81C4.17 5 2 7.17 2 10.81V10.85C2.22 10.77 2.46 10.73 2.7 10.73H6.2C7.75 10.73 9.14 11.59 9.83 12.98L10.58 14.45H13.44L14.19 12.97C14.88 11.59 16.27 10.73 17.82 10.73H21.3C21.54 10.73 21.78 10.77 22 10.85Z" fill="#292D32"/>
</svg>
