<svg viewBox="0 0 24 24" fill="none" xmlns="http://www.w3.org/2000/svg">
<path fill-rule="evenodd" clip-rule="evenodd" d="M13.5392 4.45825L17.0192 2.71825C19.9992 1.21825 23.1392 4.43825 21.5892 7.37825L17.7792 14.6182C17.5192 15.1182 16.9092 15.3282 16.3892 15.0982L3.73924 9.40825C3.51924 9.30825 3.33924 9.13825 3.22924 8.92825L2.40924 7.38825C0.849241 4.43825 3.99924 1.21825 6.97924 2.70825L10.4692 4.45825C11.4392 4.93825 12.5692 4.93825 13.5392 4.45825ZM7.32045 12.5793L15.6004 16.3093C16.1604 16.5693 16.4004 17.2393 16.1204 17.7893L15.0504 19.8293C13.7604 22.2793 10.2604 22.2793 8.97045 19.8293L5.93045 14.0593C5.45045 13.1593 6.39045 12.1593 7.32045 12.5793Z" fill="#292D32"/>
</svg>
