<svg viewBox="0 0 24 24" fill="none" xmlns="http://www.w3.org/2000/svg">
<path d="M18.6897 11.5298C18.1197 11.3798 17.4497 11.2998 16.6497 11.2998C15.5397 11.2998 15.1297 11.5698 14.5597 11.9998C14.5297 12.0198 14.4997 12.0498 14.4697 12.0798L13.5197 13.0898C12.7197 13.9298 11.2797 13.9398 10.4797 13.0798L9.52969 12.0798C9.49969 12.0498 9.46969 12.0198 9.43969 11.9998C8.86969 11.5698 8.45969 11.2998 7.34969 11.2998C6.54969 11.2998 5.87969 11.3798 5.30969 11.5298C2.92969 12.1698 2.92969 14.0598 2.92969 15.7198V16.6498C2.92969 19.1598 2.92969 21.9998 8.27969 21.9998H15.7197C19.2697 21.9998 21.0697 20.1998 21.0697 16.6498V15.7198C21.0697 14.0598 21.0697 12.1698 18.6897 11.5298ZM14.3297 18.3998H9.66969C9.28969 18.3998 8.97969 18.0898 8.97969 17.6998C8.97969 17.3098 9.28969 16.9998 9.66969 16.9998H14.3297C14.7097 16.9998 15.0197 17.3098 15.0197 17.6998C15.0197 18.0898 14.7097 18.3998 14.3297 18.3998Z" fill="#292D32"/>
<path opacity="0.4" fill-rule="evenodd" clip-rule="evenodd" d="M9.20906 2H14.7891C19.1866 2 19.2089 4.32618 19.2288 6.38842L19.2291 6.42V12.21C19.2291 12.42 19.1291 12.63 18.9591 12.76C18.7791 12.89 18.5591 12.94 18.3491 12.88C17.8991 12.76 17.3391 12.7 16.6691 12.7C15.9991 12.7 15.8591 12.78 15.4591 13.08L14.5491 14.04C13.8891 14.74 12.9691 15.14 12.0091 15.14C11.0491 15.14 10.1191 14.74 9.46906 14.04L8.55906 13.08C8.15906 12.78 8.01906 12.7 7.34906 12.7C6.67906 12.7 6.11906 12.76 5.66906 12.88C5.45906 12.94 5.22906 12.89 5.05906 12.76C4.88906 12.63 4.78906 12.43 4.78906 12.21V6.42C4.78906 4.35 4.78906 2 9.20906 2ZM14.3305 18.4C14.7105 18.4 15.0205 18.09 15.0205 17.7C15.0205 17.31 14.7105 17 14.3305 17H9.67047C9.29047 17 8.98047 17.31 8.98047 17.7C8.98047 18.09 9.29047 18.4 9.67047 18.4H14.3305Z" fill="#292D32"/>
</svg>
