<svg viewBox="0 0 24 24" fill="none" xmlns="http://www.w3.org/2000/svg">
<path fill-rule="evenodd" clip-rule="evenodd" d="M19 8C20.6569 8 22 6.65685 22 5C22 3.34315 20.6569 2 19 2C17.3431 2 16 3.34315 16 5C16 6.65685 17.3431 8 19 8ZM20.34 12.7209H17.03C16.1 12.7209 15.27 13.2409 14.85 14.0609L14.05 15.6409C13.86 16.0209 13.48 16.2509 13.06 16.2509H9.95C9.66 16.2509 9.23 16.1909 8.96 15.6309L8.17 14.0609C7.75 13.2309 6.92 12.7109 5.99 12.7109H2.66C2.3 12.7209 2 13.0209 2 13.3809V16.4709C2 19.9409 4.07 22.0009 7.53 22.0009H15.49C18.75 22.0009 20.76 20.2109 21 17.0409V13.3809C21 13.0209 20.7 12.7209 20.34 12.7209ZM21 11.33V10.4C21 9.76 20.42 9.3 19.8 9.42C19 9.58 18.13 9.51 17.21 9.12C16.17 8.67 15.33 7.83 14.88 6.79C14.49 5.87 14.42 5 14.58 4.2C14.7 3.58 14.24 3 13.6 3H7.52C4.47 3 2 5.47 2 8.52V11.33C2.21 11.26 2.43 11.22 2.66 11.22H5.99C7.49 11.22 8.83 12.05 9.51 13.4L10.19 14.76H12.82L13.52 13.39C14.18 12.05 15.53 11.22 17.03 11.22H20.34C20.57 11.22 20.79 11.26 21 11.33Z" fill="#292D32"/>
</svg>
