<svg viewBox="0 0 24 24" fill="none" xmlns="http://www.w3.org/2000/svg">
<path fill-rule="evenodd" clip-rule="evenodd" d="M11.967 9.74926C11.9779 9.74975 11.9889 9.75 12 9.75C12.0279 9.75 12.0555 9.74845 12.0829 9.74539C12.202 9.73234 12.3187 9.69096 12.4232 9.61876C12.4612 9.59268 12.497 9.56301 12.53 9.53L14.53 7.53C14.82 7.24 14.82 6.76 14.53 6.47C14.24 6.18 13.76 6.18 13.47 6.47L12.75 7.19V2C12.75 1.59 12.41 1.25 12 1.25C11.59 1.25 11.25 1.59 11.25 2V7.19049L10.5295 6.46994C10.2395 6.17994 9.75945 6.17994 9.46945 6.46994C9.17945 6.75994 9.17945 7.23994 9.46945 7.52994L11.4371 9.49759C11.4876 9.55502 11.5472 9.60464 11.6143 9.64371C11.7239 9.70982 11.845 9.74412 11.967 9.74926ZM13.7605 17.75H10.2305C9.18047 17.75 8.24047 17.17 7.77047 16.23L6.60047 13.89C6.56047 13.8 6.47047 13.75 6.38047 13.75H2.75V14.9999C2.75 19.6099 4.39 21.2499 9 21.2499H15C19.61 21.2499 21.25 19.6099 21.25 14.9999V13.75H17.6405C17.5405 13.75 17.4605 13.8 17.4205 13.89L16.2505 16.23C15.7505 17.17 14.8105 17.75 13.7605 17.75ZM21.25 12.25H17.6405C16.9705 12.25 16.3705 12.62 16.0705 13.22L14.9005 15.56C14.6905 15.99 14.2605 16.25 13.7805 16.25H10.2505C9.77047 16.25 9.34047 15.99 9.13047 15.56L7.96047 13.22C7.66047 12.62 7.06047 12.25 6.39047 12.25H2.75V10.9999C2.75 7.04993 3.97 5.32993 7.11 4.86993C7.52 4.80993 7.8 4.42993 7.74 4.01993C7.68 3.60993 7.31 3.32993 6.89 3.38993C2.99 3.95993 1.25 6.30993 1.25 10.9999V12.8315C1.23723 12.8857 1.23047 12.9422 1.23047 13C1.23047 13.0578 1.23723 13.1143 1.25 13.1685V14.9999C1.25 20.4299 3.57 22.7499 9 22.7499H15C20.43 22.7499 22.75 20.4299 22.75 14.9999V13.0264C22.7503 13.0176 22.7505 13.0088 22.7505 13C22.7505 12.9912 22.7503 12.9824 22.75 12.9736V10.9999C22.75 6.30993 21.01 3.95993 17.11 3.38993C16.7 3.32993 16.32 3.60993 16.26 4.01993C16.2 4.42993 16.48 4.80993 16.89 4.86993C20.03 5.32993 21.25 7.04993 21.25 10.9999V12.25Z" fill="#292D32"/>
</svg>
