<svg viewBox="0 0 24 24" fill="none" xmlns="http://www.w3.org/2000/svg">
<path fill-rule="evenodd" clip-rule="evenodd" d="M22 10.85V7.81C22 4.17 19.83 2 16.19 2H7.81C4.17 2 2 4.17 2 7.81V10.85C2.22 10.77 2.46 10.73 2.7 10.73H6.2C7.75 10.73 9.14 11.59 9.83 12.98L10.58 14.45H13.44L14.19 12.97C14.88 11.59 16.27 10.73 17.82 10.73H21.3C21.54 10.73 21.78 10.77 22 10.85ZM17.82 12.2305H21.3C21.69 12.2305 22 12.5505 22 12.9305V16.7805C21.74 20.1205 19.63 22.0005 16.2 22.0005H7.82C4.18 22.0005 2 19.8305 2 16.2005V12.9405C2 12.5505 2.31 12.2405 2.7 12.2405H6.2C7.17 12.2405 8.05 12.7905 8.49 13.6605L9.33 15.3105C9.62 15.8905 10.06 15.9605 10.37 15.9605H13.65C14.09 15.9605 14.49 15.7105 14.69 15.3105L15.53 13.6505C15.97 12.7705 16.84 12.2305 17.82 12.2305Z" fill="#292D32"/>
</svg>
