<svg viewBox="0 0 24 24" fill="none" xmlns="http://www.w3.org/2000/svg">
<path fill-rule="evenodd" clip-rule="evenodd" d="M10.34 22.0599C10.78 22.5099 11.37 22.7498 12 22.7498C12.63 22.7498 13.22 22.5099 13.66 22.0599L15.18 20.5399C15.3 20.4199 15.62 20.2899 15.78 20.2899H17.94C19.24 20.2899 20.29 19.2398 20.29 17.9398V15.7799C20.29 15.6199 20.42 15.2999 20.54 15.1799L22.06 13.6599C22.51 13.2199 22.75 12.6298 22.75 11.9998C22.75 11.3698 22.5 10.7798 22.06 10.3398L20.54 8.81979C20.42 8.69979 20.29 8.37981 20.29 8.21981V6.0599C20.29 4.7599 19.24 3.7098 17.94 3.7098H15.78C15.62 3.7098 15.3 3.5798 15.18 3.4598L13.66 1.93979C12.78 1.05979 11.22 1.05979 10.34 1.93979L8.82001 3.4598C8.70001 3.5798 8.38 3.7098 8.22 3.7098H6.06C4.76 3.7098 3.70999 4.7599 3.70999 6.0599V8.21981C3.70999 8.37981 3.57999 8.69979 3.45999 8.81979L1.94 10.3398C1.49 10.7798 1.25 11.3698 1.25 11.9998C1.25 12.6298 1.5 13.2199 1.94 13.6599L3.45999 15.1799C3.57999 15.2999 3.70999 15.6199 3.70999 15.7799V17.9398C3.70999 19.2398 4.76 20.2899 6.06 20.2899H8.22C8.38 20.2899 8.70001 20.4199 8.82001 20.5399L10.34 22.0599ZM5.20999 15.7799C5.20999 15.2199 4.91999 14.5198 4.51999 14.1198L3 12.5998C2.84 12.4398 2.75 12.2298 2.75 11.9998C2.75 11.7698 2.84 11.5599 3 11.3999L4.51999 9.87985C4.91999 9.47985 5.20999 8.77981 5.20999 8.21981V6.0599C5.20999 5.5899 5.59 5.2098 6.06 5.2098H8.22C8.78 5.2098 9.48001 4.91986 9.88 4.51986L11.4 2.99984C11.72 2.67984 12.28 2.67984 12.6 2.99984L14.12 4.51986C14.52 4.91986 15.22 5.2098 15.78 5.2098H17.94C18.41 5.2098 18.79 5.5899 18.79 6.0599V8.21981C18.79 8.77981 19.08 9.47985 19.48 9.87985L21 11.3999C21.16 11.5599 21.25 11.7698 21.25 11.9998C21.25 12.2298 21.16 12.4398 21 12.5998L19.48 14.1198C19.08 14.5198 18.79 15.2199 18.79 15.7799V17.9398C18.79 18.4098 18.41 18.7899 17.94 18.7899H15.78C15.22 18.7899 14.52 19.0798 14.12 19.4798L12.6 20.9998C12.28 21.3198 11.72 21.3198 11.4 20.9998L9.88 19.4798C9.48001 19.0798 8.78 18.7899 8.22 18.7899H6.06C5.59 18.7899 5.20999 18.4098 5.20999 17.9398V15.7799ZM13.9902 15C13.9902 15.55 14.4402 16 15.0002 16C15.5502 16 15.9902 15.55 15.9902 15C15.9902 14.45 15.5402 14 14.9902 14C14.4402 14 13.9902 14.45 13.9902 15ZM9.01001 10C8.45001 10 8 9.55 8 9C8 8.45 8.45 8 9 8C9.55 8 10 8.45 10 9C10 9.55 9.56001 10 9.01001 10ZM8.46945 15.53C8.61945 15.68 8.80945 15.75 8.99945 15.75C9.18945 15.75 9.37945 15.68 9.52945 15.53L15.5295 9.53C15.8195 9.24 15.8195 8.75994 15.5295 8.46994C15.2395 8.17994 14.7595 8.17994 14.4695 8.46994L8.46945 14.4699C8.17945 14.7599 8.17945 15.24 8.46945 15.53Z" fill="#292D32"/>
</svg>
