<svg viewBox="0 0 24 24" fill="none" xmlns="http://www.w3.org/2000/svg">
<path fill-rule="evenodd" clip-rule="evenodd" d="M2.20926 21.79C2.88926 22.47 3.81926 22.82 4.90926 22.82C5.37926 22.82 5.86926 22.75 6.37926 22.63L16.3093 20.15C18.0193 19.72 19.6993 18.05 20.1293 16.33L22.6093 6.40001C23.0393 4.68001 22.7393 3.20001 21.7693 2.23001C20.7993 1.26001 19.3193 0.960013 17.5993 1.39001L7.66926 3.87001C5.95926 4.30001 4.27926 5.97001 3.84926 7.69001L1.36926 17.62C0.939261 19.34 1.23926 20.82 2.20926 21.79ZM8.04926 5.32001L17.9793 2.83001C19.1693 2.54001 20.1393 2.69001 20.7193 3.28001C21.2993 3.87001 21.4593 4.84001 21.1593 6.03001L18.6793 15.96C18.3893 17.12 17.1193 18.4 15.9493 18.69L6.01926 21.17C4.82926 21.47 3.84926 21.31 3.26926 20.73C2.68926 20.14 2.52926 19.17 2.82926 17.98L5.30926 8.05001C5.60926 6.88001 6.87926 5.61001 8.04926 5.32001ZM7.75 12C7.75 14.34 9.66 16.25 12 16.25C14.34 16.25 16.25 14.34 16.25 12C16.25 9.66 14.34 7.75 12 7.75C9.66 7.75 7.75 9.66 7.75 12ZM9.25 12C9.25 10.48 10.48 9.25 12 9.25C13.52 9.25 14.75 10.48 14.75 12C14.75 13.52 13.52 14.75 12 14.75C10.48 14.75 9.25 13.52 9.25 12Z" fill="#292D32"/>
</svg>
