<svg viewBox="0 0 24 24" fill="none" xmlns="http://www.w3.org/2000/svg">
<path fill-rule="evenodd" clip-rule="evenodd" d="M9.94955 21.9499C10.2196 22.0499 10.5096 22.0999 10.7996 22.0999C11.6796 22.0999 12.5696 21.6699 13.0396 20.9699L16.0152 16.5427C16.338 17.587 17.1985 18.1 18.6191 18.1H19.6191C21.4691 18.1 22.3691 17.23 22.3691 15.45V5.65C22.3691 3.87 21.4691 3 19.6191 3H18.6191C17.2876 3 16.4482 3.45069 16.0823 4.36698L13.9496 2.7199C13.2996 2.0699 12.0796 1.8999 11.5196 1.8999H7.71955C6.11955 1.8999 4.56955 3.0699 4.19955 4.5199L1.80955 11.7999C1.48955 12.6799 1.58955 13.5899 2.07955 14.2799C2.57955 14.9899 3.42955 15.3999 4.40955 15.3999H8.40955C8.48955 15.3999 8.55955 15.4299 8.60955 15.4799C8.67955 15.5599 8.67955 15.6599 8.66955 15.7299L8.17955 18.8799C7.89955 20.1599 8.69955 21.5399 9.94955 21.9499ZM15.8691 6.10249L12.9596 3.8499C12.7096 3.5999 12.0796 3.3999 11.5196 3.3999H7.71955C6.81955 3.3999 5.84955 4.1199 5.64955 4.9299L3.22955 12.2799C3.06955 12.7199 3.09955 13.1199 3.30955 13.4099C3.52955 13.7199 3.92955 13.8999 4.41955 13.8999H8.41955C8.93955 13.8999 9.41955 14.1199 9.74955 14.4999C10.0896 14.8899 10.2396 15.4099 10.1596 15.9499L9.65955 19.1599C9.53955 19.7199 9.91955 20.3499 10.4596 20.5299C10.9396 20.7099 11.5796 20.4499 11.7996 20.1299L15.8691 14.0751V6.10249ZM17.3691 5.65C17.3691 4.76 17.5291 4.5 18.6191 4.5H19.6191C20.7091 4.5 20.8691 4.76 20.8691 5.65V15.45C20.8691 16.34 20.7091 16.6 19.6191 16.6H18.6191C17.5291 16.6 17.3691 16.34 17.3691 15.45V5.65Z" fill="#292D32"/>
</svg>
