<svg viewBox="0 0 24 24" fill="none" xmlns="http://www.w3.org/2000/svg">
<path fill-rule="evenodd" clip-rule="evenodd" d="M15.609 15.6595V5.49953C15.609 4.87953 15.319 4.29953 14.829 3.91953L13.549 2.92953C13.119 2.49953 12.179 2.26953 11.509 2.26953H7.60904C6.26904 2.26953 4.91904 3.27953 4.60904 4.51953L2.14904 12.0095C1.89904 12.7195 1.96904 13.4195 2.34904 13.9595C2.74904 14.5195 3.42904 14.8395 4.21904 14.8395H8.32904C8.59904 14.8395 8.84904 14.9595 9.01904 15.1495C9.18904 15.3595 9.26904 15.6295 9.22904 15.9295L8.70904 19.1995C8.49904 20.1795 9.14904 21.2795 10.129 21.6095C11.039 21.9495 12.109 21.4895 12.539 20.8395L15.269 16.7795C15.489 16.4495 15.609 16.0595 15.609 15.6595ZM19.8194 17.6084H18.7894C17.2394 17.6084 16.6094 17.0084 16.6094 15.5384V5.47844C16.6094 3.99844 17.2394 3.39844 18.7894 3.39844H19.8194C21.3694 3.39844 21.9994 3.99844 21.9994 5.47844V15.5284C21.9994 17.0084 21.3694 17.6084 19.8194 17.6084Z" fill="#292D32"/>
</svg>
