<svg viewBox="0 0 24 24" fill="none" xmlns="http://www.w3.org/2000/svg">
<path fill-rule="evenodd" clip-rule="evenodd" d="M17.61 10.19H20.5C21.05 10.19 21.5 10.64 21.5 11.19V16.43C21.5 20 19.01 22 15.93 22H8.07C4.99 22 2.5 20 2.5 16.43V7.57C2.5 4 4.99 2 8.07 2H12.31C12.86 2 13.31 2.45 13.31 3V5.89C13.31 8.26 15.24 10.19 17.61 10.19ZM8.81 15.75H13C13.41 15.75 13.75 15.42 13.75 15.01C13.75 14.6 13.41 14.26 13 14.26H8.82L9.54 13.54C9.83 13.25 9.83 12.77 9.54 12.48C9.25 12.19 8.77 12.19 8.48 12.48L6.48 14.48C6.47382 14.48 6.47146 14.4838 6.4682 14.4891C6.46618 14.4924 6.46382 14.4962 6.46 14.5C6.4 14.56 6.34 14.64 6.31 14.72C6.30425 14.7258 6.30181 14.7282 6.30077 14.7311C6.3 14.7333 6.3 14.7358 6.3 14.74C6.27 14.82 6.25 14.9 6.25 14.98V15.06C6.26 15.12 6.27 15.18 6.29 15.24C6.295 15.25 6.3 15.2625 6.305 15.275C6.31 15.2875 6.315 15.3 6.32 15.31C6.36 15.39 6.4 15.46 6.47 15.53L8.47 17.53C8.62 17.68 8.81 17.75 9 17.75C9.19 17.75 9.38 17.68 9.53 17.53C9.82 17.24 9.82 16.76 9.53 16.47L8.81 15.75ZM14.6797 2.65048C14.6797 2.08048 15.3897 1.80048 15.7997 2.21048C16.7989 3.20968 18.2995 4.72395 19.6121 6.04857C20.2438 6.68595 20.8319 7.27943 21.2997 7.75048C21.6997 8.15048 21.3997 8.82048 20.8297 8.82048H20.829C19.6992 8.82048 18.3795 8.82048 17.4297 8.81048C15.9197 8.81048 14.6797 7.60048 14.6797 6.14048V2.65048Z" fill="#292D32"/>
</svg>
