<svg viewBox="0 0 24 24" fill="none" xmlns="http://www.w3.org/2000/svg">
<path fill-rule="evenodd" clip-rule="evenodd" d="M10 6.75H14C16.0634 6.75 16.5786 5.74228 16.7072 4.83354C19.0541 5.11446 20.25 6.16746 20.25 9.99993V15.9999C20.25 19.6999 19.52 21.2499 15 21.2499H9C4.48 21.2499 3.75 19.6999 3.75 15.9999V9.99993C3.75 6.15551 4.95339 5.10792 7.3148 4.83094C7.64397 6.75 9.14849 6.75 10 6.75ZM7.29021 3.33284C7.5602 1.25 9.12492 1.25 10 1.25H14C14.8739 1.25 16.4355 1.25 16.7087 3.32433C20.2821 3.71986 21.75 5.69839 21.75 9.98993V15.9899C21.75 20.1699 20.62 22.7499 15 22.7499H9C3.38 22.7499 2.25 20.1699 2.25 15.9999V9.99993C2.25 5.6994 3.71757 3.7203 7.29021 3.33284ZM8.75001 3.99006C8.75139 2.75 9.01263 2.75 10 2.75H14C14.9848 2.75 15.2472 2.75 15.25 3.98038C15.2488 4.00465 15.2488 4.02875 15.25 4.05262C15.2496 4.99925 15.2276 5.25 14 5.25H10C9.02601 5.25 8.7586 5.25 8.75021 4.05968C8.75117 4.03675 8.75112 4.01353 8.75001 3.99006Z" fill="#292D32"/>
</svg>
