<svg viewBox="0 0 24 24" fill="none" xmlns="http://www.w3.org/2000/svg">
<path fill-rule="evenodd" clip-rule="evenodd" d="M15 22.75H9C3.57 22.75 1.25 20.43 1.25 15V9C1.25 3.57 3.57 1.25 9 1.25H14C14.174 1.25 14.3354 1.31124 14.4635 1.41307C14.4865 1.43071 14.5087 1.4497 14.53 1.46999L22.53 9.46999C22.5869 9.52689 22.6335 9.5926 22.6689 9.66375C22.7207 9.76524 22.75 9.8796 22.75 10V15C22.75 20.43 20.43 22.75 15 22.75ZM21.25 10.75V15C21.25 19.61 19.61 21.25 15 21.25H9C4.39 21.25 2.75 19.61 2.75 15V9C2.75 4.39 4.39 2.75 9 2.75H13.25V5.99999C13.25 9.41999 14.58 10.75 18 10.75H21.25ZM6.9356 14.2528L8.46945 12.719C8.75945 12.429 9.23945 12.429 9.52945 12.719C9.81945 13.009 9.81945 13.489 9.52945 13.779L9.05842 14.25H13.0005C13.4105 14.25 13.7505 14.59 13.7505 15C13.7505 15.41 13.4105 15.75 13.0005 15.75H8.81048L9.53048 16.47C9.82048 16.76 9.82048 17.24 9.53048 17.53C9.38048 17.68 9.19048 17.75 9.00048 17.75C8.81048 17.75 8.62048 17.68 8.47048 17.53L6.93689 15.9964C6.76819 15.9826 6.60298 15.9125 6.46945 15.779C6.29265 15.6022 6.22364 15.3547 6.26242 15.1228C6.23947 14.986 6.25373 14.8424 6.31048 14.71C6.42176 14.4503 6.66203 14.2767 6.9356 14.2528ZM14.75 5.99999V3.80999L20.19 9.24999H18C15.42 9.24999 14.75 8.57999 14.75 5.99999Z" fill="#292D32"/>
</svg>
