<svg viewBox="0 0 24 24" fill="none" xmlns="http://www.w3.org/2000/svg">
<path fill-rule="evenodd" clip-rule="evenodd" d="M15.25 2.75H12.62H11.5996H10C8.76 2.75 7.75 3.76 7.75 5C7.75 5.41 7.41 5.75 7 5.75C6.59 5.75 6.25 5.41 6.25 5C6.25 2.93 7.93 1.25 10 1.25H11.5996H12.62H15.5996C15.6691 1.25 15.7366 1.25977 15.8008 1.27801C16.0571 1.20652 16.3335 1.28239 16.53 1.46999L22.53 7.46999C22.5984 7.53836 22.6519 7.61944 22.6889 7.70738C22.7278 7.79758 22.7495 7.89656 22.7495 8V14.19C22.7495 16.15 21.1495 17.75 19.1895 17.75C18.7795 17.75 18.4395 17.41 18.4395 17C18.4395 16.59 18.7795 16.25 19.1895 16.25C20.3295 16.25 21.2495 15.32 21.2495 14.19V8.74999H19C16.34 8.74999 15.25 7.65999 15.25 4.99999V2.75ZM7.59805 22.7515H11.398C15.788 22.7515 17.748 20.7915 17.748 16.4015V13.4138C17.7511 13.2127 17.673 13.0134 17.5296 12.87L11.1296 6.46999C11.068 6.4112 10.9986 6.36338 10.9244 6.32763C10.8254 6.27892 10.7146 6.25146 10.598 6.25146H10.595H7.59805C3.20805 6.25146 1.24805 8.21147 1.24805 12.6015V16.4015C1.24805 20.7915 3.20805 22.7515 7.59805 22.7515ZM9.84961 7.75146H7.59805C4.01805 7.75146 2.74805 9.02147 2.74805 12.6015V16.4015C2.74805 19.9815 4.01805 21.2515 7.59805 21.2515H11.398C14.978 21.2515 16.248 19.9815 16.248 16.4015V14.15H13.7996C10.9896 14.15 9.84961 13.01 9.84961 10.2V7.75146ZM11.3496 10.2V8.80999L15.1896 12.65H13.7996C11.8096 12.65 11.3496 12.19 11.3496 10.2ZM16.75 4.99999V3.80999L20.19 7.24999H19C17.17 7.24999 16.75 6.82999 16.75 4.99999Z" fill="#292D32"/>
</svg>
