<svg viewBox="0 0 24 24" fill="none" xmlns="http://www.w3.org/2000/svg">
<path fill-rule="evenodd" clip-rule="evenodd" d="M14.6797 2.64999C14.6797 2.07999 15.3897 1.79999 15.7997 2.20999C16.7989 3.20919 18.2995 4.72345 19.6121 6.04807C20.2438 6.68546 20.8319 7.27894 21.2997 7.74999C21.6997 8.14999 21.3997 8.81999 20.8297 8.81999H20.8294C19.6994 8.81999 18.3796 8.81999 17.4297 8.80999C15.9197 8.80999 14.6797 7.59999 14.6797 6.13999V2.64999ZM10.47 17.5299C10.62 17.6799 10.81 17.7499 11 17.7499C11.19 17.7499 11.38 17.6799 11.52 17.5199L13.52 15.5199L13.56 15.4799C13.66 15.3599 13.72 15.2299 13.74 15.0899V14.9299C13.73 14.7699 13.66 14.5999 13.53 14.4699L11.53 12.4699C11.24 12.1799 10.76 12.1799 10.47 12.4699C10.32 12.6199 10.25 12.8099 10.25 12.9999C10.25 13.1899 10.32 13.3799 10.47 13.5299L11.19 14.2499H7C6.59 14.2499 6.25 14.5899 6.25 14.9999C6.25 15.4099 6.59 15.7499 7 15.7499H11.19L10.47 16.4699C10.18 16.7599 10.18 17.2399 10.47 17.5299Z" fill="#292D32"/>
<path opacity="0.4" d="M20.5 10.19H17.61C15.24 10.19 13.31 8.26 13.31 5.89V3C13.31 2.45 12.86 2 12.31 2H8.07C4.99 2 2.5 4 2.5 7.57V16.43C2.5 20 4.99 22 8.07 22H15.93C19.01 22 21.5 20 21.5 16.43V11.19C21.5 10.64 21.05 10.19 20.5 10.19Z" fill="#292D32"/>
</svg>
