<svg viewBox="0 0 24 24" fill="none" xmlns="http://www.w3.org/2000/svg">
<path fill-rule="evenodd" clip-rule="evenodd" d="M9 22.75H15C20.43 22.75 22.75 20.43 22.75 15V10C22.75 9.8796 22.7207 9.76524 22.6689 9.66375C22.6335 9.5926 22.5869 9.52689 22.53 9.46999L14.53 1.46999C14.5087 1.4497 14.4865 1.43071 14.4635 1.41307C14.3354 1.31124 14.174 1.25 14 1.25H9C3.57 1.25 1.25 3.57 1.25 9V15C1.25 20.43 3.57 22.75 9 22.75ZM13.25 2.75H9C4.39 2.75 2.75 4.39 2.75 9V15C2.75 19.61 4.39 21.25 9 21.25H15C19.61 21.25 21.25 19.61 21.25 15V10.75H18C14.58 10.75 13.25 9.41999 13.25 5.99999V2.75ZM14.75 5.99999V3.80999L20.19 9.24999H18C15.42 9.24999 14.75 8.57999 14.75 5.99999Z" fill="#292D32"/>
</svg>
