<svg viewBox="0 0 24 24" fill="none" xmlns="http://www.w3.org/2000/svg">
<path fill-rule="evenodd" clip-rule="evenodd" d="M14.6797 2.64999C14.6797 2.07999 15.3897 1.79999 15.7997 2.20999C16.7989 3.20919 18.2995 4.72345 19.6121 6.04807C20.2438 6.68546 20.8319 7.27894 21.2997 7.74999C21.6997 8.14999 21.3997 8.81999 20.8297 8.81999H20.8294C19.6994 8.81999 18.3796 8.81999 17.4297 8.80999C15.9197 8.80999 14.6797 7.59999 14.6797 6.13999V2.64999ZM9.52945 10.47L11.5295 12.47C11.8195 12.76 11.8195 13.24 11.5295 13.53C11.3795 13.68 11.1895 13.75 10.9995 13.75C10.8095 13.75 10.6195 13.68 10.4695 13.53L9.74945 12.81V17C9.74945 17.41 9.40945 17.75 8.99945 17.75C8.58945 17.75 8.24945 17.41 8.24945 17V12.81L7.52945 13.53C7.23945 13.82 6.75945 13.82 6.46945 13.53C6.17945 13.24 6.17945 12.76 6.46945 12.47L8.46945 10.47C8.52945 10.4 8.60945 10.36 8.68945 10.32C8.70945 10.31 8.72945 10.3 8.75945 10.29C8.81945 10.27 8.88945 10.25 8.94945 10.25H9.02945C9.10945 10.26 9.18945 10.27 9.26945 10.3H9.28945C9.36945 10.34 9.44945 10.39 9.50945 10.45C9.50945 10.4562 9.51327 10.4585 9.51855 10.4618C9.52181 10.4638 9.52563 10.4662 9.52945 10.47Z" fill="#292D32"/>
<path opacity="0.4" d="M20.5 10.19H17.61C15.24 10.19 13.31 8.26 13.31 5.89V3C13.31 2.45 12.86 2 12.31 2H8.07C4.99 2 2.5 4 2.5 7.57V16.43C2.5 20 4.99 22 8.07 22H15.93C19.01 22 21.5 20 21.5 16.43V11.19C21.5 10.64 21.05 10.19 20.5 10.19Z" fill="#292D32"/>
</svg>
