<svg viewBox="0 0 24 24" fill="none" xmlns="http://www.w3.org/2000/svg">
<path fill-rule="evenodd" clip-rule="evenodd" d="M11.36 1H3.23C2.55 1 2 1.56 2 2.31V3.75C2 4.12 2.25 4.68 2.56 4.99L4.9 7.49C5.14 7.8 5.39 8.36 5.39 8.8V12.11C5.39 13.11 6.5 13.67 7.3 13.17L8.17 12.6C8.47 12.41 8.72 11.91 8.72 11.54V8.86C8.72 8.36 8.96 7.74 9.33 7.43L11.97 5.05C12.28 4.74 12.59 4.12 12.59 3.62V2.25C12.59 1.56 12.04 1 11.36 1ZM14.6 2H17C19.76 2 22 4.24 22 7V17C22 19.76 19.76 22 17 22H7C4.24 22 2 19.76 2 17V9.21C2 8.76 2.54 8.54 2.85 8.86L3.85 9.86C3.95 9.95 4 10.08 4 10.21V12.438C4 12.7245 4.03113 13.0143 4.1531 13.2736C4.39183 13.781 4.78254 14.2134 5.3 14.5C5.72 14.73 6.18 14.85 6.64 14.85C7.15 14.85 7.66 14.71 8.12 14.42L8.94 13.89C9.68 13.44 10.22 12.45 10.22 11.54V8.79C10.2391 8.73914 10.2662 8.68019 10.2912 8.62601C10.3055 8.59497 10.3191 8.5655 10.33 8.54L13.05 6.11C13.57 5.58 14.1 4.61 14.1 3.62V2.5C14.1 2.22 14.32 2 14.6 2ZM11 17.75H18C18.41 17.75 18.75 17.41 18.75 17C18.75 16.59 18.41 16.25 18 16.25H11C10.59 16.25 10.25 16.59 10.25 17C10.25 17.41 10.59 17.75 11 17.75ZM13 13.75H18C18.41 13.75 18.75 13.41 18.75 13C18.75 12.59 18.41 12.25 18 12.25H13C12.59 12.25 12.25 12.59 12.25 13C12.25 13.41 12.59 13.75 13 13.75Z" fill="#292D32"/>
</svg>
