<svg viewBox="0 0 24 24" fill="none" xmlns="http://www.w3.org/2000/svg">
<path fill-rule="evenodd" clip-rule="evenodd" d="M15.7997 2.20999C15.3897 1.79999 14.6797 2.07999 14.6797 2.64999V6.13999C14.6797 7.59999 15.9197 8.80999 17.4297 8.80999C18.3796 8.81999 19.6994 8.81999 20.8294 8.81999H20.8297C21.3997 8.81999 21.6997 8.14999 21.2997 7.74999C20.8319 7.27894 20.2438 6.68546 19.6121 6.04807C18.2995 4.72345 16.7989 3.20919 15.7997 2.20999ZM13.5 13.75H7.5C7.09 13.75 6.75 13.41 6.75 13C6.75 12.59 7.09 12.25 7.5 12.25H13.5C13.91 12.25 14.25 12.59 14.25 13C14.25 13.41 13.91 13.75 13.5 13.75ZM7.5 17.75H11.5C11.91 17.75 12.25 17.41 12.25 17C12.25 16.59 11.91 16.25 11.5 16.25H7.5C7.09 16.25 6.75 16.59 6.75 17C6.75 17.41 7.09 17.75 7.5 17.75Z" fill="#292D32"/>
<path opacity="0.4" d="M20.5 10.19H17.61C15.24 10.19 13.31 8.26 13.31 5.89V3C13.31 2.45 12.86 2 12.31 2H8.07C4.99 2 2.5 4 2.5 7.57V16.43C2.5 20 4.99 22 8.07 22H15.93C19.01 22 21.5 20 21.5 16.43V11.19C21.5 10.64 21.05 10.19 20.5 10.19Z" fill="#292D32"/>
</svg>
