<svg viewBox="0 0 24 24" fill="none" xmlns="http://www.w3.org/2000/svg">
<path fill-rule="evenodd" clip-rule="evenodd" d="M17.8198 2H15.8498H14.7598H11.9298C9.66977 2 7.83977 3.44 7.75977 6.01C7.78977 6.01 7.81727 6.0075 7.84477 6.005C7.87227 6.0025 7.89977 6 7.92977 6H10.7598H11.8498H13.8198C16.1298 6 17.9998 7.5 17.9998 10.18V12.15V14.86V16.83C17.9998 16.8614 17.997 16.89 17.9944 16.9173V16.9174C17.992 16.9423 17.9898 16.9661 17.9898 16.99C20.2198 16.92 21.9998 15.44 21.9998 12.83V10.86V8.15V6.18C21.9998 3.5 20.1298 2 17.8198 2ZM15.5 13.15H13.33C11.55 13.15 10.1 11.71 10.1 9.92V7.75C10.1 7.34 9.77 7 9.35 7H6.18C3.87 7 2 8.5 2 11.18V17.82C2 20.5 3.87 22 6.18 22H12.07C14.38 22 16.25 20.5 16.25 17.82V13.9C16.25 13.48 15.91 13.15 15.5 13.15ZM11.1406 7.4817C11.1406 7.0517 11.6706 6.8417 11.9806 7.1517C13.0806 8.2717 15.0206 10.2217 16.1106 11.3117C16.4106 11.6117 16.1906 12.1117 15.7606 12.1117C14.9106 12.1117 13.9206 12.1117 13.2106 12.1017C12.0706 12.1017 11.1406 11.2017 11.1406 10.1017V7.4817Z" fill="#292D32"/>
</svg>
