<svg viewBox="0 0 24 24" fill="none" xmlns="http://www.w3.org/2000/svg">
<path fill-rule="evenodd" clip-rule="evenodd" d="M16 22.75C19.65 22.75 21.75 20.65 21.75 17V7C21.75 3.35 19.65 1.25 16 1.25H8C4.35 1.25 2.25 3.35 2.25 7V17C2.25 20.65 4.35 22.75 8 22.75H16ZM3.75 7C3.75 4.14 5.14 2.75 8 2.75H16C18.86 2.75 20.25 4.14 20.25 7V17C20.25 19.86 18.86 21.25 16 21.25H8C5.14 21.25 3.75 19.86 3.75 17V7ZM16.5 9.25H18.5C18.91 9.25 19.25 8.91 19.25 8.5C19.25 8.09 18.91 7.75 18.5 7.75H16.5C15.81 7.75 15.25 7.19 15.25 6.5V4.5C15.25 4.09 14.91 3.75 14.5 3.75C14.09 3.75 13.75 4.09 13.75 4.5V6.5C13.75 8.02 14.98 9.25 16.5 9.25ZM12 13.75H8C7.59 13.75 7.25 13.41 7.25 13C7.25 12.59 7.59 12.25 8 12.25H12C12.41 12.25 12.75 12.59 12.75 13C12.75 13.41 12.41 13.75 12 13.75ZM7.25 17C7.25 17.41 7.59 17.75 8 17.75H16C16.41 17.75 16.75 17.41 16.75 17C16.75 16.59 16.41 16.25 16 16.25H8C7.59 16.25 7.25 16.59 7.25 17Z" fill="#292D32"/>
</svg>
