<svg viewBox="0 0 24 24" fill="none" xmlns="http://www.w3.org/2000/svg">
<path fill-rule="evenodd" clip-rule="evenodd" d="M17.61 10.19H20.5C21.05 10.19 21.5 10.64 21.5 11.19V16.43C21.5 20 19.01 22 15.93 22H8.07C4.99 22 2.5 20 2.5 16.43V7.57C2.5 4 4.99 2 8.07 2H12.31C12.86 2 13.31 2.45 13.31 3V5.89C13.31 8.26 15.24 10.19 17.61 10.19ZM14.6797 2.65048C14.6797 2.08048 15.3897 1.80048 15.7997 2.21048C16.7989 3.20968 18.2995 4.72395 19.6121 6.04857C20.2438 6.68595 20.8319 7.27943 21.2997 7.75048C21.6997 8.15048 21.3997 8.82048 20.8297 8.82048H20.829C19.6992 8.82048 18.3795 8.82048 17.4297 8.81048C15.9197 8.81048 14.6797 7.60048 14.6797 6.14048V2.65048Z" fill="#292D32"/>
</svg>
