<svg viewBox="0 0 24 24" fill="none" xmlns="http://www.w3.org/2000/svg">
<path fill-rule="evenodd" clip-rule="evenodd" d="M15 22.75H9C3.57 22.75 1.25 20.43 1.25 15V9C1.25 3.57 3.57 1.25 9 1.25H14C14.174 1.25 14.3354 1.31124 14.4635 1.41307C14.4865 1.43071 14.5087 1.4497 14.53 1.46999L22.53 9.46999C22.5869 9.52689 22.6335 9.5926 22.6689 9.66375C22.7207 9.76524 22.75 9.8796 22.75 10V15C22.75 20.43 20.43 22.75 15 22.75ZM21.25 10.75V15C21.25 19.61 19.61 21.25 15 21.25H9C4.39 21.25 2.75 19.61 2.75 15V9C2.75 4.39 4.39 2.75 9 2.75H13.25V5.99999C13.25 9.41999 14.58 10.75 18 10.75H21.25ZM11 17.7499C10.81 17.7499 10.62 17.6799 10.47 17.5299C10.18 17.2399 10.18 16.7599 10.47 16.4699L11.19 15.7499H7C6.59 15.7499 6.25 15.4099 6.25 14.9999C6.25 14.5899 6.59 14.2499 7 14.2499H11.19L10.47 13.5299C10.32 13.3799 10.25 13.1899 10.25 12.9999C10.25 12.8099 10.32 12.6199 10.47 12.4699C10.76 12.1799 11.24 12.1799 11.53 12.4699L13.53 14.4699C13.66 14.5999 13.73 14.7699 13.74 14.9299V15.0899C13.72 15.2299 13.66 15.3599 13.56 15.4799L13.52 15.5199L11.52 17.5199C11.38 17.6799 11.19 17.7499 11 17.7499ZM14.75 5.99999V3.80999L20.19 9.24999H18C15.42 9.24999 14.75 8.57999 14.75 5.99999Z" fill="#292D32"/>
</svg>
