<svg viewBox="0 0 24 24" fill="none" xmlns="http://www.w3.org/2000/svg">
<path fill-rule="evenodd" clip-rule="evenodd" d="M6.03003 15.8203C6.36003 16.0103 6.72002 16.1003 7.08002 16.1003C7.47002 16.1003 7.85997 15.9902 8.21997 15.7702L9.14001 15.1703C9.69001 14.8403 10.11 14.0702 10.11 13.3802V10.4803C10.11 10.1403 10.3 9.68023 10.53 9.49023L13.46 6.90024C13.9 6.46024 14.35 5.60025 14.35 4.82025V3.34024C14.35 2.18024 13.41 1.24023 12.25 1.24023H3.34998C2.16998 1.24023 1.25 2.20025 1.25 3.41025V4.96024C1.25 5.57024 1.59 6.37023 2.06 6.83023L4.58002 9.48026C4.79002 9.73026 4.96002 10.1702 4.96002 10.4302V14.0002C4.96002 14.7602 5.36003 15.4403 6.03003 15.8203ZM2.75 3.42026C2.75 3.04026 3.00998 2.75024 3.34998 2.75024V2.74023H12.25C12.58 2.74023 12.85 3.01024 12.85 3.34024V4.82025C12.85 5.14025 12.61 5.63024 12.43 5.81024L9.54999 8.36023C8.99999 8.83023 8.60999 9.70023 8.60999 10.4902V13.3903C8.60999 13.5603 8.46998 13.8402 8.34998 13.9102L7.41998 14.5103C7.19998 14.6503 6.94003 14.6003 6.78003 14.5103C6.66003 14.4503 6.46997 14.3002 6.46997 14.0002V10.4302C6.46997 9.74024 6.09997 8.97024 5.71997 8.50024L3.14001 5.79025C2.92001 5.57025 2.75 5.14025 2.75 4.97025V3.42026ZM9 22.6304H15C20.43 22.6304 22.75 20.3104 22.75 14.8804V8.88036C22.75 5.42036 21.8 3.27035 19.78 2.12035C19.27 1.83035 18.38 1.59036 17.07 1.38036C16.67 1.31036 16.28 1.59036 16.21 2.00036C16.14 2.41036 16.42 2.80037 16.83 2.86037C18.35 3.10037 18.88 3.34035 19.04 3.43035C20.57 4.30035 21.25 5.98036 21.25 8.88036V14.8804C21.25 19.4904 19.61 21.1304 15 21.1304H9C4.39 21.1304 2.75 19.4904 2.75 14.8804V11.8804C2.75 11.4704 2.41 11.1304 2 11.1304C1.59 11.1304 1.25 11.4704 1.25 11.8804V14.8804C1.25 20.3104 3.57 22.6304 9 22.6304ZM18 13.75H13C12.59 13.75 12.25 13.41 12.25 13C12.25 12.59 12.59 12.25 13 12.25H18C18.41 12.25 18.75 12.59 18.75 13C18.75 13.41 18.41 13.75 18 13.75ZM11 17.75H18C18.41 17.75 18.75 17.41 18.75 17C18.75 16.59 18.41 16.25 18 16.25H11C10.59 16.25 10.25 16.59 10.25 17C10.25 17.41 10.59 17.75 11 17.75Z" fill="#292D32"/>
</svg>
