<svg viewBox="0 0 24 24" fill="none" xmlns="http://www.w3.org/2000/svg">
<path fill-rule="evenodd" clip-rule="evenodd" d="M9.64977 2H14.3498C15.3898 2 16.2398 2.84 16.2298 3.88V4.82C16.2298 5.86 15.3898 6.7 14.3498 6.7H9.63977C8.59977 6.7 7.75977 5.86 7.75977 4.82V3.88C7.75977 2.84 8.60977 2 9.64977 2ZM20.7091 17.799V8.38902C20.7091 6.67902 19.7491 5.18902 18.3391 4.43902C17.8391 4.17902 17.2391 4.52902 17.2391 5.08902C17.2391 6.67902 15.9391 7.97902 14.3491 7.97902H9.64906C8.05906 7.97902 6.75906 6.67902 6.75906 5.08902C6.75906 4.52902 6.14906 4.17902 5.65906 4.43902C4.24906 5.18902 3.28906 6.67902 3.28906 8.38902V17.799C3.28906 20.259 5.29906 22.269 7.75906 22.269H16.2391C18.6991 22.269 20.7091 20.259 20.7091 17.799Z" fill="#292D32"/>
</svg>
