<svg viewBox="0 0 24 24" fill="none" xmlns="http://www.w3.org/2000/svg">
<path fill-rule="evenodd" clip-rule="evenodd" d="M17.61 10.19H20.5C21.05 10.19 21.5 10.64 21.5 11.19V16.43C21.5 20 19.01 22 15.93 22H8.07C4.99 22 2.5 20 2.5 16.43V7.57C2.5 4 4.99 2 8.07 2H12.31C12.86 2 13.31 2.45 13.31 3V5.89C13.31 8.26 15.24 10.19 17.61 10.19ZM11 13.75C11.19 13.75 11.38 13.68 11.53 13.53C11.82 13.24 11.82 12.76 11.53 12.47L9.53 10.47C9.53 10.4638 9.52618 10.4615 9.5209 10.4582C9.51764 10.4562 9.51382 10.4538 9.51 10.45C9.45 10.39 9.37 10.33 9.29 10.3H9.27C9.19 10.27 9.11 10.25 9.03 10.25H8.95C8.88 10.26 8.82 10.27 8.76 10.29C8.75 10.295 8.7375 10.3 8.725 10.305C8.7125 10.31 8.7 10.315 8.69 10.32C8.61 10.36 8.54 10.41 8.47 10.47L6.47 12.47C6.18 12.76 6.18 13.24 6.47 13.53C6.76 13.82 7.24 13.82 7.53 13.53L8.25 12.81V17C8.25 17.41 8.59 17.75 9 17.75C9.41 17.75 9.75 17.41 9.75 17V12.81L10.47 13.53C10.62 13.68 10.81 13.75 11 13.75ZM20.829 8.82048C19.6992 8.82048 18.3795 8.82048 17.4297 8.81048C15.9197 8.81048 14.6797 7.60048 14.6797 6.14048V2.65048C14.6797 2.08048 15.3897 1.80048 15.7997 2.21048C16.7989 3.20968 18.2995 4.72395 19.6121 6.04857C20.2438 6.68595 20.8319 7.27943 21.2997 7.75048C21.6997 8.15048 21.3997 8.82048 20.8297 8.82048H20.829Z" fill="#292D32"/>
</svg>
