<svg viewBox="0 0 24 24" fill="none" xmlns="http://www.w3.org/2000/svg">
<path fill-rule="evenodd" clip-rule="evenodd" d="M15.8498 2H17.8198C20.1298 2 21.9998 3.5 21.9998 6.18V8.15V10.86V12.83C21.9998 15.44 20.2198 16.92 17.9898 16.99C17.9898 16.9661 17.992 16.9423 17.9944 16.9173C17.997 16.89 17.9998 16.8614 17.9998 16.83V14.86V12.15V10.18C17.9998 7.5 16.1298 6 13.8198 6H11.8498H10.7598H7.92977C7.89977 6 7.87227 6.0025 7.84477 6.005C7.81727 6.0075 7.78977 6.01 7.75977 6.01C7.83977 3.44 9.66977 2 11.9298 2H14.7598H15.8498ZM11.1406 7.48024C11.1406 7.05024 11.6706 6.84024 11.9806 7.15024C13.0806 8.27024 15.0206 10.2202 16.1106 11.3102C16.4106 11.6102 16.1906 12.1102 15.7606 12.1102C14.9106 12.1102 13.9206 12.1102 13.2106 12.1002C12.0706 12.1002 11.1406 11.2002 11.1406 10.1002V7.48024Z" fill="#292D32"/>
<path opacity="0.4" d="M15.5 13.15H13.33C11.55 13.15 10.1 11.71 10.1 9.92V7.75C10.1 7.34 9.77 7 9.35 7H6.18C3.87 7 2 8.5 2 11.18V17.82C2 20.5 3.87 22 6.18 22H12.07C14.38 22 16.25 20.5 16.25 17.82V13.9C16.25 13.48 15.91 13.15 15.5 13.15Z" fill="#292D32"/>
</svg>
