<svg viewBox="0 0 24 24" fill="none" xmlns="http://www.w3.org/2000/svg">
<path fill-rule="evenodd" clip-rule="evenodd" d="M14.6797 2.64999C14.6797 2.07999 15.3897 1.79999 15.7997 2.20999C16.7989 3.20919 18.2995 4.72345 19.6121 6.04807C20.2438 6.68546 20.8319 7.27894 21.2997 7.74999C21.6997 8.14999 21.3997 8.81999 20.8297 8.81999H20.8294C19.6994 8.81999 18.3796 8.81999 17.4297 8.80999C15.9197 8.80999 14.6797 7.59999 14.6797 6.13999V2.64999ZM8.81024 14.2499H13.0002C13.4102 14.2499 13.7502 14.5799 13.7502 14.9899C13.7502 15.3999 13.4102 15.7399 13.0002 15.7399H8.80023L9.52024 16.4599C9.81024 16.7499 9.81024 17.2299 9.52024 17.5199C9.37023 17.6699 9.18023 17.7399 8.99023 17.7399C8.80023 17.7399 8.61023 17.6699 8.46023 17.5199L6.46023 15.5199C6.39023 15.4599 6.35023 15.3799 6.31023 15.2999C6.30023 15.2799 6.29023 15.2599 6.28023 15.2299L6.28023 15.2299C6.26023 15.1699 6.24023 15.1099 6.24023 15.0499V14.9699C6.25023 14.8899 6.26023 14.8099 6.29023 14.7299L6.29024 14.7299C6.30023 14.7199 6.30023 14.7199 6.30023 14.7099C6.34023 14.6299 6.39023 14.5499 6.45023 14.4899C6.45641 14.4899 6.45878 14.4861 6.46204 14.4808C6.46405 14.4776 6.46641 14.4738 6.47023 14.4699L8.47023 12.4699C8.76023 12.1799 9.24023 12.1799 9.53023 12.4699C9.82023 12.7599 9.82023 13.2399 9.53023 13.5299L8.81024 14.2499Z" fill="#292D32"/>
<path opacity="0.4" d="M20.5 10.19H17.61C15.24 10.19 13.31 8.26 13.31 5.89V3C13.31 2.45 12.86 2 12.31 2H8.07C4.99 2 2.5 4 2.5 7.57V16.43C2.5 20 4.99 22 8.07 22H15.93C19.01 22 21.5 20 21.5 16.43V11.19C21.5 10.64 21.05 10.19 20.5 10.19Z" fill="#292D32"/>
</svg>
