<svg viewBox="0 0 24 24" fill="none" xmlns="http://www.w3.org/2000/svg">
<path fill-rule="evenodd" clip-rule="evenodd" d="M15 22.75H9C3.57 22.75 1.25 20.43 1.25 15V9C1.25 3.57 3.57 1.25 9 1.25H14C14.174 1.25 14.3354 1.31124 14.4635 1.41307C14.4865 1.43071 14.5087 1.4497 14.53 1.46999L22.53 9.46999C22.5869 9.52689 22.6335 9.5926 22.6689 9.66375C22.7207 9.76524 22.75 9.8796 22.75 10V15C22.75 20.43 20.43 22.75 15 22.75ZM21.25 10.75V15C21.25 19.61 19.61 21.25 15 21.25H9C4.39 21.25 2.75 19.61 2.75 15V9C2.75 4.39 4.39 2.75 9 2.75H13.25V5.99999C13.25 9.41999 14.58 10.75 18 10.75H21.25ZM8.96673 17.7492C8.97772 17.7497 8.9888 17.75 9 17.75C9.0104 17.75 9.02083 17.7498 9.03128 17.7493C9.18824 17.7428 9.34367 17.6881 9.47498 17.5795C9.49416 17.564 9.51255 17.5475 9.53 17.53L11.53 15.53C11.82 15.24 11.82 14.76 11.53 14.47C11.24 14.18 10.76 14.18 10.47 14.47L9.75 15.19V11C9.75 10.59 9.41 10.25 9 10.25C8.59 10.25 8.25 10.59 8.25 11V15.1905L7.52945 14.4699C7.23945 14.1799 6.75945 14.1799 6.46945 14.4699C6.17945 14.7599 6.17945 15.2399 6.46945 15.5299L8.4371 17.4976C8.48761 17.555 8.54719 17.6047 8.61437 17.6437C8.72381 17.7098 8.8448 17.7441 8.96673 17.7492ZM14.75 5.99999V3.80999L20.19 9.24999H18C15.42 9.24999 14.75 8.57999 14.75 5.99999Z" fill="#292D32"/>
</svg>
