<svg viewBox="0 0 24 24" fill="none" xmlns="http://www.w3.org/2000/svg">
<path fill-rule="evenodd" clip-rule="evenodd" d="M14.6797 2.64998C14.6797 2.07998 15.3897 1.8 15.7997 2.21C16.7989 3.20926 18.2997 4.72365 19.6124 6.04832C20.2439 6.68561 20.8319 7.279 21.2997 7.74999C21.6997 8.14999 21.3997 8.82 20.8297 8.82C19.6997 8.82 18.3797 8.81999 17.4297 8.80999C15.9197 8.80999 14.6797 7.59999 14.6797 6.13999V2.64998ZM14.7605 22.9998C12.4105 22.8298 12.4105 19.4298 14.7605 19.2598L14.7805 19.2698C13.1805 14.7998 19.9605 13.0198 20.7405 17.7098C22.9105 17.9798 23.7905 20.8598 22.1405 22.2998C21.6505 22.7498 20.9905 22.9998 20.3205 22.9998H14.7605Z" fill="#292D32"/>
<path opacity="0.4" d="M20 10.19H17.11C14.74 10.19 12.81 8.26 12.81 5.89V3C12.81 2.45 12.36 2 11.81 2H7.57C4.49 2 2 4.00001 2 7.57001V16.43C2 20 4.49 22 7.57 22H15.43C18.51 22 21 20 21 16.43V11.19C21 10.64 20.55 10.19 20 10.19Z" fill="#292D32"/>
</svg>
