<svg viewBox="0 0 24 24" fill="none" xmlns="http://www.w3.org/2000/svg">
<path fill-rule="evenodd" clip-rule="evenodd" d="M15 22.75H9C3.57 22.75 1.25 20.43 1.25 15V9C1.25 3.57 3.57 1.25 9 1.25H14C14.174 1.25 14.3354 1.31124 14.4635 1.41307C14.4865 1.43071 14.5087 1.4497 14.53 1.46999L22.53 9.46999C22.5869 9.52689 22.6335 9.5926 22.6689 9.66375C22.7207 9.76524 22.75 9.8796 22.75 10V15C22.75 20.43 20.43 22.75 15 22.75ZM21.25 10.75V15C21.25 19.61 19.61 21.25 15 21.25H9C4.39 21.25 2.75 19.61 2.75 15V9C2.75 4.39 4.39 2.75 9 2.75H13.25V5.99999C13.25 9.41999 14.58 10.75 18 10.75H21.25ZM8.24945 17C8.24945 17.41 8.58945 17.75 8.99945 17.75C9.40945 17.75 9.74945 17.41 9.74945 17V12.8099L10.4695 13.5299C10.6195 13.6799 10.8095 13.7499 10.9995 13.7499C11.1895 13.7499 11.3795 13.6799 11.5295 13.5299C11.8195 13.2399 11.8195 12.7599 11.5295 12.4699L9.56542 10.5059C9.49433 10.424 9.40499 10.3578 9.30155 10.3149C9.29187 10.3107 9.28212 10.3067 9.2723 10.3029C9.11658 10.2409 8.94666 10.2365 8.79118 10.2814C8.67288 10.315 8.56158 10.3778 8.46945 10.4699L8.46442 10.475L6.46945 12.47C6.17945 12.76 6.17945 13.24 6.46945 13.53C6.75945 13.82 7.23945 13.82 7.52945 13.53L8.24945 12.81V17ZM14.75 5.99999V3.80999L20.19 9.24999H18C15.42 9.24999 14.75 8.57999 14.75 5.99999Z" fill="#292D32"/>
</svg>
