<svg viewBox="0 0 24 24" fill="none" xmlns="http://www.w3.org/2000/svg">
<path fill-rule="evenodd" clip-rule="evenodd" d="M14.6797 2.64999C14.6797 2.07999 15.3897 1.79999 15.7997 2.20999C16.7989 3.20919 18.2995 4.72345 19.6121 6.04807C20.2438 6.68546 20.8319 7.27894 21.2997 7.74999C21.6997 8.14999 21.3997 8.81999 20.8297 8.81999H20.8294C19.6994 8.81999 18.3796 8.81999 17.4297 8.80999C15.9197 8.80999 14.6797 7.59999 14.6797 6.13999V2.64999ZM11.2195 14.72C11.5095 14.43 11.9895 14.43 12.2795 14.72C12.5695 15.01 12.5695 15.49 12.2795 15.78L10.2795 17.78C10.1995 17.85 10.1195 17.9 10.0295 17.94C9.93945 17.98 9.84945 18 9.74945 18C9.64945 18 9.55945 17.98 9.45945 17.95C9.37945 17.91 9.29945 17.86 9.23945 17.8C9.23945 17.7938 9.23563 17.7915 9.23036 17.7882C9.22709 17.7862 9.22327 17.7838 9.21945 17.78L7.21945 15.78C6.92945 15.49 6.92945 15.01 7.21945 14.72C7.50945 14.43 7.98945 14.43 8.27945 14.72L8.99945 15.44V11.25C8.99945 10.84 9.33945 10.5 9.74945 10.5C10.1595 10.5 10.4995 10.84 10.4995 11.25V15.44L11.2195 14.72Z" fill="#292D32"/>
<path opacity="0.4" d="M20.5 10.19H17.61C15.24 10.19 13.31 8.26 13.31 5.89V3C13.31 2.45 12.86 2 12.31 2H8.07C4.99 2 2.5 4 2.5 7.57V16.43C2.5 20 4.99 22 8.07 22H15.93C19.01 22 21.5 20 21.5 16.43V11.19C21.5 10.64 21.05 10.19 20.5 10.19Z" fill="#292D32"/>
</svg>
