<svg viewBox="0 0 24 24" fill="none" xmlns="http://www.w3.org/2000/svg">
<path fill-rule="evenodd" clip-rule="evenodd" d="M7.81 2H16.19C19.83 2 22 4.17 22 7.81V16.19C22 19.83 19.83 22 16.19 22H7.81C4.17 22 2 19.83 2 16.19V7.81C2 4.17 4.17 2 7.81 2ZM16.08 14.63C16.08 12.84 15.04 12.27 14.26 12L12.75 11.47V8.08H13.11C13.92 8.08 14.58 8.79 14.58 9.67C14.58 10.08 14.92 10.42 15.33 10.42C15.75 10.42 16.08 10.08 16.08 9.67C16.08 7.97 14.75 6.58 13.11 6.58H12.75V6C12.75 5.59 12.41 5.25 12 5.25C11.59 5.25 11.25 5.59 11.25 6V6.58H10.6C9.12 6.58 7.92 7.83 7.92 9.37C7.92 11.16 8.96 11.73 9.74 12L11.25 12.53V15.92H10.89C10.08 15.92 9.42 15.21 9.42 14.33C9.42 13.92 9.08 13.58 8.67 13.58C8.25 13.58 7.92 13.92 7.92 14.33C7.92 16.03 9.25 17.42 10.89 17.42H11.25V18C11.25 18.41 11.59 18.75 12 18.75C12.41 18.75 12.75 18.41 12.75 18V17.42H13.4C14.88 17.42 16.08 16.17 16.08 14.63ZM11.2519 8.07812V10.9381L10.2419 10.5881C9.73187 10.4081 9.42188 10.2381 9.42188 9.36812C9.42188 8.65812 9.95188 8.07812 10.6019 8.07812H11.2519ZM14.58 14.6286C14.58 15.3386 14.05 15.9186 13.4 15.9186H12.75V13.0586L13.76 13.4086C14.27 13.5886 14.58 13.7586 14.58 14.6286Z" fill="#292D32"/>
</svg>
