<svg viewBox="0 0 25 24" fill="none" xmlns="http://www.w3.org/2000/svg">
<path fill-rule="evenodd" clip-rule="evenodd" d="M12.5 22.75C6.57 22.75 1.75 17.93 1.75 12C1.75 11.7067 1.76179 11.4161 1.78493 11.1286C1.75528 11.0354 1.74351 10.9344 1.75348 10.8297C1.76443 10.7175 1.79861 10.6128 1.8513 10.5207C2.57372 5.28875 7.07181 1.25 12.5 1.25C18.43 1.25 23.25 6.07 23.25 12C23.25 16.1929 20.8403 19.8308 17.3324 21.6024C17.3072 21.6169 17.2811 21.63 17.2541 21.6415C15.8201 22.3511 14.206 22.75 12.5 22.75ZM17.4569 19.8066C19.5793 18.454 21.116 16.2603 21.5936 13.699L18.7603 13.4398C17.764 13.3483 16.7735 13.3779 15.8071 13.5192C16.0696 14.2619 16.2947 15.0167 16.4804 15.7798L17.4569 19.8066ZM14.3305 13.8263C14.6059 14.5851 14.8399 15.3578 15.0305 16.1398L16.0934 20.5234C14.9881 20.9912 13.7737 21.25 12.5 21.25C10.3923 21.25 8.44678 20.5412 6.88945 19.3494C8.6014 16.6004 11.2897 14.6511 14.3305 13.8263ZM13.7647 12.4179C10.5167 13.3434 7.64504 15.4215 5.75967 18.3282C4.20415 16.6724 3.25 14.4454 3.25 12C3.25 11.908 3.25135 11.8162 3.25404 11.7248L5.60345 11.9398C6.02345 11.9798 6.45347 11.9998 6.87347 11.9998C8.97851 11.9998 11.031 11.5269 12.891 10.6522C13.2079 11.2278 13.4995 11.8172 13.7647 12.4179ZM15.2456 12.081C16.4369 11.8769 17.6643 11.825 18.9003 11.9398L21.7479 12.2003C21.7493 12.1337 21.75 12.0669 21.75 12C21.75 9.3751 20.6507 7.00185 18.8883 5.31656C17.6977 7.24006 16.08 8.81257 14.205 9.94792C14.5867 10.6415 14.9343 11.3538 15.2456 12.081ZM13.4385 8.65237C15.1615 7.60698 16.6422 6.14907 17.7157 4.36451C16.2298 3.34626 14.4331 2.75 12.5 2.75C11.3871 2.75 10.3194 2.94762 9.33019 3.30962L11.8904 6.4898C12.4457 7.18009 12.9627 7.90282 13.4385 8.65237ZM7.93477 3.95724C5.63165 5.26979 3.94369 7.543 3.42048 10.2272L5.74347 10.4398C7.96386 10.6437 10.1555 10.246 12.1165 9.35173C11.6892 8.68659 11.2265 8.04443 10.7304 7.4298L7.93477 3.95724Z" fill="#292D32"/>
</svg>
