<svg viewBox="0 0 24 24" fill="none" xmlns="http://www.w3.org/2000/svg">
<path fill-rule="evenodd" clip-rule="evenodd" d="M18.4397 4.79C17.9197 5.42 16.4597 6.92 13.6897 8.02C13.5297 8.09 13.3397 8.02 13.2497 7.86C11.9697 5.54 10.6097 3.59 9.97967 2.71C9.82967 2.49 9.94967 2.2 10.2097 2.15C10.7897 2.05 11.3897 2 12.0097 2C14.4297 2 16.6597 2.86 18.3897 4.3C18.5397 4.42 18.5597 4.64 18.4397 4.79ZM18.0496 19.95C19.9796 18.49 21.3596 16.35 21.8196 13.89C21.8496 13.72 21.7396 13.55 21.5696 13.49C20.7496 13.27 18.5696 12.79 16.0796 13.09C15.8596 13.12 15.7196 13.35 15.7896 13.56C16.7696 16.33 17.2796 18.66 17.4896 19.74C17.5396 19.99 17.8396 20.11 18.0496 19.95ZM15.6707 21.3098C15.8207 21.2498 15.9107 21.0798 15.8807 20.9198C15.6707 19.8198 15.1107 17.1198 13.9107 13.9298C13.8507 13.7498 13.6507 13.6598 13.4707 13.7298C8.72071 15.4898 6.57071 18.6398 6.02071 19.6198C5.93071 19.7698 5.97071 19.9698 6.11071 20.0698C7.76071 21.2898 9.81071 21.9998 12.0107 21.9998C13.3007 21.9998 14.5307 21.7598 15.6707 21.3098ZM2.66074 9.93992C3.88074 9.91992 7.23074 9.78992 11.0207 8.83992C11.2507 8.77992 11.3507 8.51992 11.2407 8.31992C9.86074 5.92992 8.45074 3.89992 7.93074 3.17992C7.83074 3.03992 7.64074 2.98992 7.49074 3.06992C4.96074 4.35992 3.04074 6.69992 2.32074 9.49992C2.26074 9.71992 2.43074 9.93992 2.66074 9.93992Z" fill="#292D32"/>
<path opacity="0.4" fill-rule="evenodd" clip-rule="evenodd" d="M15.3102 11.5501C17.9702 11.2601 20.5702 11.6401 21.5902 11.8201C21.8102 11.8601 22.0102 11.6801 22.0002 11.4301C21.8902 9.41014 21.1802 7.54014 20.0302 6.01014C19.8902 5.83014 19.6302 5.82014 19.4802 5.99014C18.8702 6.69014 17.3102 8.25014 14.5102 9.46014C14.3302 9.54014 14.2402 9.76014 14.3302 9.94014C14.5002 10.3101 14.6702 10.6901 14.8302 11.0601C14.8502 11.1051 14.8677 11.1501 14.8852 11.1951C14.9027 11.2401 14.9202 11.2851 14.9402 11.3301C15.0102 11.4801 15.1502 11.5701 15.3102 11.5501ZM12.7 12.0898C12.9 12.0198 13.01 11.7898 12.92 11.5998C12.76 11.2398 12.59 10.8898 12.41 10.5298C12.34 10.3798 12.16 10.2998 12 10.3498C7.73 11.5798 3.62 11.7498 2.36 11.6998C2.16 11.6898 2 11.8498 2 12.0498V12.2298C2 14.6298 2.85 16.5998 4.26 18.3198C4.41 18.4998 4.69 18.4898 4.82 18.2898C5.62 17.0698 8.27 13.5198 12.7 12.0898Z" fill="#292D32"/>
</svg>
