<svg viewBox="0 0 24 24" fill="none" xmlns="http://www.w3.org/2000/svg">
<path fill-rule="evenodd" clip-rule="evenodd" d="M19.1383 5.3C19.1383 5.6 18.8883 5.84 18.5983 5.84H5.52828C5.22828 5.84 4.98828 5.59 4.98828 5.3C4.98828 5 5.23828 4.76 5.52828 4.76H6.26828L6.54828 3.45C6.80828 2.17 7.34828 1 9.50828 1H14.5983C16.7583 1 17.3083 2.17 17.5683 3.44L17.8483 4.75H18.5883C18.8883 4.75 19.1383 5 19.1383 5.3ZM11.25 18C11.25 18.41 11.59 18.75 12 18.75C12.41 18.75 12.75 18.41 12.75 18V17C12.75 16.59 12.41 16.25 12 16.25C11.59 16.25 11.25 16.59 11.25 17V18ZM11.25 22C11.25 22.41 11.59 22.75 12 22.75C12.41 22.75 12.75 22.41 12.75 22V21C12.75 20.59 12.41 20.25 12 20.25C11.59 20.25 11.25 20.59 11.25 21V22ZM1.99814 22.7481C1.93814 22.7481 1.87814 22.7381 1.81814 22.7281C1.41814 22.6281 1.16814 22.2181 1.26814 21.8181L2.26814 17.8181C2.36814 17.4181 2.76814 17.1681 3.17814 17.2681C3.57814 17.3681 3.82814 17.7781 3.72814 18.1781L2.72814 22.1781C2.63814 22.5181 2.33814 22.7481 1.99814 22.7481ZM21.0226 21.9326C21.1126 22.2726 21.4126 22.5026 21.7526 22.5026C21.8126 22.5026 21.8726 22.4926 21.9326 22.4826L21.9326 22.4826C22.3426 22.3826 22.5826 21.9726 22.4826 21.5726L21.4826 17.5726C21.3826 17.1626 20.9726 16.9226 20.5726 17.0226C20.1626 17.1226 19.9226 17.5326 20.0226 17.9326L21.0226 21.9326ZM16.6882 6.92969C19.0182 6.92969 19.3382 8.19969 19.4482 9.39969L19.8482 13.8197C19.8982 14.3697 19.7182 14.9297 19.3382 15.3397C18.9482 15.7597 18.3982 15.9997 17.8282 15.9997H16.4682C15.2982 15.9997 15.0682 15.3297 14.9282 14.8797L14.7782 14.4397L14.7746 14.4292C14.5879 13.8888 14.564 13.8197 13.9182 13.8197H10.1982C9.54899 13.8197 9.50829 13.9394 9.33882 14.4378L9.33819 14.4397L9.18819 14.8797L9.18693 14.8835C9.03695 15.3334 8.81488 15.9997 7.63819 15.9997H6.27819C5.69819 15.9997 5.15819 15.7597 4.76819 15.3397C4.38819 14.9197 4.20819 14.3697 4.25819 13.8197L4.66819 9.39969C4.78819 8.20969 5.09819 6.92969 7.42819 6.92969H16.6882ZM7.70819 10.9197H9.87819C10.1782 10.9197 10.4282 10.6697 10.4282 10.3797C10.4282 10.0897 10.1882 9.83969 9.88819 9.83969H7.70819C7.41819 9.83969 7.16819 10.0897 7.16819 10.3797C7.16819 10.6697 7.40819 10.9197 7.70819 10.9197ZM14.2282 10.9197H16.4082C16.7082 10.9197 16.9482 10.6697 16.9482 10.3797C16.9482 10.0897 16.7082 9.83969 16.4082 9.83969H14.2282C13.9382 9.83969 13.6882 10.0897 13.6882 10.3797C13.6882 10.6697 13.9282 10.9197 14.2282 10.9197Z" fill="#292D32"/>
</svg>
