<svg viewBox="0 0 24 24" fill="none" xmlns="http://www.w3.org/2000/svg">
<path fill-rule="evenodd" clip-rule="evenodd" d="M16.6487 7.17999H16.8705L16.2405 4.16998C16.0405 3.20998 15.8105 2.76001 14.5405 2.76001H9.44054C8.18054 2.76001 7.94055 3.20998 7.74055 4.16998L7.12053 7.17999H7.34194L7.37033 7.17993H16.6203L16.6487 7.17999ZM5.50536 7.60357L5.7362 6.5H5.4707C5.0607 6.5 4.7207 6.16 4.7207 5.75C4.7207 5.34 5.0607 5 5.4707 5H6.04997L6.29053 3.84998C6.56053 2.55998 7.15054 1.25 9.45054 1.25H14.5505C16.8605 1.25 17.4505 2.56998 17.7105 3.84998L17.9511 5H18.5308C18.9408 5 19.2808 5.34 19.2808 5.75C19.2808 6.16 18.9408 6.5 18.5308 6.5H18.2649L18.4973 7.61103C19.2795 8.10129 19.4965 8.94983 19.5803 9.83997L19.9903 14.2599C20.0503 14.8699 19.8403 15.4799 19.4303 15.9299C19.0103 16.3899 18.4003 16.65 17.7703 16.65H16.4103C15.0997 16.65 14.8242 15.8415 14.6735 15.3994L14.6703 15.39L14.5203 14.95L14.5203 14.9499C14.3603 14.47 14.3603 14.4699 13.8503 14.4699H10.1403C9.63373 14.4699 9.63036 14.4798 9.47351 14.9406L9.47033 14.95L9.32034 15.39L9.31713 15.3994C9.16646 15.8415 8.89098 16.65 7.58033 16.65H6.22033C5.59033 16.65 4.98033 16.3799 4.56033 15.9199C4.15033 15.4699 3.94033 14.8599 4.00033 14.2499L4.41034 9.83997C4.49462 8.9453 4.71339 8.09266 5.50536 7.60357ZM7.0483 8.67999C6.03279 8.74784 5.99311 9.16024 5.92033 9.96991L5.51033 14.39C5.49033 14.58 5.55033 14.7699 5.69034 14.9099C5.83034 15.0599 6.03034 15.15 6.24034 15.15H7.60034C7.76379 15.15 7.83373 15.1299 7.85929 15.1226L7.8593 15.1226C7.86501 15.1209 7.8685 15.1199 7.87033 15.1199C7.86033 15.1199 7.89033 14.9999 7.92033 14.9199L8.07034 14.4799L8.07469 14.4671C8.26512 13.9055 8.58241 12.9699 10.1603 12.9699H13.8703C15.3203 12.9699 15.6903 13.68 15.9503 14.46L16.1003 14.9099C16.1203 14.9999 16.1503 15.1 16.1803 15.14L16.186 15.1401L16.1953 15.1407L16.2113 15.1419C16.2494 15.1448 16.317 15.15 16.4103 15.15H17.7703C17.9803 15.15 18.1803 15.0699 18.3203 14.9099C18.4503 14.7699 18.5103 14.58 18.5003 14.39L18.0903 9.96991C18.0175 9.16024 17.9779 8.74784 16.9624 8.67999H7.0483ZM9.82063 11.5801H7.64062C7.23063 11.5801 6.89062 11.2401 6.89062 10.8301C6.89062 10.4201 7.23063 10.0801 7.64062 10.0801H9.82063C10.2306 10.0801 10.5706 10.4201 10.5706 10.8301C10.5706 11.2401 10.2406 11.5801 9.82063 11.5801ZM14.1699 11.5801H16.3499C16.7599 11.5801 17.0999 11.2401 17.0999 10.8301C17.0999 10.4201 16.7599 10.0801 16.3499 10.0801H14.1699C13.7599 10.0801 13.4199 10.4201 13.4199 10.8301C13.4199 11.2401 13.7599 11.5801 14.1699 11.5801ZM12 18.75C11.59 18.75 11.25 18.41 11.25 18V17C11.25 16.59 11.59 16.25 12 16.25C12.41 16.25 12.75 16.59 12.75 17V18C12.75 18.41 12.41 18.75 12 18.75ZM11.25 22C11.25 22.41 11.59 22.75 12 22.75C12.41 22.75 12.75 22.41 12.75 22V21C12.75 20.59 12.41 20.25 12 20.25C11.59 20.25 11.25 20.59 11.25 21V22ZM2.00009 22.7501C1.94021 22.7501 1.88034 22.7401 1.82046 22.7301L1.8201 22.7301C1.4201 22.6301 1.1701 22.2201 1.2701 21.8201L2.2701 17.8201C2.3701 17.4201 2.77009 17.1701 3.18009 17.2701C3.58009 17.3701 3.83009 17.7801 3.73009 18.1801L2.73009 22.1801C2.64009 22.5201 2.34009 22.7501 2.00009 22.7501ZM21.2707 22.1799C21.3607 22.5199 21.6607 22.7499 22.0007 22.7499C22.0606 22.7499 22.1204 22.74 22.1803 22.73L22.1807 22.7299C22.5907 22.6299 22.8307 22.2199 22.7307 21.8199L21.7307 17.8199C21.6307 17.4099 21.2207 17.1699 20.8207 17.2699C20.4107 17.3699 20.1707 17.7799 20.2707 18.1799L21.2707 22.1799Z" fill="#292D32"/>
</svg>
