<svg viewBox="0 0 24 24" fill="none" xmlns="http://www.w3.org/2000/svg">
<path fill-rule="evenodd" clip-rule="evenodd" d="M17.7108 4.94H18.4208C18.7208 4.94 18.9608 5.17998 18.9708 5.47998C18.9708 5.77998 18.7308 6.02002 18.4308 6.02002H17.9208L18.2208 7.45001C17.8408 7.23001 17.3008 7.09003 16.5608 7.09003H7.46078C6.72079 7.09003 6.19078 7.23001 5.80078 7.45001L6.10078 6.02002H5.59077C5.29077 6.02002 5.05078 5.77998 5.05078 5.47998C5.05078 5.17998 5.29077 4.94 5.59077 4.94H6.30078H6.31078L6.58078 3.65002C6.84078 2.40002 7.37078 1.25 9.50078 1.25H11.4708H12.5408H14.5108C16.6408 1.25 17.1708 2.40002 17.4308 3.65002L17.7008 4.94H17.7108ZM12 18.75C11.59 18.75 11.25 18.41 11.25 18V17C11.25 16.59 11.59 16.25 12 16.25C12.41 16.25 12.75 16.59 12.75 17V18C12.75 18.41 12.41 18.75 12 18.75ZM12 22.75C11.59 22.75 11.25 22.41 11.25 22V21C11.25 20.59 11.59 20.25 12 20.25C12.41 20.25 12.75 20.59 12.75 21V22C12.75 22.41 12.41 22.75 12 22.75ZM1.82046 22.7301C1.88034 22.7401 1.94021 22.7501 2.00009 22.7501C2.34009 22.7501 2.64009 22.5201 2.73009 22.1801L3.73009 18.1801C3.83009 17.7801 3.58009 17.3701 3.18009 17.2701C2.77009 17.1701 2.3701 17.4201 2.2701 17.8201L1.2701 21.8201C1.1701 22.2201 1.4201 22.6301 1.8201 22.7301L1.82046 22.7301ZM22.0007 22.7499C21.6607 22.7499 21.3607 22.5199 21.2707 22.1799L20.2707 18.1799C20.1707 17.7799 20.4107 17.3699 20.8207 17.2699C21.2207 17.1699 21.6307 17.4099 21.7307 17.8199L22.7307 21.8199C22.8307 22.2199 22.5907 22.6299 22.1807 22.7299L22.1803 22.73C22.1204 22.74 22.0606 22.7499 22.0007 22.7499ZM9.8597 11.0099H7.7197C7.4197 11.0099 7.17969 10.7699 7.17969 10.4699C7.17969 10.1699 7.4197 9.92993 7.7197 9.92993H9.8597C10.1597 9.92993 10.3997 10.1699 10.3997 10.4699C10.3897 10.7699 10.1497 11.0099 9.8597 11.0099ZM14.1396 11.0099H16.2796C16.5796 11.0099 16.8196 10.7699 16.8196 10.4699C16.8196 10.1699 16.5796 9.92993 16.2796 9.92993H14.1396C13.8396 9.92993 13.5996 10.1699 13.5996 10.4699C13.5996 10.7699 13.8396 11.0099 14.1396 11.0099Z" fill="#292D32"/>
<path opacity="0.4" d="M19.2602 9.52008C19.1502 8.34008 18.8402 7.09009 16.5502 7.09009H7.45024C5.16024 7.09009 4.85024 8.35008 4.74024 9.52008L4.34024 13.86C4.29024 14.4 4.47024 14.94 4.84024 15.35C5.22024 15.76 5.76025 16.0001 6.32025 16.0001H7.66024C8.81024 16.0001 9.03023 15.3401 9.18023 14.9001L9.32025 14.47C9.48025 13.98 9.52024 13.86 10.1702 13.86H13.8202C14.4602 13.86 14.4802 13.93 14.6702 14.47L14.8102 14.9001C14.9602 15.3401 15.1802 16.0001 16.3302 16.0001H17.6702C18.2302 16.0001 18.7702 15.76 19.1502 15.35C19.5202 14.95 19.7002 14.4 19.6502 13.86L19.2602 9.52008Z" fill="#292D32"/>
</svg>
