<svg viewBox="0 0 24 24" fill="none" xmlns="http://www.w3.org/2000/svg">
<path fill-rule="evenodd" clip-rule="evenodd" d="M19.0206 3.48162C17.0806 1.54162 15.1806 1.49162 13.1906 3.48162L11.9806 4.69162C11.8806 4.79162 11.8406 4.95162 11.8806 5.09162C12.6406 7.74162 14.7606 9.86162 17.4106 10.6216C17.4506 10.6316 17.4906 10.6416 17.5306 10.6416C17.6406 10.6416 17.7406 10.6016 17.8206 10.5216L19.0206 9.31162C20.0106 8.33162 20.4906 7.38162 20.4906 6.42162C20.5006 5.43162 20.0206 4.47162 19.0206 3.48162ZM21 22H3C2.59 22 2.25 21.66 2.25 21.25C2.25 20.84 2.59 20.5 3 20.5H21C21.41 20.5 21.75 20.84 21.75 21.25C21.75 21.66 21.41 22 21 22ZM14.7703 11.0908C15.0403 11.2508 15.3203 11.3908 15.6103 11.5308C15.6492 11.5476 15.6877 11.5642 15.7257 11.5804C16.0633 11.7245 16.1612 12.1699 15.9016 12.4295L10.1803 18.1508C10.0603 18.2808 9.81032 18.4008 9.63032 18.4308L5.79032 18.9708C5.67032 18.9908 5.55032 19.0008 5.43032 19.0008C4.89032 19.0008 4.39032 18.8108 4.03032 18.4608C3.61032 18.0308 3.42032 17.3908 3.52032 16.7108L4.06032 12.8808C4.09032 12.7108 4.21032 12.4608 4.34032 12.3308L10.0688 6.60231C10.3265 6.34455 10.7612 6.442 10.9088 6.77532C10.9286 6.82022 10.9491 6.86539 10.9703 6.91078C11.1103 7.19078 11.2503 7.46078 11.4103 7.73078C11.5403 7.95078 11.6803 8.17078 11.8003 8.32078C11.9404 8.53556 12.0979 8.72418 12.1996 8.84593C12.2068 8.85455 12.2137 8.86284 12.2203 8.87078C12.2345 8.88897 12.2478 8.90635 12.2603 8.92266C12.3097 8.98704 12.3464 9.03482 12.3703 9.05078C12.7003 9.45078 13.0703 9.81078 13.4003 10.0908C13.4803 10.1708 13.5503 10.2308 13.5703 10.2408C13.7603 10.4008 13.9603 10.5608 14.1303 10.6708C14.3403 10.8208 14.5503 10.9608 14.7703 11.0908Z" fill="#292D32"/>
</svg>
