<svg viewBox="0 0 24 24" fill="none" xmlns="http://www.w3.org/2000/svg">
<path fill-rule="evenodd" clip-rule="evenodd" d="M1.25 15C1.25 20.43 3.57 22.75 9 22.75H15C20.43 22.75 22.75 20.43 22.75 15V9C22.75 3.57 20.43 1.25 15 1.25H9C3.57 1.25 1.25 3.57 1.25 9V15ZM2.75 9C2.75 4.39 4.39 2.75 9 2.75H15C19.61 2.75 21.25 4.39 21.25 9V15C21.25 19.61 19.61 21.25 15 21.25H9C4.39 21.25 2.75 19.61 2.75 15V9ZM6.46945 8.77994C7.11945 9.42994 7.96945 9.74994 8.81945 9.74994C9.66945 9.74994 10.5195 9.41994 11.1695 8.77994C11.4595 8.48994 11.4595 8.00994 11.1695 7.71994C10.8795 7.42994 10.3995 7.42994 10.1095 7.71994C9.39945 8.42994 8.23945 8.42994 7.52945 7.71994C7.23945 7.42994 6.75945 7.42994 6.46945 7.71994C6.17945 8.00994 6.17945 8.48994 6.46945 8.77994ZM15.1808 9.74994C14.3308 9.74994 13.4808 9.42994 12.8308 8.77994C12.5408 8.48994 12.5408 8.00994 12.8308 7.71994C13.1208 7.42994 13.6008 7.42994 13.8908 7.71994C14.6008 8.42994 15.7608 8.42994 16.4708 7.71994C16.7608 7.42994 17.2408 7.42994 17.5308 7.71994C17.8208 8.00994 17.8208 8.48994 17.5308 8.77994C16.8808 9.41994 16.0308 9.74994 15.1808 9.74994ZM6.75 13.9C6.75 16.79 9.1 19.15 12 19.15C14.9 19.15 17.25 16.79 17.25 13.9C17.25 12.99 16.51 12.25 15.6 12.25H8.4C7.49 12.25 6.75 12.99 6.75 13.9ZM8.25 13.9C8.25 13.82 8.32 13.75 8.4 13.75H15.6C15.68 13.75 15.75 13.82 15.75 13.9C15.75 15.97 14.07 17.65 12 17.65C9.93 17.65 8.25 15.97 8.25 13.9Z" fill="#292D32"/>
</svg>
