<svg viewBox="0 0 24 24" fill="none" xmlns="http://www.w3.org/2000/svg">
<path fill-rule="evenodd" clip-rule="evenodd" d="M1.25 15C1.25 20.43 3.57 22.75 9 22.75H15C20.43 22.75 22.75 20.43 22.75 15V9C22.75 3.57 20.43 1.25 15 1.25H9C3.57 1.25 1.25 3.57 1.25 9V15ZM2.75 9C2.75 4.39 4.39 2.75 9 2.75H15C19.61 2.75 21.25 4.39 21.25 9V15C21.25 19.61 19.61 21.25 15 21.25H9C4.39 21.25 2.75 19.61 2.75 15V9ZM13.25 8.25C13.25 9.49 14.26 10.5 15.5 10.5C16.74 10.5 17.75 9.49 17.75 8.25C17.75 7.01 16.74 6 15.5 6C14.26 6 13.25 7.01 13.25 8.25ZM14.75 8.25C14.75 7.84 15.09 7.5 15.5 7.5C15.91 7.5 16.25 7.84 16.25 8.25C16.25 8.66 15.91 9 15.5 9C15.09 9 14.75 8.66 14.75 8.25ZM8.5 10.5C7.26 10.5 6.25 9.49 6.25 8.25C6.25 7.01 7.26 6 8.5 6C9.74 6 10.75 7.01 10.75 8.25C10.75 9.49 9.74 10.5 8.5 10.5ZM8.5 7.5C8.09 7.5 7.75 7.84 7.75 8.25C7.75 8.66 8.09 9 8.5 9C8.91 9 9.25 8.66 9.25 8.25C9.25 7.84 8.91 7.5 8.5 7.5ZM6.75 14.2C6.75 17.09 9.1 19.4501 12 19.4501C14.9 19.4501 17.25 17.09 17.25 14.2C17.25 13.29 16.51 12.55 15.6 12.55H8.4C7.49 12.55 6.75 13.29 6.75 14.2ZM8.25 14.2C8.25 14.12 8.32 14.05 8.4 14.05H15.6C15.68 14.05 15.75 14.12 15.75 14.2C15.75 16.27 14.07 17.9501 12 17.9501C9.93 17.9501 8.25 16.27 8.25 14.2Z" fill="#292D32"/>
</svg>
