<svg viewBox="0 0 24 24" fill="none" xmlns="http://www.w3.org/2000/svg">
<path fill-rule="evenodd" clip-rule="evenodd" d="M1.25 15C1.25 20.43 3.57 22.75 9 22.75H15C20.43 22.75 22.75 20.43 22.75 15V9C22.75 3.57 20.43 1.25 15 1.25H9C3.57 1.25 1.25 3.57 1.25 9V15ZM2.75 9C2.75 4.39 4.39 2.75 9 2.75H15C19.61 2.75 21.25 4.39 21.25 9V15C21.25 19.61 19.61 21.25 15 21.25H9C4.39 21.25 2.75 19.61 2.75 15V9ZM10.1095 9.27994C10.2595 9.42994 10.4495 9.49994 10.6395 9.49994C10.8295 9.49994 11.0195 9.42994 11.1695 9.27994C11.4595 8.98994 11.4595 8.50994 11.1695 8.21994C9.86945 6.92994 7.75945 6.92994 6.46945 8.21994C6.17945 8.50994 6.17945 8.98994 6.46945 9.27994C6.75945 9.56994 7.23945 9.56994 7.52945 9.27994C8.23945 8.56994 9.39945 8.56994 10.1095 9.27994ZM13.3608 9.49994C13.1708 9.49994 12.9808 9.42994 12.8308 9.27994C12.5408 8.98994 12.5408 8.50994 12.8308 8.21994C14.1208 6.92994 16.2308 6.92994 17.5308 8.21994C17.8208 8.50994 17.8208 8.98994 17.5308 9.27994C17.2408 9.56994 16.7608 9.56994 16.4708 9.27994C15.7608 8.56994 14.6008 8.56994 13.8908 9.27994C13.7508 9.42994 13.5608 9.49994 13.3608 9.49994ZM6.75 16.8C6.75 17.71 7.49 18.4501 8.4 18.4501H15.6C16.51 18.4501 17.25 17.71 17.25 16.8C17.25 13.91 14.9 11.55 12 11.55C9.1 11.55 6.75 13.91 6.75 16.8ZM8.25 16.8C8.25 14.73 9.93 13.05 12 13.05C14.07 13.05 15.75 14.73 15.75 16.8C15.75 16.88 15.68 16.9501 15.6 16.9501H8.4C8.32 16.9501 8.25 16.88 8.25 16.8Z" fill="#292D32"/>
</svg>
