<svg viewBox="0 0 25 24" fill="none" xmlns="http://www.w3.org/2000/svg">
<path fill-rule="evenodd" clip-rule="evenodd" d="M15.4347 7.5435V3.84478C15.4347 2.55022 14.1401 1.66445 12.9332 2.11219L5.20476 5.03224C4.12434 5.44105 3.41379 6.47284 3.41379 7.63113V11.2033C3.41379 9.18847 5.05876 7.5435 7.0736 7.5435H15.4347ZM22.9414 15.6029V13.5978C22.9414 13.0624 22.5131 12.6244 21.968 12.605H19.9435C19.3984 12.605 18.902 12.8191 18.5418 13.189C18.133 13.588 17.8994 14.1623 17.9578 14.7755C18.0454 15.8268 19.009 16.5957 20.0603 16.5957H21.968C22.5131 16.5762 22.9414 16.1383 22.9414 15.6029ZM14.6077 12.4102H7.7942C7.39512 12.4102 7.06419 12.0793 7.06419 11.6802C7.06419 11.2811 7.39512 10.9502 7.7942 10.9502H14.6077C15.0067 10.9502 15.3377 11.2811 15.3377 11.6802C15.3377 12.0793 15.0067 12.4102 14.6077 12.4102ZM6.27411 14.6259C7.12755 14.7222 7.95347 15.0939 8.60044 15.7408C10.1215 17.2619 10.1215 19.7259 8.60044 21.2469C8.08424 21.7631 7.45104 22.1073 6.78343 22.2656C6.39112 22.3688 5.98504 22.4032 5.59273 22.3688C4.67734 22.3206 3.78948 21.9421 3.09434 21.2469C2.08947 20.2421 1.75223 18.8311 2.07571 17.5579C2.23401 16.8902 2.57814 16.257 3.09434 15.7408C3.96155 14.8736 5.13847 14.4951 6.27411 14.6259ZM5.86114 16.3052C5.46194 16.3052 5.13158 16.6356 5.13158 17.0348L5.1316 17.7643L4.37452 17.7643C3.97533 17.7643 3.64496 18.0947 3.64496 18.4939C3.64496 18.7004 3.72753 18.8793 3.8583 19.0101C3.98907 19.1409 4.16804 19.2234 4.37452 19.2234L5.1316 19.2234L5.13158 19.953C5.13847 20.1526 5.22108 20.3315 5.35185 20.4623C5.48262 20.5931 5.66154 20.6757 5.86114 20.6826C6.26722 20.6757 6.5907 20.3522 6.59759 19.9461L6.59072 19.2234L7.28587 19.2303C7.69194 19.2234 8.01543 18.9 8.02231 18.4939C8.01543 18.0878 7.69195 17.7643 7.28587 17.7574L6.59072 17.7643L6.59758 17.0417C6.59069 16.6356 6.26721 16.3121 5.86114 16.3052Z" fill="#292D32"/>
<path opacity="0.4" d="M19.9416 12.6049H21.9077V11.2033C21.9077 9.18843 20.2628 7.54346 18.2479 7.54346H7.07386C5.05903 7.54346 3.41406 9.18843 3.41406 11.2033V15.4568C4.08567 14.9215 4.93249 14.6003 5.84744 14.6003C7.99855 14.6003 9.74084 16.3425 9.74084 18.4937C9.74084 19.2237 9.53644 19.9147 9.1763 20.4988C8.97189 20.8492 8.70909 21.1606 8.40735 21.4137H18.2479C20.2628 21.4137 21.9077 19.7687 21.9077 17.7539V16.5956H20.0584C19.0071 16.5956 18.0435 15.8267 17.9559 14.7754C17.8975 14.1622 18.1311 13.588 18.5399 13.1889C18.9001 12.819 19.3965 12.6049 19.9416 12.6049Z" fill="#292D32"/>
</svg>
