<svg viewBox="0 0 24 24" fill="none" xmlns="http://www.w3.org/2000/svg">
<path fill-rule="evenodd" clip-rule="evenodd" d="M3.24953 11.5368V14.5855C3.80534 14.3659 4.4011 14.25 5 14.25C7.62 14.25 9.75 16.38 9.75 19C9.75 19.4191 9.69398 19.8325 9.58661 20.2302C9.50433 20.5361 9.39177 20.8326 9.25092 21.1136C9.22803 21.1595 9.20439 21.2051 9.18002 21.2502H17.7395C19.3995 21.2502 20.7495 19.9002 20.7495 18.2402V17.8002H19.5995C18.0895 17.8002 16.8095 16.6802 16.6895 15.2402C16.6677 15.0165 16.6742 14.7936 16.7073 14.5756C16.7945 13.9885 17.0726 13.4408 17.5105 13.0102C18.0205 12.4902 18.7205 12.2002 19.4705 12.2002H20.7495V11.5103C20.7495 9.85025 19.3995 8.50024 17.7395 8.50024H14.861L14.85 8.50033L14.839 8.50024H6.25952C4.61749 8.50024 3.27878 9.82119 3.25 11.4565V11.5103C3.25 11.5192 3.24984 11.528 3.24953 11.5368ZM1.76953 11.6789V15.5131C0.800701 16.4055 0.25 17.6561 0.25 19C0.25 21.62 2.38 23.75 5 23.75C6.05143 23.75 7.06941 23.3989 7.90876 22.7502H17.7395C20.2295 22.7502 22.2495 20.7302 22.2695 18.2202V17.639C22.88 17.3587 23.3005 16.7443 23.3005 16.0302V13.9702C23.3005 13.2608 22.8856 12.6498 22.2695 12.367V11.5002C22.2695 9.01024 20.2495 6.99023 17.7595 6.99023H15.6V3.95034C15.6 3.09034 15.17 2.28035 14.46 1.78035C13.75 1.28035 12.83 1.1703 12.01 1.4703L4.07001 4.4703C2.68001 4.9903 1.75 6.35035 1.75 7.84035V11.5103C1.75 11.5682 1.75676 11.6246 1.76953 11.6789ZM8.25 19C8.25 19.4086 8.1744 19.806 8.03142 20.1755C7.84237 20.6515 7.54139 21.0832 7.14952 21.4302C7.12575 21.451 7.10355 21.4729 7.08295 21.4957C6.48477 21.9807 5.75168 22.25 5 22.25C3.21 22.25 1.75 20.79 1.75 19C1.75 18.01 2.2 17.08 2.97 16.47C3.56 16 4.26 15.75 5 15.75C6.79 15.75 8.25 17.21 8.25 19ZM21.8105 16.0302C21.8105 16.1527 21.7304 16.2552 21.6303 16.2886C21.5941 16.2831 21.5571 16.2803 21.5195 16.2803H19.6195C18.8995 16.2803 18.2695 15.7503 18.2095 15.0903C18.1795 14.7103 18.3095 14.3403 18.5895 14.0703L18.5995 14.0602C18.6862 13.9698 18.7857 13.895 18.8947 13.8368C19.0704 13.7472 19.27 13.7002 19.4805 13.7002H21.5305C21.6905 13.7102 21.8105 13.8202 21.8105 13.9702V16.0302ZM14.1 6.99023V3.95034C14.1 3.57034 13.92 3.23034 13.61 3.01034C13.29 2.79034 12.9 2.74032 12.54 2.87032L4.60001 5.87032C3.78001 6.18032 3.25 6.95035 3.25 7.84035V8.1598C4.0507 7.43313 5.11359 6.99023 6.27953 6.99023H14.1ZM7 12.75H14C14.41 12.75 14.75 12.41 14.75 12C14.75 11.59 14.41 11.25 14 11.25H7C6.59 11.25 6.25 11.59 6.25 12C6.25 12.41 6.59 12.75 7 12.75ZM3.35988 20.39C3.49988 20.62 3.74988 20.75 3.99988 20.75C4.12988 20.75 4.26988 20.72 4.39988 20.64L5.64988 19.89C5.86988 19.76 6.00988 19.51 6.00988 19.25V17.75C6.00988 17.34 5.66988 17 5.25988 17C4.84988 17 4.50988 17.34 4.50988 17.75V18.83L3.61988 19.36C3.25988 19.57 3.14988 20.03 3.35988 20.39Z" fill="#292D32"/>
</svg>
