<svg viewBox="0 0 24 24" fill="none" xmlns="http://www.w3.org/2000/svg">
<path fill-rule="evenodd" clip-rule="evenodd" d="M14.85 7.75011V3.95012C14.85 2.62012 13.52 1.71009 12.28 2.17009L4.34 5.17009C3.23 5.59009 2.5 6.65014 2.5 7.84014V11.5101C2.5 9.44012 4.19 7.75011 6.26 7.75011H14.85ZM22.5608 16.0302V13.9702C22.5608 13.4202 22.1208 12.9702 21.5608 12.9502H19.4808C18.9208 12.9502 18.4108 13.1702 18.0408 13.5502C17.6208 13.9602 17.3808 14.5502 17.4408 15.1802C17.5308 16.2602 18.5208 17.0502 19.6008 17.0502H21.5608C22.1208 17.0302 22.5608 16.5802 22.5608 16.0302ZM14 12.75H7C6.59 12.75 6.25 12.41 6.25 12C6.25 11.59 6.59 11.25 7 11.25H14C14.41 11.25 14.75 11.59 14.75 12C14.75 12.41 14.41 12.75 14 12.75ZM2.5 15.88C3.19 15.33 4.06 15 5 15C7.21 15 9 16.79 9 19C9 19.75 8.79 20.46 8.42 21.06C8.21 21.42 7.94 21.74 7.63 22C6.93 22.63 6.01 23 5 23C3.54 23 2.27 22.22 1.58 21.06C1.21 20.46 1 19.75 1 19C1 17.74 1.58 16.61 2.5 15.88ZM3.42 17.4C3.13 17.69 3.13 18.17 3.42 18.46L3.95 18.99L3.4 19.54C3.11 19.83 3.11 20.31 3.4 20.6C3.55 20.75 3.74 20.82 3.93 20.82C4.12 20.82 4.31 20.75 4.46 20.6L5.01 20.05L5.54 20.58C5.69 20.72 5.88 20.79 6.07 20.79C6.26 20.79 6.45 20.72 6.6 20.58C6.89 20.28 6.89 19.81 6.6 19.51L6.07 18.99L6.58 18.49C6.87 18.19 6.87 17.72 6.58 17.42C6.28 17.13 5.81 17.13 5.51 17.42L5.01 17.93L4.49 17.4C4.19 17.11 3.72 17.11 3.42 17.4Z" fill="#292D32"/>
<path opacity="0.4" d="M19.48 12.95H21.5V11.51C21.5 9.44001 19.81 7.75 17.74 7.75H6.26C4.19 7.75 2.5 9.44001 2.5 11.51V18.24C2.5 20.31 4.19 22 6.26 22H17.74C19.81 22 21.5 20.31 21.5 18.24V17.05H19.6C18.52 17.05 17.53 16.26 17.44 15.18C17.38 14.55 17.62 13.96 18.04 13.55C18.41 13.17 18.92 12.95 19.48 12.95ZM6.6 20.58C6.45 20.72 6.26 20.79 6.07 20.79C5.88 20.79 5.69 20.72 5.54 20.58L5.01 20.05L4.46 20.6C4.31 20.75 4.12 20.82 3.93 20.82C3.74 20.82 3.55 20.75 3.4 20.6C3.11 20.31 3.11 19.83 3.4 19.54L3.95 18.99L3.42 18.46C3.13 18.17 3.13 17.69 3.42 17.4C3.72 17.11 4.19 17.11 4.49 17.4L5.01 17.93L5.51 17.42C5.81 17.13 6.28 17.13 6.58 17.42C6.87 17.72 6.87 18.19 6.58 18.49L6.07 18.99L6.6 19.51C6.89 19.81 6.89 20.28 6.6 20.58Z" fill="#292D32"/>
</svg>
