<svg viewBox="0 0 24 24" fill="none" xmlns="http://www.w3.org/2000/svg">
<path fill-rule="evenodd" clip-rule="evenodd" d="M3.24001 8.15215C4.03845 7.43583 5.09364 7 6.25023 7H14.1V3.95005C14.1 3.57005 13.92 3.22003 13.6 3.00003C13.28 2.78003 12.9 2.73003 12.54 2.87003L4.60001 5.87003C3.79001 6.18003 3.24001 6.97006 3.24001 7.84006V8.15215ZM14.8571 8.5H17.7302C19.3902 8.5 20.7402 9.85001 20.7402 11.51V12.2H19.4702C18.7202 12.2 18.0202 12.49 17.5102 13.01C16.9102 13.6 16.6102 14.41 16.6902 15.24C16.7543 16.0093 17.1495 16.6872 17.7339 17.1519C18.2435 17.5571 18.897 17.8002 19.6005 17.8002H20.7502V18.24C20.7502 19.9 19.4002 21.25 17.7402 21.25H12.2602C11.8502 21.25 11.5102 21.59 11.5102 22C11.5102 22.41 11.8502 22.75 12.2602 22.75H17.7402C20.2302 22.75 22.2502 20.73 22.2402 18.24V17.6521C22.8665 17.3782 23.3005 16.7556 23.3005 16.0302V13.9702C23.3005 13.2497 22.8724 12.6306 22.2402 12.3538V11.51C22.2402 9.02001 20.2202 7 17.7302 7H15.6V3.95005C15.6 3.08005 15.18 2.27005 14.46 1.77005C13.75 1.27005 12.84 1.16001 12.02 1.47001L4.08 4.47001C2.69 5.00001 1.75 6.35006 1.75 7.84006V11.211C1.74352 11.3098 1.74023 11.4095 1.74023 11.51V13.24C1.74023 13.65 2.08023 13.99 2.49023 13.99C2.90023 13.99 3.24023 13.65 3.24023 13.24V11.51C3.24023 9.85001 4.59023 8.5 6.25023 8.5H14.8429L14.85 8.50003L14.8571 8.5ZM21.5605 16.3002H21.5067L21.4902 16.3H19.5902L19.5691 16.2998C18.8623 16.2847 18.2496 15.7606 18.1905 15.1102C18.1505 14.7302 18.2905 14.3502 18.5805 14.0702C18.8105 13.8302 19.1305 13.7002 19.4805 13.7002H21.5305C21.6905 13.7102 21.8105 13.8202 21.8105 13.9702V16.0302C21.8105 16.1802 21.6905 16.3002 21.5605 16.3002ZM7 12.75H14C14.41 12.75 14.75 12.41 14.75 12C14.75 11.59 14.41 11.25 14 11.25H7C6.59 11.25 6.25 11.59 6.25 12C6.25 12.41 6.59 12.75 7 12.75ZM9.5 19.69C9.09 19.69 8.75 19.35 8.75 18.94V17.66C8.75 17.44 8.57 17.25 8.34 17.25H4.80346C5.03817 17.5427 5.02016 17.979 4.74945 18.2497C4.59945 18.3997 4.40945 18.4697 4.21945 18.4697C4.02945 18.4697 3.83945 18.3997 3.68945 18.2497L2.46945 17.0298C2.39686 16.9572 2.34244 16.8727 2.30619 16.7822C2.27002 16.6948 2.25 16.5995 2.25 16.5C2.25 16.4065 2.2677 16.3166 2.29988 16.2335C2.336 16.1369 2.39252 16.0466 2.46945 15.9697L3.68945 14.7497C3.97945 14.4597 4.45945 14.4597 4.74945 14.7497C5.02033 15.0206 5.03819 15.4573 4.80303 15.75H8.34C9.39 15.75 10.25 16.61 10.25 17.66V18.94C10.25 19.35 9.91 19.69 9.5 19.69ZM7.69698 22.5298H4.16C3.11 22.5298 2.25 21.6698 2.25 20.6198V19.3398C2.25 18.9298 2.59 18.5898 3 18.5898C3.41 18.5898 3.75 18.9298 3.75 19.3398V20.6198C3.75 20.8398 3.93 21.0298 4.16 21.0298H7.69679C7.46198 20.7371 7.47995 20.3007 7.7507 20.03C8.0407 19.74 8.5207 19.74 8.8107 20.03L10.0307 21.25C10.1075 21.3268 10.164 21.4169 10.2001 21.5133C10.2323 21.5963 10.25 21.6863 10.25 21.7798C10.25 21.8708 10.2333 21.9583 10.2027 22.0395C10.1668 22.1386 10.1094 22.2313 10.0307 22.31L8.8107 23.53C8.6707 23.68 8.4707 23.75 8.2807 23.75C8.0907 23.75 7.9007 23.68 7.7507 23.53C7.47988 23.2592 7.46197 22.8226 7.69698 22.5298Z" fill="#292D32"/>
</svg>
