<svg viewBox="0 0 24 24" fill="none" xmlns="http://www.w3.org/2000/svg">
<path fill-rule="evenodd" clip-rule="evenodd" d="M13.35 7.75H6.26C5.41 7.75 4.63 8.03 4 8.51V7.84078C4 7.27078 4.34 6.77078 4.87 6.57078L12.8 3.58078C12.85 3.56078 12.9 3.55078 12.95 3.55078C13.11 3.55078 13.35 3.68078 13.35 3.95078V7.75ZM14.85 7.75V3.95078C14.85 2.86078 13.95 2.05078 12.95 2.05078C12.73 2.05078 12.5 2.09078 12.28 2.17078L4.34 5.17078C3.23 5.59078 2.5 6.65078 2.5 7.84078V11.51V11.5108V18.24C2.5 20.31 4.19 22 6.26 22H17.74C19.81 22 21.5 20.31 21.5 18.24V18.05C21.5 17.5 21.05 17.05 20.5 17.05H19.63C18.67 17.05 17.75 16.46 17.5 15.53C17.29 14.77 17.54 14.04 18.04 13.55C18.41 13.17 18.92 12.95 19.48 12.95H20.5C21.05 12.95 21.5 12.5 21.5 11.95V11.51C21.5 9.44 19.81 7.75 17.74 7.75H14.85ZM21.5007 14.5V15.5C21.5007 15.77 21.2907 15.99 21.0107 16H19.5507C19.0207 16 18.5407 15.61 18.5007 15.09C18.4707 14.78 18.5907 14.49 18.7907 14.29C18.9707 14.1 19.2207 14 19.4907 14H21.0007C21.2907 14.01 21.5007 14.23 21.5007 14.5ZM7 12.75H14C14.41 12.75 14.75 12.41 14.75 12C14.75 11.59 14.41 11.25 14 11.25H7C6.59 11.25 6.25 11.59 6.25 12C6.25 12.41 6.59 12.75 7 12.75Z" fill="#292D32"/>
</svg>
