<svg viewBox="0 0 24 24" fill="none" xmlns="http://www.w3.org/2000/svg">
<path fill-rule="evenodd" clip-rule="evenodd" d="M15.0947 7.54297V3.84548C15.0947 2.78452 14.2187 1.99609 13.2453 1.99609C13.0312 1.99609 12.8073 2.03503 12.5932 2.1129L4.86469 5.03298C3.78426 5.44179 3.07371 6.47355 3.07371 7.63185V11.2028V11.2041V12.9354C3.07371 13.3053 3.46305 13.5389 3.81346 13.4221C4.35854 13.2371 4.93282 13.1398 5.50711 13.1398C8.45639 13.1398 10.8606 15.544 10.8606 18.4933C10.8606 19.1941 10.6756 19.963 10.3836 20.6444C10.2279 20.9948 10.4712 21.4134 10.8509 21.4134H17.9077C19.9226 21.4134 21.5676 19.7684 21.5676 17.7535V17.5686C21.5676 17.0332 21.1295 16.5952 20.5942 16.5952H19.7474C18.8129 16.5952 17.9174 16.0209 17.6741 15.1157C17.4794 14.376 17.713 13.6557 18.1997 13.1885C18.5599 12.8186 19.0563 12.6044 19.6014 12.6044H20.5942C21.1295 12.6044 21.5676 12.1664 21.5676 11.6311V11.2028C21.5676 9.18795 19.9226 7.54297 17.9077 7.54297H15.0947ZM13.6347 7.54297V3.84548C13.6347 3.58267 13.4011 3.45613 13.2453 3.45613C13.1967 3.45613 13.148 3.46587 13.0993 3.48533L5.38057 6.39568C4.86469 6.59035 4.53375 7.07703 4.53375 7.63185V8.28272C5.14696 7.81551 5.90619 7.54297 6.73354 7.54297H13.6347ZM9.37313 18.9189C9.27677 19.7724 8.9051 20.5983 8.25813 21.2453C6.73705 22.7663 4.27305 22.7663 2.75197 21.2453C2.23577 20.7291 1.89164 20.0959 1.73333 19.4282C1.63009 19.0359 1.59568 18.6298 1.63009 18.2375C1.67827 17.3221 2.05682 16.4343 2.75197 15.7391C3.75685 14.7342 5.1678 14.397 6.4411 14.7205C7.10872 14.8788 7.74193 15.2229 8.25813 15.7391C9.12535 16.6063 9.5039 17.7833 9.37313 18.9189ZM7.69375 18.506C7.69375 18.1068 7.36338 17.7764 6.96418 17.7764H6.23462L6.23462 17.0193C6.23462 16.6201 5.90425 16.2897 5.50505 16.2897C5.29857 16.2897 5.11962 16.3723 4.98885 16.5031C4.85808 16.6339 4.77548 16.8128 4.77548 17.0193L4.77548 17.7764L4.04592 17.7764C3.84632 17.7833 3.66737 17.8659 3.5366 17.9966C3.40583 18.1274 3.32324 18.3064 3.31635 18.506C3.32324 18.912 3.64672 19.2355 4.0528 19.2424L4.77548 19.2355L4.7686 19.9307C4.77548 20.3368 5.09897 20.6602 5.50505 20.6671C5.91113 20.6602 6.23462 20.3368 6.2415 19.9307L6.23462 19.2355L6.9573 19.2424C7.36338 19.2355 7.68687 18.912 7.69375 18.506ZM21.5686 14.1156V15.0889C21.5686 15.3518 21.3641 15.5659 21.0916 15.5756H19.6705C19.1546 15.5756 18.6874 15.196 18.6485 14.6899C18.6193 14.3881 18.7361 14.1059 18.9307 13.9112C19.106 13.7262 19.3493 13.6289 19.6121 13.6289H21.0819C21.3641 13.6386 21.5686 13.8528 21.5686 14.1156ZM9.40055 12.4098H14.2673C14.6664 12.4098 14.9974 12.0788 14.9974 11.6797C14.9974 11.2807 14.6664 10.9497 14.2673 10.9497H9.40055C9.00147 10.9497 8.67053 11.2807 8.67053 11.6797C8.67053 12.0788 9.00147 12.4098 9.40055 12.4098Z" fill="#292D32"/>
</svg>
