<svg viewBox="0 0 24 24" fill="none" xmlns="http://www.w3.org/2000/svg">
<path fill-rule="evenodd" clip-rule="evenodd" d="M3.24001 8.1707C4.0396 7.44916 5.09868 7.00977 6.25999 7.00977H14.1V3.95005C14.1 3.57005 13.92 3.22003 13.6 3.00003C13.28 2.78003 12.9 2.73003 12.54 2.87003L4.60001 5.87003C3.79001 6.18003 3.24001 6.97006 3.24001 7.84006V8.1707ZM15.6 7.00977H17.74C20.23 7.00977 22.25 9.02978 22.25 11.5198V12.3581C22.8768 12.637 23.3005 13.2534 23.3005 13.9702V16.0302C23.3005 16.7518 22.871 17.3717 22.25 17.6478V18.2397C22.25 20.7297 20.23 22.7498 17.74 22.7498H7.90068C7.09788 23.396 6.07423 23.75 5 23.75C3.34 23.75 1.78 22.87 0.940002 21.44C0.490002 20.72 0.25 19.87 0.25 19C0.25 17.6652 0.793303 16.4223 1.75 15.5312V12.41V11.5198V7.84006C1.75 6.35006 2.69 5.00001 4.08 4.47001L12.02 1.47001C12.84 1.16001 13.75 1.27005 14.46 1.77005C15.18 2.27005 15.6 3.08005 15.6 3.95005V7.00977ZM2.96001 16.4797C2.94771 16.4898 2.93513 16.4994 2.92229 16.5085C2.18145 17.1188 1.75 18.0306 1.75 19C1.75 19.59 1.91 20.17 2.22 20.67C2.81 21.67 3.85 22.25 5 22.25C5.77253 22.25 6.51639 21.9727 7.09128 21.4741C7.10675 21.4587 7.123 21.4439 7.14 21.4297C7.38 21.2297 7.59999 20.9698 7.75999 20.6898C8.07999 20.1798 8.24001 19.5998 8.24001 19.0098C8.24001 17.2198 6.78001 15.7598 4.99001 15.7598C4.25001 15.7598 3.55001 16.0097 2.96001 16.4797ZM9.17999 21.2498C9.37251 20.8959 9.519 20.5151 9.61525 20.1198C9.70398 19.7554 9.75 19.3787 9.75 18.9998C9.75 16.3798 7.62 14.2498 5 14.2498C4.91046 14.2498 4.82114 14.2524 4.73211 14.2577C4.22429 14.2869 3.7227 14.3986 3.25 14.5853V11.5098C3.25 9.84977 4.59999 8.49976 6.25999 8.49976H14.8297L14.85 8.50003L14.8703 8.49976H17.74C19.4 8.49976 20.75 9.84977 20.75 11.5098V12.1998H19.48C19.4353 12.1998 19.3907 12.2008 19.3464 12.2029C18.6435 12.233 17.9922 12.519 17.5105 13.0102C17.0376 13.4752 16.7511 14.0768 16.69 14.7171C16.6732 14.8895 16.6729 15.0644 16.69 15.2397C16.7457 15.9077 17.0509 16.5067 17.5129 16.9571C17.5411 16.9847 17.5699 17.0116 17.5993 17.0381C18.1258 17.5112 18.8334 17.8002 19.6005 17.8002H20.75V18.2397C20.75 19.8997 19.4 21.2498 17.74 21.2498H9.17999ZM18.57 14.0898C18.294 14.3559 18.1638 14.7191 18.1888 15.0933L18.1905 15.1102C18.2174 15.4065 18.3592 15.6765 18.5724 15.8842L18.5886 15.8997L18.6007 15.911C18.8604 16.1502 19.2175 16.2997 19.6 16.2997H21.5C21.5084 16.2997 21.5168 16.2999 21.5252 16.3002H21.5605C21.6905 16.3002 21.8105 16.1802 21.8105 16.0302V13.9702C21.8105 13.8347 21.7126 13.7319 21.5758 13.7059C21.5509 13.7085 21.5256 13.7098 21.5 13.7098H19.48C19.13 13.7098 18.81 13.8398 18.58 14.0798L18.57 14.0898ZM7 12.75H14C14.41 12.75 14.75 12.41 14.75 12C14.75 11.59 14.41 11.25 14 11.25H7C6.59 11.25 6.25 11.59 6.25 12C6.25 12.41 6.59 12.75 7 12.75ZM3.8989 20.5201C4.0489 20.6701 4.2389 20.7401 4.42889 20.7401C4.6089 20.7401 4.78891 20.67 4.9389 20.54L7.06891 18.5701C7.36891 18.2901 7.3889 17.8101 7.1089 17.5101C6.8289 17.2101 6.34891 17.19 6.04891 17.47L4.4489 18.9501L3.9689 18.47C3.6789 18.18 3.19891 18.18 2.90891 18.47C2.61891 18.76 2.61891 19.2401 2.90891 19.5301L3.8989 20.5201Z" fill="#292D32"/>
</svg>
