<svg viewBox="0 0 24 24" fill="none" xmlns="http://www.w3.org/2000/svg">
<path fill-rule="evenodd" clip-rule="evenodd" d="M14.85 7.75011V3.95012C14.85 2.62012 13.52 1.71009 12.28 2.17009L4.34 5.17009C3.23 5.59009 2.5 6.65014 2.5 7.84014V11.5101C2.5 9.44012 4.18999 7.75011 6.25999 7.75011H14.85ZM2.5 15.88C3.19 15.33 4.06 15 5 15C7.21 15 9 16.79 9 19C9 19.75 8.79 20.46 8.42 21.06C8.21 21.42 7.94 21.74 7.63 22C6.93001 22.63 6.01 23 5 23C3.54 23 2.27 22.22 1.58 21.06C1.21 20.46 1 19.75 1 19C1 17.74 1.58 16.61 2.5 15.88ZM4.94 20.54L7.07001 18.57C7.37001 18.29 7.39 17.81 7.11 17.51C6.83 17.21 6.35 17.19 6.05 17.47L4.45 18.95L3.97 18.47C3.68 18.18 3.2 18.18 2.91 18.47C2.62 18.76 2.62 19.24 2.91 19.53L3.89999 20.52C4.04999 20.67 4.23999 20.74 4.42999 20.74C4.60999 20.74 4.8 20.67 4.94 20.54ZM22.5608 13.9702V16.0302C22.5608 16.5802 22.1208 17.0302 21.5608 17.0502H19.6008C18.5208 17.0502 17.5308 16.2602 17.4408 15.1802C17.3808 14.5502 17.6208 13.9602 18.0408 13.5502C18.4108 13.1702 18.9208 12.9502 19.4808 12.9502H21.5608C22.1208 12.9702 22.5608 13.4202 22.5608 13.9702ZM7 12.75H14C14.41 12.75 14.75 12.41 14.75 12C14.75 11.59 14.41 11.25 14 11.25H7C6.59 11.25 6.25 11.59 6.25 12C6.25 12.41 6.59 12.75 7 12.75Z" fill="#292D32"/>
<path opacity="0.4" d="M19.48 12.95H21.5V11.51C21.5 9.44001 19.81 7.75 17.74 7.75H6.25999C4.18999 7.75 2.5 9.44001 2.5 11.51V15.88C3.19 15.33 4.06 15 5 15C7.21 15 9 16.79 9 19C9 19.75 8.79 20.46 8.42 21.06C8.21 21.42 7.94 21.74 7.63 22H17.74C19.81 22 21.5 20.31 21.5 18.24V17.05H19.6C18.52 17.05 17.53 16.26 17.44 15.18C17.38 14.55 17.62 13.96 18.04 13.55C18.41 13.17 18.92 12.95 19.48 12.95Z" fill="#292D32"/>
</svg>
