<svg viewBox="0 0 24 24" fill="none" xmlns="http://www.w3.org/2000/svg">
<path fill-rule="evenodd" clip-rule="evenodd" d="M6.26 7.00977C5.09868 7.00977 4.0396 7.44916 3.24 8.17071V7.84006C3.24 6.97006 3.79 6.18003 4.6 5.87003L12.54 2.87003C12.9 2.73003 13.28 2.78003 13.6 3.00003C13.92 3.22003 14.1 3.57005 14.1 3.95005V7.00977H6.26ZM17.74 7.00977H15.6V3.95005C15.6 3.08005 15.18 2.27005 14.46 1.77005C13.75 1.27005 12.83 1.16001 12.02 1.47001L4.08 4.47001C2.69 5.00001 1.75 6.35006 1.75 7.84006V11.5198V12.41V15.5312C0.793303 16.4223 0.25 17.6652 0.25 19C0.25 19.87 0.490002 20.72 0.940002 21.44C1.78 22.87 3.34 23.75 5 23.75C6.07423 23.75 7.09788 23.396 7.90068 22.7498H17.74C20.23 22.7498 22.25 20.7297 22.25 18.2397V17.6478C22.871 17.3717 23.3005 16.7518 23.3005 16.0302V13.9702C23.3005 13.2534 22.8768 12.637 22.25 12.3581V11.5198C22.25 9.02978 20.23 7.00977 17.74 7.00977ZM2.93087 16.5015C2.94069 16.4945 2.95041 16.4872 2.96 16.4797C3.55 16.0097 4.25 15.7598 4.99 15.7598C6.78 15.7598 8.24 17.2198 8.24 19.0098C8.24 19.5998 8.08 20.1798 7.76 20.6898C7.6 20.9698 7.38 21.2297 7.14 21.4297C7.12301 21.4439 7.10677 21.4587 7.0913 21.4741C6.5164 21.9727 5.77255 22.25 5 22.25C3.85 22.25 2.81 21.67 2.22 20.67C1.91 20.17 1.75 19.59 1.75 19C1.75 18.0269 2.18478 17.1117 2.93087 16.5015ZM9.61605 20.1165C9.51982 20.513 9.37305 20.895 9.18 21.2498H17.74C19.4 21.2498 20.75 19.8997 20.75 18.2397V17.8002H19.6005C18.8334 17.8002 18.1258 17.5112 17.5993 17.0381C17.5713 17.0128 17.5437 16.9871 17.5167 16.9609C17.0526 16.51 16.7458 15.9095 16.69 15.2397C16.6729 15.0644 16.6732 14.8895 16.69 14.7171C16.7511 14.0768 17.0376 13.4752 17.5105 13.0102C17.9922 12.519 18.6436 12.233 19.3465 12.2028C19.3908 12.2008 19.4353 12.1998 19.48 12.1998H20.75V11.5098C20.75 9.84977 19.4 8.49976 17.74 8.49976H14.8703L14.85 8.50003L14.8297 8.49976H6.26C4.6 8.49976 3.25 9.84977 3.25 11.5098V14.5853C3.7227 14.3986 4.22429 14.2869 4.73211 14.2577C4.82114 14.2524 4.91046 14.2498 5 14.2498C7.62 14.2498 9.75 16.3798 9.75 18.9998C9.75 19.3776 9.70426 19.7531 9.61605 20.1165ZM18.1888 15.0933C18.1638 14.7191 18.294 14.3559 18.57 14.0898L18.58 14.0798C18.81 13.8398 19.13 13.7098 19.48 13.7098H21.5C21.5256 13.7098 21.5509 13.7085 21.5758 13.7059C21.7126 13.7319 21.8105 13.8347 21.8105 13.9702V16.0302C21.8105 16.1802 21.6905 16.3002 21.5605 16.3002H21.5252C21.5168 16.2999 21.5084 16.2997 21.5 16.2997H19.6C19.2175 16.2997 18.8604 16.1502 18.6007 15.911C18.5906 15.9017 18.5807 15.8923 18.571 15.8828C18.3585 15.6753 18.2173 15.4058 18.1905 15.1102L18.1888 15.0933ZM14 12.75H7C6.59 12.75 6.25 12.41 6.25 12C6.25 11.59 6.59 11.25 7 11.25H14C14.41 11.25 14.75 11.59 14.75 12C14.75 12.41 14.41 12.75 14 12.75ZM4.25 19.73H3.5C3.09 19.73 2.75 19.39 2.75 18.98C2.75 18.57 3.09 18.23 3.5 18.23H4.25V17.52C4.25 17.11 4.59 16.77 5 16.77C5.41 16.77 5.75 17.11 5.75 17.52V18.23H6.49C6.9 18.23 7.24 18.57 7.24 18.98C7.24 19.39 6.91 19.73 6.49 19.73H5.75V20.51C5.75 20.93 5.41 21.26 5 21.26C4.59 21.26 4.25 20.92 4.25 20.51V19.73Z" fill="#292D32"/>
</svg>
