<svg viewBox="0 0 24 24" fill="none" xmlns="http://www.w3.org/2000/svg">
<path fill-rule="evenodd" clip-rule="evenodd" d="M3.24 8.16094C4.0396 7.4394 5.09868 7 6.26 7H14.1V3.95005C14.1 3.57005 13.92 3.22003 13.6 3.00003C13.28 2.78003 12.9 2.73003 12.54 2.87003L4.6 5.87003C3.79 6.18003 3.24 6.97006 3.24 7.84006V8.16094ZM15.6 7H17.74C20.23 7 22.25 9.02001 22.25 11.51V12.3581C22.8768 12.637 23.3005 13.2534 23.3005 13.9702V16.0302C23.3005 16.7518 22.871 17.3717 22.25 17.6478V18.23C22.25 20.73 20.23 22.75 17.74 22.75H6.26C3.77 22.75 1.75 20.73 1.75 18.24V12.41V11.51V7.84006C1.75 6.35006 2.69 5.00001 4.08 4.47001L12.02 1.47001C12.84 1.16001 13.75 1.27005 14.46 1.77005C15.18 2.27005 15.6 3.08005 15.6 3.95005V7ZM21.5 16.29C21.5335 16.29 21.5666 16.2923 21.5991 16.2967C21.7133 16.2759 21.8105 16.1652 21.8105 16.0302V13.9702C21.8105 13.8202 21.6905 13.7102 21.5305 13.7002H19.4805C19.1305 13.7002 18.8105 13.8302 18.5805 14.0702C18.4516 14.1946 18.3524 14.3387 18.2854 14.4938C18.2058 14.6827 18.1734 14.8898 18.19 15.1C18.25 15.76 18.88 16.29 19.6 16.29H21.5ZM19.48 12.2C19.4598 12.2 19.4397 12.2002 19.4196 12.2006C18.6889 12.2134 18.0089 12.502 17.5105 13.0102C17.0359 13.4768 16.749 14.0811 16.6894 14.724C16.6732 14.8942 16.6731 15.0669 16.69 15.24C16.7764 16.277 17.4644 17.148 18.4066 17.5543C18.4457 17.5712 18.4852 17.5873 18.5252 17.6025C18.8595 17.7301 19.2228 17.8002 19.6005 17.8002H20.75V18.24C20.75 19.9 19.4 21.25 17.74 21.25H6.26C4.6 21.25 3.25 19.9 3.25 18.24V11.51C3.25 9.85001 4.6 8.5 6.26 8.5H14.8429L14.85 8.50003L14.8571 8.5H17.74C19.4 8.5 20.75 9.85001 20.75 11.51V12.2H19.48ZM7 12.75H14C14.41 12.75 14.75 12.41 14.75 12C14.75 11.59 14.41 11.25 14 11.25H7C6.59 11.25 6.25 11.59 6.25 12C6.25 12.41 6.59 12.75 7 12.75Z" fill="#292D32"/>
</svg>
