<svg viewBox="0 0 24 24" fill="none" xmlns="http://www.w3.org/2000/svg">
<path fill-rule="evenodd" clip-rule="evenodd" d="M6.26 7.00977C5.09868 7.00977 4.0396 7.44916 3.24 8.1707V7.84006C3.24 6.97006 3.79 6.18003 4.6 5.87003L12.54 2.87003C12.9 2.73003 13.28 2.78003 13.6 3.00003C13.92 3.22003 14.1 3.57005 14.1 3.95005V7.00977H6.26ZM17.74 7.00977H15.6V3.95005C15.6 3.08005 15.18 2.27005 14.46 1.77005C13.75 1.27005 12.84 1.16001 12.02 1.47001L4.08 4.47001C2.69 5.00001 1.75 6.35006 1.75 7.84006V11.5198V12.41V15.5312C0.793303 16.4223 0.25 17.6652 0.25 19C0.25 19.87 0.489999 20.72 0.939999 21.44C1.78 22.87 3.34 23.75 5 23.75C6.07423 23.75 7.09788 23.396 7.90068 22.7498H17.74C20.23 22.7498 22.25 20.7297 22.25 18.2397V17.6478C22.871 17.3717 23.3005 16.7518 23.3005 16.0302V13.9702C23.3005 13.2534 22.8768 12.637 22.25 12.3581V11.5198C22.25 9.02978 20.23 7.00977 17.74 7.00977ZM2.93087 16.5015C2.94069 16.4945 2.95041 16.4872 2.96 16.4797C3.55 16.0097 4.25 15.7598 4.99 15.7598C6.78 15.7598 8.24 17.2198 8.24 19.0098C8.24 19.5998 8.08 20.1798 7.76 20.6898C7.6 20.9698 7.38 21.2297 7.14 21.4297C7.12301 21.4439 7.10677 21.4587 7.0913 21.4741C6.51641 21.9727 5.77254 22.25 5 22.25C3.85 22.25 2.81 21.67 2.22 20.67C1.91 20.17 1.75 19.59 1.75 19C1.75 18.0269 2.18478 17.1117 2.93087 16.5015ZM9.61571 20.1179C9.51947 20.5139 9.37282 20.8954 9.18 21.2498H17.74C19.4 21.2498 20.75 19.8997 20.75 18.2397V17.8002H19.6005C18.8334 17.8002 18.1258 17.5112 17.5993 17.0381C17.5734 17.0147 17.5479 16.991 17.5228 16.9668C17.0553 16.5153 16.7461 15.9124 16.69 15.2397C16.6728 15.0633 16.6732 14.8873 16.6903 14.7139C16.752 14.0747 17.0384 13.4744 17.5105 13.0102C17.9922 12.519 18.6435 12.233 19.3464 12.2029C19.3907 12.2008 19.4353 12.1998 19.48 12.1998H20.75V11.5098C20.75 9.84977 19.4 8.49976 17.74 8.49976H14.8703L14.85 8.50003L14.8297 8.49976H6.26C4.6 8.49976 3.25 9.84977 3.25 11.5098V14.5853C3.7227 14.3986 4.22429 14.2869 4.73211 14.2577C4.82114 14.2524 4.91046 14.2498 5 14.2498C7.62 14.2498 9.75 16.3798 9.75 18.9998C9.75 19.3781 9.70414 19.7541 9.61571 20.1179ZM18.1888 15.0932C18.1638 14.719 18.2941 14.3559 18.57 14.0898L18.58 14.0798C18.81 13.8398 19.13 13.7098 19.48 13.7098H21.5C21.5256 13.7098 21.5509 13.7085 21.5758 13.7059C21.7126 13.7319 21.8105 13.8347 21.8105 13.9702V16.0302C21.8105 16.1802 21.6905 16.3002 21.5605 16.3002H21.5252C21.5168 16.2999 21.5084 16.2997 21.5 16.2997H19.6C19.2287 16.2997 18.8814 16.1588 18.6238 15.9318C18.6074 15.9173 18.5913 15.9025 18.5756 15.8873C18.3606 15.6792 18.2175 15.4079 18.1905 15.1102L18.1888 15.0932ZM14 12.75H7C6.59 12.75 6.25 12.41 6.25 12C6.25 11.59 6.59 11.25 7 11.25H14C14.41 11.25 14.75 11.59 14.75 12C14.75 12.41 14.41 12.75 14 12.75ZM6.07039 20.7901C5.88039 20.7901 5.69039 20.7201 5.54039 20.5701L5.01563 20.0453L4.46109 20.5999C4.31109 20.7499 4.12109 20.8199 3.93109 20.8199C3.74109 20.8199 3.55109 20.7499 3.40109 20.5999C3.11109 20.3099 3.11109 19.8299 3.40109 19.5399L3.95563 18.9854L3.43039 18.4601C3.14039 18.1701 3.14039 17.6901 3.43039 17.4001C3.72039 17.1101 4.20039 17.1101 4.49039 17.4001L5.01563 17.9254L5.51109 17.4299C5.80109 17.1399 6.28109 17.1399 6.57109 17.4299C6.86109 17.7199 6.86109 18.1999 6.57109 18.4899L6.07564 18.9854L6.60039 19.5101C6.89039 19.8001 6.89039 20.2801 6.60039 20.5701C6.45039 20.7201 6.26039 20.7901 6.07039 20.7901Z" fill="#292D32"/>
</svg>
