<svg viewBox="0 0 24 24" fill="none" xmlns="http://www.w3.org/2000/svg">
<path fill-rule="evenodd" clip-rule="evenodd" d="M14.85 7.75V3.95078C14.85 2.86078 13.95 2.05078 12.95 2.05078C12.73 2.05078 12.5 2.09078 12.28 2.17078L4.34 5.17078C3.23 5.59078 2.5 6.65078 2.5 7.84078V11.51V11.5108V13.29C2.5 13.67 2.9 13.91 3.26 13.79C3.82 13.6 4.41 13.5 5 13.5C8.03 13.5 10.5 15.97 10.5 19C10.5 19.72 10.31 20.51 10.01 21.21C9.85 21.57 10.1 22 10.49 22H17.74C19.81 22 21.5 20.31 21.5 18.24V18.05C21.5 17.5 21.05 17.05 20.5 17.05H19.63C18.67 17.05 17.75 16.46 17.5 15.53C17.3 14.77 17.54 14.03 18.04 13.55C18.41 13.17 18.92 12.95 19.48 12.95H20.5C21.05 12.95 21.5 12.5 21.5 11.95V11.51C21.5 9.44 19.81 7.75 17.74 7.75H14.85ZM13.35 7.75V3.95078C13.35 3.68078 13.11 3.55078 12.95 3.55078C12.9 3.55078 12.85 3.56078 12.8 3.58078L4.87 6.57078C4.34 6.77078 4 7.27078 4 7.84078V8.51C4.63 8.03 5.41 7.75 6.26 7.75H13.35ZM2.33 16.03C3.04 15.39 3.98 15 5 15C7.21 15 9 16.8 9 19C9 19.47 8.92 19.92 8.76 20.33C8.52 21.03 8.08 21.64 7.52 22.11C6.83 22.66 5.96 23 5 23C2.8 23 1 21.21 1 19C1 18.05 1.33 17.18 1.89 16.49C2.02 16.32 2.17 16.17 2.33 16.03ZM6.91 18.72C7.18 18.72 7.4 18.51 7.4 18.23H7.39V18.13C7.39 17.48 6.87 16.96 6.23 16.96H4.22C4.32 16.78 4.3 16.54 4.14 16.39C3.96 16.19 3.65 16.19 3.46 16.39L2.74 17.1C2.70157 17.1307 2.67496 17.1792 2.65108 17.2227C2.64389 17.2358 2.63694 17.2484 2.63 17.26C2.59 17.38 2.59 17.51 2.63 17.63C2.66 17.69 2.7 17.75 2.74 17.79L3.46 18.51C3.55 18.6 3.68 18.65 3.8 18.65C3.94 18.65 4.06 18.6 4.15 18.51C4.31 18.35 4.33 18.12 4.23 17.93H6.23C6.34 17.93 6.42 18.02 6.42 18.13V18.23C6.42 18.51 6.64 18.72 6.91 18.72ZM5.85 21.62C5.94 21.72 6.07 21.76 6.2 21.76C6.32 21.76 6.45 21.71 6.54 21.61L7.26 20.9C7.3 20.86 7.34 20.8 7.37 20.75C7.41 20.63 7.41 20.5 7.37 20.38C7.34 20.32 7.3 20.26 7.26 20.22L6.54 19.5C6.36 19.31 6.05 19.31 5.86 19.5C5.7 19.66 5.68 19.89 5.78 20.08H3.77C3.66 20.08 3.58 19.99 3.58 19.88V19.78C3.58 19.5 3.36 19.29 3.09 19.29C2.82 19.29 2.6 19.5 2.6 19.78V19.88C2.6 20.53 3.12 21.05 3.76 21.05H5.77C5.67 21.23 5.69 21.47 5.85 21.62ZM21.5007 15.5C21.5007 15.77 21.2907 15.99 21.0107 16H19.5507C19.0207 16 18.5407 15.61 18.5007 15.09C18.4707 14.78 18.5907 14.49 18.7907 14.29C18.9707 14.1 19.2207 14 19.4907 14H21.0007C21.2907 14.01 21.5007 14.23 21.5007 14.5V15.5ZM9 12.75H14C14.41 12.75 14.75 12.41 14.75 12C14.75 11.59 14.41 11.25 14 11.25H9C8.59 11.25 8.25 11.59 8.25 12C8.25 12.41 8.59 12.75 9 12.75Z" fill="#292D32"/>
</svg>
