<svg viewBox="0 0 24 24" fill="none" xmlns="http://www.w3.org/2000/svg">
<path fill-rule="evenodd" clip-rule="evenodd" d="M14.8198 6.63141L12.7498 4.56141V9.00141H11.2539V15.25C11.2539 15.66 11.5939 16 12.0039 16C12.4139 16 12.7539 15.66 12.7539 15.25V9H16.8039C20.0039 9 22.0039 11 21.9939 14.2V16.8C21.9939 20 19.9939 22 16.7939 22H7.20391C4.00391 22 2.00391 20 2.00391 16.79V14.2C2.00391 11 4.00391 9 7.20391 9H11.2498V4.56141L9.17984 6.63141C8.88984 6.92141 8.40984 6.92141 8.11984 6.63141C7.82984 6.34141 7.82984 5.86141 8.11984 5.57141L11.4698 2.22141C11.7598 1.93141 12.2398 1.93141 12.5298 2.22141L15.8798 5.57141C16.1698 5.86141 16.1698 6.34141 15.8798 6.63141C15.7298 6.78141 15.5398 6.85141 15.3498 6.85141C15.1598 6.85141 14.9698 6.78141 14.8198 6.63141Z" fill="#292D32"/>
</svg>
