<svg viewBox="0 0 24 24" fill="none" xmlns="http://www.w3.org/2000/svg">
<path fill-rule="evenodd" clip-rule="evenodd" d="M12 22.75C6.07 22.75 1.25 17.93 1.25 12C1.25 6.07 6.07 1.25 12 1.25C12.41 1.25 12.75 1.59 12.75 2C12.75 2.41 12.41 2.75 12 2.75C6.9 2.75 2.75 6.9 2.75 12C2.75 17.1 6.9 21.25 12 21.25C17.1 21.25 21.25 17.1 21.25 12C21.25 11.59 21.59 11.25 22 11.25C22.41 11.25 22.75 11.59 22.75 12C22.75 17.93 17.93 22.75 12 22.75ZM12.9995 11.75C12.8095 11.75 12.6195 11.68 12.4695 11.53C12.1795 11.24 12.1795 10.76 12.4695 10.47L20.1894 2.75H17.1699C16.7599 2.75 16.4199 2.41 16.4199 2C16.4199 1.59 16.7599 1.25 17.1699 1.25H21.9999C22.4099 1.25 22.7499 1.59 22.7499 2V6.83C22.7499 7.24 22.4099 7.58 21.9999 7.58C21.5899 7.58 21.2499 7.24 21.2499 6.83V3.80952L13.5295 11.53C13.3795 11.68 13.1895 11.75 12.9995 11.75Z" fill="#292D32"/>
</svg>
