<svg viewBox="0 0 24 24" fill="none" xmlns="http://www.w3.org/2000/svg">
<path fill-rule="evenodd" clip-rule="evenodd" d="M14.4398 7.24988C14.2498 7.24988 14.0598 7.17988 13.9098 7.02988L12.6309 5.75098V14.18C12.6309 14.6 12.2909 14.93 11.8809 14.93C11.4709 14.93 11.1309 14.59 11.1309 14.18V5.74879L9.84977 7.02988C9.55977 7.31988 9.07977 7.31988 8.78977 7.02988C8.49977 6.73988 8.49977 6.25988 8.78977 5.96988L11.3498 3.40988C11.6398 3.11988 12.1198 3.11988 12.4098 3.40988L14.9698 5.96988C15.2598 6.25988 15.2598 6.73988 14.9698 7.02988C14.8198 7.17988 14.6298 7.24988 14.4398 7.24988ZM3.25 12C3.25 17.15 6.85 20.75 12 20.75C17.15 20.75 20.75 17.15 20.75 12C20.75 11.59 20.41 11.25 20 11.25C19.59 11.25 19.25 11.59 19.25 12C19.25 16.27 16.27 19.25 12 19.25C7.73 19.25 4.75 16.27 4.75 12C4.75 11.59 4.41 11.25 4 11.25C3.59 11.25 3.25 11.59 3.25 12Z" fill="#292D32"/>
</svg>
