<svg viewBox="0 0 24 24" fill="none" xmlns="http://www.w3.org/2000/svg">
<path fill-rule="evenodd" clip-rule="evenodd" d="M14.3084 7.35969L12.7484 5.79969H12.7384V9.89969H11.25V15.3784C11.25 15.7884 11.59 16.1284 12 16.1284C12.41 16.1284 12.75 15.7884 12.75 15.3784V9.89844H21.14C21.62 9.89844 22 10.2784 22 10.7584C22 16.6484 17.89 20.7584 12 20.7584C6.11 20.7584 2 16.6484 2 10.7584C2 10.2784 2.38 9.89844 2.86 9.89844H11.2384V5.80969L9.67844 7.36969C9.38844 7.65969 8.90844 7.65969 8.61844 7.36969C8.46844 7.21969 8.39844 7.02969 8.39844 6.83969C8.39844 6.64969 8.47844 6.45969 8.61844 6.30969L11.4584 3.45969C11.7484 3.16969 12.2284 3.16969 12.5184 3.45969L15.3684 6.29969C15.6584 6.58969 15.6584 7.06969 15.3684 7.35969C15.0784 7.64969 14.5984 7.64969 14.3084 7.35969Z" fill="#292D32"/>
</svg>
