<svg viewBox="0 0 24 24" fill="none" xmlns="http://www.w3.org/2000/svg">
<path fill-rule="evenodd" clip-rule="evenodd" d="M20.6789 2.22891C20.9789 1.92891 21.4689 1.92891 21.7689 2.22891C22.0789 2.52891 22.0789 3.00891 21.7689 3.30891L3.30891 21.7689C3.15891 21.9189 2.96891 21.9989 2.76891 21.9989C2.56891 21.9989 2.37891 21.9189 2.22891 21.7789C1.92891 21.4789 1.92891 20.9889 2.22891 20.6889L5.16851 17.7477C4.28308 16.9354 3.46577 15.9586 2.75 14.8397C1.75 13.2697 1.75 10.7197 2.75 9.14969C3.91 7.32969 5.33 5.89969 6.91 4.91969C8.49 3.95969 10.22 3.42969 12 3.42969C13.9857 3.42969 15.9158 4.07985 17.6281 5.28133L20.6789 2.22891ZM14.2659 8.64535C13.6208 8.20803 12.8414 7.95969 12 7.95969C9.76 7.95969 7.96 9.76969 7.96 11.9997C7.96 12.8408 8.2138 13.6199 8.6494 14.2649L9.51374 13.4001C9.2785 12.9839 9.14062 12.5048 9.14062 12.0006C9.14062 10.4306 10.4206 9.14062 12.0006 9.14062C12.5043 9.14062 12.9829 9.2782 13.3988 9.51298L14.2659 8.64535ZM21.2636 9.15881C20.9736 8.69881 20.6636 8.26881 20.3436 7.86881C19.9736 7.39881 19.2736 7.35881 18.8536 7.77881L15.8536 10.7788C16.0736 11.4388 16.1136 12.1988 15.9136 12.9888C15.5636 14.3988 14.4236 15.5388 13.0136 15.8888C12.2236 16.0888 11.4636 16.0488 10.8036 15.8288L8.3436 18.2888C7.8436 18.7888 8.0036 19.6688 8.6736 19.9288C9.7436 20.3388 10.8536 20.5488 11.9936 20.5488C13.7736 20.5488 15.5036 20.0288 17.0836 19.0588C18.6936 18.0588 20.1436 16.5888 21.3136 14.7188C22.2636 13.2088 22.2136 10.6688 21.2636 9.15881ZM14.8581 11.9981C14.8581 13.5681 13.5781 14.8581 11.9981 14.8581H11.9981C11.9381 14.8581 11.8881 14.8581 11.8281 14.8381L14.8381 11.8281C14.8581 11.8881 14.8581 11.9381 14.8581 11.9981V11.9981Z" fill="#292D32"/>
</svg>
