<svg viewBox="0 0 24 24" fill="none" xmlns="http://www.w3.org/2000/svg">
<path fill-rule="evenodd" clip-rule="evenodd" d="M20.6809 2.22988C20.9809 1.92988 21.4709 1.92988 21.7709 2.22988C22.0809 2.52988 22.0809 3.00988 21.7709 3.30988L3.31086 21.7699C3.16086 21.9199 2.97086 21.9999 2.77086 21.9999C2.57086 21.9999 2.38086 21.9199 2.23086 21.7799C1.93086 21.4799 1.93086 20.9899 2.23086 20.6899L9.51506 13.4017C9.27902 12.985 9.14062 12.505 9.14062 11.9999C9.14062 10.4299 10.4206 9.13989 12.0006 9.13989C12.5052 9.13989 12.9847 9.27799 13.4011 9.51357L20.6809 2.22988ZM14.8601 12.0001C14.8601 13.5701 13.5801 14.8601 12.0001 14.8601H12.0001C11.9401 14.8601 11.8901 14.8601 11.8301 14.8401L14.8401 11.8301C14.8601 11.8901 14.8601 11.9401 14.8601 12.0001V12.0001Z" fill="#292D32"/>
<path opacity="0.4" fill-rule="evenodd" clip-rule="evenodd" d="M14.86 9.13993L18.25 5.74993C16.39 4.24993 14.23 3.42993 12 3.42993C10.22 3.42993 8.49 3.95993 6.91 4.91993C5.33 5.89993 3.91 7.32993 2.75 9.14993C1.75 10.7199 1.75 13.2699 2.75 14.8399C3.62 16.1999 4.64 17.3499 5.75 18.2499H5.76L9.14 14.8599C8.41 14.1299 7.96 13.1199 7.96 11.9999C7.96 9.76993 9.76 7.95993 12 7.95993C13.12 7.95993 14.13 8.39993 14.86 9.13993ZM19.6196 7.04004C20.1996 7.67004 20.7596 8.37004 21.2496 9.15004C22.2496 10.72 22.2496 13.28 21.2496 14.84C20.0896 16.66 18.6696 18.09 17.0896 19.07C15.5096 20.04 13.7796 20.56 11.9996 20.56C10.3896 20.56 8.80961 20.13 7.34961 19.31L10.8096 15.85C11.1796 15.97 11.5796 16.04 11.9996 16.04C14.2296 16.04 16.0396 14.24 16.0396 12C16.0396 11.58 15.9696 11.18 15.8496 10.81L19.6196 7.04004Z" fill="#292D32"/>
</svg>
