<svg viewBox="0 0 24 24" fill="none" xmlns="http://www.w3.org/2000/svg">
<path fill-rule="evenodd" clip-rule="evenodd" d="M15.0391 10.0207L9.99992 15.0599L9.98438 15.075L2.52945 22.53C2.37945 22.68 2.18945 22.75 1.99945 22.75C1.80945 22.75 1.61945 22.68 1.46945 22.53C1.17945 22.24 1.17945 21.76 1.46945 21.47L4.84289 18.0965C3.87975 17.2308 3.01105 16.1909 2.25984 15C1.19984 13.35 1.19984 10.66 2.25984 8.99998C4.69984 5.17998 8.24984 2.97998 11.9998 2.97998C14.0892 2.97998 16.1516 3.66548 17.9813 4.95939L21.4707 1.46994C21.7607 1.17994 22.2407 1.17994 22.5307 1.46994C22.8207 1.75994 22.8207 2.23994 22.5307 2.52994L15.0607 9.99994C15.0536 10.007 15.0464 10.014 15.0391 10.0207ZM14.485 8.45561C13.76 7.94453 12.8983 7.66992 11.9999 7.66992C9.60992 7.66992 7.66992 9.60992 7.66992 11.9999C7.66992 12.898 7.94435 13.7594 8.4551 14.4843L5.90417 17.0353C5.02361 16.2441 4.22334 15.2874 3.51984 14.19C2.76984 13.02 2.76984 10.98 3.51984 9.80998C5.67984 6.41998 8.76984 4.47998 11.9998 4.47998C13.6947 4.47998 15.3814 5.01394 16.9035 6.03717L14.485 8.45561ZM11.9999 9.16992C12.4999 9.16992 12.9799 9.29992 13.3999 9.53992L9.53992 13.3999C9.29992 12.9799 9.16992 12.4999 9.16992 11.9999C9.16992 10.4399 10.4399 9.16992 11.9999 9.16992ZM12.0006 21.02C10.6706 21.02 9.37055 20.75 8.12055 20.22C7.74055 20.06 7.56055 19.62 7.72055 19.24C7.88055 18.86 8.32055 18.68 8.70055 18.84C9.76055 19.29 10.8706 19.52 11.9906 19.52C15.2206 19.52 18.3106 17.58 20.4706 14.19C21.2206 13.02 21.2206 10.98 20.4706 9.81C20.1605 9.32 19.8205 8.85 19.4606 8.41C19.2006 8.09 19.2506 7.62 19.5706 7.35C19.8906 7.09 20.3605 7.13 20.6306 7.46C21.0205 7.94 21.4006 8.46 21.7406 9C22.8006 10.65 22.8006 13.34 21.7406 15C19.3006 18.82 15.7506 21.02 12.0006 21.02ZM11.9496 15.6601C12.0196 16.0201 12.3396 16.2701 12.6896 16.2701C12.7066 16.2701 12.7225 16.2689 12.7381 16.2678C12.768 16.2656 12.7966 16.2635 12.8296 16.2701C14.5496 15.9501 15.9296 14.5801 16.2496 12.8501C16.3296 12.4401 16.0596 12.0501 15.6496 11.9701C15.2396 11.9001 14.8496 12.1601 14.7696 12.5701C14.5696 13.6701 13.6496 14.5901 12.5496 14.7901C12.1396 14.8601 11.8696 15.2501 11.9496 15.6601Z" fill="#292D32"/>
</svg>
