<svg viewBox="0 0 24 24" fill="none" xmlns="http://www.w3.org/2000/svg">
<path fill-rule="evenodd" clip-rule="evenodd" d="M12 3.42969C15.56 3.42969 18.94 5.51969 21.25 9.14969C22.25 10.7197 22.25 13.2797 21.25 14.8397C20.09 16.6597 18.67 18.0897 17.09 19.0697C15.51 20.0397 13.78 20.5597 12 20.5597C8.44 20.5597 5.06 18.4797 2.75 14.8397C1.75 13.2697 1.75 10.7197 2.75 9.14969C3.91 7.32969 5.33 5.89969 6.91 4.91969C8.49 3.94969 10.22 3.42969 12 3.42969ZM7.96 11.9997C7.96 14.2297 9.76 16.0397 12 16.0397C14.24 16.0397 16.04 14.2297 16.04 11.9997C16.04 9.76969 14.24 7.95969 12 7.95969C9.76 7.95969 7.96 9.76969 7.96 11.9997ZM9.14844 12.0006C9.14844 10.4206 10.4284 9.14062 11.9984 9.14062C13.5684 9.14062 14.8584 10.4306 14.8584 12.0006C14.8584 13.5706 13.5684 14.8506 11.9984 14.8506C10.4284 14.8506 9.14844 13.5706 9.14844 12.0006Z" fill="#292D32"/>
</svg>
