<svg viewBox="0 0 25 24" fill="none" xmlns="http://www.w3.org/2000/svg">
<path fill-rule="evenodd" clip-rule="evenodd" d="M15.25 22.75H15.5C20.93 22.75 23.25 20.43 23.25 15V9C23.25 3.57 20.93 1.25 15.5 1.25H9.5C4.07 1.25 1.75 3.57 1.75 9V15C1.75 20.43 4.07 22.75 9.5 22.75H10.75H15.25ZM15.25 21.25H15.5C20.11 21.25 21.75 19.61 21.75 15V9C21.75 4.39 20.11 2.75 15.5 2.75H9.5C4.89 2.75 3.25 4.39 3.25 9V15C3.25 19.61 4.89 21.25 9.5 21.25H10.75V15.5H9.79999C9.21999 15.5 8.75 15.03 8.75 14.45V12.55C8.75 11.97 9.21999 11.5 9.79999 11.5H10.75V9C10.75 6.93 12.43 5.25 14.5 5.25H17.2C17.78 5.25 18.25 5.71999 18.25 6.29999V8.70001C18.25 9.28001 17.78 9.75 17.2 9.75H15.25V11.5H17.13C17.45 11.5 17.74 11.64 17.94 11.88C18.14 12.12 18.22 12.44 18.16 12.75L17.78 14.65C17.68 15.14 17.25 15.49 16.75 15.49H15.25V21.25ZM13.75 21.25V14H16.39L16.59 13H13.76V9.29999C13.76 8.71999 14.23 8.25 14.81 8.25H16.76V6.75H14.5C13.26 6.75 12.25 7.76 12.25 9V13H10.25V14H12.25V21.25H13.75Z" fill="#292D32"/>
</svg>
