<svg viewBox="0 0 24 24" fill="none" xmlns="http://www.w3.org/2000/svg">
<path fill-rule="evenodd" clip-rule="evenodd" d="M19.5799 6.24V4.02C19.5799 2.91 18.6799 2 17.5899 2H4.40992C3.31992 2 2.41992 2.91 2.41992 4.12V6.45C2.41992 7.05 2.81992 7.96 3.31992 8.47L7.10992 12.51C7.50992 13.01 7.90992 13.92 7.90992 14.63V19.98C7.90992 21.6 9.69992 22.51 10.9999 21.7L12.3999 20.79C12.4699 20.74 12.5399 20.69 12.6099 20.63C12.8099 20.45 12.7199 20.13 12.4899 19.98C11.7299 19.51 11.0299 18.81 10.5299 17.97C9.93992 17.01 9.62992 15.89 9.62992 14.75C9.62992 11.3 12.4299 8.5 15.8799 8.5C16.3599 8.5 16.8299 8.55 17.2699 8.66C17.4699 8.71 17.6699 8.76 17.8699 8.83C18.0499 8.89 18.2599 8.86 18.3999 8.73L18.5799 8.57C19.0799 8.06 19.5799 7.05 19.5799 6.24ZM19.7806 17.3L20.7206 18.24C21.0906 18.62 21.0906 19.22 20.7406 19.58C20.5506 19.77 20.3106 19.86 20.0606 19.86C19.8106 19.86 19.5706 19.77 19.3806 19.58L18.4406 18.64C17.6906 19.13 16.8106 19.42 15.8506 19.42C13.2506 19.42 11.1406 17.31 11.1406 14.71C11.1406 12.11 13.2506 10 15.8506 10C18.4506 10 20.5606 12.11 20.5606 14.71C20.5606 15.67 20.2706 16.56 19.7806 17.3Z" fill="#292D32"/>
</svg>
