<svg viewBox="0 0 24 24" fill="none" xmlns="http://www.w3.org/2000/svg">
<path fill-rule="evenodd" clip-rule="evenodd" d="M20.5799 6.24V4.02C20.5799 2.91 19.6799 2 18.5899 2H5.40992C4.31992 2 3.41992 2.91 3.41992 4.12V6.45C3.41992 7.05 3.81992 7.96 4.31992 8.47L8.10992 12.51C8.50992 13.01 8.90992 13.92 8.90992 14.63V19.98C8.90992 21.6 10.6999 22.51 11.9999 21.7L13.3999 20.79C13.4699 20.74 13.5399 20.69 13.6099 20.63C13.8099 20.45 13.7199 20.13 13.4899 19.98C12.7299 19.51 12.0299 18.81 11.5299 17.97C10.9399 17.01 10.6299 15.89 10.6299 14.75C10.6299 11.3 13.4299 8.5 16.8799 8.5C17.3599 8.5 17.8299 8.55 18.2699 8.66C18.4699 8.71 18.6699 8.76 18.8699 8.83C19.0499 8.89 19.2599 8.86 19.3999 8.73L19.5799 8.57C20.0799 8.06 20.5799 7.05 20.5799 6.24ZM12.1309 14.75C12.1309 12.13 14.2609 10 16.8809 10C19.5109 10 21.6309 12.13 21.6309 14.75C21.6309 15.64 21.3809 16.49 20.9409 17.2C20.1209 18.57 18.6109 19.5 16.8809 19.5C15.1509 19.5 13.6409 18.58 12.8209 17.2C12.3809 16.48 12.1309 15.64 12.1309 14.75ZM18.1509 16.74C18.3409 16.74 18.5309 16.67 18.6809 16.52C18.9809 16.23 18.9809 15.75 18.6809 15.46L17.9609 14.73L18.6609 14.03C18.9509 13.74 18.9509 13.26 18.6609 12.97C18.3709 12.68 17.8909 12.68 17.6009 12.97L16.9009 13.67L16.1809 12.95C15.8909 12.66 15.4109 12.66 15.1209 12.95C14.8309 13.24 14.8309 13.72 15.1209 14.01L15.8409 14.74L15.0909 15.49C14.8009 15.78 14.8009 16.26 15.0909 16.55C15.2409 16.7 15.4309 16.77 15.6209 16.77C15.8109 16.77 16.0009 16.7 16.1509 16.55L16.9009 15.8L17.6209 16.52C17.7709 16.67 17.9609 16.74 18.1509 16.74Z" fill="#292D32"/>
</svg>
