<svg viewBox="0 0 24 24" fill="none" xmlns="http://www.w3.org/2000/svg">
<path fill-rule="evenodd" clip-rule="evenodd" d="M9.54078 22.39C9.97078 22.63 10.4508 22.75 10.9308 22.75C11.4408 22.75 11.9608 22.61 12.4108 22.33L13.7908 21.44C14.3362 21.1195 14.7329 20.5016 14.9302 19.8903C15.5455 20.1245 16.2054 20.25 16.8789 20.25C18.8089 20.25 20.6089 19.23 21.5789 17.59C22.0989 16.74 22.3789 15.76 22.3789 14.75C22.3789 12.6113 21.1483 10.7516 19.3588 9.84257L20.2108 9.09003C20.8108 8.47003 21.4308 7.28999 21.4308 6.23999V4.02002C21.4308 2.49002 20.1908 1.25 18.6608 1.25H5.32078C3.77078 1.25 2.55078 2.50999 2.55078 4.12V6.45001C2.55078 7.25001 3.04078 8.33999 3.67078 8.98999L7.47078 12.98C7.79078 13.37 8.12078 14.13 8.12078 14.63V19.98C8.12078 20.99 8.65078 21.89 9.54078 22.39ZM17.418 10.786C17.5282 10.8017 17.636 10.8228 17.7408 10.85C17.7701 10.8561 17.7995 10.8605 17.8289 10.8634C19.5799 11.2895 20.8789 12.8674 20.8789 14.75C20.8789 15.48 20.6789 16.19 20.2989 16.81C19.5789 18.03 18.2989 18.75 16.8789 18.75C16.1424 18.75 15.4283 18.5422 14.8125 18.1668C14.781 18.1388 14.7469 18.113 14.7108 18.09C14.4952 17.9564 14.2926 17.7985 14.1063 17.6197C13.8585 17.3791 13.64 17.1044 13.4589 16.8C13.3651 16.6494 13.2823 16.4927 13.2107 16.3311C12.9936 15.8351 12.8808 15.2982 12.8808 14.75C12.8808 12.54 14.6708 10.75 16.8808 10.75C17.0644 10.75 17.2442 10.7612 17.418 10.786ZM17.7283 9.31565L19.1808 8.03003C19.5208 7.68003 19.9408 6.85001 19.9408 6.26001V4.03998C19.9408 3.33998 19.3708 2.77002 18.6708 2.77002H5.33078V2.75C4.62078 2.75 4.06078 3.35 4.06078 4.12V6.45001C4.06078 6.81001 4.36078 7.55001 4.76078 7.95001L8.61078 12C9.12078 12.63 9.63078 13.7 9.63078 14.64V19.99C9.63078 20.65 10.0908 20.98 10.2808 21.09C10.7108 21.33 11.2208 21.32 11.6108 21.08L13.0108 20.18C13.2808 20.02 13.5508 19.51 13.5708 19.15C13.0208 18.74 12.5408 18.21 12.1808 17.61C12.0318 17.3665 11.9026 17.1123 11.7939 16.8501C11.5198 16.1934 11.3789 15.4795 11.3789 14.75C11.3789 11.72 13.8489 9.25 16.8789 9.25C17.1677 9.25 17.4514 9.27244 17.7283 9.31565ZM15.1094 15.48H16.1289V16.54C16.1289 16.95 16.4689 17.29 16.8789 17.29C17.2989 17.29 17.6289 16.96 17.6289 16.55V15.48H18.6594C19.0694 15.48 19.4094 15.14 19.4094 14.73C19.4094 14.32 19.0694 13.98 18.6594 13.98H17.6289V13C17.6289 12.59 17.2889 12.25 16.8789 12.25C16.4689 12.25 16.1289 12.59 16.1289 13V13.98H15.1094C14.6994 13.98 14.3594 14.32 14.3594 14.73C14.3594 15.14 14.6994 15.48 15.1094 15.48Z" fill="#292D32"/>
</svg>
