<svg viewBox="0 0 24 24" fill="none" xmlns="http://www.w3.org/2000/svg">
<path fill-rule="evenodd" clip-rule="evenodd" d="M20.5799 4.98V4.02C20.5799 2.91 19.6799 2 18.5899 2H5.40992C4.31992 2 3.41992 2.91 3.41992 4.12V6.45C3.41992 7.05 3.81992 7.96 4.31992 8.47L8.10992 12.51C8.50992 13.01 8.90992 13.92 8.90992 14.63V19.98C8.90992 21.6 10.6999 22.51 11.9999 21.7L13.3999 20.79C13.8999 20.49 14.2999 19.68 14.2999 19.07V17C14.2999 16.81 14.1799 16.63 14.0099 16.54C13.9643 16.5132 13.918 16.4863 13.8713 16.4593C13.744 16.3856 13.6143 16.3105 13.4899 16.23C12.7299 15.76 12.0299 15.06 11.5299 14.22C10.9399 13.26 10.6299 12.14 10.6299 11C10.6299 7.55 13.4299 4.75 16.8799 4.75C17.3599 4.75 17.8299 4.8 18.2699 4.91C18.7899 5.03 19.2799 5.21 19.7399 5.45C20.1099 5.64 20.5799 5.39 20.5799 4.98ZM16.8809 6.25C17.2409 6.25 17.5909 6.29 17.9209 6.37C20.0509 6.84 21.6309 8.74 21.6309 11C21.6309 11.89 21.3909 12.73 20.9509 13.45C20.1309 14.82 18.6209 15.75 16.8809 15.75C15.9409 15.75 15.0609 15.47 14.3209 14.98C13.7009 14.6 13.1909 14.07 12.8209 13.45C12.3809 12.73 12.1309 11.89 12.1309 11C12.1309 8.38 14.2609 6.25 16.8809 6.25ZM16.4009 13L18.8309 10.57C19.2509 10.15 19.4309 9.66 18.8209 9.04C18.2109 8.42 17.7209 8.62 17.3009 9.04L16.9509 9.39L14.8709 11.47C14.7809 11.57 14.6909 11.75 14.6709 11.88L14.5409 12.81C14.4909 13.14 14.7209 13.38 15.0609 13.33L15.9909 13.2C16.1209 13.18 16.3109 13.09 16.4009 13Z" fill="#292D32"/>
</svg>
