<svg viewBox="0 0 24 24" fill="none" xmlns="http://www.w3.org/2000/svg">
<path fill-rule="evenodd" clip-rule="evenodd" d="M5.76378 8.95248L9.57197 2.8501H5.40039C4.70039 2.8501 4.15039 3.4401 4.15039 4.2001V6.5001C4.15039 6.8701 4.45039 7.5901 4.83039 7.9701L5.76378 8.95248ZM10.853 1.3501H5.40039C3.86039 1.3501 2.65039 2.6001 2.65039 4.2001V6.5001C2.65039 7.3101 3.13039 8.3901 3.76039 9.0201L7.50039 12.9801C7.81039 13.3601 8.14039 14.1101 8.14039 14.6101V19.9101C8.14039 20.9101 8.67039 21.8001 9.55039 22.2901C9.99039 22.5301 10.4604 22.6501 10.9404 22.6501C11.4504 22.6501 11.9604 22.5101 12.4104 22.2301L13.7904 21.3401C14.4904 20.9201 15.0504 19.8901 15.0504 19.0001V14.7001C15.0504 14.0801 15.3804 13.3101 15.8004 12.9601L20.1304 9.1301C20.7204 8.5401 21.3504 7.3501 21.3504 6.3001V4.1001C21.3504 2.5801 20.1204 1.3501 18.6004 1.3501H11.0002C10.9511 1.34518 10.9018 1.34525 10.853 1.3501ZM11.335 2.8501L6.82787 10.0724L8.64039 11.9801C9.15039 12.6101 9.65039 13.6601 9.65039 14.6001V19.9001C9.65039 20.5501 10.1004 20.8701 10.2904 20.9701C10.7104 21.2001 11.2204 21.2001 11.6104 20.9601L13.0004 20.0701C13.2804 19.9001 13.5604 19.3601 13.5604 19.0001V14.7001C13.5604 13.6301 14.0804 12.4501 14.8304 11.8201L19.1104 8.0301C19.4504 7.6901 19.8604 6.8801 19.8604 6.2901V4.1001C19.8604 3.4101 19.3004 2.8501 18.6104 2.8501H11.335Z" fill="#292D32"/>
</svg>
