<svg viewBox="0 0 24 24" fill="none" xmlns="http://www.w3.org/2000/svg">
<path fill-rule="evenodd" clip-rule="evenodd" d="M6.80039 9.32156L10.3504 3.63156C10.7604 2.96156 10.2804 2.10156 9.50039 2.10156H5.40039C4.30039 2.10156 3.40039 3.00156 3.40039 4.20156V6.50156C3.40039 7.10156 3.80039 8.00156 4.30039 8.50156L5.23039 9.48156C5.68039 9.95156 6.46039 9.87156 6.80039 9.32156ZM20.6009 6.30156V4.10156C20.6009 3.00156 19.7009 2.10156 18.6009 2.10156H13.4809C13.1309 2.10156 12.8109 2.28156 12.6309 2.57156L7.51086 10.7916C7.26086 11.1816 7.32086 11.6816 7.63086 12.0116L8.10086 12.5016C8.50086 13.0016 8.90086 13.9016 8.90086 14.6016V19.9016C8.90086 21.5016 10.7009 22.4016 12.0009 21.6016L13.4009 20.7016C13.9009 20.4016 14.3009 19.6016 14.3009 19.0016V14.7016C14.3009 13.9016 14.7009 12.9016 15.3009 12.4016L19.6009 8.60156C20.1009 8.10156 20.6009 7.10156 20.6009 6.30156Z" fill="#292D32"/>
</svg>
