<svg viewBox="0 0 24 24" fill="none" xmlns="http://www.w3.org/2000/svg">
<path fill-rule="evenodd" clip-rule="evenodd" d="M20.5799 6.24V4.02C20.5799 2.91 19.6799 2 18.5899 2H5.40992C4.31992 2 3.41992 2.91 3.41992 4.12V6.45C3.41992 7.05 3.81992 7.96 4.31992 8.47L8.10992 12.51C8.50992 13.01 8.90992 13.92 8.90992 14.63V19.98C8.90992 21.6 10.6999 22.51 11.9999 21.7L13.3999 20.79C13.4699 20.74 13.5399 20.69 13.6099 20.63C13.8099 20.45 13.7199 20.13 13.4899 19.98C12.7299 19.51 12.0299 18.81 11.5299 17.97C10.9399 17.01 10.6299 15.89 10.6299 14.75C10.6299 11.3 13.4299 8.5 16.8799 8.5C17.3599 8.5 17.8299 8.55 18.2699 8.66C18.4699 8.71 18.6699 8.76 18.8699 8.83C19.0499 8.89 19.2599 8.86 19.3999 8.73L19.5799 8.57C20.0799 8.06 20.5799 7.05 20.5799 6.24ZM12.1309 14.75C12.1309 12.13 14.2609 10 16.8809 10C19.5109 10 21.6309 12.13 21.6309 14.75C21.6309 15.64 21.3809 16.49 20.9409 17.2C20.1209 18.57 18.6109 19.5 16.8809 19.5C15.1509 19.5 13.6409 18.58 12.8209 17.2C12.3809 16.48 12.1309 15.64 12.1309 14.75ZM17.6309 15.48H18.6609C19.0709 15.48 19.4109 15.14 19.4109 14.73C19.4109 14.32 19.0709 13.98 18.6609 13.98H17.6309V13C17.6309 12.59 17.2909 12.25 16.8809 12.25C16.4709 12.25 16.1309 12.59 16.1309 13V13.98H15.1109C14.7009 13.98 14.3609 14.32 14.3609 14.73C14.3609 15.14 14.7009 15.48 15.1109 15.48H16.1309V16.55C16.1309 16.96 16.4709 17.3 16.8809 17.3C17.2909 17.3 17.6309 16.96 17.6309 16.55V15.48Z" fill="#292D32"/>
</svg>
