<svg viewBox="0 0 24 24" fill="none" xmlns="http://www.w3.org/2000/svg">
<path fill-rule="evenodd" clip-rule="evenodd" d="M9.54077 22.39C9.97077 22.63 10.4508 22.75 10.9308 22.75C11.4408 22.75 11.9608 22.61 12.4008 22.33L13.7808 21.44C14.329 21.118 14.7269 20.4955 14.9231 19.8813C15.5423 20.1245 16.2045 20.25 16.8789 20.25C18.7989 20.25 20.6089 19.23 21.5889 17.59C22.1089 16.74 22.3789 15.76 22.3789 14.75C22.3789 12.6463 21.1633 10.7519 19.3538 9.83823L20.2008 9.09C20.8108 8.47 21.4308 7.28999 21.4308 6.23999V4.01999C21.4308 2.48999 20.1908 1.25 18.6608 1.25H5.3208C3.7708 1.25 2.55078 2.50999 2.55078 4.12V6.45001C2.55078 7.25001 3.04078 8.33999 3.67078 8.98999L7.47076 12.98C7.79076 13.37 8.12079 14.12 8.12079 14.63V19.98C8.12079 20.99 8.65077 21.89 9.54077 22.39ZM16.8749 10.75C17.1735 10.7503 17.462 10.7803 17.7308 10.85C17.7592 10.8559 17.7878 10.8603 17.8164 10.8632C19.5966 11.2848 20.8789 12.9097 20.8789 14.75C20.8789 15.48 20.6889 16.19 20.3089 16.81C19.5889 18.01 18.2789 18.75 16.8789 18.75C16.1089 18.75 15.3689 18.53 14.7089 18.09C14.2089 17.78 13.7789 17.34 13.4589 16.81C13.0789 16.19 12.8789 15.48 12.8789 14.75C12.8789 12.5413 14.6668 10.7521 16.8749 10.75ZM17.7167 9.31592L19.1808 8.01999C19.5208 7.66999 19.9408 6.84 19.9408 6.25V4.03C19.9408 3.33 19.3708 2.76001 18.6708 2.76001H5.33081V2.75C4.62081 2.75 4.06079 3.35 4.06079 4.12V6.45001C4.06079 6.81001 4.3608 7.54 4.7608 7.94L8.61078 11.99C9.12078 12.62 9.6308 13.68 9.6308 14.63V19.98C9.6308 20.64 10.0908 20.97 10.2808 21.08C10.7108 21.32 11.2208 21.31 11.6108 21.07L13.0108 20.17C13.2808 20.01 13.5508 19.5 13.5708 19.14C13.0208 18.73 12.5408 18.2 12.1808 17.6C11.7471 16.8911 11.4804 16.0918 11.4038 15.2659C11.3873 15.0949 11.3789 14.9228 11.3789 14.75C11.3789 11.72 13.8489 9.25 16.8789 9.25C17.1638 9.25 17.4441 9.27302 17.7167 9.31592ZM16.1929 16.6691C16.0029 16.6691 15.8129 16.5991 15.6629 16.4491L14.4929 15.2791C14.2029 14.9891 14.2029 14.5091 14.4929 14.2191C14.7829 13.9291 15.2629 13.9291 15.5529 14.2191L16.2129 14.8791L18.2229 13.0291C18.5329 12.7491 19.0029 12.7691 19.2829 13.0691C19.5629 13.3691 19.5429 13.8491 19.2429 14.1291L16.7029 16.4691C16.5629 16.5991 16.3729 16.6691 16.1929 16.6691Z" fill="#292D32"/>
</svg>
