<svg viewBox="0 0 24 24" fill="none" xmlns="http://www.w3.org/2000/svg">
<path fill-rule="evenodd" clip-rule="evenodd" d="M10.7733 22.7457C10.8258 22.7486 10.8783 22.75 10.9308 22.75C11.0056 22.75 11.0807 22.747 11.1557 22.741C11.3929 22.7219 11.6298 22.6727 11.8583 22.5933C12.0457 22.5285 12.2277 22.4439 12.4008 22.34L13.8108 21.43C13.82 21.4239 13.8291 21.4177 13.8379 21.4113C14.3591 21.0836 14.7387 20.4838 14.9302 19.8903C15.5455 20.1245 16.2054 20.25 16.8789 20.25C18.8089 20.25 20.6089 19.23 21.5789 17.59C22.0989 16.74 22.3789 15.76 22.3789 14.75C22.3789 12.6113 21.1483 10.7516 19.3588 9.84257L20.2108 9.09003C20.8108 8.47003 21.4308 7.28999 21.4308 6.23999V4.02002C21.4308 2.49002 20.1908 1.25 18.6608 1.25H5.32078C3.77078 1.25 2.55078 2.50999 2.55078 4.12V4.13V6.45001C2.55078 7.26001 3.04078 8.35999 3.67078 8.98999L7.47078 12.98C7.78078 13.37 8.11078 14.12 8.11078 14.63V19.98C8.11078 20.7825 8.44541 21.5093 9.02936 22.0248C9.18291 22.1624 9.35391 22.285 9.54078 22.39C9.92375 22.6038 10.3464 22.7223 10.7733 22.7457ZM17.4179 10.786C17.5282 10.8017 17.636 10.8228 17.7408 10.85C17.7704 10.8564 17.8004 10.861 17.8308 10.8638C19.5809 11.2906 20.8789 12.868 20.8789 14.75C20.8789 15.48 20.6789 16.19 20.2989 16.81C19.5789 18.03 18.2989 18.75 16.8789 18.75C16.1424 18.75 15.4283 18.5422 14.8125 18.1668C14.781 18.1388 14.7469 18.113 14.7108 18.09C14.4952 17.9564 14.2927 17.7986 14.1064 17.6198C13.8586 17.3792 13.6401 17.1045 13.4589 16.8C13.365 16.6493 13.2821 16.4925 13.2105 16.3308C12.9935 15.8349 12.8808 15.2981 12.8808 14.75C12.8808 12.5403 14.6703 10.7505 16.8798 10.75C17.0623 10.75 17.2419 10.7623 17.4179 10.786ZM17.7283 9.31565L19.0331 8.16072C19.0609 8.11786 19.0934 8.07734 19.1308 8.03998C19.5008 7.66998 19.9208 6.84 19.9208 6.25V4.03003C19.9208 3.53708 19.6381 3.10858 19.2264 2.89823C19.0585 2.81613 18.8699 2.77002 18.6708 2.77002H5.33078V2.76001C4.62078 2.76001 4.06078 3.36 4.06078 4.13V6.45001C4.06078 6.81001 4.36078 7.55001 4.76078 7.95001L8.61078 12C9.12078 12.63 9.63078 13.7 9.63078 14.64V19.99C9.63078 20.4895 9.89429 20.8 10.1048 20.9692C10.1637 21.0133 10.218 21.0465 10.2608 21.07C10.6908 21.31 11.2008 21.3 11.6008 21.06L13.0008 20.16C13.0381 20.1365 13.0767 20.1167 13.1161 20.1004C13.3471 19.8892 13.5534 19.463 13.5708 19.15C13.0208 18.74 12.5408 18.21 12.1808 17.61C12.0316 17.3662 11.9022 17.1117 11.7935 16.849C11.5196 16.1926 11.3789 15.4791 11.3789 14.75C11.3789 11.72 13.8489 9.25 16.8789 9.25C17.1677 9.25 17.4514 9.27244 17.7283 9.31565ZM17.6201 16.5199C17.7701 16.6699 17.9601 16.7399 18.1501 16.7399C18.3501 16.7399 18.5401 16.6699 18.6801 16.5199C18.9701 16.2299 18.9701 15.7499 18.6801 15.4599L17.9603 14.7402L18.6605 14.0399C18.9505 13.7499 18.9505 13.27 18.6605 12.98C18.3705 12.69 17.8905 12.69 17.6005 12.98L16.9003 13.6802L16.1701 12.9499C15.8801 12.6599 15.4001 12.6599 15.1101 12.9499C14.8201 13.2399 14.8201 13.7199 15.1101 14.0099L15.8403 14.7402L15.0905 15.49C14.8005 15.78 14.8005 16.26 15.0905 16.55C15.2405 16.7 15.4305 16.77 15.6205 16.77C15.8105 16.77 16.0005 16.7 16.1505 16.55L16.9003 15.8002L17.6201 16.5199Z" fill="#292D32"/>
</svg>
