<svg viewBox="0 0 24 24" fill="none" xmlns="http://www.w3.org/2000/svg">
<path fill-rule="evenodd" clip-rule="evenodd" d="M20.5799 6.24V4.02C20.5799 2.91 19.6799 2 18.5899 2H5.40992C4.31992 2 3.41992 2.91 3.41992 4.12V6.45C3.41992 7.05 3.81992 7.96 4.31992 8.47L8.10992 12.51C8.50992 13.01 8.90992 13.92 8.90992 14.63V19.98C8.90992 21.6 10.6999 22.51 11.9999 21.7L13.3999 20.79C13.4699 20.74 13.5399 20.69 13.6099 20.63C13.8099 20.45 13.7199 20.13 13.4899 19.98C12.7299 19.51 12.0299 18.81 11.5299 17.97C10.9399 17.01 10.6299 15.89 10.6299 14.75C10.6299 11.3 13.4299 8.5 16.8799 8.5C17.3599 8.5 17.8299 8.55 18.2699 8.66C18.4699 8.71 18.6699 8.76 18.8699 8.83C19.0499 8.89 19.2599 8.86 19.3999 8.73L19.5799 8.57C20.0799 8.06 20.5799 7.05 20.5799 6.24ZM16.8809 10C17.2409 10 17.5909 10.04 17.9209 10.12C20.0509 10.59 21.6309 12.49 21.6309 14.75C21.6309 15.64 21.3909 16.48 20.9509 17.2C20.1309 18.57 18.6209 19.5 16.8809 19.5C15.9409 19.5 15.0609 19.22 14.3209 18.73C13.7009 18.35 13.1909 17.82 12.8209 17.2C12.3809 16.48 12.1309 15.64 12.1309 14.75C12.1309 12.13 14.2609 10 16.8809 10ZM16.7109 16.47L19.2509 14.13C19.5509 13.85 19.5709 13.38 19.2909 13.07C19.0109 12.77 18.5409 12.75 18.2309 13.03L16.2209 14.88L15.5609 14.22C15.2709 13.93 14.7909 13.93 14.5009 14.22C14.2109 14.51 14.2109 14.99 14.5009 15.28L15.6709 16.45C15.8209 16.6 16.0109 16.67 16.2009 16.67C16.3809 16.67 16.5709 16.6 16.7109 16.47Z" fill="#292D32"/>
</svg>
