<svg viewBox="0 0 24 24" fill="none" xmlns="http://www.w3.org/2000/svg">
<path fill-rule="evenodd" clip-rule="evenodd" d="M9 22.75H15C20.43 22.75 22.75 20.43 22.75 15V9C22.75 3.57 20.43 1.25 15 1.25H9C3.57 1.25 1.25 3.57 1.25 9V15C1.25 20.43 3.57 22.75 9 22.75ZM2.75 9C2.75 4.39 4.39 2.75 9 2.75H15C19.61 2.75 21.25 4.39 21.25 9V15C21.25 19.61 19.61 21.25 15 21.25H9C4.39 21.25 2.75 19.61 2.75 15V9ZM10.42 18.6499C10.72 18.8199 11.05 18.8999 11.38 18.8999C11.74 18.8999 12.09 18.8099 12.4 18.6199L13.19 18.1099C13.7 17.8099 14.08 17.1099 14.08 16.4799V13.9799C14.08 13.6899 14.25 13.3399 14.41 13.1999L16.94 10.9599C17.34 10.5599 17.74 9.7899 17.74 9.0899V7.8099C17.74 6.7599 16.88 5.8999 15.83 5.8999H8.16C7.09 5.8999 6.25 6.7599 6.25 7.8699V9.1999C6.25 9.7499 6.56 10.4699 6.97 10.8799L9.14 13.1599C9.29 13.3499 9.44 13.7199 9.44 13.9099V16.9899C9.44 17.6899 9.81 18.3099 10.42 18.6499ZM7.75 7.8699C7.75 7.5999 7.92 7.3999 8.16 7.3999H15.83C16.05 7.3999 16.24 7.5899 16.24 7.8099V9.0699C16.24 9.3199 16.04 9.7199 15.91 9.8499L13.43 12.0499C12.93 12.4599 12.58 13.2499 12.58 13.9599V16.4599C12.58 16.5599 12.48 16.7599 12.4 16.8199L11.6 17.3399C11.44 17.4399 11.26 17.3999 11.15 17.3399C11.07 17.2999 10.94 17.1899 10.94 16.9899V13.9099C10.94 13.2899 10.61 12.5999 10.27 12.1699L8.05 9.8299C7.89 9.6699 7.75 9.3299 7.75 9.1999V7.8699Z" fill="#292D32"/>
</svg>
