<svg viewBox="0 0 24 24" fill="none" xmlns="http://www.w3.org/2000/svg">
<path fill-rule="evenodd" clip-rule="evenodd" d="M4.40039 22C4.40039 22.41 4.74039 22.75 5.15039 22.75C5.56039 22.75 5.90039 22.41 5.90039 22V16.75H16.3504C18.5004 16.75 19.2104 15.83 19.4404 15.3C19.6604 14.75 19.8104 13.61 18.2804 12.08L17.0404 10.85C16.8304 10.66 16.7104 10.39 16.7004 10.09C16.6904 9.74 16.8304 9.39 17.0804 9.14L18.2804 7.94C19.8404 6.38 19.6904 5.24 19.4704 4.7C19.2404 4.16 18.5404 3.25 16.3504 3.25H5.90039V2C5.90039 1.59 5.56039 1.25 5.15039 1.25C4.74039 1.25 4.40039 1.59 4.40039 2V4V16V22ZM5.90039 4.75V15.25H16.3504C17.4404 15.25 17.9504 14.96 18.0504 14.71C18.1504 14.46 18.0004 13.9 17.2204 13.13L16.0204 11.93C15.5304 11.5 15.2304 10.85 15.2004 10.13C15.1704 9.37 15.4704 8.62 16.0204 8.07L17.2204 6.87C17.9604 6.13 18.1904 5.53 18.0804 5.27C17.9704 5.01 17.4004 4.75 16.3504 4.75H5.90039Z" fill="#292D32"/>
</svg>
