<svg viewBox="0 0 24 24" fill="none" xmlns="http://www.w3.org/2000/svg">
<path fill-rule="evenodd" clip-rule="evenodd" d="M5.69922 22C5.69922 22.41 6.03922 22.75 6.44922 22.75C6.85922 22.75 7.19922 22.41 7.19922 22V17.71C7.22963 17.6993 7.25971 17.6861 7.28907 17.6701L15.5991 13.5601C17.3891 12.6401 18.3491 11.4001 18.2991 10.0701C18.2691 9.31011 17.8491 7.87011 15.3491 6.81011L7.24907 3.31011C7.23258 3.30273 7.21595 3.29601 7.19922 3.28994V2C7.19922 1.59 6.85922 1.25 6.44922 1.25C6.03922 1.25 5.69922 1.59 5.69922 2V22ZM7.19922 4.92351V16.0435L14.9191 12.2301C16.1391 11.6001 16.8291 10.8401 16.7991 10.1301C16.7691 9.44011 16.0291 8.73011 14.7591 8.19011L7.19922 4.92351Z" fill="#292D32"/>
</svg>
