<svg viewBox="0 0 24 24" fill="none" xmlns="http://www.w3.org/2000/svg">
<path fill-rule="evenodd" clip-rule="evenodd" d="M1.2207 12C1.2207 17.93 6.0507 22.75 11.9707 22.75C17.9007 22.75 22.7207 17.93 22.7207 12C22.7207 6.07 17.8907 1.25 11.9707 1.25C6.0507 1.25 1.2207 6.07 1.2207 12ZM2.7207 12C2.7207 6.9 6.8707 2.75 11.9707 2.75C17.0707 2.75 21.2207 6.9 21.2207 12C21.2207 17.1 17.0707 21.25 11.9707 21.25C6.8707 21.25 2.7207 17.1 2.7207 12ZM10.5693 18.0801C10.7393 18.1401 10.8993 18.1701 11.0693 18.1701C11.4593 18.1701 11.8393 18.0001 12.1193 17.7001L16.3793 12.8601C16.7493 12.4401 16.8393 11.8701 16.6093 11.3601C16.3793 10.8601 15.8893 10.5401 15.3293 10.5401H14.3393V7.24012C14.3393 6.65012 13.9793 6.14012 13.4293 5.93012C12.8793 5.72012 12.2793 5.87012 11.8893 6.31012L7.62934 11.1501C7.25934 11.5701 7.16934 12.1401 7.39934 12.6501C7.62934 13.1501 8.11934 13.4701 8.67934 13.4701H9.65934V16.7701C9.65934 17.3601 10.0193 17.8701 10.5693 18.0801ZM10.4093 11.9701H8.89934L12.8393 7.50012V11.2801C12.8393 11.6901 13.1793 12.0301 13.5893 12.0301H15.0993L11.1593 16.5001V12.7201C11.1593 12.3101 10.8193 11.9701 10.4093 11.9701Z" fill="#292D32"/>
</svg>
