<svg viewBox="0 0 24 24" fill="none" xmlns="http://www.w3.org/2000/svg">
<path fill-rule="evenodd" clip-rule="evenodd" d="M14.8205 3.52087V8.09244L20.6809 2.22891C20.9809 1.92891 21.4709 1.92891 21.7709 2.22891C22.0809 2.52891 22.0809 3.00891 21.7709 3.30891L3.31086 21.7689C3.16086 21.9189 2.97086 21.9989 2.77086 21.9989C2.57086 21.9989 2.38086 21.9189 2.23086 21.7789C1.93086 21.4789 1.93086 20.9889 2.23086 20.6889L9.1805 13.7355V13.2809H6.0905C4.6905 13.2809 4.3005 12.4209 5.2305 11.3709L12.0005 3.67087L12.8005 2.76087C13.9105 1.50087 14.8205 1.84087 14.8205 3.52087ZM11.9997 20.3288L18.7697 12.6287C19.6997 11.5787 19.3097 10.7188 17.9097 10.7188H16.2797L9.17969 17.8187V20.4787C9.17969 22.1587 10.0897 22.4987 11.1997 21.2388L11.9997 20.3288Z" fill="#292D32"/>
</svg>
