<svg viewBox="0 0 24 24" fill="none" xmlns="http://www.w3.org/2000/svg">
<path fill-rule="evenodd" clip-rule="evenodd" d="M1.46945 22.5299C1.61945 22.6799 1.80945 22.7499 1.99945 22.7499C2.18945 22.7499 2.37945 22.6799 2.52945 22.5299L22.5295 2.52994C22.8195 2.23994 22.8195 1.75994 22.5295 1.46994C22.2395 1.17994 21.7595 1.17994 21.4695 1.46994L15.5606 7.37883V3.5399C15.5606 1.9899 14.8806 1.4999 14.4806 1.3499C14.0806 1.1999 13.2506 1.1199 12.2306 2.2799L4.66057 10.8799C3.78057 11.8899 3.93057 12.6599 4.10057 13.0399C4.27057 13.4099 4.75057 14.0399 6.09057 14.0399H8.43057V14.4699C8.43057 14.4826 8.43089 14.4953 8.43154 14.5079L1.46945 21.4699C1.17945 21.7599 1.17945 22.2399 1.46945 22.5299ZM9.89268 13.0467L14.0611 8.87828C14.0607 8.86886 14.0606 8.8594 14.0606 8.8499V3.5199C14.0606 3.0199 13.9706 2.7999 13.9306 2.7399C13.9226 2.75048 13.9021 2.76525 13.8701 2.78829C13.7811 2.85236 13.6033 2.98038 13.3606 3.2599L5.79057 11.8599C5.51057 12.1799 5.47057 12.3799 5.47057 12.4199L5.47316 12.4212C5.50309 12.4366 5.68485 12.5299 6.09057 12.5299H9.18057C9.50939 12.5299 9.79319 12.7486 9.89268 13.0467ZM9.98969 22.75C9.78969 22.75 9.62969 22.71 9.50969 22.66C9.10969 22.51 8.42969 22.02 8.42969 20.47V18.03C8.42969 17.62 8.76969 17.28 9.17969 17.28C9.58969 17.28 9.92969 17.62 9.92969 18.03V20.47C9.92969 20.97 10.0197 21.19 10.0597 21.25C10.0676 21.2394 10.0881 21.2246 10.1201 21.2016C10.2091 21.1375 10.3869 21.0095 10.6297 20.73L18.1997 12.13C18.4797 11.81 18.5197 11.61 18.5197 11.57L18.5171 11.5686C18.4872 11.5533 18.3054 11.46 17.8997 11.46H16.9697C16.5597 11.46 16.2197 11.12 16.2197 10.71C16.2197 10.3 16.5597 9.95996 16.9697 9.95996H17.8997C19.2397 9.95996 19.7197 10.59 19.8897 10.96C20.0597 11.34 20.2097 12.11 19.3297 13.12L11.7597 21.72C11.0497 22.54 10.4297 22.75 9.98969 22.75Z" fill="#292D32"/>
</svg>
