<svg viewBox="0 0 24 24" fill="none" xmlns="http://www.w3.org/2000/svg">
<path d="M21.7709 2.22988C21.4709 1.92988 20.9809 1.92988 20.6809 2.22988L2.23086 20.6899C1.93086 20.9899 1.93086 21.4799 2.23086 21.7799C2.38086 21.9199 2.57086 21.9999 2.77086 21.9999C2.97086 21.9999 3.16086 21.9199 3.31086 21.7699L21.7709 3.30988C22.0809 3.00988 22.0809 2.52988 21.7709 2.22988Z" fill="#292D32"/>
<path opacity="0.4" fill-rule="evenodd" clip-rule="evenodd" d="M14.8205 9.1799V3.5199C14.8205 1.8399 13.9105 1.4999 12.8005 2.7599L12.0005 3.6699L5.2305 11.3699C4.3005 12.4199 4.6905 13.2799 6.0905 13.2799H9.1805V14.8199L14.8205 9.1799ZM11.9997 20.33L18.7697 12.63C19.6997 11.58 19.3097 10.72 17.9097 10.72H16.2797L9.17969 17.82V20.48C9.17969 22.16 10.0897 22.5 11.1997 21.24L11.9997 20.33Z" fill="#292D32"/>
</svg>
