<svg viewBox="0 0 24 24" fill="none" xmlns="http://www.w3.org/2000/svg">
<path fill-rule="evenodd" clip-rule="evenodd" d="M14.9 2C15.58 2 16.54 2.4 17.02 2.88L18.55 4.41L4.41 18.55L2.88 17.02C2.4 16.54 2 15.58 2 14.9V9.1C2 8.42 2.4 7.46 2.88 6.98L6.98 2.88C7.46 2.4 8.42 2 9.1 2H14.9ZM19.6107 5.47266L21.1207 6.98266C21.6007 7.46266 22.0007 8.42266 22.0007 9.10266V14.9027C22.0007 15.5827 21.6007 16.5427 21.1207 17.0227L17.0207 21.1227C16.5407 21.6027 15.5807 22.0027 14.9007 22.0027H9.1007C8.4207 22.0027 7.4607 21.6027 6.9807 21.1227L5.4707 19.6127L19.6107 5.47266ZM2.49094 20.4708C2.20094 20.7608 2.20094 21.2408 2.49094 21.5308C2.64094 21.6808 2.83094 21.7508 3.02094 21.7508C3.21094 21.7508 3.40094 21.6808 3.55094 21.5308L5.47094 19.6108L4.41094 18.5508L2.49094 20.4708ZM21.5308 2.49094C21.8208 2.78094 21.8208 3.26094 21.5308 3.55094L19.6108 5.47094L18.5508 4.41094L20.4708 2.49094C20.7608 2.20094 21.2408 2.20094 21.5308 2.49094Z" fill="#292D32"/>
</svg>
