<svg viewBox="0 0 24 24" fill="none" xmlns="http://www.w3.org/2000/svg">
<path fill-rule="evenodd" clip-rule="evenodd" d="M9.10001 22.75H14.9C15.79 22.75 16.92 22.28 17.55 21.65L21.65 17.55C22.28 16.93 22.75 15.79 22.75 14.9V9.10001C22.75 8.22001 22.28 7.08001 21.65 6.45001L17.55 2.35001C16.93 1.72001 15.79 1.25 14.9 1.25H9.10001C8.22001 1.25 7.08 1.72001 6.45 2.35001L2.35001 6.45001C1.72001 7.07001 1.25 8.21001 1.25 9.10001V14.9C1.25 15.78 1.72001 16.92 2.35001 17.55L4.38686 19.5869C4.39402 19.5946 4.40136 19.6023 4.40891 19.6099C4.41671 19.6177 4.42462 19.6253 4.43264 19.6326L6.45 21.65C7.07 22.28 8.21001 22.75 9.10001 22.75ZM5.99939 19.0794L7.50999 20.59C7.85999 20.93 8.61001 21.25 9.10001 21.25H14.9C15.39 21.25 16.15 20.94 16.49 20.59L20.59 16.49C20.93 16.14 21.25 15.39 21.25 14.9V9.10001C21.25 8.61001 20.94 7.85001 20.59 7.51001L19.0794 5.99939L5.99939 19.0794ZM4.93939 18.0194L18.0194 4.9394L16.49 3.41C16.14 3.07 15.39 2.75 14.9 2.75H9.10001C8.61001 2.75 7.84999 3.06 7.50999 3.41L3.41 7.51001C3.07 7.86001 2.75 8.61001 2.75 9.10001V14.9C2.75 15.39 3.06 16.15 3.41 16.49L4.93939 18.0194Z" fill="#292D32"/>
</svg>
