<svg viewBox="0 0 24 24" fill="none" xmlns="http://www.w3.org/2000/svg">
<path fill-rule="evenodd" clip-rule="evenodd" d="M9 22.75H15C20.43 22.75 22.75 20.43 22.75 15V14.0267C22.7642 13.9429 22.764 13.8575 22.75 13.7744V10C22.75 9.59 22.41 9.25 22 9.25C21.59 9.25 21.25 9.59 21.25 10V12.2558L20.8707 11.9301C19.8007 11.0201 18.1307 11.0201 17.0707 11.9301L12.9107 15.5001C12.4207 15.9301 11.5707 15.9301 11.0707 15.5001L10.7407 15.2101C9.76075 14.3801 8.27075 14.2901 7.19075 15.0201L3.0461 17.8028C2.84274 17.0245 2.75 16.0962 2.75 15V9C2.75 4.39 4.39 2.75 9 2.75H13C13.41 2.75 13.75 2.41 13.75 2C13.75 1.59 13.41 1.25 13 1.25H9C3.57 1.25 1.25 3.57 1.25 9V15C1.25 20.43 3.57 22.75 9 22.75ZM3.63629 19.2138L8.02075 16.2701C8.53075 15.9201 9.29075 15.9601 9.75075 16.3501L10.0807 16.6401C11.1507 17.5501 12.8207 17.5501 13.8807 16.6401L18.0407 13.0701C18.5407 12.6401 19.3907 12.6401 19.8907 13.0701L21.25 14.2375V15C21.25 19.61 19.61 21.25 15 21.25H9C6.24802 21.25 4.55443 20.6656 3.63629 19.2138ZM6.25 8C6.25 9.52 7.48 10.75 9 10.75C10.52 10.75 11.75 9.52 11.75 8C11.75 6.48 10.52 5.25 9 5.25C7.48 5.25 6.25 6.48 6.25 8ZM7.75 8C7.75 7.31 8.31 6.75 9 6.75C9.69 6.75 10.25 7.31 10.25 8C10.25 8.69 9.69 9.25 9 9.25C8.31 9.25 7.75 8.69 7.75 8ZM17.4595 7.20023C17.2695 7.20023 17.0795 7.13023 16.9295 6.98023L15.4695 5.52023C15.1795 5.23023 15.1795 4.75023 15.4695 4.46023C15.7595 4.17023 16.2395 4.17023 16.5295 4.46023L17.4595 5.39023L20.8295 2.02023C21.1195 1.73023 21.5995 1.73023 21.8895 2.02023C22.1795 2.31023 22.1795 2.79023 21.8895 3.08023L17.9895 6.98023C17.8495 7.13023 17.6495 7.20023 17.4595 7.20023Z" fill="#292D32"/>
</svg>
