<svg viewBox="0 0 24 24" fill="none" xmlns="http://www.w3.org/2000/svg">
<path fill-rule="evenodd" clip-rule="evenodd" d="M7.81 2H16.19C19.83 2 22 4.17 22 7.81V13.9V16.19C22 19.83 19.83 22 16.19 22H7.81C5.26 22 3.42 20.93 2.56 19.03C2.19 18.23 2 17.28 2 16.19V7.81C2 4.17 4.17 2 7.81 2ZM17.55 12.5C18.33 11.83 19.59 11.83 20.37 12.5L20.5 12.61V7.81C20.5 4.99 19.01 3.5 16.19 3.5H7.81C4.99 3.5 3.5 4.99 3.5 7.81V16.19C3.5 16.95 3.63 17.6 3.85 18.16L7.59 15.65C8.39 15.11 9.52 15.17 10.23 15.79L10.57 16.07C11.35 16.74 12.61 16.74 13.39 16.07L17.55 12.5ZM9.00109 10.3811C10.3155 10.3811 11.3811 9.31553 11.3811 8.00109C11.3811 6.68666 10.3155 5.62109 9.00109 5.62109C7.68666 5.62109 6.62109 6.68666 6.62109 8.00109C6.62109 9.31553 7.68666 10.3811 9.00109 10.3811Z" fill="#292D32"/>
</svg>
