<svg viewBox="0 0 24 24" fill="none" xmlns="http://www.w3.org/2000/svg">
<path fill-rule="evenodd" clip-rule="evenodd" d="M11.3791 8.00012C11.3791 9.31456 10.3136 10.3801 8.99914 10.3801C7.6847 10.3801 6.61914 9.31456 6.61914 8.00012C6.61914 6.68568 7.6847 5.62012 8.99914 5.62012C10.3136 5.62012 11.3791 6.68568 11.3791 8.00012ZM22.0005 16.1901V13.9001L20.3705 12.5001C19.5905 11.8301 18.3305 11.8301 17.5505 12.5001L13.3905 16.0701C12.6105 16.7401 11.3505 16.7401 10.5705 16.0701L10.2305 15.7901C9.52055 15.1701 8.39055 15.1101 7.59055 15.6501L2.67055 18.9501L2.56055 19.0301C3.42055 20.9301 5.26055 22.0001 7.81055 22.0001H16.1905C19.8305 22.0001 22.0005 19.8301 22.0005 16.1901Z" fill="#292D32"/>
<path opacity="0.4" d="M22 7.81V13.9L20.37 12.5C19.59 11.83 18.33 11.83 17.55 12.5L13.39 16.07C12.61 16.74 11.35 16.74 10.57 16.07L10.23 15.79C9.52 15.17 8.39 15.11 7.59 15.65L2.67 18.95L2.56 19.03C2.19 18.23 2 17.28 2 16.19V7.81C2 4.17 4.17 2 7.81 2H16.19C19.83 2 22 4.17 22 7.81Z" fill="#292D32"/>
</svg>
