<svg viewBox="0 0 24 24" fill="none" xmlns="http://www.w3.org/2000/svg">
<path fill-rule="evenodd" clip-rule="evenodd" d="M15 22.75H9C3.57 22.75 1.25 20.43 1.25 15V9C1.25 3.57 3.57 1.25 9 1.25H13C13.41 1.25 13.75 1.59 13.75 2C13.75 2.41 13.41 2.75 13 2.75H9C4.39 2.75 2.75 4.39 2.75 9V15C2.75 16.0932 2.84222 17.0193 3.04439 17.7962L7.17932 15.0201C8.25932 14.3001 9.74932 14.3801 10.7293 15.2101L11.0593 15.5001C11.5593 15.9301 12.4093 15.9301 12.8993 15.5001L17.0593 11.9301C18.1293 11.0201 19.7893 11.0201 20.8593 11.9301L21.25 12.2656V10C21.25 9.59 21.59 9.25 22 9.25C22.41 9.25 22.75 9.59 22.75 10V15C22.75 20.43 20.43 22.75 15 22.75ZM21.25 14.2473V15C21.25 19.61 19.61 21.25 15 21.25H9C6.25025 21.25 4.55717 20.6665 3.63852 19.2173L8.01932 16.2701C8.52932 15.9201 9.28932 15.9601 9.74932 16.3501L10.0793 16.6401C11.1493 17.5501 12.8193 17.5501 13.8793 16.6401L18.0393 13.0701C18.5293 12.6401 19.3793 12.6401 19.8793 13.0701L21.25 14.2473ZM9 10.75C7.48 10.75 6.25 9.52 6.25 8C6.25 6.48 7.48 5.25 9 5.25C10.52 5.25 11.75 6.48 11.75 8C11.75 9.52 10.52 10.75 9 10.75ZM9 6.75C8.31 6.75 7.75 7.31 7.75 8C7.75 8.69 8.31 9.25 9 9.25C9.69 9.25 10.25 8.69 10.25 8C10.25 7.31 9.69 6.75 9 6.75ZM15.75 5.75H17.75V7.75C17.75 8.16 18.09 8.5 18.5 8.5C18.91 8.5 19.25 8.16 19.25 7.75V5.75H21.25C21.66 5.75 22 5.41 22 5C22 4.59 21.66 4.25 21.25 4.25H19.25V2.25C19.25 1.84 18.91 1.5 18.5 1.5C18.09 1.5 17.75 1.84 17.75 2.25V4.25H15.75C15.34 4.25 15 4.59 15 5C15 5.41 15.34 5.75 15.75 5.75Z" fill="#292D32"/>
</svg>
