<svg viewBox="0 0 24 24" fill="none" xmlns="http://www.w3.org/2000/svg">
<path fill-rule="evenodd" clip-rule="evenodd" d="M21.7709 2.22988C21.4709 1.92988 20.9809 1.92988 20.6809 2.22988L2.23086 20.6899C1.93086 20.9899 1.93086 21.4799 2.23086 21.7799C2.38086 21.9199 2.57086 21.9999 2.77086 21.9999C2.97086 21.9999 3.16086 21.9199 3.31086 21.7699L21.7709 3.30988C22.0809 3.00988 22.0809 2.52988 21.7709 2.22988ZM22.0006 13.9001V16.1901C22.0006 19.8301 19.8306 22.0001 16.1906 22.0001H7.81063C7.39062 22.0001 6.98063 21.9701 6.60063 21.9101C6.17063 21.8501 5.77063 21.7501 5.39062 21.6101L10.7806 16.2201C11.5606 16.7401 12.6806 16.6801 13.3906 16.0701L17.5506 12.5001C18.3306 11.8301 19.5906 11.8301 20.3706 12.5001L22.0006 13.9001ZM10.3791 8.00012C10.3791 9.31456 9.31358 10.3801 7.99914 10.3801C6.6847 10.3801 5.61914 9.31456 5.61914 8.00012C5.61914 6.68568 6.6847 5.62012 7.99914 5.62012C9.31358 5.62012 10.3791 6.68568 10.3791 8.00012Z" fill="#292D32"/>
<path opacity="0.4" fill-rule="evenodd" clip-rule="evenodd" d="M3.54 20.46L20.46 3.54C19.46 2.54 18.01 2 16.19 2H7.81C4.17 2 2 4.17 2 7.81V16.19C2 18.01 2.54 19.46 3.54 20.46ZM21.9993 13.9001V7.81014C21.9993 7.39014 21.9693 6.98014 21.9093 6.60014C21.8493 6.17014 21.7493 5.77014 21.6093 5.39014L10.7793 16.2201C11.5593 16.7401 12.6793 16.6801 13.3893 16.0701L17.5493 12.5001C18.3293 11.8301 19.5893 11.8301 20.3693 12.5001L21.9993 13.9001Z" fill="#292D32"/>
</svg>
