<svg viewBox="0 0 24 24" fill="none" xmlns="http://www.w3.org/2000/svg">
<path fill-rule="evenodd" clip-rule="evenodd" d="M20.97 1H18.03C17.1552 1 16.5224 1.36056 16.2133 2H7.81C4.17 2 2 4.17 2 7.81V16.19C2 17.28 2.19 18.23 2.56 19.03C3.42 20.93 5.26 22 7.81 22H16.19C19.83 22 22 19.83 22 16.19V7.78671C22.6394 7.47756 23 6.84476 23 5.97V3.03C23 1.76 22.24 1 20.97 1ZM21.4709 7.95634C21.3143 7.98522 21.1471 8 20.97 8C21.1486 8 21.3153 7.98604 21.4709 7.95634ZM20.5 8H18.03C16.76 8 16 7.24 16 5.97V3.5H7.81C4.99 3.5 3.5 4.99 3.5 7.81V16.19C3.5 16.95 3.63 17.6 3.85 18.16L7.59 15.65C8.39 15.11 9.52 15.17 10.23 15.79L10.57 16.07C11.35 16.74 12.61 16.74 13.39 16.07L17.55 12.5C18.33 11.83 19.59 11.83 20.37 12.5L20.5 12.61V8ZM16 3.03C16 2.85288 16.0148 2.68569 16.0437 2.52909C16.014 2.68468 16 2.85136 16 3.03ZM21.63 3.45L19.26 6.22C19.17 6.33 19.03 6.4 18.89 6.4H18.87C18.73 6.4 18.6 6.35 18.5 6.25L17.4 5.17C17.2 4.97 17.2 4.64 17.4 4.44C17.6 4.24 17.93 4.23 18.13 4.44L18.83 5.13L20.83 2.79C21.02 2.57 21.34 2.55 21.56 2.73C21.79 2.91 21.81 3.24 21.63 3.45ZM9.00109 10.3811C10.3155 10.3811 11.3811 9.31553 11.3811 8.00109C11.3811 6.68666 10.3155 5.62109 9.00109 5.62109C7.68666 5.62109 6.62109 6.68666 6.62109 8.00109C6.62109 9.31553 7.68666 10.3811 9.00109 10.3811Z" fill="#292D32"/>
</svg>
