<svg viewBox="0 0 24 24" fill="none" xmlns="http://www.w3.org/2000/svg">
<path fill-rule="evenodd" clip-rule="evenodd" d="M20.97 1H18.03C17.16 1 16.52 1.36 16.23 2H7.81C4.17 2 2 4.17 2 7.81V16.19C2 17.28 2.19 18.23 2.56 19.03C3.42 20.93 5.26 22 7.81 22H16.19C19.83 22 22 19.83 22 16.19V7.77C22.64 7.48 23 6.84 23 5.97V3.03C23 1.76 22.24 1 20.97 1ZM20.5 8H18.03C16.76 8 16 7.24 16 5.97V3.5H7.81C4.99 3.5 3.5 4.99 3.5 7.81V16.19C3.5 16.95 3.63 17.6 3.85 18.16L7.59 15.65C8.39 15.11 9.52 15.17 10.23 15.79L10.57 16.07C11.35 16.74 12.61 16.74 13.39 16.07L17.55 12.5C18.33 11.83 19.59 11.83 20.37 12.5L20.5 12.61V8ZM21.91 4.93C21.81 5.03 21.66 5.1 21.5 5.11H20.09V5.62L20.1 6.5C20.09 6.67 20.03 6.81 19.91 6.93C19.81 7.03 19.66 7.1 19.5 7.1C19.17 7.1 18.9 6.83 18.9 6.5V5.1L17.5 5.11C17.17 5.11 16.9 4.83 16.9 4.5C16.9 4.17 17.17 3.9 17.5 3.9L18.38 3.91H18.9V2.51C18.9 2.18 19.17 1.9 19.5 1.9C19.83 1.9 20.1 2.18 20.1 2.51L20.09 3.22V3.9H21.5C21.83 3.9 22.1 4.17 22.1 4.5C22.09 4.67 22.02 4.81 21.91 4.93ZM9.00109 10.3811C10.3155 10.3811 11.3811 9.31553 11.3811 8.00109C11.3811 6.68666 10.3155 5.62109 9.00109 5.62109C7.68666 5.62109 6.62109 6.68666 6.62109 8.00109C6.62109 9.31553 7.68666 10.3811 9.00109 10.3811Z" fill="#292D32"/>
</svg>
