<svg viewBox="0 0 24 24" fill="none" xmlns="http://www.w3.org/2000/svg">
<path fill-rule="evenodd" clip-rule="evenodd" d="M20.97 1H18.03C17.1552 1 16.5224 1.36056 16.2133 2H7.81C4.17 2 2 4.17 2 7.81V16.19C2 17.28 2.19 18.23 2.56 19.03C3.42 20.93 5.26 22 7.81 22H16.19C19.83 22 22 19.83 22 16.19V7.78671C22.6394 7.47756 23 6.84476 23 5.97V3.03C23 1.76 22.24 1 20.97 1ZM21.4709 7.95634C21.3143 7.98522 21.1471 8 20.97 8C21.1486 8 21.3153 7.98604 21.4709 7.95634ZM20.5 8H18.03C16.76 8 16 7.24 16 5.97V3.5H7.81C4.99 3.5 3.5 4.99 3.5 7.81V16.19C3.5 16.95 3.63 17.6 3.85 18.16L7.59 15.65C8.39 15.11 9.52 15.17 10.23 15.79L10.57 16.07C11.35 16.74 12.61 16.74 13.39 16.07L17.55 12.5C18.33 11.83 19.59 11.83 20.37 12.5L20.5 12.61V8ZM16 3.03C16 2.85288 16.0148 2.68569 16.0437 2.52909C16.014 2.68468 16 2.85136 16 3.03ZM21.19 4.31C21.07 4.43 20.91 4.49 20.75 4.49C20.59 4.49 20.43 4.43 20.31 4.31L20.13 4.13V6.37C20.13 6.72 19.85 7 19.5 7C19.15 7 18.87 6.72 18.87 6.37V4.13L18.69 4.31C18.45 4.55 18.05 4.55 17.81 4.31C17.57 4.07 17.57 3.67 17.81 3.43L19.06 2.18C19.11 2.13 19.18 2.09 19.25 2.06C19.26 2.055 19.27 2.0525 19.28 2.05C19.29 2.0475 19.3 2.045 19.31 2.04C19.36 2.02 19.41 2.01 19.47 2.01H19.53C19.6 2.01 19.66 2.02 19.73 2.05H19.75C19.82 2.08 19.88 2.12 19.93 2.17C19.9358 2.17575 19.9382 2.17819 19.9411 2.17923C19.9433 2.18 19.9458 2.18 19.95 2.18L21.2 3.43C21.44 3.67 21.44 4.07 21.19 4.31ZM9.00109 10.3811C10.3155 10.3811 11.3811 9.31553 11.3811 8.00109C11.3811 6.68666 10.3155 5.62109 9.00109 5.62109C7.68666 5.62109 6.62109 6.68666 6.62109 8.00109C6.62109 9.31553 7.68666 10.3811 9.00109 10.3811Z" fill="#292D32"/>
</svg>
