<svg viewBox="0 0 24 24" fill="none" xmlns="http://www.w3.org/2000/svg">
<path fill-rule="evenodd" clip-rule="evenodd" d="M1.25 15C1.25 17.3847 1.67853 19.096 2.60921 20.3302L1.46945 21.4699C1.17945 21.7599 1.17945 22.2399 1.46945 22.5299C1.61945 22.6799 1.80945 22.7499 1.99945 22.7499C2.18945 22.7499 2.37945 22.6799 2.52945 22.5299L22.5295 2.52994C22.8195 2.23994 22.8195 1.75994 22.5295 1.46994C22.2395 1.17994 21.7595 1.17994 21.4695 1.46994L20.3395 2.59991C19.102 1.69029 17.3641 1.25 15 1.25H9C3.57 1.25 1.25 3.57 1.25 9V15ZM15 2.75C16.9017 2.75 18.2957 3.05121 19.2618 3.67757L3.68139 19.258C3.05359 18.2957 2.75 16.8969 2.75 15V9C2.75 4.39 4.39 2.75 9 2.75H15ZM14.999 22.7502H8.99903C8.20903 22.7502 7.49903 22.7002 6.84903 22.6102C6.43903 22.5502 6.15903 22.1702 6.21903 21.7602C6.27903 21.3502 6.66903 21.0702 7.06903 21.1302C7.63903 21.2102 8.28903 21.2602 8.99903 21.2602H14.999C19.609 21.2602 21.249 19.6202 21.249 15.0102V13.348L19.8509 11.9499C19.3809 11.4799 18.5609 11.4799 18.0909 11.9499L13.0609 16.9899C12.7609 17.2799 12.3709 17.4299 11.9809 17.4299C11.5909 17.4299 11.2009 17.2799 10.9109 16.9899C10.6209 16.6999 10.6209 16.2199 10.9109 15.9299C11.2009 15.6399 11.6809 15.6399 11.9709 15.9299C11.9809 15.9399 11.9909 15.9399 12.0009 15.9299L17.0309 10.8899C18.0709 9.84986 19.8809 9.84986 20.9109 10.8899L21.249 11.228V9.00017C21.249 8.67017 21.239 8.34017 21.219 8.04017C21.189 7.63017 21.509 7.27017 21.919 7.24017C22.349 7.22017 22.689 7.53017 22.719 7.94017C22.739 8.28017 22.749 8.63017 22.749 9.00017V12.9307C22.7615 13.0096 22.7615 13.0902 22.749 13.1691V15.0002C22.749 20.4302 20.429 22.7502 14.999 22.7502ZM5.25 8C5.25 9.52 6.48 10.75 8 10.75C9.52 10.75 10.75 9.52 10.75 8C10.75 6.48 9.52 5.25 8 5.25C6.48 5.25 5.25 6.48 5.25 8ZM6.75 8C6.75 7.31 7.31 6.75 8 6.75C8.69 6.75 9.25 7.31 9.25 8C9.25 8.69 8.69 9.25 8 9.25C7.31 9.25 6.75 8.69 6.75 8Z" fill="#292D32"/>
</svg>
