<svg viewBox="0 0 24 24" fill="none" xmlns="http://www.w3.org/2000/svg">
<path fill-rule="evenodd" clip-rule="evenodd" d="M18.03 8C16.76 8 16 7.24 16 5.97V3.5H7.81C4.99 3.5 3.5 4.99 3.5 7.81V16.19C3.5 16.95 3.63 17.6 3.85 18.16L7.59 15.65C8.39 15.11 9.52 15.17 10.23 15.79L10.57 16.07C11.35 16.74 12.61 16.74 13.39 16.07L17.55 12.5C18.33 11.83 19.59 11.83 20.37 12.5L20.5 12.61V8H18.03ZM21.4709 7.95634C21.3153 7.98604 21.1486 8 20.97 8C21.1471 8 21.3143 7.98522 21.4709 7.95634ZM22 7.78671C22.6394 7.47756 23 6.84476 23 5.97V3.03C23 1.76 22.24 1 20.97 1H18.03C17.1552 1 16.5224 1.36056 16.2133 2H7.81C4.17 2 2 4.17 2 7.81V16.19C2 17.28 2.19 18.23 2.56 19.03C3.42 20.93 5.26 22 7.81 22H16.19C19.83 22 22 19.83 22 16.19V7.78671ZM16 3.03C16 2.85136 16.014 2.68468 16.0437 2.52909C16.0148 2.68569 16 2.85288 16 3.03ZM21.19 4.69C21.07 4.57 20.91 4.51 20.75 4.51C20.59 4.51 20.43 4.57 20.31 4.69L20.13 4.87V2.63C20.13 2.28 19.85 2 19.5 2C19.15 2 18.87 2.28 18.87 2.63V4.87L18.69 4.69C18.45 4.45 18.05 4.45 17.81 4.69C17.57 4.93 17.57 5.33 17.81 5.57L19.06 6.82C19.11 6.87 19.18 6.91 19.25 6.94C19.26 6.945 19.27 6.9475 19.28 6.95C19.29 6.9525 19.3 6.955 19.31 6.96C19.36 6.98 19.41 6.99 19.47 6.99H19.53C19.6 6.99 19.66 6.98 19.73 6.95H19.75C19.82 6.92 19.88 6.88 19.93 6.83C19.94 6.82 19.94 6.82 19.95 6.82L21.2 5.57C21.44 5.33 21.44 4.93 21.19 4.69ZM9.00109 10.3811C10.3155 10.3811 11.3811 9.31553 11.3811 8.00109C11.3811 6.68666 10.3155 5.62109 9.00109 5.62109C7.68666 5.62109 6.62109 6.68666 6.62109 8.00109C6.62109 9.31553 7.68666 10.3811 9.00109 10.3811Z" fill="#292D32"/>
</svg>
