<svg viewBox="0 0 24 24" fill="none" xmlns="http://www.w3.org/2000/svg">
<path fill-rule="evenodd" clip-rule="evenodd" d="M18.7903 4.11853C18.1171 3.70758 17.2461 3.5 16.19 3.5H7.81C4.99 3.5 3.5 4.99 3.5 7.81V16.19C3.5 16.95 3.63 17.6 3.85 18.16L6.60314 16.3123L18.7903 4.11853ZM3.04411 19.8733C2.8596 19.6145 2.69767 19.3329 2.56 19.03C2.19 18.23 2 17.28 2 16.19V7.81C2 4.17 4.17 2 7.81 2H16.19C17.6782 2 18.9191 2.36107 19.8688 3.03948L20.6789 2.22891C20.9789 1.92891 21.4689 1.92891 21.7689 2.22891C22.0789 2.52891 22.0789 3.00891 21.7689 3.30891L3.30891 21.7689C3.15891 21.9189 2.96891 21.9989 2.76891 21.9989C2.56891 21.9989 2.37891 21.9189 2.22891 21.7789C1.92891 21.4789 1.92891 20.9889 2.22891 20.6889L3.04411 19.8733ZM9.00109 10.3811C10.3155 10.3811 11.3811 9.31553 11.3811 8.00109C11.3811 6.68666 10.3155 5.62109 9.00109 5.62109C7.68666 5.62109 6.62109 6.68666 6.62109 8.00109C6.62109 9.31553 7.68666 10.3811 9.00109 10.3811ZM20.3884 6.61063L21.6084 5.39062L21.609 5.39223L21.6106 5.39062C21.8706 6.10063 22.0006 6.91062 22.0006 7.81063V16.1906C22.0006 19.8306 19.8306 22.0006 16.1906 22.0006H16.1884H7.81063H7.80844L7.79957 22.0006C6.90399 21.9996 6.09772 21.8696 5.39062 21.6106L5.3999 21.6014L5.39844 21.6006L10.7784 16.2206L10.7797 16.2215L10.7806 16.2206C11.1353 16.4571 11.5602 16.5736 11.985 16.573C12.4936 16.5719 13.0018 16.4028 13.3884 16.0706L17.5484 12.5006C17.9387 12.1654 18.4492 11.9979 18.9595 11.9981C19.4699 11.9979 19.9803 12.1654 20.3706 12.5006L20.4984 12.6088V7.81063C20.4984 7.38062 20.4684 6.98063 20.3884 6.61063Z" fill="#292D32"/>
</svg>
