<svg viewBox="0 0 24 24" fill="none" xmlns="http://www.w3.org/2000/svg">
<path fill-rule="evenodd" clip-rule="evenodd" d="M15 22.75H9C3.57 22.75 1.25 20.43 1.25 15V9C1.25 3.57 3.57 1.25 9 1.25H13C13.41 1.25 13.75 1.59 13.75 2C13.75 2.41 13.41 2.75 13 2.75H9C4.39 2.75 2.75 4.39 2.75 9V15C2.75 16.0932 2.84222 17.0193 3.04439 17.7962L7.17932 15.0201C8.25932 14.3001 9.74932 14.3801 10.7293 15.2101L11.0593 15.5001C11.5593 15.9301 12.4093 15.9301 12.8993 15.5001L17.0593 11.9301C18.1193 11.0201 19.7893 11.0201 20.8593 11.9301L21.25 12.2656V10C21.25 9.59 21.59 9.25 22 9.25C22.41 9.25 22.75 9.59 22.75 10V15C22.75 20.43 20.43 22.75 15 22.75ZM21.25 14.2473V15C21.25 19.61 19.61 21.25 15 21.25H9C6.25025 21.25 4.55717 20.6665 3.63852 19.2173L8.01932 16.2701C8.52932 15.9201 9.28932 15.9601 9.74932 16.3501L10.0793 16.6401C11.1493 17.5501 12.8193 17.5501 13.8793 16.6401L18.0393 13.0701C18.5393 12.6401 19.3793 12.6401 19.8793 13.0701L21.25 14.2473ZM9 10.75C7.48 10.75 6.25 9.52 6.25 8C6.25 6.48 7.48 5.25 9 5.25C10.52 5.25 11.75 6.48 11.75 8C11.75 9.52 10.52 10.75 9 10.75ZM9 6.75C8.31 6.75 7.75 7.31 7.75 8C7.75 8.69 8.31 9.25 9 9.25C9.69 9.25 10.25 8.69 10.25 8C10.25 7.31 9.69 6.75 9 6.75ZM17.25 7.99994C17.25 8.40994 17.59 8.74994 18 8.74994C18.41 8.74994 18.75 8.40994 18.75 7.99994V3.80994L19.47 4.52994C19.76 4.81994 20.24 4.81994 20.53 4.52994C20.82 4.23994 20.82 3.75994 20.53 3.46994L18.53 1.46994L18.5178 1.45852C18.2926 1.24306 17.9597 1.19656 17.688 1.319C17.5904 1.36124 17.5057 1.42444 17.4375 1.50188L15.4695 3.46994C15.1795 3.75994 15.1795 4.23994 15.4695 4.52994C15.6195 4.67994 15.8095 4.74994 15.9995 4.74994C16.1895 4.74994 16.3795 4.67994 16.5295 4.52994L17.25 3.80939V7.99994Z" fill="#292D32"/>
</svg>
