<svg viewBox="0 0 24 24" fill="none" xmlns="http://www.w3.org/2000/svg">
<path fill-rule="evenodd" clip-rule="evenodd" d="M15 22.75H9C3.57 22.75 1.25 20.43 1.25 15V9C1.25 3.57 3.57 1.25 9 1.25H13C13.41 1.25 13.75 1.59 13.75 2C13.75 2.41 13.41 2.75 13 2.75H9C4.39 2.75 2.75 4.39 2.75 9V15C2.75 16.0962 2.84274 17.0245 3.0461 17.8028L7.19075 15.0201C8.27075 14.2901 9.76075 14.3801 10.7407 15.2101L11.0707 15.5001C11.5707 15.9301 12.4207 15.9301 12.9107 15.5001L17.0707 11.9301C18.1307 11.0201 19.8007 11.0201 20.8707 11.9301L21.25 12.2558V10C21.25 9.59 21.59 9.25 22 9.25C22.41 9.25 22.75 9.59 22.75 10V13.7744C22.764 13.8575 22.7642 13.9429 22.75 14.0267V15C22.75 20.43 20.43 22.75 15 22.75ZM21.25 14.2375V15C21.25 19.61 19.61 21.25 15 21.25H9C6.24802 21.25 4.55443 20.6656 3.63629 19.2138L8.02075 16.2701C8.53075 15.9201 9.29075 15.9601 9.75075 16.3501L10.0807 16.6401C11.1507 17.5501 12.8207 17.5501 13.8807 16.6401L18.0407 13.0701C18.5407 12.6401 19.3907 12.6401 19.8907 13.0701L21.25 14.2375ZM9 10.75C7.48 10.75 6.25 9.52 6.25 8C6.25 6.48 7.48 5.25 9 5.25C10.52 5.25 11.75 6.48 11.75 8C11.75 9.52 10.52 10.75 9 10.75ZM9 6.75C8.31 6.75 7.75 7.31 7.75 8C7.75 8.69 8.31 9.25 9 9.25C9.69 9.25 10.25 8.69 10.25 8C10.25 7.31 9.69 6.75 9 6.75ZM17.6143 8.6437C17.5472 8.60463 17.4876 8.55501 17.4371 8.49759L15.4695 6.52994C15.1795 6.23994 15.1795 5.75994 15.4695 5.46994C15.7595 5.17994 16.2395 5.17994 16.5295 5.46994L17.25 6.19049V2C17.25 1.59 17.59 1.25 18 1.25C18.41 1.25 18.75 1.59 18.75 2V6.19L19.47 5.47C19.76 5.18 20.24 5.18 20.53 5.47C20.82 5.76 20.82 6.24 20.53 6.53L18.53 8.53C18.497 8.56303 18.4612 8.59271 18.4231 8.6188C18.3187 8.69097 18.202 8.73233 18.0829 8.74539C18.0556 8.74845 18.0279 8.75 18 8.75C17.9929 8.75 17.9859 8.7499 17.9789 8.7497C17.975 8.74959 17.971 8.74944 17.9671 8.74926C17.845 8.74412 17.7239 8.70982 17.6143 8.6437Z" fill="#292D32"/>
</svg>
