<svg viewBox="0 0 24 24" fill="none" xmlns="http://www.w3.org/2000/svg">
<path fill-rule="evenodd" clip-rule="evenodd" d="M15 22.75H9C3.57 22.75 1.25 20.43 1.25 15V9C1.25 3.57 3.57 1.25 9 1.25H15C20.43 1.25 22.75 3.57 22.75 9V13.7744C22.764 13.8575 22.7642 13.9429 22.75 14.0267V15C22.75 20.43 20.43 22.75 15 22.75ZM21.25 14.2375V15C21.25 19.61 19.61 21.25 15 21.25H9C6.24802 21.25 4.55443 20.6656 3.63629 19.2138L8.02075 16.2701C8.53075 15.9201 9.29075 15.9601 9.75075 16.3501L10.0807 16.6401C11.1507 17.5501 12.8207 17.5501 13.8807 16.6401L18.0407 13.0701C18.5407 12.6401 19.3907 12.6401 19.8907 13.0701L21.25 14.2375ZM21.25 12.2558L20.8707 11.9301C19.8007 11.0201 18.1307 11.0201 17.0707 11.9301L12.9107 15.5001C12.4207 15.9301 11.5707 15.9301 11.0707 15.5001L10.7407 15.2101C9.76075 14.3801 8.27075 14.2901 7.19075 15.0201L3.0461 17.8028C2.84274 17.0245 2.75 16.0962 2.75 15V9C2.75 4.39 4.39 2.75 9 2.75H15C19.61 2.75 21.25 4.39 21.25 9V12.2558ZM9 10.75C7.48 10.75 6.25 9.52 6.25 8C6.25 6.48 7.48 5.25 9 5.25C10.52 5.25 11.75 6.48 11.75 8C11.75 9.52 10.52 10.75 9 10.75ZM9 6.75C8.31 6.75 7.75 7.31 7.75 8C7.75 8.69 8.31 9.25 9 9.25C9.69 9.25 10.25 8.69 10.25 8C10.25 7.31 9.69 6.75 9 6.75Z" fill="#292D32"/>
</svg>
