<svg viewBox="0 0 24 24" fill="none" xmlns="http://www.w3.org/2000/svg">
<path fill-rule="evenodd" clip-rule="evenodd" d="M1.25 22C1.25 22.41 1.59 22.75 2 22.75H3.5H17.5H19C19.41 22.75 19.75 22.41 19.75 22C19.75 21.59 19.41 21.25 19 21.25H18.25V16.7566L21.99 16.7399C22.41 16.7399 22.74 16.3999 22.74 15.9899V9.98993C22.74 9.70993 22.58 9.44993 22.33 9.31993L20.33 8.31993C19.96 8.13993 19.51 8.28993 19.32 8.65993C19.14 9.02993 19.29 9.47992 19.66 9.66992L21.25 10.4599V15.2499L18.25 15.2579V5C18.25 2.76 16.74 1.25 14.5 1.25H6.5C4.26 1.25 2.75 2.76 2.75 5V21.25H2C1.59 21.25 1.25 21.59 1.25 22ZM16.75 16.0099V5C16.75 3.59 15.91 2.75 14.5 2.75H6.5C5.09 2.75 4.25 3.59 4.25 5V21.25H16.75V16.0099ZM8.38023 10.75H12.6102C14.2402 10.75 15.2502 9.73999 15.2502 8.10999V6.87999C15.2502 5.24999 14.2402 4.23999 12.6102 4.23999H8.38023C6.75023 4.23999 5.74023 5.24999 5.74023 6.87999V8.10999C5.74023 9.73999 6.75023 10.75 8.38023 10.75ZM7.25023 6.88998C7.25023 6.07998 7.58023 5.74998 8.39023 5.74998H12.6202C13.4302 5.74998 13.7602 6.07998 13.7602 6.88998V8.11998C13.7602 8.92998 13.4302 9.25998 12.6202 9.25998H8.39023C7.58023 9.25998 7.25023 8.92998 7.25023 8.11998V6.88998ZM9.5 13.75H6.5C6.09 13.75 5.75 13.41 5.75 13C5.75 12.59 6.09 12.25 6.5 12.25H9.5C9.91 12.25 10.25 12.59 10.25 13C10.25 13.41 9.91 13.75 9.5 13.75Z" fill="#292D32"/>
</svg>
