<svg viewBox="0 0 24 24" fill="none" xmlns="http://www.w3.org/2000/svg">
<path fill-rule="evenodd" clip-rule="evenodd" d="M13.12 10H7.89C6.85 10 6 9.5 6 8.12V6.89C6 5.5 6.85 5 7.88 5H13.11C14.15 5 15 5.5 15.01 6.88V8.11C15.01 9.5 14.16 10 13.12 10ZM2 22.75H19C19.41 22.75 19.75 22.41 19.75 22C19.75 21.59 19.41 21.25 19 21.25H2C1.59 21.25 1.25 21.59 1.25 22C1.25 22.41 1.59 22.75 2 22.75ZM9.5 13.75H6.5C6.09 13.75 5.75 13.41 5.75 13C5.75 12.59 6.09 12.25 6.5 12.25H9.5C9.91 12.25 10.25 12.59 10.25 13C10.25 13.41 9.91 13.75 9.5 13.75ZM22.75 16V10C22.75 9.72002 22.59 9.46002 22.34 9.33002L20.34 8.33002C19.97 8.15002 19.51 8.29002 19.33 8.66002C19.14 9.04002 19.29 9.49002 19.66 9.67002L21.25 10.46V15.25L17.5 15.26V16.76L22 16.75C22.42 16.75 22.75 16.41 22.75 16Z" fill="#292D32"/>
<path opacity="0.4" d="M3.5 22V5C3.5 3 4.84 2 6.5 2H14.5C16.16 2 17.5 3 17.5 5V22H3.5Z" fill="#292D32"/>
</svg>
