<svg viewBox="0 0 24 24" fill="none" xmlns="http://www.w3.org/2000/svg">
<path fill-rule="evenodd" clip-rule="evenodd" d="M6.11752 5C5.77883 4.62996 5.78926 4.06095 6.14881 3.70141L7.56881 2.28141C7.93881 1.91141 8.54881 1.91141 8.91881 2.28141L11.6374 5H12.353L15.0716 2.28141C15.4416 1.91141 16.0516 1.91141 16.4216 2.28141L17.8416 3.70141C18.2011 4.06095 18.2115 4.62996 17.8729 5H19.5C20.97 5 21.5 5.9 21.5 7V8C21.5 9.1 20.97 10 19.5 10H4.5C2.97 10 2.5 9.1 2.5 8V7C2.5 5.9 2.97 5 4.5 5H6.11752ZM20 12V18C20 20.21 18.21 22 16 22H8C5.79 22 4 20.21 4 18V12C4 11.45 4.45 11 5 11H6.97C7.52 11 7.97 11.45 7.97 12V15.14C7.97 15.88 8.38 16.56 9.03 16.91C9.32 17.07 9.64 17.15 9.97 17.15C10.35 17.15 10.73 17.04 11.06 16.82L12.01 16.2L12.89 16.79C13.5 17.2 14.28 17.25 14.93 16.9C15.59 16.55 16 15.88 16 15.13V12C16 11.45 16.45 11 17 11H19C19.55 11 20 11.45 20 12ZM14.9714 12C14.9714 11.45 14.5214 11 13.9714 11H9.94141C9.39141 11 8.94141 11.45 8.94141 12V15.15C8.94141 15.94 9.82141 16.42 10.4814 15.98L11.4214 15.36C11.7614 15.14 12.1914 15.14 12.5214 15.36L13.4214 15.96C14.0814 16.41 14.9714 15.93 14.9714 15.13V12Z" fill="#292D32"/>
</svg>
