<svg viewBox="0 0 24 24" fill="none" xmlns="http://www.w3.org/2000/svg">
<path d="M21.5 7V8C21.5 9.1 20.97 10 19.5 10H4.5C2.97 10 2.5 9.1 2.5 8V7C2.5 5.9 2.97 5 4.5 5H19.5C20.97 5 21.5 5.9 21.5 7Z" fill="#292D32"/>
<path opacity="0.4" fill-rule="evenodd" clip-rule="evenodd" d="M6.12076 4.99994H11.6408L8.92076 2.27994C8.55076 1.90994 7.94076 1.90994 7.57076 2.27994L6.15076 3.69994C5.79076 4.05994 5.78076 4.62994 6.12076 4.99994ZM12.3496 4.99994H17.8696C18.2096 4.62994 18.1996 4.05994 17.8396 3.69994L16.4196 2.27994C16.0496 1.90994 15.4396 1.90994 15.0696 2.27994L12.3496 4.99994Z" fill="#292D32"/>
<path opacity="0.6" d="M8.93945 10V15.14C8.93945 15.94 9.81945 16.41 10.4895 15.98L11.4295 15.36C11.7695 15.14 12.1995 15.14 12.5295 15.36L13.4195 15.96C14.0795 16.4 14.9695 15.93 14.9695 15.13V10H8.93945Z" fill="#292D32"/>
<path opacity="0.4" d="M19.9707 10V18C19.9707 21 18.9707 22 15.9707 22H7.9707C4.9707 22 3.9707 21 3.9707 18V10H19.9707Z" fill="#292D32"/>
</svg>
