<svg viewBox="0 0 24 24" fill="none" xmlns="http://www.w3.org/2000/svg">
<path fill-rule="evenodd" clip-rule="evenodd" d="M5.12882 4.25C5.15527 3.85576 5.31905 3.46995 5.61912 3.16988L7.03912 1.74988C7.69912 1.08988 8.78912 1.08988 9.44912 1.74988L11.9492 4.25H12.04L14.5401 1.74988C15.2001 1.08988 16.2901 1.08988 16.9501 1.74988L18.3701 3.16988C18.6702 3.46995 18.8361 3.85576 18.8639 4.25H19.5C21.2 4.25 22.25 5.3 22.25 7V8C22.25 9.2487 21.6835 10.1467 20.709 10.5355V18C20.709 21.42 19.379 22.75 15.959 22.75H7.95898C4.53898 22.75 3.20898 21.42 3.20898 18V10.5191C2.26734 10.1294 1.75 9.25871 1.75 8V7C1.75 5.25 2.75 4.25 4.5 4.25H5.12882ZM9.83912 4.24988H6.66912C6.66912 4.24488 6.67162 4.24238 6.67412 4.23988C6.67662 4.23738 6.67912 4.23488 6.67912 4.22988L8.09912 2.80988C8.17912 2.72988 8.30912 2.72988 8.38912 2.80988L9.83912 4.24988ZM14.9795 9.25H19.5C20.38 9.25 20.75 8.88 20.75 8V7C20.75 6.12 20.38 5.75 19.5 5.75H4.5C3.59 5.75 3.25 6.09 3.25 7V8C3.25 8.91 3.59 9.25 4.5 9.25H8.93945H14.9795ZM9.68945 10.75H14.2295V15.12C14.2295 15.25 14.1495 15.31 14.0995 15.34C14.0495 15.37 13.9495 15.4 13.8395 15.33L12.9495 14.73C12.3695 14.34 11.6095 14.34 11.0195 14.73L10.0795 15.35C9.96945 15.42 9.86945 15.39 9.81945 15.36C9.76945 15.33 9.68945 15.27 9.68945 15.14V10.75ZM8.18945 10.75V15.15C8.18945 15.79 8.53945 16.38 9.10945 16.69C9.36945 16.83 9.65945 16.9 9.93945 16.9C10.2695 16.9 10.6095 16.8 10.8995 16.6L11.8395 15.98C11.9295 15.92 12.0395 15.92 12.1195 15.98L13.0095 16.58C13.5495 16.94 14.2395 16.98 14.8095 16.67C15.3795 16.37 15.7295 15.78 15.7295 15.13V10.75H19.209V18C19.209 20.58 18.539 21.25 15.959 21.25H7.95898C5.37898 21.25 4.70898 20.58 4.70898 18V10.75H8.18945ZM14.1701 4.24988H17.3401L17.3201 4.22988L15.9001 2.80988C15.8201 2.72988 15.6901 2.72988 15.6101 2.80988L14.1701 4.24988Z" fill="#292D32"/>
</svg>
