<svg viewBox="0 0 24 24" fill="none" xmlns="http://www.w3.org/2000/svg">
<path d="M5.30375 10.7178V12.0069H7.08812C7.05214 12.2124 6.97509 12.4085 6.86158 12.5835C6.74807 12.7586 6.60043 12.9089 6.4275 13.0256C6.12937 13.2303 5.74875 13.3469 5.3025 13.3469C4.44 13.3469 3.71093 12.7559 3.44937 11.965C3.3125 11.5489 3.3125 11.0999 3.44937 10.6838C3.71093 9.88813 4.44 9.29719 5.3025 9.29719C5.53628 9.29284 5.7686 9.33502 5.98594 9.42129C6.20327 9.50756 6.40128 9.63619 6.56843 9.79969L7.51468 8.84282C6.91872 8.27659 6.12577 7.96456 5.30375 7.97282C4.68881 7.97518 4.08679 8.14939 3.56563 8.47579C3.04446 8.80219 2.62493 9.26778 2.35437 9.82C2.12132 10.2867 2 10.8012 2 11.3228C2 11.8445 2.12132 12.3589 2.35437 12.8256V12.8303C2.625 13.3822 3.04465 13.8474 3.56587 14.1732C4.08708 14.499 4.68907 14.6725 5.30375 14.6741C6.19343 14.6741 6.94593 14.3763 7.49125 13.8644C8.11625 13.2828 8.47281 12.4222 8.47281 11.3984C8.47317 11.1705 8.45488 10.9428 8.41812 10.7178H5.30375ZM17.4728 10.5928C17.1562 10.2997 16.725 10.1509 16.1794 10.1509C15.4775 10.1509 14.95 10.4116 14.6012 10.9278L15.2528 11.3422C15.4914 10.988 15.817 10.8109 16.2297 10.8109C16.4925 10.8116 16.7457 10.9094 16.9406 11.0856C17.0356 11.1681 17.1118 11.27 17.164 11.3845C17.2163 11.4989 17.2434 11.6233 17.2434 11.7491V11.9213C16.9591 11.7628 16.6012 11.6791 16.1609 11.6791C15.6472 11.6791 15.2344 11.8003 14.9269 12.0469C14.6194 12.2934 14.4637 12.6191 14.4637 13.0331C14.4589 13.2182 14.4956 13.402 14.5709 13.571C14.6463 13.7401 14.7585 13.8902 14.8994 14.0103C15.1884 14.2709 15.5556 14.4013 15.9866 14.4013C16.4956 14.4013 16.8994 14.1731 17.2053 13.7172H17.2366V14.2709H17.9431V11.8116C17.9453 11.2944 17.7894 10.8847 17.4728 10.5928ZM16.8719 13.3834C16.7635 13.4937 16.6343 13.5813 16.4917 13.6412C16.3492 13.7011 16.1962 13.732 16.0416 13.7322C15.8337 13.7357 15.6312 13.6666 15.4687 13.5369C15.3929 13.4801 15.3315 13.4063 15.2893 13.3215C15.2472 13.2367 15.2255 13.1432 15.2259 13.0484C15.2259 12.8297 15.3266 12.6481 15.5241 12.5041C15.7216 12.36 15.9781 12.2853 16.2762 12.2853C16.6875 12.2803 17.0094 12.3741 17.2387 12.5597C17.2387 12.8763 17.115 13.1506 16.8719 13.3834ZM13.9453 8.94594C13.7795 8.78016 13.5819 8.64958 13.3643 8.56205C13.1468 8.47452 12.9138 8.43184 12.6794 8.43657H10.7209V14.2722H11.4594V11.9084H12.6781C13.1781 11.9084 13.6 11.7409 13.9441 11.4106C13.9716 11.3828 13.9991 11.3547 14.0269 11.3269C14.328 10.9982 14.4881 10.5646 14.4729 10.1191C14.4576 9.67365 14.2682 9.25196 13.9453 8.94469V8.94594ZM13.4272 10.8906C13.3341 10.99 13.2209 11.0684 13.0951 11.1205C12.9693 11.1727 12.8339 11.1974 12.6978 11.1931H11.4594V9.15532H12.6978C12.9621 9.15436 13.216 9.25806 13.4041 9.44375C13.5954 9.63427 13.7048 9.89191 13.7091 10.1619C13.7135 10.4318 13.6123 10.6928 13.4272 10.8894V10.8906ZM21.1972 10.2803L20.0553 13.1459H20.0412L18.8719 10.2803H18.0691L19.6875 14.0163L18.7703 16.0263H19.5312L22 10.2803H21.1972Z" fill="#292D32"/>
</svg>
