<svg viewBox="0 0 25 24" fill="none" xmlns="http://www.w3.org/2000/svg">
<path d="M12.7004 22.75C8.66042 22.75 5.02043 20.52 3.16043 16.93C3.13043 16.9 3.11042 16.86 3.09042 16.82C2.33042 15.3 1.94043 13.68 1.94043 12C1.94043 10.32 2.33042 8.69999 3.09042 7.17999C4.93042 3.51999 8.61043 1.25 12.6904 1.25C15.4304 1.25 17.9204 2.21999 19.8904 4.04999C20.0404 4.18999 20.1304 4.38 20.1304 4.59C20.1304 4.8 20.0504 4.99001 19.9004 5.14001L17.0804 7.89999C16.7904 8.17999 16.3404 8.19 16.0404 7.91C15.4104 7.32 14.3204 6.62 12.6904 6.62C10.6304 6.62 8.74043 7.86001 7.89043 9.79001C7.82043 9.95001 7.76042 10.1 7.70042 10.27C7.51042 10.85 7.42043 11.44 7.42043 12.01C7.42043 12.58 7.52042 13.15 7.70042 13.72C7.70042 13.73 7.71043 13.74 7.71043 13.76C8.43043 15.94 10.4304 17.4 12.6904 17.4C13.8804 17.4 14.9004 17.11 15.7304 16.53C16.4904 16 16.9704 15.29 17.2304 14.65H12.7004C12.2904 14.65 11.9504 14.31 11.9504 13.9V10.19C11.9504 9.78 12.2904 9.44 12.7004 9.44H22.0904C22.4404 9.44 22.7404 9.67999 22.8204 10.02C22.9804 10.72 23.0504 11.38 23.0504 12.23C23.0504 15.41 21.9104 18.22 19.8304 20.14C17.9804 21.84 15.5104 22.75 12.7004 22.75ZM4.38042 16.05C4.41042 16.09 4.44043 16.14 4.46043 16.19C6.03043 19.3 9.19042 21.25 12.7004 21.25C15.1304 21.25 17.2404 20.48 18.8104 19.03C20.5804 17.4 21.5504 14.98 21.5504 12.22C21.5504 11.72 21.5304 11.32 21.4704 10.93H13.4504V13.14H18.2104C18.4204 13.14 18.6304 13.23 18.7704 13.39C18.9104 13.55 18.9804 13.77 18.9504 13.98C18.8204 15.1 18.1204 16.68 16.5904 17.75C15.5104 18.5 14.2004 18.89 12.6904 18.89C9.80043 18.89 7.24043 17.03 6.30043 14.25C6.30043 14.24 6.29043 14.23 6.29043 14.22C6.04043 13.49 5.92043 12.75 5.92043 12.01C5.92043 11.28 6.04043 10.54 6.28043 9.79999C6.35043 9.57999 6.43042 9.37999 6.52042 9.17999C7.62042 6.70999 10.0404 5.12 12.6904 5.12C14.4004 5.12 15.6604 5.72001 16.5204 6.35001L18.2704 4.64001C16.6904 3.40001 14.7704 2.75 12.6904 2.75C9.18043 2.75 6.01043 4.70001 4.43043 7.85001C3.78043 9.16001 3.44043 10.56 3.44043 12C3.45043 13.41 3.76042 14.77 4.38042 16.05Z" fill="#292D32"/>
</svg>
