<svg viewBox="0 0 24 24" fill="none" xmlns="http://www.w3.org/2000/svg">
<path fill-rule="evenodd" clip-rule="evenodd" d="M12 5.88C12.06 5.87 12.13 5.87 12.2 5.87C13.63 5.87 14.7 6.34 15.45 6.86C15.84 7.13 16.36 7.07001 16.7 6.74001L18.09 5.38C18.53 4.95 18.49 4.22 17.99 3.86C16.4 2.69 14.46 2 12.2 2H12.1999C12.1299 2 12.07 2 12 2.00999V5.88ZM18.82 19.5797C20.71 17.8297 21.8 15.2697 21.8 12.2197C21.8 11.7897 21.78 11.4197 21.74 11.0697C21.69 10.5597 21.26 10.1797 20.75 10.1797H13.2C12.65 10.1797 12.2 10.6297 12.2 11.1797V12.8897C12.2 13.4397 12.65 13.8897 13.2 13.8897H17.71C17.6 14.8097 17 16.1997 15.67 17.1297C14.82 17.7197 13.69 18.1297 12.2 18.1297C12.13 18.1297 12.07 18.1297 12 18.1197V21.9897C12.07 21.9997 12.1299 21.9997 12.1999 21.9997H12.2C14.9 21.9997 17.17 21.1097 18.82 19.5797Z" fill="#292D32"/>
<path opacity="0.4" d="M6.49922 10.0198C6.29922 10.6398 6.17922 11.3098 6.17922 11.9998C6.17922 12.6898 6.29922 13.3498 6.50922 13.9798C7.28922 16.3298 9.44922 18.0398 11.9992 18.1198V21.9898C8.17922 21.9198 4.88922 19.6998 3.27922 16.4898H3.26922C2.58922 15.1298 2.19922 13.6098 2.19922 11.9998C2.19922 10.3898 2.58922 8.86977 3.26922 7.50977C4.87922 4.29977 8.16922 2.07977 11.9992 2.00977V5.87978C9.63922 5.94978 7.62922 7.40977 6.70922 9.47977C6.62922 9.65977 6.55922 9.83978 6.49922 10.0198Z" fill="#292D32"/>
</svg>
