<svg viewBox="0 0 25 24" fill="none" xmlns="http://www.w3.org/2000/svg">
<path fill-rule="evenodd" clip-rule="evenodd" d="M3.57 22.75C3.24 22.75 2.9 22.66 2.61 22.47C2.07 22.14 1.75 21.56 1.75 20.92V3.06002C1.75 2.43002 2.07 1.85003 2.61 1.51003C3.15 1.18003 3.81 1.14002 4.38 1.43002L17.75 8.12002C17.7764 8.13322 17.8018 8.14771 17.8261 8.16342L22.2496 10.3801C22.8696 10.6801 23.2596 11.3001 23.2596 12.0001C23.2596 12.7001 22.8696 13.3201 22.2496 13.6201L17.8849 15.8073C17.7865 15.8855 17.6788 15.9361 17.5679 15.9612L4.96999 22.27C4.91519 22.2929 4.86247 22.3115 4.80993 22.3251L4.36 22.55C4.12 22.69 3.84 22.75 3.57 22.75ZM4.17998 20.98L4.18 20.98L13.1401 12.0199L4.11042 2.99024L3.71 2.79003C3.66 2.76003 3.61 2.75002 3.57 2.75002C3.5 2.75002 3.44 2.78001 3.4 2.80001C3.34 2.83001 3.25 2.92003 3.25 3.07003V20.93C3.25 21.09 3.34 21.17 3.4 21.2C3.46 21.24 3.57 21.28 3.72 21.21L4.17998 20.98ZM16.1498 9.00994L14.2 10.9598L8.35043 5.11025L16.1498 9.00994ZM17.5299 14.29L15.2599 12.0199L17.5596 9.72012L21.5696 11.7301C21.7196 11.8001 21.7396 11.9301 21.7396 12.0001C21.7396 12.0701 21.7196 12.2001 21.5696 12.2701H21.5596L17.5299 14.29ZM14.1998 13.0802L8.42999 18.85L16.1197 15.0002L14.1998 13.0802Z" fill="#292D32"/>
</svg>
