<svg viewBox="0 0 24 24" fill="none" xmlns="http://www.w3.org/2000/svg">
<path fill-rule="evenodd" clip-rule="evenodd" d="M20.68 2.23C20.98 1.93 21.47 1.93 21.77 2.23C22.08 2.53 22.08 3.01 21.77 3.31L3.31 21.77C3.16 21.92 2.97 22 2.77 22C2.57 22 2.38 21.92 2.22 21.78C1.92 21.48 1.92 20.99 2.22 20.69L5.83 17.08C4.84 15.88 4.19 14.38 4.04 12.75H2C1.59 12.75 1.25 12.41 1.25 12C1.25 11.59 1.59 11.25 2 11.25H4.03C4.38 7.44 7.43 4.4 11.24 4.04V2C11.24 1.59 11.58 1.25 11.99 1.25C12.4 1.25 12.74 1.59 12.74 2V4.05C14.37 4.2 15.87 4.85 17.07 5.84L20.68 2.23ZM12 8.88C10.28 8.88 8.88 10.28 8.88 12C8.88 12.58 9.05 13.12 9.33 13.58L13.58 9.33C13.12 9.05 12.58 8.88 12 8.88ZM22.0009 12.7487C22.4109 12.7487 22.7509 12.4087 22.7509 11.9987C22.7509 11.5887 22.4109 11.2487 22.0009 11.2587H19.9509C19.9009 10.6387 19.7709 10.0487 19.5809 9.47873C19.3409 8.76873 18.4409 8.54873 17.9109 9.07873L15.1009 11.8887C15.1109 11.9287 15.1109 11.9587 15.1109 11.9987V11.9987C15.1109 13.7287 13.7209 15.1187 11.9909 15.1187C11.9509 15.1187 11.9209 15.1187 11.8809 15.1087L9.07092 17.9187C8.54092 18.4487 8.76092 19.3487 9.47092 19.5887C10.0409 19.7787 10.6409 19.9087 11.2509 19.9587V21.9987C11.2509 22.4087 11.5909 22.7487 12.0009 22.7487C12.4109 22.7487 12.7509 22.4087 12.7509 21.9987V19.9587C16.5609 19.6087 19.6109 16.5587 19.9609 12.7487H22.0009Z" fill="#292D32"/>
</svg>
