<svg viewBox="0 0 24 24" fill="none" xmlns="http://www.w3.org/2000/svg">
<path fill-rule="evenodd" clip-rule="evenodd" d="M11.25 2V3.78377C7.29735 4.1414 4.1414 7.29735 3.78377 11.25H2C1.59 11.25 1.25 11.59 1.25 12C1.25 12.41 1.59 12.75 2 12.75H3.78377C4.1414 16.7027 7.29735 19.8586 11.25 20.2162V22C11.25 22.41 11.59 22.75 12 22.75C12.41 22.75 12.75 22.41 12.75 22V20.2162C16.7027 19.8586 19.8586 16.7027 20.2162 12.75H22C22.41 12.75 22.75 12.41 22.75 12C22.75 11.59 22.41 11.25 22 11.25H20.2162C19.8586 7.29735 16.7027 4.1414 12.75 3.78377V2C12.75 1.59 12.41 1.25 12 1.25C11.59 1.25 11.25 1.59 11.25 2ZM5.25 12C5.25 8.28 8.28 5.25 12 5.25C15.72 5.25 18.75 8.28 18.75 12C18.75 15.72 15.72 18.75 12 18.75C8.28 18.75 5.25 15.72 5.25 12ZM8.25 12C8.25 14.07 9.93 15.75 12 15.75C14.07 15.75 15.75 14.07 15.75 12C15.75 9.93 14.07 8.25 12 8.25C9.93 8.25 8.25 9.93 8.25 12ZM9.75 12C9.75 10.76 10.76 9.75 12 9.75C13.24 9.75 14.25 10.76 14.25 12C14.25 13.24 13.24 14.25 12 14.25C10.76 14.25 9.75 13.24 9.75 12Z" fill="#292D32"/>
</svg>
