<svg viewBox="0 0 24 24" fill="none" xmlns="http://www.w3.org/2000/svg">
<path fill-rule="evenodd" clip-rule="evenodd" d="M12.75 4.04V2C12.75 1.59 12.41 1.25 12 1.25C11.59 1.25 11.25 1.59 11.25 2V4.04H11.26C11.5 4.01 11.75 4 12 4C12.25 4 12.5 4.01 12.74 4.04H12.75ZM13.5939 9.32068L20.6809 2.22988C20.9809 1.92988 21.4709 1.92988 21.7709 2.22988C22.0809 2.52988 22.0809 3.00988 21.7709 3.30988L3.31086 21.7699C3.16086 21.9199 2.97086 21.9999 2.77086 21.9999C2.57086 21.9999 2.38086 21.9199 2.23086 21.7799C1.93086 21.4799 1.93086 20.9899 2.23086 20.6899L9.32253 13.5944C9.04157 13.1286 8.88086 12.5826 8.88086 11.9999C8.88086 10.2799 10.2809 8.87988 12.0009 8.87988C12.583 8.87988 13.1285 9.04026 13.5939 9.32068ZM4 12C4 12.25 4.01 12.51 4.04 12.75H2C1.59 12.75 1.25 12.41 1.25 12C1.25 11.59 1.59 11.25 2 11.25H4.04C4.01 11.49 4 11.75 4 12ZM12.75 22V19.96H12.74C12.5 19.99 12.25 20 12 20C11.75 20 11.5 19.99 11.26 19.96H11.25V22C11.25 22.41 11.59 22.75 12 22.75C12.41 22.75 12.75 22.41 12.75 22ZM22.7509 12C22.7509 12.41 22.4109 12.75 22.0009 12.75H19.9609C19.9909 12.51 20.0009 12.25 20.0009 12C20.0009 11.75 19.9909 11.49 19.9609 11.25H22.0009C22.4109 11.25 22.7509 11.59 22.7509 12Z" fill="#292D32"/>
<path opacity="0.4" fill-rule="evenodd" clip-rule="evenodd" d="M14.2 9.8L17.65 6.35C16.2 4.9 14.2 4 12 4C7.59 4 4 7.59 4 12C4 14.2 4.9 16.2 6.35 17.65L9.8 14.2C9.23 13.64 8.88 12.86 8.88 12C8.88 10.28 10.28 8.88 12 8.88C12.86 8.88 13.64 9.23 14.2 9.8ZM15.1105 11.8901L18.9405 8.06006C19.6205 9.22006 20.0005 10.5701 20.0005 12.0001C20.0005 16.4101 16.4105 20.0001 12.0005 20.0001C10.5705 20.0001 9.22055 19.6201 8.06055 18.9401L11.8905 15.1101C11.9305 15.1201 11.9605 15.1201 12.0005 15.1201C13.7205 15.1201 15.1205 13.7201 15.1205 12.0001C15.1205 11.9601 15.1205 11.9301 15.1105 11.8901Z" fill="#292D32"/>
</svg>
