<svg viewBox="0 0 24 24" fill="none" xmlns="http://www.w3.org/2000/svg">
<path fill-rule="evenodd" clip-rule="evenodd" d="M12.75 2V4.04H12.74C12.5 4.01 12.25 4 12 4C11.75 4 11.5 4.01 11.26 4.04H11.25V2C11.25 1.59 11.59 1.25 12 1.25C12.41 1.25 12.75 1.59 12.75 2ZM12.12 15.24C13.8431 15.24 15.24 13.8431 15.24 12.12C15.24 10.3969 13.8431 9 12.12 9C10.3969 9 9 10.3969 9 12.12C9 13.8431 10.3969 15.24 12.12 15.24ZM4.04 12.75C4.01 12.51 4 12.25 4 12C4 11.75 4.01 11.49 4.04 11.25H2C1.59 11.25 1.25 11.59 1.25 12C1.25 12.41 1.59 12.75 2 12.75H4.04ZM12.75 19.96V22C12.75 22.41 12.41 22.75 12 22.75C11.59 22.75 11.25 22.41 11.25 22V19.96H11.26C11.5 19.99 11.75 20 12 20C12.25 20 12.5 19.99 12.74 19.96H12.75ZM22.0009 12.75C22.4109 12.75 22.7509 12.41 22.7509 12C22.7509 11.59 22.4109 11.25 22.0009 11.25H19.9609C19.9909 11.49 20.0009 11.75 20.0009 12C20.0009 12.25 19.9909 12.51 19.9609 12.75H22.0009Z" fill="#292D32"/>
<path opacity="0.4" d="M12 20C16.4183 20 20 16.4183 20 12C20 7.58172 16.4183 4 12 4C7.58172 4 4 7.58172 4 12C4 16.4183 7.58172 20 12 20Z" fill="#292D32"/>
</svg>
