<svg viewBox="0 0 24 24" fill="none" xmlns="http://www.w3.org/2000/svg">
<path fill-rule="evenodd" clip-rule="evenodd" d="M11.25 2V3.78377C7.29735 4.1414 4.1414 7.29735 3.78377 11.25H2C1.59 11.25 1.25 11.59 1.25 12C1.25 12.41 1.59 12.75 2 12.75H3.78343C3.933 14.4199 4.58103 15.9885 5.65782 17.2816L1.46945 21.4699C1.17945 21.7599 1.17945 22.2399 1.46945 22.5299C1.61945 22.6799 1.80945 22.7499 1.99945 22.7499C2.18945 22.7499 2.37945 22.6799 2.52945 22.5299L10.3913 14.6681C10.3976 14.6622 10.4038 14.6562 10.41 14.65L14.65 10.41C14.656 10.404 14.6618 10.398 14.6675 10.3919L22.5295 2.52994C22.8195 2.23994 22.8195 1.75994 22.5295 1.46994C22.2395 1.17994 21.7595 1.17994 21.4695 1.46994L17.2811 5.65826C15.9896 4.58293 14.4203 3.93345 12.75 3.78351V2C12.75 1.59 12.41 1.25 12 1.25C11.59 1.25 11.25 1.59 11.25 2ZM16.2154 6.72396C15.0193 5.76855 13.5484 5.25 12 5.25C8.28 5.25 5.25 8.28 5.25 12C5.25 13.5452 5.77238 15.0203 6.72763 16.2118L8.8721 14.0673C8.46705 13.4586 8.25 12.746 8.25 12C8.25 9.93 9.93 8.25 12 8.25C12.746 8.25 13.4586 8.46705 14.0673 8.8721L16.2154 6.72396ZM12.9696 9.96981C12.6697 9.82993 12.3398 9.75 12 9.75C10.76 9.75 9.75 10.76 9.75 12C9.75 12.3398 9.82993 12.6697 9.96981 12.9696L12.9696 9.96981ZM8.70002 19.5598C9.51209 19.9189 10.3668 20.1379 11.25 20.2166V22C11.25 22.41 11.59 22.75 12 22.75C12.41 22.75 12.75 22.41 12.75 22V20.216C16.6998 19.8586 19.8545 16.7065 20.2239 12.75H22C22.41 12.75 22.75 12.41 22.75 12C22.75 11.59 22.41 11.25 22 11.25H20.2278C20.1498 10.3632 19.9306 9.50498 19.57 8.68976C19.4 8.30976 18.96 8.13976 18.58 8.29976C18.2 8.46976 18.02 8.90976 18.19 9.28976C18.56 10.1398 18.75 11.0498 18.75 11.9898C18.75 15.7098 15.72 18.7398 12 18.7398C11.06 18.7398 10.15 18.5498 9.30002 18.1798C8.92002 18.0198 8.48002 18.1898 8.31002 18.5698C8.15002 18.9498 8.32001 19.3898 8.70002 19.5598Z" fill="#292D32"/>
</svg>
