<svg viewBox="0 0 24 24" fill="none" xmlns="http://www.w3.org/2000/svg">
<path fill-rule="evenodd" clip-rule="evenodd" d="M11.13 21.5201C11.38 21.6101 11.69 21.6501 12 21.6501C12.31 21.6501 12.61 21.6101 12.85 21.5101C13.0395 21.447 13.2389 21.3706 13.4501 21.283C14.4588 22.2118 15.7982 22.7499 17.2004 22.7499C19.1404 22.7499 20.9604 21.7199 21.9404 20.0699C22.4704 19.2099 22.7504 18.2199 22.7504 17.1999C22.7504 15.9195 22.3144 14.7389 21.5832 13.7988C22.3585 12.1828 22.75 10.4698 22.75 8.69012C22.75 5.19012 19.92 2.3501 16.44 2.3501C14.78 2.3501 13.17 3.02012 12 4.19012C10.83 3.02012 9.22 2.3501 7.56 2.3501C4.08 2.3501 1.25 5.19012 1.25 8.69012C1.25 16.4101 8.57 20.6501 11.13 21.5201ZM19.7328 14.0435C19.8751 14.1589 20.0111 14.2846 20.14 14.4201C20.1467 14.4272 20.1535 14.4342 20.1604 14.4409C20.836 15.1651 21.2504 16.1358 21.2504 17.1999C21.2504 17.9399 21.0504 18.6599 20.6604 19.2899C19.9304 20.5199 18.6404 21.2499 17.2004 21.2499C16.0632 21.2499 15.0195 20.7946 14.2664 19.9924C14.2442 19.9566 14.2187 19.9224 14.19 19.8901C13.551 19.1748 13.1849 18.2685 13.1524 17.3273C13.1511 17.2849 13.1504 17.2424 13.1504 17.1999C13.1504 14.9699 14.9704 13.1499 17.2004 13.1499C18.1571 13.1499 19.0383 13.4849 19.7328 14.0435ZM20.4413 12.697C20.9804 11.418 21.25 10.079 21.25 8.69012C21.25 6.02012 19.09 3.8501 16.44 3.8501C14.94 3.8501 13.5 4.57015 12.6 5.78015C12.32 6.16015 11.68 6.16015 11.4 5.78015C10.5 4.57015 9.06 3.8501 7.56 3.8501C4.91 3.8501 2.75 6.02012 2.75 8.69012C2.75 15.5301 9.32 19.3101 11.62 20.1001C11.81 20.1701 12.19 20.1601 12.37 20.1001L12.46 20.0701C11.93 19.2101 11.65 18.2201 11.65 17.2001C11.65 15.251 12.6602 13.5332 14.1846 12.5428C14.2307 12.5128 14.2773 12.4835 14.3244 12.4548C15.1637 11.9442 16.1484 11.6499 17.2004 11.6499C18.4091 11.6499 19.5288 12.0384 20.4413 12.697ZM16.5095 19.13C16.3195 19.13 16.1295 19.06 15.9795 18.91L14.7995 17.73C14.5095 17.44 14.5095 16.96 14.7995 16.67C15.0895 16.38 15.5695 16.38 15.8595 16.67L16.5295 17.3401L18.5595 15.4601C18.8695 15.1801 19.3395 15.2 19.6195 15.5C19.8995 15.8 19.8795 16.28 19.5795 16.56L17.0195 18.92C16.8795 19.07 16.6895 19.13 16.5095 19.13Z" fill="#292D32"/>
</svg>
