<svg viewBox="0 0 24 24" fill="none" xmlns="http://www.w3.org/2000/svg">
<path fill-rule="evenodd" clip-rule="evenodd" d="M1.25 12C1.25 17.93 6.07 22.75 12 22.75C17.93 22.75 22.75 17.93 22.75 12C22.75 6.07 17.93 1.25 12 1.25C6.07 1.25 1.25 6.07 1.25 12ZM2.75 12C2.75 6.9 6.9 2.75 12 2.75C17.1 2.75 21.25 6.9 21.25 12C21.25 17.1 17.1 21.25 12 21.25C6.9 21.25 2.75 17.1 2.75 12ZM11.4194 18.1601C11.5894 18.2201 11.7894 18.2501 11.9994 18.2501C12.1994 18.2501 12.4094 18.2201 12.5794 18.1601C14.7394 17.4201 18.1494 14.8001 18.1494 10.9101C18.1494 8.83013 16.4694 7.14014 14.3994 7.14014C13.5194 7.14014 12.6794 7.45013 12.0094 8.01013C11.3394 7.45013 10.5094 7.14014 9.60938 7.14014C7.53938 7.14014 5.85938 8.83013 5.85938 10.9101C5.85938 14.8101 9.26937 17.4301 11.4194 18.1601ZM7.34938 10.9201C7.34938 9.67014 8.35938 8.65012 9.59938 8.65012C10.3194 8.65012 10.9694 8.98012 11.3894 9.56012C11.6694 9.94012 12.3094 9.94012 12.5894 9.56012C13.0094 8.99012 13.6794 8.65012 14.3794 8.65012C15.6194 8.65012 16.6294 9.67014 16.6294 10.9201C16.6294 14.4101 13.2594 16.3501 12.0794 16.7501C12.0394 16.7601 11.9394 16.7601 11.8994 16.7501C10.7194 16.3501 7.34938 14.4101 7.34938 10.9201Z" fill="#292D32"/>
</svg>
