<svg viewBox="0 0 24 24" fill="none" xmlns="http://www.w3.org/2000/svg">
<path fill-rule="evenodd" clip-rule="evenodd" d="M21.48 12.0406C21.81 11.0206 22 9.92062 22 8.73062C22 5.64062 19.51 3.14062 16.44 3.14062C14.63 3.14062 13.01 4.02062 12 5.37062C10.99 4.02062 9.37 3.14062 7.56 3.14062C4.49 3.14062 2 5.64062 2 8.73062C2 9.92062 2.19 11.0206 2.52 12.0406C4.1 17.0406 8.97 20.0306 11.38 20.8506C11.68 20.9606 11.87 20.6006 11.71 20.3206C11.18 19.3806 10.9 18.3206 10.9 17.2406C10.9 13.7706 13.73 10.9406 17.2 10.9406C18.57 10.9406 19.9 11.3706 20.99 12.1806C21.17 12.3106 21.42 12.2506 21.48 12.0406ZM20.88 19.6483L21.74 20.5083C22.09 20.8483 22.09 21.3983 21.76 21.7483C21.59 21.9183 21.37 22.0083 21.14 22.0083C20.91 22.0083 20.69 21.9183 20.52 21.7483L19.66 20.8883C18.98 21.3383 18.17 21.5983 17.3 21.5983C14.92 21.5983 13 19.6783 13 17.2983C13 14.9183 14.91 12.9883 17.29 12.9883C19.67 12.9883 21.59 14.9183 21.59 17.2883C21.59 18.1583 21.33 18.9683 20.88 19.6483Z" fill="#292D32"/>
</svg>
