<svg viewBox="0 0 24 24" fill="none" xmlns="http://www.w3.org/2000/svg">
<path fill-rule="evenodd" clip-rule="evenodd" d="M21.4695 1.47141C21.7595 1.18141 22.2395 1.18141 22.5295 1.47141C22.8195 1.76141 22.8195 2.24141 22.5295 2.53141L2.52945 22.5314C2.37945 22.6814 2.18945 22.7514 1.99945 22.7514C1.80945 22.7514 1.61945 22.6814 1.46945 22.5314C1.17945 22.2414 1.17945 21.7614 1.46945 21.4714L5.76945 17.1714C4.38945 15.8014 3.16945 14.0714 2.51945 12.0014C2.18945 10.9814 1.99945 9.88141 1.99945 8.69141C1.99945 5.60141 4.48945 3.10141 7.55945 3.10141C9.36945 3.10141 10.9895 3.98141 11.9995 5.33141C13.0095 3.98141 14.6295 3.10141 16.4395 3.10141C17.4195 3.10141 18.3395 3.36141 19.1295 3.81141L21.4695 1.47141ZM21.4809 12.0011C21.8109 10.9811 22.0009 9.88106 22.0009 8.69106C22.0009 8.20106 21.9409 7.73106 21.8309 7.28106C21.6409 6.54106 20.6909 6.31106 20.1509 6.85106L8.87085 18.1311C8.41085 18.5911 8.50085 19.3711 9.06085 19.7011C9.93085 20.2211 10.7409 20.5911 11.3809 20.8111C11.7209 20.9311 12.2809 20.9311 12.6209 20.8111C15.0309 19.9911 19.9009 17.0011 21.4809 12.0011Z" fill="#292D32"/>
</svg>
