<svg viewBox="0 0 24 24" fill="none" xmlns="http://www.w3.org/2000/svg">
<path fill-rule="evenodd" clip-rule="evenodd" d="M21.48 12.0367C21.81 11.0167 22 9.91672 22 8.72672C22 5.63672 19.51 3.13672 16.44 3.13672C14.63 3.13672 13.01 4.01672 12 5.36672C10.99 4.01672 9.37 3.13672 7.56 3.13672C4.49 3.13672 2 5.63672 2 8.72672C2 9.91672 2.19 11.0167 2.52 12.0367C4.1 17.0367 8.97 20.0267 11.38 20.8467C11.68 20.9567 11.87 20.5967 11.71 20.3167C11.18 19.3767 10.9 18.3167 10.9 17.2367C10.9 13.7667 13.73 10.9367 17.2 10.9367C18.57 10.9367 19.9 11.3667 20.99 12.1767C21.17 12.3067 21.42 12.2467 21.48 12.0367ZM20.6804 13.9084C20.6804 13.9084 20.6804 13.9184 20.6904 13.9184C21.5004 14.7784 22.0004 15.9284 22.0004 17.1984C22.0004 19.8484 19.8504 21.9984 17.2004 21.9984C15.7804 21.9984 14.5104 21.3784 13.6304 20.3984C12.8704 19.5484 12.4004 18.4284 12.4004 17.1984C12.4004 14.5484 14.5504 12.3984 17.2004 12.3984C18.5704 12.3984 19.8004 12.9784 20.6804 13.8984V13.9084ZM18.4804 19.2884C18.6704 19.2884 18.8704 19.2084 19.0104 19.0684C19.3104 18.7684 19.3104 18.2984 19.0104 18.0084L18.2704 17.2684L18.9804 16.5584C19.1104 16.4384 19.1804 16.2784 19.1904 16.1084C19.2204 15.8884 19.1504 15.6684 18.9804 15.4984C18.6904 15.2084 18.2204 15.2084 17.9204 15.4984L17.2104 16.2084L16.4804 15.4684C16.1804 15.1784 15.7104 15.1784 15.4204 15.4684C15.1204 15.7584 15.1204 16.2384 15.4204 16.5284L16.1504 17.2684L15.3904 18.0384C15.0904 18.3284 15.0904 18.7984 15.3904 19.0984C15.4604 19.1684 15.5504 19.2284 15.6404 19.2584C15.7304 19.2984 15.8204 19.3184 15.9204 19.3184C16.1104 19.3184 16.3004 19.2384 16.4504 19.0984L17.2104 18.3284L17.9504 19.0684C18.1004 19.2084 18.2904 19.2884 18.4804 19.2884Z" fill="#292D32"/>
</svg>
