<svg viewBox="0 0 24 24" fill="none" xmlns="http://www.w3.org/2000/svg">
<path fill-rule="evenodd" clip-rule="evenodd" d="M21.48 12.0367C21.81 11.0167 22 9.91672 22 8.72672C22 5.63672 19.51 3.13672 16.44 3.13672C14.63 3.13672 13.01 4.01672 12 5.36672C10.99 4.01672 9.37 3.13672 7.56 3.13672C4.49 3.13672 2 5.63672 2 8.72672C2 9.91672 2.19 11.0167 2.52 12.0367C4.1 17.0367 8.97 20.0267 11.38 20.8467C11.68 20.9567 11.87 20.5967 11.71 20.3167C11.18 19.3767 10.9 18.3167 10.9 17.2367C10.9 13.7667 13.73 10.9367 17.2 10.9367C18.57 10.9367 19.9 11.3667 20.99 12.1767C21.17 12.3067 21.42 12.2467 21.48 12.0367ZM12.4004 17.1984C12.4004 14.5484 14.5504 12.3984 17.2004 12.3984C19.8504 12.3984 22.0004 14.5484 22.0004 17.1984C22.0004 18.0984 21.7404 18.9484 21.3004 19.6684C20.4804 21.0584 18.9504 21.9984 17.2004 21.9984C15.4504 21.9984 13.9304 21.0584 13.1004 19.6684C12.6504 18.9484 12.4004 18.0984 12.4004 17.1984ZM17.0204 18.9284L19.5804 16.5684C19.8804 16.2884 19.9004 15.8084 19.6204 15.4984C19.3404 15.1984 18.8604 15.1784 18.5604 15.4584L16.5304 17.3384L15.8604 16.6684C15.5704 16.3784 15.0904 16.3784 14.8004 16.6684C14.5104 16.9584 14.5104 17.4384 14.8004 17.7284L15.9804 18.9084C16.1304 19.0584 16.3204 19.1284 16.5104 19.1284C16.6904 19.1284 16.8804 19.0584 17.0204 18.9284Z" fill="#292D32"/>
</svg>
