<svg viewBox="0 0 24 24" fill="none" xmlns="http://www.w3.org/2000/svg">
<path fill-rule="evenodd" clip-rule="evenodd" d="M21.48 12.0367C21.81 11.0167 22 9.91672 22 8.72672C22 5.63672 19.51 3.13672 16.44 3.13672C14.63 3.13672 13.01 4.01672 12 5.36672C10.99 4.01672 9.37 3.13672 7.56 3.13672C4.49 3.13672 2 5.63672 2 8.72672C2 9.91672 2.19 11.0167 2.52 12.0367C4.1 17.0367 8.97 20.0267 11.38 20.8467C11.68 20.9567 11.87 20.5967 11.71 20.3167C11.18 19.3767 10.9 18.3167 10.9 17.2367C10.9 13.7667 13.73 10.9367 17.2 10.9367C18.57 10.9367 19.9 11.3667 20.99 12.1767C21.17 12.3067 21.42 12.2467 21.48 12.0367ZM20.6804 13.8984V13.9084C21.5004 14.7684 22.0004 15.9284 22.0004 17.1984C22.0004 19.8484 19.8504 21.9984 17.2004 21.9984C15.7804 21.9984 14.5104 21.3784 13.6304 20.3984C12.8704 19.5484 12.4004 18.4284 12.4004 17.1984C12.4004 14.5484 14.5504 12.3984 17.2004 12.3984C18.5704 12.3984 19.8004 12.9684 20.6804 13.8984ZM17.9504 18.0084H18.9904C19.4104 18.0084 19.7404 17.6784 19.7404 17.2584C19.7404 16.8484 19.4104 16.5084 18.9904 16.5084H17.9504V15.4784C17.9304 15.0784 17.6004 14.7584 17.2004 14.7584C16.8104 14.7584 16.4804 15.0684 16.4604 15.4484C16.4504 15.4684 16.4504 15.4884 16.4504 15.5084V16.5084H15.4004C14.9804 16.5184 14.6604 16.8484 14.6604 17.2584C14.6604 17.6784 14.9904 18.0084 15.4104 18.0084H16.4504V19.0984C16.4504 19.5084 16.7904 19.8484 17.2004 19.8484C17.6104 19.8484 17.9504 19.5084 17.9504 19.0984V18.0084Z" fill="#292D32"/>
</svg>
