<svg viewBox="0 0 24 24" fill="none" xmlns="http://www.w3.org/2000/svg">
<path fill-rule="evenodd" clip-rule="evenodd" d="M11.13 21.5201C11.38 21.6101 11.69 21.6501 12 21.6501C12.31 21.6501 12.61 21.6101 12.84 21.5101C13.0306 21.4466 13.2312 21.3697 13.4436 21.2815C14.4328 22.1927 15.7528 22.7499 17.2004 22.7499C20.2604 22.7499 22.7504 20.2599 22.7504 17.1999C22.7504 15.9195 22.3144 14.7389 21.5832 13.7988C22.3585 12.1828 22.75 10.4698 22.75 8.69012C22.75 5.19012 19.92 2.3501 16.44 2.3501C14.78 2.3501 13.17 3.02012 12 4.19012C10.83 3.02012 9.23 2.3501 7.56 2.3501C4.08 2.3501 1.25 5.19012 1.25 8.69012C1.25 16.4101 8.57001 20.6501 11.13 21.5201ZM19.6142 13.9516C19.8002 14.0913 19.9761 14.2477 20.14 14.4201C20.1468 14.4273 20.1536 14.4343 20.1606 14.4411C20.8361 15.1653 21.2504 16.1359 21.2504 17.1999C21.2504 19.4299 19.4304 21.2499 17.2004 21.2499C16.0181 21.2499 14.9511 20.7383 14.2094 19.9253C14.2 19.9133 14.1902 19.9016 14.18 19.8901C14.0052 19.6945 13.8509 19.4846 13.7182 19.2636C13.3577 18.6585 13.1504 17.9526 13.1504 17.1999C13.1504 14.9699 14.9704 13.1499 17.2004 13.1499C18.1034 13.1499 18.9392 13.4484 19.6142 13.9516ZM18.4228 11.7856C19.1488 11.949 19.8321 12.2568 20.44 12.6901C20.98 11.4101 21.25 10.0701 21.25 8.69012C21.25 6.02012 19.09 3.8501 16.44 3.8501C14.94 3.8501 13.5 4.57015 12.6 5.78015C12.32 6.16015 11.68 6.16015 11.4 5.78015C10.5 4.57015 9.06 3.8501 7.56 3.8501C4.91 3.8501 2.75 6.02012 2.75 8.69012C2.75 15.5301 9.31999 19.3101 11.62 20.1001C11.8 20.1701 12.19 20.1601 12.37 20.1001L12.4532 20.0724C11.9951 19.3182 11.7116 18.4468 11.6592 17.5147C11.6531 17.4103 11.65 17.3054 11.65 17.2001C11.65 15.2876 12.6227 13.5978 14.0992 12.5994C14.1269 12.5806 14.1548 12.5622 14.1828 12.5439C15.052 11.9786 16.0886 11.6499 17.2004 11.6499C17.6202 11.6499 18.0294 11.6968 18.4228 11.7856ZM15.4004 18.01H16.4492V19.1C16.4492 19.51 16.7892 19.85 17.1992 19.85C17.6092 19.85 17.9492 19.51 17.9492 19.1V18.01H18.9904C19.4104 18.01 19.7404 17.67 19.7404 17.26C19.7404 16.85 19.4004 16.51 18.9904 16.51H17.9492V15.51C17.9492 15.1 17.6092 14.76 17.1992 14.76C16.7892 14.76 16.4492 15.1 16.4492 15.51V16.51H15.4004C14.9904 16.51 14.6504 16.85 14.6504 17.26C14.6504 17.67 14.9904 18.01 15.4004 18.01Z" fill="#292D32"/>
</svg>
