<svg viewBox="0 0 24 24" fill="none" xmlns="http://www.w3.org/2000/svg">
<path fill-rule="evenodd" clip-rule="evenodd" d="M1.46945 22.53C1.61945 22.68 1.80948 22.75 1.99948 22.75C2.18948 22.75 2.37951 22.68 2.52951 22.53L22.5295 2.53C22.8195 2.24 22.8195 1.75994 22.5295 1.46994C22.2395 1.17994 21.7595 1.17994 21.4695 1.46994L19.6875 3.25193C18.7039 2.66587 17.5886 2.3501 16.44 2.3501C14.75 2.3501 13.17 3.01012 12 4.19012C10.83 3.01012 9.25 2.3501 7.56 2.3501C4.08 2.3501 1.25 5.19012 1.25 8.69012C1.25 12.7971 3.34331 15.8089 5.23888 17.7005L1.46945 21.4699C1.17945 21.7599 1.17945 22.24 1.46945 22.53ZM6.30914 16.6303L18.5891 4.35027C17.9291 4.0165 17.1987 3.84015 16.45 3.84015C14.93 3.84015 13.52 4.55015 12.61 5.78015C12.33 6.16015 11.69 6.16015 11.41 5.78015C10.49 4.55015 9.09001 3.84015 7.57001 3.84015C4.92001 3.84015 2.76001 6.01011 2.76001 8.68011C2.76001 12.2832 4.61771 14.9443 6.30914 16.6303ZM11.9994 21.6501C11.6894 21.6501 11.3894 21.6101 11.1394 21.5201C10.3894 21.2601 9.49942 20.8401 8.63942 20.3301C8.27942 20.1201 8.16941 19.66 8.37941 19.3C8.58941 18.95 9.04938 18.83 9.40938 19.04C10.1894 19.5 10.9794 19.88 11.6294 20.1C11.8094 20.16 12.1994 20.16 12.3794 20.1C14.6794 19.31 21.2594 15.52 21.2594 8.68005C21.2594 8.18005 21.1794 7.69002 21.0394 7.22002C20.9194 6.82002 21.1294 6.40008 21.5294 6.28008C21.9294 6.16008 22.3494 6.38007 22.4694 6.77007C22.6594 7.39007 22.7594 8.03005 22.7594 8.68005C22.7594 15.56 16.6894 20.2001 12.8694 21.5101C12.6094 21.6101 12.3094 21.6501 11.9994 21.6501Z" fill="#292D32"/>
</svg>
