<svg viewBox="0 0 24 24" fill="none" xmlns="http://www.w3.org/2000/svg">
<path fill-rule="evenodd" clip-rule="evenodd" d="M11.13 21.5201C11.38 21.6101 11.69 21.6501 12 21.6501C12.31 21.6501 12.61 21.6101 12.84 21.5101C13.0314 21.4463 13.2328 21.3691 13.4463 21.2804C14.4705 22.2228 15.8079 22.7499 17.2004 22.7499C20.2604 22.7499 22.7504 20.2599 22.7504 17.1899C22.7504 15.9706 22.3506 14.8002 21.5807 13.804C22.3577 12.1865 22.75 10.4717 22.75 8.69012C22.75 5.19012 19.92 2.3501 16.44 2.3501C14.78 2.3501 13.17 3.02012 12 4.19012C10.83 3.02012 9.23 2.3501 7.56 2.3501C4.08 2.3501 1.25 5.19012 1.25 8.69012C1.25 16.4101 8.57001 20.6501 11.13 21.5201ZM20.1078 12.4704C20.2208 12.5396 20.3316 12.6128 20.44 12.6901C20.98 11.4101 21.25 10.0701 21.25 8.69012C21.25 6.02012 19.09 3.8501 16.44 3.8501C14.94 3.8501 13.5 4.57015 12.6 5.78015C12.32 6.16015 11.68 6.16015 11.4 5.78015C10.5 4.57015 9.06 3.8501 7.56 3.8501C4.91 3.8501 2.75 6.02012 2.75 8.69012C2.75 15.5301 9.31999 19.3101 11.62 20.1001C11.8 20.1701 12.19 20.1601 12.37 20.1001L12.4561 20.0714C11.9977 19.3176 11.7264 18.4695 11.6642 17.5908C11.6548 17.4612 11.65 17.3309 11.65 17.2001C11.65 15.2876 12.6227 13.5978 14.0992 12.5994C14.1269 12.5806 14.1548 12.5622 14.1828 12.5439C15.052 11.9786 16.0886 11.6499 17.2004 11.6499C18.2464 11.6499 19.2416 11.9359 20.1078 12.4704ZM13.1504 17.1999C13.1504 14.9699 14.9704 13.1499 17.2004 13.1499C18.2904 13.1499 19.3104 13.5799 20.0804 14.3599C20.0904 14.3699 20.1004 14.3824 20.1104 14.3949C20.1204 14.4074 20.1304 14.4199 20.1404 14.4299C20.8604 15.1899 21.2504 16.1699 21.2504 17.1999C21.2504 19.4299 19.4304 21.2499 17.2004 21.2499C16.0604 21.2499 14.9604 20.7599 14.1904 19.8999C13.5204 19.1499 13.1504 18.1899 13.1504 17.1999ZM17.9489 19.07C18.0989 19.22 18.2889 19.2899 18.4789 19.2899C18.6689 19.2899 18.8689 19.21 19.0089 19.07C19.2989 18.78 19.2989 18.3 19.0089 18.01L18.2741 17.2752L18.9894 16.56C19.2794 16.27 19.2794 15.79 18.9894 15.5C18.6994 15.21 18.2194 15.21 17.9294 15.5L17.2141 16.2152L16.4689 15.4699C16.1789 15.1799 15.6989 15.1799 15.4089 15.4699C15.1189 15.7599 15.1189 16.24 15.4089 16.53L16.1541 17.2752L15.3894 18.0399C15.0994 18.3299 15.0994 18.8099 15.3894 19.0999C15.5394 19.2499 15.7293 19.32 15.9193 19.32C16.1093 19.32 16.2994 19.2399 16.4494 19.0999L17.2141 18.3352L17.9489 19.07Z" fill="#292D32"/>
</svg>
