<svg viewBox="0 0 24 24" fill="none" xmlns="http://www.w3.org/2000/svg">
<path fill-rule="evenodd" clip-rule="evenodd" d="M1.25 17.78C1.25 20.52 3.47 22.75 6.21 22.75H17.79C20.53 22.75 22.75 20.52 22.75 17.79V10.51C22.75 9.05997 21.82 7.27997 20.63 6.44997L14.45 2.11997C12.77 0.939974 10.18 0.999974 8.56 2.25997L3.17 6.45997C2.09 7.29997 1.25 9.00997 1.25 10.37V17.78ZM4.09 7.63997L9.48 3.43997C10.57 2.58997 12.45 2.54997 13.59 3.34997L19.77 7.67997C20.56 8.21997 21.25 9.54997 21.25 10.51V17.79C21.25 19.7 19.7 21.25 17.79 21.25H6.21C4.3 21.25 2.75 19.69 2.75 17.78V10.37C2.75 9.46997 3.38 8.19997 4.09 7.63997ZM11.25 18C11.25 18.41 11.59 18.75 12 18.75C12.41 18.75 12.75 18.41 12.75 18V15C12.75 14.59 12.41 14.25 12 14.25C11.59 14.25 11.25 14.59 11.25 15V18Z" fill="#292D32"/>
</svg>
