<svg viewBox="0 0 24 24" fill="none" xmlns="http://www.w3.org/2000/svg">
<path fill-rule="evenodd" clip-rule="evenodd" d="M6.40094 22.5601H17.6009C19.3809 22.5601 21.0809 21.1301 21.3809 19.3601L22.7109 11.4001C22.9109 10.1601 22.3109 8.57007 21.3309 7.78007L14.4009 2.24007C13.0509 1.16007 10.9409 1.15007 9.60094 2.23007L2.67094 7.78007C1.68094 8.57007 1.07094 10.1601 1.29094 11.4001L2.62094 19.3701C2.92094 21.1601 4.58094 22.5601 6.40094 22.5601ZM10.5409 3.40007C10.9309 3.09007 11.4609 2.93007 11.9909 2.93007C12.5209 2.93007 13.0609 3.09007 13.4609 3.41007L20.3909 8.95007C20.9409 9.39007 21.3409 10.4501 21.2309 11.1501L19.9009 19.1101C19.7209 20.1701 18.6709 21.0601 17.6009 21.0601H6.40094C5.33094 21.0601 4.28094 20.1701 4.10094 19.1201L2.77094 11.1601C2.65094 10.4501 3.05094 9.41007 3.61094 8.96007L10.5409 3.40007ZM11.25 18C11.25 18.41 11.59 18.75 12 18.75C12.41 18.75 12.75 18.41 12.75 18V15C12.75 14.59 12.41 14.25 12 14.25C11.59 14.25 11.25 14.59 11.25 15V18Z" fill="#292D32"/>
</svg>
