<svg viewBox="0 0 24 24" fill="none" xmlns="http://www.w3.org/2000/svg">
<path fill-rule="evenodd" clip-rule="evenodd" d="M6.39985 22.5601H17.5999C19.3899 22.5601 21.0799 21.1301 21.3799 19.3601L22.7099 11.4001C22.9099 10.1601 22.3099 8.57011 21.3299 7.78011L14.3998 2.24007C13.0498 1.16007 10.9399 1.15006 9.59986 2.23006L2.66985 7.78011C1.67985 8.57011 1.07984 10.1601 1.28984 11.4001L2.61985 19.3601C2.91985 21.1601 4.57984 22.5601 6.39985 22.5601ZM10.5398 3.41005C10.9298 3.10005 11.4599 2.94008 11.9899 2.94008C12.5299 2.94008 13.0599 3.10005 13.4599 3.41005L20.3899 8.95009C20.9499 9.40009 21.3498 10.4301 21.2298 11.1501L19.8998 19.1101C19.7198 20.1701 18.6699 21.0601 17.5999 21.0601H6.39985C5.32984 21.0601 4.27986 20.1701 4.09986 19.1201L2.76986 11.1601C2.64986 10.4401 3.03985 9.4201 3.60985 8.9601L10.5398 3.41005ZM8.75 13C8.75 14.79 10.21 16.25 12 16.25C13.79 16.25 15.25 14.79 15.25 13C15.25 11.21 13.79 9.75 12 9.75C10.21 9.75 8.75 11.21 8.75 13ZM10.25 13C10.25 12.04 11.04 11.25 12 11.25C12.96 11.25 13.75 12.04 13.75 13C13.75 13.96 12.96 14.75 12 14.75C11.04 14.75 10.25 13.96 10.25 13Z" fill="#292D32"/>
</svg>
