<svg viewBox="0 0 24 24" fill="none" xmlns="http://www.w3.org/2000/svg">
<path fill-rule="evenodd" clip-rule="evenodd" d="M6.39983 22.5599H17.5998C19.3898 22.5599 21.0798 21.1298 21.3798 19.3598L22.7098 11.3999C22.9098 10.1599 22.3098 8.56987 21.3298 7.77987L14.3998 2.23983C13.0498 1.15983 10.9398 1.14982 9.59984 2.22982L2.66985 7.77987C1.67985 8.56987 1.07984 10.1599 1.28984 11.3999L2.61983 19.3598C2.91983 21.1598 4.57983 22.5599 6.39983 22.5599ZM10.5398 3.40987C10.9298 3.09987 11.4598 2.93978 11.9898 2.93978C12.5298 2.93978 13.0598 3.09987 13.4598 3.40987L20.3899 8.94979C20.9499 9.39979 21.3498 10.4299 21.2298 11.1499L19.8998 19.1098C19.7198 20.1698 18.6698 21.0599 17.5998 21.0599H6.39983C5.32983 21.0599 4.27984 20.1698 4.09984 19.1198L2.76982 11.1599C2.64982 10.4399 3.03982 9.4198 3.60982 8.9598L10.5398 3.40987ZM13.6005 14.92C13.7505 15.06 13.9305 15.13 14.1205 15.13C14.3205 15.13 14.5205 15.05 14.6505 14.9C14.9405 14.6 14.9305 14.1299 14.6305 13.8399C13.0705 12.3499 10.9005 12.3499 9.35054 13.8399C9.05054 14.1299 9.04052 14.6 9.33052 14.9C9.62052 15.2 10.0906 15.21 10.3906 14.92C11.3706 13.99 12.6305 13.99 13.6005 14.92ZM16.2404 13.01C16.0504 13.01 15.8604 12.9401 15.7204 12.8001C15.2504 12.3401 14.7204 11.97 14.1604 11.7C12.7604 11.03 11.2304 11.03 9.84037 11.7C9.28037 11.97 8.76037 12.3401 8.28037 12.8001C7.99037 13.0901 7.51037 13.0901 7.22037 12.7901C6.93037 12.4901 6.94038 12.02 7.23038 11.73C7.82038 11.15 8.48037 10.69 9.19037 10.35C11.0004 9.48001 13.0004 9.48001 14.8004 10.35C15.5104 10.69 16.1704 11.15 16.7604 11.73C17.0604 12.02 17.0604 12.4901 16.7704 12.7901C16.6304 12.9301 16.4404 13.01 16.2404 13.01ZM11.2905 17.21C11.4905 17.4 11.7405 17.5 12.0005 17.5C12.2605 17.5 12.5105 17.4 12.7105 17.21C13.1005 16.82 13.1005 16.1901 12.7105 15.8001C12.3205 15.4101 11.6805 15.4101 11.2905 15.8001C10.9005 16.1901 10.9005 16.82 11.2905 17.21Z" fill="#292D32"/>
</svg>
