<svg viewBox="0 0 24 24" fill="none" xmlns="http://www.w3.org/2000/svg">
<path fill-rule="evenodd" clip-rule="evenodd" d="M2.20331 21.25L2.25019 9.96971C2.25019 9.11971 2.6402 8.32974 3.3102 7.80974L10.3102 2.35973C11.3002 1.58973 12.6902 1.58973 13.6902 2.35973L14.8358 3.25H18.9801C19.3901 3.25 19.7301 3.57999 19.7301 3.98999L19.7601 6.98999C19.7594 7.01775 19.7574 7.04516 19.754 7.07214L20.6902 7.79973C21.3502 8.31973 21.7502 9.12971 21.7502 9.96971V21.25H22C22.41 21.25 22.75 21.59 22.75 22C22.75 22.41 22.41 22.75 22 22.75H14.5H9.5H2C1.59 22.75 1.25 22.41 1.25 22C1.25 21.59 1.59 21.25 2 21.25H2.20331ZM18.2402 5.89574L18.2301 4.75H16.7659L18.2402 5.89574ZM20.2502 21.25H15.25V18.5C15.25 17.26 14.24 16.25 13 16.25H11C9.76 16.25 8.75 17.26 8.75 18.5V21.25H3.70331L3.75019 9.97972C3.75019 9.59972 3.93019 9.22974 4.23019 8.99974L11.2302 3.54973C11.6902 3.19973 12.3202 3.19973 12.7702 3.54973L19.7702 8.98973C20.0702 9.22973 20.2502 9.59972 20.2502 9.97972V21.25ZM13.75 21.25H10.25V18.5C10.25 18.09 10.59 17.75 11 17.75H13C13.41 17.75 13.75 18.09 13.75 18.5V21.25ZM7.5 14.5H9.5C10.46 14.5 11.25 13.71 11.25 12.75V11.25C11.25 10.29 10.46 9.5 9.5 9.5H7.5C6.54 9.5 5.75 10.29 5.75 11.25V12.75C5.75 13.71 6.54 14.5 7.5 14.5ZM7.25 11.25C7.25 11.11 7.36 11 7.5 11H9.5C9.64 11 9.75 11.11 9.75 11.25V12.75C9.75 12.89 9.64 13 9.5 13H7.5C7.36 13 7.25 12.89 7.25 12.75V11.25ZM16.5 14.5H14.5C13.54 14.5 12.75 13.71 12.75 12.75V11.25C12.75 10.29 13.54 9.5 14.5 9.5H16.5C17.46 9.5 18.25 10.29 18.25 11.25V12.75C18.25 13.71 17.46 14.5 16.5 14.5ZM14.5 11C14.36 11 14.25 11.11 14.25 11.25V12.75C14.25 12.89 14.36 13 14.5 13H16.5C16.64 13 16.75 12.89 16.75 12.75V11.25C16.75 11.11 16.64 11 16.5 11H14.5Z" fill="#292D32"/>
</svg>
