<svg viewBox="0 0 24 24" fill="none" xmlns="http://www.w3.org/2000/svg">
<path fill-rule="evenodd" clip-rule="evenodd" d="M21 20.6081H22C22.41 20.6081 22.75 20.9381 22.75 21.3581C22.75 21.7681 22.41 22.1081 22 22.1081H2C1.59 22.1081 1.25 21.7681 1.25 21.3581C1.25 20.9381 1.59 20.6081 2 20.6081H2.95L3 9.32812C3 8.71812 3.28 8.13812 3.77 7.75812L10.77 2.31812C11.49 1.74813 12.51 1.74813 13.23 2.31812L20.23 7.75812C20.72 8.13812 21 8.71812 21 9.33812V20.6081ZM13.5 6.10812H10.5C10.09 6.10812 9.75 6.44812 9.75 6.85812C9.75 7.26812 10.09 7.60812 10.5 7.60812H13.5C13.91 7.60812 14.25 7.26812 14.25 6.85812C14.25 6.44812 13.91 6.10812 13.5 6.10812ZM7 20.6081H17V11.8581C17 11.0281 16.33 10.3581 15.5 10.3581H8.5C7.67 10.3581 7 11.0281 7 11.8581V20.6081ZM9.25 16.25C9.25 15.84 9.59 15.5 10 15.5C10.41 15.5 10.75 15.84 10.75 16.25V17.75C10.75 18.16 10.41 18.5 10 18.5C9.59 18.5 9.25 18.16 9.25 17.75V16.25Z" fill="#292D32"/>
</svg>
