<svg viewBox="0 0 24 24" fill="none" xmlns="http://www.w3.org/2000/svg">
<path fill-rule="evenodd" clip-rule="evenodd" d="M2.27461 9.9702L2.22773 21.25H2C1.59 21.25 1.25 21.59 1.25 22C1.25 22.41 1.59 22.75 2 22.75H7H17H22C22.41 22.75 22.75 22.41 22.75 22C22.75 21.59 22.41 21.25 22 21.25H21.7746V9.9702C21.7746 9.1302 21.3746 8.32022 20.7146 7.80022L13.7146 2.36021C12.7146 1.59021 11.3246 1.59021 10.3346 2.36021L3.33461 7.81023C2.66461 8.33023 2.27461 9.1202 2.27461 9.9702ZM17.75 21.25H20.2746V9.98021C20.2746 9.60021 20.0946 9.23022 19.7946 8.99022L12.7946 3.55022C12.3446 3.20022 11.7146 3.20022 11.2546 3.55022L4.25462 9.00023C3.95462 9.23023 3.77461 9.60021 3.77461 9.98021L3.72773 21.25H6.25V12.5C6.25 11.26 7.26 10.25 8.5 10.25H15.5C16.74 10.25 17.75 11.26 17.75 12.5V21.25ZM7.75 21.25H16.25V12.5C16.25 12.09 15.91 11.75 15.5 11.75H8.5C8.09 11.75 7.75 12.09 7.75 12.5V21.25ZM10 18.5C9.59 18.5 9.25 18.16 9.25 17.75V16.25C9.25 15.84 9.59 15.5 10 15.5C10.41 15.5 10.75 15.84 10.75 16.25V17.75C10.75 18.16 10.41 18.5 10 18.5ZM10.5 8.25H13.5C13.91 8.25 14.25 7.91 14.25 7.5C14.25 7.09 13.91 6.75 13.5 6.75H10.5C10.09 6.75 9.75 7.09 9.75 7.5C9.75 7.91 10.09 8.25 10.5 8.25Z" fill="#292D32"/>
</svg>
