<svg viewBox="0 0 24 24" fill="none" xmlns="http://www.w3.org/2000/svg">
<path fill-rule="evenodd" clip-rule="evenodd" d="M3.2207 5C3.2207 7.07 4.9107 8.75 6.9707 8.75C9.0407 8.75 10.7207 7.07 10.7207 5C10.7207 2.93 9.0407 1.25 6.9707 1.25C4.9007 1.25 3.2207 2.93 3.2207 5ZM4.7207 5C4.7207 3.76 5.7307 2.75 6.9707 2.75C8.2107 2.75 9.2207 3.76 9.2207 5C9.2207 6.24 8.2107 7.25 6.9707 7.25C5.7307 7.25 4.7207 6.24 4.7207 5ZM5.59084 22.7499H18.3608C19.8308 22.7499 21.1908 22.0199 21.9908 20.7699C22.8008 19.5399 22.9408 17.9999 22.3608 16.6499L19.2308 9.33993C18.5908 7.85993 17.6308 7.01993 16.5108 6.95993C15.3808 6.90993 14.3408 7.63993 13.5608 9.04993L11.6708 12.4599C11.3308 13.0699 10.8708 13.4299 10.3708 13.4699C9.87084 13.5199 9.36084 13.2299 8.92084 12.6899L8.70084 12.4099C7.92084 11.4399 6.89084 10.9399 5.88084 11.0499C4.87084 11.1599 3.97084 11.8599 3.41084 12.9799L1.69084 16.4299C1.01084 17.7999 1.08084 19.3799 1.88084 20.6799C2.68084 21.9799 4.07084 22.7499 5.59084 22.7499ZM6.04084 12.5599C6.08084 12.5499 6.12084 12.5499 6.16084 12.5499C6.63084 12.5499 7.11084 12.8299 7.53084 13.3799L7.75084 13.6599C8.50084 14.5999 9.51084 15.0799 10.5008 14.9999C11.4908 14.9099 12.4008 14.2599 12.9808 13.2199L14.8708 9.80993C15.3508 8.95993 15.9608 8.45993 16.4308 8.48993C16.9408 8.50993 17.4708 9.05993 17.8508 9.95993L20.9808 17.2699C21.3708 18.1699 21.2808 19.1499 20.7408 19.9699C20.2008 20.7899 19.3308 21.2599 18.3508 21.2599H5.59084C4.59084 21.2599 3.67084 20.7499 3.15084 19.8999C2.63084 19.0499 2.58084 17.9999 3.03084 17.1099L4.75084 13.6599C5.08084 13.0099 5.54084 12.6099 6.04084 12.5599Z" fill="#292D32"/>
</svg>
