<svg viewBox="0 0 24 24" fill="none" xmlns="http://www.w3.org/2000/svg">
<path fill-rule="evenodd" clip-rule="evenodd" d="M10.3498 5.00109C10.3498 6.86782 8.83657 8.38109 6.96984 8.38109C5.10312 8.38109 3.58984 6.86782 3.58984 5.00109C3.58984 3.13437 5.10312 1.62109 6.96984 1.62109C8.83657 1.62109 10.3498 3.13437 10.3498 5.00109ZM18.8887 9.50027L22.0187 16.8203C22.5487 18.0503 22.4287 19.4603 21.6687 20.5803C20.9287 21.7003 19.6787 22.3703 18.3387 22.3703H5.57867C4.18867 22.3703 2.91867 21.6603 2.18867 20.4803C1.45867 19.3003 1.39867 17.8503 2.01867 16.6003L3.74867 13.1503C4.25867 12.1403 5.02867 11.5203 5.92867 11.4303C6.82867 11.3403 7.70867 11.7703 8.41867 12.6603L8.63867 12.9403C9.14867 13.5903 9.77867 13.9203 10.4087 13.8603C11.0287 13.8103 11.5987 13.3803 11.9987 12.6603L13.8987 9.25027C14.6087 7.97027 15.5387 7.30026 16.4987 7.35027C17.4687 7.40027 18.3187 8.16026 18.8887 9.50027Z" fill="#292D32"/>
</svg>
