<svg viewBox="0 0 24 24" fill="none" xmlns="http://www.w3.org/2000/svg">
<path fill-rule="evenodd" clip-rule="evenodd" d="M11.9297 3.23828C12.3397 3.23828 12.6797 3.57828 12.6797 3.98828V9.88828H11.18V13.5467L9.62 11.9867C9.33 11.6967 8.85 11.6967 8.56 11.9867C8.41 12.1367 8.33 12.3267 8.33 12.5167C8.33 12.7067 8.4 12.8967 8.55 13.0467L11.4 15.8867C11.69 16.1767 12.17 16.1767 12.46 15.8867L15.31 13.0467C15.6 12.7567 15.6 12.2767 15.31 11.9867C15.02 11.6967 14.54 11.6967 14.25 11.9867L12.68 13.5567V9.88672H21.14C21.62 9.88672 22 10.2667 22 10.7467C22 16.6367 17.89 20.7467 12 20.7467C6.11 20.7467 2 16.6367 2 10.7467C2 10.2667 2.38 9.88672 2.86 9.88672H11.1797V3.98828C11.1797 3.57828 11.5197 3.23828 11.9297 3.23828Z" fill="#292D32"/>
</svg>
