<svg viewBox="0 0 24 24" fill="none" xmlns="http://www.w3.org/2000/svg">
<path fill-rule="evenodd" clip-rule="evenodd" d="M9 22.75H15C20.43 22.75 22.75 20.43 22.75 15V13C22.75 12.59 22.41 12.25 22 12.25C21.59 12.25 21.25 12.59 21.25 13V15C21.25 19.61 19.61 21.25 15 21.25H9C4.39 21.25 2.75 19.61 2.75 15V9C2.75 4.39 4.39 2.75 9 2.75H11C11.41 2.75 11.75 2.41 11.75 2C11.75 1.59 11.41 1.25 11 1.25H9C3.57 1.25 1.25 3.57 1.25 9V15C1.25 20.43 3.57 22.75 9 22.75ZM17.83 10.2499H14.8103L22.5302 2.52994C22.8202 2.23994 22.8202 1.75994 22.5302 1.46994C22.2402 1.17994 21.7602 1.17994 21.4702 1.46994L13.75 9.19018V6.16992C13.75 5.75992 13.41 5.41992 13 5.41992C12.59 5.41992 12.25 5.75992 12.25 6.16992V10.9999C12.25 11.4099 12.59 11.7499 13 11.7499H17.83C18.24 11.7499 18.58 11.4099 18.58 10.9999C18.58 10.5899 18.24 10.2499 17.83 10.2499Z" fill="#292D32"/>
</svg>
