<svg viewBox="0 0 24 24" fill="none" xmlns="http://www.w3.org/2000/svg">
<path fill-rule="evenodd" clip-rule="evenodd" d="M11.1309 4V12.4312L9.84977 11.1501C9.55977 10.8601 9.07977 10.8601 8.78977 11.1501C8.49977 11.4401 8.49977 11.9201 8.78977 12.2101L11.3498 14.7701C11.4998 14.9201 11.6898 14.9901 11.8798 14.9901C12.0698 14.9901 12.2598 14.9201 12.4098 14.7701L14.9698 12.2101C15.2598 11.9201 15.2598 11.4401 14.9698 11.1501C14.6798 10.8601 14.1998 10.8601 13.9098 11.1501L12.6309 12.429V4C12.6309 3.59 12.2909 3.25 11.8809 3.25C11.4709 3.25 11.1309 3.59 11.1309 4ZM3.25 12.1799C3.25 17.3299 6.85 20.9299 12 20.9299C17.15 20.9299 20.75 17.3299 20.75 12.1799C20.75 11.7699 20.41 11.4299 20 11.4299C19.59 11.4299 19.25 11.7699 19.25 12.1799C19.25 16.4499 16.27 19.4299 12 19.4299C7.73 19.4299 4.75 16.4499 4.75 12.1799C4.75 11.7699 4.41 11.4299 4 11.4299C3.59 11.4299 3.25 11.7699 3.25 12.1799Z" fill="#292D32"/>
</svg>
