<svg viewBox="0 0 24 24" fill="none" xmlns="http://www.w3.org/2000/svg">
<path fill-rule="evenodd" clip-rule="evenodd" d="M12 2C12.41 2 12.75 2.34 12.75 2.75V9H11.2539V13.44L9.18391 11.37C8.89391 11.08 8.41391 11.08 8.12391 11.37C7.83391 11.66 7.83391 12.14 8.12391 12.43L11.4739 15.78C11.7639 16.07 12.2439 16.07 12.5339 15.78L15.8839 12.43C16.1739 12.14 16.1739 11.66 15.8839 11.37C15.7339 11.22 15.5439 11.15 15.3539 11.15C15.1639 11.15 14.9739 11.22 14.8239 11.37L12.7539 13.44V9H16.8039C20.0039 9 22.0039 11 21.9939 14.2V16.8C21.9939 20 19.9939 22 16.7939 22H7.20391C4.00391 22 2.00391 20 2.00391 16.79V14.2C2.00391 11 4.00391 9 7.20391 9H11.25V2.75C11.25 2.34 11.59 2 12 2Z" fill="#292D32"/>
</svg>
