<svg viewBox="0 0 24 24" fill="none" xmlns="http://www.w3.org/2000/svg">
<path fill-rule="evenodd" clip-rule="evenodd" d="M9 22.75C3.57 22.75 1.25 20.43 1.25 15V9C1.25 3.57 3.57 1.25 9 1.25H15C20.43 1.25 22.75 3.57 22.75 9V15C22.75 20.43 20.43 22.75 15 22.75H9ZM9 2.75C4.39 2.75 2.75 4.39 2.75 9V15C2.75 19.61 4.39 21.25 9 21.25H15C19.61 21.25 21.25 19.61 21.25 15V9C21.25 4.39 19.61 2.75 15 2.75H9ZM12 16.25C9.66 16.25 7.75 14.34 7.75 12C7.75 9.66 9.66 7.75 12 7.75C14.34 7.75 16.25 9.66 16.25 12C16.25 14.34 14.34 16.25 12 16.25ZM12 9.25C10.48 9.25 9.25 10.48 9.25 12C9.25 13.52 10.48 14.75 12 14.75C13.52 14.75 14.75 13.52 14.75 12C14.75 10.48 13.52 9.25 12 9.25ZM16.62 7.4199C16.74 7.4699 16.87 7.4999 17 7.4999C17.13 7.4999 17.26 7.4699 17.38 7.4199C17.5 7.3699 17.61 7.2999 17.71 7.2099C17.8 7.1099 17.87 6.9999 17.92 6.8799C17.97 6.7599 18 6.6299 18 6.4999C18 6.3699 17.97 6.2399 17.92 6.1199C17.87 5.9899 17.8 5.8899 17.71 5.7899C17.47 5.5599 17.13 5.4499 16.81 5.5199C16.74 5.5299 16.68 5.5499 16.62 5.5799C16.56 5.5999 16.5 5.6299 16.44 5.6699C16.4067 5.6899 16.3733 5.71879 16.34 5.74768C16.3233 5.76213 16.3067 5.77657 16.29 5.7899C16.2 5.8899 16.13 5.9899 16.07 6.1199C16.02 6.2399 16 6.3699 16 6.4999C16 6.6299 16.02 6.7599 16.07 6.8799C16.12 6.9999 16.2 7.1099 16.29 7.2099C16.39 7.2999 16.5 7.3699 16.62 7.4199Z" fill="#292D32"/>
</svg>
