<svg viewBox="0 0 24 24" fill="none" xmlns="http://www.w3.org/2000/svg">
<path fill-rule="evenodd" clip-rule="evenodd" d="M9 22.75H15C20.43 22.75 22.75 20.43 22.75 15V9C22.75 3.57 20.43 1.25 15 1.25H9C3.57 1.25 1.25 3.57 1.25 9V15C1.25 20.43 3.57 22.75 9 22.75ZM2.75 9C2.75 4.39 4.39 2.75 9 2.75H15C19.61 2.75 21.25 4.39 21.25 9V15C21.25 19.61 19.61 21.25 15 21.25H9C4.39 21.25 2.75 19.61 2.75 15V9ZM8.58974 18.2301C8.65974 18.2501 8.73974 18.2501 8.80974 18.2501C9.25974 18.2501 9.74974 18.0501 10.0397 17.7401L10.9043 16.8793C10.9306 16.8585 10.9557 16.8354 10.9793 16.8101C10.997 16.7924 11.0136 16.774 11.0291 16.755L12.3297 15.4601C13.9397 15.8001 15.6197 15.3101 16.8097 14.1301C17.7397 13.2101 18.2497 11.9701 18.2497 10.6601C18.2497 9.35007 17.7397 8.12007 16.8097 7.19007C14.8997 5.28007 11.7797 5.28007 9.86974 7.19007C8.67974 8.37007 8.18974 10.0501 8.52974 11.6701L6.24974 13.9501C5.89974 14.3101 5.69974 14.9201 5.76974 15.4001L5.93974 16.6101C6.04974 17.3501 6.67974 17.9701 7.39974 18.0701L8.58974 18.2301ZM8.97974 16.6801L9.3845 16.2753L9.0593 15.9501C8.7693 15.6601 8.7693 15.1801 9.0593 14.8901C9.3493 14.6001 9.8293 14.6001 10.1193 14.8901L10.4445 15.2153L11.5697 14.0901C11.7697 13.8901 12.0597 13.8301 12.3197 13.9101C13.5297 14.2901 14.8397 13.9701 15.7397 13.0701C16.3797 12.4301 16.7397 11.5701 16.7397 10.6601C16.7397 9.75007 16.3897 8.89007 15.7397 8.25007C15.0897 7.59007 14.2097 7.25007 13.3397 7.25007C12.4697 7.25007 11.5897 7.58007 10.9297 8.25007C10.0297 9.15007 9.70974 10.4601 10.0797 11.6801C10.1597 11.9501 10.0897 12.2301 9.88974 12.4301L7.30974 15.0101C7.28974 15.0401 7.24974 15.1501 7.24974 15.1901L7.41974 16.3901C7.42974 16.4501 7.53974 16.5601 7.59974 16.5701L8.79974 16.7401C8.84974 16.7301 8.94974 16.7101 8.97974 16.6801ZM12.9891 11.7301C13.1091 11.7801 13.2391 11.8001 13.3791 11.8001C13.6391 11.8001 13.8891 11.7001 14.0791 11.5101C14.1791 11.4201 14.2491 11.3101 14.2991 11.1901C14.3491 11.0601 14.3791 10.9401 14.3791 10.8001C14.3791 10.5401 14.2691 10.2801 14.0791 10.1001C14.0484 10.0617 14.0059 10.0292 13.9652 9.99809C13.9529 9.98868 13.9407 9.9794 13.9291 9.97012C13.8791 9.94012 13.8192 9.91012 13.7592 9.88013L13.7591 9.88012C13.7206 9.86085 13.678 9.84983 13.6365 9.83912C13.6134 9.83315 13.5906 9.82727 13.5691 9.82012C13.2491 9.75012 12.8991 9.86012 12.6691 10.1001C12.4791 10.2801 12.3691 10.5401 12.3691 10.8001C12.3691 11.0701 12.4791 11.3201 12.6691 11.5101C12.7591 11.6001 12.8691 11.6801 12.9891 11.7301Z" fill="#292D32"/>
</svg>
