<svg viewBox="0 0 24 24" fill="none" xmlns="http://www.w3.org/2000/svg">
<path fill-rule="evenodd" clip-rule="evenodd" d="M7.81 2H16.19C19.83 2 22 4.17 21.99 7.81V16.19C21.99 19.83 19.82 22 16.18 22H7.81C4.17 22 2 19.83 2 16.18V7.81C2 4.17 4.17 2 7.81 2ZM12.09 14.4C13.39 14.81 14.86 14.49 15.89 13.47C17.37 11.99 17.37 9.59 15.89 8.12C14.41 6.65 12.01 6.65 10.54 8.12C9.51 9.15 9.2 10.62 9.6 11.92L7.25 14.27C7.09 14.44 6.97 14.77 7.01 15.01L7.16 16.1C7.22 16.46 7.55 16.8 7.91 16.85L9 17C9.24 17.03 9.57 16.92 9.74 16.74L10.15 16.33C10.25 16.24 10.25 16.08 10.15 15.98L9.18 15.01C9.04 14.86 9.03 14.62 9.18 14.48C9.33 14.34 9.57 14.34 9.71 14.48L10.68 15.45C10.78 15.54 10.94 15.54 11.03 15.45L12.09 14.4ZM14.5 10.75C14.5 11.4404 13.9404 12 13.25 12C12.5596 12 12 11.4404 12 10.75C12 10.0596 12.5596 9.5 13.25 9.5C13.9404 9.5 14.5 10.0596 14.5 10.75Z" fill="#292D32"/>
</svg>
