<svg viewBox="0 0 24 24" fill="none" xmlns="http://www.w3.org/2000/svg">
<path fill-rule="evenodd" clip-rule="evenodd" d="M9.26012 19.7498H14.7701C15.3501 19.7498 15.7901 19.5898 16.1001 19.2898C16.5101 18.8698 16.5001 18.3398 16.4901 18.0498V17.2998C19.8301 15.0498 21.9201 10.3198 19.7501 5.9498C18.6301 3.6998 16.4701 2.0298 13.9701 1.4798C11.3401 0.899803 8.65012 1.5198 6.60012 3.1698C4.55012 4.8198 3.37012 7.2798 3.37012 9.9098C3.37012 12.6898 5.03012 15.6098 7.55012 17.2898V18.1798C7.54012 18.4898 7.53012 18.9498 7.89012 19.3198C8.26012 19.6998 8.82012 19.7498 9.26012 19.7498ZM9.11512 18.2437C9.08647 18.2416 9.06147 18.2398 9.04012 18.2398C9.04012 18.2348 9.04012 18.2323 9.03887 18.2311C9.03762 18.2298 9.03512 18.2298 9.03012 18.2298V16.8798C9.03012 16.6198 8.90012 16.3798 8.67012 16.2398C6.77012 15.0898 4.85012 12.6898 4.85012 9.9098C4.85012 7.7298 5.82012 5.6998 7.52012 4.3298C9.22012 2.9598 11.4501 2.4498 13.6301 2.9298C15.6901 3.3798 17.4701 4.7498 18.3901 6.5998C20.2601 10.3498 18.3001 14.4398 15.3401 16.2298C15.1201 16.3598 14.9801 16.6098 14.9801 16.8698V18.1298V18.2298C14.9401 18.2398 14.8701 18.2498 14.7701 18.2498H9.25012C9.19855 18.2498 9.15355 18.2465 9.11512 18.2437ZM15.2903 22.7199C15.3603 22.7399 15.4303 22.7499 15.5003 22.7499C15.8303 22.7499 16.1303 22.5399 16.2203 22.1999C16.3303 21.7999 16.1003 21.3799 15.7003 21.2699C13.2803 20.5799 10.7103 20.5799 8.29025 21.2699C7.89025 21.3899 7.65025 21.7999 7.77025 22.1999C7.89025 22.5999 8.30025 22.8299 8.70025 22.7199C10.8603 22.0999 13.1303 22.0999 15.2903 22.7199Z" fill="#292D32"/>
</svg>
