<svg viewBox="0 0 24 24" fill="none" xmlns="http://www.w3.org/2000/svg">
<path fill-rule="evenodd" clip-rule="evenodd" d="M3.65012 18.8599C3.80012 19.0099 3.99012 19.0799 4.18012 19.0799C4.37012 19.0799 4.56012 19.0099 4.71012 18.8599L6.95252 16.6175C7.21492 16.855 7.48728 17.0726 7.76961 17.2702V18.1802C7.75961 18.4902 7.74961 18.9602 8.10961 19.3302C8.47961 19.7102 9.02961 19.7502 9.41961 19.7502H14.6096C15.1596 19.7502 15.5796 19.6002 15.8896 19.3002C16.2996 18.8802 16.2896 18.3502 16.2796 18.0402V17.2702C19.0596 15.2902 21.0996 11.2602 19.7896 7.08019C19.6696 6.6902 19.2396 6.4602 18.8496 6.5902C18.4596 6.7102 18.2396 7.1302 18.3596 7.5302C19.4996 11.1602 17.5996 14.6602 15.1296 16.2402C14.9096 16.3802 14.7796 16.6102 14.7796 16.8702V18.1302V18.2402C14.7396 18.2502 14.6896 18.2502 14.6196 18.2502H9.42961H9.26961V18.2202V16.8802C9.26961 16.6302 9.12961 16.3902 8.91961 16.2502C8.60785 16.0472 8.3066 15.8126 8.01586 15.5542L20.5601 3.00992C20.8501 2.71992 20.8501 2.23992 20.5601 1.94992C20.2701 1.65992 19.7901 1.65992 19.5001 1.94992L17.3219 4.1281C16.2226 3.0168 14.8551 2.25792 13.3626 1.92731C10.9626 1.39731 8.58262 1.95731 6.66262 3.49731C4.61262 5.15731 3.43262 7.66731 3.43262 10.3873C3.43262 11.5273 3.68262 12.6673 4.17262 13.7873C4.30262 14.0673 4.57262 14.2373 4.86262 14.2373C4.96262 14.2373 5.06262 14.2173 5.16262 14.1773C5.54262 14.0073 5.72262 13.5673 5.55262 13.1873C5.15262 12.2573 4.94262 11.3173 4.94262 10.3873C4.94262 8.11731 5.91262 6.03731 7.61262 4.66731C9.16262 3.41731 11.0926 2.96731 13.0426 3.38731C14.2539 3.65229 15.3578 4.27548 16.2609 5.18911L3.65012 17.7999C3.36012 18.0899 3.36012 18.5699 3.65012 18.8599ZM15.2903 22.7199C15.3603 22.7399 15.4303 22.7499 15.5003 22.7499C15.8303 22.7499 16.1303 22.5399 16.2203 22.1999C16.3303 21.7999 16.1003 21.3799 15.7003 21.2699C13.2803 20.5799 10.7103 20.5799 8.29025 21.2699C7.89025 21.3899 7.65025 21.7999 7.77025 22.1999C7.89025 22.5999 8.30025 22.8299 8.70025 22.7199C10.8603 22.0999 13.1303 22.0999 15.2903 22.7199Z" fill="#292D32"/>
</svg>
