<svg viewBox="0 0 24 24" fill="none" xmlns="http://www.w3.org/2000/svg">
<path fill-rule="evenodd" clip-rule="evenodd" d="M12.75 5.49003V2.53003C12.75 2.12003 12.41 1.78003 12 1.78003C11.59 1.78003 11.25 2.12003 11.25 2.53003V5.49003C11.48 5.47003 11.71 5.46003 11.94 5.46003H12.06C12.29 5.46003 12.52 5.47003 12.75 5.49003ZM11.9997 22.2201C13.7597 22.2201 15.1997 20.8501 15.3197 19.1101H8.67969C8.78969 20.8501 10.2397 22.2201 11.9997 22.2201Z" fill="#292D32"/>
<path opacity="0.4" d="M20.7807 14.18V17.12C20.7807 18.22 19.8807 19.12 18.7807 19.12H5.2207C4.1207 19.12 3.2207 18.22 3.2207 17.12V14.18C3.2207 9.35998 7.1207 5.45998 11.9407 5.45998H12.0607C16.8807 5.44998 20.7807 9.35998 20.7807 14.18Z" fill="#292D32"/>
</svg>
