<svg viewBox="0 0 24 24" fill="none" xmlns="http://www.w3.org/2000/svg">
<path fill-rule="evenodd" clip-rule="evenodd" d="M13.8307 2.20148C16.1607 2.71148 18.1707 4.26148 19.2107 6.36148C21.2307 10.4215 19.2807 14.8315 16.1807 16.9215V17.6215C16.1907 17.8915 16.2007 18.3915 15.8207 18.7815C15.5407 19.0615 15.1307 19.2115 14.5907 19.2115H9.4607C9.0507 19.2115 8.5307 19.1715 8.1807 18.8115C7.8407 18.4615 7.8507 18.0315 7.8607 17.7515V16.9215C5.5207 15.3515 3.9707 12.6415 3.9707 10.0515C3.9707 7.60148 5.0607 5.31148 6.9807 3.78148C8.8907 2.24148 11.3907 1.66148 13.8307 2.20148ZM15.0692 21.9684C15.1292 21.9884 15.1992 21.9984 15.2592 21.9984C15.5592 21.9984 15.8392 21.7984 15.9392 21.4884C16.0492 21.1184 15.8292 20.7384 15.4592 20.6284C13.1992 19.9884 10.8192 19.9884 8.55918 20.6284C8.18918 20.7284 7.96918 21.1184 8.07918 21.4884C8.17918 21.8584 8.56918 22.0684 8.93918 21.9684C10.9492 21.3984 13.0592 21.3984 15.0692 21.9684Z" fill="#292D32"/>
</svg>
