<svg viewBox="0 0 24 24" fill="none" xmlns="http://www.w3.org/2000/svg">
<path fill-rule="evenodd" clip-rule="evenodd" d="M12.7507 5.49125C12.6607 5.48125 12.5807 5.48125 12.5007 5.48125C17.1107 5.71125 20.7807 9.51125 20.7807 14.1813V16.1213C20.7807 17.2213 19.8807 18.1213 18.7807 18.1213H5.2207C4.1207 18.1213 3.2207 17.2213 3.2207 16.1213V14.1813C3.2207 9.51125 6.8907 5.71125 11.5007 5.48125C11.4107 5.48125 11.3307 5.48125 11.2507 5.49125V2.53125C11.2507 2.12125 11.5907 1.78125 12.0007 1.78125C12.4107 1.78125 12.7507 2.12125 12.7507 2.53125V5.49125ZM15.2192 19.7394C15.2992 19.4194 15.0592 19.1094 14.7292 19.1094H9.26916C8.93915 19.1094 8.69915 19.4194 8.77915 19.7394C9.15915 21.1694 10.4592 22.2194 11.9992 22.2194C13.5392 22.2194 14.8392 21.1694 15.2192 19.7394Z" fill="#292D32"/>
</svg>
