<svg viewBox="0 0 24 24" fill="none" xmlns="http://www.w3.org/2000/svg">
<path fill-rule="evenodd" clip-rule="evenodd" d="M11.6304 13.7499C11.7404 13.8199 11.8704 13.8499 12.0004 13.8499C12.2604 13.8499 12.5104 13.7199 12.6504 13.4799L13.7204 11.6199C13.9704 11.1799 13.9904 10.7199 13.7704 10.3399C13.5504 9.9699 13.1404 9.7499 12.6404 9.7499H11.8004L12.6504 8.2599C12.8504 7.9099 12.7304 7.4499 12.3704 7.2399C12.0204 7.0399 11.5604 7.1599 11.3504 7.5199L10.2804 9.3799C10.0304 9.8199 10.0104 10.2799 10.2304 10.6599C10.4504 11.0299 10.8604 11.2499 11.3604 11.2499H12.2004L11.3504 12.7299C11.1504 13.0799 11.2704 13.5399 11.6304 13.7499ZM15.0692 21.9699C15.1292 21.9899 15.1992 21.9999 15.2592 21.9999C15.5592 21.9999 15.8392 21.7999 15.9392 21.4899C16.0492 21.1199 15.8292 20.7399 15.4592 20.6299C13.1992 19.9899 10.8192 19.9899 8.55918 20.6299C8.18918 20.7299 7.96918 21.1199 8.07918 21.4899C8.17918 21.8599 8.56918 22.0699 8.93918 21.9699C10.9492 21.3999 13.0592 21.3999 15.0692 21.9699Z" fill="#292D32"/>
<path opacity="0.4" d="M19.2107 6.36001C18.1707 4.26001 16.1607 2.71001 13.8307 2.20001C11.3907 1.66001 8.8907 2.24001 6.9807 3.78001C5.0607 5.31001 3.9707 7.60001 3.9707 10.05C3.9707 12.64 5.5207 15.35 7.8607 16.92V17.75C7.8507 18.03 7.8407 18.46 8.1807 18.81C8.5307 19.17 9.0507 19.21 9.4607 19.21H14.5907C15.1307 19.21 15.5407 19.06 15.8207 18.78C16.2007 18.39 16.1907 17.89 16.1807 17.62V16.92C19.2807 14.83 21.2307 10.42 19.2107 6.36001Z" fill="#292D32"/>
</svg>
