<svg viewBox="0 0 24 24" fill="none" xmlns="http://www.w3.org/2000/svg">
<path fill-rule="evenodd" clip-rule="evenodd" d="M3.64914 18.8599C3.79914 19.0099 3.98914 19.0799 4.17914 19.0799C4.36914 19.0799 4.55914 19.0099 4.70914 18.8599L20.5591 3.00992C20.8491 2.71992 20.8491 2.23992 20.5591 1.94992C20.2691 1.65992 19.7891 1.65992 19.4991 1.94992L3.64914 17.7999C3.35914 18.0899 3.35914 18.5699 3.64914 18.8599ZM15.0692 21.9699C15.1292 21.9899 15.1992 21.9999 15.2592 21.9999C15.5592 21.9999 15.8392 21.7999 15.9392 21.4899C16.0492 21.1199 15.8292 20.7399 15.4592 20.6299C13.1992 19.9899 10.8192 19.9899 8.55918 20.6299C8.18918 20.7299 7.96918 21.1199 8.07918 21.4899C8.17918 21.8599 8.56918 22.0699 8.93918 21.9699C10.9492 21.3999 13.0592 21.3999 15.0692 21.9699Z" fill="#292D32"/>
<path opacity="0.4" fill-rule="evenodd" clip-rule="evenodd" d="M5.4907 14.5601L16.6307 3.42007C15.7907 2.84007 14.8407 2.42007 13.8307 2.20007C11.3807 1.66007 8.8807 2.23007 6.9707 3.77007C5.0607 5.31007 3.9707 7.60007 3.9707 10.0501C3.9707 11.6001 4.5307 13.2001 5.4907 14.5601ZM16.1694 17.6201V16.9201C19.2794 14.8301 21.2294 10.4201 19.2094 6.36006C18.8794 5.70006 18.4494 5.09006 17.9494 4.56006L6.60938 15.9001C6.98938 16.2801 7.40937 16.6201 7.85938 16.9201V17.7501C7.84938 18.0301 7.83938 18.4601 8.16937 18.8101C8.51937 19.1601 9.03937 19.2101 9.44937 19.2101H14.5794C15.1194 19.2101 15.5294 19.0601 15.8094 18.7801C16.1986 18.3808 16.1794 17.8819 16.1694 17.6215L16.1694 17.6201Z" fill="#292D32"/>
</svg>
