<svg viewBox="0 0 24 24" fill="none" xmlns="http://www.w3.org/2000/svg">
<path fill-rule="evenodd" clip-rule="evenodd" d="M14.7672 19.7381H9.25719C8.81719 19.7381 8.25719 19.6881 7.88719 19.3081C7.52719 18.9381 7.53719 18.4781 7.54719 18.1681V17.2781C5.02719 15.5981 3.36719 12.6781 3.36719 9.89808C3.36719 7.26808 4.54719 4.80808 6.59719 3.15808C8.64719 1.50808 11.3372 0.888084 13.9672 1.46808C16.4672 2.01808 18.6272 3.68808 19.7472 5.93808C21.9172 10.3081 19.8272 15.0381 16.4872 17.2881V18.0381C16.4972 18.3281 16.5072 18.8581 16.0972 19.2781C15.7872 19.5781 15.3472 19.7381 14.7672 19.7381ZM9.03719 18.2281C9.05854 18.2281 9.08354 18.2299 9.11219 18.232C9.15062 18.2348 9.19562 18.2381 9.24719 18.2381H14.7672C14.8672 18.2381 14.9372 18.2281 14.9772 18.2181V18.1181V16.8581C14.9772 16.5981 15.1172 16.3481 15.3372 16.2181C18.2972 14.4281 20.2572 10.3381 18.3872 6.58808C17.4672 4.73808 15.6872 3.36808 13.6272 2.91808C11.4472 2.43808 9.21719 2.94808 7.51719 4.31808C5.81719 5.68808 4.84719 7.71808 4.84719 9.89808C4.84719 12.6781 6.76719 15.0781 8.66719 16.2281C8.89719 16.3681 9.02719 16.6081 9.02719 16.8681V18.2181C9.03219 18.2181 9.03469 18.2181 9.03594 18.2193C9.03719 18.2206 9.03719 18.2231 9.03719 18.2281ZM12.0004 13.8499C11.8704 13.8499 11.7404 13.8199 11.6304 13.7499C11.2704 13.5399 11.1504 13.0799 11.3504 12.7299L12.2004 11.2499H11.3604C10.8604 11.2499 10.4504 11.0299 10.2304 10.6599C10.0104 10.2799 10.0304 9.8199 10.2804 9.3799L11.3504 7.5199C11.5604 7.1599 12.0204 7.0399 12.3704 7.2399C12.7304 7.4499 12.8504 7.9099 12.6504 8.2599L11.8004 9.7499H12.6404C13.1404 9.7499 13.5504 9.9699 13.7704 10.3399C13.9904 10.7199 13.9704 11.1799 13.7204 11.6199L12.6504 13.4799C12.5104 13.7199 12.2604 13.8499 12.0004 13.8499ZM15.2903 22.7199C15.3603 22.7399 15.4303 22.7499 15.5003 22.7499C15.8303 22.7499 16.1303 22.5399 16.2203 22.1999C16.3303 21.7999 16.1003 21.3799 15.7003 21.2699C13.2803 20.5799 10.7103 20.5799 8.29025 21.2699C7.89025 21.3899 7.65025 21.7999 7.77025 22.1999C7.89025 22.5999 8.30025 22.8299 8.70025 22.7199C10.8603 22.0999 13.1303 22.0999 15.2903 22.7199Z" fill="#292D32"/>
</svg>
