<svg viewBox="0 0 24 24" fill="none" xmlns="http://www.w3.org/2000/svg">
<path fill-rule="evenodd" clip-rule="evenodd" d="M12 5.67999L11.9905 5.67993H11.9388C7.53875 5.67993 3.96875 9.25993 3.96875 13.6499V17.8399H8.33895C8.34281 17.8399 8.34668 17.8398 8.35055 17.8398H15.6505C15.6544 17.8398 15.6583 17.8399 15.6621 17.8399H20.0287V13.6499C20.0287 9.24993 16.4487 5.67993 12.0587 5.67993H12.0095L12 5.67999ZM16.2948 19.3399H20.7787C21.1887 19.3399 21.5287 18.9999 21.5287 18.5899V13.6499C21.5287 8.66237 17.6488 4.56035 12.75 4.20492V2C12.75 1.59 12.41 1.25 12 1.25C11.59 1.25 11.25 1.59 11.25 2V4.20474C6.35001 4.55895 2.46875 8.66152 2.46875 13.6499V18.5899C2.46875 18.9999 2.80875 19.3399 3.21875 19.3399H7.70631C8.16602 21.2967 9.93074 22.7498 12.0005 22.7498C14.0703 22.7498 15.8351 21.2967 16.2948 19.3399ZM9.27057 19.3399H14.7305C14.3205 20.4599 13.2405 21.2498 12.0005 21.2498C10.7606 21.2498 9.68059 20.4599 9.27057 19.3399Z" fill="#292D32"/>
</svg>
