<svg viewBox="0 0 24 24" fill="none" xmlns="http://www.w3.org/2000/svg">
<path fill-rule="evenodd" clip-rule="evenodd" d="M10.06 21.95C10.59 22.48 11.3 22.75 12 22.75C12.7 22.75 13.41 22.48 13.94 21.95L15.65 20.26C16.07 19.84 16.64 19.61 17.24 19.61H18C20.07 19.61 21.75 17.94 21.75 15.89V4.97998C21.75 2.92998 20.07 1.26001 18 1.26001H6C3.93 1.26001 2.25 2.92998 2.25 4.97998V15.89C2.25 17.94 3.93 19.61 6 19.61H6.75999C7.35999 19.61 7.92001 19.84 8.35001 20.26L10.06 21.95ZM3.75 4.96997C3.75 3.74997 4.76 2.75 6 2.75H18C19.24 2.75 20.25 3.73997 20.25 4.96997V15.88C20.25 17.1 19.24 18.1 18 18.1H17.25C16.25 18.1 15.31 18.4899 14.6 19.1899L12.89 20.88C12.4 21.36 11.61 21.36 11.12 20.88L9.41 19.1899C8.7 18.4899 7.75999 18.1 6.75999 18.1H6C4.76 18.1 3.75 17.11 3.75 15.88V4.96997ZM14.2293 16.1101H12.2493C11.7893 16.1101 11.1193 15.9701 10.7293 15.5801L9.97525 14.9974C9.7134 15.3096 9.27729 15.54 8.56 15.54H8.03999C6.47999 15.54 6.25 14.45 6.25 13.8V8.70996C6.25 8.05996 6.47999 6.96997 8.03999 6.96997H8.56C9.23359 6.96997 9.65922 7.17319 9.92543 7.45647L11.1593 5.62012C11.5793 4.99012 12.4693 4.7001 13.1893 4.9701C13.9993 5.2401 14.5193 6.14011 14.3393 6.9801L14.1293 8.3501H15.9493C16.5793 8.3501 17.1293 8.62009 17.4593 9.09009C17.7793 9.55009 17.8493 10.1401 17.6493 10.7101L16.4093 14.4901C16.1793 15.3801 15.2193 16.1101 14.2293 16.1101ZM11.7193 14.4501L10.35 13.387V9.52489L12.4093 6.46009C12.4493 6.41009 12.5993 6.36014 12.6893 6.39014C12.7993 6.43014 12.8893 6.58009 12.8593 6.71009L12.5993 8.38013C12.5493 8.76013 12.6593 9.14017 12.8993 9.42017C13.1493 9.70017 13.4993 9.86011 13.8693 9.86011H15.9493C16.0793 9.86011 16.1893 9.90009 16.2293 9.96008C16.2793 10.0401 16.2493 10.1501 16.2193 10.2301L14.9593 14.0801C14.8893 14.3401 14.5293 14.6001 14.2293 14.6001H12.2493C12.0593 14.6001 11.8393 14.5401 11.7193 14.4501ZM7.78 14.03C7.78927 14.03 7.80331 14.031 7.82272 14.0323H7.82274C7.86614 14.0353 7.93636 14.04 8.03999 14.04H8.56C8.72 14.04 8.81 14.02 8.84 14.01C8.84 14.0044 8.84079 13.9956 8.84193 13.9829C8.84484 13.9507 8.85001 13.8934 8.85001 13.8V8.70996C8.85001 8.57996 8.84 8.50999 8.83 8.48999C8.82489 8.48999 8.81588 8.48934 8.80245 8.48836H8.80244H8.80243C8.76325 8.48553 8.68657 8.47998 8.56 8.47998H8.03999C7.87999 8.47998 7.78999 8.50001 7.75999 8.51001C7.75999 8.51564 7.7592 8.52444 7.75806 8.53709L7.75806 8.5371L7.75806 8.53712C7.75516 8.56937 7.75 8.62661 7.75 8.71997V13.8101C7.75 13.9401 7.76 14.01 7.77 14.04C7.77 14.03 7.78 14.03 7.78 14.03Z" fill="#292D32"/>
</svg>
