<svg viewBox="0 0 24 24" fill="none" xmlns="http://www.w3.org/2000/svg">
<path fill-rule="evenodd" clip-rule="evenodd" d="M10.06 21.95C10.59 22.48 11.3 22.75 12 22.75C12.7 22.75 13.41 22.48 13.94 21.95L15.65 20.26C16.07 19.85 16.65 19.61 17.24 19.61H18C20.07 19.61 21.75 17.94 21.75 15.89V4.97998C21.75 2.92998 20.07 1.26001 18 1.26001H6C3.93 1.26001 2.25 2.92998 2.25 4.97998V15.89C2.25 17.94 3.93 19.61 6 19.61H6.76001C7.35001 19.61 7.93001 19.84 8.35001 20.26L10.06 21.95ZM3.75 4.96997C3.75 3.74997 4.76 2.75 6 2.75H18C19.24 2.75 20.25 3.73997 20.25 4.96997V15.88C20.25 17.1 19.24 18.1 18 18.1H17.25C16.26 18.1 15.3 18.5 14.6 19.19L12.89 20.88C12.4 21.36 11.61 21.36 11.12 20.88L9.41 19.19C8.71 18.5 7.75001 18.1 6.76001 18.1H6C4.76 18.1 3.75 17.11 3.75 15.88V4.96997ZM11.4798 15.67C11.6398 15.72 11.8198 15.75 11.9998 15.75C12.1798 15.75 12.3598 15.72 12.5398 15.67C13.8498 15.22 17.2598 13.23 17.2598 9.51001C17.2598 7.71001 15.7998 6.25 14.0098 6.25C13.2798 6.25 12.5798 6.5 12.0098 6.94C11.4398 6.5 10.7398 6.25 10.0098 6.25C8.21977 6.25 6.75977 7.71001 6.75977 9.51001C6.75977 13.23 10.1598 15.22 11.4798 15.67ZM8.24976 9.51001C8.24976 8.54001 9.03976 7.75 9.99976 7.75C10.5598 7.75 11.0698 8.01002 11.3898 8.46002C11.6698 8.84002 12.3098 8.84002 12.5898 8.46002C12.9298 8.02002 13.4397 7.76001 13.9897 7.76001C14.9597 7.76001 15.7397 8.55002 15.7397 9.52002C15.7397 12.33 13.0098 13.91 12.0398 14.25H11.9597C10.9997 13.92 8.24976 12.34 8.24976 9.51001Z" fill="#292D32"/>
</svg>
