<svg viewBox="0 0 24 24" fill="none" xmlns="http://www.w3.org/2000/svg">
<path fill-rule="evenodd" clip-rule="evenodd" d="M21.1091 10.6701H20.5291C19.6491 10.6701 19.2891 10.3301 19.2891 9.49011V3.78015C19.2891 2.94015 19.6491 2.6001 20.5291 2.6001H21.1091C21.9891 2.6001 22.3491 2.94015 22.3491 3.78015V9.49011C22.3491 10.3301 21.9891 10.6701 21.1091 10.6701ZM3.24 13.2998H3.82C4.7 13.2998 5.06 13.6398 5.06 14.4798V20.1898C5.06 21.0298 4.7 21.3698 3.82 21.3698H3.24C2.36 21.3698 2 21.0298 2 20.1898V14.4798C2 13.6398 2.36 13.2998 3.24 13.2998Z" fill="#292D32"/>
<path opacity="0.4" fill-rule="evenodd" clip-rule="evenodd" d="M12.2597 9.09998C11.8097 9.09998 11.4197 8.91998 11.1997 8.59998C10.9797 8.28998 10.9397 7.88999 11.0797 7.48999L12.4797 3.23999C12.6597 2.53999 13.4197 1.96997 14.1797 1.96997H16.3897C16.7697 1.96997 17.3097 2.10003 17.5497 2.34003L19.3497 3.72998L19.4397 3.82001V8.84003L19.3697 8.96002L16.9797 12.51C16.7297 12.88 16.1297 13.14 15.6097 12.95C15.0597 12.76 14.6897 12.13 14.8097 11.58L15.0997 9.71997C15.1197 9.54997 15.0797 9.40003 14.9797 9.28003C14.8897 9.16003 14.7397 9.09998 14.5897 9.09998H12.2597ZM12.0901 14.8699C12.5401 14.8699 12.9302 15.0499 13.1502 15.3699C13.3702 15.6799 13.4101 16.0698 13.2701 16.4798L11.8702 20.7298C11.6902 21.4298 10.9302 21.9999 10.1702 21.9999H7.96015C7.58015 21.9999 7.04016 21.8699 6.80016 21.6299L5.00015 20.2398L4.91016 20.1499V15.1299L4.98016 15.0099L7.37016 11.4599C7.62016 11.0899 8.22015 10.8299 8.74015 11.0199C9.29015 11.2099 9.66015 11.8399 9.54015 12.3899L9.25015 14.2499C9.23015 14.4199 9.27016 14.5699 9.37016 14.6899C9.46016 14.8099 9.61015 14.8699 9.76015 14.8699H12.0901Z" fill="#292D32"/>
</svg>
