<svg viewBox="0 0 24 24" fill="none" xmlns="http://www.w3.org/2000/svg">
<path fill-rule="evenodd" clip-rule="evenodd" d="M20.5308 2.61047H21.1108C21.9908 2.61047 22.3508 2.95047 22.3408 3.78047V9.51047C22.3408 10.3505 21.9808 10.6905 21.1008 10.6905H20.5208C19.6408 10.6905 19.2808 10.3505 19.2808 9.51047V9.08047L16.9708 12.5205C16.7208 12.8905 16.1208 13.1505 15.6008 12.9605C15.0508 12.7705 14.6808 12.1405 14.8008 11.5905L15.0908 9.73047C15.1108 9.56047 15.0708 9.41047 14.9708 9.29047C14.8808 9.17047 14.7308 9.11047 14.5808 9.11047H12.2508C11.8008 9.11047 11.4108 8.93047 11.1908 8.61047C10.9808 8.30047 10.9308 7.91047 11.0808 7.50047L12.4808 3.25047C12.6608 2.55047 13.4208 1.98047 14.1808 1.98047H16.3908C16.7708 1.98047 17.3108 2.11047 17.5508 2.35047L19.3008 3.70047C19.3408 2.94047 19.6908 2.61047 20.5308 2.61047ZM12.09 14.8709C12.54 14.8709 12.93 15.0509 13.15 15.3709C13.37 15.6809 13.41 16.0709 13.26 16.4809L11.86 20.7309C11.68 21.4309 10.92 22.0009 10.16 22.0009H7.95C7.57 22.0009 7.04 21.8709 6.79 21.6309L5.04 20.2809C5.01 21.0409 4.66 21.3709 3.82 21.3709H3.24C2.36 21.3709 2 21.0309 2 20.1909V14.4809C2 13.6409 2.36 13.3009 3.24 13.2909H3.82C4.7 13.2909 5.06 13.6309 5.06 14.4709V14.9009L7.37 11.4609C7.62 11.0909 8.22 10.8309 8.74 11.0209C9.29 11.2109 9.66 11.8409 9.54 12.3909L9.25 14.2509C9.23 14.4209 9.27 14.5709 9.37 14.6909C9.46 14.8109 9.61 14.8709 9.76 14.8709H12.09Z" fill="#292D32"/>
</svg>
