<svg viewBox="0 0 24 24" fill="none" xmlns="http://www.w3.org/2000/svg">
<path d="M18 2.00781H6C4.34 2.00781 3 3.33781 3 4.97781V15.8878C3 17.5278 4.34 18.8578 6 18.8578H6.76C7.56 18.8578 8.32 19.1678 8.88 19.7278L10.59 21.4178C11.37 22.1878 12.64 22.1878 13.42 21.4178L15.13 19.7278C15.69 19.1678 16.46 18.8578 17.25 18.8578H18C19.66 18.8578 21 17.5278 21 15.8878V4.97781C21 3.33781 19.66 2.00781 18 2.00781ZM16.68 10.5078L15.51 14.0678C15.36 14.6578 14.73 15.1378 14.09 15.1378H12.24C11.92 15.1378 11.47 15.0278 11.27 14.8278L9.8 13.6778C9.77 14.3178 9.48 14.5878 8.77 14.5878H8.29C7.55 14.5878 7.25 14.2978 7.25 13.5978V8.82781C7.25 8.12781 7.55 7.83781 8.29 7.83781H8.78C9.52 7.83781 9.82 8.12781 9.82 8.82781V9.18781L11.76 6.30781C11.96 5.99781 12.47 5.77781 12.9 5.94781C13.37 6.10781 13.67 6.62781 13.57 7.08781L13.33 8.64781C13.3 8.77781 13.33 8.91781 13.42 9.00781C13.5 9.09781 13.62 9.15781 13.75 9.15781H15.7C16.08 9.15781 16.4 9.30781 16.59 9.57781C16.77 9.83781 16.8 10.1678 16.68 10.5078Z" fill="#292D32"/>
</svg>
