<svg viewBox="0 0 24 24" fill="none" xmlns="http://www.w3.org/2000/svg">
<path fill-rule="evenodd" clip-rule="evenodd" d="M8.39062 8.33071V18.4907C8.39062 19.1107 8.68062 19.7007 9.17062 20.0707L10.4506 21.0607C10.8806 21.4907 11.8206 21.7207 12.4906 21.7207H16.3906C17.7306 21.7207 19.0806 20.7107 19.3906 19.4707L21.8506 11.9807C22.1006 11.2707 22.0306 10.5707 21.6506 10.0307C21.2506 9.47071 20.5706 9.15071 19.7806 9.15071H15.6706C15.4006 9.15071 15.1506 9.03071 14.9806 8.84071C14.8106 8.63071 14.7306 8.36071 14.7706 8.06071L15.2906 4.79071C15.5006 3.81071 14.8506 2.71071 13.8706 2.38071C12.9606 2.04071 11.8906 2.50071 11.4606 3.15071L8.73062 7.21071C8.51062 7.54071 8.39062 7.93071 8.39062 8.33071ZM4.18 6.37891H5.21C6.76 6.37891 7.39 6.97891 7.39 8.45891V18.5189C7.39 19.9989 6.76 20.5989 5.21 20.5989H4.18C2.63 20.5989 2 19.9989 2 18.5189V8.45891C2 6.97891 2.63 6.37891 4.18 6.37891Z" fill="#292D32"/>
</svg>
