<svg viewBox="0 0 24 24" fill="none" xmlns="http://www.w3.org/2000/svg">
<path fill-rule="evenodd" clip-rule="evenodd" d="M15.8102 13.4399C15.6102 13.4399 15.4102 13.41 15.2202 13.34C14.3702 13.06 13.8102 12.1 14.0102 11.22L14.2602 9.62H12.1702C11.5002 9.62 10.9202 9.33997 10.5702 8.83997C10.2302 8.35997 10.1602 7.73 10.3802 7.13L11.7502 2.96997C11.9802 2.02997 13.0102 1.25 14.0602 1.25H16.2302C16.6202 1.25 17.4002 1.37006 17.8502 1.81006L18.7476 2.50153C19.0232 2.13772 19.4982 1.87988 20.2904 1.87988H20.8604C22.4204 1.87988 22.7504 2.87985 22.7504 3.71985V9.31982C22.7504 10.1598 22.4204 11.1599 20.8604 11.1599H20.2904C19.5311 11.1599 19.0632 10.923 18.7829 10.5829L17.3902 12.66C17.0302 13.14 16.4102 13.4399 15.8102 13.4399ZM18.4004 8.44848L16.1302 11.8199C16.0802 11.8999 15.8702 11.9801 15.7302 11.9301C15.5702 11.8801 15.4502 11.67 15.4902 11.5L15.7802 9.66003C15.8402 9.25003 15.7302 8.86995 15.4702 8.56995C15.2102 8.27995 14.8502 8.10999 14.4602 8.10999H12.1702C12.0002 8.10999 11.8602 8.05997 11.8002 7.96997C11.7302 7.85997 11.7602 7.70999 11.8002 7.60999L13.1902 3.38C13.2702 3.06 13.6902 2.75 14.0602 2.75H16.2302C16.4602 2.75 16.7302 2.82994 16.8602 2.93994L18.4004 4.13217V8.44848ZM7.7793 22.7499H9.9493C11.0093 22.7499 12.0293 21.9699 12.2293 21.0299L13.5993 16.8699C13.8193 16.2699 13.7493 15.6399 13.4093 15.1599C13.0593 14.6599 12.4793 14.3799 11.8093 14.3799H9.7193L9.9693 12.7799C10.1693 11.8999 9.6093 10.9399 8.7593 10.6599C8.0193 10.3799 7.0593 10.6798 6.6193 11.3398L5.22694 13.4165C4.94661 13.0766 4.47878 12.8398 3.71976 12.8398H3.14977C1.58977 12.8398 1.25977 13.8399 1.25977 14.6799V20.2799C1.25977 21.1199 1.58977 22.1199 3.14977 22.1199H3.71976C4.51163 22.1199 4.98657 21.8622 5.2623 21.4986L6.1593 22.1898C6.6093 22.6298 7.3893 22.7499 7.7793 22.7499ZM5.60976 19.8682L7.1493 21.0599C7.2793 21.1699 7.5493 21.2499 7.7793 21.2499H9.9493C10.3193 21.2499 10.7393 20.9399 10.8193 20.6199L12.2093 16.3899C12.2493 16.2899 12.2793 16.1399 12.2093 16.0299C12.1493 15.9399 12.0093 15.8899 11.8393 15.8899H9.5493C9.1593 15.8899 8.7993 15.7199 8.5393 15.4299C8.2793 15.1299 8.1693 14.7498 8.2293 14.3398L8.51929 12.4999C8.55929 12.3299 8.4393 12.1198 8.2793 12.0698C8.1493 12.0198 7.9293 12.1099 7.8793 12.1799L5.60976 15.5504V19.8682ZM2.80285 20.5829C2.79574 20.581 2.79146 20.5798 2.78976 20.5798C2.77976 20.5698 2.74976 20.4899 2.74976 20.2799V14.6799C2.74976 14.5075 2.76998 14.4295 2.77722 14.4015C2.7788 14.3954 2.77976 14.3917 2.77976 14.3899C2.79976 14.3799 2.88977 14.3398 3.14977 14.3398H3.71976C3.8792 14.3398 3.97763 14.3643 4.02802 14.3768L4.02803 14.3768L4.02804 14.3768C4.05665 14.3839 4.06976 14.3871 4.06976 14.3799C4.07976 14.3899 4.10976 14.4699 4.10976 14.6799V20.2799C4.10976 20.4523 4.08955 20.5303 4.08231 20.5582C4.08073 20.5643 4.07977 20.568 4.07977 20.5698C4.05977 20.5798 3.96976 20.6199 3.70976 20.6199H3.13976C2.94045 20.6199 2.83769 20.5923 2.80285 20.5829ZM19.9435 9.62293C19.9364 9.62102 19.9321 9.61987 19.9304 9.61987C19.9204 9.59987 19.8904 9.52982 19.8904 9.31982V3.71985C19.8904 3.54747 19.9106 3.46947 19.9178 3.44153C19.9194 3.43544 19.9204 3.43172 19.9204 3.42993C19.9404 3.41993 20.0304 3.37988 20.2904 3.37988H20.8604C21.0039 3.37988 21.1013 3.40625 21.1563 3.42116C21.1971 3.43222 21.2146 3.43696 21.2104 3.41992C21.2204 3.43992 21.2504 3.50985 21.2504 3.71985V9.31982C21.2504 9.49221 21.2302 9.57028 21.2229 9.59825C21.2214 9.60435 21.2204 9.60807 21.2204 9.60986C21.2004 9.61986 21.1104 9.65991 20.8504 9.65991H20.2804C20.0811 9.65991 19.9783 9.6323 19.9435 9.62293Z" fill="#292D32"/>
</svg>
