<svg viewBox="0 0 24 24" fill="none" xmlns="http://www.w3.org/2000/svg">
<path fill-rule="evenodd" clip-rule="evenodd" d="M5 22.75H22C22.41 22.75 22.75 22.41 22.75 22C22.75 21.59 22.41 21.25 22 21.25H5C3.76 21.25 2.75 20.24 2.75 19V2C2.75 1.59 2.41 1.25 2 1.25C1.59 1.25 1.25 1.59 1.25 2V19C1.25 21.07 2.93 22.75 5 22.75ZM4.50982 17.5698C4.64982 17.6898 4.82982 17.7498 4.99982 17.7498C5.20982 17.7498 5.41982 17.6598 5.57982 17.4898L10.1698 12.1298C10.3998 11.8598 10.7198 11.6998 11.0698 11.6898C11.4198 11.6798 11.7498 11.8098 11.9998 12.0598L12.9398 13.0098C13.4798 13.5498 14.2298 13.8298 14.9898 13.8098C15.7498 13.7798 16.4698 13.4298 16.9698 12.8498L21.5598 7.48981C21.8298 7.16981 21.7898 6.69981 21.4798 6.42981C21.1598 6.15981 20.6898 6.19983 20.4198 6.50983L15.8298 11.8698C15.5998 12.1398 15.2798 12.2998 14.9298 12.3098C14.5798 12.3098 14.2498 12.1898 13.9998 11.9398L13.0498 10.9898C12.5098 10.4498 11.7598 10.1698 10.9998 10.1898C10.2398 10.2198 9.51982 10.5698 9.01982 11.1498L4.42982 16.5098C4.15982 16.8298 4.19982 17.2998 4.50982 17.5698Z" fill="#292D32"/>
</svg>
