<svg viewBox="0 0 24 24" fill="none" xmlns="http://www.w3.org/2000/svg">
<path d="M21.7705 2.23006C21.4705 1.92006 20.9905 1.92006 20.6905 2.23006L15.0205 7.90006L14.3005 8.62006C13.7605 7.88006 12.9105 7.44006 12.0005 7.44006C10.4205 7.44006 9.13055 8.73006 9.13055 10.3101C9.13055 11.2101 9.57055 12.0601 10.3105 12.6101L2.23055 20.6901C1.92055 20.9901 1.92055 21.4701 2.23055 21.7701C2.38055 21.9201 2.57055 22.0001 2.77055 22.0001C2.97055 22.0001 3.16055 21.9201 3.31055 21.7701L21.7705 3.31006C22.0805 3.01006 22.0805 2.53006 21.7705 2.23006Z" fill="#292D32"/>
<path opacity="0.4" fill-rule="evenodd" clip-rule="evenodd" d="M5.7906 18.21L18.8906 5.11C17.1206 2.98 14.4406 2 12.0006 2C10.2306 2 8.3406 2.52 6.7606 3.61C5.1806 4.71 3.9006 6.38 3.3806 8.69C2.5406 12.36 3.9006 15.64 5.7906 18.21ZM11.86 22.55C13.22 22.55 14.58 22.04 15.64 21.02C18.49 18.26 21.65 13.9 20.48 8.74C20.34 8.11 20.15 7.54 19.9 7L7 19.9C7.36 20.29 7.72 20.67 8.08 21.01C9.14 22.03 10.5 22.55 11.86 22.55Z" fill="#292D32"/>
</svg>
