<svg viewBox="0 0 24 24" fill="none" xmlns="http://www.w3.org/2000/svg">
<path fill-rule="evenodd" clip-rule="evenodd" d="M7.86969 21.09C9.02969 22.2 10.5197 22.76 11.9997 22.76C13.4797 22.76 14.9697 22.2 16.1297 21.09C19.0797 18.25 22.3397 13.73 21.1197 8.34C20.0097 3.44 15.7397 1.25 12.0097 1.25H11.9997C8.26969 1.25 3.99969 3.44 2.88969 8.33C1.65969 13.72 4.91969 18.25 7.86969 21.09ZM4.35969 8.66C5.34969 4.3 9.08969 2.75 11.9997 2.75C14.9097 2.75 18.6597 4.3 19.6597 8.66C20.7197 13.37 17.7597 17.43 15.0897 20C13.3597 21.67 10.6497 21.67 8.91969 20C6.23969 17.43 3.27969 13.37 4.35969 8.66ZM8.13086 10.2999C8.13086 12.4399 9.87086 14.1699 12.0009 14.1699C14.1309 14.1699 15.8709 12.4499 15.8709 10.3099C15.8709 8.16994 14.1309 6.43994 12.0009 6.43994C9.87086 6.43994 8.13086 8.15994 8.13086 10.2999ZM9.63086 10.3099C9.63086 8.99994 10.7009 7.93994 12.0009 7.93994C13.3009 7.93994 14.3709 8.99994 14.3709 10.3099C14.3709 11.6199 13.3109 12.6799 12.0009 12.6799C10.6909 12.6799 9.63086 11.6199 9.63086 10.3099Z" fill="#292D32"/>
</svg>
