<svg viewBox="0 0 24 24" fill="none" xmlns="http://www.w3.org/2000/svg">
<path fill-rule="evenodd" clip-rule="evenodd" d="M11.9986 7.16C10.2586 7.16 8.84865 8.57 8.84865 10.31C8.84865 11.3275 9.33875 12.2409 10.0984 12.8152L14.5061 8.40503C13.9292 7.64808 13.0219 7.16 11.9986 7.16ZM18.3641 4.54493C16.6149 2.80374 14.2084 2 11.9986 2C10.2286 2 8.33865 2.52 6.75865 3.61C5.17865 4.71 3.89865 6.38 3.37865 8.69C2.60646 12.0638 3.69342 15.1079 5.3422 17.5739L2.22891 20.6889C1.92891 20.9889 1.92891 21.4789 2.22891 21.7789C2.37891 21.9189 2.56891 21.9989 2.76891 21.9989C2.96891 21.9989 3.15891 21.9189 3.30891 21.7689L21.7689 3.30891C22.0789 3.00891 22.0789 2.52891 21.7689 2.22891C21.4689 1.92891 20.9789 1.92891 20.6789 2.22891L18.3641 4.54493ZM15.7806 20.9809C14.7206 22.0009 13.3606 22.5109 12.0006 22.5109C10.6406 22.5109 9.28063 21.9909 8.22062 20.9709C7.86063 20.6309 7.50063 20.2509 7.14062 19.8609L20.0406 6.96094C20.2906 7.50094 20.4806 8.07094 20.6206 8.70094C21.7906 13.8609 18.6306 18.2209 15.7806 20.9809Z" fill="#292D32"/>
</svg>
