<svg viewBox="0 0 24 24" fill="none" xmlns="http://www.w3.org/2000/svg">
<path fill-rule="evenodd" clip-rule="evenodd" d="M5.09374 17.8457C2.9146 14.6866 2.17144 11.4849 2.89073 8.32007C3.67073 4.89007 6.19072 2.35007 9.63072 1.52007C13.0369 0.696904 16.6043 1.70002 18.8674 4.07201L21.4695 1.46994C21.7595 1.17994 22.2395 1.17994 22.5295 1.46994C22.8195 1.75994 22.8195 2.23994 22.5295 2.52994L2.52945 22.5299C2.37945 22.6799 2.18945 22.7499 1.99945 22.7499C1.80945 22.7499 1.61945 22.6799 1.46945 22.5299C1.17945 22.2399 1.17945 21.7599 1.46945 21.4699L5.09374 17.8457ZM17.8079 5.13145C15.9108 3.1195 12.8915 2.27567 9.98072 2.97007C7.06072 3.67007 5.01073 5.74007 4.35073 8.64007C3.74441 11.3079 4.35624 14.0366 6.17812 16.7613L9.5946 13.3448C8.6796 12.6183 8.13086 11.4993 8.13086 10.3202C8.13086 8.1902 9.86086 6.4502 12.0009 6.4502C13.1847 6.4502 14.3013 6.99528 15.0281 7.91124L17.8079 5.13145ZM13.9526 8.98679C13.5171 8.33247 12.7851 7.9402 12.0009 7.9402C10.7009 7.9402 9.63086 9.0002 9.63086 10.3102C9.63086 11.0984 10.0271 11.8338 10.6709 12.2685L13.9526 8.98679ZM12.0001 22.7598C10.5201 22.7598 9.03006 22.1998 7.87006 21.0898C7.57007 20.7998 7.56006 20.3298 7.85006 20.0298C8.14007 19.7298 8.61006 19.7198 8.91006 20.0098C10.6401 21.6798 13.3501 21.6798 15.0801 20.0098C17.7501 17.4398 20.7101 13.3798 19.6501 8.66977C19.5601 8.26977 19.8101 7.85977 20.2201 7.76977C20.6201 7.67977 21.0301 7.92977 21.1201 8.33977C22.3401 13.7298 19.0801 18.2498 16.1301 21.0898C14.9701 22.1998 13.4801 22.7598 12.0001 22.7598Z" fill="#292D32"/>
</svg>
