<svg viewBox="0 0 24 24" fill="none" xmlns="http://www.w3.org/2000/svg">
<path fill-rule="evenodd" clip-rule="evenodd" d="M7.86969 21.09C9.02969 22.2 10.5197 22.76 11.9997 22.76C13.4797 22.76 14.9697 22.2 16.1297 21.09C19.0797 18.25 22.3397 13.73 21.1197 8.34C20.0097 3.44 15.7397 1.25 12.0097 1.25H11.9997C8.26969 1.25 3.99969 3.44 2.88969 8.33C1.65969 13.72 4.91969 18.25 7.86969 21.09ZM4.35969 8.66C5.34969 4.3 9.08969 2.75 11.9997 2.75C14.9097 2.75 18.6597 4.3 19.6597 8.66C20.7197 13.37 17.7597 17.43 15.0897 20C13.3597 21.67 10.6497 21.67 8.91969 20C6.23969 17.43 3.27969 13.37 4.35969 8.66ZM10.2195 13.5299C10.3695 13.6799 10.5595 13.7499 10.7495 13.7499C10.9395 13.7499 11.1295 13.6799 11.2795 13.5299L15.2795 9.52994C15.5695 9.23994 15.5695 8.75994 15.2795 8.46994C14.9895 8.17994 14.5095 8.17994 14.2195 8.46994L10.7495 11.9399L9.77945 10.9699C9.48945 10.6799 9.00945 10.6799 8.71945 10.9699C8.42945 11.2599 8.42945 11.7399 8.71945 12.0299L10.2195 13.5299Z" fill="#292D32"/>
</svg>
