<svg viewBox="0 0 24 24" fill="none" xmlns="http://www.w3.org/2000/svg">
<path fill-rule="evenodd" clip-rule="evenodd" d="M2 12C2 6.48 6.48 2 12 2C17.52 2 22 6.48 22 12C22 17.52 17.52 22 12 22C6.48 22 2 17.52 2 12ZM14.5 17.38C16.7 17.38 17.38 16.7 17.38 14.5V13.5C17.38 11.79 16.97 11 15.75 10.73V10C15.75 9.07 15.75 6.25 12 6.25C8.25 6.25 8.25 9.07 8.25 10V10.73C7.03 11 6.62 11.79 6.62 13.5V14.5C6.62 16.7 7.3 17.38 9.5 17.38H14.5ZM12 7.75C10.11 7.75 9.75 8.54 9.75 10V10.62H14.25V10C14.25 8.54 13.89 7.75 12 7.75ZM11.9984 15.0984C12.606 15.0984 13.0984 14.606 13.0984 13.9984C13.0984 13.3909 12.606 12.8984 11.9984 12.8984C11.3909 12.8984 10.8984 13.3909 10.8984 13.9984C10.8984 14.606 11.3909 15.0984 11.9984 15.0984Z" fill="#292D32"/>
</svg>
