<svg viewBox="0 0 24 24" fill="none" xmlns="http://www.w3.org/2000/svg">
<path fill-rule="evenodd" clip-rule="evenodd" d="M18.75 10.1V8C18.75 5.1 18.05 1.25 12 1.25C5.95 1.25 5.25 5.1 5.25 8V10.1C5.69 10.04 6.19 10.01 6.75 10V8C6.75 4.85 7.64 2.75 12 2.75C16.36 2.75 17.25 4.85 17.25 8V10C17.81 10.01 18.31 10.04 18.75 10.1ZM7.62 16.9201C7.74 16.9701 7.87 17.0001 8 17.0001C8.26 17.0001 8.51999 16.8901 8.70999 16.7101C8.88999 16.5201 9 16.2601 9 16.0001C9 15.8701 8.97001 15.7401 8.92001 15.6201C8.87001 15.5001 8.79999 15.3901 8.70999 15.2901C8.42999 15.0101 7.99 14.9201 7.62 15.0801C7.49 15.1301 7.39001 15.2001 7.29001 15.2901C7.20001 15.3901 7.12999 15.5001 7.07999 15.6201C7.02999 15.7401 7 15.8701 7 16.0001C7 16.2601 7.11001 16.5201 7.29001 16.7101C7.39001 16.8001 7.49 16.8701 7.62 16.9201ZM12 17C11.73 17 11.48 16.89 11.29 16.71C11.2 16.61 11.13 16.5 11.08 16.38C11.03 16.26 11 16.13 11 16C11 15.73 11.11 15.48 11.29 15.29C11.66 14.92 12.33 14.92 12.71 15.29C12.89 15.48 13 15.73 13 16C13 16.13 12.97 16.26 12.92 16.38C12.87 16.5 12.8 16.61 12.71 16.71C12.52 16.89 12.26 17 12 17ZM15.29 16.71C15.48 16.89 15.74 17 16 17C16.26 17 16.52 16.89 16.71 16.71C16.89 16.52 17 16.26 17 16C17 15.94 16.99 15.87 16.98 15.8C16.97 15.74 16.95 15.68 16.92 15.62C16.9 15.56 16.87 15.5 16.83 15.45C16.79 15.39 16.75 15.34 16.71 15.29C16.34 14.92 15.67 14.92 15.29 15.29C15.11 15.48 15 15.73 15 16C15 16.27 15.11 16.52 15.29 16.71Z" fill="#292D32"/>
<path opacity="0.4" d="M22 15V17C22 21 21 22 17 22H7C3 22 2 21 2 17V15C2 11.66 2.7 10.41 5.25 10.1C5.69 10.04 6.19 10.01 6.75 10H17.25C17.81 10.01 18.31 10.04 18.75 10.1C21.3 10.41 22 11.66 22 15Z" fill="#292D32"/>
</svg>
