<svg viewBox="0 0 24 24" fill="none" xmlns="http://www.w3.org/2000/svg">
<path fill-rule="evenodd" clip-rule="evenodd" d="M17.25 8V9.25149C17.1678 9.25049 17.0845 9.25 17 9.25H7C6.91554 9.25 6.83222 9.25049 6.75 9.25149V8C6.75 4.85 7.64 2.75 12 2.75C16.36 2.75 17.25 4.85 17.25 8ZM5.25 8V9.34221C2.22527 9.70987 1.25 11.2377 1.25 15V17C1.25 21.41 2.59 22.75 7 22.75H17C21.41 22.75 22.75 21.41 22.75 17V15C22.75 11.2377 21.7747 9.70987 18.75 9.34221V8C18.75 5.1 18.05 1.25 12 1.25C5.95 1.25 5.25 5.1 5.25 8ZM7 10.75C3.42 10.75 2.75 11.43 2.75 15V17C2.75 20.57 3.42 21.25 7 21.25H17C20.58 21.25 21.25 20.57 21.25 17V15C21.25 11.43 20.58 10.75 17 10.75H7ZM7.62 16.9199C7.74 16.9699 7.87 16.9999 8 16.9999C8.26 16.9999 8.51999 16.8899 8.70999 16.7099C8.88999 16.5199 9 16.2599 9 15.9999C9 15.8699 8.97001 15.7399 8.92001 15.6199C8.87001 15.4999 8.79999 15.3899 8.70999 15.2899C8.42999 15.0099 7.98 14.9199 7.62 15.0799C7.49 15.1299 7.39001 15.1999 7.29001 15.2899C7.20001 15.3899 7.12999 15.4899 7.07999 15.6199C7.02999 15.7399 7 15.8699 7 15.9999C7 16.2699 7.11001 16.5199 7.29001 16.7099C7.39001 16.7999 7.49 16.8699 7.62 16.9199ZM12 16.9999C11.74 16.9999 11.48 16.8899 11.29 16.7099C11.11 16.5199 11 16.2699 11 15.9999C11 15.8699 11.02 15.7399 11.08 15.6199C11.13 15.4999 11.2 15.3899 11.29 15.2899C11.52 15.0599 11.87 14.9499 12.19 15.0199C12.26 15.0299 12.32 15.0499 12.38 15.0799C12.44 15.0999 12.5 15.1299 12.56 15.1699C12.5933 15.1899 12.6267 15.2188 12.66 15.2477C12.6767 15.2621 12.6933 15.2766 12.71 15.2899C12.8 15.3899 12.87 15.4999 12.92 15.6199C12.97 15.7399 13 15.8699 13 15.9999C13 16.2699 12.89 16.5199 12.71 16.7099L12.56 16.8299C12.5 16.8699 12.44 16.8999 12.38 16.9199C12.32 16.9499 12.26 16.9699 12.19 16.9799C12.13 16.9899 12.06 16.9999 12 16.9999ZM15.29 16.7099C15.48 16.8899 15.73 16.9999 16 16.9999C16.26 16.9999 16.52 16.8899 16.71 16.7099C16.8 16.6099 16.87 16.5099 16.92 16.3799C16.97 16.2599 17 16.1299 17 15.9999C17 15.7299 16.89 15.4799 16.71 15.2899C16.47 15.0599 16.13 14.9499 15.8 15.0199C15.74 15.0299 15.68 15.0499 15.62 15.0799C15.56 15.0999 15.5 15.1299 15.44 15.1699L15.29 15.2899C15.11 15.4799 15 15.7399 15 15.9999C15 16.1299 15.03 16.2599 15.08 16.3799C15.13 16.4999 15.2 16.6099 15.29 16.7099Z" fill="#292D32"/>
</svg>
