<svg viewBox="0 0 24 24" fill="none" xmlns="http://www.w3.org/2000/svg">
<path fill-rule="evenodd" clip-rule="evenodd" d="M18.75 10.1V8C18.75 5.1 18.05 1.25 12 1.25C5.95 1.25 5.25 5.1 5.25 8V10.1C5.69 10.04 6.19 10.01 6.75 10V8C6.75 4.85 7.64 2.75 12 2.75C16.36 2.75 17.25 4.85 17.25 8V10C17.81 10.01 18.31 10.04 18.75 10.1ZM17.25 10.1016C17.81 10.1116 18.31 10.1416 18.75 10.2016C21.3 10.5116 22 11.7616 22 15.1016V17.1016C22 21.1016 21 22.1016 17 22.1016H7C3 22.1016 2 21.1016 2 17.1016V15.1016C2 11.7616 2.7 10.5116 5.25 10.2016C5.69 10.1416 6.19 10.1116 6.75 10.1016H17.25ZM8 17.1016C8.26 17.1016 8.52 16.9916 8.71 16.8116C8.89 16.6216 9 16.3616 9 16.1016C9 15.9716 8.97 15.8416 8.92 15.7216C8.87 15.6016 8.8 15.4916 8.71 15.3916C8.43 15.1116 7.99 15.0216 7.62 15.1816C7.49 15.2316 7.39 15.3016 7.29 15.3916C7.2 15.4916 7.13 15.6016 7.08 15.7216C7.03 15.8416 7 15.9716 7 16.1016C7 16.3616 7.11 16.6216 7.29 16.8116C7.39 16.9016 7.49 16.9716 7.62 17.0216C7.74 17.0716 7.87 17.1016 8 17.1016ZM12.71 16.8116C12.8 16.7116 12.87 16.6016 12.92 16.4816C12.97 16.3616 13 16.2316 13 16.1016C13 15.8316 12.89 15.5816 12.71 15.3916C12.33 15.0216 11.66 15.0216 11.29 15.3916C11.11 15.5816 11 15.8316 11 16.1016C11 16.2316 11.03 16.3616 11.08 16.4816C11.13 16.6016 11.2 16.7116 11.29 16.8116C11.48 16.9916 11.73 17.1016 12 17.1016C12.26 17.1016 12.52 16.9916 12.71 16.8116ZM16 17.1016C16.26 17.1016 16.52 16.9916 16.71 16.8116C16.89 16.6216 17 16.3616 17 16.1016C17 16.0416 16.99 15.9716 16.98 15.9016C16.97 15.8416 16.95 15.7816 16.92 15.7216C16.9 15.6616 16.87 15.6016 16.83 15.5516C16.79 15.4916 16.75 15.4416 16.71 15.3916L16.71 15.3916C16.34 15.0216 15.67 15.0216 15.29 15.3916C15.11 15.5816 15 15.8316 15 16.1016C15 16.3716 15.11 16.6216 15.29 16.8116C15.48 16.9916 15.74 17.1016 16 17.1016Z" fill="#292D32"/>
</svg>
