<svg viewBox="0 0 24 24" fill="none" xmlns="http://www.w3.org/2000/svg">
<path fill-rule="evenodd" clip-rule="evenodd" d="M16.7673 6.14559L2.23086 20.6899C1.93086 20.9899 1.93086 21.4799 2.23086 21.7799C2.38086 21.9199 2.57086 21.9999 2.77086 21.9999C2.97086 21.9999 3.16086 21.9199 3.31086 21.7699L21.7709 3.30988C22.0809 3.00988 22.0809 2.52988 21.7709 2.22988C21.4709 1.92988 20.9809 1.92988 20.6809 2.22988L17.8848 5.02748C17.1032 3.01607 15.1303 2 12.0007 2C6.3707 2 5.7207 5.58 5.7207 8.28V9.53C6.1407 9.48 6.6107 9.45 7.1207 9.45V8.28C7.1207 5.35 7.9507 3.4 12.0007 3.4C15.397 3.4 16.4671 4.69974 16.7673 6.14559ZM13.6308 15.72C13.6308 16.62 12.9008 17.35 12.0008 17.35C11.3608 17.35 10.8108 16.98 10.5508 16.45L12.7308 14.27C13.2608 14.53 13.6308 15.08 13.6308 15.72Z" fill="#292D32"/>
<path opacity="0.4" fill-rule="evenodd" clip-rule="evenodd" d="M2 14.7899C2 10.6899 3.25 9.43994 7.35 9.43994H14.56L11.18 12.8199C10.17 13.0999 9.38 13.8899 9.1 14.8999L3.14 20.8599C2.31 20.0399 2 18.6999 2 16.6499V14.7899ZM21.9999 16.65V14.79C21.9999 11 20.9299 9.64996 17.5399 9.45996L13.7499 13.25C14.5199 13.81 15.0199 14.7 15.0199 15.72C15.0199 17.39 13.6699 18.74 11.9999 18.74C10.9799 18.74 10.0899 18.24 9.52992 17.47L5.16992 21.83C5.77992 21.95 6.50992 22 7.34992 22H16.6499C20.7499 22 21.9999 20.75 21.9999 16.65Z" fill="#292D32"/>
</svg>
