<svg viewBox="0 0 24 24" fill="none" xmlns="http://www.w3.org/2000/svg">
<path fill-rule="evenodd" clip-rule="evenodd" d="M21.7711 2.23C21.4711 1.93 20.9811 1.93 20.6811 2.23L17.8711 5.04C17.1011 3.02 15.1311 2 12.0011 2C6.37109 2 5.72109 5.58 5.72109 8.28V9.53H5.75109C2.92109 9.87 2.00109 11.28 2.00109 14.79V16.65C2.00109 18.25 2.19109 19.41 2.67109 20.24L2.22109 20.69C1.92109 20.99 1.92109 21.48 2.22109 21.78C2.38109 21.92 2.57109 22 2.77109 22C2.97109 22 3.16109 21.92 3.31109 21.77L21.7711 3.31C22.0811 3.01 22.0811 2.53 21.7711 2.23ZM7.35109 9.44H7.12109V8.28C7.12109 5.35 7.95109 3.4 12.0011 3.4C15.4011 3.4 16.4711 4.7 16.7711 6.15L13.4811 9.44H7.35109ZM13.6308 15.7195C13.6308 16.6195 12.9008 17.3495 12.0008 17.3495C11.3608 17.3495 10.8108 16.9795 10.5508 16.4495L12.7308 14.2695C13.2608 14.5295 13.6308 15.0795 13.6308 15.7195ZM22.0005 16.649V14.789C22.0005 14.279 21.9805 13.809 21.9405 13.389C21.9205 13.219 21.9005 13.059 21.8805 12.909C21.8723 12.8649 21.8648 12.8216 21.8574 12.779C21.838 12.6671 21.8195 12.5604 21.7905 12.459C21.7505 12.259 21.7005 12.069 21.6405 11.899L21.6405 11.8989C21.5905 11.759 21.5405 11.619 21.4805 11.489C21.4205 11.359 21.3605 11.239 21.2905 11.129C21.2205 10.999 21.1305 10.879 21.0405 10.769C20.8605 10.559 20.6705 10.379 20.4405 10.229C20.2105 10.079 19.9605 9.949 19.6705 9.839C19.5205 9.789 19.3705 9.739 19.2105 9.699C19.0505 9.659 18.8805 9.619 18.7105 9.589C18.6287 9.5708 18.5385 9.56088 18.4551 9.55171C18.4469 9.5508 18.4387 9.5499 18.4305 9.549C17.9205 9.509 17.4105 9.669 17.0105 9.999C16.9605 10.039 16.9205 10.079 16.8705 10.129L13.7505 13.249C13.8505 13.319 13.9505 13.399 14.0305 13.479C14.7905 14.179 15.1905 15.219 14.9505 16.369C14.9305 16.459 14.9105 16.549 14.8705 16.639C14.8505 16.729 14.8205 16.809 14.7805 16.889C14.7105 17.089 14.6005 17.279 14.4705 17.459C14.4305 17.529 14.3805 17.589 14.3305 17.639C14.2105 17.789 14.0705 17.929 13.9205 18.049C13.8705 18.099 13.8105 18.149 13.7405 18.189C13.5605 18.319 13.3705 18.429 13.1705 18.499C13.0905 18.539 13.0105 18.569 12.9205 18.589C12.8305 18.629 12.7405 18.649 12.6505 18.669C11.5005 18.909 10.4605 18.509 9.76054 17.749L9.76053 17.749C9.68053 17.659 9.60054 17.569 9.53054 17.469L6.71054 20.289C6.08054 20.919 6.52054 21.999 7.41054 21.999H16.6505C20.7505 21.999 22.0005 20.749 22.0005 16.649Z" fill="#292D32"/>
</svg>
