<svg viewBox="0 0 24 24" fill="none" xmlns="http://www.w3.org/2000/svg">
<path fill-rule="evenodd" clip-rule="evenodd" d="M1.25 12C1.25 17.93 6.07 22.75 12 22.75C17.93 22.75 22.75 17.93 22.75 12C22.75 6.07 17.93 1.25 12 1.25C6.07 1.25 1.25 6.07 1.25 12ZM2.75 12C2.75 6.9 6.9 2.75 12 2.75C17.1 2.75 21.25 6.9 21.25 12C21.25 17.1 17.1 21.25 12 21.25C6.9 21.25 2.75 17.1 2.75 12ZM15.75 10V10.3557C17.2036 10.6479 17.75 11.5758 17.75 13.5V14.5C17.75 16.9 16.9 17.75 14.5 17.75H9.5C7.1 17.75 6.25 16.9 6.25 14.5V13.5C6.25 11.5758 6.79641 10.6479 8.25 10.3557V10C8.25 9.07 8.25 6.25 12 6.25C15.75 6.25 15.75 9.07 15.75 10ZM14.25 10.25H9.75V10C9.75 8.54 10.11 7.75 12 7.75C13.89 7.75 14.25 8.54 14.25 10V10.25ZM10.6504 13.9999C10.6504 14.7399 11.2604 15.3499 12.0004 15.3499C12.7404 15.3499 13.3503 14.7399 13.3503 13.9999C13.3503 13.2599 12.7404 12.6499 12.0004 12.6499C11.2604 12.6499 10.6504 13.2599 10.6504 13.9999ZM11.8503 13.9999C11.8503 13.9199 11.9204 13.8499 12.0004 13.8499C12.0804 13.8499 12.1504 13.9199 12.1504 13.9999C12.1504 14.1699 11.8503 14.1699 11.8503 13.9999ZM9.5 11.75C7.91 11.75 7.75 11.91 7.75 13.5V14.5C7.75 16.09 7.91 16.25 9.5 16.25H14.5C16.09 16.25 16.25 16.09 16.25 14.5V13.5C16.25 11.91 16.09 11.75 14.5 11.75H9.5Z" fill="#292D32"/>
</svg>
