<svg viewBox="0 0 24 24" fill="none" xmlns="http://www.w3.org/2000/svg">
<path fill-rule="evenodd" clip-rule="evenodd" d="M5.25 8V9.34221C2.22527 9.70987 1.25 11.2377 1.25 15V17C1.25 18.9043 1.47541 20.0936 2.00848 20.9309L1.46945 21.4699C1.17945 21.7599 1.17945 22.2399 1.46945 22.5299C1.61945 22.6799 1.80945 22.7499 1.99945 22.7499C2.18945 22.7499 2.37945 22.6799 2.52945 22.5299L14.3194 10.74H16.99C17.33 10.74 17.65 10.74 17.95 10.76C20.5 10.91 21.24 11.48 21.24 14.99V16.99C21.24 20.56 20.56 21.24 16.99 21.24H6.99C6.65 21.24 6.33 21.24 6.03 21.22C5.61 21.22 5.26 21.52 5.24 21.93C5.22 22.34 5.54 22.7 5.95 22.72C6.28 22.74 6.63 22.75 7 22.75H17C21.41 22.75 22.75 21.41 22.75 17V15C22.75 11.46 22 9.5 18.04 9.28C17.72 9.26 17.37 9.25 17 9.25H15.8094L22.5295 2.52994C22.8195 2.23994 22.8195 1.75994 22.5295 1.46994C22.2395 1.17994 21.7595 1.17994 21.4695 1.46994L18.418 4.52144C17.6736 2.29411 15.6061 1.25 12 1.25C5.95 1.25 5.25 5.1 5.25 8ZM17.1783 5.76109C17.1708 5.7347 17.1647 5.70764 17.16 5.68C16.91 4.16 16.12 2.75 12 2.75C7.64 2.75 6.75 4.85 6.75 8V9.25149C6.83222 9.25049 6.91554 9.25 7 9.25H13.6894L17.1783 5.76109ZM12.1994 10.74H7C3.43 10.74 2.75 11.42 2.75 14.99V16.99C2.75 18.3044 2.86412 19.2136 3.11823 19.8212L12.1994 10.74ZM9.41957 17.98C10.0396 18.79 10.9796 19.25 11.9996 19.25C13.7896 19.25 15.2496 17.79 15.2496 16C15.2496 15.28 15.0196 14.6 14.5796 14.03C14.3296 13.7 13.8596 13.64 13.5296 13.89C13.1996 14.14 13.1396 14.61 13.3896 14.94C13.6296 15.24 13.7496 15.61 13.7496 16C13.7496 16.96 12.9596 17.75 11.9996 17.75C11.4496 17.75 10.9396 17.51 10.6096 17.07C10.3596 16.74 9.88957 16.68 9.55957 16.93C9.22957 17.18 9.16957 17.65 9.41957 17.98Z" fill="#292D32"/>
</svg>
