<svg viewBox="0 0 24 24" fill="none" xmlns="http://www.w3.org/2000/svg">
<path fill-rule="evenodd" clip-rule="evenodd" d="M9.89844 2.86C9.89844 2.38 10.2784 2 10.7584 2C16.6384 2 20.7584 6.13 20.7584 12.02C20.7584 17.91 16.6484 22.02 10.7584 22.02C10.2784 22.02 9.89844 21.63 9.89844 21.16V12.83H13.5584L11.9984 14.39C11.7084 14.68 11.7084 15.16 11.9984 15.45C12.1484 15.6 12.3384 15.67 12.5284 15.67C12.7184 15.67 12.9084 15.6 13.0584 15.45L15.8984 12.6C16.1884 12.31 16.1884 11.83 15.8984 11.54L13.0584 8.69C12.7684 8.4 12.2884 8.4 11.9984 8.69C11.7084 8.98 11.7084 9.46 11.9984 9.75L13.5684 11.32H9.89844V2.86ZM3.23828 12.0703C3.23828 11.6603 3.57828 11.3203 3.98828 11.3203H9.88828V12.8203H3.98828C3.57828 12.8203 3.23828 12.4803 3.23828 12.0703Z" fill="#292D32"/>
</svg>
