<svg viewBox="0 0 24 24" fill="none" xmlns="http://www.w3.org/2000/svg">
<path fill-rule="evenodd" clip-rule="evenodd" d="M8.62047 11.32C8.21047 11.32 7.87047 11.66 7.87047 12.07C7.87047 12.48 8.20047 12.82 8.62047 12.81H14.0905V21.14C14.0905 21.62 13.7005 22 13.2305 22C7.34047 22 3.23047 17.89 3.23047 12C3.23047 6.11 7.34047 2 13.2305 2C13.7105 2 14.0905 2.38 14.1005 2.86V11.32H8.62047ZM17.7016 8.69016L20.5416 11.5402C20.8316 11.8302 20.8316 12.3002 20.5316 12.5802L17.6916 15.4302C17.5416 15.5802 17.3516 15.6502 17.1616 15.6502C16.9716 15.6502 16.7816 15.5802 16.6316 15.4302C16.3416 15.1402 16.3416 14.6602 16.6316 14.3702L18.1916 12.8102H14.1016V11.3102H18.2016L16.6416 9.75016C16.3516 9.46016 16.3516 8.98016 16.6416 8.69016C16.9316 8.40016 17.4116 8.40016 17.7016 8.69016Z" fill="#292D32"/>
</svg>
