<svg viewBox="0 0 24 24" fill="none" xmlns="http://www.w3.org/2000/svg">
<path fill-rule="evenodd" clip-rule="evenodd" d="M14.2 2H16.8C20 2 22 4 21.99 7.2V16.8C21.99 20 19.99 22 16.79 22H14.2C11 22 9 20 9 16.8V12.75H15.25C15.66 12.75 16 12.41 16 12C16 11.59 15.66 11.25 15.25 11.25H9.00141V12.7498H4.56141L6.63141 14.8198C6.92141 15.1098 6.92141 15.5898 6.63141 15.8798C6.34141 16.1698 5.86141 16.1698 5.57141 15.8798L2.22141 12.5298C1.93141 12.2398 1.93141 11.7598 2.22141 11.4698L5.57141 8.11984C5.86141 7.82984 6.34141 7.82984 6.63141 8.11984C6.78141 8.25984 6.85141 8.45984 6.85141 8.64984C6.85141 8.83984 6.78141 9.02984 6.63141 9.17984L4.56141 11.2498H9V7.2C9 4 11 2 14.2 2Z" fill="#292D32"/>
</svg>
