<svg viewBox="0 0 24 24" fill="none" xmlns="http://www.w3.org/2000/svg">
<path fill-rule="evenodd" clip-rule="evenodd" d="M3.00977 12C3.00977 17.15 6.60977 20.75 11.7598 20.75C12.1698 20.75 12.5098 20.41 12.5098 20C12.5098 19.59 12.1698 19.25 11.7598 19.25C7.48977 19.25 4.50977 16.27 4.50977 12C4.50977 7.73 7.48977 4.75 11.7598 4.75C12.1698 4.75 12.5098 4.41 12.5098 4C12.5098 3.59 12.1698 3.25 11.7598 3.25C6.60977 3.25 3.00977 6.85 3.00977 12ZM17.4409 15.3699C17.2509 15.3699 17.0609 15.2999 16.9109 15.1499C16.6209 14.8599 16.6209 14.3799 16.9109 14.0899L18.1907 12.8101H9.75977C9.34977 12.8101 9.00977 12.4701 9.00977 12.0601C9.00977 11.6501 9.34977 11.3101 9.75977 11.3101H18.191L16.9109 10.0299C16.6209 9.73994 16.6209 9.25994 16.9109 8.96994C17.2009 8.67994 17.6809 8.67994 17.9709 8.96994L20.5309 11.5299C20.8209 11.8199 20.8209 12.2999 20.5309 12.5899L17.9709 15.1499C17.8209 15.2999 17.6309 15.3699 17.4409 15.3699Z" fill="#292D32"/>
</svg>
