<svg viewBox="0 0 24 24" fill="none" xmlns="http://www.w3.org/2000/svg">
<path fill-rule="evenodd" clip-rule="evenodd" d="M20.3 8.66156C20.52 8.72156 20.75 8.57156 20.75 8.34156C20.75 5.44156 18.42 3.10156 15.55 3.10156C13.85 3.10156 12.34 3.92156 11.38 5.19156C10.43 3.92156 8.92 3.10156 7.21 3.10156C4.33 3.10156 2 5.44156 2 8.34156C2 14.9116 8.08 18.7716 10.81 19.7016C10.9 19.7416 10.96 19.6216 10.89 19.5516C9.53 18.1416 8.18 16.0316 8.18 13.2116C8.18 10.6116 10.28 8.50156 12.86 8.50156C13.87 8.50156 14.83 8.82156 15.62 9.40156C15.83 9.56156 16.13 9.56156 16.35 9.40156C17.47 8.60156 18.95 8.31156 20.3 8.66156ZM16.0308 11.3002C16.6608 10.4602 17.6708 9.91016 18.8008 9.91016C20.7108 9.91016 22.2608 11.4702 22.2508 13.3902C22.2508 14.1302 22.1408 14.8102 21.9308 15.4502C20.9508 18.5702 17.9108 20.4302 16.4108 20.9402C16.2008 21.0102 15.8508 21.0102 15.6408 20.9402C14.1408 20.4302 11.1008 18.5602 10.1208 15.4502C9.92078 14.8202 9.80078 14.1302 9.80078 13.3902C9.80078 11.4702 11.3508 9.91016 13.2608 9.91016C14.3908 9.91016 15.4008 10.4602 16.0308 11.3002Z" fill="#292D32"/>
</svg>
