<svg viewBox="0 0 24 24" fill="none" xmlns="http://www.w3.org/2000/svg">
<path fill-rule="evenodd" clip-rule="evenodd" d="M10.12 19.6201C10.35 19.7101 10.63 19.7501 10.92 19.7501C11.1092 19.7501 11.2945 19.7342 11.4707 19.7024C12.6459 20.6691 13.8746 21.2849 14.6606 21.55C14.8506 21.62 15.0906 21.65 15.3206 21.65C15.5506 21.65 15.7806 21.62 15.9806 21.56C18.6006 20.67 22.7606 17.49 22.7606 12.75C22.7606 11.1551 21.9176 9.68863 20.5769 8.88297C20.599 8.615 20.61 8.35071 20.61 8.09009C20.61 4.92009 18.05 2.3501 14.9 2.3501C13.39 2.3501 11.99 2.93008 10.93 3.96008C9.87999 2.93008 8.46999 2.3501 6.95999 2.3501C3.80999 2.3501 1.25 4.92009 1.25 8.09009C1.25 14.2701 6.7 18.4501 10.12 19.6201ZM9.38586 12.561C9.48286 10.9989 10.7728 9.7601 12.34 9.7601C13.28 9.7601 14.15 10.1901 14.72 10.9501C14.86 11.1401 15.08 11.2501 15.32 11.2501C15.51 11.2401 15.78 11.1401 15.92 10.9501C16.72 9.8801 18.25 9.4801 19.48 10.0101C19.5092 10.0221 19.539 10.0323 19.5691 10.0407C20.589 10.5302 21.2506 11.5831 21.2506 12.74C21.2506 17.17 16.9806 19.62 15.4806 20.13C15.4106 20.16 15.2206 20.16 15.1406 20.13C14.4106 19.89 13.2406 19.28 12.1306 18.3C10.8706 17.19 9.38062 15.34 9.38062 12.74C9.38062 12.6799 9.38238 12.6202 9.38586 12.561ZM15.3204 9.38086C16.3299 8.4873 17.7646 8.08094 19.1 8.33008V8.1001C19.1 5.7601 17.21 3.86008 14.89 3.86008C13.56 3.86008 12.33 4.48008 11.52 5.55008C11.38 5.74008 11.16 5.8501 10.92 5.8501C10.68 5.8501 10.46 5.74008 10.32 5.55008C9.53001 4.47008 8.29999 3.8501 6.95999 3.8501C4.63999 3.8501 2.75 5.75009 2.75 8.09009C2.75 13.3201 7.10001 16.5401 9.60001 17.7801C8.65001 16.5101 7.87 14.8301 7.87 12.7401C7.87 10.2634 9.86471 8.2554 12.3203 8.2501C12.3235 8.2501 12.3267 8.25009 12.33 8.25009C13.45 8.25009 14.5 8.66011 15.31 9.39011C15.3135 9.38702 15.3169 9.38394 15.3204 9.38086Z" fill="#292D32"/>
</svg>
