<svg viewBox="0 0 24 24" fill="none" xmlns="http://www.w3.org/2000/svg">
<path fill-rule="evenodd" clip-rule="evenodd" d="M17.2203 7.93004L17.2903 4.14004C17.3303 2.09004 16.0003 1.39004 14.3303 2.58004L11.2503 4.80004C10.8303 5.11004 10.0803 5.22004 9.58027 5.06004L6.63027 4.09004C4.74027 3.47004 3.68027 4.52004 4.27027 6.42004L5.29027 9.66004C5.46027 10.2 5.29027 11 4.92027 11.43L2.94027 13.73C1.38027 15.55 2.06027 16.93 4.45027 16.81L7.79027 16.64C8.39027 16.61 9.15027 17 9.47027 17.52L11.2303 20.37C12.4903 22.41 14.0103 22.18 14.6203 19.86L15.3903 16.92C15.5303 16.37 16.1003 15.78 16.6403 15.61L19.8703 14.6C21.7703 14 22.0303 12.53 20.4403 11.33L17.9603 9.45004C17.5403 9.14004 17.2103 8.45004 17.2203 7.93004ZM18.4103 17.4402L21.4403 20.4702C21.7303 20.7602 21.7303 21.2402 21.4403 21.5302C21.2903 21.6802 21.1003 21.7502 20.9103 21.7502C20.7203 21.7502 20.5303 21.6802 20.3803 21.5302L17.3503 18.5002C17.0603 18.2102 17.0603 17.7302 17.3503 17.4402C17.6403 17.1502 18.1203 17.1502 18.4103 17.4402Z" fill="#292D32"/>
</svg>
