<svg viewBox="0 0 24 24" fill="none" xmlns="http://www.w3.org/2000/svg">
<path fill-rule="evenodd" clip-rule="evenodd" d="M10.5903 20.75C11.4803 22.21 12.4103 22.5 13.0103 22.5C13.1103 22.5 13.2003 22.49 13.2703 22.47C13.8303 22.39 14.8303 21.96 15.3403 20.03L16.1102 17.09C16.1902 16.79 16.5602 16.4 16.8602 16.31L20.0903 15.3C21.7103 14.8 22.1103 13.84 22.2003 13.31C22.2903 12.78 22.2403 11.75 20.8903 10.72L18.4102 8.84003C18.1902 8.67003 17.9602 8.21002 17.9702 7.93002L18.0402 4.14005C18.0702 2.40005 17.2702 1.72003 16.8002 1.47003C16.3302 1.22003 15.3103 0.950032 13.9003 1.97003L10.8203 4.19003C10.5903 4.35003 10.0903 4.43003 9.82026 4.34003L6.87025 3.37003C5.25025 2.83003 4.37024 3.38004 3.99025 3.76004C3.61025 4.14004 3.04024 5.01004 3.55024 6.63004L4.56025 9.86002C4.65025 10.16 4.54028 10.68 4.34028 10.92L2.36024 13.22C1.06024 14.74 1.28028 15.81 1.53028 16.31C1.78028 16.81 2.48024 17.64 4.48024 17.54L7.82026 17.37C8.14026 17.35 8.66027 17.62 8.83027 17.9L10.5903 20.75ZM10.1002 17.11C9.66023 16.39 8.71023 15.87 7.85023 15.87C7.82023 15.87 7.78025 15.87 7.74025 15.86L4.40028 16.03C3.45028 16.08 2.97025 15.85 2.87025 15.64C2.76025 15.43 2.86025 14.92 3.49025 14.19L5.47023 11.89C6.01023 11.27 6.23024 10.2 5.98024 9.41003L4.97023 6.18002C4.78023 5.56002 4.80028 5.06002 5.03028 4.83002C5.26028 4.60002 5.76026 4.59004 6.38026 4.79004L9.33027 5.76004C10.0603 6.00004 11.0702 5.84002 11.6802 5.40002L14.7603 3.18002C15.3103 2.79002 15.8003 2.64004 16.0903 2.79004C16.3803 2.94004 16.5403 3.44002 16.5303 4.11002L16.4603 7.90002C16.4503 8.66002 16.8903 9.58004 17.5003 10.04L19.9802 11.92C20.5002 12.32 20.7802 12.74 20.7202 13.06C20.6602 13.38 20.2603 13.69 19.6403 13.88L16.4102 14.89C15.6202 15.13 14.8702 15.92 14.6602 16.72L13.8903 19.66C13.6403 20.58 13.2802 20.96 13.0502 20.99C12.8102 21.03 12.3602 20.78 11.8602 19.96L10.1002 17.11ZM21.3803 22.5302C21.5303 22.6802 21.7203 22.7502 21.9103 22.7502C22.1003 22.7502 22.2903 22.6802 22.4403 22.5302C22.7303 22.2402 22.7303 21.7602 22.4403 21.4702L19.4103 18.4402C19.1203 18.1502 18.6403 18.1502 18.3503 18.4402C18.0603 18.7302 18.0603 19.2102 18.3503 19.5002L21.3803 22.5302Z" fill="#292D32"/>
</svg>
