<svg viewBox="0 0 24 24" fill="none" xmlns="http://www.w3.org/2000/svg">
<path fill-rule="evenodd" clip-rule="evenodd" d="M7 21.25H17C20.65 21.25 22.75 19.15 22.75 15.5V8.5C22.75 4.85 20.65 2.75 17 2.75H7C3.35 2.75 1.25 4.85 1.25 8.5V15.5C1.25 19.15 3.35 21.25 7 21.25ZM2.75 8.5C2.75 5.64 4.14 4.25 7 4.25H17C19.86 4.25 21.25 5.64 21.25 8.5V15.5C21.25 18.36 19.86 19.75 17 19.75H7C4.14 19.75 2.75 18.36 2.75 15.5V8.5ZM9.6588 12.08C10.3088 12.61 11.1588 12.87 11.9988 12.87C12.8388 12.87 13.6888 12.61 14.3288 12.08L17.4588 9.57997C17.7888 9.32997 17.8388 8.84997 17.5788 8.52997C17.3288 8.19997 16.8488 8.14997 16.5288 8.40997L13.3988 10.91C12.6388 11.52 11.3488 11.52 10.5888 10.91L7.45881 8.40997C7.13881 8.14997 6.66881 8.20997 6.4088 8.52997C6.14881 8.84997 6.2088 9.31997 6.5288 9.57997L9.6588 12.08Z" fill="#292D32"/>
</svg>
