<svg viewBox="0 0 24 24" fill="none" xmlns="http://www.w3.org/2000/svg">
<path fill-rule="evenodd" clip-rule="evenodd" d="M7 21.25H12C12.41 21.25 12.75 20.91 12.75 20.5C12.75 20.09 12.41 19.75 12 19.75H7C4.14 19.75 2.75 18.36 2.75 15.5V8.5C2.75 5.64 4.14 4.25 7 4.25H17C19.86 4.25 21.25 5.64 21.25 8.5V11.5C21.25 11.91 21.59 12.25 22 12.25C22.41 12.25 22.75 11.91 22.75 11.5V8.5C22.75 4.85 20.65 2.75 17 2.75H7C3.35 2.75 1.25 4.85 1.25 8.5V15.5C1.25 19.15 3.35 21.25 7 21.25ZM9.6588 12.08C10.3088 12.61 11.1588 12.87 11.9988 12.87C12.8388 12.87 13.6888 12.61 14.3288 12.08L17.4588 9.57996C17.7888 9.32996 17.8388 8.84997 17.5788 8.52997C17.3188 8.19997 16.8488 8.14997 16.5288 8.40997L13.3988 10.91C12.6388 11.52 11.3488 11.52 10.5888 10.91L7.45879 8.40997C7.13879 8.15997 6.66881 8.20997 6.4088 8.52997C6.14881 8.84997 6.2088 9.31996 6.5288 9.57996L9.6588 12.08ZM15.8196 21.7801C15.4396 21.7801 15.0796 21.6401 14.8196 21.3801C14.5096 21.0701 14.3696 20.6201 14.4396 20.1501L14.6296 18.8001C14.6796 18.4501 14.8896 18.0301 15.1396 17.7801L18.1538 14.7658C18.1679 14.7506 18.1826 14.7358 18.198 14.7217L18.6796 14.2401C19.1596 13.7601 19.6296 13.5101 20.1396 13.4601C20.7596 13.4001 21.3796 13.6601 21.9596 14.2401C22.5396 14.8201 22.7996 15.4301 22.7396 16.0601C22.6896 16.5601 22.4296 17.0401 21.9596 17.5201L18.4196 21.0601C18.1696 21.3101 17.7496 21.5201 17.3996 21.5701L16.0495 21.7601L16.0257 21.7631L16.0256 21.7631C15.9553 21.772 15.8915 21.7801 15.8196 21.7801ZM18.474 16.5656L16.1996 18.8401C16.1696 18.8701 16.1196 18.9701 16.1196 19.0101L15.9396 20.2601L17.1896 20.0801C17.2296 20.0701 17.3295 20.0201 17.3595 19.9901L19.6278 17.7218C19.1685 17.4204 18.7745 17.0257 18.474 16.5656ZM20.7277 16.622C20.2239 16.3806 19.8138 15.9715 19.5712 15.4684L19.7396 15.3001C19.9496 15.0901 20.1396 14.9601 20.2796 14.9501H20.3096C20.5096 14.9501 20.7396 15.1401 20.8996 15.3001C21.0696 15.4701 21.2696 15.7101 21.2496 15.9101C21.2396 16.0501 21.1096 16.2301 20.8996 16.4501L20.7277 16.622Z" fill="#292D32"/>
</svg>
