<svg viewBox="0 0 24 24" fill="none" xmlns="http://www.w3.org/2000/svg">
<path fill-rule="evenodd" clip-rule="evenodd" d="M7 3.44922H17C20 3.44922 22 4.94922 22 8.44922V12.8392C22 13.5292 21.32 13.9992 20.67 13.7792C19.6 13.4092 18.39 13.3592 17.14 13.7592C16.39 13.9992 15.7 14.4192 15.14 14.9692C13.78 16.2992 13.28 17.9492 13.42 19.4792C13.48 20.0592 12.98 20.5492 12.4 20.5492H6.14C3.85 20.5492 2 18.6992 2 16.4092V8.44922C2 4.94922 4 3.44922 7 3.44922ZM14.34 11.5392L17.47 9.03922C17.79 8.77922 17.84 8.30922 17.58 7.97922C17.33 7.64922 16.85 7.59922 16.53 7.85922L13.4 10.3592C12.64 10.9692 11.35 10.9692 10.59 10.3592L7.46 7.85922C7.14 7.59922 6.67 7.65922 6.41 7.97922C6.16 8.30922 6.21 8.77922 6.53 9.03922L9.66 11.5392C10.31 12.0692 11.16 12.3292 12 12.3292C12.84 12.3292 13.68 12.0692 14.34 11.5392ZM21.9 20.6989L22.65 21.4489C22.95 21.7489 22.95 22.2289 22.65 22.5189C22.5 22.6689 22.31 22.7389 22.11 22.7389C21.91 22.7389 21.72 22.6689 21.57 22.5189L20.82 21.7689C20.23 22.1589 19.52 22.3889 18.76 22.3889C16.68 22.3889 15 20.6989 15 18.6289C15 16.5589 16.68 14.8789 18.76 14.8789C20.84 14.8789 22.52 16.5589 22.52 18.6389C22.52 19.3989 22.29 20.1089 21.9 20.6989Z" fill="#292D32"/>
</svg>
