<svg viewBox="0 0 24 24" fill="none" xmlns="http://www.w3.org/2000/svg">
<path fill-rule="evenodd" clip-rule="evenodd" d="M9.66076 11.08C10.3108 11.61 11.1608 11.87 12.0008 11.87C12.8408 11.87 13.6907 11.61 14.3307 11.08L17.4607 8.57996C17.7907 8.32996 17.8407 7.84997 17.5807 7.52997C17.3307 7.19997 16.8508 7.14997 16.5308 7.40997L13.4007 9.90997C12.6407 10.52 11.3508 10.52 10.5908 9.90997L7.46075 7.40997C7.14075 7.14997 6.67076 7.20997 6.41076 7.52997C6.15076 7.84997 6.21075 8.31996 6.53075 8.57996L9.66076 11.08ZM13 18C13 15.23 15.24 13 18 13C20.77 13 23 15.23 23 18C23 20.76 20.77 23 18 23C15.24 23 13 20.76 13 18ZM19.68 17.91L20.05 17.55C20.49 17.11 20.7 16.6 20.04 15.94C19.74 15.65 19.47 15.54 19.23 15.54C18.95 15.54 18.68 15.7 18.44 15.94L18.08 16.31L15.9 18.48C15.8 18.58 15.71 18.77 15.69 18.91L15.55 19.89C15.5 20.24 15.75 20.49 16.1 20.44L17.08 20.3C17.22 20.28 17.41 20.18 17.51 20.09L19.68 17.91Z" fill="#292D32"/>
<path opacity="0.4" d="M7 3H17C20 3 22 4.5 22 8V11.14C22 11.87 21.25 12.33 20.58 12.04C19.48 11.56 18.23 11.38 16.92 11.59C14.3 12.02 12.16 14.09 11.63 16.69C11.48 17.45 11.46 18.19 11.56 18.9C11.64 19.49 11.16 20.01 10.57 20.01H7C4 20.01 2 18.51 2 15.01V8.01001C2 4.50001 4 3 7 3Z" fill="#292D32"/>
</svg>
