<svg viewBox="0 0 24 24" fill="none" xmlns="http://www.w3.org/2000/svg">
<path fill-rule="evenodd" clip-rule="evenodd" d="M7 21.25H12C12.41 21.25 12.75 20.91 12.75 20.5C12.75 20.09 12.41 19.75 12 19.75H7C4.14 19.75 2.75 18.36 2.75 15.5V8.5C2.75 5.64 4.14 4.25 7 4.25H17C19.86 4.25 21.25 5.64 21.25 8.5V11.5C21.25 11.91 21.59 12.25 22 12.25C22.41 12.25 22.75 11.91 22.75 11.5V8.5C22.75 4.85 20.65 2.75 17 2.75H7C3.35 2.75 1.25 4.85 1.25 8.5V15.5C1.25 19.15 3.35 21.25 7 21.25ZM9.6588 12.08C10.3088 12.61 11.1588 12.87 11.9988 12.87C12.8388 12.87 13.6888 12.61 14.3288 12.08L17.4588 9.57996C17.7888 9.32996 17.8388 8.84997 17.5788 8.52997C17.3188 8.19997 16.8488 8.14997 16.5288 8.40997L13.3988 10.91C12.6388 11.52 11.3488 11.52 10.5888 10.91L7.45879 8.40997C7.13879 8.15997 6.66881 8.20997 6.4088 8.52997C6.14881 8.84997 6.2088 9.31996 6.5288 9.57996L9.6588 12.08ZM18.2 22.15C16.02 22.15 14.25 20.38 14.25 18.2C14.25 16.02 16.02 14.25 18.2 14.25C20.38 14.25 22.15 16.02 22.15 18.2C22.15 19.0211 21.8989 19.784 21.4694 20.4161C21.4902 20.4328 21.5102 20.4507 21.5295 20.4699L22.5295 21.4699C22.8195 21.7599 22.8195 22.2399 22.5295 22.5299C22.3794 22.6799 22.1895 22.7499 21.9995 22.7499C21.8095 22.7499 21.6195 22.6799 21.4695 22.5299L20.4695 21.5299C20.4502 21.5107 20.4322 21.4906 20.4155 21.4698C19.7836 21.8991 19.0208 22.15 18.2 22.15ZM18.2 15.75C16.85 15.75 15.75 16.85 15.75 18.2C15.75 19.55 16.85 20.65 18.2 20.65C19.55 20.65 20.65 19.55 20.65 18.2C20.65 16.85 19.55 15.75 18.2 15.75Z" fill="#292D32"/>
</svg>
