<svg viewBox="0 0 24 24" fill="none" xmlns="http://www.w3.org/2000/svg">
<path fill-rule="evenodd" clip-rule="evenodd" d="M9.66076 11.08C10.3108 11.61 11.1608 11.87 12.0008 11.87C12.8408 11.87 13.6907 11.61 14.3307 11.08L17.4607 8.57997C17.7907 8.32997 17.8407 7.84997 17.5807 7.52997C17.3307 7.19997 16.8508 7.14997 16.5308 7.40997L13.4007 9.90997C12.6407 10.52 11.3508 10.52 10.5908 9.90997L7.46075 7.40997C7.14075 7.14997 6.67076 7.20997 6.41076 7.52997C6.15076 7.84997 6.21075 8.31997 6.53075 8.57997L9.66076 11.08ZM1 18C1 15.23 3.24 13 6 13C8.77 13 11 15.24 11 18C11 20.76 8.76 23 6 23C3.24 23 1 20.77 1 18ZM6 15.96H3.95999C3.57999 15.96 3.28 16.27 3.28 16.64C3.28 17.01 3.57999 17.32 3.95999 17.32H6C6.37 17.32 6.67999 17.01 6.67999 16.64C6.67999 16.27 6.38 15.96 6 15.96ZM3.95001 20.04H8.04001C8.42001 20.04 8.72 19.73 8.72 19.36C8.72 18.99 8.42001 18.68 8.04001 18.68H3.95001C3.58001 18.68 3.26999 18.99 3.26999 19.36C3.26999 19.73 3.57001 20.04 3.95001 20.04Z" fill="#292D32"/>
<path opacity="0.4" d="M17 3H7C4 3 2 4.5 2 8V11.14C2 11.87 2.75001 12.33 3.42001 12.04C4.52001 11.56 5.76999 11.38 7.07999 11.59C9.69999 12.02 11.84 14.09 12.37 16.69C12.52 17.45 12.54 18.19 12.44 18.9C12.36 19.49 12.84 20.01 13.43 20.01H17C20 20.01 22 18.51 22 15.01V8.00999C22 4.49999 20 3 17 3Z" fill="#292D32"/>
</svg>
