<svg viewBox="0 0 24 24" fill="none" xmlns="http://www.w3.org/2000/svg">
<path fill-rule="evenodd" clip-rule="evenodd" d="M19.7612 3.38875L19.4812 2.81875C18.9412 1.72875 18.0612 1.72875 17.5212 2.80875L17.2412 3.37875C17.1012 3.65875 16.7412 3.92875 16.4412 3.97875L16.0612 4.03875C14.9212 4.22875 14.6512 5.06875 15.4712 5.89875L15.8212 6.25875C16.0512 6.49875 16.1812 6.95875 16.1112 7.27875L16.0612 7.48875C15.7412 8.86875 16.4712 9.40875 17.6812 8.67875L17.9412 8.52875C18.2512 8.34875 18.7512 8.34875 19.0612 8.52875L19.3212 8.67875C20.5212 9.39876 21.2512 8.86875 20.9412 7.48875L20.8912 7.27875C20.8212 6.95875 20.9512 6.49875 21.1812 6.25875L21.5312 5.90875C22.3512 5.07875 22.0812 4.23875 20.9412 4.04875L20.5612 3.98875C20.2512 3.92875 19.9012 3.66875 19.7612 3.38875ZM18.76 10.09C20.2 10.83 21.21 10.35 21.57 10.09C21.73 9.98 22 10.08 22 10.27V15.5C22 19 20 20.5 17 20.5H7C4 20.5 2 19 2 15.5V8.5C2 5 4 3.5 7 3.5H13.17C13.51 3.5 13.72 3.94 13.62 4.27C13.35 5.1 13.73 6.16 14.42 6.95C14.53 7.08 14.58 7.25 14.55 7.42C14.28 9.05 15.06 9.82 15.43 10.09C15.65 10.25 16.1 10.5 16.74 10.5C17.15 10.5 17.67 10.38 18.24 10.09C18.4 10 18.6 10.01 18.76 10.09ZM12 12.88C12.84 12.88 13.68 12.62 14.34 12.09C14.67 11.83 14.72 11.35 14.45 11.03C14.19 10.7 13.72 10.65 13.4 10.91C12.64 11.52 11.35 11.52 10.59 10.91L7.46 8.41C7.14 8.15 6.67 8.21 6.41 8.53C6.16 8.85 6.21 9.33 6.53 9.59L9.66 12.09C10.31 12.62 11.16 12.88 12 12.88Z" fill="#292D32"/>
</svg>
