<svg viewBox="0 0 24 24" fill="none" xmlns="http://www.w3.org/2000/svg">
<path fill-rule="evenodd" clip-rule="evenodd" d="M19.5 8C20.8807 8 22 6.88071 22 5.5C22 4.11929 20.8807 3 19.5 3C18.1193 3 17 4.11929 17 5.5C17 6.88071 18.1193 8 19.5 8ZM18.45 9.37C19.25 9.57 20.02 9.53 20.72 9.31C21.36 9.1 22 9.6 22 10.26V15.5C22 19 20 20.5 17 20.5H7C4 20.5 2 19 2 15.5V8.5C2 5 4 3.5 7 3.5H14.61C15.25 3.5 15.7 4.1 15.57 4.74C15.46 5.32 15.47 5.96 15.65 6.61C16.02 7.95 17.11 9.02 18.45 9.37ZM14.34 12.09L15.52 11.15C15.84 10.89 15.89 10.41 15.63 10.09C15.38 9.76 14.9 9.71 14.58 9.97L13.4 10.91C12.64 11.52 11.35 11.52 10.59 10.91L7.46 8.41C7.14 8.15 6.67 8.21 6.41 8.53C6.16 8.85 6.21 9.33 6.53 9.59L9.66 12.09C10.31 12.62 11.16 12.88 12 12.88C12.84 12.88 13.68 12.62 14.34 12.09Z" fill="#292D32"/>
</svg>
