<svg viewBox="0 0 24 24" fill="none" xmlns="http://www.w3.org/2000/svg">
<path fill-rule="evenodd" clip-rule="evenodd" d="M7 3H17C20 3 22 4.5 22 8V11.13C22 11.86 21.25 12.32 20.58 12.03C19.48 11.55 18.23 11.37 16.92 11.58C14.3 12.01 12.16 14.08 11.63 16.68C11.48 17.44 11.46 18.18 11.56 18.89C11.64 19.48 11.16 20 10.57 20H7C4 20 2 18.5 2 15V8C2 4.5 4 3 7 3ZM14.34 11.09L17.47 8.59C17.79 8.33 17.84 7.86 17.58 7.53C17.33 7.2 16.85 7.15 16.53 7.41L13.4 9.91C12.64 10.52 11.35 10.52 10.59 9.91L7.46 7.41C7.14 7.15 6.67 7.21 6.41 7.53C6.16 7.86 6.21 8.33 6.53 8.59L9.66 11.09C10.31 11.62 11.16 11.88 12 11.88C12.84 11.88 13.68 11.62 14.34 11.09ZM13 18C13 15.23 15.24 13 18 13C20.77 13 23 15.23 23 18C23 20.76 20.77 23 18 23C15.24 23 13 20.76 13 18ZM19.68 17.91L20.05 17.55C20.49 17.11 20.7 16.6 20.03 15.95C19.73 15.66 19.46 15.55 19.22 15.55C18.94 15.55 18.67 15.71 18.43 15.95L18.07 16.32L15.89 18.49C15.79 18.59 15.7 18.78 15.68 18.92L15.54 19.9C15.49 20.25 15.74 20.5 16.09 20.45L17.07 20.31C17.21 20.29 17.4 20.19 17.5 20.1L19.68 17.91Z" fill="#292D32"/>
</svg>
