<svg viewBox="0 0 24 24" fill="none" xmlns="http://www.w3.org/2000/svg">
<path fill-rule="evenodd" clip-rule="evenodd" d="M17.4681 9.58605C17.7917 9.32754 17.8445 8.85561 17.586 8.53196C17.3275 8.20832 16.8556 8.15551 16.532 8.41401L13.4025 10.9135C12.6462 11.5154 11.3446 11.5155 10.588 10.914L7.46901 8.41474C7.14576 8.15573 6.67375 8.2078 6.41474 8.53105C6.15573 8.85429 6.2078 9.3263 6.53105 9.58531L9.65104 12.0853L9.65289 12.0868C10.9563 13.1244 13.0338 13.1244 14.3372 12.0868L17.4681 9.58605ZM21.9209 20.73L22.6609 21.47C22.9509 21.76 22.9509 22.24 22.6609 22.53C22.5109 22.68 22.3209 22.75 22.1309 22.75C21.9409 22.75 21.7509 22.68 21.6009 22.53L20.8608 21.79C20.2808 22.17 19.5808 22.4 18.8308 22.4C16.7908 22.4 15.1309 20.74 15.1309 18.7C15.1309 16.66 16.7908 15 18.8308 15C20.8708 15 22.5309 16.66 22.5309 18.7C22.5309 19.45 22.3009 20.15 21.9209 20.73Z" fill="#292D32"/>
<path opacity="0.4" d="M17 20.5H7C4 20.5 2 19 2 15.5V8.5C2 5 4 3.5 7 3.5H17C20 3.5 22 5 22 8.5V15.5C22 19 20 20.5 17 20.5Z" fill="#292D32"/>
</svg>
