<svg viewBox="0 0 24 24" fill="none" xmlns="http://www.w3.org/2000/svg">
<path fill-rule="evenodd" clip-rule="evenodd" d="M20.3198 19.2594L15.0602 13.9998L21.2095 7.85052C21.2395 8.21037 21.2495 8.5902 21.2495 9.00001V15C21.2495 16.9096 20.9496 18.2894 20.3198 19.2594ZM20.9356 20.8835C22.1775 19.614 22.7495 17.7508 22.7495 15V9.00001C22.7495 7.91802 22.6527 6.98117 22.4687 6.14185C22.4662 6.12786 22.4633 6.1139 22.46 6.10001C21.7 2.79001 19.33 1.25 15 1.25H9C3.57 1.25 1.25 3.57 1.25 9V15C1.25 19.33 2.79001 21.7 6.10001 22.46L6.10234 22.4604C6.96181 22.6601 7.90121 22.7499 9.00037 22.7499H15.0004C17.7704 22.7499 19.6404 22.1699 20.9104 20.9099C20.919 20.9013 20.9274 20.8925 20.9356 20.8835ZM13.9999 15.0604L19.2598 20.3203C18.2898 20.9501 16.92 21.2499 15.0004 21.2499H9.00037C8.59037 21.2499 8.21038 21.2399 7.85038 21.2099L13.9999 15.0604ZM14.99 2.75999C18.4598 2.75999 20.2098 3.71989 20.8899 6.04958L13.4695 13.47C13.4638 13.4757 13.4582 13.4814 13.4527 13.4873L6.04001 20.9C3.71001 20.21 2.75 18.47 2.75 15V9C2.75 4.39 4.39 2.75 9 2.75V2.75999H14.99ZM9.11897 13.31C8.48896 13.31 7.85895 13.08 7.35895 12.61C5.76895 11.1 5.12898 9.44005 5.50898 7.82005C5.88898 6.16005 7.33896 5.04004 9.11897 5.04004C10.899 5.04004 12.349 6.16005 12.729 7.82005C13.099 9.45005 12.459 11.1 10.869 12.61C10.379 13.07 9.74896 13.31 9.11897 13.31ZM6.96897 8.15004C6.64897 9.51004 7.56896 10.7301 8.39896 11.5201C8.80896 11.91 9.43897 11.91 9.83897 11.5201C10.659 10.7401 11.579 9.52004 11.269 8.15004C10.999 6.96004 9.93896 6.53004 9.11897 6.53004C8.29896 6.53004 7.24897 6.96004 6.96897 8.15004ZM8.15039 8.49023C8.15039 9.04023 8.60039 9.49023 9.15039 9.49023C9.70039 9.49023 10.1604 9.04023 10.1604 8.49023C10.1604 7.94023 9.7104 7.49023 9.1604 7.49023H9.15039C8.59039 7.49023 8.15039 7.94023 8.15039 8.49023Z" fill="#292D32"/>
</svg>
