<svg viewBox="0 0 24 24" fill="none" xmlns="http://www.w3.org/2000/svg">
<path fill-rule="evenodd" clip-rule="evenodd" d="M16.19 2C18.77 2 20.62 3.09 21.46 5.04C21.55 5.22 21.5 5.44 21.35 5.59L5.59 21.35C5.45 21.49 5.23 21.54 5.04 21.46C3.09 20.62 2 18.77 2 16.19V7.81C2 4.6 4.6 2 7.81 2H16.19ZM9.12 12.8C9.63 12.8 10.14 12.62 10.53 12.24C11.54 11.28 12.66 9.75 12.24 7.94C11.86 6.28 10.4 5.54 9.12 5.54C7.84 5.54 6.38 6.28 6 7.93C5.57 9.75 6.69 11.28 7.71 12.24C8.1 12.61 8.61 12.8 9.12 12.8ZM8.14844 8.48828C8.14844 7.93828 8.58844 7.48828 9.14844 7.48828C9.69844 7.48828 10.1484 7.93828 10.1484 8.48828C10.1484 9.03828 9.69844 9.48828 9.14844 9.48828C8.59844 9.48828 8.14844 9.03828 8.14844 8.48828ZM19.4689 20.5295C19.6889 20.7495 19.6589 21.1095 19.3889 21.2595C18.5089 21.7495 17.4389 21.9995 16.1889 21.9995H7.80892C7.51892 21.9995 7.39892 21.6595 7.59892 21.4595L13.6389 15.4195C13.8389 15.2195 14.1489 15.2195 14.3489 15.4195L19.4689 20.5295ZM22.0017 16.1889V7.80892C22.0017 7.51892 21.6617 7.39892 21.4517 7.59892L15.4117 13.6389C15.2117 13.8389 15.2117 14.1489 15.4117 14.3489L20.5317 19.4689C20.7517 19.6789 21.1117 19.6589 21.2617 19.3889C21.7517 18.5189 22.0017 17.4389 22.0017 16.1889Z" fill="#292D32"/>
</svg>
