<svg viewBox="0 0 24 24" fill="none" xmlns="http://www.w3.org/2000/svg">
<path d="M15.7305 6.32994V20.6599C15.3805 20.6699 15.0405 20.6099 14.7705 20.4799L9.52055 17.8499C9.25055 17.7199 8.91055 17.6599 8.56055 17.6699V3.33994C8.91055 3.32994 9.25055 3.38994 9.52055 3.51994L14.7705 6.14994C15.0405 6.27994 15.3805 6.33994 15.7305 6.32994Z" fill="#292D32"/>
<path opacity="0.4" fill-rule="evenodd" clip-rule="evenodd" d="M8.55906 17.6698V3.33984C8.21906 3.34984 7.87906 3.42984 7.62906 3.56984L3.29906 6.04984C2.73906 6.36984 2.28906 7.14984 2.28906 7.77984V17.5098C2.28906 19.4098 3.63906 20.1898 5.27906 19.2498L7.62906 17.9098C7.87906 17.7598 8.21906 17.6798 8.55906 17.6698ZM22.0005 16.2201V6.49006C22.0005 4.59006 20.6505 3.81006 19.0105 4.75006L16.6605 6.09006C16.4105 6.24006 16.0705 6.32006 15.7305 6.33006V20.6601C16.0705 20.6501 16.4105 20.5701 16.6605 20.4301L20.9905 17.9501C21.5505 17.6301 22.0005 16.8501 22.0005 16.2201Z" fill="#292D32"/>
</svg>
