<svg viewBox="0 0 24 24" fill="none" xmlns="http://www.w3.org/2000/svg">
<path fill-rule="evenodd" clip-rule="evenodd" d="M15.6491 21.4102C15.2191 21.4102 14.7891 21.3202 14.4391 21.1502L9.18906 18.5202C8.88906 18.3702 8.29906 18.3802 8.00906 18.5502L5.64906 19.9002C4.62906 20.4802 3.57906 20.5602 2.78906 20.0902C1.98906 19.6302 1.53906 18.6902 1.53906 17.5102V7.79016C1.53906 6.88016 2.13906 5.85016 2.92906 5.40016L7.25906 2.92016C7.98906 2.50016 9.09906 2.47016 9.84906 2.85016L15.0991 5.48016C15.3991 5.63016 15.9791 5.61016 16.2791 5.45016L18.6291 4.11016C19.6491 3.53016 20.6991 3.45016 21.4891 3.92016C22.2891 4.38016 22.7391 5.32016 22.7391 6.50016V16.2302C22.7391 17.1402 22.1391 18.1702 21.3491 18.6202L17.0191 21.1002C16.6391 21.3002 16.1391 21.4102 15.6491 21.4102ZM7.81079 17.0188C7.81088 17.0225 7.811 17.0262 7.81115 17.0299C7.61324 17.0852 7.42606 17.1617 7.25906 17.2602L4.90906 18.6002C4.35906 18.9102 3.85906 18.9902 3.53906 18.8002C3.21906 18.6202 3.03906 18.1502 3.03906 17.5202V7.79016C3.03906 7.42016 3.34906 6.88016 3.66906 6.70016L7.81055 4.32813V17C7.81055 17.0063 7.81063 17.0126 7.81079 17.0188ZM9.31055 16.9944C9.5022 17.038 9.68448 17.1002 9.84906 17.1802L14.9805 19.7507V7.01437C14.7841 6.97016 14.5975 6.9055 14.4291 6.82016L9.31055 4.25602V16.9944ZM17.0191 6.75016C16.8558 6.8441 16.6735 6.91853 16.4805 6.97322V19.6648L20.6091 17.3002C20.9291 17.1202 21.2391 16.5802 21.2391 16.2202V6.49016C21.2391 5.86016 21.0591 5.39016 20.7291 5.21016C20.4091 5.03016 19.9091 5.10016 19.3691 5.41016L17.0191 6.75016Z" fill="#292D32"/>
</svg>
