<svg viewBox="0 0 24 24" fill="none" xmlns="http://www.w3.org/2000/svg">
<path fill-rule="evenodd" clip-rule="evenodd" d="M7.62906 3.56966C7.80845 3.47182 7.99906 3.62235 7.99906 3.82668V17.3825C7.99906 17.6058 7.84665 17.7945 7.64926 17.8988L7.62906 17.9097L5.27906 19.2497C3.63906 20.1897 2.28906 19.4097 2.28906 17.5097V7.77966C2.28906 7.14966 2.73906 6.36966 3.29906 6.04966L7.62906 3.56966ZM14.7219 6.10287C14.8922 6.18723 15 6.36086 15 6.55094V19.7041C15 20.0726 14.615 20.3145 14.283 20.1545L10.033 18.1069C9.85998 18.0236 9.75 17.8485 9.75 17.6565V4.44618C9.75 4.07532 10.1396 3.83353 10.4719 3.99811L14.7219 6.10287ZM22 16.22V6.49004C22 4.59004 20.65 3.81004 19.01 4.75004L17.0021 5.89612C16.8462 5.98511 16.75 6.15085 16.75 6.33036V19.5172C16.75 19.9014 17.1653 20.142 17.4986 19.951L20.99 17.95C21.55 17.63 22 16.85 22 16.22Z" fill="#292D32"/>
</svg>
