<svg viewBox="0 0 24 24" fill="none" xmlns="http://www.w3.org/2000/svg">
<path fill-rule="evenodd" clip-rule="evenodd" d="M20.9396 19.8801L15.0596 14.0001L21.9596 7.1001C21.9196 6.4601 21.7896 5.8801 21.5896 5.3501L5.73959 21.2001L5.34961 21.5901C5.87961 21.7901 6.45961 21.9201 7.09961 21.9601L13.9996 15.0601L19.8796 20.9401C20.2996 20.6501 20.6496 20.3001 20.9396 19.8801ZM9.12078 5.52979C10.4008 5.53979 11.8608 6.27979 12.2408 7.92979C12.6608 9.74979 11.5408 11.2798 10.5308 12.2398C10.1308 12.6098 9.63078 12.7998 9.12078 12.7998C8.61078 12.7998 8.11078 12.6198 7.71078 12.2398C6.70078 11.2798 5.58079 9.74978 6.00079 7.91978C6.38079 6.26978 7.84078 5.52979 9.12078 5.52979ZM8.15078 8.48978C8.15078 9.03978 8.60078 9.48978 9.15078 9.48978C9.70078 9.48978 10.1608 9.03978 10.1608 8.48978C10.1608 7.93978 9.71079 7.48978 9.16079 7.48978H9.15078C8.59078 7.48978 8.15078 7.93978 8.15078 8.48978Z" fill="#292D32"/>
<path opacity="0.4" fill-rule="evenodd" clip-rule="evenodd" d="M20.94 19.88L15.06 14L21.96 7.1C21.92 6.46 21.79 5.88 21.59 5.35C20.81 3.21 18.91 2 16.19 2H7.81C4.17 2 2 4.17 2 7.81V16.19C2 18.91 3.21001 20.81 5.35001 21.59C5.87992 21.79 6.45982 21.92 7.09969 21.96L7.09961 21.9601C7.32961 21.9901 7.5696 22.0001 7.8096 22.0001H16.1896C17.6796 22.0001 18.9296 21.6401 19.8796 20.9401L13.9998 15.0602L14 15.06L19.88 20.94C20.3 20.65 20.65 20.3 20.94 19.88ZM22.0005 7.8101V16.1901C22.0005 17.6801 21.6406 18.9301 20.9406 19.8801L15.0605 14.0001L21.9605 7.1001C21.9905 7.3301 22.0005 7.5701 22.0005 7.8101Z" fill="#292D32"/>
</svg>
