<svg viewBox="0 0 24 24" fill="none" xmlns="http://www.w3.org/2000/svg">
<path fill-rule="evenodd" clip-rule="evenodd" d="M17.3393 20.99L13.515 16.5964C14.2784 16.4445 15.0107 16.1786 15.689 15.812C16.5275 15.3606 17.2844 14.7543 17.9193 14.02L21.2093 17.31C21.2993 17.4 21.2893 17.51 21.2693 17.56C21.2593 17.61 21.2093 17.7 21.0893 17.73L19.4393 18.12C18.7893 18.27 18.2893 18.77 18.1393 19.42L17.7893 20.89C17.7493 21.02 17.6593 21.07 17.5993 21.08C17.5393 21.1 17.4293 21.1 17.3393 20.99ZM19.75 9C19.75 10.3277 19.4155 11.6183 18.7785 12.7692L22.2593 16.25C22.7093 16.7 22.8793 17.36 22.7093 17.97C22.5393 18.58 22.0393 19.05 21.4293 19.19L19.7793 19.58C19.6893 19.6 19.6193 19.67 19.5893 19.77L19.2393 21.24C19.0893 21.89 18.5893 22.39 17.9393 22.54C17.2893 22.7 16.6193 22.47 16.1993 21.96L11.9993 17.13L7.79933 21.97C7.45933 22.37 6.97933 22.59 6.46933 22.59C6.32933 22.59 6.19933 22.57 6.05933 22.54C5.40933 22.39 4.90933 21.89 4.75933 21.24L4.40933 19.77C4.38933 19.68 4.31933 19.61 4.21933 19.58L2.56933 19.19C1.94933 19.04 1.45933 18.58 1.28933 17.97C1.11933 17.36 1.28933 16.7 1.73933 16.25L5.22098 12.7683C4.58433 11.6177 4.25 10.3274 4.25 9C4.25 4.73 7.73 1.25 12 1.25C16.27 1.25 19.75 4.73 19.75 9ZM12.91 15.16C12.6221 15.2137 12.3247 15.2412 12.0212 15.2425C11.7058 15.2432 11.3838 15.2157 11.0593 15.16C9.32933 14.91 7.77933 13.92 6.78933 12.46C6.77497 12.439 6.75977 12.4189 6.74377 12.3996C6.0937 11.395 5.75 10.2214 5.75 9C5.75 5.55 8.55 2.75 12 2.75C15.45 2.75 18.25 5.54999 18.24 8.98999C18.24 10.24 17.88 11.44 17.2 12.46C16.21 13.92 14.66 14.91 12.91 15.16ZM6.08933 14.03L2.79933 17.32C2.70933 17.41 2.71933 17.51 2.73933 17.57C2.74933 17.62 2.79933 17.72 2.91933 17.74L4.56933 18.13C5.21933 18.28 5.71933 18.78 5.86933 19.43L6.21933 20.9C6.24933 21.03 6.34933 21.07 6.40933 21.09C6.46933 21.1 6.56933 21.11 6.65933 21.01L10.4893 16.6C8.78933 16.27 7.22933 15.36 6.08933 14.03ZM12.9511 12.6C13.3211 12.82 13.6311 12.89 13.8911 12.89C14.2411 12.89 14.4811 12.75 14.5911 12.66C14.8011 12.51 15.2511 12.06 15.0211 11.07L14.7611 10.14L15.5911 9.31C16.0311 8.87 16.1911 8.33998 16.0411 7.85999C15.8811 7.37999 15.4411 7.04 14.8311 6.94L13.8411 6.82001L13.2511 5.64001C12.9711 5.07001 12.5111 4.73999 12.0011 4.73999C11.4911 4.73999 11.0411 5.06 10.7511 5.63L10.2411 6.75L9.17112 6.92999C8.55112 7.02999 8.11112 7.37001 7.96112 7.85001C7.81112 8.33001 7.97112 8.85999 8.41112 9.29999L9.21112 10.04L8.97112 11.07C8.74112 12.06 9.19112 12.51 9.40112 12.66C9.61112 12.81 10.1811 13.11 11.0511 12.59L12.0011 12.03L12.9511 12.6ZM10.3011 9.07999L9.61112 8.39001L10.4811 8.26001C10.9011 8.19001 11.3211 7.87 11.5011 7.5L12.0011 6.5L12.5011 7.48001C12.6911 7.86001 13.1111 8.16999 13.5311 8.23999L14.4011 8.39001L13.7111 9.07999C13.3911 9.39999 13.2411 9.93001 13.3411 10.38L13.5211 11.18L12.7211 10.71C12.3011 10.46 11.7211 10.46 11.2911 10.71L10.4911 11.18L10.6811 10.38C10.7811 9.94 10.6211 9.39999 10.3011 9.07999Z" fill="#292D32"/>
</svg>
