<svg viewBox="0 0 24 24" fill="none" xmlns="http://www.w3.org/2000/svg">
<path fill-rule="evenodd" clip-rule="evenodd" d="M18.75 8.5C18.75 12.0899 15.7279 15 12 15C8.27208 15 5.25 12.0899 5.25 8.5C5.25 4.91015 8.27208 2 12 2C15.7279 2 18.75 4.91015 18.75 8.5ZM16.5 16.0591C16.5 15.6891 16.12 15.4391 15.79 15.6091C14.65 16.1791 13.36 16.4991 12 16.4991C10.64 16.4991 9.36 16.1791 8.23 15.6091C7.91 15.4491 7.52 15.6891 7.52 16.0591L7.5 20.8991C7.5 21.7991 8.13 22.2391 8.91 21.8791L11.59 20.6091C11.82 20.5091 12.18 20.5091 12.41 20.6091L15.09 21.8791C15.87 22.2491 16.5 21.8091 16.5 20.9091V16.0591Z" fill="#292D32"/>
</svg>
