<svg viewBox="0 0 24 24" fill="none" xmlns="http://www.w3.org/2000/svg">
<path fill-rule="evenodd" clip-rule="evenodd" d="M8.26827 14.7889C9.36749 15.4002 10.6418 15.75 12 15.75C13.3699 15.75 14.6544 15.3942 15.76 14.773V20.8901C15.76 21.1001 15.7 21.2101 15.67 21.2301C15.65 21.2401 15.56 21.2501 15.42 21.1801L12.73 19.9101C12.3 19.7101 11.71 19.7101 11.28 19.9101L8.60001 21.1801C8.46001 21.2501 8.37001 21.2401 8.35001 21.2301C8.32001 21.2201 8.26002 21.1101 8.26002 20.8901L8.26827 14.7889ZM6.76975 13.6939C5.36987 12.3763 4.5 10.5352 4.5 8.5C4.5 4.5 7.86 1.25 12 1.25C16.14 1.25 19.5 4.5 19.5 8.5C19.5 10.5208 18.6425 12.3501 17.26 13.6658V20.8901C17.26 21.6001 16.97 22.1801 16.47 22.5001C16.21 22.6701 15.92 22.7501 15.62 22.7501C15.34 22.7501 15.06 22.6801 14.77 22.5501L12.08 21.2801C12.05 21.2701 11.94 21.2701 11.9 21.2801L9.23002 22.5401C8.64002 22.8201 8.02001 22.8101 7.54001 22.5001C7.04001 22.1801 6.75002 21.5901 6.76002 20.8901L6.76975 13.6939ZM16.0327 12.7544C17.2408 11.7017 18 10.1841 18 8.5C18 5.33 15.31 2.75 12 2.75C8.69 2.75 6 5.33 6 8.5C6 11.67 8.69 14.25 12 14.25C13.5405 14.25 14.9468 13.6911 16.01 12.774C16.0174 12.7673 16.025 12.7608 16.0327 12.7544Z" fill="#292D32"/>
</svg>
