<svg viewBox="0 0 24 24" fill="none" xmlns="http://www.w3.org/2000/svg">
<path fill-rule="evenodd" clip-rule="evenodd" d="M13.17 7.15999L12.58 5.98C12.26 5.34 11.74 5.34 11.45 5.98L10.86 7.15999C10.78 7.31999 10.57 7.48 10.39 7.51L9.31997 7.68999C8.63997 7.80999 8.47997 8.3 8.96997 8.79L9.79997 9.61998C9.93997 9.75998 10.01 10.04 9.96997 10.23L9.72997 11.26C9.53997 12.07 9.96997 12.38 10.69 11.96L11.69 11.37C11.87 11.26 12.17 11.26 12.35 11.37L13.35 11.96C14.07 12.39 14.5 12.07 14.31 11.26L14.07 10.23C14.02 10.03 14.1 9.75998 14.24 9.61998L15.07 8.79C15.56 8.3 15.4 7.79999 14.72 7.68999L13.65 7.51C13.46 7.48 13.25 7.31999 13.17 7.15999ZM19.5991 18.8599L21.2491 18.4699C22.0091 18.2899 22.2791 17.3399 21.7291 16.7999L17.8291 12.8999C16.7491 14.4999 15.0391 15.6299 13.0491 15.9199C12.7118 15.9794 12.3647 16.0094 12.0078 16.0099L11.9991 15.9999L11.9904 16.0099C11.6335 16.0094 11.2864 15.9794 10.9491 15.9199C8.9591 15.6299 7.2491 14.4999 6.1691 12.8999L2.2691 16.7999C1.7191 17.3499 1.9891 18.2999 2.7491 18.4799L4.3991 18.8699C4.7591 18.9499 5.0491 19.2399 5.1391 19.6099L5.4891 21.0799C5.6791 21.8799 6.6991 22.1199 7.2291 21.4899L11.9904 16.0099C11.9933 16.0099 11.9962 16.0099 11.9991 16.0099C12.002 16.0099 12.0049 16.0099 12.0078 16.0099L16.7691 21.4799C17.2991 22.1099 18.3191 21.8699 18.5091 21.0699L18.8591 19.5999C18.9391 19.2299 19.2291 18.9499 19.5991 18.8599Z" fill="#292D32"/>
<path opacity="0.4" d="M19 9C19 10.45 18.57 11.78 17.83 12.89C16.75 14.49 15.04 15.62 13.05 15.91C12.71 15.97 12.36 16 12 16C11.64 16 11.29 15.97 10.95 15.91C8.96 15.62 7.25 14.49 6.17 12.89C5.43 11.78 5 10.45 5 9C5 5.13 8.13 2 12 2C15.87 2 19 5.13 19 9Z" fill="#292D32"/>
</svg>
