<svg viewBox="0 0 24 24" fill="none" xmlns="http://www.w3.org/2000/svg">
<path fill-rule="evenodd" clip-rule="evenodd" d="M16.2194 7.11972C16.2694 7.13972 16.3295 7.13974 16.3795 7.13974C16.7295 7.13974 17.0394 6.89977 17.1094 6.53977L17.5079 4.7002H19.7394C20.3494 4.7002 20.8794 5.06025 21.1194 5.63025C21.2494 5.92025 21.2694 6.2502 21.1894 6.5802L17.8194 20.1202C17.6732 20.7325 17.1595 21.1778 16.5455 21.25H16C15.9583 21.25 15.9172 21.2535 15.8772 21.2603H3.22943C2.75943 21.2603 2.31943 21.0403 2.03943 20.6603C1.73943 20.2603 1.65943 19.7703 1.79943 19.3003L6.00943 5.77026C6.19943 5.14026 6.78942 4.71021 7.43942 4.71021V4.7002H9.31076L8.94979 6.19966C8.84979 6.60966 9.09977 7.00969 9.49977 7.10969L9.50014 7.10975C9.56002 7.11973 9.61989 7.12971 9.67977 7.12971C10.0198 7.12971 10.3298 6.89977 10.4098 6.55977L10.8574 4.7002H15.9707L15.6395 6.22971C15.5595 6.62971 15.8194 7.02972 16.2194 7.11972ZM17.8327 3.2002L18.0494 2.19968C18.1294 1.79968 17.8694 1.38979 17.4694 1.30979C17.0694 1.22979 16.6694 1.47974 16.5794 1.88974L16.2956 3.2002H11.2186L11.4498 2.2397C11.5498 1.8297 11.2998 1.42966 10.8998 1.32966C10.4898 1.22966 10.0898 1.47971 9.98976 1.87971L9.67187 3.2002H7.42944C6.10944 3.2002 4.94942 4.06019 4.56942 5.32019L0.359432 18.8502C0.0694325 19.7802 0.239424 20.7603 0.819424 21.5403C1.38942 22.3103 2.26942 22.7502 3.21942 22.7502H16.3594L16.4007 22.75H20.78C21.6 22.75 22.39 22.41 22.94 21.8C23.5 21.2 23.79 20.38 23.73 19.56L22.74 5.93991C22.7339 5.85729 22.7145 5.77913 22.6839 5.70716C22.6461 5.47705 22.5812 5.25327 22.4894 5.04028C22.0294 3.92028 20.9394 3.2002 19.7294 3.2002H17.8327ZM21.6134 11.0496L19.2694 20.4602C19.2024 20.7431 19.0967 21.008 18.9587 21.25H20.78C21.19 21.25 21.57 21.08 21.85 20.78C22.13 20.48 22.27 20.08 22.24 19.67L21.6134 11.0496ZM15.6992 12.75H7.69922C7.28922 12.75 6.94922 12.41 6.94922 12C6.94922 11.59 7.28922 11.25 7.69922 11.25H15.6992C16.1092 11.25 16.4492 11.59 16.4492 12C16.4492 12.41 16.1092 12.75 15.6992 12.75ZM6.69922 16.75H14.6992C15.1092 16.75 15.4492 16.41 15.4492 16C15.4492 15.59 15.1092 15.25 14.6992 15.25H6.69922C6.28922 15.25 5.94922 15.59 5.94922 16C5.94922 16.41 6.28922 16.75 6.69922 16.75Z" fill="#292D32"/>
</svg>
