<svg viewBox="0 0 24 24" fill="none" xmlns="http://www.w3.org/2000/svg">
<path fill-rule="evenodd" clip-rule="evenodd" d="M18.0509 2.20859C18.1409 1.79859 17.8809 1.40859 17.4709 1.31859C17.0709 1.22859 16.6709 1.48859 16.5809 1.89859L16.1309 3.96859H17.6428L17.0844 6.55141C17.0044 6.90141 16.6944 7.14141 16.3544 7.14141C16.3044 7.14141 16.2444 7.14141 16.1944 7.12141C15.7944 7.03141 15.5344 6.63141 15.6144 6.23141L16.1044 3.95141H11.0044L10.3744 6.55141C10.2944 6.89141 9.98436 7.12141 9.64436 7.12141C9.58436 7.12141 9.52436 7.11141 9.46436 7.10141C9.06436 7.00141 8.81436 6.60141 8.91436 6.19141L9.45436 3.94141H7.42436C6.44436 3.94141 5.57436 4.58141 5.28436 5.52141L1.07436 19.0714C0.634364 20.5214 1.70436 22.0014 3.21436 22.0014H16.3544C16.3813 22.0014 16.4082 22.0009 16.435 22H20.7809C22.0709 22 23.0909 20.91 22.9909 19.62L22.0009 6L21.9909 6.02C22.0109 6.26 21.9909 6.51 21.9309 6.76L21.8827 6.84843L21.9044 6.76141C21.9644 6.51141 21.9844 6.26141 21.9644 6.02141C21.9444 5.78141 21.8944 5.54141 21.7944 5.33141C21.4644 4.53141 20.6844 3.96141 19.7244 3.96141H17.6724L18.0509 2.20859ZM20.9461 10.6086L21.4909 19.74C21.5109 20.01 21.3809 20.19 21.3109 20.27C21.2309 20.36 21.0609 20.5 20.7809 20.5H18.474C18.4973 20.4321 18.5175 20.3625 18.5344 20.2914L20.9461 10.6086ZM10.9002 1.33136C11.3002 1.43136 11.5502 1.84136 11.4502 2.24136L11.0302 3.95136H9.49023L9.99023 1.88136C10.0902 1.48136 10.5002 1.24136 10.9002 1.33136ZM6.67436 16.7514H14.6744C15.0844 16.7514 15.4244 16.4114 15.4244 16.0014C15.4244 15.5914 15.0844 15.2514 14.6744 15.2514H6.67436C6.26436 15.2514 5.92436 15.5914 5.92436 16.0014C5.92436 16.4114 6.26436 16.7514 6.67436 16.7514ZM7.67436 12.7514H15.6744C16.0844 12.7514 16.4244 12.4114 16.4244 12.0014C16.4244 11.5914 16.0844 11.2514 15.6744 11.2514H7.67436C7.26436 11.2514 6.92436 11.5914 6.92436 12.0014C6.92436 12.4114 7.26436 12.7514 7.67436 12.7514Z" fill="#292D32"/>
</svg>
