<svg viewBox="0 0 24 24" fill="none" xmlns="http://www.w3.org/2000/svg">
<path fill-rule="evenodd" clip-rule="evenodd" d="M3.25 5.85014C3.25 7.62014 4.69001 9.06014 6.46001 9.06014C8.23001 9.06014 9.67 7.62014 9.67 5.85014C9.67 4.08014 8.23001 2.64014 6.46001 2.64014C4.69001 2.64014 3.25 4.08014 3.25 5.85014ZM4.75 5.84014C4.75 4.90014 5.52001 4.13014 6.46001 4.13014C7.41001 4.13014 8.17 4.90014 8.17 5.84014C8.17 6.78014 7.40001 7.55014 6.46001 7.55014C5.52001 7.55014 4.75 6.78014 4.75 5.84014ZM14.3301 5.85014C14.3301 7.62014 15.7701 9.06014 17.5401 9.06014C19.3101 9.06014 20.7501 7.62014 20.7501 5.85014C20.7501 4.08014 19.3101 2.64014 17.5401 2.64014C15.7701 2.64014 14.3301 4.08014 14.3301 5.85014ZM15.8301 5.84014C15.8301 4.90014 16.6001 4.13014 17.5401 4.13014C18.4801 4.13014 19.2501 4.90014 19.2501 5.84014C19.2501 6.78014 18.4801 7.55014 17.5401 7.55014C16.6001 7.55014 15.8301 6.78014 15.8301 5.84014ZM17.5401 21.3702C15.7701 21.3702 14.3301 19.9302 14.3301 18.1602C14.3301 16.3902 15.7701 14.9502 17.5401 14.9502C19.3101 14.9502 20.7501 16.3902 20.7501 18.1602C20.7501 19.9302 19.3101 21.3702 17.5401 21.3702ZM17.5401 16.4402C16.6001 16.4402 15.8301 17.2102 15.8301 18.1502C15.8301 19.0902 16.6001 19.8602 17.5401 19.8602C18.4801 19.8602 19.2501 19.0902 19.2501 18.1502C19.2501 17.2102 18.4801 16.4402 17.5401 16.4402ZM3.25 18.1602C3.25 19.9302 4.69001 21.3702 6.46001 21.3702C8.23001 21.3702 9.67 19.9302 9.67 18.1602C9.67 16.3902 8.23001 14.9502 6.46001 14.9502C4.69001 14.9502 3.25 16.3902 3.25 18.1602ZM4.75 18.1502C4.75 17.2102 5.52001 16.4402 6.46001 16.4402C7.41001 16.4402 8.17 17.2102 8.17 18.1502C8.17 19.0902 7.40001 19.8602 6.46001 19.8602C5.52001 19.8602 4.75 19.0902 4.75 18.1502Z" fill="#292D32"/>
</svg>
