<svg viewBox="0 0 24 24" fill="none" xmlns="http://www.w3.org/2000/svg">
<path fill-rule="evenodd" clip-rule="evenodd" d="M9.42 5.85062C9.42 7.48539 8.09476 8.81063 6.46 8.81063C4.82524 8.81063 3.5 7.48539 3.5 5.85062C3.5 4.21586 4.82524 2.89062 6.46 2.89062C8.09476 2.89062 9.42 4.21586 9.42 5.85062ZM20.5001 5.85062C20.5001 7.48539 19.1748 8.81063 17.5401 8.81063C15.9053 8.81063 14.5801 7.48539 14.5801 5.85062C14.5801 4.21586 15.9053 2.89062 17.5401 2.89062C19.1748 2.89062 20.5001 4.21586 20.5001 5.85062ZM17.5401 21.1114C19.1748 21.1114 20.5001 19.7862 20.5001 18.1514C20.5001 16.5166 19.1748 15.1914 17.5401 15.1914C15.9053 15.1914 14.5801 16.5166 14.5801 18.1514C14.5801 19.7862 15.9053 21.1114 17.5401 21.1114ZM9.42 18.1514C9.42 19.7862 8.09476 21.1114 6.46 21.1114C4.82524 21.1114 3.5 19.7862 3.5 18.1514C3.5 16.5166 4.82524 15.1914 6.46 15.1914C8.09476 15.1914 9.42 16.5166 9.42 18.1514Z" fill="#292D32"/>
</svg>
