<svg viewBox="0 0 24 24" fill="none" xmlns="http://www.w3.org/2000/svg">
<path fill-rule="evenodd" clip-rule="evenodd" d="M8.5 11.25H15.5C15.91 11.25 16.25 10.91 16.25 10.5C16.25 10.09 15.91 9.75 15.5 9.75H8.5C8.09 9.75 7.75 10.09 7.75 10.5C7.75 10.91 8.09 11.25 8.5 11.25ZM1 17.5C1 15.29 2.79 13.5 5 13.5C7.21 13.5 9 15.29 9 17.5C9 18.25 8.79001 18.96 8.42001 19.56C7.73001 20.72 6.46 21.5 5 21.5C3.54 21.5 2.26999 20.72 1.57999 19.56C1.20999 18.96 1 18.25 1 17.5ZM4.84 19.14L6.97 17.17C7.27 16.89 7.29001 16.41 7.01001 16.11C6.73001 15.81 6.25001 15.79 5.95001 16.07L4.35001 17.55L3.87 17.07C3.58 16.78 3.1 16.78 2.81 17.07C2.52 17.36 2.52 17.84 2.81 18.13L3.79999 19.12C3.94999 19.27 4.13999 19.34 4.32999 19.34C4.50999 19.34 4.7 19.27 4.84 19.14Z" fill="#292D32"/>
<path opacity="0.4" d="M22 7.43018V13.4302C22 14.9302 21.5 16.1802 20.62 17.0602C19.75 17.9302 18.5 18.4302 17 18.4302V20.5602C17 21.3602 16.11 21.8402 15.45 21.4002L11 18.4302H8.88C8.96 18.1302 9 17.8202 9 17.5002C9 16.4802 8.61 15.5402 7.97 14.8302C7.25 14.0102 6.18 13.5002 5 13.5002C3.88 13.5002 2.86 13.9602 2.13 14.7102C2.04 14.3102 2 13.8802 2 13.4302V7.43018C2 4.43018 4 2.43018 7 2.43018H17C20 2.43018 22 4.43018 22 7.43018Z" fill="#292D32"/>
</svg>
