<svg viewBox="0 0 24 24" fill="none" xmlns="http://www.w3.org/2000/svg">
<path fill-rule="evenodd" clip-rule="evenodd" d="M1.25 12C1.25 17.93 6.07 22.75 12 22.75C17.93 22.75 22.75 17.93 22.75 12C22.75 6.07 17.93 1.25 12 1.25C6.07 1.25 1.25 6.07 1.25 12ZM2.75 12C2.75 6.9 6.9 2.75 12 2.75C17.1 2.75 21.25 6.9 21.25 12C21.25 17.1 17.1 21.25 12 21.25C6.9 21.25 2.75 17.1 2.75 12ZM10.77 17.66C11.08 18.07 11.53 18.31 12 18.31C12.47 18.31 12.92 18.08 13.24 17.65L13.96 16.69H14.11C16.42 16.69 17.79 15.5 17.97 13.38C17.99 13.2 18 13 18 12.8V10.17C18 7.65004 16.61 6.27002 14.1 6.27002H9.89999C9.68999 6.27002 9.5 6.28002 9.34 6.30002C7.19 6.49002 6 7.86004 6 10.17V12.8C6 16.23 7.87999 16.7 9.89999 16.7H10.05L10.77 17.66ZM9.89977 7.79004H9.89999H14.09C15.77 7.79004 16.49 8.51003 16.49 10.19V12.82V12.8203C16.49 12.9602 16.49 13.0901 16.47 13.25C16.35 14.63 15.65 15.22 14.1 15.22H13.84C13.44 15.22 13.06 15.41 12.82 15.73L11.97 16.78L11.18 15.72C10.95 15.42 10.54 15.22 10.16 15.22H9.89999C8.06999 15.22 7.5 14.89 7.5 12.82V10.19C7.5 8.64003 8.09 7.93003 9.5 7.81003C9.62993 7.79004 9.75985 7.79004 9.89977 7.79004Z" fill="#292D32"/>
</svg>
