<svg viewBox="0 0 24 24" fill="none" xmlns="http://www.w3.org/2000/svg">
<path fill-rule="evenodd" clip-rule="evenodd" d="M9 22.75H15C20.43 22.75 22.75 20.43 22.75 15V9C22.75 3.57 20.43 1.25 15 1.25H9C3.57 1.25 1.25 3.57 1.25 9V15C1.25 20.43 3.57 22.75 9 22.75ZM2.75 9C2.75 4.39 4.39 2.75 9 2.75H15C19.61 2.75 21.25 4.39 21.25 9V15C21.25 19.61 19.61 21.25 15 21.25H9C4.39 21.25 2.75 19.61 2.75 15V9ZM10.6388 18.6298C10.9888 19.0898 11.4787 19.3498 11.9987 19.3498C12.5187 19.3498 13.0087 19.0898 13.3387 18.6298L14.2487 17.4198H14.4987C17.1787 17.4198 18.7688 16.0498 18.9788 13.5898C19.0088 13.3698 19.0187 13.1498 19.0187 12.9098V9.76974C19.0187 6.85975 17.4188 5.25977 14.5088 5.25977H9.47876C9.24876 5.25977 9.01874 5.26976 8.82874 5.28976C6.33874 5.49976 4.96875 7.08974 4.96875 9.76974V12.9098C4.96875 16.6498 6.76876 17.4198 9.47876 17.4198H9.72876L10.6388 18.6298ZM8.98874 6.77975C9.14874 6.75975 9.31874 6.74976 9.48874 6.74976H14.4987C16.5787 6.74976 17.5088 7.67977 17.5088 9.75977V12.8997C17.5088 13.0798 17.4988 13.2397 17.4788 13.4297C17.3288 15.1497 16.4087 15.9198 14.4887 15.9198H14.1787C13.7487 15.9198 13.3387 16.1198 13.0787 16.4698L12.1388 17.7298C12.0788 17.8098 12.0187 17.8498 11.9887 17.8498C11.9587 17.8498 11.8987 17.8098 11.8387 17.7298L10.8888 16.4597C10.6388 16.1397 10.1888 15.9198 9.78876 15.9198H9.47876C7.21876 15.9198 6.46875 15.4898 6.46875 12.9098V9.76974C6.46875 7.84974 7.23874 6.92975 8.98874 6.77975Z" fill="#292D32"/>
</svg>
