<svg viewBox="0 0 24 24" fill="none" xmlns="http://www.w3.org/2000/svg">
<path fill-rule="evenodd" clip-rule="evenodd" d="M7.75 2.42969H17.25C20.1 2.42969 22 4.32969 22 7.17969V12.8797C22 14.2997 21.52 15.4897 20.69 16.3297C19.86 17.1497 18.67 17.6297 17.25 17.6297V19.6497C17.25 20.4097 16.4 20.8697 15.78 20.4497L11.55 17.6297H11C10.73 17.6297 10.5 17.4097 10.48 17.1297C10.22 14.3197 7.86 11.9997 5 11.9997C4.55 11.9997 4.12 12.0497 3.7 12.1497C3.36 12.2397 3 11.9897 3 11.6397V7.17969C3 4.32969 4.9 2.42969 7.75 2.42969ZM9.17 10.8097H15.83C16.22 10.8097 16.54 10.4897 16.54 10.0997C16.54 9.69969 16.22 9.37969 15.83 9.37969H9.17C8.78 9.37969 8.46 9.69969 8.46 10.0997C8.46 10.4897 8.78 10.8097 9.17 10.8097ZM2.5 14.38C3.19 13.83 4.06 13.5 5 13.5C7.21 13.5 9 15.29 9 17.5C9 18.7 8.47 19.77 7.64 20.5C6.93 21.12 6.01 21.5 5 21.5C2.79 21.5 1 19.71 1 17.5C1 16.24 1.58 15.11 2.5 14.38ZM5.64 18.39C5.86 18.26 6 18.01 6 17.75V16.25C6 15.84 5.67 15.5 5.26 15.5C4.85 15.5 4.51 15.84 4.51 16.25V17.33L3.62 17.86C3.26 18.07 3.15 18.53 3.36 18.89C3.5 19.12 3.75 19.25 4 19.25C4.13 19.25 4.27 19.22 4.39 19.14L5.64 18.39Z" fill="#292D32"/>
</svg>
