<svg viewBox="0 0 24 24" fill="none" xmlns="http://www.w3.org/2000/svg">
<path fill-rule="evenodd" clip-rule="evenodd" d="M10.2 21.85C10.66 22.46 11.31 22.81 12 22.81C12.69 22.81 13.34 22.46 13.8 21.85L15.3 19.85C15.35 19.79 15.42 19.75 15.5 19.75H16C20.42 19.75 22.75 17.42 22.75 13V8C22.75 3.58 20.42 1.25 16 1.25H8C3.58 1.25 1.25 3.58 1.25 8V13C1.25 18.62 3.83 19.75 8 19.75H8.5C8.55 19.76 8.67 19.81 8.7 19.85L10.2 21.85ZM2.75 8C2.75 4.42 4.42 2.75 8 2.75H16C19.58 2.75 21.25 4.42 21.25 8V13C21.25 16.58 19.58 18.25 16 18.25H15.5C14.95 18.25 14.43 18.51 14.1 18.95L12.6 20.95C12.25 21.41 11.75 21.41 11.4 20.95L9.9 18.95C9.59 18.54 9.01 18.25 8.5 18.25H8C4.3 18.25 2.75 17.52 2.75 13V8ZM11 11C11 11.55 11.44 12 12 12C12.56 12 13 11.55 13 11C13 10.45 12.55 10 12 10C11.45 10 11 10.45 11 11ZM16 12C15.44 12 15 11.55 15 11C15 10.45 15.45 10 16 10C16.55 10 17 10.45 17 11C17 11.55 16.56 12 16 12ZM7 11C7 11.55 7.44 12 8 12C8.56 12 9 11.55 9 11C9 10.45 8.55 10 8 10C7.45 10 7 10.45 7 11Z" fill="#292D32"/>
</svg>
