<svg viewBox="0 0 24 24" fill="none" xmlns="http://www.w3.org/2000/svg">
<path fill-rule="evenodd" clip-rule="evenodd" d="M12.7814 7.46019C14.0714 6.17019 15.2914 6.20019 16.5514 7.46019C17.1914 8.10019 17.5014 8.72019 17.5014 9.37019C17.5014 9.99019 17.1914 10.6002 16.5514 11.2402L15.7714 12.0202C15.7214 12.0702 15.6514 12.1002 15.5814 12.1002C15.5514 12.1002 15.5214 12.1002 15.5014 12.0902C13.7814 11.6002 12.4114 10.2302 11.9214 8.51019C11.9014 8.42019 11.9214 8.32019 11.9914 8.25019L12.7814 7.46019ZM14.2887 12.26C14.4587 12.37 14.6387 12.46 14.8287 12.55C15.0185 12.6299 15.1984 12.6999 15.3782 12.7698L15.3787 12.77L11.6087 16.54C11.3587 16.79 10.8987 17.02 10.5587 17.07L8.4787 17.36C8.47061 17.361 8.46262 17.362 8.45471 17.363C8.38444 17.3719 8.32063 17.38 8.24872 17.38C7.89872 17.38 7.5787 17.26 7.3487 17.03C7.0787 16.75 6.94871 16.34 7.01871 15.9L7.30872 13.82C7.35872 13.48 7.58872 13.02 7.83872 12.77L11.6087 9C11.6787 9.18 11.7487 9.36 11.8387 9.56C11.9187 9.74 12.0187 9.92 12.1187 10.09C12.1987 10.23 12.2887 10.37 12.3687 10.47C12.4687 10.61 12.5687 10.74 12.6387 10.82C12.6457 10.8305 12.6524 10.8406 12.6587 10.8503C12.6889 10.8962 12.7122 10.9317 12.7287 10.94C12.9487 11.19 13.1887 11.43 13.3987 11.61C13.4487 11.67 13.4887 11.7 13.5087 11.71C13.6387 11.82 13.7687 11.92 13.8787 11.99C14.0087 12.09 14.1487 12.18 14.2887 12.26Z" fill="#292D32"/>
<path opacity="0.4" d="M16 2H8C4 2 2 4 2 8V21C2 21.55 2.45 22 3 22H16C20 22 22 20 22 16V8C22 4 20 2 16 2Z" fill="#292D32"/>
</svg>
