<svg viewBox="0 0 24 24" fill="none" xmlns="http://www.w3.org/2000/svg">
<path fill-rule="evenodd" clip-rule="evenodd" d="M15.9998 22.3199C15.6598 22.3199 15.3298 22.22 15.0398 22.03L10.7798 19.1899H9.4285C9.3286 19.4531 9.20112 19.7117 9.04999 19.95C8.21999 21.37 6.66 22.25 5 22.25C3.82 22.25 2.69999 21.81 1.82999 21.02C1.47999 20.72 1.16999 20.35 0.929993 19.94C0.489993 19.22 0.25 18.37 0.25 17.5C0.25 16.3802 0.635242 15.3245 1.33383 14.4769C1.28445 14.151 1.25977 13.8053 1.25977 13.4399V7.43994C1.25977 3.99994 3.56977 1.68994 7.00977 1.68994H17.0098C20.4498 1.68994 22.7598 3.99994 22.7598 7.43994V13.4399C22.7598 15.1099 22.2098 16.5499 21.1598 17.5999C20.2798 18.4799 19.1098 19.01 17.7598 19.15V20.5699C17.7598 21.2199 17.3997 21.8099 16.8297 22.1199C16.5597 22.2499 16.2798 22.3199 15.9998 22.3199ZM2.67975 15.2399C2.64835 15.273 2.61422 15.3028 2.57794 15.3291C2.04579 15.9254 1.75 16.6858 1.75 17.5C1.75 18.09 1.91 18.67 2.22 19.17C2.38 19.45 2.58999 19.7 2.82999 19.91C3.42999 20.46 4.2 20.76 5 20.76C6.15 20.76 7.19 20.17 7.78 19.19C7.96 18.91 8.07999 18.6 8.14999 18.28C8.21999 18.02 8.25 17.77 8.25 17.51C8.25 16.71 7.95 15.94 7.41 15.34C7.29132 15.2016 7.16169 15.0752 7.02288 14.9617C6.4583 14.5092 5.7532 14.2599 5.00977 14.2599C4.11977 14.2599 3.28975 14.6099 2.67975 15.2399ZM5.00977 12.7499L4.97463 12.7501C4.18625 12.7541 3.43157 12.9458 2.75977 13.3051V7.42993C2.75977 4.84993 4.42977 3.17993 7.00977 3.17993H17.0098C19.5898 3.17993 21.2598 4.84993 21.2598 7.42993V13.4299C21.2598 14.6999 20.8598 15.77 20.0998 16.53C19.3498 17.28 18.2798 17.6799 17.0098 17.6799C16.5998 17.6799 16.2598 18.0199 16.2598 18.4299V20.5599C16.2598 20.6999 16.1698 20.7599 16.1198 20.7899C16.0698 20.8199 15.9698 20.85 15.8698 20.78L11.4198 17.8099C11.2898 17.7199 11.1498 17.6799 10.9998 17.6799H9.74976C9.74976 17.6199 9.74977 17.5599 9.75977 17.4999C9.75977 16.3299 9.31976 15.2 8.53976 14.33C7.65976 13.33 6.36977 12.7499 5.00977 12.7499ZM3.5 18.23H4.25V19.01C4.25 19.42 4.59 19.76 5 19.76C5.41 19.76 5.75 19.43 5.75 19.01V18.23H6.48999C6.90999 18.23 7.23999 17.89 7.23999 17.48C7.23999 17.07 6.89999 16.73 6.48999 16.73H5.75V16.02C5.75 15.61 5.41 15.27 5 15.27C4.59 15.27 4.25 15.61 4.25 16.02V16.73H3.5C3.09 16.73 2.75 17.07 2.75 17.48C2.75 17.89 3.09 18.23 3.5 18.23ZM8.5 11.25H15.5C15.91 11.25 16.25 10.91 16.25 10.5C16.25 10.09 15.91 9.75 15.5 9.75H8.5C8.09 9.75 7.75 10.09 7.75 10.5C7.75 10.91 8.09 11.25 8.5 11.25Z" fill="#292D32"/>
</svg>
