<svg viewBox="0 0 24 24" fill="none" xmlns="http://www.w3.org/2000/svg">
<path fill-rule="evenodd" clip-rule="evenodd" d="M10.2 21.8197C10.66 22.4297 11.31 22.7797 12 22.7797C12.69 22.7797 13.34 22.4297 13.8 21.8197C14.05 21.4897 13.98 21.0197 13.65 20.7697C13.32 20.5197 12.85 20.5897 12.6 20.9197C12.25 21.3797 11.75 21.3797 11.4 20.9197L9.89999 18.9197C9.59999 18.5097 9.01 18.2197 8.5 18.2197H8C4.3 18.2197 2.75 17.4897 2.75 12.9697V7.96973C2.75 4.38973 4.42 2.71973 8 2.71973H16C19.58 2.71973 21.25 4.38973 21.25 7.96973V12.9697C21.25 13.3797 21.59 13.7197 22 13.7197C22.41 13.7197 22.75 13.3797 22.75 12.9697V7.96973C22.75 3.54973 20.42 1.21973 16 1.21973H8C3.58 1.21973 1.25 3.54973 1.25 7.96973V12.9697C1.25 18.5897 3.83 19.7197 8 19.7197H8.48999C8.54999 19.7197 8.67001 19.7797 8.70001 19.8197L10.2 21.8197ZM11 10.9697C11 11.5197 11.44 11.9697 12 11.9697C12.56 11.9697 13 11.5197 13 10.9697C13 10.4197 12.55 9.96973 12 9.96973C11.45 9.96973 11 10.4197 11 10.9697ZM16 11.9697C15.44 11.9697 15 11.5197 15 10.9697C15 10.4197 15.45 9.96973 16 9.96973C16.55 9.96973 17 10.4197 17 10.9697C17 11.5197 16.56 11.9697 16 11.9697ZM7 10.9697C7 11.5197 7.44 11.9697 8 11.9697C8.56 11.9697 9 11.5197 9 10.9697C9 10.4197 8.55 9.96973 8 9.96973C7.45 9.96973 7 10.4197 7 10.9697ZM18.2 22.15C16.02 22.15 14.25 20.38 14.25 18.2C14.25 16.02 16.02 14.25 18.2 14.25C20.38 14.25 22.15 16.02 22.15 18.2C22.15 19.0211 21.8989 19.784 21.4694 20.4161C21.4902 20.4328 21.5102 20.4507 21.5295 20.4699L22.5295 21.4699C22.8195 21.7599 22.8195 22.2399 22.5295 22.5299C22.3794 22.6799 22.1895 22.7499 21.9995 22.7499C21.8095 22.7499 21.6195 22.6799 21.4695 22.5299L20.4695 21.5299C20.4502 21.5107 20.4322 21.4906 20.4155 21.4698C19.7836 21.8991 19.0208 22.15 18.2 22.15ZM18.2 15.75C16.85 15.75 15.75 16.85 15.75 18.2C15.75 19.55 16.85 20.65 18.2 20.65C19.55 20.65 20.65 19.55 20.65 18.2C20.65 16.85 19.55 15.75 18.2 15.75Z" fill="#292D32"/>
</svg>
