<svg viewBox="0 0 25 24" fill="none" xmlns="http://www.w3.org/2000/svg">
<path fill-rule="evenodd" clip-rule="evenodd" d="M6.17999 22.75C6.04999 22.75 5.91999 22.72 5.79999 22.65C5.56999 22.52 5.42999 22.27 5.42999 22V18.8C3.07999 16.89 1.75 14.17 1.75 11.26C1.75 5.74001 6.57 1.25 12.5 1.25C18.43 1.25 23.25 5.74001 23.25 11.26C23.25 16.78 18.43 21.27 12.5 21.27C11.53 21.27 10.57 21.15 9.64001 20.91L6.54999 22.65C6.43999 22.72 6.30999 22.75 6.17999 22.75ZM12.5 2.75C7.4 2.75 3.25 6.57001 3.25 11.26C3.25 13.82 4.48001 16.22 6.64001 17.84C6.83001 17.98 6.94 18.2 6.94 18.44V20.72L9.17999 19.46C9.34999 19.36 9.56 19.34 9.75 19.39C10.64 19.64 11.57 19.77 12.5 19.77C17.6 19.77 21.75 15.95 21.75 11.26C21.75 6.57001 17.6 2.75 12.5 2.75ZM7.36017 14.1502C7.50017 14.3702 7.75019 14.5002 8.00019 14.5002C8.03322 14.5002 8.06624 14.4972 8.09593 14.4944C8.12017 14.4922 8.14218 14.4902 8.16016 14.4902L11.5602 13.6602L12.8502 14.4102C13.1602 14.5902 13.5702 14.5202 13.8002 14.2402L17.5602 9.74019C17.7702 9.49019 17.7902 9.14018 17.6202 8.86018C17.4502 8.58018 17.1202 8.4502 16.8002 8.5302L13.5702 9.36018L12.1202 8.59019C11.8102 8.42019 11.4302 8.50019 11.2002 8.77019L7.42017 13.2702C7.21017 13.5202 7.19017 13.8702 7.36017 14.1502Z" fill="#292D32"/>
</svg>
