<svg viewBox="0 0 24 24" fill="none" xmlns="http://www.w3.org/2000/svg">
<path fill-rule="evenodd" clip-rule="evenodd" d="M18.8604 19.99L18.4704 16.83C20.6104 15.33 22.0004 12.94 22.0004 10.24C22.0004 5.69 18.0504 2 13.1704 2C8.99038 2 5.49038 4.71 4.58038 8.35C4.49038 8.73 4.85038 9.07 5.22038 8.95C5.94038 8.71 6.71038 8.59 7.50038 8.59C11.3604 8.59 14.5004 11.57 14.5004 15.23C14.5004 16.27 14.2304 17.31 13.7304 18.23C13.6004 18.47 13.6604 18.77 13.9004 18.91L17.3604 20.97C18.0704 21.4 18.9604 20.82 18.8604 19.99ZM11.82 18.3898C12.56 17.5198 13 16.4198 13 15.2298C13 12.3898 10.54 10.0898 7.5 10.0898C6.34 10.0898 5.27 10.4198 4.38 10.9998C2.94 11.9198 2 13.4698 2 15.2298C2 16.9098 2.86 18.3998 4.2 19.3298L3.95 21.2998C3.89 21.8098 4.45 22.1798 4.89 21.9098L7.5 20.3598C9.26 20.3598 10.83 19.5898 11.82 18.3898Z" fill="#292D32"/>
</svg>
