<svg viewBox="0 0 24 24" fill="none" xmlns="http://www.w3.org/2000/svg">
<path d="M17 2.00391H7C4.24 2.00391 2 4.23391 2 6.98391V12.9639V13.9639C2 16.7139 4.24 18.9439 7 18.9439H8.5C8.77 18.9439 9.13 19.1239 9.3 19.3439L10.8 21.3339C11.46 22.2139 12.54 22.2139 13.2 21.3339L14.7 19.3439C14.89 19.0939 15.19 18.9439 15.5 18.9439H17C19.76 18.9439 22 16.7139 22 13.9639V6.98391C22 4.23391 19.76 2.00391 17 2.00391ZM8 12.0039C7.44 12.0039 7 11.5539 7 11.0039C7 10.4539 7.45 10.0039 8 10.0039C8.55 10.0039 9 10.4539 9 11.0039C9 11.5539 8.56 12.0039 8 12.0039ZM12 12.0039C11.44 12.0039 11 11.5539 11 11.0039C11 10.4539 11.45 10.0039 12 10.0039C12.55 10.0039 13 10.4539 13 11.0039C13 11.5539 12.56 12.0039 12 12.0039ZM16 12.0039C15.44 12.0039 15 11.5539 15 11.0039C15 10.4539 15.45 10.0039 16 10.0039C16.55 10.0039 17 10.4539 17 11.0039C17 11.5539 16.56 12.0039 16 12.0039Z" fill="#292D32"/>
</svg>
