<svg viewBox="0 0 24 24" fill="none" xmlns="http://www.w3.org/2000/svg">
<path fill-rule="evenodd" clip-rule="evenodd" d="M18.03 1H20.97C22.24 1 23 1.76 23 3.03V5.97C23 7.24 22.24 8 20.97 8H18.03C16.76 8 16 7.24 16 5.97V3.03C16 1.76 16.76 1 18.03 1ZM19.5 6.5C19.95 6.5 21.24 5.86 21.61 4.68C21.87 3.89 21.58 2.86 20.66 2.57C20.24 2.44 19.8 2.52 19.48 2.77C19.17 2.51 18.73 2.44 18.32 2.57C17.63 2.79 17.3 3.46 17.3 4.11C17.3 4.3 17.33 4.5 17.39 4.68C17.77 5.88 19.05 6.5 19.5 6.5ZM11 11C11 11.55 11.44 12 12 12C12.56 12 13 11.55 13 11C13 10.45 12.55 10 12 10C11.45 10 11 10.45 11 11ZM16 12C15.44 12 15 11.55 15 11C15 10.45 15.45 10 16 10C16.55 10 17 10.45 17 11C17 11.55 16.56 12 16 12ZM7 11C7 11.55 7.44 12 8 12C8.56 12 9 11.55 9 11C9 10.45 8.55 10 8 10C7.45 10 7 10.45 7 11Z" fill="#292D32"/>
<path opacity="0.4" d="M20.97 8H18.03C16.76 8 16 7.24 16 5.97V3.03C16 2.63 16.08 2.29 16.22 2H7C4.24 2 2 4.23 2 6.98V12.96V13.96C2 16.71 4.24 18.94 7 18.94H8.5C8.77 18.94 9.13 19.12 9.3 19.34L10.8 21.33C11.46 22.21 12.54 22.21 13.2 21.33L14.7 19.34C14.89 19.09 15.19 18.94 15.5 18.94H17C19.76 18.94 22 16.71 22 13.96V7.77C21.71 7.92 21.37 8 20.97 8Z" fill="#292D32"/>
</svg>
