<svg viewBox="0 0 24 24" fill="none" xmlns="http://www.w3.org/2000/svg">
<path fill-rule="evenodd" clip-rule="evenodd" d="M9.62891 2C12.6489 2 15.2589 3.67 16.4289 6.07C16.8789 6.96 17.1289 7.95 17.1289 9C17.1289 12.87 13.7689 16 9.62891 16L8.69891 17.12L8.14891 17.78C7.67891 18.34 6.77891 18.22 6.46891 17.55L5.12891 14.6C3.30891 13.32 2.12891 11.29 2.12891 9C2.12891 5.13 5.48891 2 9.62891 2ZM6.37891 9C6.37891 9.41 6.71891 9.75 7.12891 9.75H12.1289C12.5389 9.75 12.8789 9.41 12.8789 9C12.8789 8.59 12.5389 8.25 12.1289 8.25H7.12891C6.71891 8.25 6.37891 8.59 6.37891 9ZM18.9989 18.4595C20.8189 17.1795 21.9989 15.1495 21.9989 12.8595C21.9989 10.2495 20.4589 7.96953 18.1889 6.76953C18.3889 7.48953 18.4989 8.23953 18.4989 8.99953C18.4989 13.4595 14.8489 17.1195 10.2289 17.4695L9.62891 18.1795C10.9289 19.2295 12.6389 19.8595 14.4989 19.8595L15.9789 21.6395C16.4489 22.2095 17.3489 22.0795 17.6589 21.4095L18.9989 18.4595Z" fill="#292D32"/>
</svg>
