<svg viewBox="0 0 24 24" fill="none" xmlns="http://www.w3.org/2000/svg">
<path fill-rule="evenodd" clip-rule="evenodd" d="M16.01 18.7397C16.28 18.9197 16.59 19.0098 16.9 19.0098C17.15 19.0098 17.41 18.9498 17.65 18.8398C18.17 18.5598 18.5 18.0197 18.5 17.4197V16.3098C19.64 16.1698 20.64 15.6997 21.36 14.9697C22.26 14.0897 22.75 12.8097 22.75 11.3597V6.25977C22.75 3.31977 20.69 1.25977 17.75 1.25977H9.25C6.31 1.25977 4.25 3.31977 4.25 6.25977V8.38605C2.43045 8.84182 1.25 10.3816 1.25 12.4V16.47C1.25 17.67 1.65 18.71 2.41 19.47C2.99 20.05 3.76999 20.42 4.64999 20.56V21.32C4.64999 21.86 4.94 22.34 5.41 22.59C5.62 22.7 5.85001 22.75 6.07001 22.75C6.35001 22.75 6.63 22.67 6.87 22.5L9.7 20.62H12.19C13.8282 20.62 15.1476 19.8694 15.8232 18.6172L16.01 18.7397ZM14.84 16.47V12.4097C14.84 10.7797 13.82 9.75977 12.19 9.75977H5.39999C5.28021 9.75977 5.17039 9.76975 5.06058 9.77973L5.06 9.77979C5.03013 9.78121 5.00046 9.78101 4.97108 9.77922C3.58426 9.94134 2.75 10.9214 2.75 12.4V16.47C2.75 17.27 3 17.94 3.47 18.41C3.93 18.87 4.59999 19.12 5.39999 19.12C5.80999 19.12 6.14999 19.46 6.14999 19.87V21.18L9.05 19.25C9.17 19.17 9.32 19.12 9.47 19.12H12.19C13.51 19.12 14.44 18.46 14.73 17.3C14.8 17.05 14.84 16.77 14.84 16.47ZM16.95 17.4998L16.3 17.1298C16.33 16.9198 16.34 16.6997 16.35 16.4697V12.3998C16.35 9.95978 14.64 8.24976 12.2 8.24976H5.75999V6.24976C5.75999 4.11976 7.12999 2.74976 9.25999 2.74976H17.76C19.89 2.74976 21.26 4.11976 21.26 6.24976V11.3497C21.26 12.3997 20.94 13.2798 20.31 13.8998C19.7 14.5198 18.81 14.8497 17.76 14.8497C17.35 14.8497 17.01 15.1897 17.01 15.5997V17.4097C17.01 17.4197 17.01 17.4698 16.95 17.4998Z" fill="#292D32"/>
</svg>
