<svg viewBox="0 0 24 24" fill="none" xmlns="http://www.w3.org/2000/svg">
<path fill-rule="evenodd" clip-rule="evenodd" d="M15.03 22.03C15.32 22.22 15.66 22.3199 16 22.3199C16.28 22.3199 16.57 22.2499 16.83 22.1099C17.4 21.8099 17.75 21.2199 17.75 20.5699V19.15C20.77 18.84 22.75 16.6199 22.75 13.4399V7.43994C22.75 3.99994 20.44 1.68994 17 1.68994H7C3.56 1.68994 1.25 3.99994 1.25 7.43994V13.4399C1.25 16.8799 3.56 19.1899 7 19.1899H10.77L15.03 22.03ZM2.75 7.42993C2.75 4.84993 4.42 3.17993 7 3.17993H17.01C19.59 3.17993 21.26 4.84993 21.26 7.42993V13.4299C21.26 16.0099 19.59 17.6799 17.01 17.6799C16.6 17.6799 16.26 18.0199 16.26 18.4299V20.5599C16.26 20.6899 16.18 20.75 16.13 20.78C16.08 20.81 15.98 20.84 15.87 20.77L11.42 17.8099C11.29 17.7199 11.15 17.6799 11 17.6799H7C4.42 17.6799 2.75 16.0099 2.75 13.4299V7.42993ZM8.5 11.25H15.5C15.91 11.25 16.25 10.91 16.25 10.5C16.25 10.09 15.91 9.75 15.5 9.75H8.5C8.09 9.75 7.75 10.09 7.75 10.5C7.75 10.91 8.09 11.25 8.5 11.25Z" fill="#292D32"/>
</svg>
