<svg viewBox="0 0 24 24" fill="none" xmlns="http://www.w3.org/2000/svg">
<path fill-rule="evenodd" clip-rule="evenodd" d="M13.19 6.75H6.79963C6.56963 6.75 6.34966 6.76 6.13966 6.78C6.11443 6.78344 6.08906 6.78543 6.06369 6.78604C3.7898 7.00444 2.75 8.27434 2.75 10.79V14.79C2.75 18.22 3.81001 18.83 6.79001 18.83H7.19C7.64 18.83 8.14999 19.08 8.42999 19.44L9.63 21.05C9.85001 21.35 10.13 21.35 10.35 21.05L11.55 19.45C11.84 19.06 12.3 18.83 12.79 18.83H13.19C15.73 18.83 17 17.76 17.19 15.48C17.22 15.24 17.23 15.02 17.23 14.79V10.79C17.23 8.00001 15.98 6.75 13.19 6.75ZM5.37605 5.36722C5.71371 3.36287 6.98238 1.25 10.7996 1.25H17.1997C20.8197 1.25 22.7396 3.17001 22.7396 6.79001V10.79C22.7396 14.6168 20.6162 15.874 18.6074 16.2139C18.2767 18.202 17.0209 20.33 13.19 20.33H12.79L11.55 21.95C11.16 22.48 10.59 22.78 9.98999 22.78C9.38999 22.78 8.81999 22.48 8.42999 21.95L7.23001 20.35C7.23001 20.3552 7.21636 20.3495 7.20047 20.3429C7.18594 20.3368 7.16955 20.33 7.16 20.33H6.79001C3.37001 20.33 1.25 19.4 1.25 14.79V10.79C1.25 6.96714 3.36908 5.70861 5.37605 5.36722ZM6.91966 5.25H13.1896H13.19C13.2182 5.25 13.2462 5.25012 13.2742 5.25035C13.3145 5.25069 13.3547 5.25127 13.3946 5.25209C16.8823 5.32362 18.73 7.23882 18.73 10.79V14.6599C20.4298 14.2398 21.2297 12.9899 21.2297 10.79V6.79001C21.2297 4.00001 19.9796 2.75 17.1896 2.75H10.7897C8.58965 2.75 7.34966 3.55 6.91966 5.25ZM5.80078 13.1899C5.80078 13.7399 6.24078 14.1899 6.80078 14.1899C7.35078 14.1899 7.80078 13.7399 7.80078 13.1899C7.80078 12.6399 7.35078 12.1899 6.80078 12.1899C6.25078 12.1899 5.80078 12.6399 5.80078 13.1899ZM9.99023 14.1899C9.43023 14.1899 8.99023 13.7399 8.99023 13.1899C8.99023 12.6399 9.44023 12.1899 9.99023 12.1899C10.5402 12.1899 10.9902 12.6399 10.9902 13.1899C10.9902 13.7399 10.5502 14.1899 9.99023 14.1899ZM13.1895 14.1899C12.6295 14.1899 12.1895 13.7399 12.1895 13.1899C12.1895 12.6399 12.6395 12.1899 13.1895 12.1899C13.7395 12.1899 14.1895 12.6399 14.1895 13.1899C14.1895 13.7399 13.7395 14.1899 13.1895 14.1899Z" fill="#292D32"/>
</svg>
