<svg viewBox="0 0 24 24" fill="none" xmlns="http://www.w3.org/2000/svg">
<path fill-rule="evenodd" clip-rule="evenodd" d="M7.25999 18.8898C7.18016 18.8898 7.10033 18.8798 7.02049 18.8698L7.02 18.8698C6.42 18.7898 5.91 18.4098 5.66 17.8698L4.39999 15.0997C2.39999 13.6197 1.25 11.4098 1.25 9.00977C1.25 4.73977 4.95 1.25977 9.5 1.25977C12.5847 1.25977 15.4108 2.88501 16.807 5.43447C20.3258 6.3899 22.7501 9.39979 22.7501 12.8701C22.7501 15.2701 21.6001 17.4801 19.6001 18.9601L18.3401 21.7301C18.0801 22.2901 17.5701 22.6701 16.9601 22.7401C16.8901 22.7501 16.8101 22.7501 16.7401 22.7501C16.2201 22.7501 15.7401 22.5201 15.4001 22.1201L14.1401 20.6101C12.0382 20.5232 10.0419 19.6745 8.59681 18.2734C8.25694 18.6612 7.7684 18.8898 7.25999 18.8898ZM15.394 14.4279C13.9737 15.7916 12.0238 16.6653 9.86182 16.7497L9.81471 16.8044L9.56525 17.1053C10.815 18.3721 12.6127 19.1101 14.5001 19.1101C14.7201 19.1101 14.9301 19.2101 15.0801 19.3801L16.5601 21.1601C16.6301 21.2501 16.7201 21.2601 16.7801 21.2501C16.8201 21.2501 16.9301 21.2201 16.9901 21.1001L18.3301 18.1501C18.3901 18.0301 18.4701 17.9201 18.5801 17.8501C20.2801 16.6501 21.2601 14.8301 21.2601 12.8601C21.2601 10.4601 19.7901 8.33014 17.5501 7.28014C17.6901 7.84014 17.7601 8.41011 17.7601 9.00011C17.7601 11.1109 16.8564 13.0286 15.394 14.4279ZM9.5 2.74976C12.1122 2.74976 14.4992 4.14978 15.5955 6.33957C15.6054 6.36684 15.6169 6.39372 15.6301 6.42009C16.0324 7.215 16.2422 8.06772 16.2499 8.95929L16.25 8.99976C16.25 12.4498 13.22 15.2498 9.5 15.2498C9.27 15.2498 9.06 15.3498 8.92 15.5198L7.44 17.2997C7.37 17.3797 7.27 17.3898 7.22 17.3798C7.17 17.3798 7.07 17.3497 7.02 17.2397L5.67999 14.2897C5.62999 14.1697 5.53999 14.0697 5.42999 13.9897C3.72999 12.7897 2.75 10.9698 2.75 8.99976C2.75 5.54976 5.78 2.74976 9.5 2.74976ZM7 9.75H12C12.41 9.75 12.75 9.41 12.75 9C12.75 8.59 12.41 8.25 12 8.25H7C6.59 8.25 6.25 8.59 6.25 9C6.25 9.41 6.59 9.75 7 9.75Z" fill="#292D32"/>
</svg>
