<svg viewBox="0 0 24 24" fill="none" xmlns="http://www.w3.org/2000/svg">
<path fill-rule="evenodd" clip-rule="evenodd" d="M15.0398 22.03C15.3298 22.22 15.6598 22.3199 15.9998 22.3199C16.2798 22.3199 16.5597 22.2499 16.8297 22.1199C17.3997 21.8099 17.7598 21.2199 17.7598 20.5699V19.15C19.1098 19.01 20.2798 18.4799 21.1598 17.5999C22.2098 16.5499 22.7598 15.1099 22.7598 13.4399V7.43994C22.7598 3.99994 20.4498 1.68994 17.0098 1.68994H7.00977C3.56977 1.68994 1.25977 3.99994 1.25977 7.43994V13.4399C1.25977 13.8038 1.28424 14.148 1.33319 14.4727C0.637104 15.3121 0.25 16.3733 0.25 17.5C0.25 18.37 0.490002 19.22 0.940002 19.94C1.78 21.37 3.34 22.25 5 22.25C6.17 22.25 7.27999 21.83 8.10999 21.07C8.48999 20.75 8.81 20.37 9.06 19.95C9.20883 19.7086 9.33469 19.454 9.43649 19.1899H10.7798L15.0398 22.03ZM2.60568 15.3075C2.63171 15.287 2.65648 15.2644 2.67975 15.2399C3.29975 14.6099 4.11977 14.2599 5.00977 14.2599C5.93977 14.2599 6.80977 14.65 7.41977 15.34C7.59255 15.5319 7.74076 15.7413 7.86243 15.9635C8.10958 16.4215 8.25 16.9449 8.25 17.5C8.25 18.09 8.08999 18.67 7.76999 19.18C7.60999 19.46 7.39001 19.72 7.13 19.94C6.55 20.46 5.79 20.75 5 20.75C3.87 20.75 2.8 20.15 2.22 19.17C1.91 18.67 1.75 18.09 1.75 17.5C1.75 16.6783 2.06 15.8979 2.60568 15.3075ZM4.96907 12.7501L5.00977 12.7499C6.36977 12.7499 7.65976 13.33 8.53976 14.33C9.31976 15.2 9.75977 16.3199 9.75977 17.4999C9.74977 17.5599 9.74976 17.6199 9.74976 17.6799H10.9998C11.1498 17.6799 11.2898 17.7199 11.4198 17.8099L15.8698 20.78C15.9798 20.85 16.0698 20.8199 16.1198 20.7899C16.1698 20.7599 16.2598 20.6999 16.2598 20.5599V18.4299C16.2598 18.0199 16.5998 17.6799 17.0098 17.6799C18.2798 17.6799 19.3498 17.28 20.0998 16.53C20.8598 15.77 21.2598 14.6999 21.2598 13.4299V7.42993C21.2598 4.84993 19.5898 3.17993 17.0098 3.17993H7.00977C4.42977 3.17993 2.75977 4.84993 2.75977 7.42993V13.3099C3.37469 12.9753 4.06321 12.788 4.78095 12.7552C4.84359 12.7522 4.90631 12.7505 4.96907 12.7501ZM4.42889 19.2401C4.2389 19.2401 4.0489 19.1701 3.8989 19.0201L2.90891 18.0301C2.61891 17.7401 2.61891 17.26 2.90891 16.97C3.19891 16.68 3.6789 16.68 3.9689 16.97L4.44891 17.4501L6.04889 15.97C6.34889 15.69 6.82889 15.7101 7.10889 16.0101C7.38889 16.3101 7.36891 16.7901 7.06891 17.0701L4.9389 19.04C4.78891 19.17 4.6089 19.2401 4.42889 19.2401ZM8.5 11.25H15.5C15.91 11.25 16.25 10.91 16.25 10.5C16.25 10.09 15.91 9.75 15.5 9.75H8.5C8.09 9.75 7.75 10.09 7.75 10.5C7.75 10.91 8.09 11.25 8.5 11.25Z" fill="#292D32"/>
</svg>
