<svg viewBox="0 0 24 24" fill="none" xmlns="http://www.w3.org/2000/svg">
<path fill-rule="evenodd" clip-rule="evenodd" d="M8.5 11.25H15.5C15.91 11.25 16.25 10.91 16.25 10.5C16.25 10.09 15.91 9.75 15.5 9.75H8.5C8.09 9.75 7.75 10.09 7.75 10.5C7.75 10.91 8.09 11.25 8.5 11.25ZM2.17 14.6698C3 13.8398 4.11998 13.4398 5.20998 13.5098C6.16998 13.5598 7.10997 13.9498 7.82997 14.6798C8.35997 15.2098 8.71999 15.8598 8.87999 16.5498C9.20999 17.8598 8.85997 19.3098 7.82997 20.3398C7.09997 21.0698 6.16999 21.4498 5.21999 21.4898C4.81999 21.5098 4.42 21.4798 4.04 21.3798C3.35 21.2098 2.7 20.8598 2.17 20.3298C0.61 18.7598 0.61 16.2298 2.17 14.6698ZM7.01998 18.0098C7.15998 17.8698 7.23998 17.6898 7.23998 17.4798C7.23998 17.0698 6.90998 16.7298 6.48998 16.7298H5.74999V16.0198C5.74999 15.6098 5.40999 15.2698 4.99999 15.2698C4.58999 15.2698 4.24999 15.6098 4.24999 16.0198V16.7298H3.49999C3.08999 16.7298 2.74999 17.0698 2.74999 17.4798C2.74999 17.8898 3.08999 18.2298 3.49999 18.2298H4.24999V19.0098C4.24999 19.4198 4.58999 19.7598 4.99999 19.7598C5.20999 19.7598 5.38999 19.6798 5.52999 19.5398C5.66999 19.3998 5.74999 19.2198 5.74999 19.0098V18.2298H6.48998C6.69998 18.2298 6.87998 18.1498 7.01998 18.0098Z" fill="#292D32"/>
<path opacity="0.4" d="M22 7.43018V13.4302C22 14.9302 21.5 16.1802 20.62 17.0602C19.75 17.9302 18.5 18.4302 17 18.4302V20.5602C17 21.3602 16.11 21.8402 15.45 21.4002L11 18.4302H8.88C8.96 18.1302 9 17.8202 9 17.5002C9 16.4802 8.61 15.5402 7.97 14.8302C7.25 14.0102 6.18 13.5002 5 13.5002C3.88 13.5002 2.86 13.9602 2.13 14.7102C2.04 14.3102 2 13.8802 2 13.4302V7.43018C2 4.43018 4 2.43018 7 2.43018H17C20 2.43018 22 4.43018 22 7.43018Z" fill="#292D32"/>
</svg>
