<svg viewBox="0 0 24 24" fill="none" xmlns="http://www.w3.org/2000/svg">
<path fill-rule="evenodd" clip-rule="evenodd" d="M18.03 1H20.97C22.24 1 23 1.76 23 3.03V5.97C23 7.24 22.24 8 20.97 8H18.03C16.76 8 16 7.24 16 5.97V3.03C16 1.76 16.76 1 18.03 1ZM19.5 6.5C19.95 6.5 21.24 5.86 21.61 4.68C21.87 3.89 21.58 2.86 20.66 2.57C20.24 2.44 19.8 2.52 19.48 2.77C19.17 2.51 18.73 2.44 18.32 2.57C17.63 2.79 17.3 3.46 17.3 4.11C17.3 4.3 17.33 4.5 17.39 4.68C17.77 5.88 19.05 6.5 19.5 6.5ZM14.5 5.97C14.5 7.92 16.08 9.5 18.03 9.5H21C21.55 9.5 22 9.95 22 10.5V13.96C22 16.72 19.77 18.95 17.01 18.95H15.5C15.19 18.95 14.89 19.1 14.7 19.35L13.2 21.34C12.54 22.22 11.46 22.22 10.8 21.34L9.3 19.35C9.14 19.13 8.78 18.95 8.5 18.95H7C4.24 18.95 2 16.71 2 13.95V6.98C2 4.23 4.24 2 7 2H13.5C14.05 2 14.5 2.45 14.5 3V5.97ZM7 11C7 11.55 7.44 12 8 12C8.56 12 9 11.55 9 11C9 10.45 8.55 10 8 10C7.44 10 7 10.45 7 11ZM11 11C11 11.55 11.44 12 12 12C12.56 12 13 11.55 13 11C13 10.45 12.55 10 12 10C11.44 10 11 10.45 11 11Z" fill="#292D32"/>
</svg>
