<svg viewBox="0 0 24 24" fill="none" xmlns="http://www.w3.org/2000/svg">
<path fill-rule="evenodd" clip-rule="evenodd" d="M20.83 14.43C20.09 15.18 19.02 15.6 17.75 15.6H17.59C17.31 15.6 17.09 15.38 17.09 15.1V12.4C17.09 9.69 14.9 7.5 12.19 7.5H5.5C5.22 7.5 5 7.28 5 7V6.25C5 3.9 6.9 2 9.25 2H17.75C20.1 2 22 3.9 22 6.25V11.35C22 12.62 21.58 13.69 20.83 14.43ZM15.59 16.47V12.4C15.59 10.36 14.23 9 12.19 9H5.4C5.26 9 5.13 9.01 5 9.02C3.18 9.19 2 10.5 2 12.4V16.47C2 17.49 2.34 18.34 2.94 18.94C3.53 19.53 4.38 19.87 5.4 19.87V21.32C5.4 21.86 6 22.19 6.45 21.88L9.47 19.87H12.19C13.87 19.87 15.09 18.95 15.46 17.48C15.55 17.17 15.59 16.83 15.59 16.47Z" fill="#292D32"/>
</svg>
