<svg viewBox="0 0 24 24" fill="none" xmlns="http://www.w3.org/2000/svg">
<path fill-rule="evenodd" clip-rule="evenodd" d="M11.2498 11.3599C11.2498 11.7699 11.5898 12.1099 11.9998 12.1099C12.4098 12.1099 12.7498 11.7799 12.7498 11.3599V11.1499C12.7498 10.8699 12.8698 10.6999 13.2598 10.4399C13.5698 10.2299 14.4098 9.6599 14.4098 8.5199C14.4098 7.1899 13.3298 6.10986 11.9998 6.10986C10.6698 6.10986 9.58984 7.1899 9.58984 8.5199C9.58984 8.9299 9.92984 9.2699 10.3398 9.2699C10.7498 9.2699 11.0898 8.9299 11.0898 8.5199C11.0898 8.0199 11.4998 7.60986 11.9998 7.60986C12.4998 7.60986 12.9098 8.0199 12.9098 8.5199C12.9098 8.7799 12.7898 8.94989 12.4198 9.19989C12.416 9.2025 12.4121 9.20515 12.4082 9.20786C12.0798 9.43348 11.2498 10.0036 11.2498 11.1499V11.3599ZM11.25 13.8501C11.25 14.2601 11.58 14.6001 12 14.6001C12.42 14.6001 12.75 14.2601 12.75 13.8501C12.75 13.4401 12.41 13.1001 12 13.1001C11.59 13.1001 11.25 13.4401 11.25 13.8501Z" fill="#292D32"/>
<path opacity="0.4" d="M17 18.4299H13L8.54999 21.39C7.88999 21.83 7 21.3599 7 20.5599V18.4299C4 18.4299 2 16.4299 2 13.4299V7.42993C2 4.42993 4 2.42993 7 2.42993H17C20 2.42993 22 4.42993 22 7.42993V13.4299C22 16.4299 20 18.4299 17 18.4299Z" fill="#292D32"/>
</svg>
