<svg viewBox="0 0 24 24" fill="none" xmlns="http://www.w3.org/2000/svg">
<path fill-rule="evenodd" clip-rule="evenodd" d="M16.9701 21.6198C17.2501 21.7898 17.5601 21.8698 17.8701 21.8698C18.2001 21.8698 18.5301 21.7698 18.8101 21.5898C19.3801 21.2198 19.6801 20.5798 19.6001 19.8998L19.2601 17.1797C21.4801 15.4697 22.7401 12.9698 22.7401 10.2498C22.7401 5.28976 18.4401 1.25977 13.1601 1.25977C7.88008 1.25977 3.58008 5.28976 3.58008 10.2498C3.58008 10.3836 3.58434 10.5153 3.59187 10.6458C2.12274 11.7525 1.25977 13.4362 1.25977 15.2298C1.25977 16.9398 2.05977 18.5698 3.40977 19.6698L3.20978 21.2098C3.14978 21.7398 3.38977 22.2398 3.83977 22.5298C4.06977 22.6798 4.31977 22.7498 4.57977 22.7498C4.81977 22.7498 5.05977 22.6898 5.27977 22.5598L7.71977 21.1098C9.43463 21.0545 11.005 20.3702 12.1252 19.1901C12.3995 19.2175 12.6798 19.2331 12.9601 19.2397L16.9701 21.6198ZM4.69805 11.6901C4.72951 11.6755 4.76025 11.6587 4.79007 11.6398C5.58007 11.1198 6.52008 10.8497 7.50008 10.8497C10.0935 10.8497 12.2068 12.78 12.2494 15.1662C12.2497 15.184 12.2498 15.2019 12.2498 15.2198C12.2498 16.1998 11.8998 17.1198 11.2398 17.8998C10.3598 18.9698 8.96977 19.5998 7.49977 19.5998C7.36977 19.5998 7.23977 19.6398 7.11977 19.7098L4.72977 21.1298L4.94977 19.4198C4.97977 19.1398 4.85978 18.8698 4.62978 18.7098C3.42978 17.8898 2.74977 16.6198 2.74977 15.2298C2.74977 13.8245 3.47354 12.5145 4.69805 11.6901ZM13.1638 17.7289C13.2992 17.7224 13.434 17.7624 13.5501 17.8398L17.7401 20.3298C17.8501 20.3998 17.9401 20.3698 18.0001 20.3298C18.0501 20.2998 18.1301 20.2198 18.1101 20.0798L17.7201 16.9197C17.6901 16.6397 17.8101 16.3698 18.0301 16.2098C20.0701 14.7798 21.2401 12.5997 21.2401 10.2297C21.2401 6.09974 17.6201 2.73975 13.1601 2.73975C8.87008 2.73975 5.35007 5.85979 5.09007 9.77979C5.84007 9.48979 6.65008 9.32977 7.49008 9.32977C8.57098 9.32977 9.58808 9.58891 10.4753 10.0448C12.4305 11.0408 13.7598 12.9905 13.7598 15.2298C13.7598 16.0949 13.5536 16.9514 13.1638 17.7289Z" fill="#292D32"/>
</svg>
