<svg viewBox="0 0 24 24" fill="none" xmlns="http://www.w3.org/2000/svg">
<path fill-rule="evenodd" clip-rule="evenodd" d="M6.99023 11C6.99023 11.55 7.44024 12 8.00024 12C8.56024 12 8.99023 11.55 8.99023 11C8.99023 10.45 8.54023 10 7.99023 10C7.44023 10 6.99023 10.45 6.99023 11ZM10.9902 11C10.9902 11.55 11.4402 12 12.0002 12C12.5602 12 12.9902 11.55 12.9902 11C12.9902 10.45 12.5402 10 11.9902 10C11.4402 10 10.9902 10.45 10.9902 11ZM21.79 20.73L22.53 21.47C22.82 21.76 22.82 22.24 22.53 22.53C22.38 22.68 22.19 22.75 22 22.75C21.81 22.75 21.62 22.68 21.47 22.53L20.73 21.79C20.15 22.17 19.45 22.4 18.7 22.4C16.66 22.4 15 20.74 15 18.7C15 16.66 16.66 15 18.7 15C20.74 15 22.4 16.66 22.4 18.7C22.4 19.45 22.17 20.15 21.79 20.73ZM16.0002 12C15.4402 12 14.9902 11.55 14.9902 11C14.9902 10.45 15.4402 10 15.9902 10C16.5402 10 16.9902 10.45 16.9902 11C16.9902 11.55 16.5602 12 16.0002 12Z" fill="#292D32"/>
<path opacity="0.4" d="M2 12.96V6.98C2 4.23 4.24 2 7 2H17C19.76 2 22 4.23 22 6.99V13.97C22 16.72 19.76 18.95 17 18.95H15.5C15.19 18.95 14.89 19.1 14.7 19.35L13.2 21.34C12.54 22.22 11.46 22.22 10.8 21.34L9.29999 19.35C9.12999 19.13 8.78 18.95 8.5 18.95H7C4.24 18.95 2 16.72 2 13.97V12.96Z" fill="#292D32"/>
</svg>
