<svg viewBox="0 0 24 24" fill="none" xmlns="http://www.w3.org/2000/svg">
<path fill-rule="evenodd" clip-rule="evenodd" d="M22.75 4C22.75 5.51878 21.5188 6.75 20 6.75C18.4812 6.75 17.25 5.51878 17.25 4C17.25 2.48122 18.4812 1.25 20 1.25C21.5188 1.25 22.75 2.48122 22.75 4ZM15.85 4.96C16.19 6.53 17.47 7.81 19.04 8.15C19.65 8.28 20.24 8.28 20.8 8.18C21.42 8.06 22 8.52 22 9.15V13.96C22 16.72 19.77 18.95 17.01 18.95H15.5C15.18 18.95 14.89 19.1 14.7 19.35L13.2 21.34C12.54 22.22 11.46 22.22 10.8 21.34L9.3 19.35C9.14 19.13 8.78 18.95 8.5 18.95H7C4.24 18.95 2 16.71 2 13.95V7C2 4.24 4.24 2 7 2H14.85C15.49 2 15.95 2.58 15.82 3.2C15.71 3.76 15.72 4.35 15.85 4.96ZM7 11C7 11.55 7.44 12 8 12C8.56 12 9 11.55 9 11C9 10.45 8.55 10 8 10C7.44 10 7 10.45 7 11ZM11 11C11 11.55 11.44 12 12 12C12.56 12 13 11.55 13 11C13 10.45 12.55 10 12 10C11.44 10 11 10.45 11 11ZM15 11C15 11.55 15.44 12 16 12C16.56 12 17 11.55 17 11C17 10.45 16.55 10 16 10C15.44 10 15 10.45 15 11Z" fill="#292D32"/>
</svg>
