<svg viewBox="0 0 24 24" fill="none" xmlns="http://www.w3.org/2000/svg">
<path fill-rule="evenodd" clip-rule="evenodd" d="M8.5 11.25H15.5C15.91 11.25 16.25 10.91 16.25 10.5C16.25 10.09 15.91 9.75 15.5 9.75H8.5C8.09 9.75 7.75 10.09 7.75 10.5C7.75 10.91 8.09 11.25 8.5 11.25ZM2.5 13.88C3.19 13.33 4.06 13 5 13C7.21 13 9 14.79 9 17C9 18.2 8.47001 19.27 7.64001 20C6.93001 20.62 6.01 21 5 21C2.79 21 1 19.21 1 17C1 15.74 1.58 14.61 2.5 13.88ZM5.64001 17.89C5.86001 17.76 6 17.51 6 17.25H6.01001V15.75C6.01001 15.34 5.67001 15 5.26001 15C4.85001 15 4.51001 15.34 4.51001 15.75V16.83L3.62 17.36C3.25999 17.57 3.14999 18.03 3.35999 18.39C3.49999 18.62 3.75 18.75 4 18.75C4.14 18.75 4.27001 18.71 4.39001 18.64L5.64001 17.89Z" fill="#292D32"/>
<path opacity="0.4" d="M22 7.43018V13.4302C22 14.9302 21.5 16.1802 20.62 17.0602C19.75 17.9302 18.5 18.4302 17 18.4302V20.5602C17 21.3602 16.11 21.8402 15.45 21.4002L11 18.4302H8.88C8.96 18.1302 9 17.8202 9 17.5002C9 16.4802 8.61 15.5402 7.97 14.8302C7.25 14.0102 6.18 13.5002 5 13.5002C3.88 13.5002 2.86 13.9602 2.13 14.7102C2.04 14.3102 2 13.8802 2 13.4302V7.43018C2 4.43018 4 2.43018 7 2.43018H17C20 2.43018 22 4.43018 22 7.43018Z" fill="#292D32"/>
</svg>
