<svg viewBox="0 0 24 24" fill="none" xmlns="http://www.w3.org/2000/svg">
<path fill-rule="evenodd" clip-rule="evenodd" d="M6.50462 16.925C5.68965 15.7853 5.25 14.4126 5.25 13V8C5.25 4.28 8.28 1.25 12 1.25C14.708 1.25 17.1031 2.85246 18.1722 5.25747L20.9695 2.46018C21.2595 2.17018 21.7395 2.17018 22.0295 2.46018C22.3195 2.75018 22.3195 3.23018 22.0295 3.52018L6.44742 19.1022C7.96707 20.4864 9.93475 21.2402 11.9894 21.2402C16.5394 21.2402 20.2394 17.5402 20.2394 12.9902V10.9902C20.2394 10.5802 20.5794 10.2402 20.9894 10.2402C21.3994 10.2402 21.7394 10.5802 21.7394 10.9902V12.9902C21.7494 18.3802 17.3794 22.7502 11.9994 22.7502C9.53595 22.7502 7.19089 21.8326 5.38569 20.1639L3.02945 22.5202C2.87945 22.6702 2.68945 22.7402 2.49945 22.7402C2.30945 22.7402 2.11945 22.6702 1.96945 22.5202C1.67945 22.2302 1.67945 21.7502 1.96945 21.4602L6.50462 16.925ZM17.0127 6.41688C16.3469 4.33567 14.4781 2.88176 12.3008 2.7585V5.49977C12.3008 5.91977 11.9608 6.24977 11.5508 6.24977C11.1408 6.24977 10.8008 5.90977 10.8008 5.49977V2.88826C10.2451 3.01865 9.72284 3.23761 9.25 3.52948V7.5C9.25 7.91 8.91 8.25 8.5 8.25C8.09 8.25 7.75 7.91 7.75 7.5V4.92066C7.12142 5.78563 6.75 6.84953 6.75 8V13C6.75 14.0152 7.04293 15.0032 7.58382 15.8458L17.0127 6.41688ZM9.65984 19.33C10.3998 19.61 11.1898 19.75 11.9998 19.75C15.7198 19.75 18.7498 16.72 18.7498 13V9.97998C18.7498 9.56998 18.4098 9.22998 17.9998 9.22998C17.5898 9.22998 17.2498 9.56998 17.2498 9.97998V13.01C17.2498 15.91 14.8898 18.26 11.9998 18.26C11.3798 18.26 10.7598 18.15 10.1798 17.93C9.79984 17.78 9.35984 17.98 9.21984 18.37C9.06984 18.75 9.26984 19.19 9.65984 19.33Z" fill="#292D32"/>
</svg>
