<svg viewBox="0 0 24 24" fill="none" xmlns="http://www.w3.org/2000/svg">
<path fill-rule="evenodd" clip-rule="evenodd" d="M6.83491 16.0804C6.21559 15.1396 5.87891 14.0219 5.87891 12.82V8.11C5.87891 6.27 6.69891 4.62 7.99891 3.5V7.64C7.99891 8.03 8.31891 8.35 8.69891 8.35C9.08891 8.35 9.40891 8.03 9.40891 7.64V2.57C9.86891 2.34 10.3589 2.18 10.8689 2.09V5.75C10.8689 6.15 11.1889 6.46 11.5789 6.46C11.9689 6.46 12.2889 6.15 12.2889 5.75V2C14.5655 2.10478 16.5426 3.47076 17.4857 5.4238L20.6789 2.22891C20.9789 1.92891 21.4689 1.92891 21.7689 2.22891C22.0789 2.52891 22.0789 3.00891 21.7689 3.30891L3.30891 21.7689C3.15891 21.9189 2.96891 21.9989 2.76891 21.9989C2.56891 21.9989 2.37891 21.9189 2.22891 21.7789C1.92891 21.4789 1.92891 20.9889 2.22891 20.6889L6.83491 16.0804ZM18.1202 12.8189V8.87891L8.91016 18.0889C9.01016 18.1589 9.11016 18.2089 9.21016 18.2589C9.22516 18.2639 9.23766 18.2714 9.25016 18.2789C9.26266 18.2864 9.27516 18.2939 9.29016 18.2989C9.41016 18.3689 9.53016 18.4189 9.66016 18.4689C9.86016 18.5489 10.0702 18.6289 10.2902 18.6889C10.4202 18.7289 10.5602 18.7689 10.7002 18.7989C10.7244 18.8029 10.7454 18.8086 10.7651 18.8139L10.7651 18.8139L10.7651 18.814C10.7941 18.8218 10.8204 18.8289 10.8502 18.8289C10.9699 18.8489 11.0995 18.8688 11.2292 18.8888L11.2292 18.8888L11.2302 18.8889C11.3002 18.8989 11.3802 18.9089 11.4602 18.9089C11.6402 18.9289 11.8202 18.9389 12.0002 18.9389C15.3702 18.9389 18.1202 16.1889 18.1202 12.8189ZM21.7497 11V13C21.7497 18.38 17.3797 22.75 11.9997 22.75C9.87969 22.75 7.84969 22.07 6.17969 20.82L7.25969 19.74C8.63969 20.72 10.2797 21.25 11.9997 21.25C16.5497 21.25 20.2497 17.55 20.2497 13V11C20.2497 10.59 20.5897 10.25 20.9997 10.25C21.4097 10.25 21.7497 10.59 21.7497 11Z" fill="#292D32"/>
</svg>
