<svg viewBox="0 0 24 24" fill="none" xmlns="http://www.w3.org/2000/svg">
<path fill-rule="evenodd" clip-rule="evenodd" d="M20.6811 2.22891C20.9811 1.92891 21.4711 1.92891 21.7711 2.22891C22.0811 2.52891 22.0811 3.00891 21.7711 3.30891L3.31109 21.7689C3.16109 21.9189 2.97109 21.9989 2.77109 21.9989C2.57109 21.9989 2.38109 21.9189 2.22109 21.7789C1.92109 21.4789 1.92109 20.9889 2.22109 20.6889L6.24109 16.6689C4.97109 15.2789 4.19109 13.4289 4.19109 11.3989V9.80891C4.19109 9.42891 4.50109 9.11891 4.88109 9.11891C5.27109 9.11891 5.58109 9.42891 5.58109 9.80891V11.3989C5.58109 13.0489 6.20109 14.5489 7.23109 15.6789L8.61157 14.2984C7.96384 13.4806 7.57812 12.44 7.57812 11.3416V6.4216C7.57812 4.3616 8.97813 2.6516 10.8781 2.1616C11.0681 2.1116 11.2481 2.2716 11.2481 2.4616V4.0016C11.2481 4.4116 11.5881 4.7516 11.9981 4.7516C12.4081 4.7516 12.7481 4.4116 12.7481 4.0016V2.4616C12.7481 2.2716 12.9281 2.1116 13.1181 2.1616C15.0181 2.6516 16.4181 4.3616 16.4181 6.4216V6.49187L20.6811 2.22891ZM19.8117 11.4011V9.81109C19.8117 9.43109 19.5017 9.12109 19.1217 9.12109C18.7317 9.12109 18.4217 9.43109 18.4217 9.81109V11.4011C18.4217 14.9311 15.5417 17.8111 12.0017 17.8111C11.0317 17.8111 10.1117 17.5911 9.29172 17.2111L8.26172 18.2411C9.18172 18.7511 10.2117 19.0711 11.3017 19.1711V21.3011C11.3017 21.6911 11.6117 22.0011 12.0017 22.0011C12.3917 22.0011 12.7017 21.6911 12.7017 21.3011V19.1711C16.6817 18.8211 19.8117 15.4711 19.8117 11.4011ZM16.4183 10.0781V11.5281C16.4183 14.1081 14.1983 16.1781 11.5583 15.9281C11.2783 15.8981 10.9983 15.8481 10.7383 15.7581L16.4183 10.0781Z" fill="#292D32"/>
</svg>
