<svg viewBox="0 0 24 24" fill="none" xmlns="http://www.w3.org/2000/svg">
<path fill-rule="evenodd" clip-rule="evenodd" d="M5.25 13C5.25 16.72 8.28 19.75 12 19.75C15.72 19.75 18.75 16.72 18.75 13V8C18.75 4.28 15.72 1.25 12 1.25C8.28 1.25 5.25 4.28 5.25 8V13ZM6.75 8C6.75 5.1 9.11 2.75 12 2.75C14.89 2.75 17.25 5.1 17.25 8V13C17.25 15.9 14.89 18.25 12 18.25C9.11 18.25 6.75 15.9 6.75 13V8ZM2.25 13C2.25 18.38 6.62 22.75 12 22.75C17.38 22.75 21.75 18.38 21.75 13V11C21.75 10.59 21.41 10.25 21 10.25C20.59 10.25 20.25 10.59 20.25 11V13C20.25 17.55 16.55 21.25 12 21.25C7.45 21.25 3.75 17.55 3.75 13V11C3.75 10.59 3.41 10.25 3 10.25C2.59 10.25 2.25 10.59 2.25 11V13ZM14.6099 8.22988C14.5299 8.22988 14.4399 8.21988 14.3499 8.18988C12.7399 7.60988 10.9699 7.60988 9.35988 8.18988C8.97988 8.32988 8.54988 8.12988 8.40988 7.73988C8.26988 7.34988 8.46988 6.91988 8.85988 6.77988C10.7999 6.07988 12.9299 6.07988 14.8699 6.77988C15.2599 6.91988 15.4599 7.34988 15.3199 7.73988C15.2099 8.04988 14.9199 8.22988 14.6099 8.22988ZM13.4999 11.2C13.5699 11.22 13.6399 11.23 13.6999 11.23C14.0299 11.23 14.3299 11.02 14.4299 10.67C14.5399 10.27 14.2999 9.85998 13.8999 9.74998C12.5699 9.38998 11.1699 9.38998 9.83992 9.74998C9.43992 9.85998 9.19992 10.27 9.30992 10.67C9.41992 11.07 9.81992 11.31 10.2299 11.2C11.2999 10.91 12.4299 10.91 13.4999 11.2Z" fill="#292D32"/>
</svg>
