<svg viewBox="0 0 24 24" fill="none" xmlns="http://www.w3.org/2000/svg">
<path fill-rule="evenodd" clip-rule="evenodd" d="M5.89844 8.1C5.89844 4.74 8.63844 2 11.9984 2C15.3584 2 18.0984 4.74 18.0984 8.1V12.79C18.0984 16.15 15.3584 18.89 11.9984 18.89C8.63844 18.89 5.89844 16.15 5.89844 12.79V8.1ZM13.5884 11.04C13.8584 11.04 14.1084 10.86 14.1784 10.59C14.2684 10.26 14.0784 9.93 13.7484 9.84C12.5184 9.5 11.2184 9.5 9.98844 9.84C9.65844 9.93 9.46844 10.27 9.55844 10.59C9.64844 10.92 9.97844 11.11 10.3084 11.02C11.3284 10.74 12.4084 10.74 13.4284 11.02C13.4784 11.03 13.5384 11.04 13.5884 11.04ZM14.4584 8.22C14.7084 8.22 14.9384 8.07 15.0284 7.82C15.1384 7.51 14.9784 7.16 14.6584 7.04C12.8684 6.39 10.8884 6.39 9.08844 7.04C8.76844 7.16 8.60844 7.51 8.71844 7.82C8.83844 8.14 9.18844 8.3 9.50844 8.18C11.0384 7.62 12.7184 7.62 14.2484 8.18C14.3184 8.21 14.3884 8.22 14.4584 8.22ZM2.85156 12.7792C2.85156 17.8292 6.96156 21.9292 12.0016 21.9292C17.0416 21.9292 21.1516 17.8292 21.1316 12.7792V10.8992C21.1316 10.5192 20.8116 10.1992 20.4316 10.1992C20.0516 10.1992 19.7316 10.5092 19.7316 10.8992V12.7792C19.7316 17.0492 16.2616 20.5192 11.9916 20.5192C7.72156 20.5192 4.25156 17.0492 4.25156 12.7792V10.8992C4.25156 10.5192 3.93156 10.1992 3.55156 10.1992C3.17156 10.1992 2.85156 10.5092 2.85156 10.8992V12.7792Z" fill="#292D32"/>
</svg>
