<svg viewBox="0 0 24 24" fill="none" xmlns="http://www.w3.org/2000/svg">
<path fill-rule="evenodd" clip-rule="evenodd" d="M8 11.75C7.59 11.75 7.25 11.41 7.25 11V6C7.25 3.38 9.38 1.25 12 1.25C14.3374 1.25 16.2848 2.94532 16.6777 5.17143L19.5394 2.30979C19.8294 2.01979 20.3094 2.01979 20.5994 2.30979C20.8894 2.59979 20.8894 3.07979 20.5994 3.36979L9.95177 14.024C10.5245 14.4898 11.2492 14.75 12.0006 14.75C13.7906 14.75 15.2506 13.29 15.2506 11.5V11C15.2506 10.59 15.5906 10.25 16.0006 10.25C16.4106 10.25 16.7506 10.59 16.7506 11V11.5C16.7506 14.12 14.6206 16.25 12.0006 16.25C10.852 16.25 9.74739 15.8312 8.88847 15.0879L7.44539 16.5319C8.70506 17.6386 10.3151 18.2499 11.9993 18.2499C15.7993 18.2499 18.8993 15.1499 18.8993 11.3499V9.6499C18.8993 9.2399 19.2393 8.8999 19.6493 8.8999C20.0593 8.8999 20.3993 9.2399 20.3993 9.6499V11.3499C20.3993 15.727 17.03 19.3354 12.75 19.7166V22C12.75 22.41 12.41 22.75 12 22.75C11.59 22.75 11.25 22.41 11.25 22V19.7168C9.44344 19.5565 7.73721 18.819 6.37843 17.5995L4.45937 19.5198C4.30937 19.6698 4.11937 19.7398 3.91937 19.7398C3.72937 19.7398 3.53938 19.6698 3.38937 19.5198C3.09938 19.2298 3.09938 18.7498 3.38937 18.4598L15.2952 6.55399C15.266 6.47445 15.25 6.38887 15.25 6.3V6C15.25 4.21 13.79 2.75 12 2.75C11.9025 2.75 11.8061 2.75433 11.7108 2.7628C11.7362 2.83755 11.75 2.91735 11.75 3V6C11.75 6.41 11.41 6.75 11 6.75C10.59 6.75 10.25 6.41 10.25 6V3.26353C9.34898 3.84234 8.75 4.85348 8.75 6V11C8.75 11.41 8.41 11.75 8 11.75ZM4.94961 15.0799C4.65961 15.0799 4.37961 14.9099 4.25961 14.6199C3.81961 13.5799 3.59961 12.4899 3.59961 11.3499V9.6499C3.59961 9.2399 3.93961 8.8999 4.34961 8.8999C4.75961 8.8999 5.09961 9.2399 5.09961 9.6499V11.3499C5.09961 12.2799 5.27961 13.1799 5.63961 14.0299C5.79961 14.4099 5.61961 14.8499 5.23961 15.0099C5.14961 15.0599 5.04961 15.0799 4.94961 15.0799Z" fill="#292D32"/>
</svg>
