<svg viewBox="0 0 24 24" fill="none" xmlns="http://www.w3.org/2000/svg">
<path fill-rule="evenodd" clip-rule="evenodd" d="M7.57812 6.42C7.57812 3.98 9.55812 2 11.9981 2C14.4381 2 16.4181 3.98 16.4181 6.42V11.54C16.4181 13.98 14.4381 15.96 11.9981 15.96C9.55812 15.96 7.57812 13.98 7.57812 11.54V6.42ZM12.7481 9.38C13.0081 9.38 13.2381 9.21 13.3081 8.95C13.3881 8.64 13.2081 8.32 12.9081 8.24C12.3181 8.08 11.6981 8.08 11.1081 8.24C10.7981 8.32 10.6081 8.64 10.6981 8.95C10.7781 9.26 11.0881 9.45 11.4081 9.36C11.7981 9.25 12.2081 9.25 12.5981 9.36C12.6481 9.37 12.6981 9.38 12.7481 9.38ZM13.2881 7.39C13.5281 7.39 13.7481 7.25 13.8381 7.01C13.9481 6.71 13.7881 6.38 13.4881 6.27C12.5281 5.92 11.4681 5.92 10.5081 6.27C10.2081 6.37 10.0481 6.71 10.1581 7.01C10.2681 7.31 10.6081 7.47 10.9081 7.36C11.6081 7.1 12.3881 7.1 13.0881 7.36C13.1581 7.38 13.2181 7.39 13.2881 7.39ZM18.4197 9.81938C18.4197 9.42937 18.7297 9.11938 19.1197 9.11938C19.4997 9.11938 19.8097 9.42938 19.8197 9.80938V11.3894C19.8197 15.4594 16.6797 18.8194 12.6997 19.1694V21.2994C12.6997 21.6894 12.3897 21.9994 11.9997 21.9994C11.6097 21.9994 11.2997 21.6894 11.2997 21.2994V19.1694C7.30969 18.8094 4.17969 15.4594 4.17969 11.3894V9.80938C4.17969 9.41938 4.48969 9.10938 4.87969 9.10938C5.26969 9.10938 5.57969 9.41938 5.57969 9.80938V11.3994C5.57969 14.9394 8.45969 17.8194 11.9997 17.8194C15.5397 17.8194 18.4197 14.9394 18.4197 11.3994V9.81938Z" fill="#292D32"/>
</svg>
