<svg viewBox="0 0 24 24" fill="none" xmlns="http://www.w3.org/2000/svg">
<path fill-rule="evenodd" clip-rule="evenodd" d="M1.16992 12C1.16992 17.93 5.99992 22.75 11.9199 22.75C17.8499 22.75 22.6699 17.93 22.6699 12C22.6699 6.07 17.8399 1.25 11.9199 1.25C5.99992 1.25 1.16992 6.07 1.16992 12ZM2.66992 12C2.66992 6.9 6.81992 2.75 11.9199 2.75C17.0199 2.75 21.1699 6.9 21.1699 12C21.1699 17.1 17.0199 21.25 11.9199 21.25C6.81992 21.25 2.66992 17.1 2.66992 12ZM7.16992 12C7.16992 12.41 7.50992 12.75 7.91992 12.75H15.9199C16.3399 12.75 16.6699 12.41 16.6699 12C16.6699 11.59 16.3299 11.25 15.9199 11.25H7.91992C7.50992 11.25 7.16992 11.59 7.16992 12Z" fill="#292D32"/>
</svg>
