<svg viewBox="0 0 24 24" fill="none" xmlns="http://www.w3.org/2000/svg">
<path fill-rule="evenodd" clip-rule="evenodd" d="M18.5 14.75C18.09 14.75 17.75 14.41 17.75 14V10C17.75 9.59 18.09 9.25 18.5 9.25C18.91 9.25 19.25 9.59 19.25 10V14C19.25 14.41 18.91 14.75 18.5 14.75ZM12 14.5C13.3807 14.5 14.5 13.3807 14.5 12C14.5 10.6193 13.3807 9.5 12 9.5C10.6193 9.5 9.5 10.6193 9.5 12C9.5 13.3807 10.6193 14.5 12 14.5ZM2 15.36C2.73 14.53 3.8 14 5 14C7.21 14 9 15.79 9 18C9 18.75 8.78998 19.46 8.41998 20.06C8.20998 20.42 7.94 20.74 7.63 21C6.93001 21.63 6.01 22 5 22C3.54 22 2.27002 21.22 1.58002 20.06C1.21002 19.46 1 18.75 1 18C1 16.99 1.38 16.07 2 15.36ZM6.07001 19.8C6.26001 19.8 6.44998 19.73 6.59998 19.58C6.88998 19.28 6.88998 18.81 6.59998 18.52L6.07001 17.99L6.57001 17.49C6.86001 17.2 6.86001 16.72 6.57001 16.43C6.28001 16.14 5.80001 16.14 5.51001 16.43L5.01001 16.93L4.47998 16.4C4.18998 16.11 3.70998 16.11 3.41998 16.4C3.12998 16.69 3.12998 17.17 3.41998 17.46L3.95001 17.99L3.40002 18.54C3.11002 18.83 3.11002 19.31 3.40002 19.6C3.55002 19.75 3.73999 19.82 3.92999 19.82C4.11999 19.82 4.31002 19.75 4.46002 19.6L5.01001 19.05L5.53998 19.58C5.68998 19.73 5.88001 19.8 6.07001 19.8Z" fill="#292D32"/>
<path opacity="0.4" d="M22 9V15C22 18.5 20 20 17 20H8.45001C8.80001 19.41 9 18.73 9 18C9 15.79 7.21 14 5 14C3.8 14 2.73 14.53 2 15.36V9C2 5.5 4 4 7 4H17C20 4 22 5.5 22 9Z" fill="#292D32"/>
</svg>
