<svg viewBox="0 0 24 24" fill="none" xmlns="http://www.w3.org/2000/svg">
<path fill-rule="evenodd" clip-rule="evenodd" d="M18.5 14.75C18.09 14.75 17.75 14.41 17.75 14V10C17.75 9.59 18.09 9.25 18.5 9.25C18.91 9.25 19.25 9.59 19.25 10V14C19.25 14.41 18.91 14.75 18.5 14.75ZM12 14.5C13.3807 14.5 14.5 13.3807 14.5 12C14.5 10.6193 13.3807 9.5 12 9.5C10.6193 9.5 9.5 10.6193 9.5 12C9.5 13.3807 10.6193 14.5 12 14.5ZM1 18C1 15.79 2.79 14 5 14C7.21 14 9 15.79 9 18C9 18.75 8.79001 19.46 8.42001 20.06C7.73001 21.22 6.46 22 5 22C3.54 22 2.26999 21.22 1.57999 20.06C1.20999 19.46 1 18.75 1 18ZM4.84 19.64L6.97 17.67C7.27 17.39 7.29001 16.91 7.01001 16.61C6.73001 16.31 6.25001 16.29 5.95001 16.57L4.35001 18.05L3.87 17.57C3.58 17.28 3.1 17.28 2.81 17.57C2.52 17.86 2.52 18.34 2.81 18.63L3.79999 19.62C3.94999 19.77 4.13999 19.84 4.32999 19.84C4.50999 19.84 4.7 19.77 4.84 19.64Z" fill="#292D32"/>
<path opacity="0.4" d="M22 9V15C22 18.5 20 20 17 20H8.45001C8.80001 19.41 9 18.73 9 18C9 15.79 7.21 14 5 14C3.8 14 2.73 14.53 2 15.36V9C2 5.5 4 4 7 4H17C20 4 22 5.5 22 9Z" fill="#292D32"/>
</svg>
