<svg viewBox="0 0 24 24" fill="none" xmlns="http://www.w3.org/2000/svg">
<path fill-rule="evenodd" clip-rule="evenodd" d="M17.75 14C17.75 14.41 18.09 14.75 18.5 14.75C18.91 14.75 19.25 14.41 19.25 14V10C19.25 9.59 18.91 9.25 18.5 9.25C18.09 9.25 17.75 9.59 17.75 10V14ZM12 14.5C13.3807 14.5 14.5 13.3807 14.5 12C14.5 10.6193 13.3807 9.5 12 9.5C10.6193 9.5 9.5 10.6193 9.5 12C9.5 13.3807 10.6193 14.5 12 14.5ZM1.71027 20.22C1.71027 20.22 1.71026 20.23 1.70026 20.24C1.66026 20.18 1.62025 20.12 1.57025 20.06C1.20025 19.46 0.990234 18.75 0.990234 18C0.990234 15.79 2.78023 14 4.99023 14C5.82023 14 6.60023 14.26 7.24023 14.7C7.23523 14.705 7.23024 14.7075 7.22525 14.71C7.22026 14.7125 7.21527 14.715 7.21027 14.72L1.71027 20.22ZM8.29001 15.765C8.2925 15.76 8.29499 15.755 8.29999 15.75C8.73999 16.39 9 17.16 9 18C9 18.75 8.78998 19.46 8.41998 20.06C7.72998 21.22 6.46 22 5 22C4.16 22 3.39 21.74 2.75 21.3C2.755 21.295 2.76001 21.2925 2.76501 21.29C2.77002 21.2875 2.77503 21.285 2.78003 21.28L8.28003 15.78C8.28503 15.775 8.28752 15.77 8.29001 15.765Z" fill="#292D32"/>
<path opacity="0.4" d="M22 9V15C22 18.5 20 20 17 20H8.45001C8.80001 19.41 9 18.73 9 18C9 15.79 7.21 14 5 14C3.8 14 2.73 14.53 2 15.36V9C2 5.5 4 4 7 4H17C20 4 22 5.5 22 9Z" fill="#292D32"/>
</svg>
