<svg viewBox="0 0 24 24" fill="none" xmlns="http://www.w3.org/2000/svg">
<path fill-rule="evenodd" clip-rule="evenodd" d="M7 3.5H17C20 3.5 22 5 22 8.5V9V15V15.5C22 19 20 20.5 17 20.5H7C4 20.5 2 19 2 15.5V15V9V8.5C2 5 4 3.5 7 3.5ZM3.5 15.02C6.09 15.14 7 16.18 7 19H17C17 16.18 17.91 15.14 20.5 15.02V15V9V8.98C17.91 8.86 17 7.82 17 5H7C7 7.82 6.09 8.86 3.5 8.98V9V15V15.02ZM15 12C15 13.6569 13.6569 15 12 15C10.3431 15 9 13.6569 9 12C9 10.3431 10.3431 9 12 9C13.6569 9 15 10.3431 15 12Z" fill="#292D32"/>
</svg>
