<svg viewBox="0 0 24 24" fill="none" xmlns="http://www.w3.org/2000/svg">
<path fill-rule="evenodd" clip-rule="evenodd" d="M17 20.75H12C11.59 20.75 11.25 20.41 11.25 20C11.25 19.59 11.59 19.25 12 19.25H17C19.86 19.25 21.25 17.86 21.25 15V9C21.25 6.14 19.86 4.75 17 4.75H7C4.14 4.75 2.75 6.14 2.75 9V11C2.75 11.41 2.41 11.75 2 11.75C1.59 11.75 1.25 11.41 1.25 11V9C1.25 5.35 3.35 3.25 7 3.25H17C20.65 3.25 22.75 5.35 22.75 9V15C22.75 18.65 20.65 20.75 17 20.75ZM12 15.25C10.21 15.25 8.75 13.79 8.75 12C8.75 10.21 10.21 8.75 12 8.75C13.79 8.75 15.25 10.21 15.25 12C15.25 13.79 13.79 15.25 12 15.25ZM12 10.25C11.04 10.25 10.25 11.04 10.25 12C10.25 12.96 11.04 13.75 12 13.75C12.96 13.75 13.75 12.96 13.75 12C13.75 11.04 12.96 10.25 12 10.25ZM17.75 14.5C17.75 14.91 18.09 15.25 18.5 15.25C18.91 15.25 19.25 14.91 19.25 14.5V9.5C19.25 9.09 18.91 8.75 18.5 8.75C18.09 8.75 17.75 9.09 17.75 9.5V14.5ZM8.5 18.69C8.09 18.69 7.75 18.35 7.75 17.94V16.66C7.75 16.44 7.57003 16.25 7.34003 16.25H3.8035C4.0382 16.5427 4.0202 16.979 3.74948 17.2497C3.59948 17.3997 3.40945 17.4697 3.21945 17.4697C3.02945 17.4697 2.83948 17.3997 2.68948 17.2497L1.46945 16.0298C1.39686 15.9572 1.34244 15.8727 1.30619 15.7822C1.27002 15.6948 1.25 15.5995 1.25 15.5C1.25 15.4065 1.2677 15.3166 1.29988 15.2335C1.336 15.1369 1.39252 15.0466 1.46945 14.9697L2.68948 13.7497C2.97948 13.4597 3.45948 13.4597 3.74948 13.7497C4.02036 14.0206 4.03822 14.4573 3.80306 14.75H7.34003C8.39003 14.75 9.25 15.61 9.25 16.66V17.94C9.25 18.35 8.91 18.69 8.5 18.69ZM6.69503 21.5298H3.15997C2.10997 21.5298 1.25 20.6698 1.25 19.6198V18.3398C1.25 17.9298 1.59 17.5898 2 17.5898C2.41 17.5898 2.75 17.9298 2.75 18.3398V19.6198C2.75 19.8398 2.92997 20.0298 3.15997 20.0298H6.69483C6.46003 19.7371 6.478 19.3007 6.74875 19.03C7.03875 18.74 7.51875 18.74 7.80875 19.03L9.02878 20.25C9.06715 20.2883 9.10044 20.33 9.12866 20.3742C9.20526 20.4916 9.25 20.6311 9.25 20.7798C9.25 20.9238 9.20811 21.059 9.13601 21.174C9.10628 21.2225 9.07053 21.2682 9.02878 21.31L7.80875 22.53C7.66875 22.68 7.46878 22.75 7.27878 22.75C7.08878 22.75 6.89875 22.68 6.74875 22.53C6.47792 22.2592 6.46002 21.8226 6.69503 21.5298Z" fill="#292D32"/>
</svg>
