<svg viewBox="0 0 24 24" fill="none" xmlns="http://www.w3.org/2000/svg">
<path fill-rule="evenodd" clip-rule="evenodd" d="M7 4H17C20 4 22 5.5 22 9V15.01C22 18.51 20 20.01 17 20.01H10.81C10.49 20.01 10.24 19.72 10.32 19.41C10.43 19.01 10.49 18.6 10.5 18.18C10.57 15.51 8.64 13.07 6.01 12.6C4.82 12.39 3.69 12.56 2.71 13.01C2.38 13.16 2 12.93 2 12.56V9C2 5.5 4 4 7 4ZM9.5 12C9.5 13.38 10.62 14.5 12 14.5C13.38 14.5 14.5 13.38 14.5 12C14.5 10.62 13.38 9.5 12 9.5C10.62 9.5 9.5 10.62 9.5 12ZM18.5 14.75C18.91 14.75 19.25 14.41 19.25 14V10C19.25 9.59 18.91 9.25 18.5 9.25C18.09 9.25 17.75 9.59 17.75 10V14C17.75 14.41 18.09 14.75 18.5 14.75ZM1 18C1 15.79 2.79 14 5 14C7.21 14 9 15.79 9 18C9 20.21 7.21 22 5 22C2.79 22 1 20.21 1 18ZM5.15 19.18C5.67 18.87 6 18.29 6 17.68V16.75C6 16.34 5.66 16 5.25 16C4.84 16 4.5 16.34 4.5 16.76V17.69C4.5 17.77 4.45 17.86 4.38 17.9L3.62 18.36C3.26 18.57 3.15 19.04 3.36 19.39C3.5 19.62 3.75 19.75 4 19.75C4.13 19.75 4.27 19.72 4.39 19.64L5.15 19.18Z" fill="#292D32"/>
</svg>
