<svg viewBox="0 0 24 24" fill="none" xmlns="http://www.w3.org/2000/svg">
<path fill-rule="evenodd" clip-rule="evenodd" d="M14.8909 3.51953C17.1309 3.51953 18.7409 4.46953 19.1709 6.63953C19.2609 7.02953 19.3009 7.44953 19.3009 7.91953V13.0695C19.3009 16.1495 17.5409 17.4695 14.9009 17.4695H6.11094C5.66094 17.4695 5.23094 17.4295 4.83094 17.3395C4.58094 17.2995 4.34094 17.2295 4.12094 17.1495C2.62094 16.5895 1.71094 15.2895 1.71094 13.0695V7.91953C1.71094 4.83953 3.47094 3.51953 6.11094 3.51953H14.8909ZM4.78094 12.7495C5.19094 12.7495 5.53094 12.4095 5.53094 11.9995V8.99953C5.53094 8.58953 5.19094 8.24953 4.78094 8.24953C4.37094 8.24953 4.03094 8.58953 4.03094 8.99953V11.9995C4.03094 12.4095 4.37094 12.7495 4.78094 12.7495ZM7.86094 10.4995C7.86094 11.9595 9.04094 13.1395 10.5009 13.1395C11.9609 13.1395 13.1409 11.9595 13.1409 10.4995C13.1409 9.03953 11.9609 7.85953 10.5009 7.85953C9.04094 7.85953 7.86094 9.03953 7.86094 10.4995ZM16.2109 12.7495C16.6209 12.7495 16.9609 12.4095 16.9609 11.9995V8.99953C16.9609 8.58953 16.6209 8.24953 16.2109 8.24953C15.8009 8.24953 15.4609 8.58953 15.4609 8.99953V11.9995C15.4609 12.4095 15.8009 12.7495 16.2109 12.7495ZM22.3017 16.0683V10.9183C22.3017 9.47832 21.9117 8.42832 21.2317 7.70832C21.0617 7.52832 20.7917 7.67832 20.7917 7.91832V13.0783C20.7917 16.7683 18.5917 18.9683 14.8917 18.9683H6.11172C5.86172 18.9683 5.72172 19.2383 5.90172 19.4083C6.23172 19.7283 6.64172 19.9783 7.11172 20.1483C7.69172 20.3683 8.36172 20.4783 9.11172 20.4783H17.8917C20.5417 20.4783 22.3017 19.1483 22.3017 16.0683Z" fill="#292D32"/>
</svg>
