<svg viewBox="0 0 24 24" fill="none" xmlns="http://www.w3.org/2000/svg">
<path fill-rule="evenodd" clip-rule="evenodd" d="M7 4H17C20 4 22 5.5 22 9V15.01C22 18.51 20 20.01 17 20.01H10.81C10.49 20.01 10.24 19.72 10.32 19.41C10.43 19.01 10.49 18.6 10.5 18.18C10.57 15.51 8.64 13.07 6.01 12.6C4.82 12.39 3.69 12.56 2.71 13.01C2.38 13.16 2 12.93 2 12.56V9C2 5.5 4 4 7 4ZM9.5 12C9.5 13.38 10.62 14.5 12 14.5C13.38 14.5 14.5 13.38 14.5 12C14.5 10.62 13.38 9.5 12 9.5C10.62 9.5 9.5 10.62 9.5 12ZM18.5 14.75C18.91 14.75 19.25 14.41 19.25 14V10C19.25 9.59 18.91 9.25 18.5 9.25C18.09 9.25 17.75 9.59 17.75 10V14C17.75 14.41 18.09 14.75 18.5 14.75ZM2 15.36C2.73 14.53 3.8 14 5 14C7.21 14 9 15.79 9 18C9 18.75 8.79 19.46 8.42 20.06C8.21 20.42 7.94 20.74 7.63 21C6.93 21.63 6.01 22 5 22C3.54 22 2.27 21.22 1.58 20.06C1.21 19.46 1 18.75 1 18C1 16.99 1.38 16.07 2 15.36ZM6.07 19.8C6.26 19.8 6.45 19.73 6.6 19.58C6.89 19.28 6.89 18.81 6.6 18.52L6.07 17.99L6.57 17.49C6.86 17.2 6.86 16.72 6.57 16.43C6.28 16.14 5.8 16.14 5.51 16.43L5.01 16.93L4.48 16.4C4.19 16.11 3.71 16.11 3.42 16.4C3.13 16.69 3.13 17.17 3.42 17.46L3.95 17.99L3.4 18.54C3.11 18.83 3.11 19.31 3.4 19.6C3.55 19.75 3.74 19.82 3.93 19.82C4.12 19.82 4.31 19.75 4.46 19.6L5.01 19.05L5.54 19.58C5.69 19.73 5.88 19.8 6.07 19.8Z" fill="#292D32"/>
</svg>
