<svg viewBox="0 0 24 24" fill="none" xmlns="http://www.w3.org/2000/svg">
<path fill-rule="evenodd" clip-rule="evenodd" d="M22.5295 2.52994L19.5795 5.47994C19.2495 5.10994 18.8995 4.74994 18.5195 4.41994L21.4695 1.46994C21.7595 1.17994 22.2395 1.17994 22.5295 1.46994C22.8195 1.75994 22.8195 2.23994 22.5295 2.52994ZM16.9998 2.25C17.4098 2.25 17.7498 2.59 17.7498 3V3.82C17.2798 3.49 16.7798 3.21 16.2598 2.96C16.2798 2.57 16.5998 2.25 16.9998 2.25ZM21.7499 7C21.7499 6.59 21.4099 6.25 20.9999 6.25H20.1699C20.4999 6.72 20.7899 7.22 21.0299 7.74C21.4299 7.72 21.7499 7.4 21.7499 7ZM12.75 11.47L13.75 11.82C14.4 12.04 15.25 12.51 15.25 13.98C15.25 15.24 14.26 16.26 13.05 16.26H12.75V16.51C12.75 16.92 12.41 17.26 12 17.26C11.59 17.26 11.25 16.92 11.25 16.51V16.26H11.17C9.83001 16.26 8.75 15.14 8.75 13.76C8.75 13.35 9.09 13.01 9.5 13.01C9.91 13.01 10.25 13.35 10.25 13.76C10.25 14.31 10.66 14.76 11.17 14.76H11.25V12.54L10.25 12.19C9.6 11.96 8.75 11.49 8.75 10.03C8.75 8.77 9.74001 7.75 10.95 7.75H11.25V7.5C11.25 7.09 11.59 6.75 12 6.75C12.41 6.75 12.75 7.09 12.75 7.5V7.75H12.83C14.17 7.75 15.25 8.87 15.25 10.25C15.25 10.66 14.91 11 14.5 11C14.09 11 13.75 10.66 13.75 10.25C13.75 9.7 13.34 9.25 12.83 9.25H12.75V11.47ZM10.25 10.02C10.25 10.57 10.4 10.64 10.74 10.76L11.25 10.93V9.24H10.95C10.57 9.24 10.25 9.59 10.25 10.02ZM12.75 14.75H13.05C13.43 14.75 13.75 14.4 13.75 13.98C13.75 13.43 13.6 13.36 13.26 13.24L12.75 13.06V14.75Z" fill="#292D32"/>
<path opacity="0.4" fill-rule="evenodd" clip-rule="evenodd" d="M16.71 7.69C16.81 7.73 16.9 7.75 17 7.75H21C21.0117 7.75 21.02 7.74657 21.0269 7.74372C21.0317 7.74171 21.0359 7.74 21.04 7.74C21.65 9.04 22 10.48 22 12C22 17.52 17.52 22 12 22C6.48 22 2 17.52 2 12C2 6.48 6.48 2 12 2C13.52 2 14.96 2.35 16.25 2.95C16.25 2.96171 16.2466 2.97 16.2437 2.97686C16.2417 2.98171 16.24 2.98586 16.24 2.99V6.99C16.24 7.09 16.26 7.19 16.3 7.28C16.38 7.47 16.53 7.61 16.71 7.69ZM18.52 4.41982C18.27 4.20982 18.02 4.00982 17.75 3.81982V5.17982L18.52 4.41982ZM18.8105 6.24998H20.1706C19.9806 5.97998 19.7806 5.72998 19.5706 5.47998L18.8105 6.24998Z" fill="#292D32"/>
</svg>
