<svg viewBox="0 0 24 24" fill="none" xmlns="http://www.w3.org/2000/svg">
<path fill-rule="evenodd" clip-rule="evenodd" d="M7 4H17C20 4 22 5.5 22 9V15.01C22 18.51 20 20.01 17 20.01H10.81C10.49 20.01 10.24 19.72 10.32 19.41C10.43 19.01 10.49 18.6 10.5 18.18C10.57 15.51 8.64 13.07 6.01 12.6C4.82 12.39 3.69 12.56 2.71 13.01C2.38 13.16 2 12.93 2 12.56V9C2 5.5 4 4 7 4ZM9.5 12C9.5 13.38 10.62 14.5 12 14.5C13.38 14.5 14.5 13.38 14.5 12C14.5 10.62 13.38 9.5 12 9.5C10.62 9.5 9.5 10.62 9.5 12ZM18.5 14.75C18.91 14.75 19.25 14.41 19.25 14V10C19.25 9.59 18.91 9.25 18.5 9.25C18.09 9.25 17.75 9.59 17.75 10V14C17.75 14.41 18.09 14.75 18.5 14.75ZM1.7 20.24C1.71 20.23 1.71 20.22 1.71 20.22L7.21 14.72C7.215 14.715 7.22 14.7125 7.225 14.71C7.23 14.7075 7.235 14.705 7.24 14.7C6.61 14.26 5.84 14 5 14C2.79 14 1 15.79 1 18C1 18.75 1.21 19.46 1.58 20.06L1.7 20.24ZM8.3 15.75C8.295 15.755 8.2925 15.76 8.29 15.765C8.2875 15.77 8.285 15.775 8.28 15.78L2.78 21.28C2.775 21.285 2.77 21.2875 2.765 21.29C2.76 21.2925 2.755 21.295 2.75 21.3C3.39 21.74 4.16 22 5 22C6.46 22 7.73 21.22 8.42 20.06C8.79 19.46 9 18.75 9 18C9 17.16 8.74 16.39 8.3 15.75Z" fill="#292D32"/>
</svg>
