<svg viewBox="0 0 24 24" fill="none" xmlns="http://www.w3.org/2000/svg">
<path fill-rule="evenodd" clip-rule="evenodd" d="M1.25 15.5C1.25 19.15 3.35 21.25 7 21.25H17C20.65 21.25 22.75 19.15 22.75 15.5V8.5C22.75 4.85 20.65 2.75 17 2.75H7C3.35 2.75 1.25 4.85 1.25 8.5V15.5ZM2.75 8.5C2.75 5.64 4.14 4.25 7 4.25H17C19.86 4.25 21.25 5.64 21.25 8.5V15.5C21.25 18.36 19.86 19.75 17 19.75H7C4.14 19.75 2.75 18.36 2.75 15.5V8.5ZM8.25 12C8.25 14.07 9.93 15.75 12 15.75C14.07 15.75 15.75 14.07 15.75 12C15.75 9.93 14.07 8.25 12 8.25C9.93 8.25 8.25 9.93 8.25 12ZM9.75 12C9.75 10.76 10.76 9.75 12 9.75C13.24 9.75 14.25 10.76 14.25 12C14.25 13.24 13.24 14.25 12 14.25C10.76 14.25 9.75 13.24 9.75 12ZM4.5 10.75C4.09 10.75 3.75 10.41 3.75 10V8.5C3.75 6.71 5.21 5.25 7 5.25H8.5C8.91 5.25 9.25 5.59 9.25 6C9.25 6.41 8.91 6.75 8.5 6.75H7C6.04 6.75 5.25 7.54 5.25 8.5V10C5.25 10.41 4.91 10.75 4.5 10.75ZM18.75 10C18.75 10.41 19.09 10.75 19.5 10.75C19.91 10.75 20.25 10.41 20.25 10V8.5C20.25 6.71 18.79 5.25 17 5.25H15.5C15.09 5.25 14.75 5.59 14.75 6C14.75 6.41 15.09 6.75 15.5 6.75H17C17.96 6.75 18.75 7.54 18.75 8.5V10ZM8.5 18.75H7C5.21 18.75 3.75 17.29 3.75 15.5V14C3.75 13.59 4.09 13.25 4.5 13.25C4.91 13.25 5.25 13.59 5.25 14V15.5C5.25 16.46 6.04 17.25 7 17.25H8.5C8.91 17.25 9.25 17.59 9.25 18C9.25 18.41 8.91 18.75 8.5 18.75ZM15.5 18.75H17C18.79 18.75 20.25 17.29 20.25 15.5V14C20.25 13.59 19.91 13.25 19.5 13.25C19.09 13.25 18.75 13.59 18.75 14V15.5C18.75 16.46 17.96 17.25 17 17.25H15.5C15.09 17.25 14.75 17.59 14.75 18C14.75 18.41 15.09 18.75 15.5 18.75Z" fill="#292D32"/>
</svg>
