<svg viewBox="0 0 24 24" fill="none" xmlns="http://www.w3.org/2000/svg">
<path fill-rule="evenodd" clip-rule="evenodd" d="M8.86633 20.75H17C20.65 20.75 22.75 18.65 22.75 15V9C22.75 5.35 20.65 3.25 17 3.25H7C3.35 3.25 1.25 5.35 1.25 9V15.0869C0.62347 15.8918 0.25 16.9029 0.25 18C0.25 18.87 0.490002 19.72 0.940002 20.44C1.78 21.87 3.34 22.75 5 22.75C6.53974 22.75 7.99344 21.9929 8.86633 20.75ZM9.58141 19.25H17C19.86 19.25 21.25 17.86 21.25 15V9C21.25 6.14 19.86 4.75 17 4.75H7C4.14 4.75 2.75 6.14 2.75 9V13.8171C3.42 13.4554 4.18637 13.25 5 13.25C7.62 13.25 9.75 15.38 9.75 18C9.75 18.4253 9.69263 18.8459 9.58141 19.25ZM8.75 12C8.75 13.79 10.21 15.25 12 15.25C13.79 15.25 15.25 13.79 15.25 12C15.25 10.21 13.79 8.75 12 8.75C10.21 8.75 8.75 10.21 8.75 12ZM10.25 12C10.25 11.04 11.04 10.25 12 10.25C12.96 10.25 13.75 11.04 13.75 12C13.75 12.96 12.96 13.75 12 13.75C11.04 13.75 10.25 12.96 10.25 12ZM17.75 14.5C17.75 14.91 18.09 15.25 18.5 15.25C18.91 15.25 19.25 14.91 19.25 14.5V9.5C19.25 9.09 18.91 8.75 18.5 8.75C18.09 8.75 17.75 9.09 17.75 9.5V14.5ZM5 14.75C3.21 14.75 1.75 16.21 1.75 18C1.75 18.59 1.91 19.17 2.22 19.67C2.8 20.65 3.87 21.25 5 21.25C6.13 21.25 7.2 20.65 7.78 19.68C8.09 19.17 8.25 18.6 8.25 18C8.25 16.21 6.79 14.75 5 14.75ZM3.50977 18.73H4.25V19.51C4.25 19.92 4.59 20.26 5 20.26C5.41 20.26 5.75 19.93 5.75 19.51V18.73H6.49976C6.90976 18.73 7.24976 18.39 7.24976 17.98C7.24976 17.57 6.90976 17.23 6.49976 17.23H5.75V16.52C5.75 16.11 5.41 15.77 5 15.77C4.59 15.77 4.25 16.11 4.25 16.52V17.23H3.50977C3.09977 17.23 2.75977 17.57 2.75977 17.98C2.75977 18.39 3.09977 18.73 3.50977 18.73Z" fill="#292D32"/>
</svg>
