<svg viewBox="0 0 24 24" fill="none" xmlns="http://www.w3.org/2000/svg">
<path fill-rule="evenodd" clip-rule="evenodd" d="M7 4H17C20 4 22 5.5 22 9V15.01C22 18.51 20 20.01 17 20.01H10.81C10.49 20.01 10.24 19.72 10.32 19.41C10.43 19.01 10.49 18.6 10.5 18.18C10.57 15.51 8.64 13.07 6.01 12.6C4.82 12.39 3.69 12.56 2.71 13.01C2.38 13.16 2 12.93 2 12.56V9C2 5.5 4 4 7 4ZM9.5 12C9.5 13.38 10.62 14.5 12 14.5C13.38 14.5 14.5 13.38 14.5 12C14.5 10.62 13.38 9.5 12 9.5C10.62 9.5 9.5 10.62 9.5 12ZM18.5 14.75C18.91 14.75 19.25 14.41 19.25 14V10C19.25 9.59 18.91 9.25 18.5 9.25C18.09 9.25 17.75 9.59 17.75 10V14C17.75 14.41 18.09 14.75 18.5 14.75ZM1.89 15.49C2.62 14.59 3.75 14 5 14C7.21 14 9 15.8 9 18C9 18.47 8.92 18.92 8.77 19.33C8.23 20.89 6.74 22 5 22C2.8 22 1 20.21 1 18C1 17.05 1.33 16.18 1.89 15.49ZM7.26 19.9C7.3 19.86 7.34 19.8 7.36 19.74C7.41 19.62 7.41 19.48 7.37 19.37C7.34 19.31 7.3 19.25 7.26 19.21L6.54 18.49C6.36 18.3 6.05 18.3 5.86 18.49C5.7 18.65 5.68 18.88 5.78 19.07H3.77C3.66 19.07 3.58 18.98 3.58 18.87V18.77C3.58 18.49 3.36 18.28 3.09 18.28C2.82 18.28 2.6 18.49 2.6 18.77V18.87C2.6 19.52 3.12 20.04 3.76 20.04H5.77C5.67 20.22 5.69 20.46 5.85 20.61C5.94 20.71 6.07 20.75 6.2 20.75C6.33 20.75 6.45 20.71 6.54 20.61L7.26 19.9ZM6.91 17.72C7.18 17.72 7.4 17.51 7.4 17.23H7.39V17.13C7.39 16.48 6.87 15.96 6.23 15.96H4.22C4.32 15.78 4.3 15.54 4.14 15.39C3.96 15.19 3.65 15.19 3.46 15.39L2.74 16.1C2.70157 16.1307 2.67496 16.1792 2.65108 16.2227C2.64389 16.2358 2.63694 16.2484 2.63 16.26C2.59 16.38 2.59 16.51 2.63 16.63C2.66 16.69 2.7 16.75 2.74 16.79L3.46 17.51C3.55 17.6 3.68 17.65 3.8 17.65C3.94 17.65 4.06 17.6 4.15 17.51C4.31 17.35 4.33 17.12 4.23 16.93H6.23C6.34 16.93 6.42 17.02 6.42 17.13V17.23C6.42 17.51 6.64 17.72 6.91 17.72Z" fill="#292D32"/>
</svg>
