<svg viewBox="0 0 24 24" fill="none" xmlns="http://www.w3.org/2000/svg">
<path fill-rule="evenodd" clip-rule="evenodd" d="M18.5 14.75C18.09 14.75 17.75 14.41 17.75 14V10C17.75 9.59 18.09 9.25 18.5 9.25C18.91 9.25 19.25 9.59 19.25 10V14C19.25 14.41 18.91 14.75 18.5 14.75ZM12 14.5C13.3807 14.5 14.5 13.3807 14.5 12C14.5 10.6193 13.3807 9.5 12 9.5C10.6193 9.5 9.5 10.6193 9.5 12C9.5 13.3807 10.6193 14.5 12 14.5ZM1 18C1 15.79 2.79 14 5 14C7.21 14 9 15.79 9 18C9 18.75 8.79001 19.46 8.42001 20.06C7.73001 21.22 6.46 22 5 22C3.54 22 2.26999 21.22 1.57999 20.06C1.20999 19.46 1 18.75 1 18ZM5.75 18.73H6.48999C6.90999 18.73 7.23999 18.39 7.23999 17.98C7.23999 17.57 6.89999 17.23 6.48999 17.23H5.75V16.52C5.75 16.11 5.41 15.77 5 15.77C4.59 15.77 4.25 16.11 4.25 16.52V17.23H3.51001C3.10001 17.23 2.76001 17.57 2.76001 17.98C2.76001 18.39 3.10001 18.73 3.51001 18.73H4.25V19.51C4.25 19.92 4.59 20.26 5 20.26C5.41 20.26 5.75 19.92 5.75 19.51V18.73Z" fill="#292D32"/>
<path opacity="0.4" d="M22 9V15C22 18.5 20 20 17 20H8.45001C8.80001 19.41 9 18.73 9 18C9 15.79 7.21 14 5 14C3.8 14 2.73 14.53 2 15.36V9C2 5.5 4 4 7 4H17C20 4 22 5.5 22 9Z" fill="#292D32"/>
</svg>
