<svg viewBox="0 0 24 24" fill="none" xmlns="http://www.w3.org/2000/svg">
<path fill-rule="evenodd" clip-rule="evenodd" d="M17 20.75H8.86633C7.99344 21.9929 6.53974 22.75 5 22.75C3.34 22.75 1.78 21.87 0.940002 20.44C0.490002 19.72 0.25 18.87 0.25 18C0.25 16.9029 0.62347 15.8918 1.25 15.0869V9C1.25 5.35 3.35 3.25 7 3.25H17C20.65 3.25 22.75 5.35 22.75 9V15C22.75 18.65 20.65 20.75 17 20.75ZM17 19.25H9.58141C9.69263 18.8459 9.75 18.4253 9.75 18C9.75 15.38 7.62 13.25 5 13.25C4.18637 13.25 3.42 13.4554 2.75 13.8171V9C2.75 6.14 4.14 4.75 7 4.75H17C19.86 4.75 21.25 6.14 21.25 9V15C21.25 17.86 19.86 19.25 17 19.25ZM12 15.25C10.21 15.25 8.75 13.79 8.75 12C8.75 10.21 10.21 8.75 12 8.75C13.79 8.75 15.25 10.21 15.25 12C15.25 13.79 13.79 15.25 12 15.25ZM12 10.25C11.04 10.25 10.25 11.04 10.25 12C10.25 12.96 11.04 13.75 12 13.75C12.96 13.75 13.75 12.96 13.75 12C13.75 11.04 12.96 10.25 12 10.25ZM17.75 14.5C17.75 14.91 18.09 15.25 18.5 15.25C18.91 15.25 19.25 14.91 19.25 14.5V9.5C19.25 9.09 18.91 8.75 18.5 8.75C18.09 8.75 17.75 9.09 17.75 9.5V14.5ZM5 14.75C3.21 14.75 1.75 16.21 1.75 18C1.75 18.59 1.90997 19.17 2.21997 19.67C2.22609 19.6803 2.23227 19.6906 2.2385 19.7009L6.70454 15.2349C6.20846 14.9276 5.6243 14.75 5 14.75ZM7.76473 16.2948L3.29587 20.7636C3.80198 21.0765 4.39232 21.25 5 21.25C6.13 21.25 7.20003 20.65 7.78003 19.68C8.09003 19.17 8.25 18.6 8.25 18C8.25 17.3754 8.07224 16.791 7.76473 16.2948Z" fill="#292D32"/>
</svg>
