<svg viewBox="0 0 24 24" fill="none" xmlns="http://www.w3.org/2000/svg">
<path fill-rule="evenodd" clip-rule="evenodd" d="M22.3001 16.0701V10.9201C22.3001 8.38011 21.0801 7.04014 19.1801 6.64014C19.2601 7.03014 19.3001 7.4501 19.3001 7.9201V13.0701C19.3001 16.1501 17.5401 17.4701 14.9001 17.4701H6.11008C5.66008 17.4701 5.23008 17.4301 4.83008 17.3401C5.12008 18.8001 5.93009 19.7101 7.12009 20.1501C7.70009 20.3701 8.37008 20.4701 9.11008 20.4701H17.9001C20.5401 20.4701 22.3001 19.1501 22.3001 16.0701ZM13.1394 10.4999C13.1394 11.9579 11.9574 13.1399 10.4994 13.1399C9.04136 13.1399 7.85938 11.9579 7.85938 10.4999C7.85938 9.04185 9.04136 7.85986 10.4994 7.85986C11.9574 7.85986 13.1394 9.04185 13.1394 10.4999ZM4.7793 8.25C4.3693 8.25 4.0293 8.59 4.0293 9V12C4.0293 12.41 4.3693 12.75 4.7793 12.75C5.1893 12.75 5.5293 12.41 5.5293 12V9C5.5293 8.59 5.1993 8.25 4.7793 8.25ZM15.4609 9C15.4609 8.59 15.8009 8.25 16.2109 8.25C16.6309 8.25 16.9609 8.59 16.9609 9V12C16.9609 12.41 16.6209 12.75 16.2109 12.75C15.8009 12.75 15.4609 12.41 15.4609 12V9Z" fill="#292D32"/>
<path opacity="0.4" d="M19.3009 7.91998V13.07C19.3009 16.15 17.5409 17.47 14.9009 17.47H6.11093C5.66093 17.47 5.23093 17.43 4.83093 17.34C4.58093 17.3 4.34094 17.23 4.12094 17.15C2.62094 16.59 1.71094 15.29 1.71094 13.07V7.91998C1.71094 4.83998 3.47093 3.52002 6.11093 3.52002H14.9009C17.1409 3.52002 18.7509 4.47001 19.1809 6.64001C19.2509 7.04001 19.3009 7.44998 19.3009 7.91998Z" fill="#292D32"/>
</svg>
