<svg viewBox="0 0 24 24" fill="none" xmlns="http://www.w3.org/2000/svg">
<path fill-rule="evenodd" clip-rule="evenodd" d="M1.25 15.5C1.25 19.15 3.35 21.25 7 21.25H17C20.65 21.25 22.75 19.15 22.75 15.5V8.5C22.75 4.85 20.65 2.75 17 2.75H7C3.35 2.75 1.25 4.85 1.25 8.5V15.5ZM2.75 8.5C2.75 5.64 4.14 4.25 7 4.25H17C19.86 4.25 21.25 5.64 21.25 8.5V15.5C21.25 18.36 19.86 19.75 17 19.75H7C4.14 19.75 2.75 18.36 2.75 15.5V8.5ZM8.25 12C8.25 14.07 9.93 15.75 12 15.75C14.07 15.75 15.75 14.07 15.75 12C15.75 9.93 14.07 8.25 12 8.25C9.93 8.25 8.25 9.93 8.25 12ZM9.75 12C9.75 10.76 10.76 9.75 12 9.75C13.24 9.75 14.25 10.76 14.25 12C14.25 13.24 13.24 14.25 12 14.25C10.76 14.25 9.75 13.24 9.75 12ZM5.5 15.25C5.09 15.25 4.75 14.91 4.75 14.5V9.5C4.75 9.09 5.09 8.75 5.5 8.75C5.91 8.75 6.25 9.09 6.25 9.5V14.5C6.25 14.91 5.91 15.25 5.5 15.25ZM17.75 14.5C17.75 14.91 18.09 15.25 18.5 15.25C18.91 15.25 19.25 14.91 19.25 14.5V9.5C19.25 9.09 18.91 8.75 18.5 8.75C18.09 8.75 17.75 9.09 17.75 9.5V14.5Z" fill="#292D32"/>
</svg>
