<svg viewBox="0 0 24 24" fill="none" xmlns="http://www.w3.org/2000/svg">
<path fill-rule="evenodd" clip-rule="evenodd" d="M22.2802 1.30024C22.4702 1.38024 22.6102 1.53024 22.6902 1.71024C22.7302 1.81024 22.7502 1.90024 22.7402 2.00024V6.00024C22.7402 6.41024 22.4002 6.75024 21.9902 6.75024C21.5802 6.75024 21.2402 6.41024 21.2402 6.00024V3.80024L19.5703 5.47024C19.2403 5.09024 18.8903 4.74024 18.5103 4.41024L20.1802 2.74023H17.9902C17.5802 2.74023 17.2402 2.40023 17.2402 1.99023C17.2402 1.58023 17.5802 1.24023 17.9902 1.24023H21.9902C22.0902 1.24023 22.1902 1.26024 22.2802 1.30024ZM12.75 11.47L13.75 11.82C14.4 12.04 15.25 12.51 15.25 13.98C15.25 15.24 14.26 16.26 13.05 16.26H12.75V16.51C12.75 16.92 12.41 17.26 12 17.26C11.59 17.26 11.25 16.92 11.25 16.51V16.26H11.17C9.83001 16.26 8.75 15.14 8.75 13.76C8.75 13.35 9.09 13.01 9.5 13.01C9.91 13.01 10.25 13.35 10.25 13.76C10.25 14.31 10.66 14.76 11.17 14.76H11.25V12.54L10.25 12.19C9.6 11.96 8.75 11.49 8.75 10.03C8.75 8.77 9.74001 7.75 10.95 7.75H11.25V7.5C11.25 7.09 11.59 6.75 12 6.75C12.41 6.75 12.75 7.09 12.75 7.5V7.75H12.83C14.17 7.75 15.25 8.87 15.25 10.25C15.25 10.66 14.91 11 14.5 11C14.09 11 13.75 10.66 13.75 10.25C13.75 9.7 13.34 9.25 12.83 9.25H12.75V11.47ZM10.25 10.02C10.25 10.57 10.4 10.64 10.74 10.76L11.25 10.93V9.24H10.95C10.57 9.24 10.25 9.59 10.25 10.02ZM12.75 14.75H13.05C13.43 14.75 13.75 14.4 13.75 13.98C13.75 13.43 13.6 13.36 13.26 13.24L12.75 13.06V14.75Z" fill="#292D32"/>
<path opacity="0.4" d="M17 7.75C16.81 7.75 16.62 7.68 16.47 7.53C16.18 7.24 16.18 6.76 16.47 6.47L18.52 4.42C16.76 2.92 14.49 2 12 2C6.48 2 2 6.48 2 12C2 17.52 6.48 22 12 22C17.52 22 22 17.52 22 12C22 9.51 21.08 7.24 19.58 5.48L17.53 7.53C17.38 7.68 17.19 7.75 17 7.75Z" fill="#292D32"/>
</svg>
