<svg viewBox="0 0 24 24" fill="none" xmlns="http://www.w3.org/2000/svg">
<path fill-rule="evenodd" clip-rule="evenodd" d="M8.87147 20.75H17C20.65 20.75 22.75 18.65 22.75 15V9C22.75 5.35 20.65 3.25 17 3.25H7C3.35 3.25 1.25 5.35 1.25 9V15.0869C0.62347 15.8918 0.25 16.9029 0.25 18C0.25 20.62 2.38 22.75 5 22.75C6.5958 22.75 8.00981 21.9598 8.87147 20.75ZM9.58327 19.25H17C19.86 19.25 21.25 17.86 21.25 15V9C21.25 6.14 19.86 4.75 17 4.75H7C4.14 4.75 2.75 6.14 2.75 9V13.8171C3.42 13.4554 4.18637 13.25 5 13.25C7.62 13.25 9.75 15.38 9.75 18C9.75 18.4325 9.69196 18.8516 9.58327 19.25ZM12 15.25C10.21 15.25 8.75 13.79 8.75 12C8.75 10.21 10.21 8.75 12 8.75C13.79 8.75 15.25 10.21 15.25 12C15.25 13.79 13.79 15.25 12 15.25ZM12 10.25C11.04 10.25 10.25 11.04 10.25 12C10.25 12.96 11.04 13.75 12 13.75C12.96 13.75 13.75 12.96 13.75 12C13.75 11.04 12.96 10.25 12 10.25ZM18.5 15.25C18.09 15.25 17.75 14.91 17.75 14.5V9.5C17.75 9.09 18.09 8.75 18.5 8.75C18.91 8.75 19.25 9.09 19.25 9.5V14.5C19.25 14.91 18.91 15.25 18.5 15.25ZM1.75 18C1.75 16.21 3.21 14.75 5 14.75C6.79 14.75 8.25 16.21 8.25 18C8.25 19.79 6.79 21.25 5 21.25C3.21 21.25 1.75 19.79 1.75 18ZM3.99989 19.7498C3.74989 19.7498 3.49988 19.6198 3.35988 19.3898C3.14988 19.0398 3.25989 18.5697 3.61989 18.3597L4.3799 17.8998C4.4499 17.8598 4.49989 17.7698 4.49989 17.6898V16.7598C4.49989 16.3498 4.83989 16.0098 5.24989 16.0098C5.65989 16.0098 5.99989 16.3498 5.99989 16.7598V17.6898C5.99989 18.2998 5.66992 18.8798 5.14992 19.1898L4.38991 19.6498C4.26991 19.7198 4.12989 19.7498 3.99989 19.7498Z" fill="#292D32"/>
</svg>
