<svg viewBox="0 0 24 24" fill="none" xmlns="http://www.w3.org/2000/svg">
<path fill-rule="evenodd" clip-rule="evenodd" d="M7 4H17C20 4 22 5.5 22 9V15.01C22 18.51 20 20.01 17 20.01H10.81C10.49 20.01 10.24 19.72 10.32 19.41C10.43 19.01 10.49 18.6 10.5 18.18C10.57 15.51 8.64 13.07 6.01 12.6C4.82 12.39 3.69 12.56 2.71 13.01C2.38 13.16 2 12.93 2 12.56V9C2 5.5 4 4 7 4ZM9.5 12C9.5 13.38 10.62 14.5 12 14.5C13.38 14.5 14.5 13.38 14.5 12C14.5 10.62 13.38 9.5 12 9.5C10.62 9.5 9.5 10.62 9.5 12ZM18.5 14.75C18.91 14.75 19.25 14.41 19.25 14V10C19.25 9.59 18.91 9.25 18.5 9.25C18.09 9.25 17.75 9.59 17.75 10V14C17.75 14.41 18.09 14.75 18.5 14.75ZM1 18C1 15.79 2.79 14 5 14C7.21 14 9 15.79 9 18C9 18.75 8.79 19.46 8.42 20.06C7.73 21.22 6.46 22 5 22C3.54 22 2.27 21.22 1.58 20.06C1.21 19.46 1 18.75 1 18ZM4.84 19.64L6.97 17.67C7.27 17.39 7.29 16.91 7.01 16.61C6.73 16.31 6.25 16.29 5.95 16.57L4.35 18.05L3.87 17.57C3.58 17.28 3.1 17.28 2.81 17.57C2.52 17.86 2.52 18.34 2.81 18.63L3.8 19.62C3.95 19.77 4.14 19.84 4.33 19.84C4.51 19.84 4.7 19.77 4.84 19.64Z" fill="#292D32"/>
</svg>
