<svg viewBox="0 0 24 24" fill="none" xmlns="http://www.w3.org/2000/svg">
<path fill-rule="evenodd" clip-rule="evenodd" d="M1.25 12C1.25 17.93 6.07 22.75 12 22.75C17.93 22.75 22.75 17.93 22.75 12C22.75 11.59 22.41 11.25 22 11.25C21.59 11.25 21.25 11.59 21.25 12C21.25 17.1 17.1 21.25 12 21.25C6.9 21.25 2.75 17.1 2.75 12C2.75 6.9 6.9 2.75 12 2.75C12.41 2.75 12.75 2.41 12.75 2C12.75 1.59 12.41 1.25 12 1.25C6.07 1.25 1.25 6.07 1.25 12ZM12 17.25C11.59 17.25 11.25 16.91 11.25 16.5V16.2502H11.17C9.84001 16.2502 8.75 15.1302 8.75 13.7502C8.75 13.3402 9.09 13.0002 9.5 13.0002C9.91 13.0002 10.25 13.3402 10.25 13.7502C10.25 14.3002 10.66 14.7502 11.17 14.7502H11.25V12.5291L10.25 12.1802C9.61 11.9602 8.75 11.4902 8.75 10.0202C8.75 8.77023 9.74001 7.74023 10.95 7.74023H11.25V7.5C11.25 7.09 11.59 6.75 12 6.75C12.41 6.75 12.75 7.09 12.75 7.5V7.74023H12.83C14.16 7.74023 15.25 8.86023 15.25 10.2402C15.25 10.6502 14.91 10.9902 14.5 10.9902C14.09 10.9902 13.75 10.6502 13.75 10.2402C13.75 9.69023 13.34 9.24023 12.83 9.24023H12.75V11.4614L13.75 11.8102C14.39 12.0302 15.25 12.5002 15.25 13.9702C15.25 15.2302 14.26 16.2502 13.05 16.2502H12.75V16.5C12.75 16.91 12.41 17.25 12 17.25ZM11.25 9.24023V10.9381L10.74 10.7602C10.4 10.6402 10.25 10.5602 10.25 10.0202C10.25 9.59023 10.56 9.24023 10.95 9.24023H11.25ZM12.75 14.7502V13.0523L13.26 13.2302C13.6 13.3502 13.75 13.4302 13.75 13.9702C13.75 14.4002 13.44 14.7502 13.05 14.7502H12.75ZM21 7.75H17C16.9881 7.75 16.9762 7.74971 16.9645 7.74915C16.7863 7.74104 16.6102 7.67073 16.4695 7.52994C16.3953 7.45577 16.3401 7.36916 16.3038 7.27649C16.2692 7.19068 16.25 7.09731 16.25 7V3C16.25 2.59 16.59 2.25 17 2.25C17.41 2.25 17.75 2.59 17.75 3V5.1894L21.4695 1.46994C21.7595 1.17994 22.2395 1.17994 22.5295 1.46994C22.8195 1.75994 22.8195 2.23994 22.5295 2.52994L18.8094 6.25H21C21.41 6.25 21.75 6.59 21.75 7C21.75 7.41 21.41 7.75 21 7.75Z" fill="#292D32"/>
</svg>
