<svg viewBox="0 0 24 24" fill="none" xmlns="http://www.w3.org/2000/svg">
<path fill-rule="evenodd" clip-rule="evenodd" d="M14.8892 2.75977C17.4712 2.75977 19.1956 3.91498 19.8002 6.02895C21.8962 6.64887 23.0411 8.36803 23.0411 10.9198V16.0699C23.0411 19.3499 21.1711 21.2198 17.8911 21.2198H9.10107C8.25107 21.2198 7.49106 21.0998 6.84106 20.8498C5.52013 20.3556 4.611 19.3688 4.20076 17.9693C4.08717 17.9355 3.96904 17.8952 3.84921 17.8497C2.51921 17.3497 0.949219 16.1198 0.949219 13.0598V7.90973C0.949219 4.63973 2.82921 2.75977 6.09921 2.75977H14.8892ZM14.8992 4.27979C16.9102 4.27979 18.0647 5.06881 18.4289 6.70357C18.4313 6.73226 18.4353 6.76105 18.4411 6.78984C18.5111 7.12984 18.5411 7.49984 18.5411 7.91984V13.0699C18.5411 15.5299 17.3511 16.7198 14.8911 16.7198H6.10107C5.68107 16.7198 5.31107 16.6798 4.98107 16.6098C4.93491 16.5988 4.88841 16.5921 4.84213 16.5898C4.69429 16.5594 4.53998 16.516 4.37921 16.4598C3.08921 15.9698 2.4592 14.8698 2.4592 13.0798V7.92975C2.4592 5.46975 3.64919 4.27979 6.10919 4.27979H14.8992ZM5.92107 18.2198C6.24107 18.7998 6.72107 19.2099 7.38107 19.4499C7.86107 19.6299 8.44105 19.7198 9.11105 19.7198H17.9011C20.3611 19.7198 21.551 18.5299 21.551 16.0699V10.9198C21.551 9.33984 21.061 8.28985 20.051 7.73985V7.91984V13.0699C20.051 16.3399 18.1711 18.2198 14.9011 18.2198H6.11105H5.92107ZM7.10938 10.4999C7.10938 12.3699 8.62939 13.8899 10.4994 13.8899C12.3694 13.8899 13.8894 12.3699 13.8894 10.4999C13.8894 8.62988 12.3694 7.10986 10.4994 7.10986C8.62939 7.10986 7.10938 8.62988 7.10938 10.4999ZM8.60938 10.4999C8.60938 9.45988 9.45939 8.60986 10.4994 8.60986C11.5394 8.60986 12.3894 9.45988 12.3894 10.4999C12.3894 11.5399 11.5394 12.3899 10.4994 12.3899C9.45939 12.3899 8.60938 11.5399 8.60938 10.4999ZM4.78125 13.4498C4.37125 13.4498 4.03125 13.1098 4.03125 12.6998V8.2998C4.03125 7.8898 4.37125 7.5498 4.78125 7.5498C5.19125 7.5498 5.53125 7.8898 5.53125 8.2998V12.6998C5.53125 13.1098 5.20125 13.4498 4.78125 13.4498ZM15.4609 12.6998C15.4609 13.1098 15.8009 13.4498 16.2109 13.4498C16.6309 13.4498 16.9609 13.1098 16.9609 12.6998V8.2998C16.9609 7.8898 16.6209 7.5498 16.2109 7.5498C15.8009 7.5498 15.4609 7.8898 15.4609 8.2998V12.6998Z" fill="#292D32"/>
</svg>
