<svg viewBox="0 0 24 24" fill="none" xmlns="http://www.w3.org/2000/svg">
<path fill-rule="evenodd" clip-rule="evenodd" d="M8.86633 20.75H17C20.65 20.75 22.75 18.65 22.75 15V9C22.75 5.35 20.65 3.25 17 3.25H7C3.35 3.25 1.25 5.35 1.25 9V15.0869C0.62347 15.8918 0.25 16.9029 0.25 18C0.25 18.87 0.490002 19.72 0.940002 20.44C1.78 21.87 3.34 22.75 5 22.75C6.53974 22.75 7.99344 21.9929 8.86633 20.75ZM9.58141 19.25H17C19.86 19.25 21.25 17.86 21.25 15V9C21.25 6.14 19.86 4.75 17 4.75H7C4.14 4.75 2.75 6.14 2.75 9V13.8171C3.42 13.4554 4.18637 13.25 5 13.25C7.62 13.25 9.75 15.38 9.75 18C9.75 18.4253 9.69263 18.8459 9.58141 19.25ZM12 15.25C10.21 15.25 8.75 13.79 8.75 12C8.75 10.21 10.21 8.75 12 8.75C13.79 8.75 15.25 10.21 15.25 12C15.25 13.79 13.79 15.25 12 15.25ZM12 10.25C11.04 10.25 10.25 11.04 10.25 12C10.25 12.96 11.04 13.75 12 13.75C12.96 13.75 13.75 12.96 13.75 12C13.75 11.04 12.96 10.25 12 10.25ZM18.5 15.25C18.09 15.25 17.75 14.91 17.75 14.5V9.5C17.75 9.09 18.09 8.75 18.5 8.75C18.91 8.75 19.25 9.09 19.25 9.5V14.5C19.25 14.91 18.91 15.25 18.5 15.25ZM1.75 18C1.75 16.21 3.21 14.75 5 14.75C6.79 14.75 8.25 16.21 8.25 18C8.25 18.6 8.09 19.17 7.78 19.68C7.2 20.65 6.13 21.25 5 21.25C3.87 21.25 2.8 20.65 2.22 19.67C1.91 19.17 1.75 18.59 1.75 18ZM4.42889 19.7401C4.2389 19.7401 4.0489 19.6701 3.8989 19.5201L2.90891 18.5301C2.61891 18.2401 2.61891 17.76 2.90891 17.47C3.19891 17.18 3.6789 17.18 3.9689 17.47L4.44891 17.9501L6.04889 16.47C6.34889 16.19 6.82889 16.2101 7.10889 16.5101C7.38889 16.8101 7.36891 17.2901 7.06891 17.5701L4.9389 19.54C4.78891 19.67 4.6089 19.7401 4.42889 19.7401Z" fill="#292D32"/>
</svg>
