<svg viewBox="0 0 24 24" fill="none" xmlns="http://www.w3.org/2000/svg">
<path fill-rule="evenodd" clip-rule="evenodd" d="M1.25 15.5C1.25 19.15 3.35 21.25 7 21.25H17C20.65 21.25 22.75 19.15 22.75 15.5V8.5C22.75 4.85 20.65 2.75 17 2.75H7C3.35 2.75 1.25 4.85 1.25 8.5V15.5ZM2.75 8.5C2.75 5.64 4.14 4.25 7 4.25H17C19.86 4.25 21.25 5.64 21.25 8.5V15.5C21.25 18.36 19.86 19.75 17 19.75H7C4.14 19.75 2.75 18.36 2.75 15.5V8.5ZM8.25 12C8.25 14.07 9.93 15.75 12 15.75C14.07 15.75 15.75 14.07 15.75 12C15.75 9.93 14.07 8.25 12 8.25C9.93 8.25 8.25 9.93 8.25 12ZM9.75 12C9.75 10.76 10.76 9.75 12 9.75C13.24 9.75 14.25 10.76 14.25 12C14.25 13.24 13.24 14.25 12 14.25C10.76 14.25 9.75 13.24 9.75 12ZM19 7.75H16C15.59 7.75 15.25 7.41 15.25 7C15.25 6.59 15.59 6.25 16 6.25H19C19.41 6.25 19.75 6.59 19.75 7C19.75 7.41 19.41 7.75 19 7.75ZM5 17.75H8C8.41 17.75 8.75 17.41 8.75 17C8.75 16.59 8.41 16.25 8 16.25H5C4.59 16.25 4.25 16.59 4.25 17C4.25 17.41 4.59 17.75 5 17.75Z" fill="#292D32"/>
</svg>
