<svg viewBox="0 0 24 24" fill="none" xmlns="http://www.w3.org/2000/svg">
<path fill-rule="evenodd" clip-rule="evenodd" d="M1.25 15.5C1.25 19.15 3.35 21.25 7 21.25H17C20.65 21.25 22.75 19.15 22.75 15.5V15V9V8.5C22.75 4.85 20.65 2.75 17 2.75H7C3.35 2.75 1.25 4.85 1.25 8.5V9V15V15.5ZM21.25 14.25V9.75H21C17.58 9.75 16.25 8.42 16.25 5V4.25H7.75V5C7.75 8.42 6.42 9.75 3 9.75H2.75V14.25H3C6.42 14.25 7.75 15.58 7.75 19V19.75H16.25V19C16.25 15.58 17.58 14.25 21 14.25H21.25ZM17.75 19.7148V19C17.75 16.42 18.42 15.75 21 15.75H21.2463C21.174 18.1867 20.0267 19.4902 17.75 19.7148ZM6.25 19.7148C3.97335 19.4902 2.82599 18.1867 2.75365 15.75H3C5.58 15.75 6.25 16.42 6.25 19V19.7148ZM21.2463 8.25C21.174 5.81334 20.0267 4.50981 17.75 4.28515V5C17.75 7.58 18.42 8.25 21 8.25H21.2463ZM6.25 5V4.28515C3.97335 4.50981 2.82599 5.81334 2.75365 8.25H3C5.58 8.25 6.25 7.58 6.25 5ZM8.25 12C8.25 14.07 9.93 15.75 12 15.75C14.07 15.75 15.75 14.07 15.75 12C15.75 9.93 14.07 8.25 12 8.25C9.93 8.25 8.25 9.93 8.25 12ZM9.75 12C9.75 10.76 10.76 9.75 12 9.75C13.24 9.75 14.25 10.76 14.25 12C14.25 13.24 13.24 14.25 12 14.25C10.76 14.25 9.75 13.24 9.75 12Z" fill="#292D32"/>
</svg>
