<svg viewBox="0 0 24 24" fill="none" xmlns="http://www.w3.org/2000/svg">
<path fill-rule="evenodd" clip-rule="evenodd" d="M7 4H17C20 4 22 5.5 22 9V15.01C22 18.51 20 20.01 17 20.01H10.81C10.49 20.01 10.24 19.72 10.32 19.41C10.43 19.01 10.49 18.6 10.5 18.18C10.57 15.51 8.64 13.07 6.01 12.6C4.82 12.39 3.69 12.56 2.71 13.01C2.38 13.16 2 12.93 2 12.56V9C2 5.5 4 4 7 4ZM9.5 12C9.5 13.38 10.62 14.5 12 14.5C13.38 14.5 14.5 13.38 14.5 12C14.5 10.62 13.38 9.5 12 9.5C10.62 9.5 9.5 10.62 9.5 12ZM18.5 14.75C18.91 14.75 19.25 14.41 19.25 14V10C19.25 9.59 18.91 9.25 18.5 9.25C18.09 9.25 17.75 9.59 17.75 10V14C17.75 14.41 18.09 14.75 18.5 14.75ZM1 18C1 15.79 2.79 14 5 14C7.21 14 9 15.79 9 18C9 18.75 8.79 19.46 8.42 20.06C7.73 21.22 6.46 22 5 22C3.54 22 2.27 21.22 1.58 20.06C1.21 19.46 1 18.75 1 18ZM5.75 18.73H6.49C6.91 18.73 7.24 18.39 7.24 17.98C7.24 17.57 6.9 17.23 6.49 17.23H5.75V16.52C5.75 16.11 5.41 15.77 5 15.77C4.59 15.77 4.25 16.11 4.25 16.52V17.23H3.51C3.1 17.23 2.76 17.57 2.76 17.98C2.76 18.39 3.1 18.73 3.51 18.73H4.25V19.51C4.25 19.92 4.59 20.26 5 20.26C5.41 20.26 5.75 19.92 5.75 19.51V18.73Z" fill="#292D32"/>
</svg>
