<svg viewBox="0 0 24 24" fill="none" xmlns="http://www.w3.org/2000/svg">
<path fill-rule="evenodd" clip-rule="evenodd" d="M18.5 14.75C18.09 14.75 17.75 14.41 17.75 14V10C17.75 9.59 18.09 9.25 18.5 9.25C18.91 9.25 19.25 9.59 19.25 10V14C19.25 14.41 18.91 14.75 18.5 14.75ZM12 14.5C13.3807 14.5 14.5 13.3807 14.5 12C14.5 10.6193 13.3807 9.5 12 9.5C10.6193 9.5 9.5 10.6193 9.5 12C9.5 13.3807 10.6193 14.5 12 14.5ZM2 15.68C2.82 14.66 4.09 14 5.5 14C7.99 14 10 16.02 10 18.5C10 19.03 9.90999 19.53 9.73999 20C9.12999 21.75 7.46 23 5.5 23C3.02 23 1 20.99 1 18.5C1 17.43 1.37 16.45 2 15.68ZM8.03998 20.64C8.08998 20.59 8.12997 20.52 8.15997 20.46C8.20997 20.32 8.20997 20.17 8.15997 20.04C8.12997 19.97 8.08998 19.91 8.03998 19.86L7.22998 19.05C7.01998 18.84 6.67002 18.84 6.46002 19.05C6.28002 19.23 6.25999 19.49 6.37 19.7H4.10999C3.98999 19.7 3.90002 19.6 3.90002 19.48V19.37C3.90002 19.06 3.64998 18.82 3.34998 18.82C3.04998 18.82 2.79999 19.06 2.79999 19.37V19.48C2.79999 20.21 3.38999 20.8 4.10999 20.8H6.37C6.25999 21 6.28002 21.27 6.46002 21.44C6.56002 21.55 6.69998 21.6 6.84998 21.6C6.98998 21.6 7.12998 21.55 7.22998 21.44L8.03998 20.64ZM7.65002 18.18C7.95002 18.18 8.20001 17.94 8.20001 17.63V17.52C8.20001 16.79 7.61001 16.2 6.89001 16.2H4.63C4.74 16 4.71998 15.73 4.53998 15.56C4.32998 15.34 3.98002 15.34 3.77002 15.56L2.96002 16.36C2.91002 16.41 2.87003 16.48 2.84003 16.54C2.79003 16.68 2.79003 16.83 2.84003 16.96C2.87003 17.03 2.91002 17.09 2.96002 17.14L3.77002 17.95C3.87002 18.05 4.01002 18.11 4.15002 18.11C4.30002 18.11 4.43998 18.05 4.53998 17.95C4.71998 17.77 4.74 17.51 4.63 17.3H6.89001C7.01001 17.3 7.09998 17.4 7.09998 17.52V17.63C7.09998 17.94 7.35002 18.18 7.65002 18.18Z" fill="#292D32"/>
<path opacity="0.4" d="M22 9V15C22 18.5 20 20 17 20H9.73999C9.90999 19.53 10 19.03 10 18.5C10 16.02 7.99 14 5.5 14C4.09 14 2.82 14.66 2 15.68V9C2 5.5 4 4 7 4H17C20 4 22 5.5 22 9Z" fill="#292D32"/>
</svg>
