<svg viewBox="0 0 24 24" fill="none" xmlns="http://www.w3.org/2000/svg">
<path fill-rule="evenodd" clip-rule="evenodd" d="M11.9998 10.07C10.3998 10.07 9.08984 8.76 9.08984 7.16C9.08984 5.56 10.3998 4.25 11.9998 4.25C13.5998 4.25 14.9098 5.56 14.9098 7.16C14.9098 8.76 13.5998 10.07 11.9998 10.07ZM11.9998 5.75C11.2198 5.75 10.5898 6.38 10.5898 7.16C10.5898 7.94 11.2198 8.57 11.9998 8.57C12.7798 8.57 13.4098 7.94 13.4098 7.16C13.4098 6.38 12.7798 5.75 11.9998 5.75ZM6.17953 19.7502C4.57953 19.7502 3.26953 18.4402 3.26953 16.8402C3.26953 15.2402 4.57953 13.9302 6.17953 13.9302C7.77953 13.9302 9.08953 15.2402 9.08953 16.8402C9.08953 18.4402 7.77953 19.7502 6.17953 19.7502ZM6.17953 15.4302C5.39953 15.4302 4.76953 16.0602 4.76953 16.8402C4.76953 17.6202 5.39953 18.2502 6.17953 18.2502C6.95953 18.2502 7.58953 17.6202 7.58953 16.8402C7.58953 16.0602 6.94953 15.4302 6.17953 15.4302ZM14.2998 16.8402C14.2998 18.4402 15.6098 19.7502 17.2098 19.7502C18.8198 19.7502 20.1198 18.4402 20.1198 16.8402C20.1198 15.2402 18.8098 13.9302 17.2098 13.9302C15.6098 13.9302 14.2998 15.2402 14.2998 16.8402ZM15.7998 16.8402C15.7998 16.0602 16.4298 15.4302 17.2098 15.4302C17.9898 15.4302 18.6198 16.0602 18.6198 16.8402C18.6198 17.6202 17.9898 18.2502 17.2098 18.2502C16.4298 18.2502 15.7998 17.6202 15.7998 16.8402Z" fill="#292D32"/>
</svg>
