<svg viewBox="0 0 24 24" fill="none" xmlns="http://www.w3.org/2000/svg">
<path fill-rule="evenodd" clip-rule="evenodd" d="M1.25 15C1.25 20.43 3.57 22.75 9 22.75H15C20.43 22.75 22.75 20.43 22.75 15V9C22.75 3.57 20.43 1.25 15 1.25H9C3.57 1.25 1.25 3.57 1.25 9V15ZM2.75 9C2.75 4.39 4.39 2.75 9 2.75H15C19.61 2.75 21.25 4.39 21.25 9V15C21.25 19.61 19.61 21.25 15 21.25H9C4.39 21.25 2.75 19.61 2.75 15V9ZM11 12C11 12.55 11.44 13 12 13C12.56 13 13 12.55 13 12C13 11.45 12.55 11 12 11C11.45 11 11 11.45 11 12ZM16 13C15.44 13 15 12.55 15 12C15 11.45 15.45 11 16 11C16.55 11 17 11.45 17 12C17 12.55 16.56 13 16 13ZM7 12C7 12.55 7.44 13 8 13C8.56 13 9 12.55 9 12C9 11.45 8.55 11 8 11C7.45 11 7 11.45 7 12Z" fill="#292D32"/>
</svg>
