<svg viewBox="0 0 24 24" fill="none" xmlns="http://www.w3.org/2000/svg">
<path fill-rule="evenodd" clip-rule="evenodd" d="M8.28906 6.29C7.86906 6.29 7.53906 5.95 7.53906 5.54V2.75C7.53906 2.34 7.86906 2 8.28906 2C8.70906 2 9.03906 2.34 9.03906 2.75V5.53C9.03906 5.95 8.70906 6.29 8.28906 6.29ZM15.7109 6.29C15.2909 6.29 14.9609 5.95 14.9609 5.54V2.75C14.9609 2.33 15.3009 2 15.7109 2C16.1309 2 16.4609 2.34 16.4609 2.75V5.53C16.4609 5.95 16.1309 6.29 15.7109 6.29ZM17.96 5.95453C17.96 5.12453 18.91 4.65453 19.57 5.14453C20.74 6.03453 21.5 7.42453 21.5 9.01453V17.7745C21.5 20.4645 19.32 22.6445 16.63 22.6445H7.37C4.68 22.6445 2.5 20.4645 2.5 17.7745V9.01453C2.5 8.87453 2.51 8.73453 2.52 8.59453C2.53 8.47453 2.54 8.36453 2.56 8.25453C2.58 8.10453 2.61 7.95453 2.65 7.81453C2.69 7.66453 2.73 7.51453 2.79 7.36453C2.7956 7.35054 2.80041 7.33733 2.8051 7.32446C2.81716 7.29136 2.8284 7.26054 2.85 7.22453C2.89 7.09453 2.95 6.97453 3.01 6.85453C3.01 6.83453 3.02 6.82453 3.04 6.80453C3.11 6.66453 3.19 6.51453 3.28 6.38453C3.29 6.36453 3.3 6.35453 3.31 6.34453C3.39 6.21453 3.48 6.08453 3.59 5.96453C3.8 5.69453 4.05 5.44453 4.33 5.22453C4.345 5.20953 4.3625 5.19703 4.38 5.18453C4.3975 5.17203 4.415 5.15953 4.43 5.14453C4.47 5.11453 4.5 5.09453 4.54 5.07453C4.545 5.06953 4.55 5.06703 4.555 5.06453C4.56 5.06203 4.565 5.05953 4.57 5.05453C5.22 4.72453 6.04 5.18453 6.04 5.95453V6.05453C6.04 6.86453 6.44 7.62453 7.07 8.06453C7.16 8.12453 7.26 8.17453 7.36 8.22453C7.46 8.27453 7.56 8.31453 7.66 8.34453C7.78 8.38453 7.91 8.41453 8.05 8.42453C8.21 8.44453 8.37 8.44453 8.53 8.42453C8.67 8.41453 8.8 8.38453 8.92 8.34453C9.03 8.31453 9.13 8.27453 9.22 8.22453L9.22001 8.22453C9.32001 8.17453 9.42 8.12453 9.51 8.06453C10.13 7.67453 10.54 6.97453 10.54 6.18453V5.14453C10.54 4.59453 10.99 4.14453 11.54 4.14453H12.46C13.01 4.14453 13.46 4.59453 13.46 5.14453V6.18453C13.46 7.50453 14.6 8.56453 15.95 8.42453C17.12 8.30453 17.96 7.22453 17.96 6.05453V5.95453ZM10.31 16.8945H12C12.41 16.8945 12.75 16.5545 12.75 16.1445C12.75 15.7345 12.41 15.3945 12 15.3945H10.31V13.6445C10.31 13.2345 9.97 12.8945 9.56 12.8945C9.14 12.8945 8.81 13.2345 8.81 13.6445V15.3945H7C6.59 15.3945 6.25 15.7345 6.25 16.1445C6.25 16.5545 6.59 16.8945 7 16.8945H8.81V18.6445C8.81 19.0545 9.14 19.3945 9.56 19.3945C9.97 19.3945 10.31 19.0545 10.31 18.6445V16.8945Z" fill="#292D32"/>
</svg>
