<svg viewBox="0 0 24 24" fill="none" xmlns="http://www.w3.org/2000/svg">
<path fill-rule="evenodd" clip-rule="evenodd" d="M10.25 7.25H13.75C15.1778 7.25 16.381 6.23909 16.6791 4.89765C18.2425 5.04368 19.25 5.74971 19.25 8.125V17.875C19.25 20.095 18.22 21.125 16 21.125H8C5.78 21.125 4.75 20.095 4.75 17.875V8.125C4.75 5.75032 5.75693 5.03418 7.31965 4.89758C7.44071 5.44988 7.71716 5.95715 8.13 6.37C8.7 6.94 9.45 7.25 10.25 7.25ZM7.37412 3.39754C7.7437 2.15933 8.89581 1.25 10.25 1.25H13.75C14.55 1.25 15.3 1.56 15.87 2.13C16.2313 2.49129 16.4881 2.92488 16.6278 3.39768C19.3625 3.60235 20.75 5.19158 20.75 8.125V17.875C20.75 20.895 19.02 22.625 16 22.625H8C4.98 22.625 3.25 20.895 3.25 17.875V8.125C3.25 5.19091 4.63817 3.60162 7.37412 3.39754ZM15.2487 4.1879C15.2159 4.98859 14.5589 5.625 13.75 5.625H10.25C9.85 5.625 9.47 5.465 9.19 5.185C8.92453 4.91953 8.76693 4.56417 8.75129 4.1871C8.78412 3.38641 9.44107 2.75 10.25 2.75H13.75C14.15 2.75 14.53 2.91 14.81 3.19C15.0755 3.45547 15.2331 3.81083 15.2487 4.1879ZM12 13.75H8C7.59 13.75 7.25 13.41 7.25 13C7.25 12.59 7.59 12.25 8 12.25H12C12.41 12.25 12.75 12.59 12.75 13C12.75 13.41 12.41 13.75 12 13.75ZM7.25 17C7.25 17.41 7.59 17.75 8 17.75H16C16.41 17.75 16.75 17.41 16.75 17C16.75 16.59 16.41 16.25 16 16.25H8C7.59 16.25 7.25 16.59 7.25 17Z" fill="#292D32"/>
</svg>
