<svg viewBox="0 0 24 24" fill="none" xmlns="http://www.w3.org/2000/svg">
<path fill-rule="evenodd" clip-rule="evenodd" d="M3.03 1H5.97C7.24 1 8 1.76 8 3.03V5.97C8 7.24 7.24 8 5.97 8H3.03C1.76 8 1 7.24 1 5.97V3.03C1 1.76 1.76 1 3.03 1ZM6.47 6.47C6.72 6.22 6.72 5.81 6.47 5.56L5.41 4.5L6.46 3.45C6.71 3.2 6.71 2.79 6.46 2.54C6.21 2.29 5.8 2.29 5.55 2.54L4.49 3.6L3.45 2.54C3.2 2.29 2.79 2.29 2.54 2.54C2.29 2.79 2.29 3.2 2.54 3.45L3.6 4.5L2.53 5.56C2.28 5.81 2.28 6.22 2.53 6.47C2.66 6.59 2.82 6.65 2.98 6.65C3.16 6.65 3.32 6.59 3.45 6.47L4.49 5.41L5.56 6.47C5.69 6.59 5.85 6.65 6.01 6.65C6.17 6.65 6.34 6.59 6.47 6.47ZM21.3195 16.2502C21.4495 16.1202 21.4995 15.9702 21.4995 15.8202C21.4995 15.4902 21.2395 15.1802 20.8495 15.1802H20.8491C19.7192 15.1802 18.3994 15.1802 17.4495 15.1902C15.9295 15.1902 14.6895 16.4002 14.6895 17.8602V21.3602C14.6895 21.7402 15.0095 22.0002 15.3395 22.0002C15.5095 22.0002 15.6795 21.9402 15.8095 21.8002C16.5919 21.0125 17.6817 19.9146 18.7495 18.8389L18.7601 18.8282L18.7691 18.8191C19.7143 17.8669 20.6407 16.9336 21.3195 16.2502ZM14.7794 12.71H7.35938C6.93937 12.71 6.60938 12.37 6.60938 11.96C6.60938 11.55 6.94938 11.21 7.35938 11.21H14.7794C15.1994 11.21 15.5294 11.55 15.5294 11.96C15.5294 12.37 15.1994 12.71 14.7794 12.71ZM7.35938 16.4199H11.9994C12.4194 16.4199 12.7494 16.0799 12.7494 15.6699C12.7494 15.2599 12.4194 14.9199 11.9994 14.9199H7.35938C6.94938 14.9199 6.60938 15.2499 6.60938 15.6699C6.60938 16.0799 6.93937 16.4199 7.35938 16.4199Z" fill="#292D32"/>
<path opacity="0.4" d="M16.63 2H7.78C7.92 2.29 8 2.63 8 3.03V5.97C8 7.24 7.24 8 5.97 8H3.03C2.84 8 2.67 7.98 2.5 7.94V17.13C2.5 19.82 4.68 22 7.37 22H15.34C15.51 22 15.68 21.94 15.81 21.8C17.29 20.31 19.87 17.71 21.32 16.25C21.45 16.12 21.5 15.97 21.5 15.82V6.87C21.5 4.18 19.32 2 16.63 2Z" fill="#292D32"/>
</svg>
