<svg viewBox="0 0 24 24" fill="none" xmlns="http://www.w3.org/2000/svg">
<path fill-rule="evenodd" clip-rule="evenodd" d="M7.53906 5.54C7.53906 5.95 7.86906 6.29 8.28906 6.29C8.70906 6.29 9.03906 5.95 9.03906 5.53V2.75C9.03906 2.34 8.70906 2 8.28906 2C7.86906 2 7.53906 2.34 7.53906 2.75V5.54ZM14.9609 5.54C14.9609 5.95 15.2909 6.29 15.7109 6.29C16.1309 6.29 16.4609 5.95 16.4609 5.53V2.75C16.4609 2.34 16.1309 2 15.7109 2C15.3009 2 14.9609 2.33 14.9609 2.75V5.54ZM14.7794 13.71H7.35938C6.93938 13.71 6.60938 13.37 6.60938 12.96C6.60938 12.55 6.94938 12.21 7.35938 12.21H14.7794C15.1994 12.21 15.5294 12.55 15.5294 12.96C15.5294 13.37 15.1994 13.71 14.7794 13.71ZM7.35938 17.4199H11.9994C12.4194 17.4199 12.7494 17.0799 12.7494 16.6699C12.7494 16.2599 12.4194 15.9199 11.9994 15.9199H7.35938C6.94938 15.9199 6.60938 16.2499 6.60938 16.6699C6.60938 17.0799 6.93938 17.4199 7.35938 17.4199Z" fill="#292D32"/>
<path opacity="0.4" d="M7.37 22H16.62C19.31 22 21.49 19.82 21.49 17.13V8.37C21.49 5.68 19.31 3.5 16.62 3.5H7.37C4.68 3.5 2.5 5.68 2.5 8.37V17.12C2.5 19.82 4.68 22 7.37 22Z" fill="#292D32"/>
</svg>
