<svg viewBox="0 0 24 24" fill="none" xmlns="http://www.w3.org/2000/svg">
<path fill-rule="evenodd" clip-rule="evenodd" d="M15.2781 20.164C15.4617 20.1756 15.6381 20.18 15.8101 20.18C18.7701 20.18 20.5601 18.45 21.4201 14.79L22.4001 10.61C22.9501 8.27001 22.8201 6.56002 22.0001 5.23001C21.1701 3.90001 19.6901 3.03001 17.3501 2.48001L15.6801 2.09001C13.4139 1.55737 10.2568 1.24044 8.49753 4.44536C8.23845 4.5077 7.94804 4.59255 7.59907 4.69993L6.01907 5.20993C1.63907 6.62993 0.369075 9.10993 1.78907 13.5099L3.06907 17.4599C4.11907 20.7099 5.75908 22.2499 8.32907 22.2499C9.22907 22.2499 10.2291 22.0699 11.3791 21.7099L12.9591 21.1899C13.8951 20.8868 14.6563 20.5519 15.2781 20.164ZM7.76857 6.22335C7.68395 6.50616 7.60471 6.80773 7.53007 7.13001L6.55007 11.32C5.47007 15.92 6.98007 18.36 11.5901 19.45L12.651 19.7026C12.6241 19.7117 12.5991 19.7208 12.5741 19.7299C12.5466 19.7399 12.5191 19.7499 12.4891 19.7599L10.9091 20.2799C7.33908 21.4299 5.65907 20.5699 4.49907 16.9999L3.21907 13.0499C2.06908 9.46993 2.91907 7.78993 6.48907 6.63993L7.76857 6.22335ZM9.71405 5.35033C10.4238 3.91834 11.4765 3.25001 13.1201 3.25001C13.7601 3.25001 14.5001 3.35001 15.3301 3.55001L17.0001 3.94001C18.9401 4.39002 20.1201 5.05001 20.7201 6.02001C21.3201 6.99001 21.3801 8.34002 20.9301 10.27L19.9501 14.45C19.1901 17.72 17.8401 18.91 15.1201 18.64C14.6601 18.6 14.1501 18.52 13.6101 18.39L11.9301 17.99C10.3429 17.6121 9.24054 17.102 8.5616 16.3574C7.63178 15.3293 7.50444 13.8557 8.01908 11.6699L8.99907 7.47993C9.18908 6.63993 9.41908 5.96993 9.67908 5.43993C9.69265 5.41052 9.7043 5.3806 9.71405 5.35033ZM17.4894 10.51C17.437 10.51 17.3846 10.5024 17.3256 10.4938L17.2994 10.49L12.4494 9.26002C12.0494 9.16002 11.8094 8.75002 11.9094 8.35002C12.0094 7.95002 12.4194 7.71002 12.8194 7.81002L17.6694 9.04002C18.0694 9.14002 18.3094 9.55002 18.2094 9.95002C18.1294 10.28 17.8194 10.51 17.4894 10.51ZM14.3954 13.8737C14.4544 13.8823 14.5068 13.8899 14.5592 13.8899C14.8992 13.8899 15.1992 13.6699 15.2792 13.3299C15.3792 12.9299 15.1392 12.5199 14.7392 12.4199L11.8292 11.6799C11.4292 11.5799 11.0192 11.8199 10.9192 12.2199C10.8192 12.6199 11.0592 13.0299 11.4592 13.1299L14.3692 13.8699C14.378 13.8712 14.3868 13.8724 14.3954 13.8737Z" fill="#292D32"/>
</svg>
