<svg viewBox="0 0 24 24" fill="none" xmlns="http://www.w3.org/2000/svg">
<path fill-rule="evenodd" clip-rule="evenodd" d="M8.75 3.5V2C8.75 1.59 8.41 1.25 8 1.25C7.59 1.25 7.25 1.59 7.25 2V3.56L7.29835 3.55418C7.52997 3.52624 7.74749 3.5 8 3.5H8.75ZM16.75 3.56V2C16.75 1.59 16.41 1.25 16 1.25C15.59 1.25 15.25 1.59 15.25 2V3.5H16C16.2525 3.5 16.47 3.52624 16.7016 3.55418L16.75 3.56ZM16.75 5.05859V3.61859C19.7 3.88859 21 5.78859 21 8.55859V17.0586C21 20.0586 19.5 22.0586 16 22.0586H8C4.5 22.0586 3 20.0586 3 17.0586V8.55859C3 5.78859 4.3 3.88859 7.25 3.61859V5.05859C7.25 5.46859 7.59 5.80859 8 5.80859C8.41 5.80859 8.75 5.46859 8.75 5.05859V3.55859H15.25V5.05859C15.25 5.46859 15.59 5.80859 16 5.80859C16.41 5.80859 16.75 5.46859 16.75 5.05859ZM8 16.8086H12C12.41 16.8086 12.75 16.4686 12.75 16.0586C12.75 15.6486 12.41 15.3086 12 15.3086H8C7.59 15.3086 7.25 15.6486 7.25 16.0586C7.25 16.4686 7.59 16.8086 8 16.8086ZM8 11.8086H16C16.41 11.8086 16.75 11.4686 16.75 11.0586C16.75 10.6486 16.41 10.3086 16 10.3086H8C7.59 10.3086 7.25 10.6486 7.25 11.0586C7.25 11.4686 7.59 11.8086 8 11.8086Z" fill="#292D32"/>
</svg>
