<svg viewBox="0 0 24 24" fill="none" xmlns="http://www.w3.org/2000/svg">
<path fill-rule="evenodd" clip-rule="evenodd" d="M6.99945 6.7099C6.80945 6.7099 6.61945 6.6399 6.46945 6.4899L5.12494 5.14539L3.74039 6.52994C3.60039 6.67994 3.40039 6.74994 3.21039 6.74994C3.02039 6.74994 2.83039 6.67994 2.68039 6.52994C2.39039 6.23994 2.39039 5.75994 2.68039 5.46994L4.06494 4.08539L2.71945 2.7399C2.42945 2.4499 2.42945 1.9699 2.71945 1.6799C3.00945 1.3899 3.48945 1.3899 3.77945 1.6799L5.12494 3.02539L6.43039 1.71994C6.72039 1.42994 7.20039 1.42994 7.49039 1.71994C7.78039 2.00994 7.78039 2.48994 7.49039 2.77994L6.18494 4.08539L7.52945 5.4299C7.81945 5.7199 7.81945 6.1999 7.52945 6.4899C7.37945 6.6299 7.18945 6.7099 6.99945 6.7099ZM12 14.75H7C6.59 14.75 6.25 14.41 6.25 14C6.25 13.59 6.59 13.25 7 13.25H12C12.41 13.25 12.75 13.59 12.75 14C12.75 14.41 12.41 14.75 12 14.75ZM15 10.75H7C6.59 10.75 6.25 10.41 6.25 10C6.25 9.59 6.59 9.25 7 9.25H15C15.41 9.25 15.75 9.59 15.75 10C15.75 10.41 15.41 10.75 15 10.75ZM20.2441 15.25V8.2024C20.2441 3.9724 18.8041 3.1124 15.9541 2.9624H9.99414C9.58414 2.9624 9.24414 2.6224 9.24414 2.2124C9.24414 1.8024 9.58414 1.4624 9.99414 1.4624H15.9941C20.0941 1.6824 21.7441 3.6324 21.7441 8.2024V16.2124C21.7441 16.5844 21.4643 16.8988 21.1061 16.9539L15.53 22.53C15.4738 22.5862 15.408 22.6327 15.337 22.6683C15.2556 22.7099 15.1659 22.7371 15.0714 22.7463C15.0476 22.7488 15.0237 22.75 15 22.75C14.9937 22.75 14.9875 22.7499 14.9814 22.7498H9C3.38 22.7498 2.25 20.1598 2.25 15.9798V9.00977C2.25 8.59977 2.59 8.25977 3 8.25977C3.41 8.25977 3.75 8.59977 3.75 9.00977V15.9798C3.75 19.6998 4.48 21.2498 9 21.2498H14.25V19C14.25 16.58 15.58 15.25 18 15.25H20.2441ZM15.75 19C15.75 17.42 16.42 16.75 18 16.75H19.19L15.75 20.19V19Z" fill="#292D32"/>
</svg>
