<svg viewBox="0 0 24 24" fill="none" xmlns="http://www.w3.org/2000/svg">
<path fill-rule="evenodd" clip-rule="evenodd" d="M7.25 5C7.25 5.41 7.59 5.75 8 5.75C8.41 5.75 8.75 5.41 8.75 5V4.31171L15.25 4.18122V5C15.25 5.41 15.59 5.75 16 5.75C16.41 5.75 16.75 5.41 16.75 5V4.24211C18.9664 4.52262 20.1118 5.64595 20.2 9.49018L20.32 15.6602C20.37 17.7802 20.11 19.0302 19.46 19.8202C18.73 20.7102 17.37 21.1502 15.18 21.1902L9.18002 21.3102C6.98001 21.3602 5.61001 20.9802 4.85001 20.1202C4.17001 19.3502 3.86001 18.1102 3.82001 15.9902L3.69002 9.82018C3.60646 5.7629 4.83313 4.69676 7.25 4.38888V5ZM8.75 2.82047V2C8.75 1.59 8.41 1.25 8 1.25C7.59 1.25 7.25 1.59 7.25 2V2.88889C3.52935 3.32294 2.09427 5.32157 2.19002 9.85018L2.32001 16.0202C2.36001 17.7902 2.55001 19.7802 3.73002 21.1102C4.75002 22.2702 6.38002 22.8102 8.85002 22.8102H9.20001L15.2 22.6902C17.87 22.6302 19.59 22.0202 20.61 20.7702C21.73 19.4002 21.85 17.4002 21.81 15.6302L21.69 9.46018C21.5978 5.08688 20.1946 3.13116 16.75 2.74477V2C16.75 1.59 16.41 1.25 16 1.25C15.59 1.25 15.25 1.59 15.25 2V2.69112L8.75 2.82047ZM9.56055 18.75C9.15055 18.75 8.81055 18.41 8.81055 18V16.25H7C6.59 16.25 6.25 15.91 6.25 15.5C6.25 15.09 6.59 14.75 7 14.75H8.81055V13C8.81055 12.59 9.15055 12.25 9.56055 12.25C9.97055 12.25 10.3105 12.59 10.3105 13V14.75H12C12.41 14.75 12.75 15.09 12.75 15.5C12.75 15.91 12.41 16.25 12 16.25H10.3105V18C10.3105 18.41 9.97055 18.75 9.56055 18.75Z" fill="#292D32"/>
</svg>
