<svg viewBox="0 0 24 24" fill="none" xmlns="http://www.w3.org/2000/svg">
<path fill-rule="evenodd" clip-rule="evenodd" d="M8.28906 6.29C7.86906 6.29 7.53906 5.95 7.53906 5.54V2.75C7.53906 2.34 7.86906 2 8.28906 2C8.70906 2 9.03906 2.34 9.03906 2.75V5.53C9.03906 5.95 8.70906 6.29 8.28906 6.29ZM15.7109 6.29C15.2909 6.29 14.9609 5.95 14.9609 5.54V2.75C14.9609 2.33 15.3009 2 15.7109 2C16.1309 2 16.4609 2.34 16.4609 2.75V5.53C16.4609 5.95 16.1309 6.29 15.7109 6.29ZM17.96 5.31C17.96 4.48 18.91 4.01 19.57 4.5C20.74 5.39 21.5 6.78 21.5 8.37V17.13C21.5 19.82 19.32 22 16.63 22H7.37C4.68 22 2.5 19.82 2.5 17.13V8.37C2.5 8.23 2.51 8.09 2.52 7.95C2.53 7.83 2.54 7.72 2.56 7.61C2.58 7.46 2.61 7.31 2.65 7.17C2.69 7.02 2.73 6.87 2.79 6.72C2.7956 6.70601 2.80041 6.6928 2.8051 6.67993C2.81716 6.64683 2.8284 6.61601 2.85 6.58C2.89 6.45 2.95 6.33 3.01 6.21C3.01 6.19 3.02 6.18 3.04 6.16C3.11 6.02 3.19 5.87 3.28 5.74C3.29 5.72 3.3 5.71 3.31 5.7C3.39 5.57 3.48 5.44 3.59 5.32C3.8 5.05 4.05 4.8 4.33 4.58C4.345 4.565 4.3625 4.5525 4.38 4.54C4.3975 4.5275 4.415 4.515 4.43 4.5C4.47 4.47 4.5 4.45 4.54 4.43C4.545 4.425 4.55 4.4225 4.555 4.42C4.56 4.4175 4.565 4.415 4.57 4.41C5.22 4.08 6.04 4.54 6.04 5.31V5.41C6.04 6.22 6.44 6.98 7.07 7.42C7.16 7.48 7.25999 7.53 7.35999 7.58L7.36 7.58C7.46 7.63 7.56 7.67 7.66 7.7C7.78 7.74 7.91 7.77 8.05 7.78C8.21 7.8 8.37 7.8 8.53 7.78C8.67 7.77 8.8 7.74 8.92 7.7C9.03 7.67 9.13 7.63 9.22 7.58L9.22002 7.57999C9.32001 7.52999 9.42001 7.48 9.51 7.42C10.13 7.03 10.54 6.33 10.54 5.54V4.5C10.54 3.95 10.99 3.5 11.54 3.5H12.46C13.01 3.5 13.46 3.95 13.46 4.5V5.54C13.46 6.86 14.6 7.92 15.95 7.78C17.12 7.66 17.96 6.58 17.96 5.41V5.31ZM7.36 17.42H12C12.42 17.42 12.75 17.08 12.75 16.67C12.75 16.25 12.42 15.91 12 15.91H7.36C6.95 15.91 6.61 16.25 6.61 16.67C6.61 17.08 6.95 17.42 7.36 17.42ZM7.36 13.71H14.78C15.2 13.71 15.54 13.37 15.54 12.96C15.54 12.54 15.2 12.2 14.78 12.2H7.36C6.95 12.2 6.61 12.54 6.61 12.96C6.61 13.37 6.95 13.71 7.36 13.71Z" fill="#292D32"/>
</svg>
