<svg viewBox="0 0 24 24" fill="none" xmlns="http://www.w3.org/2000/svg">
<path fill-rule="evenodd" clip-rule="evenodd" d="M10.25 6.5H13.75C14.99 6.5 16 5.49 16 4.25C16 3.63 15.75 3.07 15.34 2.66C14.93 2.25 14.37 2 13.75 2H10.25C9.01 2 8 3.01 8 4.25C8 4.87 8.25 5.43 8.66 5.84C9.07 6.25 9.63 6.5 10.25 6.5ZM18.06 4.57874C18.34 4.68874 18.6 4.83874 18.83 5.02874C19.55 5.61874 20 6.61874 20 8.24874V17.9987C20 20.9987 18.21 21.9987 16 21.9987H8C5.79 21.9987 4 20.9987 4 17.9987V8.24874C4 6.11874 4.77 5.05874 5.93 4.58874C6.22 4.46874 6.52 4.70874 6.58 5.00874C6.72 5.71874 7.08 6.37874 7.6 6.89874C8.31 7.60874 9.25 7.99874 10.25 7.99874H13.75C15.57 7.99874 17.08 6.70874 17.42 4.99874C17.48 4.69874 17.77 4.46874 18.06 4.57874ZM12 12.2487H8C7.59 12.2487 7.25 12.5887 7.25 12.9987C7.25 13.4087 7.59 13.7487 8 13.7487H12C12.41 13.7487 12.75 13.4087 12.75 12.9987C12.75 12.5887 12.41 12.2487 12 12.2487ZM7.25 16.9987C7.25 17.4087 7.59 17.7487 8 17.7487H16C16.41 17.7487 16.75 17.4087 16.75 16.9987C16.75 16.5887 16.41 16.2487 16 16.2487H8C7.59 16.2487 7.25 16.5887 7.25 16.9987Z" fill="#292D32"/>
</svg>
