<svg viewBox="0 0 24 24" fill="none" xmlns="http://www.w3.org/2000/svg">
<path fill-rule="evenodd" clip-rule="evenodd" d="M8 5.75C7.59 5.75 7.25 5.41 7.25 5V4.28515C4.89669 4.51738 3.75 5.90235 3.75 8.5V17C3.75 19.86 5.14 21.25 8 21.25H16C18.86 21.25 20.25 19.86 20.25 17V8.5C20.25 5.90235 19.1033 4.51738 16.75 4.28515V5C16.75 5.41 16.41 5.75 16 5.75C15.59 5.75 15.25 5.41 15.25 5V4.25H8.75V5C8.75 5.41 8.41 5.75 8 5.75ZM7.25 2.78123V2C7.25 1.59 7.59 1.25 8 1.25C8.41 1.25 8.75 1.59 8.75 2V2.75H15.25V2C15.25 1.59 15.59 1.25 16 1.25C16.41 1.25 16.75 1.59 16.75 2V2.78123C19.9362 3.05438 21.75 5.1078 21.75 8.5V17C21.75 20.65 19.65 22.75 16 22.75H8C4.35 22.75 2.25 20.65 2.25 17V8.5C2.25 5.1078 4.06383 3.05438 7.25 2.78123ZM16 11.75H8C7.59 11.75 7.25 11.41 7.25 11C7.25 10.59 7.59 10.25 8 10.25H16C16.41 10.25 16.75 10.59 16.75 11C16.75 11.41 16.41 11.75 16 11.75ZM8 16.75H12C12.41 16.75 12.75 16.41 12.75 16C12.75 15.59 12.41 15.25 12 15.25H8C7.59 15.25 7.25 15.59 7.25 16C7.25 16.41 7.59 16.75 8 16.75Z" fill="#292D32"/>
</svg>
