<svg viewBox="0 0 24 24" fill="none" xmlns="http://www.w3.org/2000/svg">
<path fill-rule="evenodd" clip-rule="evenodd" d="M8 5.75C7.59 5.75 7.25 5.41 7.25 5V4.56603C4.9415 4.85501 3.75 5.94771 3.75 9.9V16.07C3.75 19.9 4.48 21.5 9 21.5H15C19.52 21.5 20.25 19.9 20.25 16.07V9.9C20.25 5.96389 19.071 4.86068 16.75 4.56785V5C16.75 5.41 16.41 5.75 16 5.75C15.59 5.75 15.25 5.41 15.25 5V4.5H8.75V5C8.75 5.41 8.41 5.75 8 5.75ZM7.25 3.05967V2C7.25 1.59 7.59 1.25 8 1.25C8.41 1.25 8.75 1.59 8.75 2V3H15.25V2C15.25 1.59 15.59 1.25 16 1.25C16.41 1.25 16.75 1.59 16.75 2V3.05967C20.3355 3.47066 21.75 5.4432 21.75 9.9V16.07C21.75 20.35 20.62 23 15 23H9C3.38 23 2.25 20.35 2.25 16.07V9.9C2.25 5.4432 3.66452 3.47066 7.25 3.05967ZM7 13.75H15C15.41 13.75 15.75 13.41 15.75 13C15.75 12.59 15.41 12.25 15 12.25H7C6.59 12.25 6.25 12.59 6.25 13C6.25 13.41 6.59 13.75 7 13.75ZM12 17.75H7C6.59 17.75 6.25 17.41 6.25 17C6.25 16.59 6.59 16.25 7 16.25H12C12.41 16.25 12.75 16.59 12.75 17C12.75 17.41 12.41 17.75 12 17.75Z" fill="#292D32"/>
</svg>
