<svg viewBox="0 0 24 24" fill="none" xmlns="http://www.w3.org/2000/svg">
<path fill-rule="evenodd" clip-rule="evenodd" d="M15.5002 2.81854L17.1702 3.20854C21.3602 4.18854 22.6402 6.25854 21.6602 10.4385L20.6802 14.6185C19.8402 18.2285 18.1802 19.6885 15.0602 19.3885C14.5602 19.3485 14.0202 19.2585 13.4402 19.1185L11.7602 18.7185C7.59018 17.7285 6.30018 15.6685 7.28018 11.4885L8.26018 7.29854C8.46018 6.44854 8.70018 5.70854 9.00018 5.09854C10.1702 2.67854 12.1602 2.02854 15.5002 2.81854ZM14.5602 13.8885C14.9002 13.8885 15.2002 13.6685 15.2902 13.3285C15.3902 12.9285 15.1502 12.5185 14.7402 12.4185L11.8302 11.6785C11.4302 11.5785 11.0202 11.8185 10.9202 12.2185C10.8202 12.6185 11.0602 13.0285 11.4602 13.1285L14.3702 13.8685C14.3791 13.8698 14.3878 13.8711 14.3964 13.8723C14.4554 13.8809 14.5078 13.8885 14.5602 13.8885ZM17.4902 10.5085C17.8302 10.5085 18.1302 10.2885 18.2202 9.94854C18.3202 9.53854 18.0802 9.12854 17.6702 9.03854L12.8202 7.80854C12.4202 7.70854 12.0102 7.94854 11.9102 8.34854C11.8102 8.74854 12.0502 9.15854 12.4502 9.25854L17.3002 10.4885C17.3091 10.4898 17.3178 10.4911 17.3264 10.4923C17.3854 10.5009 17.4378 10.5085 17.4902 10.5085ZM12.7084 20.4719C12.976 20.3827 12.9508 20.0228 12.6761 19.9589L11.5284 19.6919C6.81839 18.5719 5.20839 15.9719 6.30839 11.2619L7.28839 7.07188C7.34167 6.85164 7.39622 6.64023 7.45292 6.43766C7.56731 6.02899 7.17525 5.62493 6.77238 5.75834L6.24839 5.93187C2.27839 7.21187 1.21839 9.31187 2.49839 13.2819L3.77839 17.2319C5.06839 21.2019 7.15839 22.2719 11.1284 20.9919L12.7084 20.4719Z" fill="#292D32"/>
</svg>
