<svg viewBox="0 0 24 24" fill="none" xmlns="http://www.w3.org/2000/svg">
<path fill-rule="evenodd" clip-rule="evenodd" d="M8.28906 6.29C7.86906 6.29 7.53906 5.95 7.53906 5.54V2.75C7.53906 2.34 7.86906 2 8.28906 2C8.70906 2 9.03906 2.34 9.03906 2.75V5.53C9.03906 5.95 8.70906 6.29 8.28906 6.29ZM15.7109 6.29C15.2909 6.29 14.9609 5.95 14.9609 5.54V2.75C14.9609 2.33 15.3009 2 15.7109 2C16.1309 2 16.4609 2.34 16.4609 2.75V5.53C16.4609 5.95 16.1309 6.29 15.7109 6.29ZM10.31 14.75H12C12.41 14.75 12.75 15.09 12.75 15.5C12.75 15.91 12.41 16.25 12 16.25H10.31V18C10.31 18.41 9.97 18.75 9.56 18.75C9.15 18.75 8.81 18.41 8.81 18V16.25H7C6.59 16.25 6.25 15.91 6.25 15.5C6.25 15.09 6.59 14.75 7 14.75H8.81V13C8.81 12.59 9.15 12.25 9.56 12.25C9.97 12.25 10.31 12.59 10.31 13V14.75Z" fill="#292D32"/>
<path opacity="0.4" d="M7.37 22H16.62C19.31 22 21.49 19.82 21.49 17.13V8.37C21.49 5.68 19.31 3.5 16.62 3.5H7.37C4.68 3.5 2.5 5.68 2.5 8.37V17.12C2.5 19.82 4.68 22 7.37 22Z" fill="#292D32"/>
</svg>
