<svg viewBox="0 0 24 24" fill="none" xmlns="http://www.w3.org/2000/svg">
<path fill-rule="evenodd" clip-rule="evenodd" d="M9.47963 2.92018C9.45823 2.9727 9.44326 3.02636 9.43443 3.08027C6.99549 4.09899 5.27573 6.50993 5.27573 9.3125V12.2025C5.27573 12.6725 5.05573 13.4725 4.81573 13.8725L3.66573 15.7825C3.20573 16.5425 3.10573 17.3925 3.39573 18.1625C3.67573 18.9325 4.31573 19.5225 5.15573 19.8125C6.26689 20.1846 7.40839 20.4631 8.56498 20.6481C8.75145 21.0744 9.01672 21.4666 9.35 21.7999C10.05 22.4999 11.01 22.8999 12 22.8999C13.5344 22.8999 14.8545 21.9768 15.4349 20.6561C16.6075 20.4712 17.7635 20.19 18.8857 19.8125C19.6757 19.5525 20.3057 18.9525 20.5957 18.1625C20.8857 17.3725 20.8057 16.5025 20.3757 15.7825L19.2357 13.8825C18.9957 13.4725 18.7757 12.6625 18.7757 12.2025V9.3125C18.7757 6.51157 17.058 4.10181 14.6213 3.08206C14.6132 3.02755 14.5993 2.97328 14.5796 2.92018C14.1696 1.86018 13.1696 1.18018 12.0296 1.18018C10.8896 1.18018 9.88963 1.87018 9.47963 2.92018ZM13.6129 20.8652C13.0849 20.9034 12.5553 20.9225 12.0257 20.9225C11.5354 20.9225 11.0451 20.9061 10.556 20.8734C10.9592 21.2103 11.4757 21.3999 12 21.3999C12.6272 21.3999 13.2 21.2117 13.6129 20.8652ZM12.0257 4.0625C9.13573 4.0625 6.77573 6.4125 6.77573 9.3125V12.2025C6.77573 12.9325 6.47573 14.0125 6.10573 14.6425L4.95573 16.5525C4.73573 16.9225 4.67573 17.3125 4.80573 17.6425C4.92573 17.9825 5.22573 18.2425 5.63573 18.3825C9.81573 19.7825 14.2457 19.7825 18.4257 18.3825C18.7857 18.2625 19.0657 17.9925 19.1957 17.6325C19.3257 17.2725 19.2957 16.8825 19.0957 16.5525L17.9457 14.6425C17.5657 13.9925 17.2757 12.9225 17.2757 12.1925V9.3125C17.2757 6.4125 14.9257 4.0625 12.0257 4.0625Z" fill="#292D32"/>
</svg>
