<svg viewBox="0 0 24 24" fill="none" xmlns="http://www.w3.org/2000/svg">
<path fill-rule="evenodd" clip-rule="evenodd" d="M22 5C22 6.65685 20.6569 8 19 8C17.3431 8 16 6.65685 16 5C16 3.34315 17.3431 2 19 2C20.6569 2 22 3.34315 22 5ZM19.77 9.425C19.78 9.4225 19.79 9.42 19.8 9.42C20.42 9.3 21 9.76 21 10.4V16.48C21 16.62 20.99 16.76 20.98 16.89C20.97 17.01 20.96 17.12 20.94 17.24C20.93 17.36 20.91 17.48 20.89 17.59C20.54 20.01 19 21.54 16.59 21.89C16.48 21.91 16.36 21.93 16.24 21.94C16.12 21.96 16.01 21.97 15.89 21.98C15.76 21.99 15.62 22 15.48 22H7.52C7.38 22 7.24 21.99 7.11 21.98C6.99 21.97 6.88 21.96 6.76 21.94C6.64 21.93 6.52 21.91 6.41 21.89C4 21.54 2.46 20.01 2.11 17.59C2.09 17.48 2.07 17.36 2.06 17.24C2.04 17.12 2.03 17.01 2.02 16.89C2.01 16.76 2 16.62 2 16.48V8.52C2 8.38 2.01 8.24 2.02 8.11C2.03 7.99 2.04 7.88 2.06 7.76C2.07 7.64 2.09 7.52 2.11 7.41C2.46 4.99 4 3.46 6.41 3.11C6.52 3.09 6.64 3.07 6.76 3.06C6.88 3.04 6.99 3.03 7.11 3.02C7.24 3.01 7.38 3 7.52 3H13.6C14.24 3 14.7 3.58 14.58 4.2C14.58 4.21 14.5775 4.22 14.575 4.23C14.5725 4.24 14.57 4.25 14.57 4.26C14.5592 4.31394 14.5513 4.36788 14.5432 4.42338C14.5363 4.47079 14.5292 4.51933 14.52 4.57C14.48 4.99 14.5 5.44 14.59 5.9C14.5968 5.92736 14.6032 5.95368 14.6093 5.97931C14.6302 6.06612 14.6491 6.14508 14.68 6.23C14.76 6.56 14.89 6.87 15.06 7.16C15.1109 7.26175 15.1761 7.3635 15.2375 7.45916C15.2485 7.47631 15.2594 7.49327 15.27 7.51C15.6 7.99 16.01 8.4 16.49 8.73C16.5067 8.74064 16.5237 8.75151 16.5408 8.76251C16.6365 8.82386 16.7382 8.88912 16.84 8.94C17.13 9.11 17.44 9.24 17.77 9.32C17.8549 9.35088 17.9339 9.36984 18.0207 9.39068C18.0463 9.39684 18.0726 9.40316 18.1 9.41C18.56 9.5 19.01 9.52 19.43 9.48C19.4807 9.47079 19.5292 9.4637 19.5766 9.45677C19.6321 9.44867 19.6861 9.44079 19.74 9.43C19.75 9.43 19.76 9.4275 19.77 9.425ZM11.75 12.5H6.75C6.34 12.5 6 12.84 6 13.25C6 13.66 6.34 14 6.75 14H11.75C12.16 14 12.5 13.66 12.5 13.25C12.5 12.84 12.16 12.5 11.75 12.5ZM6.75 18H15.75C16.16 18 16.5 17.66 16.5 17.25C16.5 16.84 16.16 16.5 15.75 16.5H6.75C6.34 16.5 6 16.84 6 17.25C6 17.66 6.34 18 6.75 18Z" fill="#292D32"/>
</svg>
