<svg viewBox="0 0 24 24" fill="none" xmlns="http://www.w3.org/2000/svg">
<path fill-rule="evenodd" clip-rule="evenodd" d="M19.0592 12.1808L20.1892 14.0608C20.5992 14.7508 20.6792 15.5708 20.3992 16.3208C20.1192 17.0608 19.5292 17.6408 18.7592 17.9008C17.6792 18.2608 16.5692 18.5408 15.4492 18.7208C15.3392 18.7408 15.2292 18.7608 15.1192 18.7708C14.9393 18.8008 14.7593 18.8208 14.5793 18.8408L14.5792 18.8408C14.3593 18.8708 14.1293 18.8908 13.8994 18.9108L13.8992 18.9108C13.2792 18.9708 12.6492 19.0008 12.0192 19.0008C11.3792 19.0008 10.7392 18.9708 10.1092 18.9108C9.83923 18.8908 9.57923 18.8608 9.31923 18.8208L9.31858 18.8207C9.1688 18.8007 9.01903 18.7808 8.87923 18.7608C8.82423 18.7508 8.76923 18.7433 8.71423 18.7358C8.65923 18.7283 8.60423 18.7208 8.54923 18.7108C7.43923 18.5208 6.34923 18.2608 5.26923 17.9008C4.46923 17.6408 3.85923 17.0608 3.58923 16.3308C3.31923 15.6108 3.41923 14.7808 3.84923 14.0508L4.97923 12.1708C5.21923 11.7608 5.43923 10.9708 5.43923 10.4908V8.63078C5.43923 5.00078 8.38923 2.06078 12.0192 2.05078C15.6392 2.05078 18.5892 5.00078 18.5892 8.63078V10.5008C18.5892 10.9808 18.8092 11.7708 19.0592 12.1808ZM11.9892 10.7608C12.4092 10.7608 12.7492 10.4208 12.7492 10.0008V6.90078C12.7492 6.48078 12.4092 6.14078 11.9892 6.14078C11.5692 6.14078 11.2292 6.48078 11.2292 6.90078V10.0008C11.2292 10.4208 11.5692 10.7608 11.9892 10.7608ZM11.9997 22C13.2997 22 14.4097 21.17 14.8297 20.01C14.6597 20.03 14.4997 20.05 14.3397 20.07C14.2046 20.0903 14.065 20.1014 13.9239 20.1127C13.8561 20.1181 13.7879 20.1235 13.7197 20.13C13.1597 20.18 12.5897 20.21 12.0197 20.21C11.4397 20.21 10.8597 20.18 10.2897 20.13C10.0497 20.11 9.80969 20.08 9.57969 20.05C9.51388 20.0406 9.45028 20.0334 9.38786 20.0263C9.31748 20.0184 9.24858 20.0106 9.17969 20C9.31969 20.41 9.55969 20.81 9.87969 21.11C10.4297 21.68 11.2097 22 11.9997 22Z" fill="#292D32"/>
</svg>
