<svg viewBox="0 0 24 24" fill="none" xmlns="http://www.w3.org/2000/svg">
<path fill-rule="evenodd" clip-rule="evenodd" d="M18.338 12.83L19.338 14.49C19.728 15.13 19.798 15.89 19.538 16.58C19.278 17.27 18.738 17.8 18.038 18.03C16.098 18.68 14.058 19 12.018 19C9.97799 19 7.93799 18.68 5.99799 18.02C5.25799 17.77 4.68799 17.25 4.44799 16.58C4.19799 15.9 4.28799 15.16 4.68799 14.49L5.69799 12.82C5.90799 12.46 6.09799 11.76 6.09799 11.35V8.82C6.09799 6.5 7.44799 4.49 9.39799 3.52C9.91799 2.59 10.898 2 11.988 2C13.088 2 14.048 2.57 14.568 3.49C16.558 4.44 17.938 6.47 17.938 8.82V11.35C17.938 11.76 18.128 12.46 18.338 12.83ZM11.9997 22C13.2997 22 14.4097 21.17 14.8297 20.01C14.6597 20.03 14.4997 20.05 14.3397 20.07C14.2046 20.0903 14.065 20.1014 13.9239 20.1127C13.8561 20.1181 13.7879 20.1235 13.7197 20.13C13.1597 20.18 12.5897 20.21 12.0197 20.21C11.4397 20.21 10.8597 20.18 10.2897 20.13C10.0497 20.11 9.80969 20.08 9.57969 20.05C9.51388 20.0406 9.45028 20.0334 9.38786 20.0263C9.31748 20.0184 9.24858 20.0106 9.17969 20C9.31969 20.41 9.55969 20.81 9.87969 21.11C10.4297 21.68 11.2097 22 11.9997 22Z" fill="#292D32"/>
</svg>
