<svg viewBox="0 0 24 24" fill="none" xmlns="http://www.w3.org/2000/svg">
<path fill-rule="evenodd" clip-rule="evenodd" d="M11.2402 10.0001C11.2402 10.4201 11.5802 10.7601 12.0002 10.7601C12.4102 10.7601 12.7502 10.4201 12.7602 10.0001V6.90014C12.7602 6.48014 12.4202 6.14014 12.0002 6.14014C11.5802 6.14014 11.2402 6.48014 11.2402 6.90014V10.0001ZM11.9997 22C13.2997 22 14.4097 21.17 14.8297 20.01C14.6597 20.03 14.4997 20.05 14.3397 20.07C14.2046 20.0903 14.065 20.1014 13.9239 20.1127C13.8561 20.1181 13.7879 20.1235 13.7197 20.13C13.1597 20.18 12.5897 20.21 12.0197 20.21C11.4397 20.21 10.8597 20.18 10.2897 20.13C10.0497 20.11 9.80969 20.08 9.57969 20.05C9.51388 20.0406 9.45028 20.0334 9.38786 20.0263C9.31748 20.0184 9.24858 20.0106 9.17969 20C9.31969 20.41 9.55969 20.81 9.87969 21.11C10.4297 21.68 11.2097 22 11.9997 22Z" fill="#292D32"/>
<path opacity="0.4" d="M20.3992 16.3298C20.1192 17.0798 19.5292 17.6498 18.7592 17.9098C17.6792 18.2698 16.5692 18.5398 15.4492 18.7298C15.3392 18.7498 15.2292 18.7698 15.1192 18.7798C14.9392 18.8098 14.7592 18.8298 14.5792 18.8498C14.3592 18.8798 14.1292 18.8998 13.8992 18.9198C13.2692 18.9698 12.6492 18.9998 12.0192 18.9998C11.3792 18.9998 10.7392 18.9698 10.1092 18.9098C9.83923 18.8898 9.57923 18.8598 9.31923 18.8198C9.16923 18.7998 9.01923 18.7798 8.87923 18.7598C8.76923 18.7398 8.65923 18.7298 8.54923 18.7098C7.43923 18.5298 6.33923 18.2598 5.26923 17.8998C4.46923 17.6298 3.85923 17.0598 3.58923 16.3298C3.31923 15.6098 3.41923 14.7698 3.84923 14.0498L4.97923 12.1698C5.21923 11.7598 5.43923 10.9698 5.43923 10.4898V8.6298C5.43923 4.9998 8.38923 2.0498 12.0192 2.0498C15.6392 2.0498 18.5892 4.9998 18.5892 8.6298V10.4898C18.5892 10.9698 18.8092 11.7598 19.0592 12.1698L20.1892 14.0498C20.5992 14.7498 20.6792 15.5698 20.3992 16.3298Z" fill="#292D32"/>
</svg>
