<svg viewBox="0 0 24 24" fill="none" xmlns="http://www.w3.org/2000/svg">
<path fill-rule="evenodd" clip-rule="evenodd" d="M22 5C22 6.65685 20.6569 8 19 8C17.3431 8 16 6.65685 16 5C16 3.34315 17.3431 2 19 2C20.6569 2 22 3.34315 22 5ZM21.5 15.98V9.9C21.5 9.26 20.92 8.8 20.3 8.92C20.29 8.92 20.28 8.9225 20.27 8.925C20.26 8.9275 20.25 8.93 20.24 8.93C20.1861 8.94079 20.1321 8.94867 20.0766 8.95677C20.0292 8.9637 19.9807 8.97079 19.93 8.98C19.51 9.02 19.06 9 18.6 8.91C18.5726 8.90316 18.5463 8.89684 18.5207 8.89068C18.4339 8.86984 18.3549 8.85088 18.27 8.82C17.94 8.74 17.63 8.61 17.34 8.44C17.2382 8.38912 17.1365 8.32386 17.0408 8.26251C17.0237 8.25151 17.0067 8.24064 16.99 8.23C16.51 7.9 16.1 7.49 15.77 7.01C15.7594 6.99327 15.7485 6.97631 15.7375 6.95916C15.6761 6.8635 15.6109 6.76175 15.56 6.66C15.39 6.37 15.26 6.06 15.18 5.73C15.1491 5.64508 15.1302 5.56612 15.1093 5.47931C15.1032 5.45368 15.0968 5.42736 15.09 5.4C15 4.94 14.98 4.49 15.02 4.07C15.0292 4.01933 15.0363 3.97079 15.0432 3.92338C15.0513 3.86788 15.0592 3.81394 15.07 3.76C15.07 3.75 15.0725 3.74 15.075 3.73C15.0775 3.72 15.08 3.71 15.08 3.7C15.2 3.08 14.74 2.5 14.1 2.5H8.02C7.88 2.5 7.74 2.51 7.61 2.52C7.49 2.53 7.38 2.54 7.26 2.56C7.14 2.57 7.02 2.59 6.91 2.61C4.5 2.96 2.96 4.49 2.61 6.91C2.59 7.02 2.57 7.14 2.56 7.26C2.54 7.38 2.53 7.49 2.52 7.61C2.51 7.74 2.5 7.88 2.5 8.02V15.98C2.5 16.12 2.51 16.26 2.52 16.39C2.53 16.51 2.54 16.62 2.56 16.74C2.57 16.86 2.59 16.98 2.61 17.09C2.96 19.51 4.5 21.04 6.91 21.39C7.02 21.41 7.14 21.43 7.26 21.44C7.38 21.46 7.49 21.47 7.61 21.48C7.74 21.49 7.88 21.5 8.02 21.5H15.98C16.12 21.5 16.26 21.49 16.39 21.48C16.51 21.47 16.62 21.46 16.74 21.44C16.86 21.43 16.98 21.41 17.09 21.39C19.5 21.04 21.04 19.51 21.39 17.09C21.41 16.98 21.43 16.86 21.44 16.74C21.46 16.62 21.47 16.51 21.48 16.39C21.49 16.26 21.5 16.12 21.5 15.98Z" fill="#292D32"/>
</svg>
