<svg viewBox="0 0 24 24" fill="none" xmlns="http://www.w3.org/2000/svg">
<path fill-rule="evenodd" clip-rule="evenodd" d="M12.0208 2.9C12.8108 2.9 13.5608 3.05 14.2508 3.32C13.8108 2.51 12.9708 2 12.0208 2C11.0808 2 10.2308 2.51 9.80078 3.32C10.4908 3.04 11.2408 2.9 12.0208 2.9ZM11.9997 22C13.2997 22 14.4097 21.17 14.8297 20.01C14.6597 20.03 14.4997 20.05 14.3397 20.07C14.2046 20.0903 14.065 20.1014 13.9239 20.1127C13.8561 20.1181 13.7879 20.1235 13.7197 20.13C13.1597 20.18 12.5897 20.21 12.0197 20.21C11.4397 20.21 10.8597 20.18 10.2897 20.13C10.0497 20.11 9.80969 20.08 9.57969 20.05C9.51388 20.0406 9.45028 20.0334 9.38786 20.0263C9.31748 20.0184 9.24858 20.0106 9.17969 20C9.31969 20.41 9.55969 20.81 9.87969 21.11C10.4297 21.68 11.2097 22 11.9997 22Z" fill="#292D32"/>
<path opacity="0.4" d="M19.3399 14.4899L18.3399 12.8299C18.1299 12.4599 17.9399 11.7599 17.9399 11.3499V8.8199C17.9399 5.5599 15.2899 2.8999 12.0199 2.8999C8.74994 2.8999 6.09994 5.5599 6.09994 8.8199V11.3499C6.09994 11.7599 5.90994 12.4599 5.69994 12.8199L4.68994 14.4899C4.28994 15.1599 4.19994 15.8999 4.44994 16.5799C4.68994 17.2499 5.25994 17.7699 5.99994 18.0199C7.93994 18.6799 9.97994 18.9999 12.0199 18.9999C14.0599 18.9999 16.0999 18.6799 18.0399 18.0299C18.7399 17.7999 19.2799 17.2699 19.5399 16.5799C19.7999 15.8899 19.7299 15.1299 19.3399 14.4899Z" fill="#292D32"/>
</svg>
