<svg viewBox="0 0 24 24" fill="none" xmlns="http://www.w3.org/2000/svg">
<path fill-rule="evenodd" clip-rule="evenodd" d="M9 22.75H15C20.43 22.75 22.75 20.43 22.75 15V10C22.75 9.59 22.41 9.25 22 9.25C21.59 9.25 21.25 9.59 21.25 10V15C21.25 19.61 19.61 21.25 15 21.25H9C4.39 21.25 2.75 19.61 2.75 15V9C2.75 4.39 4.39 2.75 9 2.75H14C14.41 2.75 14.75 2.41 14.75 2C14.75 1.59 14.41 1.25 14 1.25H9C3.57 1.25 1.25 3.57 1.25 9V15C1.25 20.43 3.57 22.75 9 22.75ZM15.25 5C15.25 7.07 16.93 8.75 19 8.75C21.07 8.75 22.75 7.07 22.75 5C22.75 2.93 21.07 1.25 19 1.25C16.93 1.25 15.25 2.93 15.25 5ZM16.75 5C16.75 3.76 17.76 2.75 19 2.75C20.24 2.75 21.25 3.76 21.25 5C21.25 6.24 20.24 7.25 19 7.25C17.76 7.25 16.75 6.24 16.75 5Z" fill="#292D32"/>
</svg>
