<svg viewBox="0 0 24 24" fill="none" xmlns="http://www.w3.org/2000/svg">
<path fill-rule="evenodd" clip-rule="evenodd" d="M14.6592 6.20927C15.0592 7.71927 16.2792 8.93927 17.7892 9.33927C18.7492 9.58927 19.6692 9.52927 20.4792 9.23927C21.0392 9.04927 21.6592 9.37927 21.7792 9.95927C22.0892 11.4393 22.0792 13.0293 21.6192 14.6793C20.5692 18.4693 17.3092 21.3593 13.4092 21.8993C6.78923 22.8093 1.17923 17.1993 2.09923 10.5793C2.63923 6.68927 5.52923 3.41927 9.30923 2.35927C10.9692 1.90927 12.5592 1.89927 14.0292 2.20927C14.6092 2.32927 14.9492 2.94927 14.7492 3.50927C14.4592 4.32927 14.3992 5.24927 14.6592 6.20927ZM22 5C22 6.65685 20.6569 8 19 8C17.3431 8 16 6.65685 16 5C16 3.34315 17.3431 2 19 2C20.6569 2 22 3.34315 22 5Z" fill="#292D32"/>
</svg>
