<svg viewBox="0 0 25 24" fill="none" xmlns="http://www.w3.org/2000/svg">
<path fill-rule="evenodd" clip-rule="evenodd" d="M8.52538 20.6824L8.46962 20.95C8.44962 21.05 8.49961 21.13 8.52961 21.16C8.55961 21.2 8.61962 21.25 8.71962 21.25H11.6496C11.7796 21.25 11.8796 21.16 11.8996 21.04L12.6196 16.72C12.7596 15.87 13.4896 15.25 14.3496 15.25H16.4996C17.6296 15.25 18.6996 14.81 19.5096 14.01C20.3096 13.21 20.7496 12.13 20.7496 11C20.7496 10.3854 20.5758 9.7956 20.2574 9.28935C19.925 10.2168 19.3867 11.0723 18.6726 11.78C17.4126 13.05 15.7126 13.76 13.9026 13.76H13.5102C13.5033 13.76 13.4965 13.76 13.4896 13.76H10.7688C10.6503 13.7619 10.5424 13.8514 10.5226 13.98L9.76263 19.26C9.66263 19.93 9.19262 20.48 8.56262 20.67C8.55016 20.6744 8.53774 20.6785 8.52538 20.6824ZM20.6438 7.4373C20.6575 7.2942 20.6626 7.14964 20.6626 7C20.6626 3.83 18.0826 1.25 14.9126 1.25H10.4526C8.61263 1.25 7.05262 2.57001 6.75262 4.39001L4.36264 18.72C4.27264 19.22 4.42262 19.74 4.75262 20.13C5.09262 20.53 5.57262 20.75 6.09262 20.75H6.98323C6.91712 21.2374 7.05138 21.7263 7.36961 22.11C7.70961 22.52 8.19962 22.75 8.71962 22.75H11.6496C12.5096 22.75 13.2396 22.13 13.3896 21.28L14.1096 16.96C14.1296 16.84 14.2296 16.75 14.3596 16.75H16.5096C18.0396 16.75 19.4796 16.16 20.5796 15.07C21.6596 13.97 22.2596 12.53 22.2596 11C22.2596 9.62707 21.6595 8.33238 20.6438 7.4373ZM19.1377 6.46525C18.8688 4.38069 17.0781 2.76001 14.9226 2.76001H10.4526V2.75C9.34263 2.75 8.41263 3.54 8.23263 4.63L5.84262 18.96C5.82262 19.06 5.87262 19.13 5.90262 19.16C5.93262 19.19 5.99262 19.25 6.09262 19.25H7.59723L7.70961 19.22C7.78961 19.2 7.85962 19.12 7.87962 19.02L8.63963 13.75C8.75963 12.89 9.50961 12.25 10.3696 12.25H13.4996C14.9096 12.25 16.2196 11.7 17.2096 10.71C18.0896 9.84002 18.6196 8.69002 18.7296 7.46002L18.8296 6.29004L19.1377 6.46525Z" fill="#292D32"/>
</svg>
