<svg viewBox="0 0 24 24" fill="none" xmlns="http://www.w3.org/2000/svg">
<path fill-rule="evenodd" clip-rule="evenodd" d="M18.9692 7.51999C18.9892 7.34999 18.9992 7.18 18.9992 7C18.9992 4.24 16.7592 2 13.9992 2H9.53924C8.06924 2 6.81922 3.06001 6.57922 4.51001L4.18924 18.84C4.08924 19.45 4.55923 20 5.17923 20H7.12924C7.22924 20 7.31924 19.99 7.40924 19.95C7.77924 19.85 8.05923 19.53 8.11923 19.14L8.87924 13.86C8.94924 13.37 9.36923 13 9.86923 13H12.9992C14.6592 13 16.1592 12.33 17.2392 11.24C18.2092 10.28 18.8492 8.96999 18.9692 7.51999ZM19.5407 14.5397C20.4407 13.6297 21.0007 12.3797 21.0007 10.9997C21.0007 10.3997 20.8707 9.83967 20.6307 9.31966C20.5207 9.08967 20.1907 9.13967 20.1107 9.38967C19.7507 10.4797 19.1307 11.4897 18.3007 12.3097C16.9007 13.7197 15.0107 14.4997 13.0007 14.4997H10.7307C10.4907 14.4997 10.2807 14.6797 10.2407 14.9297L9.60072 19.3497C9.46072 20.3097 8.80071 21.0797 7.90071 21.3697C7.66071 21.4697 7.52071 21.7597 7.74071 21.8797C7.88071 21.9597 8.04072 21.9997 8.22072 21.9997H11.1507C11.6407 21.9997 12.0607 21.6497 12.1407 21.1597L12.8607 16.8397C12.9407 16.3497 13.3607 15.9997 13.8507 15.9997H16.0007C17.3807 15.9997 18.6307 15.4397 19.5407 14.5397Z" fill="#292D32"/>
</svg>
