<svg viewBox="0 0 24 24" fill="none" xmlns="http://www.w3.org/2000/svg">
<path d="M21.9319 10.716C21.7496 10.1968 21.2549 9.82414 20.6755 9.82414H20.6625C20.2849 9.82414 19.9448 9.98201 19.7023 10.2343C19.4598 9.98201 19.1197 9.82414 18.7421 9.82414H18.7307C18.3987 9.82414 18.0943 9.9462 17.8616 10.1464V10.0455C17.8535 9.94295 17.7705 9.8632 17.6663 9.8632H16.7745C16.6654 9.8632 16.5775 9.95108 16.5775 10.0601V14.9002C16.5775 15.0093 16.6654 15.0971 16.7745 15.0971H17.6663C17.7656 15.0971 17.8486 15.0223 17.86 14.9279V11.4532C17.86 11.4402 17.86 11.4305 17.8616 11.4191C17.8763 11.2645 17.9902 11.1359 18.1692 11.1212H18.3336C18.4084 11.1277 18.4719 11.1538 18.5207 11.1945C18.5989 11.2563 18.6412 11.3507 18.6412 11.4549L18.6444 14.9116C18.6444 15.0207 18.7323 15.1102 18.8414 15.1102H19.7332C19.839 15.1102 19.9236 15.0272 19.9285 14.923V11.4516C19.9285 11.3377 19.9806 11.2335 20.0733 11.1733C20.1189 11.144 20.1743 11.1245 20.2377 11.118H20.4021C20.5958 11.1343 20.7113 11.2807 20.7113 11.4516L20.7146 14.9051C20.7146 15.0141 20.8025 15.102 20.9115 15.102H21.8034C21.9075 15.102 21.9938 15.0207 22.0003 14.9181V11.131C21.9954 10.9178 21.9677 10.8185 21.9319 10.716ZM15.8973 9.87622H15.3879V9.04946C15.3879 9.04784 15.3879 9.04784 15.3879 9.04621C15.3879 8.94856 15.3081 8.86719 15.2072 8.86719C15.1958 8.86719 15.1844 8.86881 15.173 8.87044C14.6083 9.02505 14.7206 9.80787 13.6888 9.87459H13.5895C13.5749 9.87459 13.5602 9.87622 13.5456 9.87947H13.5439H13.5456C13.4593 9.90063 13.3926 9.97875 13.3926 10.0731V10.965C13.3926 11.074 13.4805 11.1619 13.5895 11.1619H14.1266L14.1249 14.9409C14.1249 15.0483 14.2128 15.1362 14.3202 15.1362H15.2023C15.3097 15.1362 15.3976 15.0483 15.3976 14.9409V11.1619H15.8973C16.0047 11.1619 16.0942 11.0724 16.0942 10.965V10.0731C16.0942 9.9641 16.0063 9.87622 15.8973 9.87622Z" fill="#292D32"/>
<path d="M12.6909 9.87663H11.799C11.6916 9.87663 11.6021 9.96451 11.6021 10.0736V11.9175C11.6005 12.0314 11.5077 12.1225 11.3938 12.1225H11.0211C10.9055 12.1225 10.8111 12.0298 10.8111 11.9142L10.8079 10.0736C10.8079 9.96451 10.72 9.87663 10.611 9.87663H9.7191C9.61006 9.87663 9.52217 9.96451 9.52217 10.0736V12.0932C9.52217 12.8598 10.069 13.4082 10.8372 13.4082C10.8372 13.4082 11.4133 13.4082 11.4312 13.4115C11.5354 13.4229 11.6151 13.5108 11.6151 13.6182C11.6151 13.724 11.537 13.8119 11.4328 13.8249C11.4279 13.8249 11.4231 13.8265 11.4182 13.8281L10.1146 13.833C10.0055 13.833 9.91765 13.9209 9.91765 14.0299V14.9202C9.91765 15.0292 10.0055 15.1171 10.1146 15.1171H11.5712C12.3393 15.1171 12.8862 14.5703 12.8862 13.8037V10.0736C12.8878 9.96451 12.7999 9.87663 12.6909 9.87663ZM7.61966 9.88151H6.38278C6.27374 9.88151 6.18423 9.96451 6.18423 10.0654V10.4121C6.18423 10.4137 6.18423 10.4169 6.18423 10.4186C6.18423 10.4218 6.18423 10.4235 6.18423 10.4267V10.9019C6.18423 11.0093 6.27862 11.0989 6.39417 11.0989H7.57246C7.66523 11.1135 7.73847 11.1819 7.74986 11.2876V11.4032C7.74009 11.5041 7.66686 11.5773 7.57735 11.5855H6.99471C6.21841 11.5855 5.66669 12.1014 5.66669 12.824V13.8607C5.66669 14.58 6.14192 15.091 6.91171 15.091H8.52779C8.81748 15.091 9.05346 14.8713 9.05346 14.6012V11.2193C9.05346 10.399 8.63032 9.88151 7.61966 9.88151ZM7.76125 13.6019V13.7419C7.76125 13.7533 7.75962 13.7647 7.758 13.7744C7.75637 13.7842 7.75311 13.794 7.74986 13.8037C7.72219 13.8818 7.64407 13.9388 7.55131 13.9388H7.18024C7.06469 13.9388 6.9703 13.8509 6.9703 13.7419V13.5742C6.9703 13.5726 6.9703 13.5694 6.9703 13.5677V13.1202V12.9802V12.9786C6.9703 12.8712 7.06469 12.7833 7.18024 12.7833H7.55131C7.66686 12.7833 7.76125 12.8712 7.76125 12.9802V13.6019ZM4.14175 9.875H2.19367C2.08626 9.875 2 9.96288 2 10.0687V10.9426C2 10.9442 2 10.9459 2 10.9475C2 10.9524 2 10.9556 2 10.9589V14.912C2 15.0194 2.07975 15.1073 2.18065 15.1089H3.08878C3.19782 15.1089 3.2857 15.0211 3.2857 14.912L3.28896 13.558H4.14175C4.85459 13.558 5.35259 13.0632 5.35259 12.3455V11.0891C5.35259 10.373 4.85459 9.875 4.14175 9.875ZM4.06363 11.509V12.0591C4.06363 12.1746 3.97087 12.269 3.85532 12.269H3.29059V11.1672H3.85532C3.97087 11.1672 4.06363 11.26 4.06363 11.3755V11.509Z" fill="#292D32"/>
</svg>
