<svg viewBox="0 0 24 24" fill="none" xmlns="http://www.w3.org/2000/svg">
<path fill-rule="evenodd" clip-rule="evenodd" d="M6.16047 7.91002H6.08047H6.03047C4.14047 7.85002 2.73047 6.39001 2.73047 4.59001C2.73047 2.75001 4.23047 1.26001 6.06047 1.26001C7.89047 1.26001 9.39047 2.76001 9.39047 4.59001C9.38047 6.40001 7.97047 7.86001 6.17047 7.92001V7.92001C6.17047 7.91501 6.17047 7.91251 6.16922 7.91127C6.16797 7.91002 6.16548 7.91002 6.16049 7.91002H6.16047ZM6.06047 2.75002C5.05047 2.75002 4.23047 3.57002 4.23047 4.58002C4.23047 5.57002 5.00047 6.37002 5.99047 6.41002C6.00047 6.40002 6.08047 6.40002 6.17047 6.41002C7.14047 6.36002 7.89047 5.56002 7.90047 4.58002C7.90047 3.57002 7.08047 2.75002 6.06047 2.75002ZM17.9203 7.91002H18.0003L18.0059 7.91015C18.0074 7.9103 18.0084 7.91061 18.0091 7.91127C18.0103 7.91252 18.0103 7.91501 18.0103 7.92001C19.8103 7.86001 21.2203 6.40001 21.2303 4.59001C21.2303 2.76001 19.7303 1.26001 17.9003 1.26001C16.0703 1.26001 14.5703 2.75001 14.5703 4.59001C14.5703 6.39001 15.9803 7.85002 17.8703 7.91002H17.9203ZM16.0703 4.58002C16.0703 3.57002 16.8903 2.75002 17.9003 2.75002C18.9203 2.75002 19.7403 3.57002 19.7403 4.58002C19.7303 5.56002 18.9803 6.36002 18.0103 6.41002C17.9203 6.40002 17.8403 6.40002 17.8303 6.41002C16.8403 6.37002 16.0703 5.57002 16.0703 4.58002ZM16.8405 15.1801C17.2305 15.2501 17.6205 15.2801 18.0105 15.2801C19.2405 15.2801 20.4205 14.9502 21.3305 14.3502C22.2205 13.7502 22.7205 12.9001 22.7205 12.0101C22.7205 11.1101 22.2105 10.2701 21.3305 9.68014C20.1305 8.88014 18.4405 8.57015 16.8105 8.86015C16.4005 8.93015 16.1305 9.32015 16.2005 9.73015C16.2705 10.1401 16.6605 10.4201 17.0705 10.3401C18.3105 10.1201 19.6305 10.3501 20.5005 10.9301C20.9605 11.2401 21.2205 11.6201 21.2205 12.0101C21.2205 12.4001 20.9705 12.7902 20.5005 13.1002C19.6305 13.6802 18.3305 13.9101 17.1005 13.7001C16.6905 13.6301 16.3005 13.9001 16.2305 14.3101C16.1605 14.7201 16.4305 15.1101 16.8405 15.1801ZM2.64 14.3502C3.55 14.9502 4.73 15.2801 5.96 15.2801C6.35 15.2801 6.74 15.2501 7.13 15.1801C7.54 15.1101 7.81 14.7201 7.74 14.3101C7.67 13.9101 7.28 13.6301 6.87 13.7001C5.64 13.9101 4.34 13.6802 3.47 13.1002C3.01 12.7902 2.75 12.4001 2.75 12.0101C2.75 11.6201 3 11.2401 3.47 10.9301C4.35 10.3501 5.66 10.1201 6.9 10.3401C7.31 10.4201 7.7 10.1401 7.77 9.73015C7.84 9.32015 7.57 8.93015 7.16 8.86015C5.53 8.57015 3.84 8.88014 2.64 9.68014C1.76 10.2701 1.25 11.1201 1.25 12.0101C1.25 12.9101 1.76 13.7602 2.64 14.3502ZM12.0003 15.38H11.9203H11.8703C9.98031 15.32 8.57031 13.86 8.57031 12.06C8.57031 10.22 10.0703 8.72998 11.9003 8.72998C13.7303 8.72998 15.2303 10.23 15.2303 12.06C15.2203 13.87 13.8103 15.33 12.0103 15.39C12.0103 15.385 12.0103 15.3825 12.0091 15.3812C12.0078 15.38 12.0053 15.38 12.0003 15.38H12.0003ZM11.9003 10.22C10.8903 10.22 10.0703 11.04 10.0703 12.05C10.0703 13.04 10.8403 13.84 11.8303 13.88C11.8403 13.87 11.9203 13.87 12.0103 13.88C12.9803 13.83 13.7303 13.03 13.7403 12.05C13.7403 11.05 12.9203 10.22 11.9003 10.22ZM8.6693 21.82C9.5993 22.45 10.7993 22.76 11.9993 22.76C13.1993 22.76 14.3993 22.44 15.3293 21.82C16.2193 21.23 16.7193 20.37 16.7193 19.48C16.7193 18.58 16.2093 17.74 15.3293 17.15C13.4693 15.91 10.5393 15.91 8.6693 17.15C7.7793 17.74 7.2793 18.6 7.2793 19.49C7.2793 20.39 7.7893 21.23 8.6693 21.82ZM8.7793 19.5C8.7793 19.11 9.0293 18.72 9.4993 18.41C10.8593 17.51 13.1493 17.5 14.4893 18.41C14.9493 18.72 15.2093 19.1 15.2093 19.49C15.2093 19.88 14.9593 20.27 14.4893 20.58C13.1393 21.49 10.8493 21.49 9.4993 20.58C9.0393 20.27 8.7793 19.89 8.7793 19.5Z" fill="#292D32"/>
</svg>
