<svg viewBox="0 0 24 24" fill="none" xmlns="http://www.w3.org/2000/svg">
<path fill-rule="evenodd" clip-rule="evenodd" d="M3.97 13.395C6.78 11.535 11.33 11.535 14.12 13.395C15.38 14.235 16.07 15.375 16.08 16.605C16.08 17.845 15.38 18.985 14.12 19.835C12.72 20.775 10.88 21.245 9.04 21.245C7.2 21.245 5.36 20.775 3.96 19.835C2.7 18.995 2 17.855 2 16.625C2 15.395 2.7 14.245 3.97 13.395ZM20.251 18.4704C21.291 17.9004 21.911 17.0604 21.991 16.0904C22.081 15.1304 21.611 14.2004 20.691 13.4604C18.981 12.0804 16.201 11.6504 13.991 12.2904C14.841 12.6004 15.621 13.0204 16.291 13.5504C17.471 14.5004 18.061 15.6904 17.961 16.9304C17.881 17.7904 17.461 18.6004 16.741 19.2504C17.991 19.2804 19.251 19.0204 20.251 18.4704Z" fill="#292D32"/>
<path opacity="0.4" fill-rule="evenodd" clip-rule="evenodd" d="M4.25 6.75C4.25 4.13 6.38 2 9 2C11.62 2 13.75 4.13 13.75 6.75C13.74 9.32 11.73 11.4 9.17 11.49H9.15H9.1C9.04 11.48 8.96 11.48 8.88 11.49C6.26 11.4 4.25 9.32 4.25 6.75ZM16.8594 11.2101C18.7694 10.9801 20.1494 9.2801 19.9894 7.3401C19.8194 5.3601 18.0694 3.9001 16.1094 4.0701C15.6594 4.1101 15.2194 4.2301 14.8394 4.4201C15.2594 5.0501 15.5394 5.7901 15.6094 6.6001C15.7294 8.1001 15.1394 9.4801 14.1094 10.4001C14.7794 10.9701 15.6694 11.2801 16.6394 11.2301C16.6894 11.2101 16.7494 11.2101 16.8094 11.2101H16.8094H16.8394H16.8594Z" fill="#292D32"/>
</svg>
