<svg viewBox="0 0 24 24" fill="none" xmlns="http://www.w3.org/2000/svg">
<path fill-rule="evenodd" clip-rule="evenodd" d="M11.8608 15.87C11.9508 15.86 12.0408 15.86 12.1208 15.87C13.9708 15.81 15.4308 14.3 15.4308 12.44C15.4308 10.54 13.8908 9 11.9908 9C10.0808 9 8.55078 10.54 8.55078 12.44C8.55078 14.3 10.0208 15.81 11.8608 15.87ZM8.87078 21.6099C7.36078 20.6099 7.36078 18.9499 8.87078 17.9399C10.6008 16.7899 13.4208 16.7899 15.1308 17.9399C16.6408 18.9399 16.6408 20.5999 15.1308 21.6099C13.4108 22.7599 10.5908 22.7599 8.87078 21.6099Z" fill="#292D32"/>
<path opacity="0.4" fill-rule="evenodd" clip-rule="evenodd" d="M6.44039 7.77C6.51039 7.76 6.58039 7.76 6.65039 7.77C8.20039 7.72 9.43039 6.45 9.43039 4.89C9.43039 3.3 8.14039 2 6.54039 2C4.95039 2 3.65039 3.29 3.65039 4.89C3.66039 6.45 4.89039 7.72 6.44039 7.77ZM17.3191 7.77C17.3891 7.76 17.4591 7.76 17.5291 7.77C19.0791 7.72 20.3091 6.45 20.3191 4.89C20.3191 3.29 19.0191 2 17.4291 2C15.8291 2 14.5391 3.3 14.5391 4.89C14.5391 6.45 15.7691 7.72 17.3191 7.77ZM16.6496 15.5399C18.0996 15.7299 19.6696 15.4499 20.7896 14.6999C22.3596 13.6499 22.3596 11.9399 20.7796 10.8999C19.6496 10.1499 18.0796 9.86992 16.5996 10.0699C17.0196 10.8999 17.2396 11.8499 17.2396 12.8499C17.2296 13.8099 17.0296 14.7199 16.6496 15.5399ZM7.13914 15.5701C6.75914 14.7401 6.54914 13.8201 6.54914 12.8501C6.54914 11.8401 6.76914 10.8901 7.17914 10.0501C5.75914 9.8901 4.24914 10.1801 3.17914 10.9001C1.59914 11.9501 1.59914 13.6601 3.17914 14.7101C4.25914 15.4201 5.72914 15.7201 7.13914 15.5701Z" fill="#292D32"/>
</svg>
