<svg viewBox="0 0 24 24" fill="none" xmlns="http://www.w3.org/2000/svg">
<path fill-rule="evenodd" clip-rule="evenodd" d="M9 22.75H15C20.43 22.75 22.75 20.43 22.75 15V9C22.75 3.57 20.43 1.25 15 1.25H9C3.57 1.25 1.25 3.57 1.25 9V15C1.25 20.43 3.57 22.75 9 22.75ZM2.75 9C2.75 4.39 4.39 2.75 9 2.75H15C19.61 2.75 21.25 4.39 21.25 9V15C21.25 19.61 19.61 21.25 15 21.25H9C4.39 21.25 2.75 19.61 2.75 15V9ZM8.03977 15.8001C8.18977 15.9501 8.37976 16.0201 8.56976 16.0201C8.75976 16.0201 8.94976 15.9501 9.09976 15.8001L15.6498 9.25015C15.9398 8.96015 15.9398 8.48016 15.6498 8.19016C15.3598 7.90016 14.8798 7.90016 14.5898 8.19016L8.03977 14.7401C7.74977 15.0301 7.74977 15.5101 8.03977 15.8001ZM8.98001 11.1099C7.89001 11.1099 7 10.2199 7 9.12991C7 8.03991 7.89001 7.1499 8.98001 7.1499C10.07 7.1499 10.96 8.03991 10.96 9.12991C10.96 10.2199 10.07 11.1099 8.98001 11.1099ZM8.98001 8.65991C8.72001 8.65991 8.5 8.86992 8.5 9.13992C8.5 9.40992 8.71001 9.6199 8.98001 9.6199C9.25001 9.6199 9.45999 9.40992 9.45999 9.13992C9.45999 8.86992 9.24001 8.65991 8.98001 8.65991ZM13.5391 14.8599C13.5391 15.9499 14.429 16.8399 15.519 16.8399C16.609 16.8399 17.4991 15.9499 17.4991 14.8599C17.4991 13.7699 16.609 12.8799 15.519 12.8799C14.429 12.8799 13.5391 13.7699 13.5391 14.8599ZM15.0391 14.8699C15.0391 14.5999 15.259 14.3899 15.519 14.3899C15.789 14.3899 15.9991 14.5999 15.9991 14.8699C15.9991 15.1399 15.789 15.3499 15.519 15.3499C15.249 15.3499 15.0391 15.1399 15.0391 14.8699Z" fill="#292D32"/>
</svg>
