<svg viewBox="0 0 24 24" fill="none" xmlns="http://www.w3.org/2000/svg">
<path d="M18.884 8.71088C18.8761 8.43521 18.7623 8.17318 18.5662 7.97927C18.3701 7.78537 18.1068 7.67451 17.831 7.66977H15.8857L11.4309 2.55389C11.2225 2.31974 10.9518 2.1497 10.6504 2.06358C10.349 1.97747 10.0294 1.97885 9.72874 2.06756L8.18477 2.55389C8.12991 2.57249 8.08036 2.6041 8.04037 2.64601C8.00038 2.68793 7.97113 2.7389 7.95512 2.79458C7.93912 2.85025 7.93683 2.90898 7.94845 2.96573C7.96008 3.02249 7.98527 3.07558 8.02188 3.12048L12.8875 7.73823H5.51705C5.46352 7.73586 5.41008 7.7447 5.36015 7.76418C5.31023 7.78366 5.26493 7.81336 5.22715 7.85136C5.18936 7.88937 5.15994 7.93484 5.14075 7.98488C5.12156 8.03491 5.11303 8.08841 5.11572 8.14193V8.95169C5.12057 9.22942 5.23306 9.49443 5.42948 9.69085C5.6259 9.88727 5.8909 9.99976 6.16864 10.0046H7.30419V13.8952C7.30419 16.8108 8.84344 18.513 11.4356 18.513C12.2119 18.5368 12.9846 18.3985 13.7043 18.1069V20.7038C13.7021 20.8746 13.7341 21.0442 13.7985 21.2024C13.8628 21.3607 13.9582 21.5044 14.079 21.6252C14.1998 21.746 14.3436 21.8414 14.5018 21.9058C14.6601 21.9701 14.8296 22.0021 15.0004 21.9999H16.1336C16.2597 21.9911 16.3784 21.937 16.4677 21.8477C16.5571 21.7583 16.6112 21.6396 16.62 21.5136V9.9267H18.4779C18.532 9.92978 18.5862 9.92139 18.6369 9.90207C18.6875 9.88276 18.7335 9.85295 18.7719 9.81462C18.8102 9.77628 18.84 9.73027 18.8593 9.67961C18.8787 9.62895 18.8871 9.57477 18.884 9.52064V8.71088ZM13.6902 15.6776C13.1792 15.9011 12.6259 16.0115 12.0683 16.0011C10.7722 16.0011 10.1254 15.3542 10.1254 13.8952V10.007H13.6902V15.6729V15.6776Z" fill="#292D32"/>
</svg>
