<svg viewBox="0 0 24 24" fill="none" xmlns="http://www.w3.org/2000/svg">
<path fill-rule="evenodd" clip-rule="evenodd" d="M15 12.75H18.32C19.34 12.75 20.8 12.63 21.6 11.56C22.26 10.68 22.31 9.38996 21.76 7.50996C21.04 5.02996 18.97 2.95996 16.49 2.23996C14.6 1.68996 13.32 1.73996 12.43 2.39996C11.37 3.19996 11.25 4.65996 11.25 5.67996V8.54996C11.25 11.34 12.51 12.75 15 12.75ZM13.34 3.59996C13.55 3.43996 13.87 3.35996 14.28 3.35996C14.75 3.35996 15.35 3.46996 16.09 3.69996C18.06 4.26996 19.76 5.97996 20.34 7.94996C20.73 9.29996 20.76 10.22 20.41 10.68C20.11 11.07 19.43 11.26 18.33 11.26H15.01C13.62 11.26 12.76 10.8 12.76 8.55996V5.67996C12.76 4.56996 12.95 3.88996 13.34 3.59996ZM9.46037 22.6198C10.0004 22.7098 10.5404 22.7498 11.0704 22.7498C15.7204 22.7498 19.8004 19.5198 20.7504 14.8498C20.8304 14.4498 20.5704 14.0498 20.1604 13.9698C19.7604 13.8898 19.3604 14.1498 19.2804 14.5598C18.3904 18.9698 14.2004 21.8598 9.71037 21.1398C6.25037 20.5798 3.44037 17.7698 2.88037 14.3098C2.15037 9.83983 5.03037 5.63983 9.42037 4.73983C9.82037 4.64983 10.0804 4.25983 10.0004 3.84983C9.91037 3.44983 9.52037 3.18983 9.11037 3.26983C3.92037 4.32983 0.530371 9.28983 1.38037 14.5498C2.04037 18.6398 5.37037 21.9598 9.46037 22.6198Z" fill="#292D32"/>
</svg>
