<svg viewBox="0 0 24 24" fill="none" xmlns="http://www.w3.org/2000/svg">
<path fill-rule="evenodd" clip-rule="evenodd" d="M17.0502 2.32942C19.2202 2.96942 21.0302 4.77942 21.6702 6.94942C22.1602 8.59941 22.1102 9.73942 21.5002 10.5194C20.7902 11.4694 19.5002 11.5794 18.6002 11.5794H15.7302C13.5302 11.5794 12.4102 10.3294 12.4102 7.86942V5.37942C12.4102 4.46942 12.5202 3.18942 13.4702 2.47942C14.2602 1.88942 15.4002 1.84942 17.0502 2.32942ZM17.8794 12.8911C18.2694 12.8911 18.6494 13.0611 18.9094 13.3611C19.1694 13.6511 19.2894 14.0411 19.2394 14.4311C18.9394 16.7811 17.6494 18.9411 15.7094 20.3511C14.2194 21.4411 12.4694 22.0011 10.6594 22.0011C10.1094 22.0011 9.55941 21.9511 9.00941 21.8411C5.55941 21.1911 2.80941 18.4411 2.15941 15.0011C1.70941 12.6211 2.22941 10.2411 3.64941 8.29113C5.05941 6.35113 7.21941 5.06113 9.56941 4.76113C9.94941 4.71113 10.3494 4.83113 10.6394 5.09113C10.9394 5.35113 11.1094 5.73113 11.1094 6.12113V9.70113C11.1094 11.4611 12.5394 12.8911 14.2994 12.8911H17.8794Z" fill="#292D32"/>
</svg>
