<svg viewBox="0 0 24 24" fill="none" xmlns="http://www.w3.org/2000/svg">
<path fill-rule="evenodd" clip-rule="evenodd" d="M5.25 9C5.25 9.41 5.59 9.75 6 9.75C6.41 9.75 6.75 9.41 6.75 9V2C6.75 1.59 6.41 1.25 6 1.25C5.59 1.25 5.25 1.59 5.25 2V9ZM14.62 10.7503L13.3 8.11032C12.59 6.68032 11.41 6.68032 10.7 8.12032L9.37997 10.7603C9.19997 11.1203 8.71997 11.4703 8.31997 11.5403L5.92997 11.9403C4.39997 12.1903 4.03997 13.3003 5.13997 14.4003L6.98997 16.2503C7.29997 16.5703 7.47997 17.1803 7.37997 17.6103L6.84997 19.9203C6.42997 21.7403 7.39997 22.4503 9.00997 21.5003L11.26 20.1803C11.67 19.9403 12.33 19.9403 12.74 20.1803L14.98 21.5103C16.59 22.4603 17.56 21.7503 17.14 19.9303L16.61 17.6203C16.51 17.1803 16.69 16.5703 17 16.2603L18.86 14.3903C19.96 13.2903 19.6 12.1903 18.07 11.9303L15.68 11.5303C15.28 11.4703 14.8 11.1103 14.62 10.7503ZM18 9.75C17.59 9.75 17.25 9.41 17.25 9V2C17.25 1.59 17.59 1.25 18 1.25C18.41 1.25 18.75 1.59 18.75 2V9C18.75 9.41 18.41 9.75 18 9.75ZM11.25 4C11.25 4.41 11.59 4.75 12 4.75C12.41 4.75 12.75 4.41 12.75 4V2C12.75 1.59 12.41 1.25 12 1.25C11.59 1.25 11.25 1.59 11.25 2V4Z" fill="#292D32"/>
</svg>
