<svg viewBox="0 0 24 24" fill="none" xmlns="http://www.w3.org/2000/svg">
<path fill-rule="evenodd" clip-rule="evenodd" d="M15.3395 3.85047C15.4395 4.17047 15.3195 4.54047 15.0095 4.85047L14.2595 5.60047C14.2195 5.63047 14.1895 5.74047 14.1995 5.79047L14.4095 6.71047C14.5695 7.40047 14.3095 7.71047 14.1395 7.83047C14.0495 7.89047 13.8995 7.97047 13.6895 7.97047C13.5095 7.97047 13.2795 7.92047 12.9995 7.75047L12.1095 7.22047C12.0695 7.19047 11.9395 7.19047 11.8995 7.22047L10.9995 7.75047C10.3895 8.11047 10.0195 7.95047 9.84945 7.83047C9.67945 7.71047 9.41945 7.40047 9.57945 6.71047L9.78945 5.79047C9.79945 5.75047 9.76945 5.63047 9.72945 5.60047L8.98945 4.85047C8.67945 4.54047 8.55945 4.17047 8.65945 3.85047C8.76945 3.53047 9.06945 3.30047 9.50945 3.23047L10.4695 3.07047C10.5095 3.07047 10.5995 3.00047 10.6095 2.96047L11.1395 1.90047C11.5395 1.09047 12.4495 1.09047 12.8495 1.90047L13.3795 2.96047C13.3995 3.00047 13.4895 3.07047 13.5295 3.07047L14.4895 3.23047C14.9295 3.30047 15.2395 3.53047 15.3395 3.85047ZM10.6602 10H13.3302C14.4402 10 15.3302 10.9 15.3302 12V21C15.3302 21.55 14.8802 22 14.3302 22H9.66016C9.11016 22 8.66016 21.55 8.66016 21V12C8.66016 10.9 9.56016 10 10.6602 10ZM4 14H6.67C7.22 14 7.67 14.45 7.67 15V21C7.67 21.55 7.22 22 6.67 22H3C2.45 22 2 21.55 2 21V16C2 14.9 2.9 14 4 14ZM20.0001 17H17.3301C16.7801 17 16.3301 17.45 16.3301 18V21C16.3301 21.55 16.7801 22 17.3301 22H21.0001C21.5501 22 22.0001 21.55 22.0001 21V19C22.0001 17.9 21.1001 17 20.0001 17Z" fill="#292D32"/>
</svg>
