<svg viewBox="0 0 24 24" fill="none" xmlns="http://www.w3.org/2000/svg">
<path fill-rule="evenodd" clip-rule="evenodd" d="M15.3397 3.84999C15.4397 4.16999 15.3197 4.53999 15.0097 4.84999L14.2597 5.59999C14.2197 5.62999 14.1897 5.74 14.1997 5.79L14.4097 6.70998C14.5697 7.39998 14.3097 7.70997 14.1397 7.82997C14.0497 7.88997 13.8997 7.96999 13.6897 7.96999C13.5097 7.96999 13.2797 7.91999 12.9997 7.74999L12.0997 7.21999C12.0597 7.18999 11.9297 7.18999 11.8897 7.21999L10.9897 7.74999C10.3797 8.10999 10.0097 7.94997 9.83968 7.82997C9.66968 7.69997 9.40968 7.38998 9.56968 6.70998L9.77968 5.79C9.78968 5.75 9.74969 5.62999 9.71969 5.59999L8.97968 4.84999C8.66968 4.53999 8.54969 4.16999 8.64969 3.84999C8.75969 3.52999 9.05968 3.3 9.49968 3.23L10.4597 3.06999C10.4997 3.05999 10.5897 2.99998 10.6097 2.95998L11.1397 1.89998C11.5397 1.08998 12.4497 1.08998 12.8497 1.89998L13.3797 2.95998C13.3997 2.99998 13.4897 3.05999 13.5297 3.06999L14.4897 3.23C14.9297 3.3 15.2397 3.52999 15.3397 3.84999ZM10.6602 10H13.3302C14.4402 10 15.3302 10.9 15.3302 12V22H8.66016V12C8.66016 10.9 9.56016 10 10.6602 10Z" fill="#292D32"/>
<path opacity="0.4" fill-rule="evenodd" clip-rule="evenodd" d="M4 14H8.67V22H2V16C2 14.9 2.9 14 4 14ZM15.3301 17H20.0001C21.1001 17 22.0001 17.9 22.0001 19V22H15.3301V17Z" fill="#292D32"/>
</svg>
