<svg viewBox="0 0 24 24" fill="none" xmlns="http://www.w3.org/2000/svg">
<path fill-rule="evenodd" clip-rule="evenodd" d="M5.25 9C5.25 9.41 5.59 9.75 6 9.75C6.41 9.75 6.75 9.41 6.75 9V2C6.75 1.59 6.41 1.25 6 1.25C5.59 1.25 5.25 1.59 5.25 2V9ZM14.6104 21.37C15.2804 21.77 15.8204 21.9 16.2504 21.9C16.7304 21.9 17.0704 21.73 17.2504 21.57C17.6404 21.29 18.2304 20.58 17.8604 18.97L17.3304 16.67C17.2904 16.49 17.3904 16.14 17.5204 16.01L19.3804 14.15C20.3804 13.15 20.3004 12.28 20.1604 11.84C20.0204 11.4 19.5804 10.64 18.1904 10.41L15.8004 10.01C15.6404 9.97999 15.3704 9.77999 15.2904 9.62999L13.9704 6.98999C13.3204 5.68999 12.4604 5.5 12.0004 5.5C11.5404 5.5 10.6804 5.69999 10.0304 6.98999L8.7104 9.62999C8.6404 9.77999 8.37039 9.97999 8.20039 10.01L5.81037 10.41C4.42037 10.65 3.98037 11.4 3.84037 11.84C3.70037 12.28 3.62037 13.15 4.62037 14.15L6.48039 16.01C6.61039 16.15 6.71039 16.49 6.67039 16.67L6.14039 18.98C5.77039 20.58 6.37038 21.3 6.75038 21.58C7.13038 21.86 7.99038 22.21 9.41038 21.37L11.6504 20.04C11.8204 19.94 12.2004 19.94 12.3704 20.04L14.6104 21.37ZM13.1304 18.75C12.8104 18.56 12.4104 18.47 12.0104 18.47C11.6104 18.47 11.2104 18.57 10.8704 18.76L8.63038 20.09C8.05038 20.44 7.70037 20.44 7.62037 20.38C7.54037 20.33 7.44037 20 7.59037 19.33L8.12037 17.02C8.28037 16.35 8.02038 15.46 7.53038 14.97L5.67039 13.11C5.30039 12.74 5.22039 12.45 5.26039 12.32C5.30039 12.19 5.5304 12.01 6.0504 11.92L8.44038 11.52C9.08038 11.41 9.7604 10.91 10.0504 10.33L11.3704 7.69C11.6004 7.23 11.8504 7.03 12.0004 7.03C12.1504 7.03 12.4004 7.24 12.6304 7.69L13.9504 10.33C14.2404 10.91 14.9204 11.41 15.5604 11.52L17.9504 11.92C18.4704 12 18.7004 12.19 18.7404 12.32C18.7804 12.45 18.7004 12.74 18.3304 13.11L16.4704 14.97C15.9804 15.46 15.7204 16.34 15.8804 17.02L16.4104 19.32C16.5604 19.98 16.4604 20.31 16.3804 20.37C16.3104 20.43 15.9604 20.43 15.3704 20.08L13.1304 18.75ZM18 9.75C17.59 9.75 17.25 9.41 17.25 9V2C17.25 1.59 17.59 1.25 18 1.25C18.41 1.25 18.75 1.59 18.75 2V9C18.75 9.41 18.41 9.75 18 9.75ZM11.25 4C11.25 4.41 11.59 4.75 12 4.75C12.41 4.75 12.75 4.41 12.75 4V2C12.75 1.59 12.41 1.25 12 1.25C11.59 1.25 11.25 1.59 11.25 2V4Z" fill="#292D32"/>
</svg>
