<svg viewBox="0 0 24 24" fill="none" xmlns="http://www.w3.org/2000/svg">
<path fill-rule="evenodd" clip-rule="evenodd" d="M12.8189 8.07997C13.1589 8.27997 13.4589 8.34999 13.6989 8.34999C14.0289 8.34999 14.2589 8.21999 14.3489 8.13999C14.5489 7.98999 14.9789 7.55998 14.7689 6.62998L14.5789 5.79997L15.2589 5.11997C15.6689 4.69997 15.8289 4.19997 15.6789 3.73997C15.5389 3.27997 15.1189 2.95996 14.5389 2.85996L13.6689 2.70997L13.1789 1.72999C12.6489 0.65999 11.3389 0.65999 10.7989 1.72999L10.3089 2.70997L9.43891 2.85996C8.85891 2.95996 8.44891 3.27997 8.29891 3.73997C8.14892 4.19997 8.29892 4.69997 8.71892 5.11997L9.39892 5.79997L9.20891 6.62998C8.99891 7.54998 9.42892 7.98998 9.62892 8.12998C9.82892 8.26998 10.3689 8.55999 11.1889 8.06999L11.9989 7.58998L12.8189 8.07997ZM12.6789 6.25999C12.4789 6.13999 12.2389 6.07997 11.9989 6.07997C11.7589 6.07997 11.5189 6.12998 11.3289 6.24998L10.7689 6.57997L10.8889 6.03999C10.9789 5.61999 10.8389 5.10997 10.5289 4.79997L10.0189 4.28999L10.6489 4.18998C11.0489 4.11998 11.4389 3.82998 11.6189 3.46998L11.9989 2.71998L12.3889 3.46998C12.5689 3.82998 12.9589 4.11998 13.3589 4.18998L13.9889 4.29997L13.4789 4.80998C13.1689 5.11998 13.0189 5.62997 13.1189 6.04997L13.2389 6.58998L12.6789 6.25999ZM8.67 22.75H15.3301H15.3302H22.0001C22.4101 22.75 22.7501 22.41 22.7501 22V19C22.7501 17.48 21.5201 16.25 20.0001 16.25H16.0802V12C16.0802 10.48 14.8502 9.25 13.3302 9.25H10.6602C9.14016 9.25 7.91016 10.48 7.91016 12V13.25H4C2.48 13.25 1.25 14.48 1.25 16V22C1.25 22.41 1.59 22.75 2 22.75H8.66016H8.67ZM9.42015 21.25H14.5801V17C14.5801 16.9587 14.5835 16.9181 14.5902 16.8785V12C14.5902 11.31 14.0302 10.75 13.3402 10.75H10.6702C9.98015 10.75 9.42015 11.31 9.42015 12V21.25ZM21.2501 21.25H16.0802V17.75H20.0001C20.6901 17.75 21.2501 18.31 21.2501 19V21.25ZM7.91016 14.75V21.25H2.75V16C2.75 15.31 3.31 14.75 4 14.75H7.91016Z" fill="#292D32"/>
</svg>
