<svg viewBox="0 0 24 24" fill="none" xmlns="http://www.w3.org/2000/svg">
<path fill-rule="evenodd" clip-rule="evenodd" d="M22 6.00008V8.42008C22 10.0001 21 11.0001 19.42 11.0001H16V4.01008C16 2.90008 16.91 1.99008 18.02 2.00008C19.11 2.01008 20.11 2.45008 20.83 3.17008C21.55 3.90008 22 4.90008 22 6.00008ZM12.0007 12.2603H9.0007C8.5907 12.2603 8.2507 12.6003 8.2507 13.0103C8.2507 13.4203 8.5907 13.7603 9.0007 13.7603H12.0007C12.4107 13.7603 12.7507 13.4203 12.7507 13.0103C12.7507 12.6003 12.4107 12.2603 12.0007 12.2603ZM12.0007 9.76025H9.0007C8.5907 9.76025 8.2507 9.42025 8.2507 9.01025C8.2507 8.60025 8.5907 8.26025 9.0007 8.26025H12.0007C12.4107 8.26025 12.7507 8.60025 12.7507 9.01025C12.7507 9.42025 12.4107 9.76025 12.0007 9.76025ZM5.9707 8.01025C5.4107 8.01025 4.9707 8.46025 4.9707 9.01025C4.9707 9.56025 5.4207 10.0103 5.9707 10.0103C6.5207 10.0103 6.9707 9.56025 6.9707 9.01025C6.9707 8.46025 6.5207 8.01025 5.9707 8.01025ZM4.9707 13.0103C4.9707 12.4603 5.4107 12.0103 5.9707 12.0103C6.5207 12.0103 6.9707 12.4603 6.9707 13.0103C6.9707 13.5603 6.5207 14.0103 5.9707 14.0103C5.4207 14.0103 4.9707 13.5603 4.9707 13.0103Z" fill="#292D32"/>
<path opacity="0.4" d="M2 7V21C2 21.83 2.94 22.3 3.6 21.8L5.31 20.52C5.71 20.22 6.27 20.26 6.63 20.62L8.29 22.29C8.68 22.68 9.32 22.68 9.71 22.29L11.39 20.61C11.74 20.26 12.3 20.22 12.69 20.52L14.4 21.8C15.06 22.29 16 21.82 16 21V4C16 2.9 16.9 2 18 2H7H6C3 2 2 3.79 2 6V7Z" fill="#292D32"/>
</svg>
