<svg viewBox="0 0 24 24" fill="none" xmlns="http://www.w3.org/2000/svg">
<path fill-rule="evenodd" clip-rule="evenodd" d="M6 2H7H18C16.9 2 16 2.9 16 4V4.01C16 2.9 16.9 2 18.01 2C19.11 2.01 20.1 2.45 20.83 3.17C21.55 3.9 22 4.9 22 6V8.42C22 10 21 11 19.42 11H16V21C16 21.82 15.06 22.29 14.4 21.8L12.69 20.52C12.3 20.22 11.74 20.26 11.39 20.61L9.71 22.29C9.32 22.68 8.68 22.68 8.29 22.29L6.63 20.62C6.27 20.26 5.71 20.22 5.31 20.52L3.6 21.8C2.94 22.3 2 21.83 2 21V7V6C2 3.79 3 2 6 2ZM6.75 13.75H11.25C11.66 13.75 12 13.41 12 13C12 12.59 11.66 12.25 11.25 12.25H6.75C6.34 12.25 6 12.59 6 13C6 13.41 6.34 13.75 6.75 13.75ZM6 9.75H12C12.41 9.75 12.75 9.41 12.75 9C12.75 8.59 12.41 8.25 12 8.25H6C5.59 8.25 5.25 8.59 5.25 9C5.25 9.41 5.59 9.75 6 9.75ZM19.76 4.22C19.3 3.77 18.67 3.5 18.01 3.5C17.73 3.5 17.5 3.73 17.5 4.01V9.5H19.42C20.17 9.5 20.5 9.16 20.5 8.42V6C20.5 5.34 20.24 4.71 19.76 4.22Z" fill="#292D32"/>
</svg>
