<svg viewBox="0 0 24 24" fill="none" xmlns="http://www.w3.org/2000/svg">
<path fill-rule="evenodd" clip-rule="evenodd" d="M6 2H7H18C16.9 2 16 2.9 16 4V4.01C16 2.9 16.9 2 18.01 2C19.11 2.01 20.1 2.45 20.83 3.17C21.55 3.9 22 4.9 22 6V8.42C22 10 21 11 19.42 11H16V21C16 21.82 15.06 22.29 14.4 21.8L12.69 20.52C12.3 20.22 11.74 20.26 11.39 20.61L9.71 22.29C9.32 22.68 8.68 22.68 8.29 22.29L6.63 20.62C6.27 20.26 5.71 20.22 5.31 20.52L3.6 21.8C2.94 22.3 2 21.83 2 21V7V6C2 3.79 3 2 6 2ZM7.57 9.03C7.57 8.48 7.12 8.03 6.57 8.03C6.02 8.03 5.57 8.48 5.57 9.03C5.57 9.58 6.02 10.03 6.57 10.03C7.12 10.03 7.57 9.58 7.57 9.03ZM10.43 13.08C10.43 13.63 10.87 14.08 11.43 14.08C11.98 14.08 12.43 13.63 12.43 13.08C12.43 12.53 11.98 12.08 11.43 12.08C10.88 12.08 10.43 12.53 10.43 13.08ZM6.8 14.26L12.26 8.8C12.55 8.51 12.55 8.03 12.26 7.74C11.97 7.45 11.49 7.45 11.2 7.74L5.74 13.2C5.45 13.49 5.45 13.97 5.74 14.26C5.89 14.41 6.08 14.48 6.27 14.48C6.46 14.48 6.65 14.41 6.8 14.26ZM19.76 4.22C19.3 3.77 18.67 3.5 18.01 3.5C17.73 3.5 17.5 3.73 17.5 4.01V9.5H19.42C20.17 9.5 20.5 9.16 20.5 8.42V6C20.5 5.34 20.24 4.71 19.76 4.22Z" fill="#292D32"/>
</svg>
