<svg viewBox="0 0 24 24" fill="none" xmlns="http://www.w3.org/2000/svg">
<path fill-rule="evenodd" clip-rule="evenodd" d="M9.94 21.64C10.46 22.35 11.21 22.75 12 22.75C12.79 22.75 13.54 22.35 14.05 21.65L15.06 20.3C15.27 20.02 15.56 19.86 15.86 19.84C16.16 19.82 16.47 19.95 16.71 20.21C18.16 21.75 19.26 21.63 19.79 21.42C20.33 21.2 21.24 20.51 21.24 18.3V7.04C21.24 2.6 19.96 1.25 15.77 1.25H8.22C4.03 1.25 2.75 2.6 2.75 7.04V18.3C2.75 20.52 3.66 21.21 4.2 21.42C4.73 21.63 5.83 21.75 7.28 20.21L6.73 19.7L7.3 20.2C7.54 19.95 7.84 19.81 8.14 19.83C8.44 19.85 8.72 20.01 8.93 20.29L9.94 21.64ZM8.21 18.33H8.08C7.38 18.33 6.7 18.63 6.18 19.18C5.42 19.99 4.93 20.09 4.75 20.02C4.51 19.93 4.25 19.35 4.25 18.3V7.04C4.25 3.43 4.88 2.75 8.22 2.75H15.78C19.12 2.75 19.75 3.43 19.75 7.04V18.3C19.75 19.34 19.49 19.92 19.25 20.02C19.07 20.09 18.58 19.99 17.82 19.18C17.28 18.6 16.55 18.29 15.8 18.33C15.05 18.37 14.35 18.76 13.88 19.39L12.87 20.74C12.38 21.39 11.63 21.39 11.14 20.74L10.12 19.39C9.65 18.76 8.95 18.37 8.21 18.33ZM14 13C14 13.55 14.44 14 15 14C15.56 14 16 13.55 16 13C16 12.45 15.55 12 15 12C14.45 12 14 12.45 14 13ZM9 9C8.44 9 8 8.55 8 8C8 7.45 8.45 7 9 7C9.55 7 10 7.45 10 8C10 8.55 9.56 9 9 9ZM8.10031 14.3298C8.25031 14.4798 8.44031 14.5498 8.63031 14.5498C8.83031 14.5498 9.02031 14.4798 9.16031 14.3298L15.8903 7.59977C16.1803 7.30977 16.1803 6.82977 15.8903 6.53977C15.6003 6.24977 15.1203 6.24977 14.8303 6.53977L8.10031 13.2698C7.81031 13.5598 7.81031 14.0398 8.10031 14.3298Z" fill="#292D32"/>
</svg>
