<svg viewBox="0 0 24 24" fill="none" xmlns="http://www.w3.org/2000/svg">
<path fill-rule="evenodd" clip-rule="evenodd" d="M22 8.42008V6.00008C22 4.90008 21.55 3.90008 20.83 3.17008C20.11 2.45008 19.11 2.01008 18.02 2.00008C16.91 1.99008 16 2.90008 16 4.01008V11.0001H19.42C21 11.0001 22 10.0001 22 8.42008ZM10.4309 13.08C10.4309 12.53 10.8809 12.08 11.4309 12.08C11.9809 12.08 12.4309 12.53 12.4309 13.08C12.4309 13.63 11.9809 14.08 11.4309 14.08C10.8809 14.08 10.4309 13.63 10.4309 13.08ZM6.57093 10.03C7.13093 10.03 7.57093 9.57996 7.57093 9.02996C7.57093 8.47996 7.12093 8.02996 6.57093 8.02996C6.02093 8.02996 5.57093 8.47996 5.57093 9.02996C5.57093 9.57996 6.02093 10.03 6.57093 10.03ZM11.2009 7.73996C11.4909 7.44996 11.9709 7.44996 12.2609 7.73996C12.5509 8.02996 12.5509 8.50996 12.2609 8.79996L6.80094 14.26C6.65094 14.41 6.46094 14.48 6.27094 14.48C6.08094 14.48 5.89094 14.41 5.74094 14.26C5.45094 13.97 5.45094 13.49 5.74094 13.2L11.2009 7.73996Z" fill="#292D32"/>
<path opacity="0.4" d="M2 7V21C2 21.83 2.94 22.3 3.6 21.8L5.31 20.52C5.71 20.22 6.27 20.26 6.63 20.62L8.29 22.29C8.68 22.68 9.32 22.68 9.71 22.29L11.39 20.61C11.74 20.26 12.3 20.22 12.69 20.52L14.4 21.8C15.06 22.29 16 21.82 16 21V4C16 2.9 16.9 2 18 2H7H6C3 2 2 3.79 2 6V7Z" fill="#292D32"/>
</svg>
