<svg viewBox="0 0 24 24" fill="none" xmlns="http://www.w3.org/2000/svg">
<path fill-rule="evenodd" clip-rule="evenodd" d="M10.5911 12.5901H13.0211L8.65109 8.21011C8.36109 7.92011 8.36109 7.44012 8.65109 7.15012C8.94109 6.86012 9.42111 6.86012 9.71111 7.15012L14.0911 11.5301V9.10011C14.0911 8.69011 14.4311 8.35011 14.8411 8.35011C15.2511 8.35011 15.5911 8.69011 15.5911 9.10011V13.3301C15.5911 13.4301 15.5711 13.5301 15.5311 13.6201C15.4511 13.8101 15.3011 13.9501 15.1211 14.0301C15.0211 14.0701 14.9311 14.0901 14.8311 14.0901H10.5911C10.1811 14.0901 9.8411 13.7501 9.8411 13.3401C9.8411 12.9301 10.1811 12.5901 10.5911 12.5901ZM17.7607 15.8102C18.1607 15.6802 18.5807 15.8902 18.7107 16.2802C18.8407 16.6702 18.6307 17.0902 18.2307 17.2302C16.2207 17.9002 14.1107 18.2402 11.9907 18.2402C9.87067 18.2402 7.76067 17.9002 5.75067 17.2302C5.36067 17.1002 5.15067 16.6702 5.28067 16.2802C5.41067 15.8902 5.84066 15.6802 6.23066 15.8102C9.95066 17.0502 14.0407 17.0502 17.7607 15.8102Z" fill="#292D32"/>
<path opacity="0.4" d="M16.1898 2H7.81978C4.17978 2 2.00977 4.17 2.00977 7.81V16.18C2.00977 19.82 4.17978 21.99 7.81978 21.99H16.1898C19.8298 21.99 21.9998 19.82 21.9998 16.18V7.81C21.9998 4.17 19.8298 2 16.1898 2Z" fill="#292D32"/>
</svg>
