<svg viewBox="0 0 24 24" fill="none" xmlns="http://www.w3.org/2000/svg">
<path fill-rule="evenodd" clip-rule="evenodd" d="M9 22.75H15C20.43 22.75 22.75 20.43 22.75 15V9C22.75 3.57 20.43 1.25 15 1.25H9C3.57 1.25 1.25 3.57 1.25 9V15C1.25 20.43 3.57 22.75 9 22.75ZM2.75 9C2.75 4.39 4.39 2.75 9 2.75H15C19.61 2.75 21.25 4.39 21.25 9V15C21.25 19.61 19.61 21.25 15 21.25H9C4.39 21.25 2.75 19.61 2.75 15V9ZM10.5898 14.0901H14.8223L14.8294 14.0901C14.9322 14.0901 15.0349 14.0696 15.1314 14.0271C15.394 13.9119 15.5798 13.6506 15.5798 13.3401V9.1001C15.5798 8.6901 15.2398 8.3501 14.8298 8.3501C14.4198 8.3501 14.0798 8.6901 14.0798 9.1001V11.5306L9.69937 7.15012C9.40937 6.86012 8.92937 6.86012 8.63937 7.15012C8.34937 7.44012 8.34937 7.92013 8.63937 8.21013L13.0193 12.5901H10.5898C10.1798 12.5901 9.83984 12.9301 9.83984 13.3401C9.83984 13.7501 10.1798 14.0901 10.5898 14.0901ZM5.76043 17.2202C7.77043 17.8902 9.89044 18.2302 12.0004 18.2302C14.1104 18.2302 16.2304 17.9002 18.2504 17.2202C18.6404 17.0902 18.8504 16.6602 18.7204 16.2702C18.5904 15.8802 18.1604 15.6702 17.7704 15.8002C14.0504 17.0402 9.96045 17.0402 6.24045 15.8002C5.85045 15.6602 5.42043 15.8802 5.29043 16.2702C5.16043 16.6602 5.37043 17.0902 5.76043 17.2202Z" fill="#292D32"/>
</svg>
