<svg viewBox="0 0 24 24" fill="none" xmlns="http://www.w3.org/2000/svg">
<path fill-rule="evenodd" clip-rule="evenodd" d="M22 8.42V6C22 4.9 21.55 3.9 20.83 3.17C20.11 2.45 19.11 2.01 18.02 2C16.91 2 16 2.9 16 4.01V11H19.42C21 11 22 10 22 8.42ZM6.25 10.75H11.75C12.16 10.75 12.5 10.41 12.5 10C12.5 9.59 12.16 9.25 11.75 9.25H6.25C5.84 9.25 5.5 9.59 5.5 10C5.5 10.41 5.84 10.75 6.25 10.75Z" fill="#292D32"/>
<path opacity="0.4" d="M2 7V21C2 21.83 2.94 22.3 3.6 21.8L5.31 20.52C5.71 20.22 6.27 20.26 6.63 20.62L8.29 22.29C8.68 22.68 9.32 22.68 9.71 22.29L11.39 20.61C11.74 20.26 12.3 20.22 12.69 20.52L14.4 21.8C15.06 22.29 16 21.82 16 21V4C16 2.9 16.9 2 18 2H7H6C3 2 2 3.79 2 6V7Z" fill="#292D32"/>
</svg>
