<svg viewBox="0 0 24 24" fill="none" xmlns="http://www.w3.org/2000/svg">
<path fill-rule="evenodd" clip-rule="evenodd" d="M1.25 15C1.25 20.43 3.57 22.75 9 22.75H15C20.43 22.75 22.75 20.43 22.75 15V9C22.75 3.57 20.43 1.25 15 1.25H9C3.57 1.25 1.25 3.57 1.25 9V15ZM2.75 9C2.75 4.39 4.39 2.75 9 2.75H15C19.61 2.75 21.25 4.39 21.25 9V15C21.25 19.61 19.61 21.25 15 21.25H9C4.39 21.25 2.75 19.61 2.75 15V9ZM10.54 17.8599C10.91 18.3499 11.44 18.6299 12 18.6299C12.56 18.6299 13.09 18.3499 13.47 17.8499L14.06 17.0599C14.13 16.9699 14.21 16.9099 14.3 16.9099C14.39 16.9099 14.48 16.9499 14.56 17.0299C15.54 18.0699 16.33 17.9699 16.71 17.8199C17.1 17.6699 17.76 17.1799 17.76 15.6999V9.06987C17.76 6.29987 16.87 5.35986 14.23 5.35986H9.78C7.14 5.35986 6.25 6.28987 6.25 9.06987V15.6999C6.25 17.1799 6.90999 17.6599 7.29999 17.8199C7.68999 17.9699 8.48001 18.0699 9.45001 17.0299C9.53001 16.9499 9.61001 16.9099 9.70001 16.9099C9.79001 16.9199 9.87 16.9699 9.94 17.0599L10.54 17.8599ZM9.78 15.4099H9.69C9.2 15.4099 8.72001 15.6299 8.35001 15.9899C8.34618 15.9937 8.34236 15.9961 8.33909 15.9981C8.33381 16.0013 8.32999 16.0037 8.32999 16.0099C8.139 16.2221 7.99305 16.3242 7.91337 16.38C7.88041 16.403 7.85879 16.4181 7.85001 16.4299C7.82001 16.3699 7.73001 16.1699 7.73001 15.7099V9.07986C7.73001 7.02986 8.04001 6.86986 9.76001 6.86986H14.21C15.93 6.86986 16.24 7.02986 16.24 9.07986V15.7099C16.24 16.0259 16.1975 16.2192 16.1742 16.3254C16.1635 16.3739 16.1569 16.4042 16.16 16.4199C16.09 16.3999 15.91 16.3199 15.63 16.0199C15.25 15.6099 14.72 15.3799 14.2 15.4199C13.67 15.4499 13.17 15.7199 12.84 16.1699L12.25 16.9599C12.09 17.1799 11.9 17.1799 11.73 16.9599L11.13 16.1599C10.8 15.7099 10.31 15.4399 9.78 15.4099Z" fill="#292D32"/>
</svg>
