<svg viewBox="0 0 24 24" fill="none" xmlns="http://www.w3.org/2000/svg">
<path fill-rule="evenodd" clip-rule="evenodd" d="M15.27 16.75H6.80941L19.5295 4.02994C19.8195 3.73994 19.8195 3.25994 19.5295 2.96994C19.2395 2.67994 18.7595 2.67994 18.4695 2.96994L5.75 15.6894V7.22998C5.75 6.81998 5.41 6.47998 5 6.47998C4.59 6.47998 4.25 6.81998 4.25 7.22998V17.5C4.25 17.597 4.26906 17.6902 4.30359 17.7758C4.33982 17.8688 4.3951 17.9556 4.46945 18.0299C4.61259 18.1731 4.79216 18.2434 4.97338 18.2495C4.98222 18.2498 4.99109 18.25 5 18.25H15.27C15.68 18.25 16.02 17.91 16.02 17.5C16.02 17.09 15.68 16.75 15.27 16.75ZM3.5 22.75H20.5C20.91 22.75 21.25 22.41 21.25 22C21.25 21.59 20.91 21.25 20.5 21.25H3.5C3.09 21.25 2.75 21.59 2.75 22C2.75 22.41 3.09 22.75 3.5 22.75Z" fill="#292D32"/>
</svg>
