<svg viewBox="0 0 24 24" fill="none" xmlns="http://www.w3.org/2000/svg">
<path d="M15.7839 2.00781H8.22391C4.44391 2.00781 3.50391 3.01781 3.50391 7.04781V18.3078C3.50391 20.9678 4.96391 21.5978 6.73391 19.6978L6.74391 19.6878C7.56391 18.8178 8.81391 18.8878 9.52391 19.8378L10.5339 21.1878C11.3439 22.2578 12.6539 22.2578 13.4639 21.1878L14.4739 19.8378C15.1939 18.8778 16.4439 18.8078 17.2639 19.6878C19.0439 21.5878 20.4939 20.9578 20.4939 18.2978V7.04781C20.5039 3.01781 19.5639 2.00781 15.7839 2.00781ZM15.0039 11.7578H9.00391C8.59391 11.7578 8.25391 11.4178 8.25391 11.0078C8.25391 10.5978 8.59391 10.2578 9.00391 10.2578H15.0039C15.4139 10.2578 15.7539 10.5978 15.7539 11.0078C15.7539 11.4178 15.4139 11.7578 15.0039 11.7578ZM16.0039 7.75781H8.00391C7.59391 7.75781 7.25391 7.41781 7.25391 7.00781C7.25391 6.59781 7.59391 6.25781 8.00391 6.25781H16.0039C16.4139 6.25781 16.7539 6.59781 16.7539 7.00781C16.7539 7.41781 16.4139 7.75781 16.0039 7.75781Z" fill="#292D32"/>
</svg>
