<svg viewBox="0 0 24 24" fill="none" xmlns="http://www.w3.org/2000/svg">
<path d="M20 3.67C20 3.66 20 3.65 19.98 3.64C19.76 3.36 19.47 3.21 19.13 3.21C18.6 3.21 17.96 3.56 17.27 4.3C16.45 5.18 15.19 5.11 14.47 4.15L13.46 2.81C13.06 2.27 12.53 2 12 2C11.47 2 10.94 2.27 10.54 2.81L9.52 4.16C8.81 5.11 7.56 5.18 6.74 4.31L6.73 4.3C5.6 3.09 4.59 2.91 4.02 3.64C4 3.65 4 3.66 4 3.67C3.64 4.44 3.5 5.52 3.5 7.04V16.96C3.5 18.48 3.64 19.56 4 20.33C4 20.34 4.01 20.36 4.02 20.37C4.6 21.09 5.6 20.91 6.73 19.7L6.74 19.69C7.56 18.82 8.81 18.89 9.52 19.84L10.54 21.19C10.94 21.73 11.47 22 12 22C12.53 22 13.06 21.73 13.46 21.19L14.47 19.85C15.19 18.89 16.45 18.82 17.27 19.7C17.96 20.44 18.6 20.79 19.13 20.79C19.47 20.79 19.76 20.65 19.98 20.37C19.99 20.36 20 20.34 20 20.33C20.36 19.56 20.5 18.48 20.5 16.96V7.04C20.5 5.52 20.36 4.44 20 3.67ZM14.5 14.5H8.5C8.09 14.5 7.75 14.16 7.75 13.75C7.75 13.34 8.09 13 8.5 13H14.5C14.91 13 15.25 13.34 15.25 13.75C15.25 14.16 14.91 14.5 14.5 14.5ZM16.5 11H8.5C8.09 11 7.75 10.66 7.75 10.25C7.75 9.84 8.09 9.5 8.5 9.5H16.5C16.91 9.5 17.25 9.84 17.25 10.25C17.25 10.66 16.91 11 16.5 11Z" fill="#292D32"/>
</svg>
