<svg viewBox="0 0 24 24" fill="none" xmlns="http://www.w3.org/2000/svg">
<path fill-rule="evenodd" clip-rule="evenodd" d="M15 22.75C20.43 22.75 22.75 20.43 22.75 15V9C22.75 3.57 20.43 1.25 15 1.25H9C3.57 1.25 1.25 3.57 1.25 9V15C1.25 20.43 3.57 22.75 9 22.75H15ZM2.75 9C2.75 4.39 4.39 2.75 9 2.75H15C19.61 2.75 21.25 4.39 21.25 9V15C21.25 19.61 19.61 21.25 15 21.25H9C4.39 21.25 2.75 19.61 2.75 15V9ZM11.4695 15.0399C11.6195 15.1899 11.8095 15.26 11.9995 15.26C12.114 15.26 12.2285 15.2345 12.3343 15.1815C12.4199 15.1389 12.4964 15.0804 12.5598 15.0096L15.5295 12.0399C15.8195 11.7499 15.8195 11.27 15.5295 10.98C15.2395 10.69 14.7595 10.69 14.4695 10.98L12.75 12.6994V6.50977C12.75 6.09977 12.41 5.75977 12 5.75977C11.59 5.75977 11.25 6.09977 11.25 6.50977V12.7005L9.52945 10.98C9.23945 10.69 8.75945 10.69 8.46945 10.98C8.17945 11.27 8.17945 11.7499 8.46945 12.0399L11.4695 15.0399ZM5.76043 17.2202C7.77043 17.8902 9.89043 18.2302 12.0004 18.2302C14.1104 18.2302 16.2304 17.9002 18.2504 17.2202C18.6404 17.0902 18.8504 16.6602 18.7204 16.2702C18.5904 15.8802 18.1604 15.6702 17.7704 15.8002C14.0504 17.0402 9.96043 17.0402 6.24043 15.8002C5.84043 15.6602 5.42043 15.8802 5.29043 16.2702C5.16043 16.6602 5.37043 17.0902 5.76043 17.2202Z" fill="#292D32"/>
</svg>
