<svg viewBox="0 0 24 24" fill="none" xmlns="http://www.w3.org/2000/svg">
<path fill-rule="evenodd" clip-rule="evenodd" d="M7.75977 22.81C8.08977 23.15 8.52976 23.33 8.99976 23.33C9.46976 23.33 9.90976 23.15 10.2498 22.82L11.9297 21.14C12.0097 21.06 12.1498 21.04 12.2498 21.12L13.9598 22.4C14.4898 22.8 15.1997 22.87 15.7897 22.57C16.3897 22.27 16.7598 21.67 16.7598 21V11.75H19.42C21.41 11.75 22.75 10.41 22.74 8.42V6C22.74 4.75 22.25 3.55 21.35 2.64C20.45 1.75 19.27 1.26 18.02 1.25H18.01H6.00977C2.98977 1.25 1.25977 2.98 1.25977 6V21C1.25977 21.67 1.62974 22.27 2.22974 22.57C2.82974 22.87 3.52975 22.8 4.05975 22.4L5.76978 21.12C5.86978 21.04 6.00973 21.05 6.09973 21.14L7.75977 22.81ZM17.5632 2.83231C17.7053 2.77811 17.8566 2.75 18.01 2.75H18.02C18.88 2.76 19.69 3.1 20.3 3.7C20.91 4.32 21.25 5.14 21.25 6V8.42C21.25 9.58 20.58 10.25 19.42 10.25H16.7598V4C16.7598 3.46739 17.0936 3.01223 17.5632 2.83231ZM7.15973 20.09C6.81973 19.74 6.36973 19.57 5.90973 19.57C5.53973 19.57 5.16974 19.69 4.85974 19.92L3.14978 21.2C3.04978 21.28 2.94977 21.26 2.88977 21.23C2.83977 21.2 2.74976 21.14 2.74976 21V6C2.74976 3.78 3.77976 2.75 5.99976 2.75H15.5497C15.3597 3.12 15.2498 3.55 15.2498 4V21C15.2498 21.13 15.1597 21.19 15.1097 21.22C15.0597 21.25 14.9597 21.28 14.8497 21.2L13.1498 19.93C12.4598 19.4 11.4797 19.46 10.8597 20.08L9.17975 21.76C9.11975 21.82 9.03976 21.83 8.99976 21.83C8.95976 21.83 8.87976 21.82 8.81976 21.76L7.15973 20.09ZM12 9.75H6C5.59 9.75 5.25 9.41 5.25 9C5.25 8.59 5.59 8.25 6 8.25H12C12.41 8.25 12.75 8.59 12.75 9C12.75 9.41 12.41 9.75 12 9.75ZM6.75 13.75H11.25C11.66 13.75 12 13.41 12 13C12 12.59 11.66 12.25 11.25 12.25H6.75C6.34 12.25 6 12.59 6 13C6 13.41 6.34 13.75 6.75 13.75Z" fill="#292D32"/>
</svg>
