<svg viewBox="0 0 24 24" fill="none" xmlns="http://www.w3.org/2000/svg">
<path fill-rule="evenodd" clip-rule="evenodd" d="M17.0398 11.3399C17.1898 11.4899 17.3798 11.5599 17.5698 11.5599C17.7598 11.5599 17.9498 11.4899 18.0998 11.3399L20.6598 8.77988C20.9498 8.48988 20.9498 8.00988 20.6598 7.71988L18.0998 5.15988C17.8098 4.86988 17.3298 4.86988 17.0398 5.15988C16.7498 5.44988 16.7498 5.92988 17.0398 6.21988L18.3799 7.56006H8.86914C5.69914 7.56006 3.11914 10.1401 3.11914 13.3101C3.11914 16.4801 5.69914 19.0601 8.86914 19.0601H16.8691C17.2891 19.0601 17.6191 18.7201 17.6191 18.3101C17.6191 17.9001 17.2791 17.5601 16.8691 17.5601H8.86914C6.52914 17.5601 4.61914 15.6501 4.61914 13.3101C4.61914 10.9701 6.52914 9.06006 8.86914 9.06006H18.2596L17.0398 10.2799C16.7498 10.5699 16.7498 11.0499 17.0398 11.3399Z" fill="#292D32"/>
</svg>
