<svg viewBox="0 0 24 24" fill="none" xmlns="http://www.w3.org/2000/svg">
<path fill-rule="evenodd" clip-rule="evenodd" d="M8.07943 11.4401C8.02943 11.8101 7.70944 12.0801 7.33944 12.0801C7.30944 12.0801 7.26944 12.0801 7.24944 12.0701C6.83944 12.0101 6.54943 11.63 6.60943 11.22C6.77943 10.02 7.30946 8.95006 8.13946 8.12006C10.1295 6.13006 13.2794 6.02007 15.4294 7.76007V6.82007C15.4294 6.41007 15.7694 6.07007 16.1794 6.07007C16.5894 6.07007 16.9294 6.41007 16.9294 6.82007V9.49005C16.9294 9.90005 16.5894 10.2401 16.1794 10.2401H13.5095C13.0995 10.2401 12.7595 9.90005 12.7595 9.49005C12.7595 9.08005 13.0995 8.74005 13.5095 8.74005H14.2595C12.7095 7.67005 10.5694 7.81006 9.18944 9.19006C8.58944 9.79006 8.19943 10.5701 8.07943 11.4401ZM15.9086 12.5701C15.9686 12.1601 16.3386 11.8601 16.7586 11.9301C17.1686 11.9801 17.4586 12.3601 17.3886 12.7901C17.2186 13.9901 16.6886 15.0601 15.8586 15.8901C14.7886 16.9601 13.3886 17.4901 11.9886 17.4901C10.7686 17.4901 9.55859 17.0601 8.55859 16.2501V17.1901C8.55859 17.6001 8.21859 17.9401 7.80859 17.9401C7.39859 17.9401 7.05859 17.6001 7.05859 17.1901V14.5201C7.05859 14.1101 7.39859 13.7701 7.80859 13.7701H10.4786C10.8886 13.7701 11.2286 14.1101 11.2286 14.5201C11.2286 14.9301 10.8886 15.2701 10.4786 15.2701H9.72861C11.2786 16.3401 13.4186 16.2001 14.7986 14.8201C15.3986 14.2201 15.7886 13.4401 15.9086 12.5701Z" fill="#292D32"/>
<path opacity="0.4" d="M12 22C17.5228 22 22 17.5228 22 12C22 6.47715 17.5228 2 12 2C6.47715 2 2 6.47715 2 12C2 17.5228 6.47715 22 12 22Z" fill="#292D32"/>
</svg>
