<svg viewBox="0 0 24 24" fill="none" xmlns="http://www.w3.org/2000/svg">
<path fill-rule="evenodd" clip-rule="evenodd" d="M12 22.75C6.07 22.75 1.25 17.93 1.25 12C1.25 6.07 6.07 1.25 12 1.25C17.93 1.25 22.75 6.07 22.75 12C22.75 17.93 17.93 22.75 12 22.75ZM12 2.75C6.9 2.75 2.75 6.9 2.75 12C2.75 17.1 6.9 21.25 12 21.25C17.1 21.25 21.25 17.1 21.25 12C21.25 6.9 17.1 2.75 12 2.75ZM11.9995 17.4701C10.7845 17.4701 9.56958 17.0709 8.57031 16.2661V17.18C8.57031 17.59 8.24031 17.93 7.82031 17.93C7.41031 17.93 7.07031 17.59 7.07031 17.18V14.51C7.07031 14.1 7.41031 13.76 7.82031 13.76H10.4903C10.9003 13.76 11.2403 14.1 11.2403 14.51C11.2403 14.92 10.9003 15.26 10.4903 15.26H9.71168C11.2618 16.3528 13.4234 16.2061 14.8094 14.8201C15.4094 14.2201 15.7895 13.4401 15.9195 12.5701C15.9795 12.1601 16.3594 11.8601 16.7694 11.9301C17.1794 11.9901 17.4595 12.3701 17.4095 12.7801C17.2395 13.9701 16.7095 15.0401 15.8795 15.8801C14.7995 16.9401 13.3995 17.4701 11.9995 17.4701ZM7.22991 12.07C7.26991 12.08 7.2999 12.08 7.3399 12.08C7.7099 12.08 8.02991 11.81 8.06991 11.43C8.19991 10.56 8.57989 9.77996 9.17989 9.17996C10.5659 7.79394 12.7275 7.64731 14.2777 8.74005H13.5098C13.0998 8.74005 12.7598 9.08005 12.7598 9.49005C12.7598 9.90005 13.0998 10.2401 13.5098 10.2401H16.1797C16.5897 10.2401 16.9297 9.91005 16.9297 9.49005V6.82007C16.9297 6.41007 16.5897 6.07007 16.1797 6.07007C15.7697 6.07007 15.4297 6.41007 15.4297 6.82007V7.73426C13.2777 5.99883 10.1125 6.1274 8.11989 8.11996C7.2899 8.95996 6.7599 10.0299 6.5899 11.2199C6.5299 11.6299 6.81991 12.01 7.22991 12.07Z" fill="#292D32"/>
</svg>
