<svg viewBox="0 0 24 24" fill="none" xmlns="http://www.w3.org/2000/svg">
<path fill-rule="evenodd" clip-rule="evenodd" d="M6.75022 11.91C6.74022 12.32 6.41022 12.65 6.00022 12.65H5.99021C5.57021 12.64 5.24022 12.3 5.25022 11.89C5.27022 10.13 5.97022 8.47 7.22022 7.23C8.49022 5.95 10.1902 5.25 11.9902 5.25C13.7902 5.25 15.4902 5.96 16.7602 7.23L16.7603 7.23005C16.7903 7.27003 16.8202 7.31001 16.8502 7.34V6.48C16.8502 6.07 17.1902 5.73 17.6002 5.73C18.0102 5.73 18.3502 6.07 18.3502 6.48V9.12C18.3502 9.53 18.0102 9.87 17.6002 9.87H14.9502C14.5402 9.87 14.2002 9.53 14.2002 9.12C14.2002 8.71 14.5402 8.37 14.9502 8.37H15.7802C15.7652 8.355 15.7527 8.34 15.7402 8.325C15.7277 8.31 15.7152 8.295 15.7002 8.28C14.7102 7.29 13.3902 6.74 11.9902 6.74C10.5902 6.74 9.27022 7.29 8.28022 8.28C7.32022 9.25 6.77022 10.54 6.75022 11.91ZM17.2504 12.02C17.2504 11.6 17.5804 11.27 18.0004 11.27C18.4104 11.28 18.7504 11.61 18.7504 12.03C18.7404 13.83 18.0404 15.52 16.7804 16.78C15.5104 18.06 13.8104 18.76 12.0104 18.76C10.2104 18.76 8.51039 18.05 7.24039 16.78L7.24034 16.78C7.21036 16.74 7.18038 16.7 7.15039 16.67V17.52C7.15039 17.93 6.81039 18.27 6.40039 18.27C5.99039 18.27 5.65039 17.93 5.65039 17.52V14.87C5.65039 14.46 5.99039 14.12 6.40039 14.12H9.05038C9.46038 14.12 9.80038 14.46 9.80038 14.87C9.80038 15.28 9.46038 15.62 9.05038 15.62H8.2204C8.2354 15.635 8.24789 15.65 8.26039 15.665C8.27289 15.68 8.28538 15.695 8.30038 15.71C9.29038 16.7 10.6104 17.25 12.0104 17.25C13.4104 17.25 14.7304 16.7 15.7204 15.71C16.7004 14.73 17.2404 13.42 17.2504 12.02Z" fill="#292D32"/>
<path opacity="0.4" d="M16.19 2H7.82001C4.17001 2 2 4.17 2 7.81V16.18C2 19.82 4.17 21.99 7.81 21.99H16.18C19.82 21.99 21.99 19.82 21.99 16.18V7.81C22 4.17 19.83 2 16.19 2Z" fill="#292D32"/>
</svg>
