<svg viewBox="0 0 24 24" fill="none" xmlns="http://www.w3.org/2000/svg">
<path fill-rule="evenodd" clip-rule="evenodd" d="M1.25 15C1.25 20.43 3.57 22.75 9 22.75H15C20.43 22.75 22.75 20.43 22.75 15V9C22.75 3.57 20.43 1.25 15 1.25H9C3.57 1.25 1.25 3.57 1.25 9V15ZM2.75 9C2.75 4.39 4.39 2.75 9 2.75H15C19.61 2.75 21.25 4.39 21.25 9V15C21.25 19.61 19.61 21.25 15 21.25H9C4.39 21.25 2.75 19.61 2.75 15V9ZM9.12912 8.21987L9.13882 8.22803C9.15201 8.23911 9.16566 8.24979 9.17976 8.26004L11.1198 9.68004C11.2498 9.77004 11.4098 9.82004 11.5598 9.82004C11.7898 9.82004 12.0198 9.71004 12.1698 9.52004C12.4198 9.18004 12.3398 8.71004 12.0098 8.47004L11.4261 8.04279C11.618 8.02093 11.8124 8.01 12.01 8.01C14.35 8.01 16.26 9.92 16.26 12.26C16.26 14.6 14.35 16.51 12.01 16.51C9.66999 16.51 7.75999 14.6 7.75999 12.26C7.75999 11.42 8 10.6 8.47 9.9C8.7 9.56 8.59999 9.09 8.25999 8.86C7.91999 8.63 7.45 8.73 7.22 9.07C6.58 10.01 6.25 11.12 6.25 12.26C6.25 15.43 8.83 18.01 12 18.01C15.17 18.01 17.76 15.42 17.76 12.25C17.76 9.08 15.18 6.5 12.01 6.5C11.8799 6.5 11.7506 6.5036 11.6221 6.51089L11.8591 6.23986C12.1291 5.92986 12.0991 5.44987 11.7891 5.17987C11.4791 4.89987 10.9991 4.93987 10.7291 5.24987L9.05911 7.15987C9.02128 7.20331 8.98933 7.25009 8.96323 7.29916C8.80756 7.58673 8.85874 7.93795 9.07581 8.16852C9.09255 8.18635 9.11032 8.20349 9.12912 8.21987Z" fill="#292D32"/>
</svg>
