<svg viewBox="0 0 24 24" fill="none" xmlns="http://www.w3.org/2000/svg">
<path fill-rule="evenodd" clip-rule="evenodd" d="M13.82 21.86C13.91 22.2 14.22 22.42 14.55 22.42C14.61 22.42 14.68 22.41 14.74 22.4C19.46 21.16 22.75 16.88 22.75 12C22.75 6.07 17.93 1.25 12 1.25C7.45 1.25 4.38 3.64 2.75 5.39V3C2.75 2.59 2.41 2.25 2 2.25C1.59 2.25 1.25 2.59 1.25 3V7.54V7.62C1.26 7.73 1.3 7.84 1.35 7.93C1.4 8.02 1.47 8.1 1.56 8.16C1.63 8.21 1.71 8.25 1.8 8.28C1.87 8.3 1.96 8.31 2.01 8.31H6.44C6.86 8.31 7.19 7.96 7.19 7.55C7.19 7.14 6.85 6.8 6.44 6.8H3.5C4.83 5.27 7.67 2.74 12 2.74C17.1 2.74 21.25 6.89 21.25 11.99C21.25 16.19 18.42 19.87 14.36 20.94C13.95 21.05 13.71 21.46 13.82 21.86ZM11.2569 22.7237C11.2666 22.7266 11.2783 22.73 11.29 22.73C11.68 22.73 12.01 22.42 12.03 22.03L12.04 21.99C12.04 21.59 11.73 21.25 11.34 21.23C10.42 21.16 9.51 20.96 8.64 20.62C8.27 20.48 7.82 20.67 7.67 21.05C7.64 21.13 7.62 21.22 7.62 21.31C7.61 21.62 7.81 21.91 8.1 22.02C9.1 22.41 10.16 22.65 11.24 22.72C11.2441 22.72 11.25 22.7217 11.2569 22.7237ZM5.31 20.42C5.45 20.52 5.61 20.58 5.78 20.58C6.01 20.58 6.22 20.48 6.37 20.3C6.48 20.16 6.53 19.99 6.53 19.82C6.53 19.59 6.42 19.38 6.25 19.24C5.54 18.68 4.91 18.01 4.39 17.26C4.385 17.255 4.38 17.2475 4.375 17.24C4.37 17.2325 4.365 17.225 4.36 17.22V17.21C4.13 16.89 3.65 16.8 3.32 17.03C3.11 17.17 2.99 17.4 2.99 17.65C2.99 17.8 3.04 17.94 3.13 18.07C3.73 18.95 4.47 19.74 5.31 20.42ZM1.73 15.18C1.82 15.49 2.11 15.7 2.44 15.7C2.52 15.7 2.59 15.69 2.66 15.67C2.98 15.57 3.19 15.28 3.19 14.96C3.19 14.88 3.18 14.81 3.16 14.73C2.89 13.86 2.75 12.94 2.75 12C2.75 11.59 2.41 11.25 2 11.25C1.59 11.25 1.26 11.58 1.25 11.99V12C1.25 13.08 1.41 14.15 1.73 15.18Z" fill="#292D32"/>
</svg>
