<svg viewBox="0 0 24 24" fill="none" xmlns="http://www.w3.org/2000/svg">
<path fill-rule="evenodd" clip-rule="evenodd" d="M1.25 15C1.25 20.43 3.57 22.75 9 22.75H15C20.43 22.75 22.75 20.43 22.75 15V9C22.75 3.57 20.43 1.25 15 1.25H9C3.57 1.25 1.25 3.57 1.25 9V15ZM2.75 9C2.75 4.39 4.39 2.75 9 2.75H15C19.61 2.75 21.25 4.39 21.25 9V15C21.25 19.61 19.61 21.25 15 21.25H9C4.39 21.25 2.75 19.61 2.75 15V9ZM6.25 12.2598C6.25 15.4298 8.83 18.0098 12 18.0098C15.17 18.0098 17.75 15.4398 17.76 12.2698C17.76 11.1298 17.42 10.0298 16.79 9.07977C16.56 8.72976 16.09 8.63977 15.75 8.86977C15.4 9.09977 15.31 9.56977 15.54 9.90977C16 10.6098 16.25 11.4198 16.25 12.2698C16.25 14.6098 14.34 16.5198 12 16.5198C9.66 16.5198 7.75 14.6098 7.75 12.2698C7.75 9.92976 9.66 8.01976 12 8.01976C12.1856 8.01976 12.3698 8.02941 12.5516 8.0487L11.9899 8.45986C11.6599 8.70986 11.5899 9.17986 11.8299 9.50986C11.9799 9.70986 12.2099 9.81986 12.4399 9.81986C12.5899 9.81986 12.7499 9.76986 12.8799 9.66986L14.7496 8.30134C14.7921 8.27601 14.8327 8.24561 14.8711 8.20996C15.1811 7.93996 15.2111 7.45996 14.9411 7.14996L13.2711 5.23995C13.0011 4.92995 12.5212 4.89995 12.2112 5.16995C11.9011 5.43995 11.8711 5.91996 12.1411 6.22996L12.3959 6.52135C12.2641 6.5136 12.1321 6.50977 12 6.50977C8.83 6.50977 6.25 9.08977 6.25 12.2598Z" fill="#292D32"/>
</svg>
