<svg viewBox="0 0 24 24" fill="none" xmlns="http://www.w3.org/2000/svg">
<path fill-rule="evenodd" clip-rule="evenodd" d="M1.25 15C1.25 20.43 3.57 22.75 9 22.75H15C20.43 22.75 22.75 20.43 22.75 15V9C22.75 3.57 20.43 1.25 15 1.25H9C3.57 1.25 1.25 3.57 1.25 9V15ZM2.75 9C2.75 4.39 4.39 2.75 9 2.75H15C19.61 2.75 21.25 4.39 21.25 9V15C21.25 19.61 19.61 21.25 15 21.25H9C4.39 21.25 2.75 19.61 2.75 15V9ZM7.25 12C7.25 9.37243 9.35599 7.25 12 7.25C13.6122 7.25 14.823 7.91891 15.6456 8.60571C15.7274 8.67403 15.8051 8.74235 15.8788 8.81H15.06C14.6458 8.81 14.31 9.14578 14.31 9.56C14.31 9.97421 14.6458 10.31 15.06 10.31H17.5C17.9142 10.31 18.25 9.97421 18.25 9.56V6.81C18.25 6.39578 17.9142 6.06 17.5 6.06C17.0858 6.06 16.75 6.39578 16.75 6.81V7.57661C16.7035 7.5359 16.6558 7.49509 16.6069 7.45428C15.597 6.61109 14.0578 5.75 12 5.75C8.52401 5.75 5.75 8.54757 5.75 12C5.75 12.4142 6.08579 12.75 6.5 12.75C6.91421 12.75 7.25 12.4142 7.25 12ZM18.25 12C18.25 11.5858 17.9142 11.25 17.5 11.25C17.0858 11.25 16.75 11.5858 16.75 12C16.75 14.6258 14.6258 16.75 12 16.75C10.7405 16.75 9.69058 16.1152 8.91917 15.4147C8.83642 15.3396 8.75765 15.2644 8.68297 15.19H9.59C10.0042 15.19 10.34 14.8542 10.34 14.44C10.34 14.0258 10.0042 13.69 9.59 13.69H7.10999C6.69577 13.69 6.35999 14.0258 6.35999 14.44V17.19C6.35999 17.6042 6.69577 17.94 7.10999 17.94C7.5242 17.94 7.85999 17.6042 7.85999 17.19V16.4787L7.91082 16.5253C8.82441 17.3548 10.2195 18.25 12 18.25C15.4542 18.25 18.25 15.4542 18.25 12Z" fill="#292D32"/>
</svg>
