<svg viewBox="0 0 24 24" fill="none" xmlns="http://www.w3.org/2000/svg">
<path fill-rule="evenodd" clip-rule="evenodd" d="M6.21008 8.84995C6.36008 8.99995 6.55008 9.06998 6.74008 9.06998C6.93008 9.06998 7.12008 8.98995 7.27008 8.84995C7.56008 8.55995 7.56008 8.07995 7.27008 7.78995L5.38006 5.8999H17.4201C18.6601 5.8999 19.6701 6.9099 19.6701 8.1499V11.4698C19.6701 11.8798 20.0101 12.2198 20.4201 12.2198C20.8301 12.2198 21.1701 11.8898 21.1701 11.4698V8.1499C21.1701 6.0799 19.4901 4.3999 17.4201 4.3999H5.40016L7.27008 2.53C7.56008 2.24 7.56008 1.75994 7.27008 1.46994C6.98008 1.17994 6.50008 1.17994 6.21008 1.46994L3.11913 4.56092C2.94385 4.69898 2.83008 4.91273 2.83008 5.1499L2.8301 5.15491L2.83008 5.15994C2.83008 5.35994 2.91008 5.54997 3.05008 5.68997L6.21008 8.84995ZM18.6093 19.59H6.58008C4.51008 19.59 2.83008 17.91 2.83008 15.84V12.52C2.83008 12.11 3.17008 11.77 3.58008 11.77C3.99008 11.77 4.33008 12.11 4.33008 12.52V15.84C4.33008 17.08 5.34008 18.09 6.58008 18.09H18.6091L16.7292 16.2101C16.4392 15.9201 16.4392 15.4401 16.7292 15.1501C17.0192 14.8601 17.4992 14.8601 17.7892 15.1501L20.9492 18.3101C21.0189 18.3797 21.0737 18.4618 21.1112 18.5512C21.1491 18.6404 21.1701 18.738 21.1701 18.84C21.1701 18.9386 21.1505 19.033 21.1149 19.1197C21.0774 19.2128 21.0213 19.2981 20.9492 19.3701L17.7892 22.5301C17.6492 22.6801 17.4592 22.7501 17.2592 22.7501C17.0692 22.7501 16.8792 22.6801 16.7292 22.5301C16.4392 22.2401 16.4392 21.7601 16.7292 21.4701L18.6093 19.59Z" fill="#292D32"/>
</svg>
