<svg viewBox="0 0 24 24" fill="none" xmlns="http://www.w3.org/2000/svg">
<path fill-rule="evenodd" clip-rule="evenodd" d="M5.38812 4.41141H17.4181C19.4881 4.41141 21.1681 6.09141 21.1681 8.16141V11.4814C21.1681 11.8914 20.8281 12.2314 20.4181 12.2314C20.0081 12.2314 19.6681 11.8914 19.6681 11.4814V8.16141C19.6681 6.92141 18.6581 5.91141 17.4181 5.91141H5.38812L7.26813 7.79141C7.55813 8.08141 7.55813 8.56141 7.26813 8.85141C7.11812 9.00141 6.92812 9.07141 6.73812 9.07141C6.54812 9.07141 6.35813 9.00141 6.20813 8.85141L3.04813 5.69141C2.97813 5.62141 2.92813 5.54141 2.88813 5.45141C2.84813 5.36141 2.82812 5.26141 2.82812 5.16141C2.82812 5.06141 2.84813 4.96141 2.88813 4.87141C2.92813 4.78141 2.97813 4.70141 3.04813 4.63141L6.20813 1.47141C6.49813 1.18141 6.97813 1.18141 7.26813 1.47141C7.55813 1.76141 7.55813 2.24141 7.26813 2.53141L5.38812 4.41141ZM21.1081 18.5495C21.1481 18.6395 21.1681 18.7395 21.1681 18.8395C21.1681 18.9395 21.1481 19.0395 21.1081 19.1295C21.0681 19.2195 21.0181 19.2995 20.9481 19.3695L17.7881 22.5295C17.6381 22.6795 17.4481 22.7495 17.2581 22.7495C17.0681 22.7495 16.8781 22.6795 16.7281 22.5295C16.4381 22.2395 16.4381 21.7595 16.7281 21.4695L18.6081 19.5895H6.57812C4.50813 19.5895 2.82812 17.9095 2.82812 15.8395V12.5195C2.82812 12.1095 3.16812 11.7695 3.57812 11.7695C3.98812 11.7695 4.32812 12.1095 4.32812 12.5195V15.8395C4.32812 17.0795 5.33813 18.0895 6.57812 18.0895H18.6081L16.7281 16.2095C16.4381 15.9195 16.4381 15.4395 16.7281 15.1495C17.0181 14.8595 17.4981 14.8595 17.7881 15.1495L20.9481 18.3095C21.0181 18.3795 21.0681 18.4595 21.1081 18.5495Z" fill="#292D32"/>
</svg>
