<svg viewBox="0 0 24 24" fill="none" xmlns="http://www.w3.org/2000/svg">
<path fill-rule="evenodd" clip-rule="evenodd" d="M9.31 7.58988H14.9C16.19 7.58988 17.25 8.64984 17.25 9.92984V11.6999C17.25 12.1099 16.91 12.4499 16.5 12.4499C16.09 12.4499 15.75 12.1099 15.75 11.6999V9.92984C15.75 9.45984 15.37 9.07987 14.9 9.07987H9.31L9.72 9.48984C10.01 9.77984 10.01 10.2598 9.72 10.5498C9.57 10.6998 9.38 10.7699 9.19 10.7699C9 10.7699 8.81001 10.6998 8.66001 10.5498L6.97 8.85983C6.9 8.78983 6.85 8.70984 6.81 8.61984C6.73 8.43984 6.73 8.22984 6.81 8.04984C6.85 7.95984 6.9 7.87985 6.97 7.80985L8.66001 6.11984C8.95001 5.82984 9.43 5.82984 9.72 6.11984C10.01 6.40984 10.01 6.88984 9.72 7.17984L9.31 7.58988ZM17.03 15.1298C17.1 15.1998 17.15 15.2798 17.19 15.3698C17.27 15.5498 17.27 15.7598 17.19 15.9498C17.15 16.0398 17.1 16.1198 17.03 16.1898L15.34 17.8798C15.19 18.0298 15 18.0998 14.81 18.0998C14.62 18.0998 14.43 18.0298 14.28 17.8798C13.99 17.5898 13.99 17.1098 14.28 16.8198L14.69 16.4098H9.10001C7.81001 16.4098 6.75 15.3598 6.75 14.0598V12.2898C6.75 11.8798 7.09 11.5398 7.5 11.5398C7.91 11.5398 8.25 11.8798 8.25 12.2898V14.0598C8.25 14.5298 8.63001 14.9098 9.10001 14.9098H14.69L14.28 14.4998C13.99 14.2098 13.99 13.7298 14.28 13.4398C14.57 13.1498 15.05 13.1498 15.34 13.4398L17.03 15.1298Z" fill="#292D32"/>
<path opacity="0.4" d="M12 22C17.5228 22 22 17.5228 22 12C22 6.47715 17.5228 2 12 2C6.47715 2 2 6.47715 2 12C2 17.5228 6.47715 22 12 22Z" fill="#292D32"/>
</svg>
