<svg viewBox="0 0 24 24" fill="none" xmlns="http://www.w3.org/2000/svg">
<path fill-rule="evenodd" clip-rule="evenodd" d="M16.7342 4.87552C16.7206 4.85657 16.706 4.8381 16.6904 4.82021L13.8004 1.50021C13.5304 1.19021 13.0504 1.16021 12.7404 1.43021C12.4304 1.70021 12.4004 2.18021 12.6704 2.49021L14.0695 4.09739C13.3945 3.96478 12.7038 3.8999 12.0001 3.8999C6.80008 3.8999 2.58008 8.1399 2.58008 13.3299C2.58008 18.5199 6.80008 22.7499 12.0001 22.7499C17.2001 22.7499 21.4201 18.5199 21.4301 13.3299C21.4301 11.4499 20.8801 9.6399 19.8401 8.0899C19.6101 7.7399 19.1401 7.6499 18.8001 7.8799C18.4501 8.1099 18.3601 8.5799 18.5901 8.9199C19.4601 10.2199 19.9201 11.7399 19.9201 13.3199C19.9201 17.6899 16.3701 21.2399 12.0001 21.2399C7.63008 21.2399 4.08008 17.6899 4.08008 13.3199C4.08008 8.9499 7.63008 5.3999 12.0001 5.3999C12.7957 5.3999 13.5764 5.50462 14.3228 5.7011L12.3102 7.1702C11.9802 7.4202 11.9102 7.8902 12.1502 8.2202C12.3002 8.4202 12.5302 8.5302 12.7602 8.5302C12.9202 8.5302 13.0702 8.4902 13.2002 8.3902L16.4881 5.98042C16.5359 5.95342 16.5805 5.92011 16.6204 5.88021C16.739 5.77698 16.8166 5.64305 16.8521 5.49966C16.907 5.2905 16.8723 5.06132 16.7342 4.87552Z" fill="#292D32"/>
</svg>
