<svg viewBox="0 0 24 24" fill="none" xmlns="http://www.w3.org/2000/svg">
<path fill-rule="evenodd" clip-rule="evenodd" d="M9 22.75H15C20.43 22.75 22.75 20.43 22.75 15V9C22.75 3.57 20.43 1.25 15 1.25H9C3.57 1.25 1.25 3.57 1.25 9V15C1.25 20.43 3.57 22.75 9 22.75ZM2.75 9C2.75 4.39 4.39 2.75 9 2.75H15C19.61 2.75 21.25 4.39 21.25 9V15C21.25 19.61 19.61 21.25 15 21.25H9C4.39 21.25 2.75 19.61 2.75 15V9ZM10.6507 16.8699C11.0207 17.9799 12.0107 18.6999 13.1807 18.6999C13.1907 18.6999 13.2007 18.6999 13.2107 18.7099C14.4007 18.6899 15.3907 17.9499 15.7407 16.8199L18.0807 9.27993C18.3707 8.32993 18.1207 7.30994 17.4207 6.59994C16.7207 5.88994 15.6907 5.63992 14.7407 5.92992L7.21072 8.26994C6.08072 8.61994 5.34072 9.60992 5.32072 10.7899C5.30072 11.9699 6.02072 12.9799 7.14072 13.3599L9.22072 14.0599C9.56072 14.1699 9.84072 14.4399 9.95072 14.7999L10.6507 16.8699ZM15.1707 7.34994C15.2907 7.31994 15.4007 7.29993 15.5207 7.29993C15.8307 7.29993 16.1207 7.41993 16.3507 7.65993C16.6607 7.96993 16.7707 8.40993 16.6407 8.82993L14.3007 16.3699C14.1107 16.9799 13.6007 17.1999 13.1907 17.1999C12.7307 17.1799 12.2607 16.9899 12.0607 16.3899L11.3707 14.3299C11.1107 13.5199 10.4807 12.8899 9.68072 12.6299L7.60072 11.9399C7.00072 11.7399 6.79072 11.2199 6.80072 10.8099C6.80072 10.3899 7.02072 9.88993 7.63072 9.69993L15.1707 7.34994Z" fill="#292D32"/>
</svg>
