<svg viewBox="0 0 24 24" fill="none" xmlns="http://www.w3.org/2000/svg">
<path fill-rule="evenodd" clip-rule="evenodd" d="M7.81 2H16.19C19.83 2 22 4.17 22 7.81V16.19C22 19.83 19.83 22 16.19 22H7.81C4.17 22 2 19.83 2 16.19V7.81C2 4.17 4.17 2 7.81 2ZM16.2556 8.99846C16.3022 8.83848 16.1822 8.67857 16.0156 8.67857H14.5508C14.4763 8.17426 14.3286 7.72486 14.1077 7.33036C14.0244 7.18155 13.9302 7.04167 13.8253 6.91071H15.7505C15.8616 6.91071 15.9594 6.83732 15.9905 6.7306L16.2556 5.81988C16.3022 5.65991 16.1822 5.5 16.0156 5.5H8.2763C8.16569 5.5 8.06822 5.57269 8.03668 5.67872L7.76577 6.58943C7.71809 6.74972 7.83817 6.91071 8.00539 6.91071H10.0273C10.7059 6.91071 11.2535 7.02083 11.6702 7.24107C12.0928 7.45536 12.4023 7.75595 12.5988 8.14286C12.6847 8.30947 12.7518 8.48804 12.8001 8.67857H8.25065C8.1395 8.67857 8.04169 8.75196 8.01062 8.85869L7.74547 9.7694C7.6989 9.92938 7.81889 10.0893 7.98551 10.0893H12.8225C12.7705 10.3039 12.69 10.5063 12.5809 10.6964C12.3726 11.0595 12.0601 11.3482 11.6434 11.5625C11.2327 11.7708 10.7119 11.875 10.0809 11.875H8.15437C8.01551 11.875 7.90326 11.9882 7.90438 12.127L7.91054 12.8909C7.91101 12.9498 7.93229 13.0067 7.97061 13.0515L12.5596 18.4126C12.6071 18.4681 12.6765 18.5 12.7496 18.5H14.5831C14.6263 18.5 14.6613 18.465 14.6613 18.4218C14.6613 18.4031 14.6546 18.3851 14.6424 18.3709L10.6237 13.6987C10.4843 13.5367 10.5996 13.2829 10.8131 13.2705C11.6323 13.2231 12.302 13.0645 12.822 12.7946C13.4589 12.4673 13.9142 12.0179 14.1881 11.4464C14.3887 11.0323 14.5174 10.5799 14.5741 10.0893H15.7505C15.8616 10.0893 15.9594 10.0159 15.9905 9.90917L16.2556 8.99846Z" fill="#292D32"/>
</svg>
