<svg viewBox="0 0 24 24" fill="none" xmlns="http://www.w3.org/2000/svg">
<path fill-rule="evenodd" clip-rule="evenodd" d="M22.28 1.3C22.47 1.38 22.61 1.53 22.69 1.71C22.73 1.81 22.75 1.9 22.75 2V6C22.75 6.41 22.41 6.75 22 6.75C21.59 6.75 21.25 6.41 21.25 6V3.81L19.58 5.48C19.25 5.1 18.9 4.75 18.52 4.42L20.19 2.75H18C17.59 2.75 17.25 2.41 17.25 2C17.25 1.59 17.59 1.25 18 1.25H22C22.1 1.25 22.19 1.27 22.28 1.3ZM18.52 4.42L16.47 6.47C16.18 6.76 16.18 7.24 16.47 7.53C16.62 7.68 16.81 7.75 17 7.75C17.19 7.75 17.38 7.68 17.53 7.53L19.58 5.48C21.08 7.24 22 9.51 22 12C22 17.52 17.52 22 12 22C6.48 22 2 17.52 2 12C2 6.48 6.48 2 12 2C14.49 2 16.76 2.92 18.52 4.42ZM15.0126 9.44506C15.1793 9.44506 15.2993 9.60496 15.2527 9.76494L15.0823 10.3501C15.0512 10.4568 14.9534 10.5302 14.8423 10.5302H13.9807C13.9371 10.9076 13.8381 11.2556 13.6837 11.5742C13.4731 12.0137 13.1228 12.3594 12.6329 12.6113C12.2597 12.8049 11.7864 12.9241 11.213 12.9688C10.9999 12.9855 10.8845 13.24 11.0239 13.402L14.0332 16.9007C14.0426 16.9116 14.0477 16.9255 14.0477 16.9399C14.0477 16.9731 14.0208 17 13.9876 17H12.6038C12.5307 17 12.4613 16.9681 12.4138 16.9126L8.91476 12.8248C8.87644 12.78 8.85517 12.7232 8.85469 12.6643L8.85059 12.1559C8.84947 12.017 8.96172 11.9038 9.10058 11.9038H10.5244C11.0097 11.9038 11.4104 11.8237 11.7263 11.6635C12.0468 11.4986 12.2872 11.2766 12.4475 10.9973C12.5314 10.851 12.5933 10.6953 12.6333 10.5302H8.98941C8.8228 10.5302 8.70281 10.3703 8.74938 10.2103L8.91974 9.62517C8.95082 9.51845 9.04862 9.44506 9.15978 9.44506H12.6161C12.5789 9.2985 12.5273 9.16113 12.4612 9.03297C12.3101 8.73535 12.072 8.50412 11.7469 8.33929C11.4264 8.16987 11.0052 8.08517 10.4832 8.08517H10.2257H9.00518C8.83796 8.08517 8.71788 7.92417 8.76556 7.76388L8.93962 7.17872C8.97116 7.07269 9.06863 7 9.17925 7H10.396H10.4832H15.0126C15.1793 7 15.2993 7.15991 15.2527 7.31988L15.0823 7.90505C15.0512 8.01177 14.9534 8.08517 14.8423 8.08517H13.4047C13.4854 8.1859 13.5578 8.2935 13.6219 8.40797C13.7918 8.71143 13.9055 9.05712 13.9628 9.44506H15.0126Z" fill="#292D32"/>
</svg>
