<svg viewBox="0 0 25 24" fill="none" xmlns="http://www.w3.org/2000/svg">
<path d="M16.5058 8.67857C16.6725 8.67857 16.7925 8.83848 16.7459 8.99845L16.4807 9.90917C16.4497 10.0159 16.3519 10.0893 16.2407 10.0893H8.47574C8.30913 10.0893 8.18913 9.92938 8.23571 9.7694L8.50085 8.85869C8.53193 8.75196 8.62973 8.67857 8.74089 8.67857H16.5058ZM13.2398 18.5C13.1668 18.5 13.0974 18.4681 13.0499 18.4126L8.46084 13.0515C8.42252 13.0067 8.40125 12.9498 8.40077 12.8909L8.39461 12.127C8.39349 11.9882 8.50574 11.875 8.6446 11.875H10.5711C11.2021 11.875 11.7229 11.7708 12.1336 11.5625C12.5503 11.3482 12.8628 11.0595 13.0711 10.6964C13.2795 10.3333 13.3836 9.9256 13.3836 9.47321C13.3836 8.96726 13.2854 8.52381 13.089 8.14286C12.8926 7.75595 12.5831 7.45536 12.1604 7.24107C11.7438 7.02083 11.1961 6.91071 10.5176 6.91071H8.49563C8.32841 6.91071 8.20833 6.74972 8.25601 6.58943L8.52691 5.67872C8.55845 5.57269 8.65592 5.5 8.76654 5.5H10.5176C11.5533 5.5 12.4075 5.65774 13.0801 5.97321C13.7586 6.28274 14.2646 6.73512 14.5979 7.33036C14.9313 7.9256 15.0979 8.64583 15.0979 9.49107C15.0979 10.2173 14.9581 10.869 14.6783 11.4464C14.4045 12.0179 13.9491 12.4673 13.3122 12.7946C12.7922 13.0645 12.1226 13.2231 11.3033 13.2705C11.0899 13.2829 10.9745 13.5367 11.1139 13.6987L15.1326 18.3709C15.1448 18.3851 15.1515 18.4031 15.1515 18.4218V18.4218C15.1515 18.465 15.1165 18.5 15.0734 18.5H13.2398ZM16.5058 5.5C16.6725 5.5 16.7925 5.65991 16.7459 5.81988L16.4807 6.7306C16.4497 6.83732 16.3519 6.91071 16.2407 6.91071H10.0829C9.91627 6.91071 9.79628 6.75081 9.84285 6.59083L10.108 5.68012C10.1391 5.57339 10.2369 5.5 10.348 5.5H16.5058Z" fill="#292D32"/>
<path opacity="0.4" d="M12.4902 22C18.0131 22 22.4902 17.5228 22.4902 12C22.4902 6.47715 18.0131 2 12.4902 2C6.96739 2 2.49023 6.47715 2.49023 12C2.49023 17.5228 6.96739 22 12.4902 22Z" fill="#292D32"/>
</svg>
