<svg viewBox="0 0 25 24" fill="none" xmlns="http://www.w3.org/2000/svg">
<path fill-rule="evenodd" clip-rule="evenodd" d="M22.7708 1.30024C22.9608 1.38024 23.1008 1.53024 23.1808 1.71024C23.2208 1.81024 23.2408 1.90024 23.2308 2.00024V6.00024C23.2308 6.41024 22.8908 6.75024 22.4808 6.75024C22.0708 6.75024 21.7308 6.41024 21.7308 6.00024V3.80024L20.0608 5.47024C19.7308 5.09024 19.3808 4.74024 19.0008 4.41024L20.6708 2.74023H18.4808C18.0708 2.74023 17.7308 2.40023 17.7308 1.99023C17.7308 1.58023 18.0708 1.24023 18.4808 1.24023H22.4808C22.5808 1.24023 22.6808 1.26024 22.7708 1.30024ZM15.9132 9.8894C15.9598 9.72943 15.8398 9.56952 15.6731 9.56952H14.5528C14.4925 9.1618 14.3731 8.79848 14.1945 8.47954C14.1271 8.35923 14.051 8.24614 13.9662 8.14027H15.4867C15.5978 8.14027 15.6956 8.06688 15.7267 7.96016L15.9132 7.31965C15.9598 7.15967 15.8398 6.99977 15.6731 6.99977H10.8957H10.7945H9.51575C9.40513 6.99977 9.30766 7.07246 9.27612 7.17848L9.08559 7.81899C9.03791 7.97928 9.15799 8.14027 9.32522 8.14027H10.6081H10.8957C11.4443 8.14027 11.887 8.2293 12.2239 8.40735C12.5655 8.5806 12.8158 8.82362 12.9746 9.13641C13.044 9.27112 13.0983 9.41548 13.1374 9.56952H9.49523C9.38407 9.56952 9.28627 9.64291 9.25519 9.74963L9.06872 10.3901C9.02214 10.5501 9.14213 10.71 9.30875 10.71H13.1555C13.1135 10.8835 13.0483 11.0472 12.9601 11.2009C12.7917 11.4944 12.5391 11.7278 12.2022 11.9011C11.8702 12.0695 11.4491 12.1537 10.939 12.1537H9.42973C9.29087 12.1537 9.17861 12.2669 9.17973 12.4057L9.18418 12.9576C9.18466 13.0165 9.20593 13.0733 9.24425 13.1181L12.9286 17.4223C12.9761 17.4778 13.0455 17.5098 13.1185 17.5098H14.5788C14.6137 17.5098 14.642 17.4815 14.642 17.4466C14.642 17.4315 14.6366 17.4168 14.6268 17.4054L11.4458 13.7072C11.3064 13.5452 11.4217 13.2908 11.6349 13.2751C12.2501 13.2298 12.7568 13.1038 13.155 12.8972C13.67 12.6325 14.0381 12.2692 14.2595 11.8072C14.4217 11.4724 14.5257 11.1067 14.5716 10.71H15.4867C15.5978 10.71 15.6956 10.6366 15.7267 10.5299L15.9132 9.8894Z" fill="#292D32"/>
<path opacity="0.4" d="M17.4902 7.75C17.3002 7.75 17.1102 7.68 16.9602 7.53C16.6702 7.24 16.6702 6.76 16.9602 6.47L19.0102 4.42C17.2502 2.92 14.9802 2 12.4902 2C6.97023 2 2.49023 6.48 2.49023 12C2.49023 17.52 6.97023 22 12.4902 22C18.0102 22 22.4902 17.52 22.4902 12C22.4902 9.51 21.5702 7.24 20.0702 5.48L18.0202 7.53C17.8702 7.68 17.6802 7.75 17.4902 7.75Z" fill="#292D32"/>
</svg>
