<svg viewBox="0 0 25 24" fill="none" xmlns="http://www.w3.org/2000/svg">
<path d="M17.0058 8.67857C17.1725 8.67857 17.2925 8.83848 17.2459 8.99845L16.9807 9.90917C16.9497 10.0159 16.8519 10.0893 16.7407 10.0893H8.97574C8.80913 10.0893 8.68913 9.92938 8.73571 9.7694L9.00085 8.85869C9.03193 8.75196 9.12973 8.67857 9.24089 8.67857H17.0058ZM13.7398 18.5C13.6668 18.5 13.5974 18.4681 13.5499 18.4126L8.96084 13.0515C8.92252 13.0067 8.90125 12.9498 8.90077 12.8909L8.89461 12.127C8.89349 11.9882 9.00574 11.875 9.1446 11.875H11.0711C11.7021 11.875 12.2229 11.7708 12.6336 11.5625C13.0503 11.3482 13.3628 11.0595 13.5711 10.6964C13.7795 10.3333 13.8836 9.9256 13.8836 9.47321C13.8836 8.96726 13.7854 8.52381 13.589 8.14286C13.3926 7.75595 13.0831 7.45536 12.6604 7.24107C12.2438 7.02083 11.6961 6.91071 11.0176 6.91071H8.99563C8.82841 6.91071 8.70833 6.74972 8.75601 6.58943L9.02691 5.67872C9.05845 5.57269 9.15592 5.5 9.26654 5.5H11.0176C12.0533 5.5 12.9075 5.65774 13.5801 5.97321C14.2586 6.28274 14.7646 6.73512 15.0979 7.33036C15.4313 7.9256 15.5979 8.64583 15.5979 9.49107C15.5979 10.2173 15.4581 10.869 15.1783 11.4464C14.9045 12.0179 14.4491 12.4673 13.8122 12.7946C13.2922 13.0645 12.6226 13.2231 11.8033 13.2705C11.5899 13.2829 11.4745 13.5367 11.6139 13.6987L15.6326 18.3709C15.6448 18.3851 15.6515 18.4031 15.6515 18.4218V18.4218C15.6515 18.465 15.6165 18.5 15.5734 18.5H13.7398ZM17.0058 5.5C17.1725 5.5 17.2925 5.65991 17.2459 5.81988L16.9807 6.7306C16.9497 6.83732 16.8519 6.91071 16.7407 6.91071H10.5829C10.4163 6.91071 10.2963 6.75081 10.3429 6.59083L10.608 5.68012C10.6391 5.57339 10.7369 5.5 10.848 5.5H17.0058Z" fill="#292D32"/>
<path opacity="0.4" d="M17.1873 2H8.80313C5.16132 2 2.99023 4.17 2.99023 7.81V16.18C2.99023 19.83 5.16132 22 8.80313 22H17.1773C20.8191 22 22.9902 19.83 22.9902 16.19V7.81C23.0002 4.17 20.8291 2 17.1873 2Z" fill="#292D32"/>
</svg>
