<svg viewBox="0 0 24 24" fill="none" xmlns="http://www.w3.org/2000/svg">
<path fill-rule="evenodd" clip-rule="evenodd" d="M2.00007 12.03C1.98007 6.51002 6.45007 2.02002 11.9701 2.00002C17.4901 1.99002 21.9801 6.45002 22.0001 11.97C22.0201 17.49 17.5501 21.98 12.0301 22C6.51007 22.02 2.02007 17.55 2.00007 12.03ZM16.2556 9.10002C16.3022 8.94004 16.1822 8.78013 16.0156 8.78013H14.5508C14.4763 8.27582 14.3286 7.82642 14.1077 7.43192C14.0244 7.28311 13.9302 7.14323 13.8253 7.01228H15.7505C15.8616 7.01228 15.9594 6.93888 15.9905 6.83216L16.2556 5.92145C16.3022 5.76147 16.1822 5.60156 16.0156 5.60156H8.2763C8.16569 5.60156 8.06822 5.67426 8.03668 5.78028L7.76577 6.691C7.71809 6.85128 7.83817 7.01228 8.00539 7.01228H10.0273C10.7059 7.01228 11.2535 7.1224 11.6702 7.34263C12.0928 7.55692 12.4023 7.85751 12.5988 8.24442C12.6847 8.41104 12.7518 8.58961 12.8001 8.78013H8.25065C8.1395 8.78013 8.04169 8.85353 8.01062 8.96025L7.74547 9.87097C7.6989 10.0309 7.81889 10.1908 7.98551 10.1908H12.8225C12.7705 10.4055 12.69 10.6079 12.5809 10.798C12.3726 11.1611 12.0601 11.4498 11.6434 11.6641C11.2327 11.8724 10.7119 11.9766 10.0809 11.9766H8.15437C8.01551 11.9766 7.90326 12.0897 7.90438 12.2286L7.91054 12.9925C7.91101 13.0514 7.93229 13.1083 7.97061 13.153L12.5596 18.5141C12.6071 18.5696 12.6765 18.6016 12.7496 18.6016H14.5831C14.6263 18.6016 14.6613 18.5666 14.6613 18.5234C14.6613 18.5047 14.6546 18.4866 14.6424 18.4724L10.6237 13.8003C10.4843 13.6382 10.5996 13.3845 10.8131 13.3721C11.6323 13.3247 12.302 13.166 12.822 12.8962C13.4589 12.5688 13.9142 12.1194 14.1881 11.548C14.3887 11.1339 14.5174 10.6815 14.5741 10.1908H15.7505C15.8616 10.1908 15.9594 10.1175 15.9905 10.0107L16.2556 9.10002Z" fill="#292D32"/>
</svg>
