<svg viewBox="0 0 24 24" fill="none" xmlns="http://www.w3.org/2000/svg">
<path fill-rule="evenodd" clip-rule="evenodd" d="M1.25 12C1.25 17.93 6.07 22.75 12 22.75C17.93 22.75 22.75 17.93 22.75 12C22.75 6.07 17.93 1.25 12 1.25C6.07 1.25 1.25 6.07 1.25 12ZM2.75 12C2.75 6.9 6.9 2.75 12 2.75C17.1 2.75 21.25 6.9 21.25 12C21.25 17.1 17.1 21.25 12 21.25C6.9 21.25 2.75 17.1 2.75 12ZM16.4221 8.87071C16.4687 8.71073 16.3487 8.55082 16.1821 8.55082H14.6482C14.5708 8.02712 14.4174 7.56043 14.188 7.15076C14.1015 6.99622 14.0037 6.85096 13.8948 6.71497H15.9012C16.0123 6.71497 16.1101 6.64158 16.1412 6.53486L16.4221 5.56988C16.4687 5.40991 16.3487 5.25 16.1821 5.25H9.95072H9.76744H8.12516C8.01454 5.25 7.91708 5.32269 7.88554 5.42872L7.59849 6.39369C7.55081 6.55397 7.67089 6.71497 7.83811 6.71497H9.4865H9.95072C10.6554 6.71497 11.2241 6.82933 11.6568 7.05804C12.0956 7.28056 12.4171 7.59272 12.621 7.99451C12.7103 8.16753 12.78 8.35297 12.8302 8.55082H8.09848C7.98732 8.55082 7.88952 8.62422 7.85845 8.73094L7.57751 9.69591C7.53093 9.85589 7.65092 10.0158 7.81754 10.0158H12.8534C12.7994 10.2387 12.7158 10.4488 12.6025 10.6463C12.3862 11.0234 12.0616 11.3231 11.6289 11.5457C11.2024 11.762 10.6616 11.8702 10.0064 11.8702H7.99601C7.85716 11.8702 7.7449 11.9834 7.74602 12.1222L7.75253 12.9287C7.753 12.9876 7.77428 13.0445 7.8126 13.0892L12.5833 18.6626C12.6308 18.7181 12.7002 18.75 12.7732 18.75H14.6817C14.7265 18.75 14.7629 18.7137 14.7629 18.6688C14.7629 18.6494 14.7559 18.6306 14.7432 18.6159L10.5563 13.7482C10.4169 13.5861 10.5323 13.3324 10.7457 13.3206C11.606 13.2728 12.3084 13.1077 12.8528 12.8252C13.5142 12.4852 13.9871 12.0185 14.2715 11.4251C14.4798 10.9951 14.6135 10.5253 14.6724 10.0158H15.9012C16.0123 10.0158 16.1101 9.9424 16.1412 9.83568L16.4221 8.87071Z" fill="#292D32"/>
</svg>
