<svg viewBox="0 0 24 24" fill="none" xmlns="http://www.w3.org/2000/svg">
<path fill-rule="evenodd" clip-rule="evenodd" d="M1.25 12C1.25 17.93 6.07 22.75 12 22.75C17.93 22.75 22.75 17.93 22.75 12C22.75 11.59 22.41 11.25 22 11.25C21.59 11.25 21.25 11.59 21.25 12C21.25 17.1 17.1 21.25 12 21.25C6.9 21.25 2.75 17.1 2.75 12C2.75 6.9 6.9 2.75 12 2.75C12.41 2.75 12.75 2.41 12.75 2C12.75 1.59 12.41 1.25 12 1.25C6.07 1.25 1.25 6.07 1.25 12ZM21.25 6C21.25 6.41 21.59 6.75 22 6.75C22.41 6.75 22.75 6.41 22.75 6V2C22.75 1.87401 22.7179 1.75463 22.6615 1.6497C22.6276 1.58481 22.5836 1.52407 22.5295 1.46994C22.4695 1.40999 22.4014 1.36243 22.3286 1.32727C22.229 1.27787 22.1174 1.25 22 1.25H18C17.59 1.25 17.25 1.59 17.25 2C17.25 2.41 17.59 2.75 18 2.75H20.1894L16.4695 6.46994C16.1795 6.75994 16.1795 7.23994 16.4695 7.52994C16.6195 7.67994 16.8095 7.74994 16.9995 7.74994C17.1895 7.74994 17.3794 7.67994 17.5295 7.52994L21.25 3.80939V6ZM15.4192 9.63719C15.4658 9.47722 15.3458 9.31731 15.1792 9.31731H14.0601C14 8.90998 13.8807 8.547 13.7022 8.22837C13.6349 8.10817 13.5589 7.99519 13.4742 7.88942H14.993C15.1041 7.88942 15.202 7.81603 15.233 7.70931L15.4192 7.06988C15.4658 6.90991 15.3458 6.75 15.1792 6.75H10.4066H10.3057H9.02811C8.91749 6.75 8.82002 6.82269 8.78848 6.92872L8.59828 7.56814C8.5506 7.72842 8.67067 7.88942 8.8379 7.88942H10.1195H10.4066C10.9546 7.88942 11.3969 7.97837 11.7335 8.15625C12.0748 8.32933 12.3248 8.57212 12.4835 8.88462C12.5529 9.01919 12.6071 9.16342 12.6461 9.31731H9.00761C8.89645 9.31731 8.79864 9.3907 8.76757 9.49742L8.58141 10.1368C8.53484 10.2968 8.65483 10.4567 8.82145 10.4567H12.6642C12.6222 10.6301 12.5572 10.7935 12.4691 10.9471C12.3008 11.2404 12.0484 11.4736 11.7118 11.6466C11.3801 11.8149 10.9594 11.899 10.4498 11.899H8.94223C8.80337 11.899 8.69112 12.0122 8.69224 12.1511L8.69668 12.702C8.69716 12.761 8.71843 12.8178 8.75675 12.8626L12.4375 17.1626C12.485 17.2181 12.5544 17.25 12.6274 17.25H14.0862C14.1211 17.25 14.1493 17.2217 14.1493 17.1869C14.1493 17.1718 14.1439 17.1572 14.1341 17.1457L10.9565 13.4515C10.8171 13.2894 10.9324 13.0351 11.1456 13.0193C11.76 12.974 12.2661 12.8482 12.6638 12.6418C13.1782 12.3774 13.546 12.0144 13.7671 11.5529C13.9292 11.2184 14.0331 10.853 14.079 10.4567H14.993C15.1041 10.4567 15.202 10.3833 15.233 10.2766L15.4192 9.63719Z" fill="#292D32"/>
</svg>
