<svg viewBox="0 0 25 24" fill="none" xmlns="http://www.w3.org/2000/svg">
<path fill-rule="evenodd" clip-rule="evenodd" d="M23.0189 2.52994L20.0688 5.47994C19.7388 5.10994 19.3888 4.74994 19.0088 4.41994L21.9589 1.46994C22.2489 1.17994 22.7289 1.17994 23.0189 1.46994C23.3089 1.75994 23.3089 2.23994 23.0189 2.52994ZM17.4891 2.25C17.8991 2.25 18.2391 2.59 18.2391 3V3.82C17.7691 3.49 17.2691 3.21 16.7491 2.96C16.7691 2.57 17.0891 2.25 17.4891 2.25ZM22.2392 7C22.2392 6.59 21.8992 6.25 21.4892 6.25H20.6592C20.9892 6.72 21.2792 7.22 21.5192 7.74C21.9192 7.72 22.2392 7.4 22.2392 7ZM15.9112 9.63464C15.9578 9.47466 15.8378 9.31475 15.6712 9.31475H14.5508C14.4906 8.90704 14.3711 8.54371 14.1925 8.22477C14.1252 8.10447 14.0491 7.99138 13.9643 7.88551H15.4847C15.5959 7.88551 15.6937 7.81212 15.7248 7.70539L15.9112 7.06488C15.9578 6.90491 15.8378 6.745 15.6712 6.745H10.8937H10.7926H9.51379C9.40318 6.745 9.30571 6.81769 9.27417 6.92372L9.08364 7.56423C9.03596 7.72451 9.15604 7.88551 9.32326 7.88551H10.6061H10.8937C11.4423 7.88551 11.8851 7.97453 12.2219 8.15259C12.5636 8.32583 12.8138 8.56885 12.9726 8.88165C13.0421 9.01635 13.0964 9.16072 13.1354 9.31475H9.49327C9.38212 9.31475 9.28431 9.38814 9.25324 9.49487L9.06676 10.1354C9.02019 10.2954 9.14018 10.4553 9.3068 10.4553H13.1535C13.1115 10.6288 13.0464 10.7924 12.9582 10.9461C12.7898 11.2397 12.5371 11.4731 12.2003 11.6463C11.8682 11.8147 11.4471 11.8989 10.937 11.8989H9.42777C9.28891 11.8989 9.17666 12.0121 9.17778 12.151L9.18223 12.7028C9.18271 12.7617 9.20398 12.8186 9.2423 12.8633L12.9267 17.1676C12.9742 17.2231 13.0435 17.255 13.1166 17.255H14.5769C14.6118 17.255 14.6401 17.2267 14.6401 17.1918C14.6401 17.1767 14.6347 17.1621 14.6248 17.1506L11.4439 13.4525C11.3045 13.2904 11.4198 13.0361 11.633 13.0203C12.2482 12.975 12.7549 12.8491 13.1531 12.6424C13.668 12.3778 14.0361 12.0144 14.2575 11.5525C14.4197 11.2177 14.5238 10.8519 14.5696 10.4553H15.4847C15.5959 10.4553 15.6937 10.3819 15.7248 10.2751L15.9112 9.63464Z" fill="#292D32"/>
<path opacity="0.4" fill-rule="evenodd" clip-rule="evenodd" d="M17.2002 7.69C17.3002 7.73 17.3902 7.75 17.4902 7.75H21.4902C21.502 7.75 21.5102 7.74657 21.5171 7.74372C21.522 7.74171 21.5261 7.74 21.5302 7.74C22.1402 9.04 22.4902 10.48 22.4902 12C22.4902 17.52 18.0102 22 12.4902 22C6.97023 22 2.49023 17.52 2.49023 12C2.49023 6.48 6.97023 2 12.4902 2C14.0102 2 15.4502 2.35 16.7402 2.95C16.7402 2.96171 16.7368 2.97 16.734 2.97686C16.7319 2.98171 16.7302 2.98586 16.7302 2.99V6.99C16.7302 7.09 16.7502 7.19 16.7902 7.28C16.8702 7.47 17.0202 7.61 17.2002 7.69ZM19.0102 4.41982C18.7602 4.20982 18.5102 4.00982 18.2402 3.81982V5.17982L19.0102 4.41982ZM19.3008 6.24998H20.6608C20.4708 5.97998 20.2708 5.72998 20.0608 5.47998L19.3008 6.24998Z" fill="#292D32"/>
</svg>
