<svg viewBox="0 0 24 24" fill="none" xmlns="http://www.w3.org/2000/svg">
<path fill-rule="evenodd" clip-rule="evenodd" d="M19.1548 13.861C18.7337 13.7106 18.2643 13.7202 17.8304 13.89L15.0605 15.03C14.9605 15.07 14.8405 15.26 14.8405 15.38V17.5699C14.8405 18.6199 15.2205 19.67 15.9205 20.54C15.9291 20.5506 15.9374 20.5613 15.9454 20.5722C16.6032 21.3956 17.5026 21.9935 18.4799 22.26C18.5099 22.27 18.5698 22.27 18.6198 22.25C20.6698 21.68 22.2398 19.67 22.2398 17.57V15.38C22.2398 15.26 22.1199 15.08 22.0099 15.03L19.2299 13.89C19.205 13.8798 19.1799 13.8702 19.1548 13.861ZM13.341 15.32C13.3583 14.6131 13.8329 13.9048 14.4905 13.63L17.2805 12.49C18.1005 12.17 18.9904 12.17 19.8004 12.49L19.9405 12.55L20.2205 10.89C20.3305 10.23 19.9605 9.24994 19.4405 8.82994L12.8604 3.57994C12.4804 3.26994 11.9805 3.11998 11.4805 3.11998C10.9905 3.11998 10.4905 3.27005 10.1305 3.56005L3.55045 8.81993C3.03045 9.23993 2.66045 10.22 2.77045 10.88L4.03046 18.43C4.20046 19.41 5.18045 20.24 6.18045 20.24H13.9673C13.5576 19.4003 13.3398 18.4873 13.3398 17.57V15.38C13.3398 15.36 13.3402 15.34 13.341 15.32ZM14.9835 21.75H6.18045C4.44045 21.75 2.84045 20.3999 2.55045 18.6899L1.29047 11.14C1.08047 9.95 1.67045 8.42002 2.61045 7.66002L9.19046 2.40001C10.4805 1.36001 12.5005 1.37002 13.7905 2.41002L20.3705 7.66002C21.3205 8.42002 21.9005 9.95 21.6905 11.14L21.3577 13.1443L22.5999 13.65C23.2699 13.93 23.7599 14.66 23.7599 15.38V17.57C23.7599 20.36 21.7599 22.94 19.0099 23.7C18.8399 23.73 18.6798 23.75 18.5298 23.75C18.3798 23.75 18.2398 23.73 18.1098 23.7C16.9067 23.3718 15.8116 22.6865 14.9835 21.75Z" fill="#292D32"/>
</svg>
