<svg viewBox="0 0 24 24" fill="none" xmlns="http://www.w3.org/2000/svg">
<path fill-rule="evenodd" clip-rule="evenodd" d="M20.7693 12.0813L20.9493 11.0113C21.1093 10.0813 20.6293 8.83125 19.8993 8.24125L13.3193 2.99126C12.3093 2.17126 10.6693 2.17126 9.6593 2.98126L3.0793 8.24125C2.3393 8.83125 1.8693 10.0813 2.0293 11.0113L3.2893 18.5613C3.5193 19.9113 4.8093 21.0013 6.1793 21.0013H13.5293C12.9193 19.9413 12.5893 18.7513 12.5893 17.5613V15.3713C12.5893 14.3413 13.2493 13.3513 14.1993 12.9513L16.9893 11.8013C17.9993 11.4013 19.0793 11.4013 20.0693 11.8013L20.7693 12.0813ZM22.9998 17.5614V15.3714C22.9998 14.9514 22.6898 14.4914 22.3098 14.3314L20.5198 13.6014L19.5198 13.1914C18.8898 12.9414 18.1898 12.9414 17.5598 13.1914L14.7798 14.3314C14.3998 14.4914 14.0898 14.9514 14.0898 15.3714V17.5614C14.0898 18.8114 14.5498 20.0214 15.3398 21.0014C16.0698 21.9314 17.1098 22.6514 18.2898 22.9714C18.4498 23.0114 18.6298 23.0114 18.7998 22.9714C21.2198 22.3014 22.9998 20.0014 22.9998 17.5614Z" fill="#292D32"/>
</svg>
