<svg viewBox="0 0 24 24" fill="none" xmlns="http://www.w3.org/2000/svg">
<path fill-rule="evenodd" clip-rule="evenodd" d="M19.32 18.4897C19.79 18.7397 20.25 18.8698 20.69 18.8698C21.06 18.8698 21.4 18.7797 21.7 18.6097C22.37 18.2197 22.75 17.4398 22.75 16.4798V5.11975C22.75 2.98975 21.02 1.25977 18.89 1.25977H11.11C8.97999 1.25977 7.25 2.98975 7.25 5.11975V5.14014H5.10999C2.97999 5.14014 1.25 6.87012 1.25 9.00012V20.3601C1.25 21.3201 1.62999 22.1001 2.29999 22.4901C2.95999 22.8801 3.82999 22.8401 4.67999 22.3701L8.59998 20.1801C8.78998 20.0801 9.20001 20.0801 9.39001 20.1801L13.32 22.3701C13.79 22.6201 14.25 22.7501 14.69 22.7501C15.06 22.7501 15.4 22.6601 15.7 22.4901C16.37 22.1001 16.75 21.3201 16.75 20.3601V17.055L19.32 18.4897ZM16.75 15.3297L20.05 17.1797C20.41 17.3797 20.74 17.4298 20.94 17.3098C21.13 17.1998 21.25 16.8798 21.25 16.4698V5.10974C21.25 3.80974 20.19 2.74976 18.89 2.74976H11.11C9.80999 2.74976 8.75 3.80974 8.75 5.10974V5.12976H12.89C15.02 5.12976 16.75 6.85975 16.75 8.98975V9.00012V15.3297ZM7.88111 6.63013H5.10999C3.80999 6.63013 2.75 7.69011 2.75 8.99011V20.3501C2.75 20.7601 2.87 21.0801 3.06 21.1901C3.25 21.3001 3.59001 21.2501 3.95001 21.0501L7.88 18.8601C8.2 18.6901 8.6 18.6001 9 18.6001C9.4 18.6001 9.79 18.6901 10.12 18.8701L14.05 21.0601C14.41 21.2601 14.74 21.3101 14.94 21.1901C15.13 21.0801 15.25 20.7601 15.25 20.3501V15.7798V8.99976C15.25 7.69976 14.19 6.63977 12.89 6.63977H8C7.9596 6.63977 7.91989 6.63647 7.88111 6.63013ZM8.25 12.75H7C6.59 12.75 6.25 12.41 6.25 12C6.25 11.59 6.59 11.25 7 11.25H8.25V10C8.25 9.59 8.59 9.25 9 9.25C9.41 9.25 9.75 9.59 9.75 10V11.25H11C11.41 11.25 11.75 11.59 11.75 12C11.75 12.41 11.41 12.75 11 12.75H9.75V14C9.75 14.41 9.41 14.75 9 14.75C8.59 14.75 8.25 14.41 8.25 14V12.75Z" fill="#292D32"/>
</svg>
