<svg viewBox="0 0 24 24" fill="none" xmlns="http://www.w3.org/2000/svg">
<path fill-rule="evenodd" clip-rule="evenodd" d="M19.32 18.4897C19.79 18.7397 20.25 18.8698 20.69 18.8698C21.06 18.8698 21.4 18.7797 21.7 18.6097C22.37 18.2197 22.75 17.4398 22.75 16.4798V5.11975C22.75 2.98975 21.02 1.25977 18.89 1.25977H11.11C8.98 1.25977 7.25 2.98975 7.25 5.11975V5.14014H5.10023C2.97023 5.14014 1.24023 6.87012 1.24023 9.00012V20.3601C1.24023 21.3201 1.63023 22.1001 2.29023 22.4901C2.96023 22.8801 3.82023 22.8401 4.67023 22.3701L8.60023 20.1801C8.79024 20.0801 9.20024 20.0801 9.39023 20.1801L13.3202 22.3701C13.7902 22.6201 14.2502 22.7501 14.6902 22.7501C15.0602 22.7501 15.4002 22.6601 15.6902 22.4901C16.3602 22.1001 16.7402 21.3201 16.7402 20.3601V17.0496L19.32 18.4897ZM7.88111 6.63013C7.91989 6.63647 7.9596 6.63977 8 6.63977H12.89C14.19 6.63977 15.25 7.69976 15.25 8.99976V15.7798C15.25 15.8222 15.2535 15.8642 15.2602 15.9053V20.3501C15.2602 20.7601 15.1402 21.0801 14.9502 21.1901C14.7502 21.3101 14.4202 21.2601 14.0602 21.0601L10.1202 18.8701C9.79023 18.6901 9.40023 18.6001 9.00023 18.6001C8.60023 18.6001 8.20024 18.6901 7.88023 18.8601L3.95023 21.0501C3.59023 21.2501 3.25023 21.3001 3.06023 21.1901C2.87023 21.0801 2.75023 20.7601 2.75023 20.3501V8.99011C2.75023 7.69011 3.81023 6.63013 5.11023 6.63013H7.88111ZM20.06 17.1797L16.75 15.3297H16.76V8.98975C16.76 6.85975 15.03 5.12976 12.9 5.12976H8.76V5.10974C8.76 3.80974 9.82 2.74976 11.12 2.74976H18.9C20.2 2.74976 21.26 3.80974 21.26 5.10974V16.4698C21.26 16.8798 21.14 17.1998 20.95 17.3098C20.75 17.4298 20.42 17.3797 20.06 17.1797ZM7.0593 13.94C7.2093 14.09 7.3993 14.16 7.5893 14.16C7.7793 14.16 7.9693 14.09 8.1193 13.94L8.99941 13.0599L9.87953 13.94C10.0295 14.09 10.2195 14.16 10.4095 14.16C10.6095 14.16 10.7995 14.09 10.9395 13.94C11.2295 13.65 11.2295 13.17 10.9395 12.88L10.0594 11.9999L10.9493 11.11C11.2393 10.82 11.2393 10.34 10.9493 10.05C10.6593 9.76002 10.1793 9.76002 9.8893 10.05L8.99941 10.9399L8.10953 10.05C7.81953 9.76002 7.33953 9.76002 7.04953 10.05C6.75953 10.34 6.75953 10.82 7.04953 11.11L7.93942 11.9999L7.0593 12.88C6.7693 13.17 6.7693 13.65 7.0593 13.94Z" fill="#292D32"/>
</svg>
