<svg viewBox="0 0 24 24" fill="none" xmlns="http://www.w3.org/2000/svg">
<path fill-rule="evenodd" clip-rule="evenodd" d="M21.9998 16.47V5.11C21.9998 3.4 20.5998 2 18.8898 2H11.1098C9.91984 2 8.87984 2.68 8.35984 3.67C8.18984 3.99 8.44984 4.38 8.81984 4.38H12.8898C15.4298 4.38 17.4998 6.45 17.4998 8.99V16.31C17.4998 16.49 17.5998 16.66 17.7598 16.75L19.6898 17.83C20.9598 18.53 21.9998 17.92 21.9998 16.47ZM4.41664 5.87891H12.1966C13.9066 5.87891 15.3066 7.27891 15.3066 8.98891V20.3489C15.3066 21.7989 14.2666 22.4089 12.9866 21.7089L9.05664 19.5189C8.64664 19.2889 7.96664 19.2889 7.54664 19.5189L3.61664 21.7089C2.34664 22.4189 1.30664 21.7989 1.30664 20.3489V8.98891C1.30664 7.27891 2.70664 5.87891 4.41664 5.87891Z" fill="#292D32"/>
</svg>
