<svg viewBox="0 0 24 24" fill="none" xmlns="http://www.w3.org/2000/svg">
<path fill-rule="evenodd" clip-rule="evenodd" d="M21.9998 16.47V5.11C21.9998 3.4 20.5998 2 18.8898 2H11.1098C9.91984 2 8.87984 2.68 8.35984 3.67C8.18984 3.99 8.44984 4.38 8.81984 4.38H12.8898C15.4298 4.38 17.4998 6.45 17.4998 8.99V16.31C17.4998 16.49 17.5998 16.66 17.7598 16.75L19.6898 17.83C20.9598 18.53 21.9998 17.92 21.9998 16.47ZM4.41664 5.87891H12.1966C13.9066 5.87891 15.3066 7.27891 15.3066 8.98891V20.3489C15.3066 21.7989 14.2666 22.4089 12.9966 21.7089L9.06664 19.5189C8.64664 19.2889 7.96664 19.2889 7.54664 19.5189L3.61664 21.7089C2.34664 22.4089 1.30664 21.7989 1.30664 20.3489V8.98891C1.30664 7.27891 2.70664 5.87891 4.41664 5.87891ZM10.2466 13.9389C10.5366 13.6489 10.5366 13.1689 10.2466 12.8789L9.36664 11.9989L10.2466 11.1189C10.5366 10.8289 10.5366 10.3489 10.2466 10.0589C9.95664 9.76891 9.47664 9.76891 9.18664 10.0589L8.30664 10.9389L7.42664 10.0589C7.13664 9.76891 6.65664 9.76891 6.36664 10.0589C6.07664 10.3489 6.07664 10.8289 6.36664 11.1189L7.24664 11.9989L6.36664 12.8789C6.07664 13.1689 6.07664 13.6489 6.36664 13.9389C6.51664 14.0889 6.70664 14.1589 6.89664 14.1589C7.08664 14.1589 7.27664 14.0889 7.42664 13.9389L8.30664 13.0589L9.18664 13.9389C9.33664 14.0889 9.52664 14.1589 9.71664 14.1589C9.90664 14.1589 10.0966 14.0889 10.2466 13.9389Z" fill="#292D32"/>
</svg>
