<svg viewBox="0 0 24 24" fill="none" xmlns="http://www.w3.org/2000/svg">
<path fill-rule="evenodd" clip-rule="evenodd" d="M21.9998 16.47V5.11C21.9998 3.4 20.5998 2 18.8898 2H11.1098C9.91984 2 8.87984 2.68 8.35984 3.67C8.18984 3.99 8.44984 4.38 8.81984 4.38H12.8898C15.4298 4.38 17.4998 6.45 17.4998 8.99V16.31C17.4998 16.49 17.5998 16.66 17.7598 16.75L19.6898 17.83C20.9598 18.53 21.9998 17.92 21.9998 16.47ZM5.11 5.87891H12.89C14.6 5.87891 16 7.27891 16 8.98891V20.3489C16 21.7989 14.96 22.4089 13.69 21.7089L9.76 19.5189C9.34 19.2889 8.66 19.2889 8.24 19.5189L4.31 21.7089C3.04 22.4089 2 21.7989 2 20.3489V8.98891C2 7.27891 3.4 5.87891 5.11 5.87891ZM7 12.7489H11C11.41 12.7489 11.75 12.4089 11.75 11.9989C11.75 11.5889 11.41 11.2489 11 11.2489H7C6.59 11.2489 6.25 11.5889 6.25 11.9989C6.25 12.4089 6.59 12.7489 7 12.7489Z" fill="#292D32"/>
</svg>
