<svg viewBox="0 0 24 24" fill="none" xmlns="http://www.w3.org/2000/svg">
<path fill-rule="evenodd" clip-rule="evenodd" d="M22 16.47V5.10999C22 3.39999 20.6 2 18.89 2H11.11C9.39999 2 8 3.39999 8 5.10999V5.88H12.89C14.6 5.88 16 7.27999 16 8.98999V15.77L19.69 17.83C20.96 18.53 22 17.92 22 16.47ZM7 12.75H11C11.41 12.75 11.75 12.41 11.75 12C11.75 11.59 11.41 11.25 11 11.25H7C6.59 11.25 6.25 11.59 6.25 12C6.25 12.41 6.59 12.75 7 12.75Z" fill="#292D32"/>
<path opacity="0.4" d="M16 8.98987V20.3499C16 21.7999 14.96 22.4099 13.69 21.7099L9.76001 19.5199C9.34001 19.2899 8.65999 19.2899 8.23999 19.5199L4.31 21.7099C3.04 22.4099 2 21.7999 2 20.3499V8.98987C2 7.27987 3.39999 5.87988 5.10999 5.87988H12.89C14.6 5.87988 16 7.27987 16 8.98987Z" fill="#292D32"/>
</svg>
