<svg viewBox="0 0 24 24" fill="none" xmlns="http://www.w3.org/2000/svg">
<path fill-rule="evenodd" clip-rule="evenodd" d="M19.32 18.4897C19.79 18.7397 20.25 18.8698 20.69 18.8698C21.06 18.8698 21.4 18.7797 21.7 18.6097C22.37 18.2197 22.75 17.4398 22.75 16.4798V5.11975C22.75 2.98975 21.02 1.25977 18.89 1.25977H11.11C8.97999 1.25977 7.25 2.98975 7.25 5.11975V5.12012H5.10022C2.97022 5.12012 1.24023 6.85013 1.24023 8.98013V20.3401C1.24023 21.0971 1.47164 21.7384 1.8917 22.1689C2.01234 22.2942 2.14877 22.4021 2.29999 22.4901C2.95999 22.8801 3.82999 22.8401 4.67999 22.3701L8.59998 20.1801C8.78998 20.0801 9.20001 20.0801 9.39001 20.1801L13.32 22.3701C13.79 22.6201 14.25 22.7501 14.69 22.7501C15.06 22.7501 15.4 22.6601 15.7 22.4901C16.37 22.1001 16.75 21.3201 16.75 20.3601V17.055L19.32 18.4897ZM16.75 15.3297L20.05 17.1797C20.41 17.3797 20.74 17.4298 20.94 17.3098C21.14 17.1898 21.25 16.8798 21.25 16.4698V5.10974C21.25 3.80974 20.19 2.74976 18.89 2.74976H11.11C9.80999 2.74976 8.75 3.80974 8.75 5.10974V5.12012H12.8802C13.9382 5.12012 14.8975 5.54692 15.5951 6.23755C16.3077 6.93807 16.75 7.91278 16.75 8.98975V9.00012V15.3297ZM7.88111 6.63013H5.11023C3.81023 6.63013 2.75024 7.69011 2.75024 8.99011V20.3501C2.75024 20.7601 2.87024 21.0801 3.06024 21.1901C3.12627 21.2284 3.21041 21.2473 3.30721 21.2473C3.48893 21.2472 3.71522 21.1805 3.95001 21.0501L7.88 18.8601L7.88857 18.8556C8.52855 18.5101 9.48301 18.5116 10.1202 18.8601L14.0502 21.0501C14.4091 21.2495 14.7382 21.2998 14.9384 21.1912L14.94 21.1901C15.13 21.0801 15.25 20.7601 15.25 20.3501V15.7798V8.99976C15.25 7.69976 14.19 6.63977 12.89 6.63977H8C7.9596 6.63977 7.91989 6.63647 7.88111 6.63013Z" fill="#292D32"/>
</svg>
