<svg viewBox="0 0 24 24" fill="none" xmlns="http://www.w3.org/2000/svg">
<path fill-rule="evenodd" clip-rule="evenodd" d="M1.25 9C1.25 9.41 1.59 9.75 2 9.75C2.41 9.75 2.75 9.41 2.75 9V6.5C2.75 4.43 4.43 2.75 6.5 2.75H9C9.41 2.75 9.75 2.41 9.75 2C9.75 1.59 9.41 1.25 9 1.25H6.5C3.61 1.25 1.25 3.6 1.25 6.5V9ZM21.25 9C21.25 9.41 21.59 9.75 22 9.75C22.41 9.75 22.75 9.41 22.75 9V6.5C22.75 3.6 20.39 1.25 17.5 1.25H15C14.59 1.25 14.25 1.59 14.25 2C14.25 2.41 14.59 2.75 15 2.75H17.5C19.57 2.75 21.25 4.43 21.25 6.5V9ZM17.5 22.75H16C15.59 22.75 15.25 22.41 15.25 22C15.25 21.59 15.59 21.25 16 21.25H17.5C19.57 21.25 21.25 19.57 21.25 17.5V16C21.25 15.59 21.59 15.25 22 15.25C22.41 15.25 22.75 15.59 22.75 16V17.5C22.75 20.4 20.39 22.75 17.5 22.75ZM6.5 22.75H9C9.41 22.75 9.75 22.41 9.75 22C9.75 21.59 9.41 21.25 9 21.25H6.5C4.43 21.25 2.75 19.57 2.75 17.5V15C2.75 14.59 2.41 14.25 2 14.25C1.59 14.25 1.25 14.59 1.25 15V17.5C1.25 20.4 3.61 22.75 6.5 22.75ZM9 11.25H7C5.59 11.25 4.75 10.41 4.75 9V7C4.75 5.59 5.59 4.75 7 4.75H9C10.41 4.75 11.25 5.59 11.25 7V9C11.25 10.41 10.41 11.25 9 11.25ZM7 6.25C6.41 6.25 6.25 6.41 6.25 7V9C6.25 9.59 6.41 9.75 7 9.75H9C9.59 9.75 9.75 9.59 9.75 9V7C9.75 6.41 9.59 6.25 9 6.25H7ZM15 11.25H17C18.41 11.25 19.25 10.41 19.25 9V7C19.25 5.59 18.41 4.75 17 4.75H15C13.59 4.75 12.75 5.59 12.75 7V9C12.75 10.41 13.59 11.25 15 11.25ZM14.25 7C14.25 6.41 14.41 6.25 15 6.25H17C17.59 6.25 17.75 6.41 17.75 7V9C17.75 9.59 17.59 9.75 17 9.75H15C14.41 9.75 14.25 9.59 14.25 9V7ZM9 19.25H7C5.59 19.25 4.75 18.41 4.75 17V15C4.75 13.59 5.59 12.75 7 12.75H9C10.41 12.75 11.25 13.59 11.25 15V17C11.25 18.41 10.41 19.25 9 19.25ZM7 14.25C6.41 14.25 6.25 14.41 6.25 15V17C6.25 17.59 6.41 17.75 7 17.75H9C9.59 17.75 9.75 17.59 9.75 17V15C9.75 14.41 9.59 14.25 9 14.25H7ZM15 19.25H17C18.41 19.25 19.25 18.41 19.25 17V15C19.25 13.59 18.41 12.75 17 12.75H15C13.59 12.75 12.75 13.59 12.75 15V17C12.75 18.41 13.59 19.25 15 19.25ZM14.25 15C14.25 14.41 14.41 14.25 15 14.25H17C17.59 14.25 17.75 14.41 17.75 15V17C17.75 17.59 17.59 17.75 17 17.75H15C14.41 17.75 14.25 17.59 14.25 17V15Z" fill="#292D32"/>
</svg>
