<svg viewBox="0 0 24 24" fill="none" xmlns="http://www.w3.org/2000/svg">
<path fill-rule="evenodd" clip-rule="evenodd" d="M18.4595 11.23H17.0995H6.89953H5.53953C5.10953 11.23 4.76953 11.58 4.76953 12C4.76953 12.42 5.10953 12.77 5.53953 12.77H6.89953H17.0995H18.4595C18.8895 12.77 19.2295 12.42 19.2295 12C19.2295 11.58 18.8895 11.23 18.4595 11.23ZM6.92 22H9.23C9.66 22 10 21.66 10 21.23C10 20.8 9.65 20.46 9.23 20.46H6.92C5.06 20.46 3.54 18.95 3.54 17.08V14.77C3.54 14.34 3.2 14 2.77 14C2.34 14 2 14.34 2 14.77V17.08C2 19.79 4.21 22 6.92 22ZM15.6899 21.9999H17.0799C19.7899 21.9999 21.9999 19.7899 21.9999 17.0799V15.6999C21.9999 15.2699 21.6499 14.9299 21.2299 14.9299C20.7999 14.9299 20.4599 15.2799 20.4599 15.6999V17.0799C20.4599 18.9399 18.9499 20.4599 17.0799 20.4599H15.6899C15.2599 20.4599 14.9199 20.8099 14.9199 21.2299C14.9199 21.6599 15.2699 21.9999 15.6899 21.9999ZM6.90039 14.27V13.94C6.90039 13.82 6.99039 13.73 7.11039 13.73H16.8904C17.0104 13.73 17.1004 13.82 17.1004 13.94V14.27C17.1004 15.93 15.7604 17.27 14.1004 17.27H9.90039C8.24039 17.27 6.90039 15.93 6.90039 14.27Z" fill="#292D32"/>
<path opacity="0.4" fill-rule="evenodd" clip-rule="evenodd" d="M2.77 10C2.34 10 2 9.66 2 9.23V6.92C2 4.21 4.21 2 6.92 2H9.23C9.66 2 10 2.34 10 2.77C10 3.2 9.66 3.54 9.23 3.54H6.92C5.05 3.54 3.54 5.06 3.54 6.92V9.23C3.54 9.66 3.19 10 2.77 10ZM21.23 10C20.81 10 20.46 9.66 20.46 9.23V6.92C20.46 5.05 18.94 3.54 17.08 3.54H14.77C14.34 3.54 14 3.19 14 2.77C14 2.35 14.34 2 14.77 2H17.08C19.79 2 22 4.21 22 6.92V9.23C22 9.66 21.66 10 21.23 10ZM6.90039 9.72998V10.06C6.90039 10.18 6.99039 10.27 7.11039 10.27H16.8904C17.0104 10.27 17.1004 10.18 17.1004 10.06V9.72998C17.1004 8.06998 15.7604 6.72998 14.1004 6.72998H9.90039C8.24039 6.72998 6.90039 8.06998 6.90039 9.72998Z" fill="#292D32"/>
</svg>
