<svg viewBox="0 0 24 24" fill="none" xmlns="http://www.w3.org/2000/svg">
<path fill-rule="evenodd" clip-rule="evenodd" d="M2.77 10C2.34 10 2 9.66 2 9.23V6.92C2 4.21 4.21 2 6.92 2H9.23C9.66 2 10 2.34 10 2.77C10 3.2 9.66 3.54 9.23 3.54H6.92C5.05 3.54 3.54 5.06 3.54 6.92V9.23C3.54 9.66 3.19 10 2.77 10ZM21.23 10C20.81 10 20.46 9.66 20.46 9.23V6.92C20.46 5.05 18.94 3.54 17.08 3.54H14.77C14.34 3.54 14 3.19 14 2.77C14 2.35 14.34 2 14.77 2H17.08C19.79 2 22 4.21 22 6.92V9.23C22 9.66 21.66 10 21.23 10ZM15.6919 21.9997H17.0819C19.7919 21.9997 22.0019 19.7897 22.0019 17.0797V15.6997C22.0019 15.2697 21.6519 14.9297 21.2319 14.9297C20.8019 14.9297 20.4619 15.2797 20.4619 15.6997V17.0797C20.4619 18.9397 18.9519 20.4597 17.0819 20.4597H15.6919C15.2619 20.4597 14.9219 20.8097 14.9219 21.2297C14.9219 21.6597 15.2719 21.9997 15.6919 21.9997ZM9.23 22H6.92C4.21 22 2 19.79 2 17.08V14.77C2 14.34 2.34 14 2.77 14C3.2 14 3.54 14.34 3.54 14.77V17.08C3.54 18.95 5.06 20.46 6.92 20.46H9.23C9.65 20.46 10 20.8 10 21.23C10 21.66 9.66 22 9.23 22ZM17.0995 11.2305H18.4595C18.8895 11.2305 19.2295 11.5805 19.2295 12.0005C19.2295 12.4205 18.8895 12.7705 18.4595 12.7705H17.0995H6.89953H5.53953C5.10953 12.7705 4.76953 12.4205 4.76953 12.0005C4.76953 11.5805 5.10953 11.2305 5.53953 11.2305H6.89953H17.0995ZM6.89844 13.9405V14.2705C6.89844 15.9305 8.23844 17.2705 9.89844 17.2705H14.0984C15.7584 17.2705 17.0984 15.9305 17.0984 14.2705V13.9405C17.0984 13.8205 17.0084 13.7305 16.8884 13.7305H7.10844C6.98844 13.7305 6.89844 13.8205 6.89844 13.9405ZM6.89844 9.73047V10.0605C6.89844 10.1805 6.98844 10.2705 7.10844 10.2705H16.8884C17.0084 10.2705 17.0984 10.1805 17.0984 10.0605V9.73047C17.0984 8.07047 15.7584 6.73047 14.0984 6.73047H9.89844C8.23844 6.73047 6.89844 8.07047 6.89844 9.73047Z" fill="#292D32"/>
</svg>
