<svg viewBox="0 0 24 24" fill="none" xmlns="http://www.w3.org/2000/svg">
<path fill-rule="evenodd" clip-rule="evenodd" d="M1.25 9C1.25 9.41 1.59 9.75 2 9.75C2.41 9.75 2.75 9.41 2.75 9V6.5C2.75 4.43 4.43 2.75 6.5 2.75H9C9.41 2.75 9.75 2.41 9.75 2C9.75 1.59 9.41 1.25 9 1.25H6.5C3.61 1.25 1.25 3.6 1.25 6.5V9ZM21.25 9C21.25 9.41 21.59 9.75 22 9.75C22.41 9.75 22.75 9.41 22.75 9V6.5C22.75 3.6 20.39 1.25 17.5 1.25H15C14.59 1.25 14.25 1.59 14.25 2C14.25 2.41 14.59 2.75 15 2.75H17.5C19.57 2.75 21.25 4.43 21.25 6.5V9ZM17.5 22.75H16C15.59 22.75 15.25 22.41 15.25 22C15.25 21.59 15.59 21.25 16 21.25H17.5C19.57 21.25 21.25 19.57 21.25 17.5V16C21.25 15.59 21.59 15.25 22 15.25C22.41 15.25 22.75 15.59 22.75 16V17.5C22.75 20.4 20.39 22.75 17.5 22.75ZM9 22.75C9.41 22.75 9.75 22.41 9.75 22C9.75 21.59 9.41 21.25 9 21.25H6.5C4.43 21.25 2.75 19.57 2.75 17.5V15C2.75 14.59 2.41 14.25 2 14.25C1.59 14.25 1.25 14.59 1.25 15V17.5C1.25 20.4 3.61 22.75 6.5 22.75H9ZM14 18.25H10C7.58 18.25 6.25 16.92 6.25 14.5V12.75H5C4.59 12.75 4.25 12.41 4.25 12C4.25 11.59 4.59 11.25 5 11.25H6.25V9.5C6.25 7.08 7.58 5.75 10 5.75H14C16.42 5.75 17.75 7.08 17.75 9.5V11.25H19C19.41 11.25 19.75 11.59 19.75 12C19.75 12.41 19.41 12.75 19 12.75H17.75V14.5C17.75 16.92 16.42 18.25 14 18.25ZM7.75 11.25V9.5C7.75 7.92 8.42 7.25 10 7.25H14C15.58 7.25 16.25 7.92 16.25 9.5V11.25H7.75ZM7.75 12.75H16.25V14.5C16.25 16.08 15.58 16.75 14 16.75H10C8.42 16.75 7.75 16.08 7.75 14.5V12.75Z" fill="#292D32"/>
</svg>
