<svg viewBox="0 0 24 24" fill="none" xmlns="http://www.w3.org/2000/svg">
<path fill-rule="evenodd" clip-rule="evenodd" d="M11.5 21.75C5.85 21.75 1.25 17.15 1.25 11.5C1.25 5.85 5.85 1.25 11.5 1.25C11.91 1.25 12.25 1.59 12.25 2C12.25 2.41 11.91 2.75 11.5 2.75C6.67 2.75 2.75 6.68 2.75 11.5C2.75 16.32 6.67 20.25 11.5 20.25C16.33 20.25 20.25 16.32 20.25 11.5C20.25 11.09 20.59 10.75 21 10.75C21.41 10.75 21.75 11.09 21.75 11.5C21.75 17.15 17.15 21.75 11.5 21.75ZM22.0004 22.7499C21.8104 22.7499 21.6204 22.6799 21.4704 22.5299L19.4704 20.5299C19.1804 20.2399 19.1804 19.7599 19.4704 19.4699C19.7604 19.1799 20.2404 19.1799 20.5304 19.4699L22.5304 21.4699C22.8204 21.7599 22.8204 22.2399 22.5304 22.5299C22.3804 22.6799 22.1904 22.7499 22.0004 22.7499ZM13.7799 6.35994C14.4399 8.41994 16.5799 9.53994 17.4999 9.53994C18.3099 9.53994 20.5599 8.45994 21.2099 6.35994C21.6699 4.94994 21.1399 3.09994 19.5099 2.56994C18.8099 2.34994 18.0599 2.44994 17.4899 2.81994C16.9099 2.44994 16.1799 2.33994 15.4799 2.56994C13.8499 3.09994 13.3299 4.94994 13.7799 6.35994ZM17.5099 8.04994C17.2299 8.01994 15.6699 7.35994 15.2099 5.90994C14.9799 5.17994 15.2199 4.23994 15.9399 3.99994C16.2399 3.90994 16.6599 3.95994 16.8899 4.28994C17.0299 4.48994 17.2899 4.60994 17.5099 4.59994C17.7599 4.58994 17.9799 4.46994 18.1199 4.25994C18.3199 3.96994 18.7399 3.90994 19.0499 4.00994C19.7799 4.24994 20.0099 5.18994 19.7799 5.91994C19.3599 7.27994 17.8299 8.01994 17.5099 8.04994Z" fill="#292D32"/>
</svg>
