<svg viewBox="0 0 24 24" fill="none" xmlns="http://www.w3.org/2000/svg">
<path fill-rule="evenodd" clip-rule="evenodd" d="M1.25 11.5C1.25 17.15 5.85 21.75 11.5 21.75C17.15 21.75 21.75 17.15 21.75 11.5C21.75 5.85 17.15 1.25 11.5 1.25C5.85 1.25 1.25 5.85 1.25 11.5ZM2.75 11.5C2.75 6.68 6.67 2.75 11.5 2.75C16.33 2.75 20.25 6.68 20.25 11.5C20.25 16.32 16.33 20.25 11.5 20.25C6.67 20.25 2.75 16.32 2.75 11.5ZM21.4704 22.5299C21.6204 22.6799 21.8104 22.7499 22.0004 22.7499C22.1904 22.7499 22.3804 22.6799 22.5304 22.5299C22.8204 22.2399 22.8204 21.7599 22.5304 21.4699L20.5304 19.4699C20.2404 19.1799 19.7604 19.1799 19.4704 19.4699C19.1804 19.7599 19.1804 20.2399 19.4704 20.5299L21.4704 22.5299Z" fill="#292D32"/>
</svg>
