<svg viewBox="0 0 24 24" fill="none" xmlns="http://www.w3.org/2000/svg">
<path fill-rule="evenodd" clip-rule="evenodd" d="M1.99023 10.9983C1.99023 6.02828 6.03023 1.98828 11.0002 1.98828C15.9702 1.98828 20.0102 6.02828 20.0102 10.9983C20.0102 15.9683 15.9702 20.0083 11.0002 20.0083C6.03023 20.0083 1.99023 15.9683 1.99023 10.9983ZM11.0002 14.3083C11.6702 14.3083 13.6202 13.3383 14.1802 11.5583C14.5602 10.3783 14.1302 8.82828 12.7802 8.38828C12.1502 8.18828 11.4802 8.30828 11.0002 8.67828C10.5102 8.30828 9.85023 8.18828 9.23023 8.38828C7.87023 8.81828 7.44023 10.3683 7.82023 11.5583C8.40023 13.3783 10.3102 14.3083 11.0002 14.3083ZM20.0201 18C20.9601 18 21.6601 18.34 21.9901 18.95C22.3101 19.56 22.2101 20.33 21.6801 21.1C21.0201 22.09 20.3401 22.28 19.9001 22.28C19.8301 22.28 19.7701 22.28 19.7101 22.27C19.3001 22.22 18.5501 21.93 18.1201 20.63C17.9001 19.96 17.9801 19.29 18.3401 18.79C18.7001 18.29 19.3101 18 20.0201 18Z" fill="#292D32"/>
</svg>
