<svg viewBox="0 0 24 24" fill="none" xmlns="http://www.w3.org/2000/svg">
<path fill-rule="evenodd" clip-rule="evenodd" d="M9 12.45H14C14.41 12.45 14.75 12.11 14.75 11.7C14.75 11.29 14.41 10.95 14 10.95H9C8.59 10.95 8.25 11.29 8.25 11.7C8.25 12.11 8.59 12.45 9 12.45ZM20.8105 21.8001C20.9405 21.9301 21.1205 22.0001 21.3005 22.0001C21.4805 22.0001 21.6605 21.9301 21.8005 21.8001C22.0705 21.5201 22.0705 21.0801 21.8005 20.8101L19.9405 18.9501C19.6605 18.6801 19.2205 18.6801 18.9505 18.9501C18.6805 19.2301 18.6805 19.6701 18.9505 19.9401L20.8105 21.8001Z" fill="#292D32"/>
<path opacity="0.4" d="M11.5 21C16.7467 21 21 16.7467 21 11.5C21 6.25329 16.7467 2 11.5 2C6.25329 2 2 6.25329 2 11.5C2 16.7467 6.25329 21 11.5 21Z" fill="#292D32"/>
</svg>
