<svg viewBox="0 0 24 24" fill="none" xmlns="http://www.w3.org/2000/svg">
<path fill-rule="evenodd" clip-rule="evenodd" d="M2 11.5C2 6.26 6.26 2 11.5 2C16.74 2 21 6.26 21 11.5C21 16.74 16.74 21 11.5 21C6.26 21 2 16.74 2 11.5ZM8.25 11.7C8.25 12.11 8.59 12.45 9 12.45H14C14.41 12.45 14.75 12.11 14.75 11.7C14.75 11.29 14.41 10.95 14 10.95H9C8.59 10.95 8.25 11.29 8.25 11.7ZM20.8105 21.7986C20.9405 21.9286 21.1205 21.9986 21.3005 21.9986C21.4805 21.9986 21.6605 21.9286 21.8005 21.7986C22.0705 21.5186 22.0705 21.0786 21.8005 20.8086L19.9405 18.9486C19.6605 18.6786 19.2205 18.6786 18.9505 18.9486C18.6805 19.2286 18.6805 19.6686 18.9505 19.9386L20.8105 21.7986Z" fill="#292D32"/>
</svg>
