<svg viewBox="0 0 24 24" fill="none" xmlns="http://www.w3.org/2000/svg">
<path fill-rule="evenodd" clip-rule="evenodd" d="M14 10.25H8C7.59 10.25 7.25 9.91 7.25 9.5C7.25 9.09 7.59 8.75 8 8.75H14C14.41 8.75 14.75 9.09 14.75 9.5C14.75 9.91 14.41 10.25 14 10.25ZM11 13.25H8C7.59 13.25 7.25 12.91 7.25 12.5C7.25 12.09 7.59 11.75 8 11.75H11C11.41 11.75 11.75 12.09 11.75 12.5C11.75 12.91 11.41 13.25 11 13.25ZM20.0201 18C20.9601 18 21.6601 18.34 21.9901 18.95C22.3101 19.56 22.2101 20.33 21.6801 21.1C21.0201 22.09 20.3401 22.28 19.9001 22.28C19.8301 22.28 19.7701 22.28 19.7101 22.27C19.3001 22.22 18.5501 21.93 18.1201 20.63C17.9001 19.96 17.9801 19.29 18.3401 18.79C18.7001 18.29 19.3101 18 20.0201 18Z" fill="#292D32"/>
<path opacity="0.4" d="M11.0002 20.01C15.9763 20.01 20.0102 15.9761 20.0102 11C20.0102 6.0239 15.9763 1.98999 11.0002 1.98999C6.02415 1.98999 1.99023 6.0239 1.99023 11C1.99023 15.9761 6.02415 20.01 11.0002 20.01Z" fill="#292D32"/>
</svg>
