<svg viewBox="0 0 24 24" fill="none" xmlns="http://www.w3.org/2000/svg">
<path fill-rule="evenodd" clip-rule="evenodd" d="M1.25 11C1.25 16.38 5.62 20.75 11 20.75C16.38 20.75 20.75 16.38 20.75 11C20.75 5.62 16.38 1.25 11 1.25C5.62 1.25 1.25 5.62 1.25 11ZM2.75 11C2.75 6.45 6.45 2.75 11 2.75C15.55 2.75 19.25 6.45 19.25 11C19.25 15.55 15.55 19.25 11 19.25C6.45 19.25 2.75 15.55 2.75 11ZM7.75 11C7.75 11.41 8.09 11.75 8.5 11.75H10.25V13.5C10.25 13.91 10.59 14.25 11 14.25C11.41 14.25 11.75 13.91 11.75 13.5V11.75H13.5C13.91 11.75 14.25 11.41 14.25 11C14.25 10.59 13.91 10.25 13.5 10.25H11.75V8.5C11.75 8.09 11.41 7.75 11 7.75C10.59 7.75 10.25 8.09 10.25 8.5V10.25H8.5C8.09 10.25 7.75 10.59 7.75 11ZM19.9301 22.77C20.0001 22.78 20.0801 22.79 20.1601 22.79C20.6601 22.79 21.4301 22.57 22.1401 21.5C22.7101 20.65 22.8101 19.77 22.4501 19.08C22.0901 18.39 21.2901 18 20.2701 18C19.4801 18 18.7901 18.32 18.3801 18.89C17.9701 19.46 17.8801 20.21 18.1301 20.96C18.6101 22.39 19.4601 22.71 19.9301 22.77ZM20.1301 21.29C19.9701 21.27 19.7301 21.01 19.5601 20.49C19.4601 20.2 19.4801 19.94 19.6001 19.77C19.7301 19.6 19.9601 19.5 20.2701 19.5C20.7901 19.5 21.0701 19.65 21.1401 19.79C21.2101 19.93 21.1901 20.24 20.9001 20.67C20.5901 21.12 20.2901 21.31 20.1301 21.29Z" fill="#292D32"/>
</svg>
