<svg viewBox="0 0 24 24" fill="none" xmlns="http://www.w3.org/2000/svg">
<path fill-rule="evenodd" clip-rule="evenodd" d="M21.5 12C21.5 17.2467 17.2467 21.5 12 21.5C6.75329 21.5 2.5 17.2467 2.5 12C2.5 6.75329 6.75329 2.5 12 2.5C17.2467 2.5 21.5 6.75329 21.5 12ZM20.8105 21.7986C20.9405 21.9286 21.1205 21.9986 21.3005 21.9986C21.4805 21.9986 21.6605 21.9286 21.8005 21.7986C22.0705 21.5186 22.0705 21.0786 21.8005 20.8086L19.9405 18.9486C19.6605 18.6786 19.2205 18.6786 18.9505 18.9486C18.6805 19.2286 18.6805 19.6686 18.9505 19.9386L20.8105 21.7986Z" fill="#292D32"/>
</svg>
