<svg viewBox="0 0 24 24" fill="none" xmlns="http://www.w3.org/2000/svg">
<path fill-rule="evenodd" clip-rule="evenodd" d="M11.5 21.75C5.85 21.75 1.25 17.15 1.25 11.5C1.25 5.85 5.85 1.25 11.5 1.25C17.15 1.25 21.75 5.85 21.75 11.5C21.75 17.15 17.15 21.75 11.5 21.75ZM11.5 2.75C6.67 2.75 2.75 6.68 2.75 11.5C2.75 16.32 6.67 20.25 11.5 20.25C16.33 20.25 20.25 16.32 20.25 11.5C20.25 6.68 16.33 2.75 11.5 2.75ZM10.9502 14.2C10.9502 14.61 11.2902 14.95 11.7002 14.95C12.1102 14.95 12.4502 14.61 12.4502 14.2V12.45H14.2002C14.6102 12.45 14.9502 12.11 14.9502 11.7C14.9502 11.29 14.6102 10.95 14.2002 10.95H12.4502V9.19995C12.4502 8.78995 12.1102 8.44995 11.7002 8.44995C11.2902 8.44995 10.9502 8.78995 10.9502 9.19995V10.95H9.2002C8.7902 10.95 8.4502 11.29 8.4502 11.7C8.4502 12.11 8.7902 12.45 9.2002 12.45H10.9502V14.2ZM21.4704 22.5299C21.6204 22.6799 21.8104 22.7499 22.0004 22.7499C22.1904 22.7499 22.3804 22.6799 22.5304 22.5299C22.8204 22.2399 22.8204 21.7599 22.5304 21.4699L20.5304 19.4699C20.2404 19.1799 19.7604 19.1799 19.4704 19.4699C19.1804 19.7599 19.1804 20.2399 19.4704 20.5299L21.4704 22.5299Z" fill="#292D32"/>
</svg>
