<svg viewBox="0 0 24 24" fill="none" xmlns="http://www.w3.org/2000/svg">
<path fill-rule="evenodd" clip-rule="evenodd" d="M2 11.5C2 6.26 6.26 2 11.5 2C16.74 2 21 6.26 21 11.5C21 16.74 16.74 21 11.5 21C6.26 21 2 16.74 2 11.5ZM8.5 13.75H11.5C11.91 13.75 12.25 13.41 12.25 13C12.25 12.59 11.91 12.25 11.5 12.25H8.5C8.09 12.25 7.75 12.59 7.75 13C7.75 13.41 8.09 13.75 8.5 13.75ZM8.5 10.75H14.5C14.91 10.75 15.25 10.41 15.25 10C15.25 9.59 14.91 9.25 14.5 9.25H8.5C8.09 9.25 7.75 9.59 7.75 10C7.75 10.41 8.09 10.75 8.5 10.75ZM20.8105 21.7986C20.9405 21.9286 21.1205 21.9986 21.3005 21.9986C21.4805 21.9986 21.6605 21.9286 21.8005 21.7986C22.0705 21.5186 22.0705 21.0786 21.8005 20.8086L19.9405 18.9486C19.6605 18.6786 19.2205 18.6786 18.9505 18.9486C18.6805 19.2286 18.6805 19.6686 18.9505 19.9386L20.8105 21.7986Z" fill="#292D32"/>
</svg>
