<svg viewBox="0 0 24 24" fill="none" xmlns="http://www.w3.org/2000/svg">
<path fill-rule="evenodd" clip-rule="evenodd" d="M1.99023 10.9983C1.99023 6.02828 6.03023 1.98828 11.0002 1.98828C15.9702 1.98828 20.0102 6.02828 20.0102 10.9983C20.0102 15.9683 15.9702 20.0083 11.0002 20.0083C6.03023 20.0083 1.99023 15.9683 1.99023 10.9983ZM8.00023 13.2483H11.0002C11.4102 13.2483 11.7502 12.9083 11.7502 12.4983C11.7502 12.0883 11.4102 11.7483 11.0002 11.7483H8.00023C7.59023 11.7483 7.25023 12.0883 7.25023 12.4983C7.25023 12.9083 7.59023 13.2483 8.00023 13.2483ZM8.00023 10.2483H14.0002C14.4102 10.2483 14.7502 9.90828 14.7502 9.49828C14.7502 9.08828 14.4102 8.74828 14.0002 8.74828H8.00023C7.59023 8.74828 7.25023 9.08828 7.25023 9.49828C7.25023 9.90828 7.59023 10.2483 8.00023 10.2483ZM20.0201 18C20.9601 18 21.6601 18.34 21.9901 18.95C22.3101 19.56 22.2101 20.33 21.6801 21.1C21.0201 22.09 20.3401 22.28 19.9001 22.28C19.8301 22.28 19.7701 22.28 19.7101 22.27C19.3001 22.22 18.5501 21.93 18.1201 20.63C17.9001 19.96 17.9801 19.29 18.3401 18.79C18.7001 18.29 19.3101 18 20.0201 18Z" fill="#292D32"/>
</svg>
