<svg viewBox="0 0 24 24" fill="none" xmlns="http://www.w3.org/2000/svg">
<path fill-rule="evenodd" clip-rule="evenodd" d="M11.5 21.95C5.85 21.95 1.25 17.35 1.25 11.7C1.25 6.04995 5.85 1.44995 11.5 1.44995C17.15 1.44995 21.75 6.04995 21.75 11.7C21.75 17.35 17.15 21.95 11.5 21.95ZM11.5 2.94995C6.67 2.94995 2.75 6.87995 2.75 11.7C2.75 16.52 6.67 20.45 11.5 20.45C16.33 20.45 20.25 16.52 20.25 11.7C20.25 6.87995 16.33 2.94995 11.5 2.94995ZM9 12.45C8.59 12.45 8.25 12.11 8.25 11.7C8.25 11.29 8.59 10.95 9 10.95H14C14.41 10.95 14.75 11.29 14.75 11.7C14.75 12.11 14.41 12.45 14 12.45H9ZM21.4704 22.5299C21.6204 22.6799 21.8104 22.7499 22.0004 22.7499C22.1904 22.7499 22.3804 22.6799 22.5304 22.5299C22.8204 22.2399 22.8204 21.7599 22.5304 21.4699L20.5304 19.4699C20.2404 19.1799 19.7604 19.1799 19.4704 19.4699C19.1804 19.7599 19.1804 20.2399 19.4704 20.5299L21.4704 22.5299Z" fill="#292D32"/>
</svg>
