<svg viewBox="0 0 24 24" fill="none" xmlns="http://www.w3.org/2000/svg">
<path fill-rule="evenodd" clip-rule="evenodd" d="M11.5 21.75C5.85 21.75 1.25 17.15 1.25 11.5C1.25 5.85 5.85 1.25 11.5 1.25C11.91 1.25 12.25 1.59 12.25 2C12.25 2.41 11.91 2.75 11.5 2.75C6.67 2.75 2.75 6.68 2.75 11.5C2.75 16.32 6.67 20.25 11.5 20.25C16.33 20.25 20.25 16.32 20.25 11.5C20.25 11.09 20.59 10.75 21 10.75C21.41 10.75 21.75 11.09 21.75 11.5C21.75 17.15 17.15 21.75 11.5 21.75ZM14 5.75H20C20.41 5.75 20.75 5.41 20.75 5C20.75 4.59 20.41 4.25 20 4.25H14C13.59 4.25 13.25 4.59 13.25 5C13.25 5.41 13.59 5.75 14 5.75ZM14 8.75H17C17.41 8.75 17.75 8.41 17.75 8C17.75 7.59 17.41 7.25 17 7.25H14C13.59 7.25 13.25 7.59 13.25 8C13.25 8.41 13.59 8.75 14 8.75ZM21.4704 22.5299C21.6204 22.6799 21.8104 22.7499 22.0004 22.7499C22.1904 22.7499 22.3804 22.6799 22.5304 22.5299C22.8204 22.2399 22.8204 21.7599 22.5304 21.4699L20.5304 19.4699C20.2404 19.1799 19.7604 19.1799 19.4704 19.4699C19.1804 19.7599 19.1804 20.2399 19.4704 20.5299L21.4704 22.5299Z" fill="#292D32"/>
</svg>
