<svg viewBox="0 0 24 24" fill="none" xmlns="http://www.w3.org/2000/svg">
<path fill-rule="evenodd" clip-rule="evenodd" d="M7.25 11.5C7.25 14.12 9.38 16.25 12 16.25C14.62 16.25 16.75 14.12 16.75 11.5C16.75 8.88 14.62 6.75 12 6.75C9.38 6.75 7.25 8.88 7.25 11.5ZM8.75 11.5C8.75 9.71 10.21 8.25 12 8.25C13.79 8.25 15.25 9.71 15.25 11.5C15.25 13.29 13.79 14.75 12 14.75C10.21 14.75 8.75 13.29 8.75 11.5ZM10.3599 12.89C10.4999 13.12 10.7499 13.25 10.9999 13.25C11.1299 13.25 11.2699 13.22 11.3799 13.14L12.1499 12.68C12.6699 12.37 12.9999 11.79 12.9999 11.18V10.25C12.9999 9.84001 12.6599 9.51001 12.2499 9.51001C11.8399 9.51001 11.4999 9.85001 11.4999 10.26V11.19C11.4999 11.27 11.4599 11.35 11.3799 11.4L10.6199 11.86C10.2599 12.07 10.1499 12.53 10.3599 12.89Z" fill="#292D32"/>
<path opacity="0.4" d="M10.9608 2.10989L5.46078 4.16989C4.41078 4.56989 3.55078 5.80989 3.55078 6.93989V15.0399C3.55078 15.8499 4.08078 16.9199 4.73078 17.3999L10.2308 21.5099C11.2008 22.2399 12.7908 22.2399 13.7608 21.5099L19.2608 17.3999C19.9108 16.9099 20.4408 15.8499 20.4408 15.0399V6.93989C20.4408 5.81989 19.5808 4.56988 18.5308 4.17988L13.0308 2.11989C12.4708 1.89989 11.5308 1.89989 10.9608 2.10989Z" fill="#292D32"/>
</svg>