<svg viewBox="0 0 24 24" fill="none" xmlns="http://www.w3.org/2000/svg">
<path fill-rule="evenodd" clip-rule="evenodd" d="M13.0408 2.16141L18.5408 4.22141C19.5908 4.62141 20.4508 5.86141 20.4408 6.99141V15.0914C20.4408 15.9014 19.9108 16.9614 19.2608 17.4514L13.7608 21.5614C12.7908 22.2914 11.2008 22.2914 10.2308 21.5614L4.73078 17.4514C4.08078 16.9714 3.55078 15.9014 3.55078 15.0914V6.99141C3.55078 5.86141 4.41078 4.62141 5.47078 4.22141L10.9708 2.16141C11.5408 1.95141 12.4708 1.95141 13.0408 2.16141ZM15.4308 16.2414C17.5808 16.2414 18.1508 15.7214 18.1708 13.6514V11.2014C18.1708 10.9214 17.9508 10.7014 17.6708 10.7014H6.34078C6.06078 10.7014 5.84078 10.9214 5.84078 11.2014V13.5314C5.84078 15.7014 6.39078 16.2414 8.58078 16.2414H15.4308ZM17.6708 9.61141C17.9508 9.61141 18.1708 9.39141 18.1708 9.11141V8.47141C18.1708 6.30141 17.6208 5.76141 15.4308 5.76141H8.58078C8.47815 5.76141 8.37815 5.76404 8.28078 5.7666C8.18841 5.76904 8.09841 5.77141 8.01078 5.77141C6.30078 5.88141 5.84078 6.51141 5.84078 8.47141V9.11141C5.84078 9.39141 6.06078 9.61141 6.34078 9.61141H17.6708ZM9.43844 13.3789H8.18844C7.88844 13.3789 7.64844 13.6189 7.64844 13.9189C7.64844 14.2189 7.88844 14.4589 8.18844 14.4589H9.43844C9.73844 14.4589 9.97844 14.2189 9.97844 13.9189C9.97844 13.6189 9.73844 13.3789 9.43844 13.3789ZM13.4909 13.3789H11.0009C10.7009 13.3789 10.4609 13.6189 10.4609 13.9189C10.4609 14.2189 10.7009 14.4589 11.0009 14.4589H13.4909C13.7909 14.4589 14.0309 14.2189 14.0309 13.9189C14.0309 13.6189 13.7909 13.3789 13.4909 13.3789Z" fill="#292D32"/>
</svg>
