<svg viewBox="0 0 24 24" fill="none" xmlns="http://www.w3.org/2000/svg">
<path fill-rule="evenodd" clip-rule="evenodd" d="M10.5598 22.7097C9.47977 22.7097 8.38977 22.3997 7.54977 21.7697L3.26978 18.5697C2.13978 17.7297 1.25977 15.9597 1.25977 14.5397V7.12973C1.25977 5.59973 2.37978 3.96972 3.81978 3.42972L8.79977 1.55973C9.78977 1.18973 11.3398 1.18973 12.3298 1.55973L17.2998 3.42972C18.2998 3.80579 19.1683 4.71511 19.5993 5.78309C21.9431 5.90368 22.7508 6.87591 22.7508 9.42004V11.2197V14.97C22.7308 17.61 21.8008 18.5 19.0608 18.5H17.9488C17.9201 18.5239 17.8907 18.5472 17.8598 18.5697L13.5798 21.7797C12.7198 22.3997 11.6398 22.7097 10.5598 22.7097ZM17.6911 17H19.0608C20.9708 17 21.2308 16.75 21.2508 14.97V11.9697H9.55977V14.8497C9.55977 16.7597 9.80977 16.9997 11.7498 16.9997H17.6698C17.6769 16.9997 17.684 16.9998 17.6911 17ZM21.2508 10.4697V9.43002C21.2508 7.52002 21.0008 7.28003 19.0608 7.28003H11.7408V7.27897L11.1499 7.27972L11.1365 7.27994C9.86923 7.36009 9.55977 7.57134 9.55977 9.41974V10.4697H21.2508ZM8.09303 8.48865C8.25703 6.90067 8.95234 5.91527 11.0908 5.78003L11.7408 5.77002H17.883C17.5837 5.34461 17.1866 5.00853 16.7698 4.84974L11.7998 2.97974C11.4598 2.84974 11.0098 2.78974 10.5598 2.78974C10.1098 2.78974 9.64978 2.84974 9.31978 2.97974L4.33977 4.84974C3.49977 5.16973 2.74977 6.23972 2.74977 7.14972V14.5597C2.74977 15.4997 3.40977 16.8197 4.15977 17.3797L8.43977 20.5797C9.58977 21.4297 11.5198 21.4297 12.6698 20.5797L15.4398 18.5097H11.7398C8.97978 18.5097 8.04977 17.5897 8.04977 14.8597V9.42972C8.04977 9.09641 8.06226 8.78219 8.09303 8.48865ZM12.6505 16.0098H11.3105C10.9005 16.0098 10.5605 15.6698 10.5605 15.2598C10.5605 14.8498 10.9005 14.5098 11.3105 14.5098H12.6505C13.0605 14.5098 13.4005 14.8498 13.4005 15.2598C13.4005 15.6698 13.0705 16.0098 12.6505 16.0098ZM14.75 16.0098H18.02C18.44 16.0098 18.77 15.6698 18.77 15.2598C18.77 14.8498 18.43 14.5098 18.02 14.5098H14.75C14.34 14.5098 14 14.8498 14 15.2598C14 15.6698 14.34 16.0098 14.75 16.0098Z" fill="#292D32"/>
</svg>
