<svg viewBox="0 0 24 24" fill="none" xmlns="http://www.w3.org/2000/svg">
<path fill-rule="evenodd" clip-rule="evenodd" d="M6.58813 17.41L18.3281 5.67C18.8281 5.17 18.6581 4.31 17.9981 4.04L13.9481 2.39C12.6881 1.87 11.2881 1.87 10.0281 2.39L4.45813 4.67C3.69813 4.98 3.07812 5.91 3.07812 6.73V11.12C3.07812 13.32 3.80813 15.46 5.04813 17.27C5.40813 17.79 6.14813 17.85 6.58813 17.41ZM20.91 7.81158C20.91 6.96159 19.92 6.49158 19.27 7.04158C16.06 9.75159 9.68001 16.2516 7.50001 18.4816C7.08001 18.9116 7.13001 19.6116 7.61001 19.9816C8.74001 20.8616 10.06 21.5316 11.48 21.9316C11.82 22.0216 12.18 22.0216 12.51 21.9316C17.36 20.5916 20.91 16.0116 20.91 11.1216V7.81158Z" fill="#292D32"/>
</svg>
