<svg viewBox="0 0 24 24" fill="none" xmlns="http://www.w3.org/2000/svg">
<path fill-rule="evenodd" clip-rule="evenodd" d="M12.4102 6.75977H19.2601C21.4501 6.75977 22.0002 7.29978 22.0002 9.45978V9.84978C22.0002 10.264 21.6644 10.5998 21.2502 10.5998H10.4102C9.99594 10.5998 9.66016 10.264 9.66016 9.84978V9.45978C9.66016 7.49978 10.1201 6.86978 11.8401 6.76978C11.9278 6.76978 12.0178 6.7674 12.1102 6.76497C12.2075 6.7624 12.3075 6.75977 12.4102 6.75977ZM9.66992 12.4502C9.66992 12.036 10.0057 11.7002 10.4199 11.7002H21.2499C21.6641 11.7002 21.9999 12.036 21.9999 12.4502V14.6602C21.9799 16.7302 21.4099 17.2502 19.2599 17.2502H12.4099C10.2199 17.2502 9.66992 16.7002 9.66992 14.5402V12.4502ZM12.0199 15.4702H13.2699C13.5699 15.4702 13.8099 15.2302 13.8099 14.9302C13.8099 14.6302 13.5699 14.3902 13.2699 14.3902H12.0199C11.7199 14.3902 11.4799 14.6302 11.4799 14.9302C11.4799 15.2302 11.7199 15.4702 12.0199 15.4702ZM14.8299 15.4702H17.3199C17.6199 15.4702 17.8699 15.2302 17.8599 14.9302C17.8599 14.6302 17.6199 14.3902 17.3199 14.3902H14.8299C14.5299 14.3902 14.2899 14.6302 14.2899 14.9302C14.2899 15.2302 14.5299 15.4702 14.8299 15.4702Z" fill="#292D32"/>
<path opacity="0.4" d="M9.41977 2.15994L3.91977 4.21994C2.86977 4.60994 2.00977 5.85993 2.00977 6.97993V15.0799C2.00977 15.8899 2.53977 16.9599 3.18977 17.4399L8.68977 21.5499C9.65977 22.2799 11.2498 22.2799 12.2198 21.5499L17.7198 17.4399C18.3698 16.9499 18.8998 15.8899 18.8998 15.0799V6.97993C18.8998 5.85993 18.0398 4.60994 16.9898 4.21994L11.4898 2.15994C10.9198 1.94994 9.98977 1.94994 9.41977 2.15994Z" fill="#292D32"/>
</svg>
