<svg viewBox="0 0 24 24" fill="none" xmlns="http://www.w3.org/2000/svg">
<path fill-rule="evenodd" clip-rule="evenodd" d="M13.0408 2.11063L18.5408 4.17063C19.5908 4.57063 20.4508 5.81063 20.4408 6.94063V15.0406C20.4408 15.8506 19.9108 16.9106 19.2608 17.4006L13.7608 21.5106C12.7908 22.2406 11.2008 22.2406 10.2308 21.5106L4.73078 17.4006C4.08078 16.9206 3.55078 15.8506 3.55078 15.0406V6.94063C3.55078 5.81063 4.41078 4.57063 5.47078 4.17063L10.9708 2.11063C11.5408 1.90062 12.4708 1.90062 13.0408 2.11063ZM7.25078 11.5006C7.25078 14.1206 9.38078 16.2506 12.0008 16.2506C14.6208 16.2506 16.7508 14.1206 16.7508 11.5006C16.7508 8.88062 14.6208 6.75063 12.0008 6.75063C9.38078 6.75063 7.25078 8.88062 7.25078 11.5006ZM8.75 11.5C8.75 9.71 10.21 8.25 12 8.25C13.79 8.25 15.25 9.71 15.25 11.5C15.25 13.29 13.79 14.75 12 14.75C10.21 14.75 8.75 13.29 8.75 11.5ZM12.15 12.68C12.67 12.37 13 11.79 13 11.18V10.25C13 9.84 12.65 9.51 12.24 9.51C11.83 9.51 11.49 9.85 11.49 10.26V11.19C11.49 11.27 11.45 11.35 11.37 11.4L10.61 11.86C10.25 12.07 10.14 12.53 10.35 12.89C10.49 13.12 10.74 13.25 10.99 13.25C11.13 13.25 11.26 13.21 11.38 13.14L12.15 12.68Z" fill="#292D32"/>
</svg>
