<svg viewBox="0 0 24 24" fill="none" xmlns="http://www.w3.org/2000/svg">
<path fill-rule="evenodd" clip-rule="evenodd" d="M10.0509 16.8301C11.3709 20.8001 13.0409 21.6301 14.2209 21.6301C15.4009 21.6301 17.0709 20.8001 18.4009 16.8201L21.2309 8.33007C21.9409 6.21007 21.7309 4.43007 20.6409 3.35007C19.5509 2.27007 17.7809 2.06007 15.6609 2.77007L7.17086 5.60007C3.21086 6.93007 2.38086 8.61007 2.38086 9.78007C2.38086 10.9601 3.21086 12.6301 7.17086 13.9501L9.33086 14.6701L10.0509 16.8301ZM3.87086 9.78007C3.87086 9.06007 4.86086 7.96007 7.64086 7.03007L16.1309 4.19007C17.6609 3.68007 18.9209 3.76007 19.5709 4.41007C20.2209 5.06007 20.3109 6.32007 19.8009 7.86007L16.9709 16.3501C16.0409 19.1301 14.9409 20.1201 14.2209 20.1201C13.5009 20.1201 12.3909 19.1301 11.4709 16.3501L10.7208 14.0998L14.2208 10.59C14.5108 10.3 14.5108 9.82 14.2208 9.53C13.9308 9.24 13.4508 9.24 13.1608 9.53L9.58078 13.12C9.56921 13.1316 9.5581 13.1434 9.54745 13.1556L7.64086 12.5201C4.86086 11.6001 3.87086 10.5001 3.87086 9.78007Z" fill="#292D32"/>
</svg>
