<svg viewBox="0 0 24 24" fill="none" xmlns="http://www.w3.org/2000/svg">
<path fill-rule="evenodd" clip-rule="evenodd" d="M4.25 13.77C4.25 14.18 4.59 14.52 5 14.52C5.41 14.52 5.75 14.18 5.75 13.77V5.31049L18.4695 18.0299C18.6195 18.1799 18.8095 18.2499 18.9995 18.2499C19.1895 18.2499 19.3795 18.1799 19.5294 18.0299C19.8195 17.7399 19.8195 17.2599 19.5294 16.9699L6.80951 4.25H15.27C15.68 4.25 16.02 3.91 16.02 3.5C16.02 3.09 15.68 2.75 15.27 2.75H5C4.89615 2.75 4.79679 2.77181 4.70632 2.81105C4.6199 2.84725 4.53918 2.90021 4.46945 2.96994C4.39433 3.04507 4.33866 3.13295 4.30246 3.22697C4.26864 3.31183 4.25 3.404 4.25 3.5V13.77ZM20.5 22.75H3.5C3.09 22.75 2.75 22.41 2.75 22C2.75 21.59 3.09 21.25 3.5 21.25H20.5C20.91 21.25 21.25 21.59 21.25 22C21.25 22.41 20.91 22.75 20.5 22.75Z" fill="#292D32"/>
</svg>
