<svg viewBox="0 0 24 24" fill="none" xmlns="http://www.w3.org/2000/svg">
<path fill-rule="evenodd" clip-rule="evenodd" d="M3.12995 20.9199C3.57995 21.3699 4.28995 21.7499 5.40995 21.7499C6.46995 21.7499 7.90995 21.4099 9.84995 20.4399L18.4099 16.1599C20.5299 15.0999 21.6999 13.6199 21.6999 11.9999C21.6999 10.3799 20.5299 8.8999 18.3999 7.8399L9.83995 3.5599C5.87995 1.5699 3.99995 2.1999 3.12995 3.0799C2.24995 3.9499 1.61995 5.8299 3.60995 9.7999L4.47995 11.5299C4.58995 11.7599 4.58995 12.2399 4.47995 12.4699L3.60995 14.1999C1.62995 18.1699 2.24995 20.0399 3.12995 20.9199ZM4.18995 4.1399C4.44995 3.8799 4.86995 3.7499 5.40995 3.7499C6.33995 3.7499 7.64995 4.1399 9.16995 4.8999L17.7299 9.1699C19.2999 9.9499 20.1999 10.9799 20.1999 11.9899C20.1999 12.9999 19.3099 14.0299 17.7399 14.8099L9.17995 19.0899C6.77995 20.2899 4.90995 20.5799 4.18995 19.8499C3.45995 19.1299 3.74995 17.2699 4.94995 14.8699L5.81995 13.1399C5.87907 13.0198 5.92727 12.8885 5.96454 12.75H10.8395C11.2495 12.75 11.5895 12.41 11.5895 12C11.5895 11.59 11.2495 11.25 10.8395 11.25H5.9646C5.92731 11.1115 5.8791 10.98 5.81995 10.8599L4.94995 9.1199C3.74995 6.7299 3.45995 4.8599 4.18995 4.1399Z" fill="#292D32"/>
</svg>
