<svg viewBox="0 0 24 24" fill="none" xmlns="http://www.w3.org/2000/svg">
<path fill-rule="evenodd" clip-rule="evenodd" d="M4.19922 13.7002C4.19922 14.2002 4.59922 14.5002 4.99922 14.5002C5.39922 14.5002 5.79922 14.2002 5.79922 13.8002V5.30117L18.4984 18.0004C18.5984 18.1004 18.7984 18.2004 18.9984 18.2004C19.1984 18.2004 19.3984 18.2004 19.5984 18.1004C19.8984 17.8004 19.8984 17.3004 19.5984 17.0004L6.89824 4.3002H15.2992C15.7992 4.3002 16.0992 4.0002 16.0992 3.5002C16.0992 3.0002 15.6992 2.7002 15.2992 2.7002H4.99922C4.49922 2.7002 4.19922 3.1002 4.19922 3.5002V13.7002Z" fill="#292D32"/>
<path opacity="0.4" d="M20.4992 22.8002H3.49922C3.09922 22.8002 2.69922 22.5002 2.69922 22.0002C2.69922 21.5002 2.99922 21.2002 3.49922 21.2002H20.4992C20.8992 21.2002 21.2992 21.5002 21.2992 22.0002C21.2992 22.5002 20.8992 22.8002 20.4992 22.8002Z" fill="#292D32"/>
</svg>
