<svg viewBox="0 0 24 24" fill="none" xmlns="http://www.w3.org/2000/svg">
<path fill-rule="evenodd" clip-rule="evenodd" d="M15 22.75C20.43 22.75 22.75 20.43 22.75 15V9C22.75 3.57 20.43 1.25 15 1.25H9C3.57 1.25 1.25 3.57 1.25 9V15C1.25 20.43 3.57 22.75 9 22.75H15ZM2.75 9C2.75 4.39 4.39 2.75 9 2.75H15C19.61 2.75 21.25 4.39 21.25 9V15C21.25 19.61 19.61 21.25 15 21.25H9C4.39 21.25 2.75 19.61 2.75 15V9ZM14.4695 10.0399C14.6195 10.1899 14.8095 10.26 14.9995 10.26C15.1895 10.26 15.3795 10.1899 15.5295 10.0399C15.8195 9.74995 15.8195 9.26995 15.5295 8.97995L12.5295 5.97995C12.4695 5.92 12.4014 5.87244 12.3286 5.83728C12.229 5.78788 12.1174 5.76001 12 5.76001C11.8962 5.76001 11.7968 5.78182 11.7063 5.82106C11.6199 5.85725 11.5392 5.91022 11.4695 5.97995L8.46945 8.97995C8.17945 9.26995 8.17945 9.74995 8.46945 10.0399C8.75945 10.3299 9.23945 10.3299 9.52945 10.0399L11.25 8.31941V14.51C11.25 14.92 11.59 15.26 12 15.26C12.41 15.26 12.75 14.93 12.75 14.51V8.32051L14.4695 10.0399ZM5.76043 17.2202C7.77043 17.8902 9.89044 18.2302 12.0004 18.2302C14.1104 18.2302 16.2304 17.9002 18.2504 17.2202C18.6404 17.0902 18.8504 16.6602 18.7204 16.2702C18.5904 15.8802 18.1604 15.6702 17.7704 15.8002C14.0504 17.0402 9.96045 17.0402 6.24045 15.8002C5.85045 15.6602 5.42043 15.8802 5.29043 16.2702C5.16043 16.6602 5.37043 17.0902 5.76043 17.2202Z" fill="#292D32"/>
</svg>
