<svg viewBox="0 0 24 24" fill="none" xmlns="http://www.w3.org/2000/svg">
<path fill-rule="evenodd" clip-rule="evenodd" d="M9.70155 13.8699C9.55155 14.0199 9.36156 14.0899 9.17156 14.0899C8.98156 14.0899 8.79156 14.0199 8.63156 13.8599C8.34156 13.5699 8.34156 13.0899 8.63156 12.7999L13.0116 8.41992H10.5816C10.1716 8.41992 9.83156 8.07992 9.83156 7.66992C9.83156 7.25992 10.1716 6.91992 10.5816 6.91992H14.8216C14.9216 6.91992 15.0216 6.93993 15.1116 6.97993C15.3016 7.05993 15.4416 7.20992 15.5216 7.38992C15.5616 7.48992 15.5816 7.57992 15.5816 7.67992V11.9199C15.5816 12.3299 15.2416 12.6699 14.8316 12.6699C14.4216 12.6699 14.0816 12.3299 14.0816 11.9199V9.48992L9.70155 13.8699ZM17.7607 15.81C18.1607 15.68 18.5807 15.89 18.7107 16.28C18.8407 16.67 18.6307 17.09 18.2307 17.23C16.2207 17.9 14.1107 18.24 11.9907 18.24C9.87067 18.24 7.76067 17.9 5.75067 17.23C5.36067 17.1 5.15067 16.67 5.28067 16.28C5.41067 15.89 5.84066 15.68 6.23066 15.81C9.95066 17.05 14.0407 17.05 17.7607 15.81Z" fill="#292D32"/>
<path opacity="0.4" d="M16.1898 2H7.81978C4.17978 2 2.00977 4.17 2.00977 7.81V16.18C2.00977 19.82 4.17978 21.99 7.81978 21.99H16.1898C19.8298 21.99 21.9998 19.82 21.9998 16.18V7.81C21.9998 4.17 19.8298 2 16.1898 2Z" fill="#292D32"/>
</svg>
