<svg viewBox="0 0 24 24" fill="none" xmlns="http://www.w3.org/2000/svg">
<path fill-rule="evenodd" clip-rule="evenodd" d="M9 22.75H15C20.43 22.75 22.75 20.43 22.75 15V9C22.75 3.57 20.43 1.25 15 1.25H9C3.57 1.25 1.25 3.57 1.25 9V15C1.25 20.43 3.57 22.75 9 22.75ZM2.75 9C2.75 4.39 4.39 2.75 9 2.75H15C19.61 2.75 21.25 4.39 21.25 9V15C21.25 19.61 19.61 21.25 15 21.25H9C4.39 21.25 2.75 19.61 2.75 15V9ZM14.0798 11.9299C14.0798 12.3399 14.4198 12.6799 14.8298 12.6799C15.2398 12.6799 15.5798 12.3399 15.5798 11.9299V7.68994C15.5798 7.63089 15.5728 7.57329 15.5595 7.51795C15.5301 7.38259 15.4634 7.25413 15.3594 7.15012C15.1878 6.97851 14.9496 6.90845 14.7237 6.93994H10.5898C10.1798 6.93994 9.83984 7.27994 9.83984 7.68994C9.83984 8.09994 10.1798 8.43994 10.5898 8.43994H13.0096L8.63937 12.8101C8.34937 13.1001 8.34937 13.5801 8.63937 13.8701C8.78938 14.0201 8.97937 14.0901 9.16937 14.0901C9.35937 14.0901 9.55937 14.0201 9.69937 13.8701L14.0798 9.48965V11.9299ZM5.76043 17.2202C7.77043 17.8902 9.89044 18.2302 12.0004 18.2302C14.1104 18.2302 16.2304 17.9002 18.2504 17.2202C18.6404 17.0902 18.8504 16.6602 18.7204 16.2702C18.5904 15.8802 18.1604 15.6702 17.7704 15.8002C14.0504 17.0402 9.96045 17.0402 6.24045 15.8002C5.85045 15.6602 5.42043 15.8802 5.29043 16.2702C5.16043 16.6602 5.37043 17.0902 5.76043 17.2202Z" fill="#292D32"/>
</svg>
