<svg viewBox="0 0 24 24" fill="none" xmlns="http://www.w3.org/2000/svg">
<path fill-rule="evenodd" clip-rule="evenodd" d="M10.1202 22.1698C10.6502 22.4798 11.3302 22.6298 12.0002 22.6298C12.6702 22.6298 13.3502 22.4798 13.8902 22.1698L19.4302 18.9698C21.6302 17.4798 21.7602 17.2498 21.7602 14.8798V9.1098C21.7602 6.7398 21.6202 6.5098 19.3802 4.9998L13.8602 1.8198C12.8102 1.2098 11.1602 1.2098 10.1102 1.8198L4.57023 5.0198C2.37023 6.5098 2.24023 6.7398 2.24023 9.1098V14.8898C2.24023 17.2598 2.38023 17.4898 4.62023 18.9998L10.1202 22.1698ZM10.8802 3.1198C11.1702 2.9498 11.5802 2.8698 12.0002 2.8698C12.4202 2.8698 12.8302 2.9498 13.1202 3.1198L18.5802 6.2698C19.4716 6.87292 19.8872 7.15414 20.0809 7.54525C20.2502 7.88693 20.2502 8.31248 20.2502 9.1098V14.8798C20.2502 15.6873 20.2502 16.1135 20.0796 16.4543C19.889 16.8351 19.4852 17.1093 18.6302 17.6898L13.1302 20.8698C12.5402 21.2098 11.4702 21.2098 10.8802 20.8698L5.42023 17.7198C3.75023 16.5898 3.75023 16.5898 3.75023 14.8798V9.1098C3.75023 7.3998 3.75023 7.3998 5.38023 6.2998L10.8802 3.1198ZM8.25 12C8.25 14.07 9.93 15.75 12 15.75C14.07 15.75 15.75 14.07 15.75 12C15.75 9.93 14.07 8.25 12 8.25C9.93 8.25 8.25 9.93 8.25 12ZM9.75 12C9.75 10.76 10.76 9.75 12 9.75C13.24 9.75 14.25 10.76 14.25 12C14.25 13.24 13.24 14.25 12 14.25C10.76 14.25 9.75 13.24 9.75 12Z" fill="#292D32"/>
</svg>
