<svg viewBox="0 0 24 24" fill="none" xmlns="http://www.w3.org/2000/svg">
<path fill-rule="evenodd" clip-rule="evenodd" d="M14.58 22.1098C14.79 22.1598 15 22.1898 15.21 22.1898C15.63 22.1898 16.04 22.0798 16.42 21.8698L18.15 20.8798C18.77 20.5298 19.21 19.9598 19.39 19.2698C19.58 18.5898 19.48 17.8698 19.13 17.2598C18.83 16.7498 18.76 16.2898 18.93 15.9998C19.1 15.7098 19.53 15.5398 20.12 15.5398C21.58 15.5398 22.77 14.3498 22.77 12.8898V11.1298C22.77 9.6698 21.58 8.4798 20.12 8.4798C19.53 8.4798 19.1 8.3098 18.93 8.0198C18.76 7.7298 18.84 7.2698 19.13 6.7598C19.48 6.1498 19.57 5.4398 19.39 4.7498C19.2 4.0598 18.76 3.4898 18.15 3.1398L16.43 2.1498C15.29 1.4698 13.8 1.8598 13.12 3.0198L13.01 3.2098C12.42 4.2298 11.61 4.2298 11.02 3.2098L10.9 3.0098C10.22 1.8598 8.73 1.4698 7.6 2.1398L5.87 3.1298C5.25 3.4798 4.81 4.0498 4.63 4.7398C4.45 5.4198 4.54 6.1398 4.89 6.7498C5.19 7.2598 5.26 7.7198 5.09 8.0098C4.92 8.2998 4.49 8.4698 3.9 8.4698C2.44 8.4698 1.25 9.6598 1.25 11.1198V12.8798C1.25 14.3398 2.44 15.5298 3.9 15.5298C4.49 15.5298 4.92 15.6998 5.09 15.9898C5.26 16.2798 5.18 16.7398 4.89 17.2498C4.54 17.8598 4.45 18.5698 4.63 19.2598C4.82 19.9498 5.26 20.5198 5.87 20.8698L7.59 21.8598C8.14 22.1898 8.79 22.2798 9.42 22.1098C10.04 21.9498 10.56 21.5498 10.89 20.9898L11 20.7998C11.59 19.7798 12.4 19.7798 12.99 20.7998L13.11 20.9998C13.44 21.5498 13.96 21.9398 14.58 22.1098ZM14.29 20.0398C13.72 19.0498 12.89 18.4898 12 18.4898C11.11 18.4898 10.28 19.0598 9.71 20.0398L9.6 20.2298C9.47 20.4398 9.27 20.5998 9.03 20.6598C8.8 20.7198 8.55 20.6898 8.34 20.5598L6.61 19.5698C6.35 19.4098 6.16 19.1698 6.08 18.8698C6 18.5698 6.04 18.2598 6.19 17.9998C6.76 17.0198 6.83 16.0098 6.39 15.2398C5.95 14.4698 5.04 14.0298 3.9 14.0298C3.26 14.0298 2.75 13.5098 2.75 12.8798V11.1198C2.75 10.4798 3.26 9.9698 3.9 9.9698C5.04 9.9698 5.95 9.5298 6.39 8.7598C6.83 7.9898 6.76 6.9798 6.19 5.9998C6.04 5.7398 6 5.4298 6.08 5.1298C6.16 4.8298 6.36 4.5798 6.62 4.4298L8.35 3.4298C8.78 3.1798 9.34 3.3298 9.59 3.7498L9.7 3.9498C10.27 4.9398 11.1 5.4998 11.99 5.4998C12.88 5.4998 13.71 4.9398 14.28 3.9498L14.39 3.7598C14.65 3.3198 15.22 3.1698 15.65 3.4298L17.38 4.4198C17.64 4.5798 17.83 4.8198 17.91 5.1198C17.99 5.4198 17.95 5.7298 17.8 5.9898C17.23 6.9698 17.16 7.9798 17.6 8.7498C18.04 9.5198 18.95 9.9598 20.09 9.9598C20.73 9.9598 21.24 10.4798 21.24 11.1098V12.8698C21.24 13.5098 20.73 14.0198 20.09 14.0198C18.95 14.0198 18.04 14.4598 17.6 15.2298C17.16 15.9998 17.23 17.0098 17.8 17.9898C17.95 18.2498 17.99 18.5598 17.91 18.8598C17.83 19.1598 17.63 19.4098 17.37 19.5598L15.64 20.5598C15.44 20.6798 15.2 20.7098 14.96 20.6498C14.72 20.5898 14.52 20.4398 14.4 20.2298L14.29 20.0398ZM8.25 12C8.25 14.07 9.93 15.75 12 15.75C14.07 15.75 15.75 14.07 15.75 12C15.75 9.93 14.07 8.25 12 8.25C9.93 8.25 8.25 9.93 8.25 12ZM9.75 12C9.75 10.76 10.76 9.75 12 9.75C13.24 9.75 14.25 10.76 14.25 12C14.25 13.24 13.24 14.25 12 14.25C10.76 14.25 9.75 13.24 9.75 12Z" fill="#292D32"/>
</svg>
