<svg viewBox="0 0 24 24" fill="none" xmlns="http://www.w3.org/2000/svg">
<path fill-rule="evenodd" clip-rule="evenodd" d="M10 10.75C7.91578 10.75 6.1727 9.23474 5.81653 7.25H2C1.59 7.25 1.25 6.91 1.25 6.5C1.25 6.09 1.59 5.75 2 5.75H5.81653C6.1727 3.76526 7.91578 2.25 10 2.25C12.34 2.25 14.25 4.16 14.25 6.5C14.25 8.84 12.34 10.75 10 10.75ZM10 3.75C8.48 3.75 7.25 4.98 7.25 6.5C7.25 8.02 8.48 9.25 10 9.25C11.52 9.25 12.75 8.02 12.75 6.5C12.75 4.98 11.52 3.75 10 3.75ZM16 7.25H22C22.41 7.25 22.75 6.91 22.75 6.5C22.75 6.09 22.41 5.75 22 5.75H16C15.59 5.75 15.25 6.09 15.25 6.5C15.25 6.91 15.59 7.25 16 7.25ZM18.4335 18.25H22C22.41 18.25 22.75 17.91 22.75 17.5C22.75 17.09 22.41 16.75 22 16.75H18.4335C18.0773 14.7653 16.3342 13.25 14.25 13.25C11.91 13.25 10 15.16 10 17.5C10 19.84 11.91 21.75 14.25 21.75C16.3342 21.75 18.0773 20.2347 18.4335 18.25ZM8 18.25H2C1.59 18.25 1.25 17.91 1.25 17.5C1.25 17.09 1.59 16.75 2 16.75H8C8.41 16.75 8.75 17.09 8.75 17.5C8.75 17.91 8.41 18.25 8 18.25ZM11.5 17.5C11.5 15.98 12.73 14.75 14.25 14.75C15.77 14.75 17 15.98 17 17.5C17 19.02 15.77 20.25 14.25 20.25C12.73 20.25 11.5 19.02 11.5 17.5Z" fill="#292D32"/>
</svg>
