<svg viewBox="0 0 24 24" fill="none" xmlns="http://www.w3.org/2000/svg">
<path fill-rule="evenodd" clip-rule="evenodd" d="M16.3301 5.5V7.43457C17.4662 7.75893 18.2996 8.80203 18.2996 10.0501C18.2996 11.5601 17.0796 12.7801 15.5796 12.7801C14.0696 12.7801 12.8496 11.5501 12.8496 10.0501C12.8496 8.80967 13.6907 7.76073 14.8301 7.43482V5.5C14.8301 5.09 15.1701 4.75 15.5801 4.75C15.9901 4.75 16.3301 5.09 16.3301 5.5ZM14.8301 18.5001C14.8301 18.9101 15.1701 19.2501 15.5801 19.2501C15.9901 19.2501 16.3301 18.9101 16.3301 18.5001V14.6001C16.3301 14.1901 15.9901 13.8501 15.5801 13.8501C15.1701 13.8501 14.8301 14.1901 14.8301 14.6001V18.5001ZM8.41992 19.2498C8.00992 19.2498 7.66992 18.9098 7.66992 18.4998V16.5758C6.53322 16.2519 5.69922 15.2085 5.69922 13.96C5.69922 12.45 6.91922 11.23 8.41922 11.23C9.92922 11.23 11.1492 12.46 11.1492 13.96C11.1492 15.2 10.3087 16.2486 9.16992 16.5749V18.4998C9.16992 18.9098 8.83992 19.2498 8.41992 19.2498ZM7.66992 9.4C7.66992 9.81 8.00992 10.15 8.41992 10.15C8.83992 10.15 9.16992 9.81 9.16992 9.4V5.5C9.16992 5.09 8.82992 4.75 8.41992 4.75C8.00992 4.75 7.66992 5.09 7.66992 5.5V9.4Z" fill="#292D32"/>
<path opacity="0.4" d="M16.19 2H7.81C4.17 2 2 4.17 2 7.81V16.18C2 19.83 4.17 22 7.81 22H16.18C19.82 22 21.99 19.83 21.99 16.19V7.81C22 4.17 19.83 2 16.19 2Z" fill="#292D32"/>
</svg>
