<svg viewBox="0 0 24 24" fill="none" xmlns="http://www.w3.org/2000/svg">
<path d="M16.1959 2H7.81586C4.17586 2 2.00586 4.17 2.00586 7.81V16.18C2.00586 19.83 4.17586 22 7.81586 22H16.1859C19.8259 22 21.9959 19.83 21.9959 16.19V7.81C22.0059 4.17 19.8359 2 16.1959 2ZM7.67586 5.5C7.67586 5.09 8.01586 4.75 8.42586 4.75C8.83586 4.75 9.17586 5.09 9.17586 5.5V9.4C9.17586 9.81 8.83586 10.15 8.42586 10.15C8.01586 10.15 7.67586 9.81 7.67586 9.4V5.5ZM9.52868 16.4313C9.32524 16.5216 9.17586 16.7132 9.17586 16.9358V18.5C9.17586 18.91 8.83586 19.25 8.42586 19.25C8.01586 19.25 7.67586 18.91 7.67586 18.5V16.9358C7.67586 16.7132 7.52645 16.5216 7.32309 16.4311C6.36861 16.0064 5.70586 15.058 5.70586 13.95C5.70586 12.45 6.92586 11.22 8.42586 11.22C9.92586 11.22 11.1559 12.44 11.1559 13.95C11.1559 15.0582 10.485 16.0066 9.52868 16.4313ZM16.3359 18.5C16.3359 18.91 15.9959 19.25 15.5859 19.25C15.1759 19.25 14.8359 18.91 14.8359 18.5V14.6C14.8359 14.19 15.1759 13.85 15.5859 13.85C15.9959 13.85 16.3359 14.19 16.3359 14.6V18.5ZM15.5859 12.77C14.0859 12.77 12.8559 11.55 12.8559 10.04C12.8559 8.93185 13.5267 7.98342 14.483 7.55873C14.6865 7.46839 14.8359 7.27681 14.8359 7.05421V5.5C14.8359 5.09 15.1759 4.75 15.5859 4.75C15.9959 4.75 16.3359 5.09 16.3359 5.5V7.06421C16.3359 7.28681 16.4853 7.47835 16.6886 7.56885C17.6431 7.9936 18.3059 8.94195 18.3059 10.05C18.3059 11.55 17.0859 12.77 15.5859 12.77Z" fill="#292D32"/>
</svg>
