<svg viewBox="0 0 24 24" fill="none" xmlns="http://www.w3.org/2000/svg">
<path fill-rule="evenodd" clip-rule="evenodd" d="M14.0705 6.92C14.0705 9.08496 12.3154 10.84 10.1505 10.84C7.98551 10.84 6.23047 9.08496 6.23047 6.92C6.23047 4.75504 7.98551 3 10.1505 3C12.3154 3 14.0705 4.75504 14.0705 6.92ZM17.7697 17.0802C17.7697 19.2451 16.0146 21.0002 13.8497 21.0002C11.6847 21.0002 9.92969 19.2451 9.92969 17.0802C9.92969 14.9152 11.6847 13.1602 13.8497 13.1602C16.0146 13.1602 17.7697 14.9152 17.7697 17.0802Z" fill="#292D32"/>
<path opacity="0.4" fill-rule="evenodd" clip-rule="evenodd" d="M15.69 7.61998H21.23C21.61 7.61998 21.92 7.30998 21.92 6.91998C21.92 6.53998 21.61 6.22998 21.23 6.22998H15.69C15.31 6.22998 15 6.53998 15 6.91998C15 7.30998 15.31 7.61998 15.69 7.61998ZM2.77008 7.62023H6.46008C6.84008 7.62023 7.15008 7.31023 7.15008 6.93023C7.15008 6.55023 6.84008 6.24023 6.46008 6.24023H2.77008C2.39008 6.24023 2.08008 6.55023 2.08008 6.93023C2.08008 7.31023 2.39008 7.62023 2.77008 7.62023ZM21.2296 17.7701H17.5396C17.1596 17.7701 16.8496 17.4601 16.8496 17.0801C16.8496 16.7001 17.1596 16.3901 17.5396 16.3901H21.2296C21.6096 16.3901 21.9196 16.7001 21.9196 17.0801C21.9196 17.4601 21.6096 17.7701 21.2296 17.7701ZM2.77008 17.7701H8.31008C8.69008 17.7701 9.00008 17.4601 9.00008 17.0801C9.00008 16.7001 8.69008 16.3901 8.31008 16.3901H2.77008C2.39008 16.3901 2.08008 16.7001 2.08008 17.0801C2.08008 17.4601 2.39008 17.7701 2.77008 17.7701Z" fill="#292D32"/>
</svg>
