<svg viewBox="0 0 24 24" fill="none" xmlns="http://www.w3.org/2000/svg">
<path fill-rule="evenodd" clip-rule="evenodd" d="M10.1395 10.8297C12.321 10.8297 14.0895 9.06121 14.0895 6.87969C14.0895 4.69816 12.321 2.92969 10.1395 2.92969C8.19681 2.92969 6.58171 4.33207 6.25129 6.17969H2.7C2.31 6.17969 2 6.48969 2 6.87969C2 7.26969 2.31 7.57969 2.7 7.57969H6.25129C6.58171 9.42731 8.19681 10.8297 10.1395 10.8297ZM15.7195 7.57969H21.2995C21.6895 7.57969 21.9995 7.26969 21.9995 6.87969C21.9995 6.48969 21.6895 6.17969 21.2995 6.17969H15.7195C15.3295 6.17969 15.0195 6.48969 15.0195 6.87969C15.0195 7.26969 15.3295 7.57969 15.7195 7.57969ZM17.7504 17.8102H21.3009C21.6909 17.8102 22.0009 17.5002 22.0009 17.1102C22.0009 16.7202 21.6909 16.4102 21.3009 16.4102H17.7462C17.4111 14.5683 15.7987 13.1719 13.8602 13.1719C11.6786 13.1719 9.91016 14.9404 9.91016 17.1219C9.91016 19.3034 11.6786 21.0719 13.8602 21.0719C15.8069 21.0719 17.4247 19.6636 17.7504 17.8102ZM8.28 17.8102H2.7C2.31 17.8102 2 17.5002 2 17.1102C2 16.7202 2.31 16.4102 2.7 16.4102H8.28C8.67 16.4102 8.98 16.7202 8.98 17.1102C8.98 17.5002 8.66 17.8102 8.28 17.8102Z" fill="#292D32"/>
</svg>
