<svg viewBox="0 0 24 24" fill="none" xmlns="http://www.w3.org/2000/svg">
<path fill-rule="evenodd" clip-rule="evenodd" d="M9.23047 4.83172C9.23047 3.27172 10.5005 2.01172 12.0505 2.01172C13.6105 2.01172 14.8705 3.27172 14.8705 4.83172C14.8705 6.39172 13.6105 7.65172 12.0505 7.65172C10.4905 7.65172 9.23047 6.39172 9.23047 4.83172ZM19.6391 12.0815C19.6791 12.4515 19.9891 12.7315 20.3591 12.7315H20.4391C20.8391 12.6915 21.1291 12.3315 21.0891 11.9315C20.7991 9.32154 19.3991 6.96154 17.2291 5.45154C16.8991 5.22154 16.4491 5.30154 16.2191 5.63154C15.9891 5.96154 16.0691 6.41154 16.3991 6.64154C18.2191 7.90154 19.3991 9.88154 19.6391 12.0815ZM3.66931 12.7812H3.73931C4.10931 12.7812 4.42931 12.5012 4.46931 12.1212C4.68931 9.93118 5.85931 7.95118 7.65931 6.67118C7.97931 6.44118 8.05931 5.99118 7.82931 5.66118C7.59931 5.34118 7.13931 5.26118 6.81931 5.49118C4.66931 7.01118 3.28931 9.37118 3.01931 11.9812C2.97931 12.3812 3.26931 12.7412 3.66931 12.7812ZM15.9906 21.1003C14.7606 21.6903 13.4406 21.9903 12.0606 21.9903C10.6206 21.9903 9.25059 21.6703 7.97059 21.0203C7.61059 20.8503 7.47059 20.4103 7.65059 20.0503C7.82059 19.6903 8.26059 19.5503 8.62059 19.7203C9.25059 20.0403 9.92059 20.2603 10.6006 20.3903C11.5206 20.5703 12.4606 20.5803 13.3806 20.4203C14.0606 20.3003 14.7306 20.0903 15.3506 19.7903C15.7206 19.6203 16.1606 19.7603 16.3206 20.1303C16.5006 20.4903 16.3606 20.9303 15.9906 21.1003ZM5.05047 13.8711C3.50047 13.8711 2.23047 15.1311 2.23047 16.6911C2.23047 18.2511 3.49047 19.5111 5.05047 19.5111C6.61047 19.5111 7.87047 18.2511 7.87047 16.6911C7.87047 15.1311 6.60047 13.8711 5.05047 13.8711ZM16.1309 16.6911C16.1309 15.1311 17.4009 13.8711 18.9509 13.8711C20.5109 13.8711 21.7709 15.1311 21.7709 16.6911C21.7709 18.2511 20.5109 19.5111 18.9509 19.5111C17.3909 19.5111 16.1309 18.2511 16.1309 16.6911Z" fill="#292D32"/>
</svg>
