<svg viewBox="0 0 24 24" fill="none" xmlns="http://www.w3.org/2000/svg">
<path fill-rule="evenodd" clip-rule="evenodd" d="M12.0004 22.7499C10.8704 22.7499 9.79039 22.4199 8.98039 21.8099L4.68039 18.5999C3.54039 17.7499 2.65039 15.9799 2.65039 14.5599V7.11994C2.65039 5.57994 3.78039 3.93994 5.23039 3.39994L10.2204 1.52994C11.2104 1.15994 12.7704 1.15994 13.7604 1.52994L18.7604 3.39994C20.2104 3.93994 21.3404 5.57994 21.3404 7.11994V10.5499C21.3404 10.9599 21.0004 11.2999 20.5904 11.2999C20.1804 11.2999 19.8404 10.9599 19.8404 10.5499V7.11994C19.8404 6.20994 19.0904 5.12994 18.2304 4.79994L13.2404 2.92994C12.5804 2.67994 11.4104 2.67994 10.7504 2.92994L5.76039 4.80994C4.90039 5.12994 4.15039 6.20994 4.15039 7.12994V14.5599C4.15039 15.5099 4.82039 16.8399 5.57039 17.3999L9.87039 20.6099C10.4204 21.0199 11.1904 21.2499 11.9904 21.2499C12.4004 21.2499 12.7404 21.5899 12.7404 21.9999C12.7404 22.4099 12.4104 22.7499 12.0004 22.7499ZM16 20.75C13.38 20.75 11.25 18.62 11.25 16C11.25 13.38 13.38 11.25 16 11.25C18.62 11.25 20.75 13.38 20.75 16C20.75 18.62 18.62 20.75 16 20.75ZM16 12.76C14.21 12.76 12.75 14.22 12.75 16.01C12.75 17.8 14.21 19.26 16 19.26C17.79 19.26 19.25 17.8 19.25 16.01C19.25 14.22 17.79 12.76 16 12.76ZM20.8233 21.9833C20.8836 21.9921 20.9379 22 21 22C21.26 22 21.52 21.8899 21.71 21.7099C21.89 21.5199 22 21.26 22 21C22 20.8699 21.97 20.74 21.92 20.62C21.87 20.5 21.8 20.39 21.71 20.29C21.34 19.92 20.66 19.92 20.29 20.29C20.2 20.39 20.13 20.5 20.08 20.62C20.03 20.74 20 20.8699 20 21C20 21.26 20.11 21.5199 20.29 21.7099L20.44 21.83C20.5 21.8699 20.56 21.9 20.62 21.92C20.68 21.95 20.74 21.9699 20.8 21.9799C20.8079 21.9811 20.8156 21.9822 20.8233 21.9833Z" fill="#292D32"/>
</svg>
