<svg viewBox="0 0 24 24" fill="none" xmlns="http://www.w3.org/2000/svg">
<path fill-rule="evenodd" clip-rule="evenodd" d="M8.98039 21.8099C9.83039 22.4399 10.9104 22.7599 12.0004 22.7599C13.0904 22.7599 14.1704 22.4399 15.0004 21.7999L19.3004 18.5899C20.4404 17.7399 21.3304 15.9699 21.3304 14.5499V7.11994C21.3304 5.57994 20.2004 3.93994 18.7504 3.39994L13.7604 1.52994C12.7704 1.15994 11.2104 1.15994 10.2204 1.52994L5.23039 3.39994C3.78039 3.93994 2.65039 5.57994 2.65039 7.11994V14.5599C2.65039 15.9699 3.54039 17.7499 4.68039 18.5999L8.98039 21.8099ZM5.76039 4.80994L10.7504 2.93994C11.4204 2.68994 12.5804 2.68994 13.2604 2.92994L18.2504 4.79994C19.1004 5.12994 19.8504 6.20994 19.8504 7.11994V14.5599C19.8504 15.5099 19.1904 16.8299 18.4304 17.3999L14.1304 20.6099C12.9704 21.4699 11.0304 21.4699 9.88039 20.6099L5.58039 17.3999C4.83039 16.8399 4.16039 15.5099 4.16039 14.5599V7.12994C4.16039 6.20994 4.91039 5.12994 5.76039 4.80994ZM10.1302 14.0101C10.2802 14.1601 10.4702 14.2301 10.6602 14.2301C10.8502 14.2301 11.0402 14.1601 11.1902 14.0101L15.4902 9.71012C15.7802 9.42012 15.7802 8.94012 15.4902 8.65012C15.2002 8.36012 14.7202 8.36012 14.4302 8.65012L10.6602 12.4201L9.58023 11.3401C9.29023 11.0501 8.81023 11.0501 8.52023 11.3401C8.23023 11.6301 8.23023 12.1101 8.52023 12.4001L10.1302 14.0101Z" fill="#292D32"/>
</svg>
