<svg viewBox="0 0 24 24" fill="none" xmlns="http://www.w3.org/2000/svg">
<path fill-rule="evenodd" clip-rule="evenodd" d="M18.7143 4.19453C18.657 4.16691 18.5991 4.14196 18.5408 4.11984L13.0408 2.05984C12.4708 1.84984 11.5308 1.84984 10.9608 2.05984L5.46078 4.11984C4.41078 4.51984 3.55078 5.75984 3.55078 6.88984V14.9798C3.55078 15.7998 4.08078 16.8598 4.73078 17.3498L5.2095 17.7067L2.22891 20.6889C1.92891 20.9889 1.92891 21.4789 2.22891 21.7789C2.37891 21.9189 2.56891 21.9989 2.76891 21.9989C2.96891 21.9989 3.15891 21.9189 3.30891 21.7689L21.7689 3.30891C22.0789 3.00891 22.0789 2.52891 21.7689 2.22891C21.4689 1.92891 20.9789 1.92891 20.6789 2.22891L18.7143 4.19453ZM20.449 14.9789C20.449 15.7989 19.919 16.8589 19.269 17.3489L13.769 21.4589C12.789 22.1789 11.209 22.1789 10.229 21.4589L8.46901 20.1489C7.97901 19.7889 7.92901 19.0689 8.35901 18.6389L18.739 8.25886C19.369 7.62886 20.449 8.07886 20.449 8.96885V14.9789Z" fill="#292D32"/>
</svg>
