<svg viewBox="0 0 24 24" fill="none" xmlns="http://www.w3.org/2000/svg">
<path fill-rule="evenodd" clip-rule="evenodd" d="M11.5 16.01C11.5 13.53 13.52 11.51 16 11.51C18.48 11.51 20.5 13.52 20.5 16.01C20.5 18.49 18.48 20.51 16 20.51C13.52 20.51 11.5 18.49 11.5 16.01ZM20.29 21.7099C20.48 21.8899 20.73 21.9999 21 21.9999C21.06 21.9999 21.13 21.9899 21.19 21.9799C21.26 21.9699 21.32 21.9499 21.38 21.9199C21.44 21.8999 21.5 21.8699 21.55 21.8299C21.61 21.7899 21.66 21.7499 21.71 21.7099L21.71 21.7099C21.89 21.5199 22 21.2599 22 20.9999C22 20.8699 21.97 20.7399 21.92 20.6199C21.87 20.4899 21.8 20.3899 21.71 20.2899C21.697 20.2795 21.684 20.2685 21.6709 20.2573C21.6334 20.2253 21.5944 20.1921 21.55 20.1699C21.5 20.1299 21.44 20.0999 21.38 20.0799C21.32 20.0499 21.26 20.0299 21.19 20.0199C20.87 19.9499 20.52 20.0599 20.29 20.2899C20.2 20.3899 20.13 20.4899 20.08 20.6199C20.03 20.7399 20 20.8699 20 20.9999C20 21.062 20.0079 21.1163 20.0166 21.1766C20.0177 21.1843 20.0189 21.192 20.02 21.1999C20.03 21.2599 20.05 21.3199 20.08 21.3799C20.1 21.4399 20.13 21.4999 20.17 21.5499C20.1922 21.5943 20.2254 21.6333 20.2573 21.6708C20.2686 21.6839 20.2796 21.6969 20.29 21.7099Z" fill="#292D32"/>
<path opacity="0.4" d="M9.96078 2.10989L4.46078 4.16989C3.41078 4.56989 2.55078 5.80989 2.55078 6.93989V15.0399C2.55078 15.8499 3.08078 16.9199 3.73078 17.3999L9.23078 21.5099C10.2008 22.2399 11.7908 22.2399 12.7608 21.5099L18.2608 17.3999C18.9108 16.9099 19.4408 15.8499 19.4408 15.0399V6.93989C19.4408 5.81989 18.5808 4.56988 17.5308 4.17988L12.0308 2.11989C11.4708 1.89989 10.5308 1.89989 9.96078 2.10989Z" fill="#292D32"/>
</svg>
