<svg viewBox="0 0 24 24" fill="none" xmlns="http://www.w3.org/2000/svg">
<path d="M21.7709 2.22988C21.4709 1.92988 20.9809 1.92988 20.6809 2.22988L2.23086 20.6899C1.93086 20.9899 1.93086 21.4799 2.23086 21.7799C2.38086 21.9199 2.57086 21.9999 2.77086 21.9999C2.97086 21.9999 3.16086 21.9199 3.31086 21.7699L21.7709 3.30988C22.0809 3.00988 22.0809 2.52988 21.7709 2.22988Z" fill="#292D32"/>
<path opacity="0.4" fill-rule="evenodd" clip-rule="evenodd" d="M5.83078 18.1701L19.3608 4.64009C19.1108 4.41009 18.8308 4.23009 18.5408 4.12009L13.0408 2.06009C12.4708 1.85009 11.5308 1.85009 10.9608 2.06009L5.46078 4.12009C4.41078 4.52009 3.55078 5.76009 3.55078 6.89009V14.9801C3.55078 15.8001 4.08078 16.8601 4.73078 17.3501L5.83078 18.1701ZM20.4491 14.9801V6.89008C20.4491 6.79008 20.4391 6.68008 20.4191 6.58008L7.53906 19.4601L10.2291 21.4601C11.2091 22.1801 12.7891 22.1801 13.7691 21.4601L19.2691 17.3501C19.9191 16.8601 20.4491 15.8001 20.4491 14.9801Z" fill="#292D32"/>
</svg>
