<svg viewBox="0 0 24 24" fill="none" xmlns="http://www.w3.org/2000/svg">
<path fill-rule="evenodd" clip-rule="evenodd" d="M1.46945 22.5299C1.61945 22.6799 1.80945 22.7499 1.99945 22.7499C2.18945 22.7499 2.37945 22.6799 2.52945 22.5299L22.5295 2.52994C22.8195 2.23994 22.8195 1.75994 22.5295 1.46994C22.2395 1.17994 21.7595 1.17994 21.4695 1.46994L19.2878 3.65156C19.1152 3.55281 18.9415 3.46894 18.7604 3.39994L13.7604 1.52994C12.7704 1.15994 11.2104 1.15994 10.2204 1.52994L5.23039 3.39994C3.78039 3.93994 2.65039 5.57994 2.65039 7.11994V14.5599C2.65039 15.8909 3.44335 17.5514 4.49103 18.4484L1.46945 21.4699C1.17945 21.7599 1.17945 22.2399 1.46945 22.5299ZM5.55277 17.3866L18.1669 4.77247L13.2404 2.92994C12.5804 2.67994 11.4104 2.67994 10.7504 2.92994L5.76039 4.80994C4.90039 5.12994 4.15039 6.20994 4.15039 7.12994V14.5599C4.15039 15.5025 4.80993 16.8191 5.55277 17.3866ZM12.0001 22.7601C10.9101 22.7601 9.83012 22.4401 8.98012 21.8101L7.39012 20.6201C7.06012 20.3701 6.99012 19.9001 7.24012 19.5701C7.49012 19.2401 7.96012 19.1701 8.29012 19.4201L9.88012 20.6101C11.0301 21.4701 12.9801 21.4701 14.1301 20.6101L18.4301 17.4001C19.1901 16.8301 19.8501 15.5001 19.8501 14.5601V7.12012C19.8501 6.71012 20.1901 6.37012 20.6001 6.37012C21.0101 6.37012 21.3501 6.71012 21.3501 7.12012V14.5501C21.3501 15.9701 20.4601 17.7401 19.3201 18.5901L15.0201 21.8001C14.1701 22.4401 13.0901 22.7601 12.0001 22.7601Z" fill="#292D32"/>
</svg>
