<svg viewBox="0 0 24 24" fill="none" xmlns="http://www.w3.org/2000/svg">
<path fill-rule="evenodd" clip-rule="evenodd" d="M20.4098 8.79141V6.96141C20.4098 5.84141 19.5498 4.60141 18.4998 4.21141L13.0298 2.16141C12.4598 1.95141 11.5398 1.95141 10.9698 2.16141L5.49984 4.21141C4.44984 4.60141 3.58984 5.84141 3.58984 6.96141V15.0114C3.58984 15.8214 4.11984 16.8814 4.76984 17.3714L6.20984 18.4514C6.90984 18.9814 7.87984 18.9814 8.58984 18.4614L19.5898 10.4014C20.1098 10.0314 20.4098 9.43141 20.4098 8.79141ZM20.4116 13.1514C20.4116 12.3314 19.4816 11.8614 18.8216 12.3414L9.42157 19.2314C8.87157 19.6314 8.87157 20.4414 9.41157 20.8414L10.2416 21.4614C10.7216 21.8214 11.3616 22.0014 12.0016 22.0014C12.6416 22.0014 13.2816 21.8214 13.7616 21.4714L19.2316 17.3814C19.8816 16.8914 20.4116 15.8414 20.4116 15.0314V13.1514Z" fill="#292D32"/>
</svg>
