<svg viewBox="0 0 24 24" fill="none" xmlns="http://www.w3.org/2000/svg">
<path fill-rule="evenodd" clip-rule="evenodd" d="M15.25 8C15.25 8.41 15.59 8.75 16 8.75C16.41 8.75 16.75 8.41 16.75 8V4.5C16.75 2.59 15.41 1.25 13.5 1.25H10.5C8.59 1.25 7.25 2.59 7.25 4.5V8C7.25 8.41 7.59 8.75 8 8.75C8.41 8.75 8.75 8.41 8.75 8V4.5C8.75 3.42 9.42 2.75 10.5 2.75H13.5C14.58 2.75 15.25 3.42 15.25 4.5V8ZM20.41 17.78C20.44 17.78 20.47 17.78 20.5 17.77L20.47 17.53L20.32 16.28H8C7.59 16.28 7.25 16.61 7.25 17.03C7.25 17.44 7.59 17.78 8 17.78H20.41Z" fill="#292D32"/>
<path opacity="0.4" d="M16.4908 22H7.51082C4.00082 22 3.24082 19.99 3.53082 17.53L4.43081 10.03C4.66081 8.09 5.00082 6.5 8.40082 6.5H15.6008C19.0008 6.5 19.3408 8.09 19.5708 10.03L20.3208 16.28L20.4708 17.53C20.4808 17.61 20.4908 17.69 20.5008 17.77C20.7108 20.12 19.8908 22 16.4908 22Z" fill="#292D32"/>
</svg>
