<svg viewBox="0 0 24 24" fill="none" xmlns="http://www.w3.org/2000/svg">
<path fill-rule="evenodd" clip-rule="evenodd" d="M15.25 6.5V4.5C15.25 3.42 14.58 2.75 13.5 2.75H10.5C9.42 2.75 8.75 3.42 8.75 4.5V6.5H15.25ZM7.25 6.57403V4.5C7.25 2.59 8.59 1.25 10.5 1.25H13.5C15.41 1.25 16.75 2.59 16.75 4.5V6.57379C19.0852 6.90778 19.3712 8.33536 19.5808 10.03L20.2608 15.72C20.2908 16.02 20.0608 16.28 19.7608 16.28H8.00082C7.59082 16.28 7.25082 16.61 7.25082 17.03C7.25082 17.44 7.59082 17.78 8.00082 17.78H20.0308C20.3008 17.78 20.5208 17.98 20.5308 18.25C20.5808 20.37 19.6508 22 16.4908 22H7.51082C4.00082 22 3.24082 19.99 3.53082 17.53L4.43082 10.03C4.63168 8.33576 4.91644 6.90846 7.25 6.57403Z" fill="#292D32"/>
</svg>
