<svg viewBox="0 0 24 24" fill="none" xmlns="http://www.w3.org/2000/svg">
<path fill-rule="evenodd" clip-rule="evenodd" d="M3.78906 12.3133C4.3565 12.599 4.99571 12.75 5.67028 12.75C6.94139 12.75 8.1333 12.1006 8.89718 11.1158C8.99414 11.26 9.10192 11.3983 9.22027 11.53C9.93027 12.32 10.9303 12.75 12.0303 12.75C13.1303 12.75 14.1303 12.32 14.8703 11.53C14.9717 11.4172 15.0653 11.2995 15.151 11.1774C15.912 12.1276 17.079 12.75 18.3295 12.75C19.133 12.75 19.8863 12.5358 20.5279 12.135V15.71C20.5279 19.8 19.0779 21.25 14.9879 21.25H9.59789C9.44468 21.25 9.2967 21.2478 9.15356 21.2433C9.53672 20.5544 9.73999 19.7706 9.73999 18.97C9.73999 17.78 9.28998 16.64 8.47998 15.75C8.34998 15.61 8.20003 15.46 8.09003 15.38C7.23003 14.63 6.16 14.23 5 14.23C4.59121 14.23 4.18243 14.286 3.78906 14.3916V12.3133ZM9.6079 22.76C8.99571 22.76 8.45669 22.7234 7.96464 22.659C7.18289 23.366 6.11888 23.75 5 23.75C3.6 23.75 2.29001 23.1399 1.39001 22.0699L1.38995 22.0699L1.38994 22.0699C1.37982 22.0597 1.33992 22.0198 1.31 21.97C1.16 21.79 1.02999 21.61 0.929993 21.42C0.489993 20.71 0.25 19.87 0.25 18.99C0.25 17.53 0.900029 16.18 2.03003 15.28C2.11294 15.2137 2.19928 15.1491 2.28906 15.0869V11.22C2.28906 11.1553 2.29751 11.0925 2.31335 11.0324C1.76359 10.2446 1.51819 9.28402 1.62029 8.28003L1.90032 5.53003C2.32032 2.48003 3.6903 1.25 6.6303 1.25H9.68029L9.69518 1.25015L9.71032 1.25H14.3295H14.3803H17.3795C20.3195 1.25 21.6895 2.48 22.0995 5.5L22.3795 8.28003C22.4699 9.16891 22.2879 10.0238 21.8635 10.7548C21.9661 10.8832 22.0279 11.0452 22.0279 11.22V15.71C22.0379 20.65 19.9279 22.76 14.9979 22.76H9.6079ZM3.3803 5.69995C3.7003 3.40995 4.43029 2.75 6.62029 2.75V2.73999H8.84033L8.22027 8.93005C8.10027 10.1801 6.93028 11.24 5.67028 11.24C4.91028 11.24 4.22029 10.95 3.74029 10.42C3.26029 9.89004 3.03028 9.18004 3.11028 8.42004L3.3803 5.69995ZM13.7203 10.52C14.0644 10.1349 14.2609 9.64237 14.2821 9.11393L14.2795 9.08997L13.6464 2.75H10.3703L9.77032 8.76001C9.70032 9.43001 9.9003 10.06 10.3203 10.52C11.1703 11.46 12.8703 11.46 13.7203 10.52ZM18.3295 11.25C17.1609 11.25 16.0622 10.3234 15.8179 9.18136C15.8253 8.99367 15.8196 8.8029 15.8003 8.60999L15.2125 2.75H17.3795C19.5695 2.75 20.2995 3.42005 20.6095 5.68005L20.8895 8.43005C20.9595 9.19005 20.7395 9.90005 20.2595 10.4301C19.7695 10.9601 19.0895 11.25 18.3295 11.25ZM2.47998 21.04L2.48026 21.0403L2.48028 21.0403C2.51031 21.0704 2.56011 21.1202 2.59998 21.1899C3.14998 21.8399 4.05 22.26 5 22.26C5.79 22.26 6.55 21.97 7.13 21.45C7.16001 21.41 7.2 21.37 7.25 21.34C7.45 21.17 7.62003 20.9499 7.78003 20.6899C8.09003 20.1799 8.26001 19.61 8.26001 19.01C8.26001 18.2 7.95001 17.41 7.39001 16.8L7.38979 16.7998C7.31986 16.7199 7.24988 16.6399 7.15997 16.58C6.07997 15.65 4.59998 15.5101 3.41998 16.1801C3.25998 16.2701 3.11999 16.36 2.98999 16.47C2.20999 17.09 1.76001 18.01 1.76001 19.01C1.76001 19.6 1.91998 20.1801 2.22998 20.6801C2.30998 20.8201 2.38998 20.93 2.47998 21.03C2.47498 21.03 2.47498 21.03 2.47623 21.0313C2.47748 21.0325 2.47998 21.035 2.47998 21.04ZM3.50977 19.73H6.49976C6.90976 19.73 7.24976 19.39 7.24976 18.98C7.24976 18.57 6.90976 18.23 6.49976 18.23H3.50977C3.09977 18.23 2.75977 18.57 2.75977 18.98C2.75977 19.39 3.09977 19.73 3.50977 19.73Z" fill="#292D32"/>
</svg>
