<svg viewBox="0 0 24 24" fill="none" xmlns="http://www.w3.org/2000/svg">
<path fill-rule="evenodd" clip-rule="evenodd" d="M5.67028 12.75C4.99571 12.75 4.3565 12.599 3.78906 12.3133V14.3916C4.18243 14.286 4.59121 14.23 5 14.23C6.16 14.23 7.23003 14.63 8.09003 15.38C8.20003 15.46 8.34998 15.61 8.47998 15.75C9.28998 16.64 9.73999 17.78 9.73999 18.97C9.73999 19.769 9.53754 20.5513 9.15588 21.2391C9.21009 21.2397 9.26497 21.24 9.32055 21.24H14.7106C18.8006 21.24 20.2505 19.79 20.2505 15.7V12.293C19.6733 12.5918 19.0199 12.75 18.3295 12.75C17.079 12.75 15.912 12.1276 15.151 11.1774C15.0653 11.2995 14.9717 11.4172 14.8703 11.53C14.1303 12.32 13.1303 12.75 12.0303 12.75C10.9303 12.75 9.93027 12.32 9.22027 11.53C9.10192 11.3983 8.99414 11.26 8.89718 11.1158C8.1333 12.1006 6.94139 12.75 5.67028 12.75ZM7.94196 22.6793C8.36438 22.7248 8.82224 22.75 9.33056 22.75H14.7205C19.6505 22.75 21.7605 20.64 21.7505 15.7V11.21C21.7505 11.1332 21.7386 11.0588 21.7165 10.9887C22.2451 10.2092 22.4797 9.26554 22.3795 8.28003L22.0995 5.5C21.6895 2.48 20.3195 1.25 17.3795 1.25H14.3803H14.3295H9.71032L9.69518 1.25015L9.68029 1.25H6.6303C3.6903 1.25 2.32032 2.48003 1.90032 5.53003L1.62029 8.28003C1.51819 9.28402 1.76359 10.2446 2.31335 11.0324C2.29751 11.0925 2.28906 11.1553 2.28906 11.22V15.0869C2.19928 15.1491 2.11294 15.2137 2.03003 15.28C0.900029 16.18 0.25 17.53 0.25 18.99C0.25 19.87 0.489993 20.71 0.929993 21.42C1.02999 21.61 1.16 21.79 1.31 21.97C1.3399 22.0198 1.37976 22.0597 1.38992 22.0699L1.38994 22.0699L1.38995 22.0699L1.39001 22.0699C2.29001 23.1399 3.6 23.75 5 23.75C6.1081 23.75 7.16238 23.3733 7.94196 22.6793ZM7.37648 21.222C7.26345 21.2815 7.16706 21.3704 7.09677 21.4793C6.52113 21.9809 5.775 22.26 5 22.26C4.05 22.26 3.14998 21.8399 2.59998 21.1899C2.56011 21.1202 2.51032 21.0704 2.48029 21.0403L2.48028 21.0403L2.48026 21.0403L2.47998 21.04C2.47998 21.035 2.47748 21.0325 2.47623 21.0313C2.47498 21.03 2.47498 21.03 2.47998 21.03C2.38998 20.93 2.30998 20.8201 2.22998 20.6801C1.91998 20.1801 1.76001 19.6 1.76001 19.01C1.76001 18.01 2.20999 17.09 2.98999 16.47C3.11999 16.36 3.25998 16.2701 3.41998 16.1801C4.59998 15.5101 6.07997 15.65 7.15997 16.58C7.24988 16.6399 7.31986 16.7199 7.38979 16.7998L7.39001 16.8C7.95001 17.41 8.26001 18.2 8.26001 19.01C8.26001 19.61 8.09003 20.1799 7.78003 20.6899C7.65484 20.8934 7.52351 21.0723 7.37648 21.222ZM6.62029 2.75C4.43029 2.75 3.7003 3.40995 3.3803 5.69995L3.11028 8.42004C3.03028 9.18004 3.26029 9.89004 3.74029 10.42C4.22029 10.95 4.91028 11.24 5.67028 11.24C6.93028 11.24 8.10027 10.1801 8.22027 8.93005L8.84033 2.73999H6.62029V2.75ZM14.2821 9.11393C14.2609 9.64237 14.0644 10.1349 13.7203 10.52C12.8703 11.46 11.1703 11.46 10.3203 10.52C9.9003 10.06 9.70032 9.43001 9.77032 8.76001L10.3703 2.75H13.6464L14.2795 9.08997L14.2821 9.11393ZM15.8179 9.18136C16.0622 10.3234 17.1609 11.25 18.3295 11.25C19.0895 11.25 19.7695 10.9601 20.2595 10.4301C20.7395 9.90005 20.9595 9.19005 20.8895 8.43005L20.6095 5.68005C20.2995 3.42005 19.5695 2.75 17.3795 2.75H15.2125L15.8003 8.60999C15.8196 8.8029 15.8253 8.99367 15.8179 9.18136ZM4.25 19.73H3.50977C3.09977 19.73 2.75977 19.39 2.75977 18.98C2.75977 18.57 3.09977 18.23 3.50977 18.23H4.25V17.52C4.25 17.11 4.59 16.77 5 16.77C5.41 16.77 5.75 17.11 5.75 17.52V18.23H6.49976C6.90976 18.23 7.24976 18.57 7.24976 18.98C7.24976 19.39 6.90976 19.73 6.49976 19.73H5.75V20.51C5.75 20.93 5.41 21.26 5 21.26C4.59 21.26 4.25 20.92 4.25 20.51V19.73Z" fill="#292D32"/>
</svg>
