<svg viewBox="0 0 24 24" fill="none" xmlns="http://www.w3.org/2000/svg">
<path fill-rule="evenodd" clip-rule="evenodd" d="M7.53999 17.75H18.19C20.02 17.75 21.62 16.27 21.73 14.44L22.27 6.94C22.35 5.93 22.01 4.98 21.34 4.25C20.66 3.53 19.73 3.13 18.72 3.13H6.23C6.12 2.74001 5.91999 2.39 5.64999 2.09C5.15999 1.56 4.47001 1.25 3.74001 1.25H2C1.59 1.25 1.25 1.59 1.25 2C1.25 2.41 1.59 2.75 2 2.75H3.73C4.04 2.75 4.32999 2.87001 4.53999 3.10001C4.74999 3.33001 4.86 3.63 4.83 3.94L4 13.9C3.92 14.89 4.25999 15.87 4.92999 16.6C5.59999 17.33 6.54999 17.75 7.53999 17.75ZM5.5 14.02L6.28 4.62V4.60999H18.73C19.32 4.60999 19.86 4.84001 20.25 5.26001C20.64 5.67001 20.83 6.23001 20.79 6.82001L20.759 7.25H9C8.59 7.25 8.25 7.59 8.25 8C8.25 8.41 8.59 8.75 9 8.75H20.651L20.25 14.32C20.17 15.36 19.23 16.24 18.19 16.24H7.53999C6.95999 16.24 6.42 16.01 6.03 15.58C5.64 15.15 5.45 14.6 5.5 14.02ZM14.25 20.75C14.25 21.85 15.15 22.75 16.25 22.75C17.35 22.75 18.25 21.85 18.25 20.75C18.25 19.65 17.35 18.75 16.25 18.75C15.15 18.75 14.25 19.65 14.25 20.75ZM15.75 20.75C15.75 20.47 15.97 20.25 16.25 20.25C16.53 20.25 16.75 20.47 16.75 20.75C16.75 21.03 16.53 21.25 16.25 21.25C15.97 21.25 15.75 21.03 15.75 20.75ZM8.25 22.75C7.15 22.75 6.25 21.85 6.25 20.75C6.25 19.65 7.15 18.75 8.25 18.75C9.35 18.75 10.25 19.65 10.25 20.75C10.25 21.85 9.35 22.75 8.25 22.75ZM8.25 20.25C7.97 20.25 7.75 20.47 7.75 20.75C7.75 21.03 7.97 21.25 8.25 21.25C8.53 21.25 8.75 21.03 8.75 20.75C8.75 20.47 8.53 20.25 8.25 20.25Z" fill="#292D32"/>
</svg>
