<svg viewBox="0 0 24 24" fill="none" xmlns="http://www.w3.org/2000/svg">
<path fill-rule="evenodd" clip-rule="evenodd" d="M16 8.75C15.59 8.75 15.25 8.41 15.25 8V7.25H8.75V8C8.75 8.41 8.41 8.75 8 8.75C7.59 8.75 7.25 8.41 7.25 8V7.32979C5.47542 7.61664 5.34793 8.6561 5.17042 10.11L4.27043 17.61C4.12043 18.88 4.30042 19.81 4.81042 20.38C5.32042 20.95 6.22042 21.24 7.50042 21.24H16.4904C17.7704 21.24 18.6704 20.95 19.1804 20.38C19.6674 19.8358 19.8535 18.9633 19.7387 17.78H8C7.59 17.78 7.25 17.44 7.25 17.03C7.25 16.62 7.59 16.28 8 16.28H19.5608L18.8204 10.11L18.8189 10.0972C18.6424 8.64323 18.5177 7.61546 16.75 7.33013V8C16.75 8.41 16.41 8.75 16 8.75ZM16.75 4.5V5.81606C19.6171 6.17699 20.0894 7.96683 20.3304 9.94L21.2304 17.44C21.4304 19.15 21.1304 20.48 20.3304 21.38C19.5004 22.29 18.2204 22.75 16.4904 22.75H7.50042C5.78042 22.75 4.49043 22.29 3.69043 21.38C2.89043 20.47 2.58042 19.15 2.79042 17.44L3.69043 9.94C3.92208 7.97095 4.39188 6.18447 7.25 5.81834V4.5C7.25 2.59 8.59 1.25 10.5 1.25H13.5C15.41 1.25 16.75 2.59 16.75 4.5ZM15.25 5.75H8.75V4.5C8.75 3.42 9.42 2.75 10.5 2.75H13.5C14.58 2.75 15.25 3.42 15.25 4.5V5.75Z" fill="#292D32"/>
</svg>
