<svg viewBox="0 0 24 24" fill="none" xmlns="http://www.w3.org/2000/svg">
<path fill-rule="evenodd" clip-rule="evenodd" d="M8.98936 1.25H14.9894L15.7694 8.89V9.08C15.7594 9.59 15.6494 10.09 15.4694 10.52C14.8694 11.89 13.5394 12.75 11.9994 12.75C10.4794 12.75 9.11936 11.87 8.53936 10.51C8.28936 9.93 8.18936 9.29 8.24936 8.61L8.98936 1.25ZM9.11914 19.15C9.11914 17.87 10.0791 16.79 11.3491 16.66C13.6491 16.42 14.8791 17.41 14.8691 19.5V22.38H9.11914V19.15Z" fill="#292D32"/>
<path opacity="0.6" fill-rule="evenodd" clip-rule="evenodd" d="M1.85965 5.53C2.28965 2.48 3.64965 1.25 6.58965 1.25V1.26H10.4697L9.68965 9.09C9.63965 9.63 9.46965 10.15 9.20965 10.6C8.49965 11.9 7.09965 12.75 5.63965 12.75C4.33965 12.75 3.16965 12.19 2.40965 11.2C1.77965 10.39 1.48965 9.35 1.58965 8.28L1.85965 5.53ZM22.0698 5.5L22.3598 8.27C22.4598 9.31 22.1898 10.32 21.5898 11.12C20.8398 12.16 19.6398 12.75 18.3098 12.75C16.8498 12.75 15.4498 11.9 14.7298 10.58C14.4898 10.15 14.3298 9.67 14.2698 9.15C14.2698 8.96 14.2598 8.85 14.2498 8.75L13.5098 1.25H17.3498C20.2798 1.25 21.6498 2.48 22.0698 5.5Z" fill="#292D32"/>
<path opacity="0.4" d="M21.3709 11.3901V17.3801C21.3709 20.1401 19.1309 22.3801 16.3709 22.3801H7.63086C4.87086 22.3801 2.63086 20.1401 2.63086 17.3801V11.4601C3.39086 12.2801 4.47086 12.7501 5.64086 12.7501C6.90086 12.7501 8.11086 12.1201 8.87086 11.1101C9.55086 12.1201 10.7109 12.7501 12.0009 12.7501C13.2809 12.7501 14.4209 12.1501 15.1109 11.1501C15.8809 12.1401 17.0709 12.7501 18.3109 12.7501C19.5209 12.7501 20.6209 12.2601 21.3709 11.3901Z" fill="#292D32"/>
</svg>
