<svg viewBox="0 0 24 24" fill="none" xmlns="http://www.w3.org/2000/svg">
<path fill-rule="evenodd" clip-rule="evenodd" d="M5.63904 12.75C4.96525 12.75 4.32672 12.5993 3.75977 12.3143V15.71C3.75977 19.6111 5.07896 21.1104 8.75 21.2406V19.5C8.75 17.4 9.9 16.25 12 16.25C14.1 16.25 15.25 17.4 15.25 19.5V21.2402C18.9131 21.1076 20.2298 19.6074 20.2298 15.71V12.2937C19.6528 12.592 18.9999 12.75 18.31 12.75C17.056 12.75 15.886 12.1242 15.1252 11.1696C15.038 11.2945 14.9426 11.4148 14.839 11.53C14.099 12.32 13.099 12.75 11.999 12.75C10.899 12.75 9.89902 12.32 9.18902 11.53C9.07071 11.3983 8.96294 11.26 8.86601 11.1158C8.10669 12.1006 6.91642 12.75 5.63904 12.75ZM14.5067 22.75H14.6998C19.6298 22.75 21.7398 20.64 21.7298 15.71V11.22C21.7298 11.1411 21.7172 11.0649 21.694 10.9931C22.2247 10.2128 22.4604 9.2674 22.36 8.28L22.08 5.5C21.67 2.48 20.3 1.25 17.36 1.25H14.349H14.31H9.67902L9.65887 1.25027L9.63904 1.25H6.58905C3.64904 1.25 2.27904 2.48 1.85904 5.53L1.58904 8.28C1.48685 9.28487 1.73276 10.2462 2.28352 11.0344C2.26803 11.0939 2.25977 11.1561 2.25977 11.22V15.71C2.25977 20.64 4.35977 22.75 9.29977 22.75H9.49327C9.49551 22.75 9.49776 22.75 9.5 22.75H14.5C14.5022 22.75 14.5045 22.75 14.5067 22.75ZM13.75 21.25V19.5C13.75 18.24 13.26 17.75 12 17.75C10.74 17.75 10.25 18.24 10.25 19.5V21.25H13.75ZM6.58905 2.75C4.39904 2.75 3.66904 3.41 3.34904 5.7L3.07904 8.43C2.99904 9.19 3.22904 9.9 3.70904 10.43C4.18904 10.96 4.86904 11.25 5.63904 11.25C6.89904 11.25 8.06904 10.19 8.18904 8.94L8.80905 2.75H6.58905ZM14.2613 9.10203C14.2425 9.63497 14.0457 10.132 13.699 10.52C12.849 11.46 11.149 11.46 10.299 10.52C9.87903 10.06 9.67902 9.43 9.74902 8.76L10.349 2.75H13.6269L14.26 9.09L14.2613 9.10203ZM15.7883 9.13212C16.0101 10.2967 17.1151 11.25 18.31 11.25C19.07 11.25 19.75 10.96 20.24 10.43C20.72 9.9 20.94 9.19 20.87 8.43L20.59 5.68C20.28 3.42 19.55 2.75 17.36 2.75H15.1813L15.769 8.61C15.7866 8.78607 15.793 8.96034 15.7883 9.13212Z" fill="#292D32"/>
</svg>
