<svg viewBox="0 0 24 24" fill="none" xmlns="http://www.w3.org/2000/svg">
<path fill-rule="evenodd" clip-rule="evenodd" d="M8.66904 1.57007H14.669L15.4491 9.21008V9.40009C15.4391 9.91009 15.3291 10.4101 15.1491 10.8401C14.5491 12.2101 13.2191 13.0701 11.6791 13.0701C10.1591 13.0701 8.79903 12.1901 8.21903 10.8301C7.96903 10.2501 7.86905 9.61005 7.92905 8.93005L8.66904 1.57007ZM7.59998 15.97C7.71998 16.06 7.82999 16.17 7.92999 16.28C8.58999 17 9 17.95 9 19C9 19.75 8.78998 20.46 8.41998 21.06C8.22998 21.38 7.99998 21.67 7.72998 21.9C7.69998 21.94 7.67 21.97 7.63 22C6.93001 22.63 6.01 23 5 23C3.78 23 2.68997 22.45 1.96997 21.59C1.95997 21.575 1.94748 21.5625 1.935 21.55C1.92251 21.5375 1.91002 21.525 1.90002 21.51C1.78002 21.37 1.67002 21.22 1.58002 21.06C1.21002 20.46 1 19.75 1 19C1 17.74 1.58 16.61 2.5 15.88C2.67 15.74 2.84998 15.62 3.03998 15.52C3.61998 15.19 4.29 15 5 15C6 15 6.89998 15.36 7.59998 15.97ZM3.51001 19.73H6.5C6.91 19.73 7.25 19.39 7.25 18.98C7.25 18.57 6.91 18.23 6.5 18.23H3.51001C3.10001 18.23 2.76001 18.57 2.76001 18.98C2.76001 19.39 3.10001 19.73 3.51001 19.73Z" fill="#292D32"/>
<path opacity="0.6" fill-rule="evenodd" clip-rule="evenodd" d="M21.7592 5.81006L22.0392 8.59009C22.1392 9.63009 21.8692 10.6401 21.2792 11.4301C20.5292 12.4701 19.3292 13.0601 17.9992 13.0601C16.5392 13.0601 15.1392 12.2101 14.4192 10.8901C14.1792 10.4601 14.0192 9.98008 13.9592 9.46008C13.9592 9.27008 13.9492 9.16006 13.9392 9.06006L13.1992 1.56006H17.0392C19.9692 1.56006 21.3392 2.79006 21.7592 5.81006ZM1.5393 5.85004C1.9693 2.80004 3.32934 1.57007 6.26934 1.57007V1.58008H10.1493L9.36931 9.41003C9.31931 9.95003 9.14933 10.47 8.88933 10.92C8.17933 12.22 6.77933 13.0701 5.31932 13.0701C4.01933 13.0701 2.84934 12.5101 2.08934 11.5201C1.45934 10.7101 1.16934 9.67004 1.26934 8.60004L1.5393 5.85004Z" fill="#292D32"/>
<path opacity="0.4" d="M21.0505 11.71V17.7C21.0505 20.46 18.8105 22.7 16.0505 22.7H7.31055C7.08055 22.7 6.85055 22.68 6.63055 22.65C7.00055 22.49 7.33055 22.2699 7.63055 21.9999C7.67055 21.9699 7.70053 21.94 7.73053 21.9C8.00053 21.67 8.23053 21.3799 8.42053 21.0599C8.79053 20.4599 9.00055 19.7499 9.00055 18.9999C9.00055 17.9499 8.59054 17 7.93054 16.28C7.83054 16.17 7.72052 16.0599 7.60052 15.9699C6.90052 15.3599 6.00055 14.9999 5.00055 14.9999C4.29055 14.9999 3.62053 15.19 3.04053 15.52C2.85053 15.62 2.67055 15.7399 2.50055 15.8799C2.43055 15.9299 2.37055 15.9899 2.31055 16.0499V11.78C3.07055 12.6 4.15056 13.0699 5.32056 13.0699C6.58056 13.0699 7.79054 12.4399 8.55054 11.4299C9.23054 12.4399 10.3905 13.0699 11.6805 13.0699C12.9605 13.0699 14.1005 12.4699 14.7905 11.4699C15.5605 12.4599 16.7505 13.0699 17.9905 13.0699C19.2005 13.0699 20.3005 12.58 21.0505 11.71Z" fill="#292D32"/>
</svg>
