<svg viewBox="0 0 24 24" fill="none" xmlns="http://www.w3.org/2000/svg">
<path fill-rule="evenodd" clip-rule="evenodd" d="M5.17006 8.75H20.5101C20.9801 8.75 21.3401 9.14001 21.3001 9.60001L20.9701 14.27C20.8601 15.77 19.5401 17 18.0401 17H6.92006C5.21006 17 3.87005 15.53 4.01005 13.83L4.37005 9.48C4.41005 9.07 4.75006 8.75 5.17006 8.75ZM8.25 22.5C9.2165 22.5 10 21.7165 10 20.75C10 19.7835 9.2165 19 8.25 19C7.2835 19 6.5 19.7835 6.5 20.75C6.5 21.7165 7.2835 22.5 8.25 22.5ZM16.25 22.5C17.2165 22.5 18 21.7165 18 20.75C18 19.7835 17.2165 19 16.25 19C15.2835 19 14.5 19.7835 14.5 20.75C14.5 21.7165 15.2835 22.5 16.25 22.5Z" fill="#292D32"/>
<path opacity="0.4" d="M4.84 3.94L4.64 6.39C4.6 6.86 4.97 7.25 5.44 7.25H20.75C21.17 7.25 21.52 6.92999 21.55 6.50999C21.68 4.73999 20.33 3.3 18.56 3.3H6.28999C6.18999 2.86 5.98999 2.44 5.67999 2.09C5.18999 1.56 4.49 1.25 3.77 1.25H2C1.59 1.25 1.25 1.59 1.25 2C1.25 2.41 1.59 2.75 2 2.75H3.74001C4.05001 2.75 4.34 2.88001 4.55 3.10001C4.76 3.33001 4.86 3.63 4.84 3.94Z" fill="#292D32"/>
</svg>
