<svg viewBox="0 0 24 24" fill="none" xmlns="http://www.w3.org/2000/svg">
<path fill-rule="evenodd" clip-rule="evenodd" d="M21.6999 5.93156L21.9799 8.59156C22.0799 9.59156 21.8199 10.5616 21.2399 11.3316C20.5199 12.3316 19.3699 12.9016 18.0899 12.9016C16.8899 12.9016 15.7499 12.3116 15.0099 11.3616C14.3499 12.3216 13.2599 12.9016 12.0199 12.9016C10.7799 12.9016 9.65985 12.2916 9.00985 11.3216C8.27985 12.2916 7.11985 12.9016 5.90985 12.9016C4.65985 12.9016 3.53985 12.3616 2.80985 11.4116C2.19985 10.6316 1.91985 9.63156 2.01985 8.60156L2.27985 5.96156C2.68985 3.03156 3.99985 1.85156 6.81985 1.85156H9.12985H10.5599H13.4799H14.8999H17.1599C19.9799 1.85156 21.2999 3.03156 21.6999 5.93156ZM12.7499 7.73156H13.4999C13.9099 7.73156 14.2499 7.40156 14.2499 6.98156C14.2499 6.57156 13.9099 6.23156 13.4999 6.23156H12.7499V5.52156C12.7499 5.11156 12.4099 4.77156 11.9999 4.77156C11.5899 4.77156 11.2499 5.11156 11.2499 5.52156V6.23156H10.4999C10.0899 6.23156 9.74985 6.57156 9.74985 6.98156C9.74985 7.40156 10.0899 7.73156 10.4999 7.73156H11.2499V8.51156C11.2499 8.93156 11.5899 9.26156 11.9999 9.26156C12.4099 9.26156 12.7499 8.93156 12.7499 8.51156V7.73156ZM2.99023 17.3383C2.99023 19.9983 5.15023 22.1483 7.80023 22.1483H16.2202C18.8802 22.1483 21.0302 19.9883 21.0302 17.3383V14.4783C21.0302 13.8283 20.3802 13.3683 19.7602 13.5783C19.4902 13.6683 19.2202 13.7483 18.9202 13.7883C18.8102 13.8083 18.7102 13.8183 18.5902 13.8283C18.4302 13.8483 18.2502 13.8583 18.0802 13.8583C16.9802 13.8583 15.9002 13.4483 15.0402 12.7483C14.2102 13.4683 13.1502 13.8583 12.0102 13.8583C10.8702 13.8583 9.80023 13.4483 8.97023 12.7383C8.10024 13.4483 7.00023 13.8583 5.89023 13.8583C5.74023 13.8583 5.58023 13.8483 5.43023 13.8283C5.31024 13.8283 5.19025 13.8083 5.07025 13.7883L5.07023 13.7883C4.80023 13.7483 4.54023 13.6883 4.28023 13.5983C3.65023 13.3783 2.99023 13.8283 2.99023 14.4983V17.3383Z" fill="#292D32"/>
</svg>
