<svg viewBox="0 0 24 24" fill="none" xmlns="http://www.w3.org/2000/svg">
<path fill-rule="evenodd" clip-rule="evenodd" d="M18.9698 7.25V3.75C18.9698 2.78 18.1898 2 17.2198 2H8.95987C8.56987 2 8.17985 2.14 7.86985 2.38L5.67984 4.13C4.80984 4.83 4.80984 6.17 5.67984 6.87L7.86985 8.62C8.17985 8.85999 8.56987 9 8.95987 9H17.2198C18.1898 9 18.9698 8.22 18.9698 7.25ZM16.1608 18.62L18.3408 16.87C19.2208 16.17 19.2208 14.83 18.3408 14.13L16.1608 12.38C15.8508 12.14 15.4608 12 15.0608 12H6.80078C5.83078 12 5.05078 12.78 5.05078 13.75V17.25C5.05078 18.22 5.83078 19 6.80078 19H15.0608C15.4608 19 15.8508 18.86 16.1608 18.62Z" fill="#292D32"/>
<path opacity="0.4" fill-rule="evenodd" clip-rule="evenodd" d="M11.25 9H12.75V12H11.25V9ZM15 22.75C15.41 22.75 15.75 22.41 15.75 22C15.75 21.59 15.41 21.25 15 21.25H12.75V19H11.25V21.25H9C8.59 21.25 8.25 21.59 8.25 22C8.25 22.41 8.59 22.75 9 22.75H15Z" fill="#292D32"/>
</svg>
