<svg viewBox="0 0 24 24" fill="none" xmlns="http://www.w3.org/2000/svg">
<path fill-rule="evenodd" clip-rule="evenodd" d="M11.25 9.75H8.95953C8.39953 9.75 7.83954 9.56001 7.39954 9.20001L5.20953 7.45001C4.60953 6.97001 4.26953 6.26 4.26953 5.5C4.26953 4.74 4.60953 4.01999 5.20953 3.54999L7.39954 1.79999C7.83954 1.44999 8.39953 1.25 8.95953 1.25H17.2195C18.5995 1.25 19.7195 2.37 19.7195 3.75V7.25C19.7195 8.63 18.5995 9.75 17.2195 9.75H12.75V11.25H15.0608C15.6308 11.25 16.1808 11.44 16.6208 11.8L18.8108 13.55C19.4108 14.03 19.7508 14.74 19.7508 15.5C19.7508 16.26 19.4108 16.98 18.8108 17.45L16.6208 19.2C16.1808 19.56 15.6308 19.75 15.0608 19.75H12.75V21.25H15C15.41 21.25 15.75 21.59 15.75 22C15.75 22.41 15.41 22.75 15 22.75H12H9C8.59 22.75 8.25 22.41 8.25 22C8.25 21.59 8.59 21.25 9 21.25H11.25V19.75H6.80078C5.42078 19.75 4.30078 18.63 4.30078 17.25V13.75C4.30078 12.37 5.42078 11.25 6.80078 11.25H11.25V9.75ZM15.0608 18.25H12H6.80078C6.25078 18.25 5.80078 17.8 5.80078 17.25V13.75C5.80078 13.2 6.25078 12.75 6.80078 12.75H12H15.0608C15.2808 12.75 15.5008 12.83 15.6808 12.97L17.8708 14.72C18.1108 14.91 18.2508 15.2 18.2508 15.5C18.2508 15.8 18.1108 16.09 17.8708 16.28L15.6808 18.03C15.5108 18.17 15.2908 18.25 15.0608 18.25ZM12 8.25H8.95953C8.73953 8.25 8.51954 8.17 8.33954 8.03L6.14954 6.28C5.90954 6.09 5.76953 5.8 5.76953 5.5C5.76953 5.2 5.90954 4.91 6.14954 4.72L8.33954 2.97C8.50954 2.83 8.72953 2.75 8.95953 2.75H17.2195C17.7695 2.75 18.2195 3.2 18.2195 3.75V7.25C18.2195 7.8 17.7695 8.25 17.2195 8.25H12Z" fill="#292D32"/>
</svg>
