<svg viewBox="0 0 24 24" fill="none" xmlns="http://www.w3.org/2000/svg">
<path fill-rule="evenodd" clip-rule="evenodd" d="M12.3105 4.10989C12.3105 2.87989 13.3105 1.87988 14.5405 1.87988C15.7705 1.87988 16.7706 2.88989 16.7706 4.10989V8.74989C16.7706 9.97989 15.7705 10.9799 14.5405 10.9799C13.3105 10.9799 12.3105 9.97989 12.3105 8.74989V4.10989ZM4.23 7H8.87C10.1 7 11.1 8 11.1 9.23C11.1 10.46 10.1 11.46 8.87 11.46H4.23C3 11.46 2 10.46 2 9.23C2 8 3 7 4.23 7ZM9.42921 13.0303C8.19921 13.0303 7.19922 14.0303 7.19922 15.2603V19.9003C7.19922 21.1303 8.19921 22.1303 9.42921 22.1303C10.6592 22.1303 11.6592 21.1303 11.6592 19.9003V15.2603C11.6592 14.0303 10.6592 13.0303 9.42921 13.0303ZM15.4702 12.5698H20.1102C21.3402 12.5698 22.3402 13.5698 22.3402 14.7998C22.3402 16.0298 21.3402 17.0298 20.1102 17.0298H15.4702C14.2402 17.0298 13.2402 16.0298 13.2402 14.7998C13.2402 13.5698 14.2402 12.5698 15.4702 12.5698Z" fill="#292D32"/>
<path opacity="0.4" fill-rule="evenodd" clip-rule="evenodd" d="M6.84961 3.56011C6.84961 2.49011 7.7196 1.62012 8.7896 1.62012C9.8596 1.62012 10.7296 2.50012 10.7396 3.55012V5.12012C10.7396 5.33012 10.5696 5.50011 10.3596 5.50011H8.7896C7.7196 5.50011 6.84961 4.63011 6.84961 3.56011ZM18.2402 9.04987C18.2402 7.97987 19.1102 7.10986 20.1802 7.10986C21.2502 7.10986 22.1302 7.98986 22.1302 9.05986C22.1302 10.1299 21.2602 10.9999 20.1902 10.9999H18.6202C18.4102 10.9999 18.2402 10.8299 18.2402 10.6199V9.04987ZM5.3596 13.0303H3.7896C2.7196 13.0303 1.84961 13.9003 1.84961 14.9703C1.84961 16.0403 2.7196 16.9103 3.7896 16.9103C4.8596 16.9103 5.7296 16.0403 5.7296 14.9703V13.4003C5.7296 13.2003 5.5596 13.0303 5.3596 13.0303ZM13.6105 18.4697H15.1805C16.2505 18.4697 17.1205 19.3397 17.1105 20.4197C17.1105 21.4897 16.2405 22.3597 15.1705 22.3597C14.1005 22.3597 13.2305 21.4897 13.2305 20.4197V18.8497C13.2305 18.6397 13.4005 18.4697 13.6105 18.4697Z" fill="#292D32"/>
</svg>
