<svg viewBox="0 0 24 24" fill="none" xmlns="http://www.w3.org/2000/svg">
<path fill-rule="evenodd" clip-rule="evenodd" d="M6.84961 3.5611C6.84961 2.4911 7.7196 1.62109 8.7896 1.62109C9.8596 1.62109 10.7296 2.50109 10.7396 3.55109V5.12109C10.7396 5.33109 10.5696 5.5011 10.3596 5.5011H8.7896C7.7196 5.5011 6.84961 4.6311 6.84961 3.5611ZM12.3105 4.10889C12.3105 2.87889 13.3105 1.87891 14.5405 1.87891C15.7705 1.87891 16.7706 2.88889 16.7706 4.10889V8.7489C16.7706 9.9789 15.7705 10.9789 14.5405 10.9789C13.3105 10.9789 12.3105 9.9789 12.3105 8.7489V4.10889ZM18.2402 9.04938C18.2402 7.97938 19.1102 7.10938 20.1802 7.10938C21.2502 7.10938 22.1302 7.98939 22.1302 9.05939C22.1302 10.1294 21.2602 10.9994 20.1902 10.9994H18.6202C18.4102 10.9994 18.2402 10.8294 18.2402 10.6194V9.04938ZM8.50085 6.98828H3.86086C2.63086 6.98828 1.63086 7.98829 1.63086 9.21829C1.63086 10.4483 2.63086 11.4483 3.86086 11.4483H8.50085C9.73085 11.4483 10.7309 10.4483 10.7309 9.21829C10.7309 7.98829 9.73085 6.98828 8.50085 6.98828ZM9.42921 13.0312C8.19921 13.0312 7.19922 14.0313 7.19922 15.2613V19.9012C7.19922 21.1312 8.19921 22.1313 9.42921 22.1313C10.6592 22.1313 11.6592 21.1312 11.6592 19.9012V15.2613C11.6592 14.0313 10.6592 13.0312 9.42921 13.0312ZM3.7896 13.0312H5.3596C5.5596 13.0312 5.7296 13.2012 5.7296 13.4012V14.9713C5.7296 16.0413 4.8596 16.9113 3.7896 16.9113C2.7196 16.9113 1.84961 16.0413 1.84961 14.9713C1.84961 13.9013 2.7196 13.0312 3.7896 13.0312ZM20.1102 12.5703H15.4702C14.2402 12.5703 13.2402 13.5703 13.2402 14.8003C13.2402 16.0303 14.2402 17.0303 15.4702 17.0303H20.1102C21.3402 17.0303 22.3402 16.0303 22.3402 14.8003C22.3402 13.5703 21.3402 12.5703 20.1102 12.5703ZM13.6105 18.4688H15.1805C16.2505 18.4688 17.1205 19.3388 17.1105 20.4188C17.1105 21.4888 16.2405 22.3587 15.1705 22.3587C14.1005 22.3587 13.2305 21.4888 13.2305 20.4188V18.8488C13.2305 18.6388 13.4005 18.4688 13.6105 18.4688Z" fill="#292D32"/>
</svg>
