<svg viewBox="0 0 25 24" fill="none" xmlns="http://www.w3.org/2000/svg">
<path fill-rule="evenodd" clip-rule="evenodd" d="M9.28972 5.88025H10.8597C11.2697 5.88025 11.6097 5.55025 11.6097 5.13025V3.56024C11.6097 2.28024 10.5697 1.24023 9.28972 1.24023C8.00972 1.24023 6.96973 2.28024 6.96973 3.56024C6.96973 4.84024 8.00972 5.88025 9.28972 5.88025ZM8.46973 3.57025C8.46973 3.12025 8.83972 2.75024 9.28972 2.75024C9.73972 2.75024 10.1097 3.12025 10.1097 3.57025V4.39026H9.28972C8.83972 4.39026 8.46973 4.02025 8.46973 3.57025ZM12.4297 8.75977C12.4297 10.1998 13.5997 11.3698 15.0397 11.3698C16.4797 11.3698 17.6497 10.1998 17.6497 8.75977V4.11975C17.6497 2.67975 16.4797 1.50977 15.0397 1.50977C13.5997 1.50977 12.4297 2.67975 12.4297 4.11975V8.75977ZM13.9297 4.11975C13.9297 3.50975 14.4297 3.00977 15.0397 3.00977C15.6497 3.00977 16.1497 3.50975 16.1497 4.11975V8.75977C16.1497 9.36977 15.6497 9.86975 15.0397 9.86975C14.4297 9.86975 13.9297 9.36977 13.9297 8.75977V4.11975ZM19.1104 11.37H20.6803C21.9603 11.37 23.0004 10.33 23.0004 9.04996C23.0004 7.76996 21.9603 6.72998 20.6803 6.72998C19.4003 6.72998 18.3604 7.76996 18.3604 9.04996V10.62C18.3604 11.03 18.7004 11.37 19.1104 11.37ZM20.6904 9.86996H19.8703V9.04996C19.8703 8.59996 20.2404 8.22998 20.6904 8.22998C21.1404 8.22998 21.5103 8.59996 21.5103 9.04996C21.5103 9.49996 21.1404 9.86996 20.6904 9.86996ZM9 11.8299H4.36C2.92 11.8299 1.75 10.6599 1.75 9.21988C1.75 7.77988 2.92 6.60986 4.36 6.60986H9C10.44 6.60986 11.61 7.77988 11.61 9.21988C11.61 10.6599 10.44 11.8299 9 11.8299ZM4.36 8.11987C3.75 8.11987 3.25 8.61989 3.25 9.22989C3.25 9.83989 3.75 10.3399 4.36 10.3399H9C9.61 10.3399 10.11 9.83989 10.11 9.22989C10.11 8.61989 9.61 8.11987 9 8.11987H4.36ZM9.9303 22.5201C8.4903 22.5201 7.32031 21.3502 7.32031 19.9102V15.2701C7.32031 13.8301 8.4903 12.6602 9.9303 12.6602C11.3703 12.6602 12.5403 13.8301 12.5403 15.2701V19.9102C12.5403 21.3502 11.3703 22.5201 9.9303 22.5201ZM9.9303 14.1602C9.3203 14.1602 8.82031 14.6601 8.82031 15.2701V19.9102C8.82031 20.5202 9.3203 21.0201 9.9303 21.0201C10.5403 21.0201 11.0403 20.5202 11.0403 19.9102V15.2701C11.0403 14.6501 10.5403 14.1602 9.9303 14.1602ZM1.96973 14.9699C1.96973 16.2499 3.00972 17.2899 4.28972 17.2899C5.56972 17.2899 6.60973 16.2499 6.60973 14.9699V13.3999C6.60973 12.9899 6.26973 12.6499 5.85973 12.6499H4.28972C3.00972 12.6499 1.96973 13.6899 1.96973 14.9699ZM3.46973 14.9799C3.46973 14.5299 3.83972 14.1599 4.28972 14.1599H5.10973V14.9799C5.10973 15.4299 4.73972 15.7999 4.28972 15.7999C3.83972 15.7999 3.46973 15.4299 3.46973 14.9799ZM20.6104 17.4099H15.9704C14.5304 17.4099 13.3604 16.2399 13.3604 14.7999C13.3604 13.3599 14.5304 12.1899 15.9704 12.1899H20.6104C22.0504 12.1899 23.2204 13.3599 23.2204 14.7999C23.2204 16.2399 22.0504 17.4099 20.6104 17.4099ZM15.9704 13.6899C15.3604 13.6899 14.8604 14.1899 14.8604 14.7999C14.8604 15.4099 15.3604 15.9099 15.9704 15.9099H20.6104C21.2204 15.9099 21.7204 15.4099 21.7204 14.7999C21.7204 14.1899 21.2204 13.6899 20.6104 13.6899H15.9704ZM13.3604 20.4099C13.3604 21.6899 14.4003 22.7299 15.6803 22.7299C16.9503 22.7299 18.0004 21.6899 18.0004 20.4099C18.0004 19.1299 16.9603 18.0898 15.6803 18.0898H14.1104C13.7004 18.0898 13.3604 18.4298 13.3604 18.8398V20.4099ZM14.8604 20.4099V19.5898H15.6803C16.1303 19.5898 16.5004 19.9599 16.5004 20.4099C16.5004 20.8599 16.1303 21.2299 15.6803 21.2299C15.2303 21.2299 14.8604 20.8599 14.8604 20.4099Z" fill="#292D32"/>
</svg>
