<svg viewBox="0 0 24 24" fill="none" xmlns="http://www.w3.org/2000/svg">
<path fill-rule="evenodd" clip-rule="evenodd" d="M1.25 12C1.25 17.93 6.07 22.75 12 22.75C17.93 22.75 22.75 17.93 22.75 12C22.75 6.07 17.93 1.25 12 1.25C6.07 1.25 1.25 6.07 1.25 12ZM2.75 12C2.75 6.9 6.9 2.75 12 2.75C14.2553 2.75 16.3248 3.56155 17.9319 4.90794L4.90794 17.9318C3.56155 16.3248 2.75 14.2553 2.75 12ZM5.95986 18.9999C7.58168 20.4013 9.6937 21.25 12 21.25C17.1 21.25 21.25 17.1 21.25 12C21.25 9.6937 20.4013 7.58168 18.9999 5.95986L5.95986 18.9999Z" fill="#292D32"/>
</svg>
