<svg viewBox="0 0 24 24" fill="none" xmlns="http://www.w3.org/2000/svg">
<path d="M21.7709 2.22988C21.4709 1.92988 20.9809 1.92988 20.6809 2.22988L2.23086 20.6899C1.93086 20.9899 1.93086 21.4799 2.23086 21.7799C2.38086 21.9199 2.57086 21.9999 2.77086 21.9999C2.97086 21.9999 3.16086 21.9199 3.31086 21.7699L21.7709 3.30988C22.0809 3.00988 22.0809 2.52988 21.7709 2.22988Z" fill="#292D32"/>
<path opacity="0.4" fill-rule="evenodd" clip-rule="evenodd" d="M5.53 19.53L19.53 5.53C19.55 5.51 19.56 5.5 19.57 5.48C19.25 5.1 18.9 4.75 18.52 4.43C16.77 2.91 14.49 2 12 2C6.48 2 2 6.48 2 12C2 14.49 2.91 16.77 4.43 18.52C4.75 18.9 5.1 19.25 5.48 19.57C5.5 19.56 5.51 19.55 5.53 19.53ZM11.9996 22.0001C17.5196 22.0001 21.9996 17.5201 21.9996 12.0001C21.9996 10.0101 21.4196 8.1601 20.3996 6.6001L6.59961 20.4001C8.15961 21.4201 10.0096 22.0001 11.9996 22.0001Z" fill="#292D32"/>
</svg>
