<svg viewBox="0 0 24 24" fill="none" xmlns="http://www.w3.org/2000/svg">
<path fill-rule="evenodd" clip-rule="evenodd" d="M18.4991 4.41187C16.7518 2.90277 14.4801 2 12 2C6.48 2 2 6.48 2 12C2 14.482 2.90418 16.7554 4.41541 18.5032L2.23086 20.6889C1.93086 20.9889 1.93086 21.4789 2.23086 21.7789C2.38086 21.9189 2.57086 21.9989 2.77086 21.9989C2.97086 21.9989 3.16086 21.9189 3.31086 21.7689L21.7709 3.30891C22.0809 3.00891 22.0809 2.52891 21.7709 2.22891C21.4709 1.92891 20.9809 1.92891 20.6809 2.22891L18.4991 4.41187ZM22.0008 12.0008C22.0008 17.4908 17.4908 22.0008 12.0008 22.0008C10.5008 22.0008 9.08084 21.6708 7.80084 21.0708C7.18084 20.7808 7.06084 19.9508 7.54084 19.4608L19.4608 7.54084C19.9408 7.06084 20.7808 7.18084 21.0708 7.80084C21.6708 9.07084 22.0008 10.5008 22.0008 12.0008Z" fill="#292D32"/>
</svg>
