<svg viewBox="0 0 24 24" fill="none" xmlns="http://www.w3.org/2000/svg">
<path fill-rule="evenodd" clip-rule="evenodd" d="M15.3694 17.1201C14.9594 17.1201 14.6194 16.7901 14.6194 16.3801C14.6094 15.7201 14.4993 15.0901 14.2993 14.5001C13.7893 13.0401 12.6994 11.9601 11.2394 11.4401C10.6494 11.2301 10.0193 11.1201 9.35935 11.1201C8.94935 11.1201 8.60936 10.7801 8.61936 10.3601C8.61936 9.95011 8.95936 9.62012 9.36936 9.62012H9.37937C10.2094 9.63012 10.9994 9.77015 11.7394 10.0302C13.6294 10.7002 15.0394 12.1101 15.7094 14.0001C15.9694 14.7401 16.1094 15.5401 16.1194 16.3601C16.1294 16.7801 15.7994 17.1201 15.3694 17.1201ZM12.3694 17.1201C11.9594 17.1201 11.6294 16.7901 11.6194 16.3901C11.5894 15.0401 10.6994 14.1501 9.34937 14.1201C8.93937 14.1101 8.60936 13.7701 8.61936 13.3501C8.62936 12.9401 8.95936 12.6201 9.36936 12.6201H9.38938C11.5394 12.6701 13.0794 14.2001 13.1194 16.3501C13.1294 16.7601 12.7994 17.1101 12.3894 17.1201H12.3694ZM8.38086 16.3799C8.38086 16.9299 8.82086 17.3799 9.38086 17.3799C9.93086 17.3799 10.3809 16.9299 10.3809 16.3799C10.3809 15.8299 9.93086 15.3799 9.38086 15.3799C8.83086 15.3799 8.38086 15.8299 8.38086 16.3799Z" fill="#292D32"/>
<path opacity="0.4" d="M10.0693 3.01003L3.1393 8.56002C2.3593 9.18002 1.85929 10.49 2.02929 11.47L3.35927 19.43C3.59927 20.85 4.95928 22 6.39928 22H17.5993C19.0293 22 20.3993 20.84 20.6393 19.43L21.9693 11.47C22.1293 10.49 21.6293 9.18002 20.8593 8.56002L13.9293 3.02004C12.8593 2.16004 11.1293 2.16003 10.0693 3.01003Z" fill="#292D32"/>
</svg>
