<svg viewBox="0 0 24 24" fill="none" xmlns="http://www.w3.org/2000/svg">
<path fill-rule="evenodd" clip-rule="evenodd" d="M21.6201 10.4494C21.6901 10.4694 21.7501 10.4794 21.8201 10.4794C22.1501 10.4794 22.4501 10.2594 22.5401 9.94937C23.0301 8.16937 22.6401 6.08937 21.4901 4.36937C20.3401 2.64937 18.5601 1.48937 16.7301 1.26937C16.3301 1.20937 15.9501 1.50937 15.9001 1.91937C15.8501 2.32937 16.1401 2.69937 16.5501 2.74937C17.9601 2.91937 19.3401 3.82937 20.2501 5.18937C21.1601 6.54937 21.4801 8.16937 21.1001 9.52937C20.9901 9.92937 21.2201 10.3394 21.6201 10.4494ZM18.4089 9.43049C18.5089 9.47049 18.6089 9.49049 18.7089 9.49049C18.9989 9.49049 19.2789 9.32049 19.3989 9.03049C19.7889 8.13049 19.6389 6.98049 18.9989 6.02049C18.3689 5.07049 17.3989 4.48049 16.3689 4.50049C15.9589 4.51049 15.6289 4.84049 15.6289 5.26049C15.6389 5.67049 15.9489 6.00049 16.3889 6.00049C16.8689 5.97049 17.3989 6.33049 17.7489 6.86049C18.0989 7.38049 18.2089 8.01049 18.0189 8.44049C17.8589 8.82049 18.0289 9.26049 18.4089 9.43049ZM17.1205 11.7809C17.1205 12.0809 16.8705 12.3309 16.5705 12.3309H3.43053C3.13053 12.3309 2.88053 12.0809 2.88053 11.7809C2.88053 11.4809 3.13053 11.2309 3.43053 11.2309H4.17054L4.45053 9.91094C4.71053 8.63094 5.26053 7.46094 7.44053 7.46094H12.5705C14.7505 7.46094 15.2905 8.64094 15.5605 9.91094L15.8405 11.2309H16.5805C16.8705 11.2309 17.1205 11.4809 17.1205 11.7809ZM14.6605 13.4209C17.0005 13.4209 17.3205 14.7109 17.4305 15.9109L17.8605 20.3609C17.9105 20.9209 17.7305 21.4709 17.3505 21.8909C16.9605 22.3109 16.4105 22.5509 15.8305 22.5509H14.4605C13.2738 22.5509 13.0518 21.8847 12.9018 21.4347L12.9005 21.4309L12.7505 20.9909L12.7473 20.9815C12.5603 20.4301 12.5368 20.3609 11.8805 20.3609H8.14054C7.4847 20.3609 7.44106 20.4893 7.27374 20.9815L7.27053 20.9909L7.12053 21.4309L7.11984 21.433C6.96983 21.873 6.73872 22.5509 5.56053 22.5509H4.19053C3.60053 22.5509 3.06053 22.3109 2.67053 21.8909C2.29053 21.4709 2.11053 20.9109 2.16053 20.3609L2.57053 15.9109C2.68053 14.7109 3.00054 13.4209 5.34054 13.4209H14.6605ZM5.62053 17.4309H7.81053C8.11053 17.4309 8.36053 17.1809 8.36053 16.8809C8.36053 16.5809 8.11053 16.3309 7.81053 16.3309H5.62053C5.32053 16.3309 5.07053 16.5809 5.07053 16.8809C5.07053 17.1809 5.32053 17.4309 5.62053 17.4309ZM12.1905 17.4309H14.3805C14.6805 17.4309 14.9305 17.1809 14.9305 16.8809C14.9305 16.5809 14.6805 16.3309 14.3805 16.3309H12.1905C11.8905 16.3309 11.6405 16.5809 11.6405 16.8809C11.6405 17.1809 11.8905 17.4309 12.1905 17.4309Z" fill="#292D32"/>
</svg>
