<svg viewBox="0 0 24 24" fill="none" xmlns="http://www.w3.org/2000/svg">
<path fill-rule="evenodd" clip-rule="evenodd" d="M21.8202 10.4801C21.7501 10.4801 21.6901 10.4701 21.6201 10.4501C21.2201 10.3401 20.9901 9.93011 21.1001 9.53011C21.4801 8.17011 21.1601 6.55009 20.2501 5.19009C19.3401 3.83009 17.9601 2.92008 16.5501 2.75008C16.1401 2.70008 15.8501 2.33007 15.9001 1.92007C15.9501 1.51007 16.3301 1.2101 16.7301 1.2701C18.5601 1.4901 20.3401 2.65008 21.4901 4.37008C22.6401 6.09008 23.0301 8.1701 22.5401 9.9501C22.4501 10.2601 22.1502 10.4801 21.8202 10.4801ZM18.7092 9.49C18.6092 9.49 18.5091 9.47 18.4091 9.43C18.0291 9.26 17.8591 8.82001 18.0191 8.44001C18.2092 8.01001 18.0991 7.37999 17.7491 6.85999C17.3991 6.32999 16.8692 5.98 16.3792 6C15.9392 6 15.6291 5.67001 15.6191 5.26001C15.6191 4.84001 15.9491 4.51 16.3591 4.5C17.3891 4.48 18.3592 5.07002 18.9892 6.02002C19.6292 6.98002 19.7791 8.13003 19.3891 9.03003C19.2791 9.32003 18.9992 9.49 18.7092 9.49ZM15.9102 11.09H16.6502C16.9602 11.09 17.2102 11.34 17.2302 11.65C17.2302 11.96 16.9802 12.21 16.6702 12.21H16.1402L16.4502 13.69C16.0502 13.46 15.4902 13.32 14.7202 13.32H5.25023C4.48023 13.32 3.92023 13.46 3.52023 13.69L3.83023 12.21H3.30023C2.99023 12.21 2.74023 11.96 2.74023 11.65C2.74023 11.34 2.99023 11.09 3.30023 11.09H4.04022H4.06023L4.34023 9.73999C4.60023 8.43999 5.16022 7.25 7.37022 7.25H9.42023H10.5302H12.5802C14.7902 7.25 15.3402 8.43999 15.6102 9.73999L15.8902 11.09H15.9102ZM7.75093 17.39H5.52094C5.21094 17.39 4.96094 17.14 4.96094 16.83C4.96094 16.52 5.21094 16.27 5.52094 16.27H7.75093C8.06093 16.27 8.31093 16.52 8.31093 16.83C8.30093 17.14 8.06093 17.39 7.75093 17.39ZM12.2006 17.39H14.4306C14.7306 17.39 14.9806 17.14 14.9906 16.83C14.9906 16.52 14.7406 16.27 14.4306 16.27H12.2006C11.8906 16.27 11.6406 16.52 11.6406 16.83C11.6406 17.14 11.8906 17.39 12.2006 17.39Z" fill="#292D32"/>
<path opacity="0.4" d="M17.5203 15.8401C17.4103 14.6201 17.0803 13.3101 14.7003 13.3101H5.23028C2.85028 13.3101 2.53029 14.6201 2.41029 15.8401L1.99029 20.36C1.94029 20.92 2.13028 21.49 2.51028 21.91C2.90028 22.34 3.46029 22.5901 4.05029 22.5901H5.44029C6.64029 22.5901 6.87029 21.9001 7.02029 21.4501L7.17028 21.0101C7.34028 20.5001 7.38029 20.3701 8.05029 20.3701H11.8503C12.5103 20.3701 12.5403 20.4401 12.7303 21.0101L12.8803 21.4601C13.0303 21.9101 13.2603 22.6 14.4603 22.6H15.8503C16.4403 22.6 17.0003 22.35 17.3903 21.92C17.7703 21.5 17.9603 20.9301 17.9103 20.3701L17.5203 15.8401Z" fill="#292D32"/>
</svg>
