<svg viewBox="0 0 24 24" fill="none" xmlns="http://www.w3.org/2000/svg">
<path fill-rule="evenodd" clip-rule="evenodd" d="M11.3998 22.5599H17.5998C19.3898 22.5599 21.0798 21.1298 21.3798 19.3598L22.7098 11.3999C22.9098 10.1599 22.3098 8.56987 21.3298 7.77987L14.3998 2.23983C13.0498 1.15983 10.9398 1.14982 9.59984 2.22982L2.66985 7.77987C1.67985 8.56987 1.07984 10.1599 1.28984 11.3999L1.56984 13.0798C1.63984 13.4898 2.01983 13.7798 2.42983 13.6998C2.83983 13.6398 3.11982 13.2498 3.04982 12.8398L2.76982 11.1499C2.64982 10.4299 3.03982 9.40979 3.60982 8.94979L10.5398 3.39986C11.3298 2.76986 12.6598 2.76987 13.4598 3.40987L20.3899 8.94979C20.9499 9.39979 21.3498 10.4299 21.2298 11.1499L19.8998 19.1098C19.7198 20.1698 18.6698 21.0599 17.5998 21.0599H11.3998C10.9898 21.0599 10.6498 21.3999 10.6498 21.8099C10.6498 22.2199 10.9898 22.5599 11.3998 22.5599ZM4.25022 22.02C4.26022 22.42 4.59022 22.75 5.00022 22.75H5.02021C5.43021 22.74 5.76022 22.39 5.75022 21.98C5.71022 19.83 4.17021 18.3 2.02021 18.25H2.00022C1.59022 18.25 1.26022 18.57 1.25022 18.98C1.24022 19.4 1.57023 19.74 1.98023 19.75C3.33023 19.78 4.22022 20.67 4.25022 22.02ZM8.00022 22.75C7.59022 22.75 7.25022 22.42 7.25022 22.01C7.24021 21.35 7.13021 20.72 6.93021 20.13C6.42021 18.67 5.33021 17.5899 3.87021 17.0699C3.28021 16.8599 2.65021 16.75 1.99021 16.75C1.58021 16.75 1.24022 16.41 1.25022 15.99C1.25022 15.58 1.59022 15.25 2.00022 15.25H2.01022C2.84022 15.26 3.63021 15.4 4.37021 15.66C6.26021 16.33 7.67021 17.74 8.34021 19.63C8.60021 20.37 8.74022 21.17 8.75022 21.99C8.75022 22.41 8.42022 22.75 8.00022 22.75ZM1 22C1 22.55 1.44 23 2 23C2.56 23 3 22.55 3 22C3 21.45 2.55 21 2 21C1.45 21 1 21.45 1 22Z" fill="#292D32"/>
</svg>
