<svg viewBox="0 0 24 24" fill="none" xmlns="http://www.w3.org/2000/svg">
<path fill-rule="evenodd" clip-rule="evenodd" d="M21.6201 10.4501C21.6901 10.4701 21.7501 10.4801 21.8202 10.4801C22.1502 10.4801 22.4501 10.2601 22.5401 9.9501C23.0301 8.1701 22.6401 6.09008 21.4901 4.37008C20.3401 2.65008 18.5601 1.4901 16.7301 1.2701C16.3301 1.2101 15.9501 1.51007 15.9001 1.92007C15.8501 2.33007 16.1401 2.70008 16.5501 2.75008C17.9601 2.92008 19.3401 3.83009 20.2501 5.19009C21.1601 6.55009 21.4801 8.17011 21.1001 9.53011C20.9901 9.93011 21.2201 10.3401 21.6201 10.4501ZM18.7111 9.49C18.6111 9.49 18.5111 9.47 18.4111 9.43C18.0311 9.26 17.8611 8.82001 18.0211 8.44001C18.2111 8.01001 18.1011 7.37999 17.7511 6.85999C17.4011 6.32999 16.8711 5.98 16.3811 6H16.3711C15.9611 6 15.6311 5.67001 15.6211 5.26001C15.6211 4.84001 15.9511 4.51 16.3611 4.5C17.3911 4.48 18.3611 5.07002 18.9911 6.02002C19.6311 6.98002 19.7811 8.13003 19.3911 9.03003C19.2811 9.32003 19.0011 9.49 18.7111 9.49ZM14.3305 13.0001H14.5694L13.9094 9.8501C13.6994 8.8401 13.4494 8.37012 12.1294 8.37012H6.85937C5.53937 8.37012 5.28937 8.8401 5.07937 9.8501L4.41936 13.0001H4.6792L4.71985 13H14.2898L14.3305 13.0001ZM2.80123 13.4383L3.05063 12.25H2.75C2.34 12.25 2 11.91 2 11.5C2 11.09 2.34 10.75 2.75 10.75H3.36544L3.61936 9.5401C3.89936 8.2201 4.49936 6.87012 6.86936 6.87012H12.1394C14.5094 6.87012 15.1094 8.2201 15.3894 9.5401L15.6433 10.75H16.25C16.66 10.75 17 11.09 17 11.5C17 11.91 16.66 12.25 16.25 12.25H15.9581L16.2074 13.4376C17.0137 13.9394 17.2358 14.8117 17.3199 15.73L17.7399 20.3C17.7999 20.92 17.5898 21.54 17.1698 22.01C16.7298 22.48 16.1198 22.75 15.4698 22.75H14.0598C12.7098 22.75 12.4298 21.92 12.2898 21.47L12.1398 21.02C11.9598 20.51 11.9598 20.51 11.4298 20.51H7.58984C7.04984 20.51 7.03985 20.53 6.87985 21.02L6.72984 21.47C6.57984 21.92 6.29984 22.76 4.94984 22.76H3.53984C2.88984 22.76 2.27984 22.49 1.83984 22.01C1.41984 21.55 1.20985 20.92 1.26985 20.3L1.68985 15.73C1.77388 14.8121 1.99579 13.9402 2.80123 13.4383ZM4.37711 14.5001C3.30335 14.5699 3.26196 15.0023 3.18006 15.8577L3.17984 15.86L2.75984 20.43C2.73984 20.64 2.80984 20.84 2.94984 20.99C3.09984 21.16 3.30984 21.25 3.53984 21.25H4.94984C5.13118 21.25 5.20382 21.2296 5.22935 21.2224C5.23479 21.2209 5.23809 21.22 5.23985 21.22C5.23985 21.21 5.27981 21.0901 5.3098 21.0001L5.30984 21L5.45985 20.55C5.65985 19.94 5.96985 19.01 7.59985 19.01H11.4398C13.0498 19.01 13.3499 19.89 13.5699 20.54L13.7298 21C13.7398 21.08 13.7698 21.19 13.7998 21.23C13.8051 21.23 13.8144 21.2313 13.8282 21.2334C13.8671 21.2391 13.9416 21.25 14.0598 21.25H15.4698C15.6998 21.25 15.9098 21.16 16.0598 20.99C16.1998 20.83 16.2698 20.64 16.2498 20.43L15.8298 15.86L15.8296 15.8577C15.7477 15.0023 15.7063 14.5699 14.6326 14.5001H4.37711ZM7.25 17.5H5C4.59 17.5 4.25 17.16 4.25 16.75C4.25 16.34 4.59 16 5 16H7.25C7.66 16 8 16.34 8 16.75C8 17.16 7.66 17.5 7.25 17.5ZM11.75 17.5H14C14.41 17.5 14.75 17.16 14.75 16.75C14.75 16.34 14.41 16 14 16H11.75C11.34 16 11 16.34 11 16.75C11 17.16 11.34 17.5 11.75 17.5Z" fill="#292D32"/>
</svg>
