<svg viewBox="0 0 24 24" fill="none" xmlns="http://www.w3.org/2000/svg">
<path fill-rule="evenodd" clip-rule="evenodd" d="M10 1H4C2.34 1 1 2.34 1 4V10C1 11.66 2.34 13 4 13H8.5C8.5 10.52 10.52 8.5 13 8.5V4C13 2.34 11.66 1 10 1ZM3.77 4.27C4.54 3.72 5.59 3.71 6.38 4.25C6.72 4.48 6.81 4.95 6.58 5.29C6.35 5.63 5.88 5.72 5.54 5.49C5.27 5.3 4.9 5.3 4.63 5.5C4.5 5.59 4.35 5.63 4.2 5.63C3.97 5.63 3.73 5.52 3.59 5.32C3.35 4.98 3.43 4.51 3.77 4.27ZM9.27 8.24C9.01 8.57 8.54 8.62 8.22 8.36C7.87 8.08 7.45 7.93 7 7.93C6 7.93 5.17 8.69 5.06 9.67H7.16C7.57 9.67 7.91 10.01 7.91 10.42C7.91 10.83 7.57 11.17 7.16 11.17H4.84C4.13 11.17 3.55 10.59 3.55 9.88C3.55 7.98 5.1 6.43 7 6.43C7.78 6.43 8.55 6.7 9.16 7.19C9.48 7.45 9.53 7.92 9.27 8.24ZM10.58 5.29C10.35 5.63 9.88 5.72 9.54 5.49C9.27 5.3 8.9 5.3 8.63 5.5C8.5 5.59 8.35 5.63 8.2 5.63C7.97 5.63 7.73 5.52 7.59 5.32C7.35 4.98 7.43 4.51 7.77 4.27C8.54 3.72 9.59 3.71 10.38 4.25C10.72 4.48 10.81 4.95 10.58 5.29ZM18.2207 16.6786C18.1507 16.5986 18.0507 16.5586 17.9407 16.5586H14.0607C13.9507 16.5586 13.8507 16.5986 13.7807 16.6786C13.7107 16.7586 13.6707 16.8686 13.6907 16.9686C13.8207 18.1486 14.8107 19.0486 16.0007 19.0486C17.1907 19.0486 18.1807 18.1586 18.3107 16.9686C18.3207 16.8586 18.2907 16.7586 18.2207 16.6786ZM13 10H19C20.65 10 22 11.35 22 13V19C22 20.65 20.65 22 19 22H13C11.35 22 10 20.65 10 19V13C10 11.35 11.35 10 13 10ZM13.64 12.99C13.3 12.75 12.83 12.83 12.59 13.17C12.35 13.5 12.43 13.97 12.77 14.22C13.16 14.5 13.62 14.64 14.09 14.64C14.54 14.64 14.99 14.5 15.38 14.24C15.73 14.01 15.81 13.54 15.58 13.2C15.35 12.85 14.88 12.76 14.54 13C14.27 13.18 13.91 13.18 13.64 12.99ZM12.55 16.72C12.55 18.62 14.1 20.17 16 20.17C17.9 20.17 19.45 18.62 19.45 16.72C19.45 16.01 18.87 15.43 18.16 15.43H13.84C13.13 15.43 12.55 16.01 12.55 16.72ZM18.09 14.63C18.54 14.63 18.99 14.49 19.38 14.23C19.72 14 19.81 13.54 19.58 13.19C19.35 12.84 18.88 12.75 18.54 12.99C18.27 13.17 17.91 13.17 17.64 12.98C17.3 12.74 16.83 12.82 16.59 13.16C16.35 13.5 16.43 13.97 16.77 14.21C17.16 14.49 17.62 14.63 18.09 14.63Z" fill="#292D32"/>
</svg>
