<svg viewBox="0 0 24 24" fill="none" xmlns="http://www.w3.org/2000/svg">
<path fill-rule="evenodd" clip-rule="evenodd" d="M5.19952 6.63014C4.96952 6.63014 4.72952 6.52013 4.58952 6.31013C4.34952 5.97013 4.42952 5.50015 4.76952 5.26015C5.54952 4.71015 6.59951 4.70013 7.38951 5.24013C7.72951 5.47013 7.81952 5.94017 7.58952 6.28017C7.35952 6.62017 6.88951 6.71012 6.54951 6.48012C6.27951 6.30012 5.91952 6.30013 5.64952 6.49013C5.49952 6.59013 5.34952 6.63014 5.19952 6.63014ZM9.19952 6.63014C8.96952 6.63014 8.72952 6.52013 8.58952 6.31013C8.34952 5.97013 8.42952 5.50015 8.76952 5.26015C9.54952 4.71015 10.5995 4.70013 11.3895 5.24013C11.7295 5.47013 11.8195 5.94017 11.5895 6.28017C11.3595 6.62017 10.8895 6.71012 10.5495 6.48012C10.2795 6.30012 9.91952 6.30013 9.64952 6.49013C9.49952 6.59013 9.34952 6.63014 9.19952 6.63014ZM5.84078 12.1699H8.16078C8.57078 12.1699 8.92078 11.8299 8.92078 11.4199C8.92078 11.0099 8.58078 10.6699 8.17078 10.6699H6.07078C6.18078 9.68992 7.01078 8.92993 8.01078 8.92993C8.46078 8.92993 8.88078 9.07992 9.23078 9.35992C9.55078 9.61992 10.0208 9.55993 10.2808 9.23993C10.5408 8.91993 10.4808 8.44994 10.1608 8.18994C9.55078 7.69994 8.78078 7.42993 8.00078 7.42993C6.10078 7.42993 4.55078 8.97994 4.55078 10.8799C4.55078 11.5899 5.13078 12.1699 5.84078 12.1699ZM18.2207 16.6801C18.1507 16.6001 18.0507 16.5601 17.9407 16.5601H14.0607C13.9507 16.5601 13.8507 16.6001 13.7807 16.6801C13.7107 16.7601 13.6707 16.87 13.6907 16.97C13.8207 18.15 14.8107 19.05 16.0007 19.05C17.1907 19.05 18.1807 18.16 18.3107 16.97C18.3207 16.86 18.2907 16.7601 18.2207 16.6801ZM13 10H19C20.65 10 22 11.35 22 13V19C22 20.65 20.65 22 19 22H13C11.35 22 10 20.65 10 19V13C10 11.35 11.35 10 13 10ZM13.64 12.99C13.3 12.75 12.83 12.83 12.59 13.17C12.35 13.5 12.43 13.97 12.77 14.22C13.16 14.5 13.62 14.64 14.09 14.64C14.54 14.64 14.99 14.5 15.38 14.24C15.73 14.01 15.81 13.54 15.58 13.2C15.35 12.85 14.88 12.76 14.54 13C14.27 13.18 13.91 13.18 13.64 12.99ZM12.55 16.72C12.55 18.62 14.1 20.17 16 20.17C17.9 20.17 19.45 18.62 19.45 16.72C19.45 16.01 18.87 15.43 18.16 15.43H13.84C13.13 15.43 12.55 16.01 12.55 16.72ZM18.09 14.63C18.54 14.63 18.99 14.49 19.38 14.23C19.72 14 19.81 13.54 19.58 13.19C19.35 12.84 18.88 12.75 18.54 12.99C18.27 13.17 17.91 13.17 17.64 12.98C17.3 12.74 16.83 12.82 16.59 13.16C16.35 13.5 16.43 13.97 16.77 14.21C17.16 14.49 17.62 14.63 18.09 14.63Z" fill="#292D32"/>
<path opacity="0.4" d="M14 5V10H13C11.35 10 10 11.35 10 13V14H5C3.34 14 2 12.66 2 11V5C2 3.34 3.34 2 5 2H11C12.66 2 14 3.34 14 5Z" fill="#292D32"/>
</svg>
