<svg viewBox="0 0 24 24" fill="none" xmlns="http://www.w3.org/2000/svg">
<path fill-rule="evenodd" clip-rule="evenodd" d="M6.2 14.75H9.25V17.8C9.25 21.22 10.78 22.75 14.2 22.75H17.8C21.22 22.75 22.75 21.22 22.75 17.8V14.2C22.75 10.78 21.22 9.25 17.8 9.25H14.75V6.19995C14.75 2.77995 13.22 1.25 9.8 1.25H6.2C2.78 1.25 1.25 2.77995 1.25 6.19995V9.80005C1.25 13.22 2.78 14.75 6.2 14.75ZM10.75 17.8V14.01C10.79 11.62 11.61 10.79 14.01 10.75H17.8C20.38 10.75 21.25 11.62 21.25 14.2V17.8C21.25 20.38 20.38 21.25 17.8 21.25H14.2C11.62 21.25 10.75 20.38 10.75 17.8ZM2.75 6.19995C2.75 3.61995 3.62 2.75 6.2 2.75H9.8C12.38 2.75 13.25 3.61995 13.25 6.19995V9.29004C10.81 9.54004 9.53 10.81 9.29 13.25H6.2C3.62 13.25 2.75 12.38 2.75 9.80005V6.19995ZM4.58952 6.31019C4.72952 6.5202 4.96952 6.63014 5.19952 6.63014C5.34952 6.63014 5.49952 6.59013 5.64952 6.49013C5.91952 6.30013 6.27951 6.30012 6.54951 6.48012C6.88951 6.71012 7.35952 6.62017 7.58952 6.28017C7.81952 5.94017 7.72951 5.47013 7.38951 5.24013C6.59951 4.70013 5.54952 4.71015 4.76952 5.26015C4.42952 5.50015 4.34952 5.97019 4.58952 6.31019ZM9.19952 6.63014C8.96952 6.63014 8.72952 6.5202 8.58952 6.31019C8.34952 5.97019 8.42952 5.50015 8.76952 5.26015C9.54952 4.71015 10.5995 4.70013 11.3895 5.24013C11.7295 5.47013 11.8195 5.94017 11.5895 6.28017C11.3595 6.62017 10.8895 6.71012 10.5495 6.48012C10.2795 6.30012 9.91952 6.30013 9.64952 6.49013C9.49952 6.59013 9.34952 6.63014 9.19952 6.63014ZM5.84078 12.1702H8.16078C8.57078 12.1702 8.92078 11.8302 8.92078 11.4202C8.92078 11.0102 8.58078 10.6702 8.17078 10.6702H6.07078C6.18078 9.69017 7.01078 8.93018 8.01078 8.93018C8.46078 8.93018 8.88078 9.08011 9.23078 9.36011C9.55078 9.61011 10.0208 9.56011 10.2808 9.24011C10.5408 8.92011 10.4808 8.45006 10.1608 8.19006C9.55078 7.70006 8.78078 7.43018 8.00078 7.43018C6.10078 7.43018 4.55078 8.98013 4.55078 10.8801C4.55078 11.5901 5.13078 12.1702 5.84078 12.1702ZM12.7695 14.2101C13.1595 14.4901 13.6195 14.6301 14.0895 14.6301C14.5395 14.6301 14.9895 14.5001 15.3795 14.2301C15.7295 14.0001 15.8095 13.5301 15.5795 13.1901C15.3495 12.8401 14.8795 12.7601 14.5395 12.9901C14.2695 13.1701 13.9095 13.1701 13.6395 12.9801C13.2995 12.7401 12.8295 12.8202 12.5895 13.1602C12.3495 13.5002 12.4295 13.9701 12.7695 14.2101ZM18.0895 14.6301C17.6195 14.6301 17.1595 14.4901 16.7695 14.2101C16.4295 13.9701 16.3495 13.5002 16.5895 13.1602C16.8295 12.8202 17.2995 12.7401 17.6395 12.9801C17.9095 13.1701 18.2695 13.1701 18.5395 12.9901C18.8795 12.7601 19.3495 12.8401 19.5795 13.1901C19.8095 13.5301 19.7295 14.0001 19.3795 14.2301C18.9895 14.5001 18.5395 14.6301 18.0895 14.6301ZM12.5508 16.7201C12.5508 18.6201 14.1008 20.1702 16.0008 20.1702C17.9008 20.1702 19.4508 18.6201 19.4508 16.7201C19.4508 16.0101 18.8708 15.4302 18.1608 15.4302H13.8408C13.1308 15.4302 12.5508 16.0101 12.5508 16.7201ZM16.0008 18.6702C14.9908 18.6702 14.1608 17.9102 14.0608 16.9302H17.9408C17.8308 17.9102 17.0108 18.6702 16.0008 18.6702Z" fill="#292D32"/>
</svg>
