<svg viewBox="0 0 25 24" fill="none" xmlns="http://www.w3.org/2000/svg">
<path fill-rule="evenodd" clip-rule="evenodd" d="M1.75 12C1.75 17.93 6.57 22.75 12.5 22.75C18.43 22.75 23.25 17.93 23.25 12C23.25 6.07 18.43 1.25 12.5 1.25C6.57 1.25 1.75 6.07 1.75 12ZM3.25 12C3.25 6.9 7.4 2.75 12.5 2.75C17.6 2.75 21.75 6.9 21.75 12C21.75 17.1 17.6 21.25 12.5 21.25C7.4 21.25 3.25 17.1 3.25 12ZM10.4846 17.5498C10.8846 17.7998 11.4946 18.1798 12.5146 18.1798C13.5246 18.1798 14.1146 17.8098 14.5346 17.5298C14.5638 17.5127 14.5921 17.4958 14.6195 17.4794C14.7521 17.4004 14.8652 17.3329 14.9647 17.2998C15.3147 17.1898 15.6247 17.1698 15.9047 17.1598H15.9047C16.2047 17.1498 16.5047 17.1398 16.7946 16.9498C17.0446 16.7798 17.1347 16.5398 17.1847 16.3298C17.1927 16.3271 17.2 16.3244 17.2068 16.322C17.2254 16.3152 17.24 16.3098 17.2546 16.3098C17.5046 16.2398 17.8047 16.1498 18.1547 15.9598C18.6347 15.6998 18.7346 15.3498 18.7346 15.0998C18.7346 14.8598 18.6347 14.5298 18.1547 14.2698C16.9547 13.6798 16.5246 12.8798 16.3846 12.5198C16.4846 12.4498 16.6046 12.3698 16.7346 12.2898C16.8445 12.2271 16.9358 12.1643 16.9991 12.1208C17.0165 12.1089 17.0317 12.0984 17.0446 12.0898C17.8646 11.5098 17.7246 10.8398 17.6246 10.5898C17.4646 10.1398 17.0546 9.8598 16.5446 9.8598C16.4146 9.8598 16.2847 9.87981 16.2447 9.89981H16.2246C16.2246 9.63981 16.2146 9.3598 16.1946 9.0798C16.1046 8.0298 15.7347 7.46982 15.3347 6.99982C14.6447 6.24982 13.6047 5.81982 12.4947 5.81982C10.8747 5.81982 9.96465 6.66982 9.64465 7.02982C9.27465 7.44982 8.89465 8.01981 8.79465 9.08981C8.77466 9.32968 8.77466 9.59951 8.77466 9.90929V9.90982C8.76466 9.90982 8.75715 9.90732 8.74965 9.90482C8.74214 9.90231 8.73464 9.89981 8.72464 9.89981C8.63464 9.87981 8.54464 9.86981 8.44464 9.86981C7.93464 9.86981 7.52465 10.1398 7.36465 10.5798C7.26465 10.8398 7.12464 11.5198 7.94464 12.0898L8.25464 12.2898C8.33951 12.3464 8.42939 12.403 8.51366 12.456C8.54854 12.478 8.58245 12.4993 8.61465 12.5198C8.48465 12.8698 8.06464 13.6798 6.85464 14.2598C6.35464 14.4898 6.27465 14.8698 6.26465 15.0698C6.26465 15.2798 6.32464 15.6698 6.84464 15.9598C7.19463 16.1498 7.48466 16.2298 7.74466 16.2998C7.75466 16.3048 7.76466 16.3073 7.77466 16.3098C7.78466 16.3123 7.79466 16.3148 7.80466 16.3198C7.84466 16.4998 7.93466 16.7698 8.21466 16.9598C8.48466 17.1398 8.79465 17.1498 9.10464 17.1598C9.13558 17.1621 9.16704 17.1643 9.19899 17.1665C9.44594 17.1834 9.72246 17.2024 10.0146 17.2998C10.1546 17.3498 10.2946 17.4298 10.4846 17.5498ZM10.4846 15.8798C9.98465 15.7198 9.54465 15.6898 9.20465 15.6698C9.14465 15.4898 9.02464 15.2798 8.81464 15.1198C8.74782 15.0697 8.67402 15.0335 8.60491 14.9997C8.59127 14.993 8.57782 14.9864 8.56464 14.9798C9.96334 13.9085 10.1714 12.6502 10.1844 12.5715L10.1847 12.5698V12.5298C10.2147 12.3398 10.2547 11.9298 9.86465 11.5598C9.98465 11.4998 10.0746 11.4298 10.1246 11.3698C10.2446 11.2498 10.3746 11.0298 10.3546 10.7398C10.3546 10.7098 10.3546 10.6498 10.3446 10.5998C10.3046 10.0498 10.3047 9.56983 10.3347 9.19983C10.3947 8.53983 10.5946 8.24982 10.8146 7.99982C10.9546 7.83982 11.5046 7.30981 12.5346 7.30981C13.4846 7.30981 14.0247 7.74981 14.2447 7.98981C14.4747 8.25981 14.6746 8.53981 14.7346 9.20981C14.769 9.63883 14.7444 10.112 14.7241 10.5031C14.7207 10.5677 14.7175 10.6302 14.7147 10.6898C14.6847 11.0398 14.8147 11.2598 14.9347 11.3798C14.9947 11.4498 15.0846 11.5198 15.1946 11.5698C14.8146 11.9398 14.8446 12.3398 14.8746 12.5298V12.5698C14.8846 12.6398 15.0846 13.9098 16.5046 14.9898C16.4146 15.0298 16.3446 15.0698 16.2646 15.1198C16.0246 15.2798 15.8947 15.4798 15.8347 15.6698C15.5247 15.6798 15.0746 15.7098 14.5346 15.8798C14.2446 15.9798 14.0046 16.1198 13.7546 16.2698C13.4046 16.4898 13.0946 16.6798 12.5146 16.6798C11.9246 16.6798 11.6146 16.4898 11.2846 16.2798C11.0246 16.1198 10.7846 15.9798 10.4846 15.8798ZM17.4746 14.6498L17.8246 15.3098L17.4647 14.6598C17.4647 14.6498 17.4746 14.6498 17.4746 14.6498Z" fill="#292D32"/>
</svg>
