<svg viewBox="0 0 24 24" fill="none" xmlns="http://www.w3.org/2000/svg">
<path fill-rule="evenodd" clip-rule="evenodd" d="M12 21.5C11.59 21.5 11.25 21.16 11.25 20.75V3.25C11.25 2.84 11.59 2.5 12 2.5C12.41 2.5 12.75 2.84 12.75 3.25V20.75C12.75 21.16 12.41 21.5 12 21.5ZM3 16.5C2.59 16.5 2.25 16.16 2.25 15.75V8.25C2.25 7.84 2.59 7.5 3 7.5C3.41 7.5 3.75 7.84 3.75 8.25V15.75C3.75 16.16 3.41 16.5 3 16.5ZM20.25 15.75C20.25 16.16 20.59 16.5 21 16.5C21.41 16.5 21.75 16.16 21.75 15.75V8.25C21.75 7.84 21.41 7.5 21 7.5C20.59 7.5 20.25 7.84 20.25 8.25V15.75Z" fill="#292D32"/>
<path opacity="0.4" fill-rule="evenodd" clip-rule="evenodd" d="M6.75 18.25C6.75 18.66 7.09 19 7.5 19C7.91 19 8.25 18.66 8.25 18.25V5.75C8.25 5.34 7.91 5 7.5 5C7.09 5 6.75 5.34 6.75 5.75V18.25ZM15.75 18.25C15.75 18.66 16.09 19 16.5 19C16.91 19 17.25 18.66 17.25 18.25V5.75C17.25 5.34 16.91 5 16.5 5C16.09 5 15.75 5.34 15.75 5.75V18.25Z" fill="#292D32"/>
</svg>
