<svg viewBox="0 0 24 24" fill="none" xmlns="http://www.w3.org/2000/svg">
<path fill-rule="evenodd" clip-rule="evenodd" d="M5.73937 16C5.84937 15.52 5.64937 14.81 5.29937 14.46L2.86937 12.03C2.10937 11.27 1.80937 10.46 2.02937 9.76C2.25937 9.06 2.96937 8.58 4.02937 8.4L7.14937 7.88C7.59937 7.8 8.14937 7.4 8.35937 6.99L10.0794 3.54C10.5794 2.55 11.2594 2 11.9994 2C12.7394 2 13.4194 2.55 13.9194 3.54L15.6394 6.99C15.6688 7.04894 15.7055 7.10737 15.748 7.16447L20.6809 2.22891C20.9809 1.92891 21.4709 1.92891 21.7709 2.22891C22.0809 2.52891 22.0809 3.00891 21.7709 3.30891L3.31086 21.7689C3.16086 21.9189 2.97086 21.9989 2.77086 21.9989C2.57086 21.9989 2.38086 21.9189 2.23086 21.7789C1.93086 21.4789 1.93086 20.9889 2.23086 20.6889L5.38994 17.5281L5.73937 16ZM18.6992 14.4586C18.3492 14.8086 18.1492 15.5086 18.2592 15.9886L18.9492 19.0086C19.2392 20.2586 19.0592 21.1986 18.4392 21.6486C18.1892 21.8286 17.8892 21.9186 17.5392 21.9186C17.0292 21.9186 16.4292 21.7286 15.7692 21.3386L12.8392 19.5986C12.3792 19.3286 11.6192 19.3286 11.1592 19.5986L8.22922 21.3386C7.11922 21.9886 6.16922 22.0986 5.55922 21.6486L5.55921 21.6486C5.51921 21.6186 5.47922 21.5886 5.44922 21.5486L18.0692 8.92857C18.5292 8.46857 19.1792 8.25857 19.8192 8.36857L19.9692 8.39857C21.0292 8.57857 21.7392 9.05857 21.9692 9.75857C22.1892 10.4586 21.8892 11.2686 21.1292 12.0286L18.6992 14.4586Z" fill="#292D32"/>
</svg>
