<svg viewBox="0 0 24 24" fill="none" xmlns="http://www.w3.org/2000/svg">
<path fill-rule="evenodd" clip-rule="evenodd" d="M1.46945 22.5299C1.61945 22.6799 1.80945 22.7499 1.99945 22.7499C2.18945 22.7499 2.37945 22.6799 2.52945 22.5299L22.5295 2.52994C22.8195 2.23994 22.8195 1.75994 22.5295 1.46994C22.2395 1.17994 21.7595 1.17994 21.4695 1.46994L16.1926 6.74677C16.1803 6.7275 16.1694 6.70855 16.1601 6.69008L14.4001 3.17008C13.6001 1.57008 12.5501 1.33008 12.0001 1.33008C11.4501 1.33008 10.4001 1.56008 9.60012 3.17008L7.83012 6.70008C7.70012 6.97008 7.27012 7.29008 6.97012 7.35008L3.78012 7.88008C2.06012 8.17008 1.52012 9.09008 1.35012 9.61008C1.18012 10.1301 1.08012 11.1901 2.32012 12.4301L4.80012 14.9101C5.04012 15.1501 5.20012 15.7001 5.12012 16.0201L4.5775 18.3619L1.46945 21.4699C1.17945 21.7599 1.17945 22.2399 1.46945 22.5299ZM6.59036 16.349L15.1231 7.81626C15.0107 7.68232 14.9047 7.52925 14.8201 7.36008L13.0601 3.84008C12.7501 3.21008 12.3501 2.83008 12.0001 2.83008C11.6501 2.83008 11.2501 3.21008 10.9401 3.85008L9.17012 7.37008C8.82012 8.07008 7.98012 8.69008 7.21012 8.82008L4.03012 9.35008C3.35012 9.46008 2.89012 9.73008 2.78012 10.0601C2.67012 10.3901 2.90012 10.8801 3.39012 11.3601L5.87012 13.8401C6.46987 14.4398 6.77986 15.5192 6.59036 16.349ZM17.6593 22.6699C17.1293 22.6699 16.4493 22.4999 15.5993 21.9999L12.6093 20.2299C12.2993 20.0499 11.6993 20.0499 11.3993 20.2299L8.39933 21.9999C8.04933 22.2099 7.57933 22.0899 7.36933 21.7399C7.15933 21.3799 7.27933 20.9199 7.62933 20.7099L10.6193 18.9399C11.3993 18.4799 12.5793 18.4799 13.3593 18.9399L16.3493 20.7099C17.2193 21.2299 17.7693 21.2299 17.9793 21.0799C18.1893 20.9299 18.3393 20.3999 18.1193 19.4199L17.4093 16.3499C17.2193 15.5199 17.5293 14.4499 18.1293 13.8399L20.6093 11.3599C21.0993 10.8699 21.3193 10.3899 21.2193 10.0599C21.1093 9.7299 20.6493 9.4599 19.9693 9.3499C19.5593 9.2799 19.2893 8.8999 19.3493 8.4899C19.4193 8.0799 19.7993 7.8099 20.2093 7.8699C21.9393 8.1599 22.4793 9.0799 22.6393 9.5999C22.7993 10.1199 22.8993 11.1799 21.6693 12.4199L19.1993 14.8999C18.9593 15.1399 18.8093 15.6799 18.8793 16.0099L19.5893 19.0799C20.0493 21.0799 19.3393 21.9499 18.8793 22.2899C18.6293 22.4699 18.2293 22.6699 17.6593 22.6699Z" fill="#292D32"/>
</svg>
