<svg viewBox="0 0 24 24" fill="none" xmlns="http://www.w3.org/2000/svg">
<path fill-rule="evenodd" clip-rule="evenodd" d="M5.29937 14.46C5.64937 14.81 5.84937 15.51 5.73937 16L5.21937 18.25C5.17937 18.45 5.41937 18.58 5.55937 18.44L16.3294 7.67C16.0394 7.5 15.7694 7.25 15.6394 6.99L13.9194 3.54C13.4194 2.55 12.7394 2 11.9994 2C11.2594 2 10.5794 2.55 10.0794 3.54L8.35937 6.99C8.14937 7.4 7.59937 7.8 7.14937 7.88L4.02937 8.4C2.96937 8.58 2.25937 9.06 2.02937 9.76C1.80937 10.46 2.10937 11.27 2.86937 12.03L5.29937 14.46ZM18.2608 16.0019C18.1408 15.5119 18.3408 14.8219 18.7008 14.4619L21.1208 12.0319C21.8808 11.2719 22.1808 10.4619 21.9608 9.76185C21.7308 9.06185 21.0208 8.58185 19.9608 8.40185L18.9508 8.23185C18.3208 8.12185 17.6708 8.33185 17.2108 8.79185L5.05078 20.9519C5.16078 21.2519 5.33078 21.4818 5.56078 21.6519C6.17078 22.1019 7.12078 21.9919 8.23078 21.3419L11.1608 19.6019C11.6208 19.3319 12.3808 19.3319 12.8408 19.6019L15.7708 21.3419C16.4308 21.7319 17.0308 21.9219 17.5408 21.9219C17.8908 21.9219 18.1908 21.8319 18.4408 21.6519C19.0608 21.2019 19.2408 20.2619 18.9508 19.0119L18.2608 16.0019Z" fill="#292D32"/>
</svg>
