<svg viewBox="0 0 24 24" fill="none" xmlns="http://www.w3.org/2000/svg">
<path fill-rule="evenodd" clip-rule="evenodd" d="M16.7995 8.03125L15.3895 5.21125C14.6195 3.68125 13.3795 3.68125 12.6095 5.20125L11.1995 8.02125C11.0095 8.41125 10.4995 8.79125 10.0695 8.86125L7.51945 9.28125C5.88945 9.56125 5.50945 10.7413 6.67945 11.9113L8.66945 13.9013C8.99945 14.2313 9.18945 14.8813 9.09945 15.3613L8.52945 17.8213C8.07945 19.7613 9.11945 20.5113 10.8295 19.5013L13.2195 18.0813C13.6495 17.8213 14.3695 17.8213 14.7995 18.0813L17.1895 19.5013C18.8995 20.5213 19.9395 19.7613 19.4895 17.8213L18.9195 15.3613C18.8095 14.8913 18.9995 14.2413 19.3295 13.9113L21.3195 11.9213C22.4895 10.7413 22.1095 9.56125 20.4795 9.29125L17.9295 8.87125C17.4995 8.79125 16.9895 8.42125 16.7995 8.03125ZM2 5.75H8C8.41 5.75 8.75 5.41 8.75 5C8.75 4.59 8.41 4.25 8 4.25H2C1.59 4.25 1.25 4.59 1.25 5C1.25 5.41 1.59 5.75 2 5.75ZM5 19.75H2C1.59 19.75 1.25 19.41 1.25 19C1.25 18.59 1.59 18.25 2 18.25H5C5.41 18.25 5.75 18.59 5.75 19C5.75 19.41 5.41 19.75 5 19.75ZM2 12.75H3C3.41 12.75 3.75 12.41 3.75 12C3.75 11.59 3.41 11.25 3 11.25H2C1.59 11.25 1.25 11.59 1.25 12C1.25 12.41 1.59 12.75 2 12.75Z" fill="#292D32"/>
</svg>
