<svg viewBox="0 0 24 24" fill="none" xmlns="http://www.w3.org/2000/svg">
<path d="M21.7709 2.22988C21.4709 1.92988 20.9809 1.92988 20.6809 2.22988L2.23086 20.6899C1.93086 20.9899 1.93086 21.4799 2.23086 21.7799C2.38086 21.9199 2.57086 21.9999 2.77086 21.9999C2.97086 21.9999 3.16086 21.9199 3.31086 21.7699L21.7709 3.30988C22.0809 3.00988 22.0809 2.52988 21.7709 2.22988Z" fill="#292D32"/>
<path opacity="0.4" fill-rule="evenodd" clip-rule="evenodd" d="M5.29937 14.46C5.64937 14.81 5.84937 15.52 5.73937 16L5.06937 18.93L16.3294 7.67C16.0394 7.5 15.7694 7.25 15.6394 6.99L13.9194 3.54C13.4194 2.55 12.7394 2 11.9994 2C11.2594 2 10.5794 2.55 10.0794 3.54L8.35937 6.99C8.14937 7.4 7.59937 7.8 7.14937 7.88L4.02937 8.4C2.96937 8.58 2.25937 9.06 2.02937 9.76C1.80937 10.46 2.10937 11.27 2.86937 12.03L5.29937 14.46ZM18.2592 16C18.1492 15.52 18.3492 14.81 18.6992 14.46L21.1292 12.03C21.8892 11.27 22.1892 10.46 21.9692 9.75995C21.7392 9.05995 21.0292 8.57995 19.9692 8.39995L18.7992 8.19995L5.44922 21.5499C5.47922 21.59 5.51922 21.62 5.55922 21.65C6.16922 22.1 7.11922 21.99 8.22922 21.34L11.1592 19.6C11.6092 19.33 12.3892 19.33 12.8392 19.6L15.7692 21.34C16.4292 21.73 17.0292 21.92 17.5392 21.92C17.8892 21.92 18.1892 21.83 18.4392 21.65C19.0592 21.2 19.2392 20.26 18.9492 19.01L18.2592 16Z" fill="#292D32"/>
</svg>
