<svg viewBox="0 0 24 24" fill="none" xmlns="http://www.w3.org/2000/svg">
<path fill-rule="evenodd" clip-rule="evenodd" d="M8.42118 20.3601C8.63118 20.5201 8.98117 20.6901 9.48117 20.6901C9.92117 20.6901 10.5012 20.5501 11.1912 20.1301L13.5811 18.7101C13.7811 18.5901 14.2012 18.5901 14.4012 18.7101L16.7912 20.1301C18.2912 21.0201 19.1811 20.6501 19.5811 20.3601C19.9811 20.0701 20.6012 19.3301 20.2112 17.6401L19.6412 15.1801C19.5912 14.9701 19.7012 14.5801 19.8512 14.4301L21.8412 12.4401C22.8912 11.3901 22.8012 10.4801 22.6612 10.0301C22.5212 9.58006 22.0612 8.78005 20.6012 8.54005L18.0511 8.12006C17.8611 8.09006 17.5612 7.86006 17.4712 7.69006L16.0612 4.87006C15.3812 3.51006 14.4812 3.31006 14.0012 3.31006C13.5212 3.31006 12.6212 3.51006 11.9412 4.87006L10.5312 7.69006C10.4512 7.86006 10.1412 8.09006 9.95117 8.12006L7.40116 8.54005C5.94116 8.79005 5.48116 9.58006 5.34116 10.0301C5.20116 10.4801 5.11117 11.3901 6.16117 12.4401L8.15116 14.4301C8.30116 14.5901 8.41115 14.9701 8.36115 15.1801L7.79117 17.6401C7.40117 19.3201 8.02118 20.0701 8.42118 20.3601ZM13.2812 5.54005C13.5512 5.00005 13.8412 4.81006 14.0012 4.81006C14.1612 4.81006 14.4512 5.00005 14.7212 5.54005L16.1312 8.36006C16.4312 8.97006 17.1412 9.49007 17.8112 9.60007L20.3611 10.0201C20.9311 10.1201 21.1912 10.3401 21.2412 10.4901C21.2912 10.6401 21.2012 10.9701 20.7912 11.3801L18.8011 13.3701C18.2811 13.8801 18.0212 14.8001 18.1812 15.5101L18.7512 17.9701C18.9212 18.6901 18.8112 19.0701 18.7012 19.1501C18.5912 19.2301 18.1912 19.2101 17.5612 18.8401L15.1712 17.4201C14.5112 17.0201 13.5011 17.0201 12.8311 17.4201L10.4312 18.8401C9.81116 19.2201 9.41115 19.2301 9.30115 19.1501C9.19115 19.0601 9.08116 18.6801 9.25116 17.9701L9.82117 15.5101C9.98117 14.8101 9.71117 13.8801 9.20117 13.3701L7.21115 11.3801C6.80115 10.9701 6.71117 10.6501 6.76117 10.4901C6.81117 10.3301 7.07118 10.1201 7.64118 10.0201L10.1912 9.60007C10.8612 9.49007 11.5712 8.97006 11.8712 8.36006L13.2812 5.54005ZM2 5.75H8C8.41 5.75 8.75 5.41 8.75 5C8.75 4.59 8.41 4.25 8 4.25H2C1.59 4.25 1.25 4.59 1.25 5C1.25 5.41 1.59 5.75 2 5.75ZM5 19.75H2C1.59 19.75 1.25 19.41 1.25 19C1.25 18.59 1.59 18.25 2 18.25H5C5.41 18.25 5.75 18.59 5.75 19C5.75 19.41 5.41 19.75 5 19.75ZM2 12.75H3C3.41 12.75 3.75 12.41 3.75 12C3.75 11.59 3.41 11.25 3 11.25H2C1.59 11.25 1.25 11.59 1.25 12C1.25 12.41 1.59 12.75 2 12.75Z" fill="#292D32"/>
</svg>
