<svg viewBox="0 0 24 24" fill="none" xmlns="http://www.w3.org/2000/svg">
<path fill-rule="evenodd" clip-rule="evenodd" d="M7.25 5C7.25 5.41 7.59 5.75 8 5.75C8.41 5.75 8.75 5.41 8.75 5V4.25H15.25V5C15.25 5.41 15.59 5.75 16 5.75C16.41 5.75 16.75 5.41 16.75 5V4.31976C19.0686 4.61436 20.25 5.71453 20.25 9.65V15.25H18C15.58 15.25 14.25 16.58 14.25 19V21.25H9C4.48 21.25 3.75 19.65 3.75 15.82V9.65C3.75 5.69771 4.9415 4.60501 7.25 4.31603V5ZM15.0418 22.7488C15.028 22.7496 15.014 22.75 15 22.75H9C3.38 22.75 2.25 20.1 2.25 15.82V9.65C2.25 5.1932 3.66452 3.22066 7.25 2.80967V2C7.25 1.59 7.59 1.25 8 1.25C8.41 1.25 8.75 1.59 8.75 2V2.75H15.25V2C15.25 1.59 15.59 1.25 16 1.25C16.41 1.25 16.75 1.59 16.75 2V2.8135C20.3441 3.23279 21.75 5.20688 21.75 9.65V16C21.75 16.1742 21.6887 16.3357 21.5867 16.4639C21.5691 16.4868 21.5502 16.5088 21.53 16.53L15.53 22.53C15.3998 22.6602 15.2263 22.7385 15.0418 22.7488ZM15 11.75H7C6.59 11.75 6.25 11.41 6.25 11C6.25 10.59 6.59 10.25 7 10.25H15C15.41 10.25 15.75 10.59 15.75 11C15.75 11.41 15.41 11.75 15 11.75ZM7 15.75H12C12.41 15.75 12.75 15.41 12.75 15C12.75 14.59 12.41 14.25 12 14.25H7C6.59 14.25 6.25 14.59 6.25 15C6.25 15.41 6.59 15.75 7 15.75ZM15.75 19C15.75 17.42 16.42 16.75 18 16.75H19.19L15.75 20.19V19Z" fill="#292D32"/>
</svg>
