<svg viewBox="0 0 24 24" fill="none" xmlns="http://www.w3.org/2000/svg">
<path fill-rule="evenodd" clip-rule="evenodd" d="M8.28906 6.29C7.86906 6.29 7.53906 5.95 7.53906 5.54V2.75C7.53906 2.34 7.86906 2 8.28906 2C8.70906 2 9.03906 2.34 9.03906 2.75V5.53C9.03906 5.95 8.70906 6.29 8.28906 6.29ZM15.7109 6.29C15.2909 6.29 14.9609 5.95 14.9609 5.54V2.75C14.9609 2.33 15.3009 2 15.7109 2C16.1309 2 16.4609 2.34 16.4609 2.75V5.53C16.4609 5.95 16.1309 6.29 15.7109 6.29ZM21.3195 16.2497C21.4495 16.1197 21.4995 15.9697 21.4995 15.8197C21.4995 15.4897 21.2395 15.1797 20.8495 15.1797H20.8491C19.7192 15.1797 18.3994 15.1797 17.4495 15.1897C15.9295 15.1897 14.6895 16.3997 14.6895 17.8597V21.3597C14.6895 21.7397 15.0095 21.9997 15.3395 21.9997C15.5095 21.9997 15.6795 21.9397 15.8095 21.7997C16.4721 21.1326 17.3552 20.243 18.2586 19.3329L18.7691 18.8187L20.5802 16.9941L21.3195 16.2497ZM17.96 5.31C17.96 4.48 18.91 4.01 19.57 4.5C20.74 5.39 21.5 6.78 21.5 8.37V12.68C21.5 13.23 21.05 13.68 20.5 13.68H20.4996C19.2698 13.68 17.9799 13.68 17.45 13.69C15.1 13.69 13.19 15.56 13.19 17.86V21C13.19 21.55 12.74 22 12.19 22H7.37C4.68 22 2.5 19.82 2.5 17.13V8.37C2.5 8.23 2.51 8.09 2.52 7.95C2.53 7.83 2.54 7.72 2.56 7.61C2.58 7.46 2.61 7.31 2.65 7.17L2.65001 7.16997C2.68001 7.05998 2.71 6.94999 2.74 6.85C2.75 6.83 2.7575 6.8075 2.765 6.785C2.7725 6.7625 2.78 6.74 2.79 6.72C2.7956 6.70601 2.80041 6.6928 2.8051 6.67993C2.81716 6.64683 2.8284 6.61601 2.85 6.58C2.89 6.45 2.95 6.33 3.01 6.21C3.01 6.19 3.02 6.18 3.04 6.16C3.11 6.02 3.19 5.87 3.28 5.74C3.29 5.72 3.3 5.71 3.31 5.7C3.3212 5.68319 3.33241 5.6656 3.34383 5.64767C3.37319 5.60157 3.40401 5.55319 3.44 5.51C3.46968 5.45806 3.51037 5.41162 3.54982 5.36661C3.56354 5.35096 3.5771 5.33548 3.59 5.32C3.66 5.23 3.73 5.15 3.81 5.07C3.87 5 3.93999 4.93001 4.00999 4.86001L4.01 4.86C4.11 4.76 4.22 4.67 4.33 4.58C4.365 4.555 4.3975 4.53 4.43 4.505C4.4625 4.48 4.495 4.455 4.53 4.43H4.54C4.545 4.425 4.55 4.4225 4.555 4.42C4.56 4.4175 4.565 4.415 4.57 4.41C5.22 4.08 6.04 4.54 6.04 5.31V5.54C6.04 6.45 6.58 7.23 7.36 7.58C7.46 7.63 7.56 7.67 7.66 7.7C7.78 7.74 7.91 7.77 8.05 7.78H8.06C8.21 7.8 8.37 7.8 8.52 7.78H8.53C8.67 7.77 8.8 7.74 8.92 7.7C8.93 7.695 8.94 7.6925 8.95 7.69C8.96 7.6875 8.97 7.685 8.98 7.68C9.06 7.65 9.13 7.62 9.2 7.59C9.205 7.59 9.2075 7.5875 9.21 7.585C9.2125 7.5825 9.215 7.58 9.22 7.58C9.26 7.56 9.3 7.54 9.34 7.51C10.07 7.11 10.54 6.29 10.54 5.41V4.5C10.54 3.95 10.99 3.5 11.54 3.5H12.46C13.01 3.5 13.46 3.95 13.46 4.5V5.54C13.46 6.86 14.6 7.92 15.95 7.78C17.12 7.66 17.96 6.58 17.96 5.41V5.31ZM10.43 16.42C10.76 16.42 11.04 16.21 11.13 15.91C11.17 15.84 11.18 15.75 11.18 15.67C11.18 15.25 10.84 14.91 10.43 14.91H6.79C6.37 14.91 6.04 15.25 6.04 15.67C6.04 16.04 6.3 16.35 6.66 16.4C6.7 16.42 6.74 16.42 6.79 16.42H10.43ZM13.21 12.71C13.54 12.71 13.82 12.5 13.91 12.2C13.95 12.13 13.96 12.04 13.96 11.96C13.96 11.54 13.63 11.2 13.21 11.2H6.79C6.37 11.2 6.04 11.54 6.04 11.96C6.04 12.33 6.3 12.64 6.66 12.69C6.7 12.71 6.74 12.71 6.79 12.71H13.21Z" fill="#292D32"/>
</svg>
