<svg viewBox="0 0 24 24" fill="none" xmlns="http://www.w3.org/2000/svg">
<path fill-rule="evenodd" clip-rule="evenodd" d="M1.2207 12C1.2207 17.93 6.0507 22.75 11.9707 22.75C17.9007 22.75 22.7207 17.93 22.7207 12C22.7207 6.07 17.8907 1.25 11.9707 1.25C6.0507 1.25 1.2207 6.07 1.2207 12ZM2.7207 12C2.7207 6.9 6.8707 2.75 11.9707 2.75C17.0707 2.75 21.2207 6.9 21.2207 12C21.2207 17.1 17.0707 21.25 11.9707 21.25C6.8707 21.25 2.7207 17.1 2.7207 12ZM10.7295 16.98H13.2695C15.7995 16.98 16.9795 15.8 16.9795 13.27V10.73C16.9795 8.20002 15.7995 7.02002 13.2695 7.02002H10.7295C8.19953 7.02002 7.01953 8.20002 7.01953 10.73V13.27C7.01953 15.8 8.19953 16.98 10.7295 16.98ZM8.51953 10.73C8.51953 9.04002 9.03953 8.52002 10.7295 8.52002H13.2695C14.9595 8.52002 15.4795 9.04002 15.4795 10.73V13.27C15.4795 14.96 14.9595 15.48 13.2695 15.48H10.7295C9.03953 15.48 8.51953 14.96 8.51953 13.27V10.73Z" fill="#292D32"/>
</svg>
