<svg viewBox="0 0 24 24" fill="none" xmlns="http://www.w3.org/2000/svg">
<path fill-rule="evenodd" clip-rule="evenodd" d="M7.70023 14.5099H10.3802C10.7902 14.5099 11.1202 14.1699 11.1202 13.7599C11.1202 13.3499 10.7802 13.0099 10.3702 13.0099H7.93022C8.18022 12.5599 8.68024 12.2199 9.21024 11.8599L9.21622 11.8558C10.0652 11.2765 11.1202 10.5567 11.1202 9.14996C11.1202 7.79996 10.0302 6.70996 8.68022 6.70996C7.33022 6.70996 6.24023 7.80996 6.24023 9.14996C6.24023 9.55996 6.58023 9.89996 6.99023 9.89996C7.40023 9.89996 7.74023 9.55996 7.74023 9.14996C7.74023 8.62996 8.16022 8.20996 8.68022 8.20996C9.20022 8.20996 9.62022 8.62996 9.62022 9.14996C9.62022 9.72996 9.17022 10.0699 8.37022 10.6099L8.34768 10.6253C7.59329 11.1414 6.74677 11.7205 6.40022 12.78C6.28022 13.18 6.34023 13.5999 6.59023 13.9399C6.85023 14.2999 7.26023 14.5099 7.70023 14.5099ZM15.2908 13.7599C15.2908 14.1699 15.6308 14.5099 16.0408 14.5099C16.4608 14.5099 16.7908 14.18 16.7908 13.77V13.08H17.0009C17.4109 13.08 17.7509 12.74 17.7509 12.33C17.7509 11.92 17.4109 11.58 17.0009 11.58H16.7809V8.05993C16.7909 7.45993 16.3909 6.93996 15.8209 6.76996C15.2509 6.60996 14.6409 6.83991 14.3209 7.34991C13.6009 8.50991 12.8109 9.83995 12.1309 11.0099C11.8809 11.4299 11.8809 11.96 12.1309 12.39C12.3809 12.81 12.8309 13.0699 13.3209 13.0699H13.3309H15.2908V13.7599ZM13.5408 11.5699C14.0908 10.6299 14.7008 9.59995 15.2908 8.63995V11.5699H13.5408Z" fill="#292D32"/>
<path opacity="0.4" d="M18 18.86H17.24C16.44 18.86 15.68 19.17 15.12 19.73L13.41 21.42C12.63 22.19 11.36 22.19 10.58 21.42L8.87 19.73C8.31 19.17 7.54 18.86 6.75 18.86H6C4.34 18.86 3 17.53 3 15.89V4.97998C3 3.33998 4.34 2.01001 6 2.01001H18C19.66 2.01001 21 3.33998 21 4.97998V15.89C21 17.52 19.66 18.86 18 18.86Z" fill="#292D32"/>
</svg>
