<svg viewBox="0 0 24 24" fill="none" xmlns="http://www.w3.org/2000/svg">
<path fill-rule="evenodd" clip-rule="evenodd" d="M12 22.75C11.3 22.75 10.59 22.48 10.06 21.95L8.35001 20.26C7.92001 19.84 7.35999 19.61 6.75999 19.61H6C3.93 19.61 2.25 17.94 2.25 15.89V4.97998C2.25 2.92998 3.93 1.26001 6 1.26001H18C20.07 1.26001 21.75 2.92998 21.75 4.97998V15.89C21.75 17.94 20.07 19.61 18 19.61H17.24C16.64 19.61 16.07 19.84 15.65 20.26L13.94 21.95C13.41 22.48 12.7 22.75 12 22.75ZM6 2.75C4.76 2.75 3.75 3.74997 3.75 4.96997V15.88C3.75 17.11 4.76 18.1 6 18.1H6.75999C7.75999 18.1 8.7 18.4899 9.41 19.1899L11.12 20.88C11.61 21.36 12.4 21.36 12.89 20.88L14.6 19.1899C15.31 18.4899 16.25 18.1 17.25 18.1H18C19.24 18.1 20.25 17.1 20.25 15.88V4.96997C20.25 3.73997 19.24 2.75 18 2.75H6ZM10.3802 14.51H7.70023C7.26023 14.51 6.85023 14.2999 6.59023 13.9399C6.34023 13.5999 6.28022 13.18 6.40022 12.78C6.74677 11.7206 7.59329 11.1415 8.34768 10.6254L8.37022 10.61C9.17022 10.07 9.62022 9.73002 9.62022 9.15002C9.62022 8.63002 9.20022 8.20996 8.68022 8.20996C8.16022 8.20996 7.74023 8.63002 7.74023 9.15002C7.74023 9.56002 7.40023 9.90002 6.99023 9.90002C6.58023 9.90002 6.24023 9.56002 6.24023 9.15002C6.24023 7.81002 7.33022 6.70996 8.68022 6.70996C10.0302 6.70996 11.1202 7.80002 11.1202 9.15002C11.1202 10.5567 10.0652 11.2766 9.21622 11.8559L9.21024 11.86C8.68024 12.22 8.18022 12.56 7.93022 13.01H10.3702C10.7802 13.01 11.1202 13.35 11.1202 13.76C11.1202 14.17 10.7902 14.51 10.3802 14.51ZM15.2889 13.7599C15.2889 14.1699 15.6289 14.5099 16.0389 14.5099C16.4589 14.5099 16.7889 14.18 16.7889 13.77V13.0799H16.9989C17.4089 13.0799 17.7489 12.7399 17.7489 12.3299C17.7489 11.9199 17.4089 11.5799 16.9989 11.5799H16.7789V8.05999C16.7889 7.45999 16.3889 6.93996 15.8189 6.76996C15.2489 6.60996 14.6389 6.83991 14.3189 7.34991C13.5989 8.50991 12.8089 9.83995 12.1289 11.0099C11.8789 11.4299 11.8789 11.96 12.1289 12.39C12.3789 12.81 12.8289 13.0699 13.3189 13.0699H13.3289H15.2889V13.7599ZM13.5389 11.5699C14.0889 10.6299 14.6989 9.59995 15.2889 8.63995V11.5699H13.5389Z" fill="#292D32"/>
</svg>
