<svg viewBox="0 0 24 24" fill="none" xmlns="http://www.w3.org/2000/svg">
<path fill-rule="evenodd" clip-rule="evenodd" d="M6 2H18C19.66 2 21 3.33 21 4.97V15.88C21 17.52 19.66 18.85 18 18.85H17.25C16.46 18.85 15.69 19.16 15.13 19.72L13.42 21.41C12.64 22.18 11.37 22.18 10.59 21.41L8.88 19.72C8.32 19.16 7.56 18.85 6.76 18.85H6C4.34 18.85 3 17.52 3 15.88V4.97C3 3.33 4.34 2 6 2ZM11.13 13.76C11.13 13.35 10.79 13.01 10.38 13.01V13.02H7.94C8.19 12.57 8.69 12.23 9.22 11.87L9.22593 11.866C10.0749 11.2866 11.13 10.5667 11.13 9.16C11.13 7.81 10.04 6.72 8.69 6.72C7.34 6.72 6.25 7.82 6.25 9.16C6.25 9.57 6.59 9.91 7 9.91C7.41 9.91 7.75 9.57 7.75 9.16C7.75 8.64 8.16 8.21 8.68 8.21C9.2 8.21 9.62 8.63 9.62 9.15C9.62 9.73 9.17 10.07 8.37 10.61L8.34735 10.6255C7.59298 11.1416 6.74653 11.7206 6.4 12.78C6.28 13.18 6.34 13.6 6.59 13.94C6.85 14.3 7.26 14.51 7.7 14.51H10.38C10.79 14.51 11.13 14.17 11.13 13.76ZM16.79 13.08H17C17.41 13.08 17.75 12.75 17.75 12.34C17.75 11.93 17.41 11.59 17 11.59H16.78V8.07C16.79 7.47 16.39 6.95 15.82 6.78C15.25 6.62 14.64 6.85 14.32 7.36C13.6 8.52 12.81 9.85 12.13 11.02C11.88 11.44 11.88 11.97 12.13 12.4C12.38 12.82 12.83 13.08 13.32 13.08H13.33H15.29V13.77C15.29 14.18 15.63 14.52 16.04 14.52C16.45 14.52 16.79 14.18 16.79 13.77V13.08ZM15.2891 8.64062V11.5706H13.5391C14.0891 10.6306 14.6991 9.60063 15.2891 8.64062Z" fill="#292D32"/>
</svg>
