<svg viewBox="0 0 24 24" fill="none" xmlns="http://www.w3.org/2000/svg">
<path fill-rule="evenodd" clip-rule="evenodd" d="M12 22.75C11.3 22.75 10.59 22.48 10.06 21.95L8.34998 20.26C7.92998 19.84 7.35001 19.61 6.76001 19.61H6C3.93 19.61 2.25 17.94 2.25 15.89V4.97C2.25 2.92 3.93 1.25 6 1.25H18C20.07 1.25 21.75 2.92 21.75 4.97V15.88C21.75 17.93 20.07 19.6 18 19.6H17.24C16.65 19.6 16.07 19.84 15.65 20.25L13.94 21.94C13.41 22.48 12.7 22.75 12 22.75ZM6 2.75C4.76 2.75 3.75 3.75 3.75 4.97V15.88C3.75 17.11 4.76 18.1 6 18.1H6.76001C7.75001 18.1 8.70997 18.5 9.40997 19.19L11.12 20.88C11.61 21.36 12.4 21.36 12.89 20.88L14.6 19.19C15.3 18.5 16.26 18.1 17.25 18.1H18C19.24 18.1 20.25 17.1 20.25 15.88V4.97C20.25 3.74 19.24 2.75 18 2.75H6ZM12.0708 9.70005H12.0008H11.9008C10.4408 9.65005 9.30078 8.47005 9.30078 7.00005C9.30078 5.51005 10.5108 4.30005 12.0008 4.30005C13.4908 4.30005 14.7008 5.51005 14.7008 7.00005C14.6908 8.47005 13.5508 9.65005 12.0908 9.70005H12.0708ZM12.0008 5.80005C11.3408 5.80005 10.8008 6.34005 10.8008 7.00005C10.8008 7.65005 11.3108 8.18005 11.9508 8.20005C11.9508 8.19005 12.0108 8.19005 12.0808 8.20005C12.7108 8.16005 13.2008 7.64005 13.2008 7.00005C13.2008 6.34005 12.6608 5.80005 12.0008 5.80005ZM8.83002 15.8101C9.72002 16.4001 10.86 16.7001 12 16.7001C13.14 16.7001 14.28 16.4101 15.16 15.8101C16.01 15.2401 16.49 14.4301 16.49 13.5701C16.49 12.7201 16 11.9001 15.16 11.3401C13.39 10.1601 10.61 10.1601 8.83002 11.3401C7.98002 11.9001 7.5 12.7201 7.5 13.5801C7.5 14.4401 7.99002 15.2501 8.83002 15.8101ZM9 13.5801C9 13.2301 9.22997 12.8801 9.65997 12.5901C10.93 11.7401 13.07 11.7401 14.33 12.5901C14.75 12.8801 14.99 13.2301 14.99 13.5801C15 13.9301 14.76 14.2801 14.33 14.5701C13.06 15.4201 10.93 15.4201 9.65997 14.5701C9.23997 14.2801 9 13.9301 9 13.5801Z" fill="#292D32"/>
</svg>
