<svg viewBox="0 0 24 24" fill="none" xmlns="http://www.w3.org/2000/svg">
<path fill-rule="evenodd" clip-rule="evenodd" d="M8.16911 20.3702C9.23911 21.4402 10.6591 21.9802 12.0691 21.9802C13.4891 21.9802 14.8991 21.4402 15.9791 20.3702L20.3691 15.9802C22.5191 13.8302 22.5191 10.3202 20.3691 8.17018L15.8391 3.64018C14.7391 2.54018 13.2191 1.97018 11.6691 2.03018L6.66911 2.27018C4.26911 2.39018 2.37911 4.28018 2.26911 6.67018L2.02911 11.6702C1.95911 13.2202 2.53911 14.7402 3.63911 15.8402L8.16911 20.3702ZM9.22911 19.3002L4.69911 14.7702C3.89911 13.9702 3.46911 12.8602 3.51911 11.7302L3.75911 6.73018C3.83911 5.11018 5.10911 3.84018 6.73911 3.77018L11.7391 3.53018C12.8591 3.47018 13.9691 3.90018 14.7691 4.70018L19.2991 9.23018C20.0591 9.99018 20.4791 11.0002 20.4791 12.0702C20.4791 13.1402 20.0591 14.1502 19.2991 14.9102L14.9091 19.3002C14.1491 20.0602 13.1391 20.4802 12.0691 20.4802C10.9991 20.4802 9.98911 20.0602 9.22911 19.3002ZM6.25 9.5C6.25 11.29 7.71 12.75 9.5 12.75C11.29 12.75 12.75 11.29 12.75 9.5C12.75 7.71 11.29 6.25 9.5 6.25C7.71 6.25 6.25 7.71 6.25 9.5ZM7.75 9.5C7.75 8.54 8.54 7.75 9.5 7.75C10.46 7.75 11.25 8.54 11.25 9.5C11.25 10.46 10.46 11.25 9.5 11.25C8.54 11.25 7.75 10.46 7.75 9.5Z" fill="#292D32"/>
</svg>
