<svg viewBox="0 0 24 24" fill="none" xmlns="http://www.w3.org/2000/svg">
<path fill-rule="evenodd" clip-rule="evenodd" d="M12.3791 9.50012C12.3791 11.0907 11.0897 12.3801 9.49914 12.3801C7.90856 12.3801 6.61914 11.0907 6.61914 9.50012C6.61914 7.90954 7.90856 6.62012 9.49914 6.62012C11.0897 6.62012 12.3791 7.90954 12.3791 9.50012ZM12.4695 17.5299C12.6195 17.6799 12.8095 17.7499 12.9995 17.7499C13.1895 17.7499 13.3795 17.6799 13.5295 17.5299L17.5295 13.5299C17.8195 13.2399 17.8195 12.7599 17.5295 12.4699C17.2395 12.1799 16.7595 12.1799 16.4695 12.4699L12.4695 16.4699C12.1795 16.7599 12.1795 17.2399 12.4695 17.5299Z" fill="#292D32"/>
<path opacity="0.4" d="M4.17038 15.2998L8.70038 19.8298C10.5604 21.6898 13.5804 21.6898 15.4504 19.8298L19.8404 15.4398C21.7004 13.5798 21.7004 10.5598 19.8404 8.6898L15.3004 4.1698C14.3504 3.2198 13.0404 2.7098 11.7004 2.7798L6.70038 3.0198C4.70038 3.1098 3.11038 4.6998 3.01038 6.6898L2.77038 11.6898C2.71038 13.0398 3.22038 14.3498 4.17038 15.2998Z" fill="#292D32"/>
</svg>
