<svg viewBox="0 0 24 24" fill="none" xmlns="http://www.w3.org/2000/svg">
<path fill-rule="evenodd" clip-rule="evenodd" d="M3.9196 20.3433L17.8796 6.38328C18.2096 6.05328 18.2596 5.54328 18.0196 5.14328L17.5496 4.40328C17.1896 3.83328 16.3496 3.36328 15.6696 3.36328H4.2196C2.4796 3.36328 1.4096 5.28328 2.3396 6.76328L5.0996 11.1933C5.4696 11.7833 5.4696 12.7433 5.0996 13.3333L2.3396 17.7633C1.8196 18.5933 1.9196 19.5533 2.4196 20.2433C2.7696 20.7333 3.4896 20.7733 3.9196 20.3433ZM16.4499 20.0119L21.6299 13.1119C22.0899 12.5019 22.1299 11.4719 21.7299 10.8319L19.8799 7.86195C19.5399 7.31195 18.7699 7.23195 18.3199 7.68195L6.79987 19.1919C6.16987 19.8219 6.61987 20.9019 7.50987 20.9019H14.6699C15.2899 20.9019 16.0899 20.5019 16.4499 20.0119Z" fill="#292D32"/>
</svg>
