<svg viewBox="0 0 24 24" fill="none" xmlns="http://www.w3.org/2000/svg">
<path fill-rule="evenodd" clip-rule="evenodd" d="M7.72055 11.1203L9.97055 8.87027C10.2605 8.58027 10.2605 8.10027 9.97055 7.81027C9.67055 7.52027 9.20055 7.52027 8.91055 7.81027L7.19055 9.53027L6.97055 9.31027C6.67055 9.02027 6.20055 9.02027 5.91055 9.31027C5.61055 9.60027 5.61055 10.0803 5.91055 10.3703L6.66055 11.1203C6.80055 11.2703 7.00055 11.3403 7.19055 11.3403C7.38055 11.3403 7.57055 11.2703 7.72055 11.1203ZM17.5605 10.5903C17.9805 10.5903 18.3105 10.2503 18.3105 9.84033C18.3105 9.43033 17.9805 9.09033 17.5605 9.09033H12.3105C11.9005 9.09033 11.5605 9.43033 11.5605 9.84033C11.5605 10.2503 11.9005 10.5903 12.3105 10.5903H17.5605ZM18.3105 16.8403C18.3105 17.2503 17.9805 17.5903 17.5605 17.5903H12.3105C11.9005 17.5903 11.5605 17.2503 11.5605 16.8403C11.5605 16.4303 11.9005 16.0903 12.3105 16.0903H17.5605C17.9805 16.0903 18.3105 16.4303 18.3105 16.8403ZM7.72055 18.1203L9.97055 15.8703C10.2605 15.5803 10.2605 15.1003 9.97055 14.8103C9.67055 14.5203 9.20055 14.5203 8.91055 14.8103L7.19055 16.5303L6.97055 16.3103C6.67055 16.0203 6.20055 16.0203 5.91055 16.3103C5.61055 16.6003 5.61055 17.0803 5.91055 17.3703L6.66055 18.1203C6.80055 18.2703 7.00055 18.3403 7.19055 18.3403C7.38055 18.3403 7.57055 18.2703 7.72055 18.1203Z" fill="#292D32"/>
<path opacity="0.4" d="M16.19 2.97021H7.81C4.17 2.97021 2 5.14022 2 8.78022V17.1602C2 20.8002 4.17 22.9702 7.81 22.9702H16.19C19.83 22.9702 22 20.8002 22 17.1602V8.78022C22 5.14022 19.83 2.97021 16.19 2.97021Z" fill="#292D32"/>
</svg>
