<svg viewBox="0 0 24 24" fill="none" xmlns="http://www.w3.org/2000/svg">
<path fill-rule="evenodd" clip-rule="evenodd" d="M12.0103 17C11.1603 17 10.3003 16.78 9.63031 16.35L6.37676 14.226L6.3692 17.7701C6.3692 18.7101 7.1492 19.7901 8.0392 20.0901L11.2292 21.1501C11.6292 21.2801 12.3692 21.2801 12.7692 21.1501L15.9592 20.0901C16.8492 19.7901 17.6292 18.7101 17.6292 17.7801V14.2316L14.4003 16.35C13.7303 16.79 12.8703 17 12.0103 17ZM3.61031 12.42L4.87884 13.2482L4.8692 17.7701C4.8592 19.3601 6.0492 21.0101 7.5592 21.5101L10.7492 22.5701C11.1092 22.6901 11.5592 22.7501 11.9992 22.7501C12.4392 22.7501 12.8892 22.6901 13.2492 22.5801L16.4392 21.5201C17.9492 21.0101 19.1292 19.3701 19.1292 17.7801V13.2474L20.3903 12.42C20.4799 12.3611 20.5666 12.2989 20.6504 12.2337V15C20.6504 15.41 20.9904 15.75 21.4004 15.75C21.8104 15.75 22.1504 15.41 22.1504 15V9.52615C22.1636 9.39538 22.1703 9.26321 22.1703 9.13004C22.1703 7.80003 21.5003 6.57003 20.3903 5.84003L14.4003 1.91003C13.0703 1.03003 10.9803 1.03003 9.64031 1.90003L3.61031 5.82003C2.49031 6.55003 1.82031 7.78003 1.82031 9.12004C1.82031 10.46 2.49031 11.69 3.61031 12.42ZM20.6596 8.88382C20.5917 8.14215 20.2039 7.4964 19.5703 7.08003L13.5803 3.15003C13.1603 2.89003 12.5903 2.75003 12.0103 2.75003C11.4403 2.75003 10.8703 2.88003 10.4603 3.16003L4.44031 7.08003C3.74031 7.54003 3.33031 8.28004 3.33031 9.12004C3.33031 9.96003 3.73031 10.7 4.44031 11.16L10.4603 15.09C11.2903 15.63 12.7503 15.63 13.5803 15.09L19.5703 11.16C20.1796 10.7596 20.5616 10.1471 20.6504 9.44107V9C20.6504 8.96054 20.6535 8.92174 20.6596 8.88382Z" fill="#292D32"/>
</svg>
