<svg viewBox="0 0 24 24" fill="none" xmlns="http://www.w3.org/2000/svg">
<path fill-rule="evenodd" clip-rule="evenodd" d="M13.9895 2.52859L19.9795 6.45859C21.2395 7.28859 21.6495 8.78859 21.2495 10.0786V14.9986C21.2495 15.4086 20.9095 15.7486 20.4995 15.7486C20.0895 15.7486 19.7495 15.4086 19.7495 14.9986V11.9386L18.3795 12.8386L13.9895 15.7186C12.9095 16.4286 11.1295 16.4286 10.0495 15.7186L5.62953 12.8386L4.02953 11.7986C2.09953 10.5386 2.09953 7.70859 4.02953 6.45859L10.0495 2.52859C11.1295 1.81859 12.9095 1.81859 13.9895 2.52859ZM18.3811 16.4802C18.3811 15.6802 17.5011 15.2002 16.8311 15.6402L14.8011 16.9702C14.0111 17.5002 13.0111 17.7602 12.0111 17.7602C11.0111 17.7602 10.0111 17.5002 9.22109 16.9702L7.16109 15.6302C6.50109 15.2002 5.62109 15.6802 5.62109 16.4702V17.7702C5.62109 19.0402 6.60109 20.4002 7.80109 20.8002L10.9911 21.8602C11.5411 22.0502 12.4511 22.0502 13.0111 21.8602L16.2011 20.8002C17.3911 20.4002 18.3811 19.0402 18.3811 17.7702V16.4802Z" fill="#292D32"/>
</svg>
