<svg viewBox="0 0 24 24" fill="none" xmlns="http://www.w3.org/2000/svg">
<path fill-rule="evenodd" clip-rule="evenodd" d="M1.25 12C1.25 17.93 6.07 22.75 12 22.75C17.93 22.75 22.75 17.93 22.75 12C22.75 6.07 17.93 1.25 12 1.25C6.07 1.25 1.25 6.07 1.25 12ZM2.75 12C2.75 6.9 6.9 2.75 12 2.75C17.1 2.75 21.25 6.9 21.25 12C21.25 17.1 17.1 21.25 12 21.25C6.9 21.25 2.75 17.1 2.75 12ZM10.0495 15.3601C10.1895 15.5001 10.3795 15.5801 10.5795 15.5801C10.7795 15.5801 10.9695 15.5001 11.1095 15.3601L16.7795 9.6901C17.0695 9.4001 17.0695 8.9201 16.7795 8.6301C16.4895 8.3401 16.0095 8.3401 15.7195 8.6301L10.5795 13.7701L8.27945 11.4701C7.98945 11.1801 7.50945 11.1801 7.21945 11.4701C6.92945 11.7601 6.92945 12.2401 7.21945 12.5301L10.0495 15.3601Z" fill="#292D32"/>
</svg>
