<svg viewBox="0 0 24 24" fill="none" xmlns="http://www.w3.org/2000/svg">
<path fill-rule="evenodd" clip-rule="evenodd" d="M14.9506 2C16.4606 2 17.8006 2.91 18.3506 4.32C18.8906 5.74 18.5206 7.31 17.4006 8.33L13.3606 12H10.6506L6.61065 8.33C5.48065 7.31 5.11065 5.74 5.65065 4.32C6.20065 2.91 7.54065 2 9.05065 2H14.9506ZM10.1806 7.23H13.8206C14.1906 7.23 14.5006 6.92 14.5006 6.55C14.5006 6.18 14.2006 5.87 13.8206 5.87H10.1806C9.81065 5.87 9.50065 6.18 9.50065 6.55C9.50065 6.92 9.80065 7.23 10.1806 7.23ZM10.18 18.14H13.82C14.19 18.14 14.5 17.83 14.5 17.46C14.5 17.09 14.2 16.78 13.82 16.78H10.18C9.81 16.78 9.5 17.08 9.5 17.46C9.5 17.83 9.8 18.14 10.18 18.14Z" fill="#292D32"/>
<path opacity="0.4" d="M18.3495 19.68C17.7995 21.09 16.4595 22 14.9495 22H9.04949C7.52949 22 6.19949 21.09 5.64949 19.68C5.09949 18.26 5.47949 16.69 6.59949 15.67L10.6495 12H13.3595L17.3995 15.67C18.5195 16.69 18.8895 18.26 18.3495 19.68Z" fill="#292D32"/>
</svg>
