<svg viewBox="0 0 24 24" fill="none" xmlns="http://www.w3.org/2000/svg">
<path fill-rule="evenodd" clip-rule="evenodd" d="M7 20.75H17C21.41 20.75 22.75 19.41 22.75 15V9C22.75 4.59 21.41 3.25 17 3.25H7C2.59 3.25 1.25 4.59 1.25 9V15C1.25 19.41 2.59 20.75 7 20.75ZM2.75 9C2.75 5.43 3.42 4.75 7 4.75H17C20.58 4.75 21.25 5.43 21.25 9V15C21.25 18.57 20.58 19.25 17 19.25H7C3.42 19.25 2.75 18.57 2.75 15V9ZM13.3 16.75H15.7C18.12 16.75 19.25 15.62 19.25 13.2V10.8C19.25 8.38 18.12 7.25 15.7 7.25H13.3C10.88 7.25 9.75 8.38 9.75 10.8V13.2C9.75 15.62 10.88 16.75 13.3 16.75ZM11.25 10.8C11.25 9.21 11.71 8.75 13.3 8.75H15.7C17.29 8.75 17.75 9.21 17.75 10.8V13.2C17.75 14.79 17.29 15.25 15.7 15.25H13.3C11.71 15.25 11.25 14.79 11.25 13.2V10.8Z" fill="#292D32"/>
</svg>
