<svg viewBox="0 0 24 24" fill="none" xmlns="http://www.w3.org/2000/svg">
<path fill-rule="evenodd" clip-rule="evenodd" d="M10 20.75H14C18.83 20.75 22.75 16.82 22.75 12C22.75 7.18 18.83 3.25 14 3.25H10C5.17 3.25 1.25 7.18 1.25 12C1.25 16.82 5.17 20.75 10 20.75ZM2.75 12C2.75 8 6 4.75 10 4.75H14C18 4.75 21.25 8 21.25 12C21.25 16 18 19.25 14 19.25H10C6 19.25 2.75 16 2.75 12ZM5.25 12C5.25 14.62 7.38 16.75 10 16.75C12.62 16.75 14.75 14.62 14.75 12C14.75 9.38 12.62 7.25 10 7.25C7.38 7.25 5.25 9.38 5.25 12ZM6.75 12C6.75 10.21 8.21 8.75 10 8.75C11.79 8.75 13.25 10.21 13.25 12C13.25 13.79 11.79 15.25 10 15.25C8.21 15.25 6.75 13.79 6.75 12Z" fill="#292D32"/>
</svg>
