<svg viewBox="0 0 24 24" fill="none" xmlns="http://www.w3.org/2000/svg">
<path fill-rule="evenodd" clip-rule="evenodd" d="M9.93953 21.65C10.4595 22.35 11.2195 22.75 11.9995 22.75C12.7795 22.75 13.5395 22.35 14.0795 21.65L15.0895 20.3C15.2995 20.02 15.5895 19.86 15.8895 19.84C16.1995 19.82 16.4995 19.95 16.7395 20.21C18.1895 21.75 19.2895 21.63 19.8195 21.42C20.3595 21.2 21.2695 20.51 21.2695 18.3V7.04C21.2695 2.6 19.9895 1.25 15.7995 1.25H8.23953C4.04953 1.25 2.76953 2.6 2.76953 7.04V18.3C2.76953 20.52 3.67953 21.21 4.21953 21.42C4.74953 21.63 5.85953 21.75 7.29953 20.21C7.53953 19.96 7.83953 19.83 8.13953 19.84C8.43953 19.86 8.71952 20.02 8.92952 20.3L9.93953 21.65ZM8.20953 18.33H8.07953C7.38953 18.33 6.71953 18.63 6.16953 19.18C5.40952 19.99 4.90953 20.09 4.73953 20.02C4.49953 19.93 4.23953 19.35 4.23953 18.3V7.04C4.23953 3.43 4.86953 2.75 8.20953 2.75H15.7695C19.1095 2.75 19.7395 3.43 19.7395 7.04V18.3C19.7395 19.34 19.4795 19.92 19.2395 20.02C19.0595 20.09 18.5695 19.99 17.8095 19.18C17.2695 18.6 16.5395 18.29 15.7895 18.33C15.0395 18.37 14.3495 18.76 13.8695 19.39L12.8595 20.74C12.3695 21.39 11.6195 21.39 11.1295 20.74L10.1195 19.39C9.64952 18.76 8.94953 18.37 8.20953 18.33ZM9.25 10.75H14.75C15.16 10.75 15.5 10.41 15.5 10C15.5 9.59 15.16 9.25 14.75 9.25H9.25C8.84 9.25 8.5 9.59 8.5 10C8.5 10.41 8.84 10.75 9.25 10.75Z" fill="#292D32"/>
</svg>
