<svg viewBox="0 0 24 24" fill="none" xmlns="http://www.w3.org/2000/svg">
<path fill-rule="evenodd" clip-rule="evenodd" d="M16.2297 4.86C17.8497 4.95 19.4597 5.07 21.0697 5.23C21.4897 5.27 21.7897 5.64 21.7597 6.05C21.7197 6.44 21.3897 6.73 21.0097 6.73H20.9297C15.6297 6.2 10.3497 6 5.10967 6.52L3.06967 6.72C2.64967 6.76 2.28967 6.46 2.24967 6.05C2.20967 5.64 2.50967 5.27 2.92967 5.23L4.96967 5.03C5.89967 4.94 6.82967 4.88 7.75967 4.82L7.96967 3.54C8.12967 2.57 8.34967 1.25 10.6797 1.25H13.2997C15.6347 1.25 15.8587 2.62414 16.0087 3.54413L16.0097 3.55L16.2297 4.85V4.86ZM18.3197 7.75C18.6597 7.75 18.9897 7.89 19.2297 8.14C19.4597 8.39 19.5897 8.73 19.5697 9.09L18.9497 19.34C18.8398 20.87 18.6997 22.76 15.2097 22.76H8.78975C5.29975 22.76 5.15975 20.86 5.04975 19.34L4.42975 9.08C4.40975 8.73 4.53975 8.39 4.76975 8.14C4.99975 7.89 5.33975 7.75 5.67975 7.75H18.3197ZM10.3298 17.75H13.6597C14.0697 17.75 14.4097 17.41 14.4097 17C14.4097 16.59 14.0697 16.25 13.6597 16.25H10.3298C9.91975 16.25 9.57975 16.59 9.57975 17C9.57975 17.41 9.91975 17.75 10.3298 17.75ZM9.49975 13.75H14.4997C14.9097 13.75 15.2497 13.41 15.2497 13C15.2497 12.59 14.9097 12.25 14.4997 12.25H9.49975C9.08975 12.25 8.74975 12.59 8.74975 13C8.74975 13.41 9.08975 13.75 9.49975 13.75Z" fill="#292D32"/>
</svg>
