<svg viewBox="0 0 24 24" fill="none" xmlns="http://www.w3.org/2000/svg">
<path fill-rule="evenodd" clip-rule="evenodd" d="M7.98074 3.54L7.76702 4.81263C6.8293 4.86353 5.89341 4.9352 4.95967 5.02998L2.91967 5.22998C2.50967 5.26998 2.20967 5.62998 2.24967 6.04998C2.28967 6.46998 2.65967 6.76998 3.07967 6.72998L5.11967 6.52998C10.3497 5.99998 15.6297 6.19998 20.9197 6.72998H20.9997C21.3797 6.72998 21.7097 6.43998 21.7397 6.04998C21.7797 5.63998 21.4797 5.26998 21.0697 5.22998C19.4587 5.07187 17.8487 4.94224 16.2412 4.8525L16.2407 4.85L16.0207 3.55L16.0198 3.54413C15.8698 2.62414 15.6458 1.25 13.3107 1.25H10.6907C8.36241 1.25 8.14106 2.5781 7.98109 3.53794L7.98074 3.54ZM14.5507 3.8L14.7165 4.77968C12.9069 4.70828 11.1011 4.69213 9.30133 4.74757L9.47074 3.79L9.47226 3.781C9.62089 2.89906 9.64432 2.76 10.7007 2.76H13.3207C14.3807 2.76 14.4107 2.93 14.5507 3.8ZM8.79039 22.7501H15.2104C18.7004 22.7501 18.8404 20.8201 18.9504 19.2601L19.6004 9.19007C19.6304 8.77007 19.3104 8.42008 18.9004 8.39008C18.4904 8.37008 18.1304 8.68008 18.1004 9.09008L17.4504 19.1601C17.3504 20.6801 17.3104 21.2501 15.2104 21.2501H8.79039C6.70164 21.2501 6.66044 20.6808 6.55058 19.1628L6.55039 19.1601L5.90039 9.09008C5.87039 8.68008 5.52039 8.37008 5.10039 8.39008C4.69039 8.42008 4.37039 8.78008 4.40039 9.19007L5.05039 19.2601C5.16039 20.8201 5.30039 22.7501 8.79039 22.7501ZM13.6601 17.25H10.3301C9.92008 17.25 9.58008 16.91 9.58008 16.5C9.58008 16.09 9.92008 15.75 10.3301 15.75H13.6601C14.0701 15.75 14.4101 16.09 14.4101 16.5C14.4101 16.91 14.0701 17.25 13.6601 17.25ZM9.5 13.25H14.5C14.91 13.25 15.25 12.91 15.25 12.5C15.25 12.09 14.91 11.75 14.5 11.75H9.5C9.09 11.75 8.75 12.09 8.75 12.5C8.75 12.91 9.09 13.25 9.5 13.25Z" fill="#292D32"/>
</svg>
