<svg viewBox="0 0 24 24" fill="none" xmlns="http://www.w3.org/2000/svg">
<path fill-rule="evenodd" clip-rule="evenodd" d="M4.90917 1.00002C5.95917 0.98002 6.91921 1.36002 7.63921 2.00002C8.44921 2.71002 8.96919 3.73999 8.9992 4.90999C9.0192 5.65999 8.81922 6.38001 8.45922 6.99001C8.25922 7.35001 7.9992 7.68002 7.6892 7.94002C7.0092 8.59002 6.09922 8.98002 5.08922 9.00002C3.84922 9.03002 2.7292 8.49001 1.9992 7.62001C1.8592 7.47001 1.7392 7.30002 1.6292 7.13002C1.2392 6.54002 1.0192 5.84005 0.999195 5.09005C0.969195 3.83005 1.52919 2.68001 2.42919 1.93001C3.10919 1.37001 3.96917 1.02002 4.90917 1.00002ZM4.96917 6.54L7.05919 4.52004C7.35919 4.23004 7.36921 3.75999 7.07921 3.46999C6.78921 3.16999 6.31921 3.16003 6.01921 3.45003L4.44921 4.96999L3.95922 4.50002C3.65922 4.21002 3.18922 4.22004 2.89922 4.52004C2.60922 4.82004 2.61918 5.29004 2.91918 5.58004L3.92919 6.54C4.07919 6.68 4.25921 6.75002 4.44921 6.75002C4.63921 6.75002 4.81917 6.68 4.96917 6.54ZM22 17V14H19C18.45 14 18 13.55 18 13V10C18 9.45 18.45 9 19 9H20.29L18.58 6.01001C18.22 5.39001 17.56 5 16.84 5H15V12C15 13.1 14.1 14 13 14H2V17C2 18.66 3.34 20 5 20H6C6 18.9 6.9 18 8 18C9.1 18 10 18.9 10 20H14C14 18.9 14.9 18 16 18C17.1 18 18 18.9 18 20H19C20.66 20 22 18.66 22 17Z" fill="#292D32"/>
<path opacity="0.4" fill-rule="evenodd" clip-rule="evenodd" d="M15 12V3C15 2.45 14.55 2 14 2H7.64001C8.45001 2.71 8.97 3.73997 9 4.90997C9.02 5.65997 8.82002 6.37999 8.46002 6.98999C8.26002 7.34999 8 7.68 7.69 7.94C7.01 8.59 6.10003 8.98 5.09003 9C3.85003 9.03 2.73 8.49 2 7.62V14H13C14.1 14 15 13.1 15 12ZM10 20C10 21.1046 9.10457 22 8 22C6.89543 22 6 21.1046 6 20C6 18.8954 6.89543 18 8 18C9.10457 18 10 18.8954 10 20ZM16 22C17.1046 22 18 21.1046 18 20C18 18.8954 17.1046 18 16 18C14.8954 18 14 18.8954 14 20C14 21.1046 14.8954 22 16 22ZM22 14V12.53C22 12.18 21.91 11.84 21.74 11.54L20.29 9H19C18.45 9 18 9.45 18 10V13C18 13.55 18.45 14 19 14H22Z" fill="#292D32"/>
</svg>
