<svg viewBox="0 0 24 24" fill="none" xmlns="http://www.w3.org/2000/svg">
<path fill-rule="evenodd" clip-rule="evenodd" d="M11.9998 14.75C11.5898 14.75 11.2498 14.41 11.2498 14C11.2498 13.59 11.5898 13.25 11.9998 13.25H12.9998C13.6898 13.25 14.2498 12.69 14.2498 12V2.75H5.99978C4.81978 2.75 3.73975 3.38998 3.15975 4.41998C2.95975 4.77998 2.49979 4.91002 2.13979 4.71002C1.77979 4.51002 1.64975 4.05 1.84975 3.69C2.68975 2.19 4.27978 1.25 5.99978 1.25H14.9998C15.4098 1.25 15.7498 1.59 15.7498 2V4.25H16.84C17.83 4.25 18.74 4.78001 19.23 5.64001L20.9233 8.60084C20.9291 8.61039 20.9346 8.62011 20.94 8.63L22.65 11.63C22.71 11.74 22.75 11.87 22.75 12V17C22.75 19.07 21.07 20.75 19 20.75H18.6467C18.3206 21.9049 17.2599 22.75 16 22.75C14.7401 22.75 13.6794 21.9049 13.3533 20.75H10.6467C10.3206 21.9049 9.25994 22.75 8 22.75C6.74006 22.75 5.67937 21.9049 5.35331 20.75H5C2.93 20.75 1.25 19.07 1.25 17C1.25 16.59 1.59 16.25 2 16.25C2.41 16.25 2.75 16.59 2.75 17C2.75 18.24 3.76 19.25 5 19.25H5.34998C5.42568 18.9862 5.5398 18.7382 5.68593 18.5126C6.17501 17.7527 7.02824 17.25 8 17.25C8.97177 17.25 9.82501 17.7527 10.3141 18.5126C10.4602 18.7382 10.5743 18.9862 10.65 19.25H13.3533C13.6794 18.0951 14.7401 17.25 16 17.25L16.005 17.25L16.01 17.25C17.27 17.25 18.33 18.1 18.66 19.25H19C20.24 19.25 21.25 18.24 21.25 17V14.75H19C18.04 14.75 17.25 13.96 17.25 13V10C17.25 9.04 18.03 8.25 19 8.25L17.93 6.38C17.71 5.99001 17.29 5.75 16.84 5.75H15.75L15.7498 12C15.7498 13.52 14.5198 14.75 12.9998 14.75H11.9998ZM17.25 20C17.25 19.31 16.69 18.75 16 18.75C15.31 18.75 14.75 19.31 14.75 20C14.75 20.69 15.31 21.25 16 21.25C16.69 21.25 17.25 20.69 17.25 20ZM19.85 9.75L21.25 12.2V13.25H19C18.86 13.25 18.75 13.14 18.75 13V10C18.75 9.86 18.86 9.75 19 9.75H19.85ZM8 18.75C8.69 18.75 9.25 19.31 9.25 20C9.25 20.69 8.69 21.25 8 21.25C7.31 21.25 6.75 20.69 6.75 20C6.75 19.31 7.31 18.75 8 18.75ZM8.75 8C8.75 8.41 8.41 8.75 8 8.75H2C1.59 8.75 1.25 8.41 1.25 8C1.25 7.59 1.59 7.25 2 7.25H8C8.41 7.25 8.75 7.59 8.75 8ZM6.75 11C6.75 11.41 6.41 11.75 6 11.75H2C1.59 11.75 1.25 11.41 1.25 11C1.25 10.59 1.59 10.25 2 10.25H6C6.41 10.25 6.75 10.59 6.75 11ZM4.75 14C4.75 14.41 4.41 14.75 4 14.75H2C1.59 14.75 1.25 14.41 1.25 14C1.25 13.59 1.59 13.25 2 13.25H4C4.41 13.25 4.75 13.59 4.75 14Z" fill="#292D32"/>
</svg>
