<svg viewBox="0 0 24 24" fill="none" xmlns="http://www.w3.org/2000/svg">
<path fill-rule="evenodd" clip-rule="evenodd" d="M2.76001 9.19C3.46001 9.57 4.26999 9.78 5.10999 9.75H5.11962C6.28962 9.72 7.38963 9.27001 8.18963 8.51001C8.54963 8.21001 8.87962 7.79999 9.11962 7.37C9.55962 6.62 9.77964 5.76001 9.75963 4.89001C9.74253 4.12611 9.54669 3.39795 9.19619 2.75H14.25V5V12C14.25 12.69 13.69 13.25 13 13.25H2.76001V9.19ZM1.00964 7.53998C1.08499 7.65591 1.16706 7.77519 1.25 7.88421V14V17C1.25 19.07 2.93 20.75 5 20.75H5.35331C5.67937 21.9049 6.74006 22.75 8 22.75C9.25994 22.75 10.3206 21.9049 10.6467 20.75H13.3533C13.6794 21.9049 14.7401 22.75 16 22.75C17.2599 22.75 18.3206 21.9049 18.6467 20.75H19C21.07 20.75 22.75 19.07 22.75 17V14V12C22.75 11.87 22.71 11.74 22.65 11.63L20.94 8.63C20.9346 8.62012 20.9291 8.6104 20.9233 8.60085L19.23 5.64001C18.74 4.78001 17.83 4.25 16.84 4.25H15.75V1.97998C15.75 1.56998 15.41 1.22998 15 1.22998H7.89662C7.05019 0.580757 5.97987 0.25907 4.9096 0.25C3.8296 0.27 2.80965 0.649976 1.95965 1.34998C0.839647 2.27998 0.219635 3.64999 0.259635 5.10999C0.279635 5.98999 0.539635 6.82998 1.00964 7.53998ZM4.98962 1.75H4.92962C4.19962 1.76 3.4996 2.03001 2.9096 2.51001C2.1496 3.14001 1.72963 4.08001 1.74963 5.07001C1.76963 5.67001 1.93964 6.24002 2.25964 6.71002C2.34964 6.85002 2.43961 6.97998 2.54961 7.09998C3.18961 7.85998 4.13963 8.25999 5.06963 8.23999C5.86963 8.21999 6.60961 7.92001 7.16961 7.39001C7.42961 7.17001 7.63961 6.91 7.79961 6.62C8.10961 6.09 8.25963 5.50998 8.24963 4.91998C8.22963 3.99998 7.82965 3.15999 7.14965 2.54999C6.54965 2.03999 5.78962 1.75 4.98962 1.75ZM2.75 17V14.75H13C14.52 14.75 15.75 13.52 15.75 12V11.98V5.75H16.84C17.29 5.75 17.71 5.99001 17.93 6.38L19 8.25C18.03 8.25 17.25 9.04 17.25 10V13C17.25 13.96 18.04 14.75 19 14.75H21.25V17C21.25 18.24 20.24 19.25 19 19.25H18.65C18.32 18.1 17.27 17.25 16.01 17.25L16.005 17.25L16 17.25C14.7401 17.25 13.6794 18.0951 13.3533 19.25H10.65C10.5743 18.9862 10.4602 18.7382 10.3141 18.5126C9.82501 17.7527 8.97177 17.25 8 17.25C7.02824 17.25 6.17501 17.7527 5.68593 18.5126C5.5398 18.7382 5.42568 18.9862 5.34998 19.25H5C3.76 19.25 2.75 18.24 2.75 17ZM21.25 13.25V12.2L19.85 9.75H19C18.86 9.75 18.75 9.86 18.75 10V13C18.75 13.14 18.86 13.25 19 13.25H21.25ZM16 18.75C16.69 18.75 17.25 19.31 17.25 20C17.25 20.69 16.69 21.25 16 21.25C15.31 21.25 14.75 20.69 14.75 20C14.75 19.31 15.31 18.75 16 18.75ZM6.75 20C6.75 20.69 7.31 21.25 8 21.25C8.69 21.25 9.25 20.69 9.25 20C9.25 19.31 8.69 18.75 8 18.75C7.31 18.75 6.75 19.31 6.75 20ZM3.92888 6.5399C4.07888 6.6799 4.2589 6.74993 4.4489 6.74993C4.6289 6.74993 4.81886 6.67991 4.96886 6.54991L7.05889 4.52996C7.35889 4.23996 7.36891 3.7699 7.07891 3.4699C6.78891 3.1699 6.31891 3.15994 6.01891 3.44994L4.4489 4.9699L3.95891 4.49993C3.65891 4.20993 3.18891 4.21995 2.89891 4.51995C2.60891 4.81995 2.61887 5.28994 2.91887 5.57994L3.92888 6.5399Z" fill="#292D32"/>
</svg>
