<svg viewBox="0 0 24 24" fill="none" xmlns="http://www.w3.org/2000/svg">
<path fill-rule="evenodd" clip-rule="evenodd" d="M5.52274 9.72181C5.3864 9.73699 5.24868 9.74644 5.10999 9.75C4.27999 9.78 3.46001 9.57 2.76001 9.19V13.25H13C13.69 13.25 14.25 12.69 14.25 12V5V2.75H9.19C9.54 3.4 9.73 4.13001 9.75 4.89001C9.77 5.76001 9.54998 6.62 9.10999 7.37C8.86999 7.79999 8.53999 8.21001 8.17999 8.51001C7.92281 8.75433 7.63463 8.96661 7.32308 9.1432C6.77788 9.45459 6.1649 9.65214 5.52274 9.72181ZM7.88719 1.22998C7.0866 0.615522 6.08535 0.25 5 0.25C3.93 0.25 2.87003 0.619978 2.03003 1.28998C0.900029 2.18998 0.25 3.54 0.25 5C0.25 5.87 0.490002 6.72 0.940002 7.44C1.03451 7.6009 1.13814 7.75483 1.25 7.90133V14V17C1.25 19.07 2.93 20.75 5 20.75H5.35331C5.67937 21.9049 6.74006 22.75 8 22.75C9.25994 22.75 10.3206 21.9049 10.6467 20.75H13.3533C13.6794 21.9049 14.7401 22.75 16 22.75C17.2599 22.75 18.3206 21.9049 18.6467 20.75H19C21.07 20.75 22.75 19.07 22.75 17V14V12C22.75 11.87 22.71 11.74 22.65 11.63L20.94 8.63C20.9346 8.62012 20.9291 8.6104 20.9233 8.60085L19.23 5.64001C18.74 4.78001 17.83 4.25 16.84 4.25H15.75V1.97998C15.75 1.56998 15.41 1.22998 15 1.22998H7.88719ZM8.24963 5.04907C8.24988 5.03272 8.25 5.01636 8.25 5C8.25 3.21 6.79 1.75 5 1.75C4.26 1.75 3.55997 1.99997 2.96997 2.46997C2.19997 3.07997 1.75 4.01 1.75 5C1.75 5.59 1.90997 6.16998 2.21997 6.66998C2.29441 6.79576 2.37692 6.91528 2.4666 7.02808C2.50387 7.05821 2.53855 7.09225 2.57001 7.13C3.17001 7.84 4.03999 8.23999 4.98999 8.23999H5.07001C5.87001 8.21999 6.60998 7.92001 7.16998 7.39001C7.42998 7.17001 7.63999 6.91 7.79999 6.62C8.08735 6.1287 8.23724 5.59443 8.24963 5.04907ZM2.75 14.75V17C2.75 18.24 3.76 19.25 5 19.25H5.34998C5.42568 18.9862 5.5398 18.7382 5.68593 18.5126C6.17501 17.7527 7.02824 17.25 8 17.25C8.97177 17.25 9.82501 17.7527 10.3141 18.5126C10.4602 18.7382 10.5743 18.9862 10.65 19.25H13.3533C13.6794 18.0951 14.7401 17.25 16 17.25L16.005 17.25L16.01 17.25C17.27 17.25 18.32 18.1 18.65 19.25H19C20.24 19.25 21.25 18.24 21.25 17V14.75H19C18.04 14.75 17.25 13.96 17.25 13V10C17.25 9.04 18.03 8.25 19 8.25L17.93 6.38C17.71 5.99001 17.29 5.75 16.84 5.75H15.75V11.98V12C15.75 13.52 14.52 14.75 13 14.75H2.75ZM21.25 12.2V13.25H19C18.86 13.25 18.75 13.14 18.75 13V10C18.75 9.86 18.86 9.75 19 9.75H19.85L21.25 12.2ZM17.25 20C17.25 19.31 16.69 18.75 16 18.75C15.31 18.75 14.75 19.31 14.75 20C14.75 20.69 15.31 21.25 16 21.25C16.69 21.25 17.25 20.69 17.25 20ZM8 21.25C7.31 21.25 6.75 20.69 6.75 20C6.75 19.31 7.31 18.75 8 18.75C8.69 18.75 9.25 19.31 9.25 20C9.25 20.69 8.69 21.25 8 21.25ZM6.07041 6.79007C5.88041 6.79007 5.69038 6.7201 5.54038 6.5701L5.01563 6.04535L4.46109 6.59988C4.31109 6.74989 4.12106 6.81992 3.93106 6.81992C3.74106 6.81992 3.55109 6.74989 3.40109 6.59988C3.11109 6.30989 3.11109 5.82989 3.40109 5.53989L3.95563 4.98535L3.43039 4.46011C3.14039 4.17011 3.14039 3.69012 3.43039 3.40012C3.72039 3.11012 4.20039 3.11012 4.49039 3.40012L5.01563 3.92536L5.51108 3.4299C5.80108 3.1399 6.28108 3.1399 6.57108 3.4299C6.86108 3.7199 6.86108 4.1999 6.57108 4.4899L6.07562 4.98535L6.60037 5.5101C6.89037 5.8001 6.89037 6.2801 6.60037 6.5701C6.45037 6.7201 6.26041 6.79007 6.07041 6.79007Z" fill="#292D32"/>
</svg>
