<svg viewBox="0 0 24 24" fill="none" xmlns="http://www.w3.org/2000/svg">
<path fill-rule="evenodd" clip-rule="evenodd" d="M2.75 17V14.75H13C14.52 14.75 15.75 13.52 15.75 12V5.75H16.84C17.29 5.75 17.71 5.99001 17.93 6.38L19 8.25C18.03 8.25 17.25 9.04 17.25 10V13C17.25 13.96 18.04 14.75 19 14.75H21.25V17C21.25 18.24 20.24 19.25 19 19.25H18.65C18.32 18.1 17.27 17.25 16.01 17.25L16.005 17.25L16 17.25C14.7401 17.25 13.6794 18.0951 13.3533 19.25H10.65C10.575 18.9887 10.4623 18.7429 10.3182 18.519C9.82981 17.7556 8.9745 17.25 8 17.25C7.02551 17.25 6.17022 17.7556 5.68182 18.519C5.53767 18.7429 5.42499 18.9887 5.35001 19.25H5C3.76 19.25 2.75 18.24 2.75 17ZM22.75 14V17C22.75 19.07 21.07 20.75 19 20.75H18.6467C18.3206 21.9049 17.2599 22.75 16 22.75C14.7401 22.75 13.6794 21.9049 13.3533 20.75H10.6467C10.3206 21.9049 9.25994 22.75 8 22.75C6.74006 22.75 5.67937 21.9049 5.35331 20.75H5C2.93 20.75 1.25 19.07 1.25 17V14V6C1.25 3.38 3.38 1.25 6 1.25H15C15.41 1.25 15.75 1.59 15.75 2V4.25H16.84C17.83 4.25 18.74 4.78001 19.23 5.64001L20.9233 8.60085C20.9291 8.6104 20.9346 8.62012 20.94 8.63L22.65 11.63C22.71 11.74 22.75 11.87 22.75 12V14ZM21.25 13.25V12.2L19.85 9.75H19C18.86 9.75 18.75 9.86 18.75 10V13C18.75 13.14 18.86 13.25 19 13.25H21.25ZM16 18.75C16.69 18.75 17.25 19.31 17.25 20C17.25 20.69 16.69 21.25 16 21.25C15.31 21.25 14.75 20.69 14.75 20C14.75 19.31 15.31 18.75 16 18.75ZM6.75 20C6.75 20.69 7.31 21.25 8 21.25C8.69 21.25 9.25 20.69 9.25 20C9.25 19.31 8.69 18.75 8 18.75C7.31 18.75 6.75 19.31 6.75 20ZM14.25 2.75V5V12C14.25 12.69 13.69 13.25 13 13.25H2.75V6C2.75 4.21 4.21 2.75 6 2.75H14.25Z" fill="#292D32"/>
</svg>
