<svg viewBox="0 0 24 24" fill="none" xmlns="http://www.w3.org/2000/svg">
<path fill-rule="evenodd" clip-rule="evenodd" d="M13.08 2H5.69C3.9 2 2.4 3.28 2.07 4.98H1.92H0.94C0.56 4.98 0.25 5.29 0.25 5.67C0.25 6.05 0.56 6.35 0.94 6.35H1.85H2V7.73H1.85H0.94C0.56 7.73 0.25 8.04 0.25 8.42C0.25 8.8 0.56 9.1 0.94 9.1H1.85H2V10.48H1.85H0.94C0.56 10.48 0.25 10.79 0.25 11.17C0.25 11.55 0.56 11.85 0.94 11.85H1.85H2V12.08C2 12.63 2.45 13.08 3 13.08H12.15C13.17 13.08 14 12.25 14 11.23V2.92C14 2.41 13.59 2 13.08 2ZM2 11.85H2.77C3.15 11.85 3.46 11.55 3.46 11.17C3.46 10.79 3.15 10.48 2.77 10.48H2V11.85ZM2 9.1H4.6C4.98 9.1 5.29 8.8 5.29 8.42C5.29 8.04 4.98 7.73 4.6 7.73H2V9.1ZM2 6.35H6.44C6.82 6.35 7.12 6.05 7.12 5.67C7.12 5.29 6.82 4.98 6.44 4.98H2.07C2.03 5.21 2 5.45 2 5.69V6.35ZM22 16C22 15.72 21.78 15.5 21.5 15.5H19C17.62 15.5 16.5 14.38 16.5 13V10C16.5 8.62 17.62 7.5 19 7.5C19.19 7.5 19.31 7.29 19.22 7.13L18.58 6.01C18.22 5.39 17.56 5 16.84 5H16C15.45 5 15 5.45 15 6V11.5C15 12.88 13.88 14 12.5 14H3C2.45 14 2 14.45 2 15V17C2 18.66 3.34 20 5 20C5 18.35 6.35 17 8 17C9.65 17 11 18.35 11 20H13C13 18.35 14.35 17 16 17C17.65 17 19 18.35 19 20C20.66 20 22 18.66 22 17V16ZM10 20C10 21.1046 9.10457 22 8 22C6.89543 22 6 21.1046 6 20C6 18.8954 6.89543 18 8 18C9.10457 18 10 18.8954 10 20ZM16 22C17.1046 22 18 21.1046 18 20C18 18.8954 17.1046 18 16 18C14.8954 18 14 18.8954 14 20C14 21.1046 14.8954 22 16 22ZM22 14V12.53C22 12.18 21.91 11.84 21.74 11.54L20.29 9H19C18.45 9 18 9.45 18 10V13C18 13.55 18.45 14 19 14H22Z" fill="#292D32"/>
</svg>
