<svg viewBox="0 0 24 24" fill="none" xmlns="http://www.w3.org/2000/svg">
<path fill-rule="evenodd" clip-rule="evenodd" d="M5.69 1.98047H13.08C13.59 1.98047 14 2.39047 14 2.90047V11.2105C14 12.2305 13.17 13.0605 12.15 13.0605H3C2.45 13.0605 2 12.6105 2 12.0605V5.67047C2 3.63047 3.65 1.98047 5.69 1.98047ZM9.07 9.31047C9.26 9.31047 9.45 9.24047 9.6 9.10047C9.89 8.80047 9.89 8.33047 9.6 8.03047L9.07 7.51047L9.58 7.01047C9.87 6.71047 9.87 6.24047 9.58 5.94047C9.28 5.65047 8.81 5.65047 8.51 5.94047L8.01 6.45047L7.49 5.92047C7.19 5.63047 6.72 5.63047 6.42 5.92047C6.13 6.21047 6.13 6.69047 6.42 6.98047L6.95 7.51047L6.4 8.06047C6.11 8.35047 6.11 8.83047 6.4 9.12047C6.55 9.27047 6.74 9.34047 6.93 9.34047C7.12 9.34047 7.31 9.27047 7.46 9.12047L8.01 8.57047L8.54 9.10047C8.69 9.24047 8.88 9.31047 9.07 9.31047ZM21.5 15.5C21.78 15.5 22 15.72 22 16V17C22 18.66 20.66 20 19 20C19 18.35 17.65 17 16 17C14.35 17 13 18.35 13 20H11C11 18.35 9.65 17 8 17C6.35 17 5 18.35 5 20C3.34 20 2 18.66 2 17V15C2 14.45 2.45 14 3 14H12.5C13.88 14 15 12.88 15 11.5V6C15 5.45 15.45 5 16 5H16.84C17.56 5 18.22 5.39 18.58 6.01L19.22 7.13C19.31 7.29 19.19 7.5 19 7.5C17.62 7.5 16.5 8.62 16.5 10V13C16.5 14.38 17.62 15.5 19 15.5H21.5ZM8 22C9.10457 22 10 21.1046 10 20C10 18.8954 9.10457 18 8 18C6.89543 18 6 18.8954 6 20C6 21.1046 6.89543 22 8 22ZM18 20C18 21.1046 17.1046 22 16 22C14.8954 22 14 21.1046 14 20C14 18.8954 14.8954 18 16 18C17.1046 18 18 18.8954 18 20ZM22 12.53V14H19C18.45 14 18 13.55 18 13V10C18 9.45 18.45 9 19 9H20.29L21.74 11.54C21.91 11.84 22 12.18 22 12.53Z" fill="#292D32"/>
</svg>
