<svg viewBox="0 0 24 24" fill="none" xmlns="http://www.w3.org/2000/svg">
<path fill-rule="evenodd" clip-rule="evenodd" d="M5.10999 9.75C6.2044 9.72194 7.23757 9.3264 8.02124 8.6534C8.05789 8.62286 8.09415 8.59173 8.13 8.56C8.18108 8.51537 8.23107 8.46976 8.27996 8.4232C8.59016 8.14292 8.87299 7.78457 9.08807 7.40877C9.12608 7.34469 9.16256 7.27975 9.19748 7.21403C9.57906 6.50189 9.76863 5.7003 9.75 4.89001C9.73 4.13001 9.54 3.4 9.19 2.75H14.25V5V12C14.25 12.69 13.69 13.25 13 13.25H2.76001V9.19C3.46001 9.57 4.27999 9.78 5.10999 9.75ZM5 0.25C6.08535 0.25 7.0866 0.615522 7.88719 1.22998H15C15.41 1.22998 15.75 1.56998 15.75 1.97998V4.25H16.84C17.83 4.25 18.74 4.78001 19.23 5.64001L20.9233 8.60085C20.9291 8.6104 20.9346 8.62012 20.94 8.63L22.65 11.63C22.71 11.74 22.75 11.87 22.75 12V14V17C22.75 19.07 21.07 20.75 19 20.75H18.6467C18.3206 21.9049 17.2599 22.75 16 22.75C14.7401 22.75 13.6794 21.9049 13.3533 20.75H10.6467C10.3206 21.9049 9.25994 22.75 8 22.75C6.74006 22.75 5.67937 21.9049 5.35331 20.75H5C2.93 20.75 1.25 19.07 1.25 17V14V7.91309C0.62347 7.10825 0.25 6.09708 0.25 5C0.25 3.54 0.900029 2.18998 2.03003 1.28998C2.87003 0.619978 3.93 0.25 5 0.25ZM8.25 5C8.25 5.01614 8.24988 5.03226 8.24965 5.04836C8.23737 5.59397 8.08747 6.12849 7.79999 6.62C7.63999 6.91 7.42998 7.17001 7.16998 7.39001C6.60998 7.92001 5.87001 8.21999 5.07001 8.23999C4.13001 8.26999 3.18001 7.86 2.57001 7.13C2.53615 7.08937 2.49856 7.05304 2.45802 7.02124C2.01516 6.46574 1.75 5.76283 1.75 5C1.75 4.01 2.19997 3.07997 2.96997 2.46997C3.55997 1.99997 4.26 1.75 5 1.75C6.79 1.75 8.25 3.21 8.25 5ZM2.75 17V14.75H13C14.52 14.75 15.75 13.52 15.75 12V11.98V5.75H16.84C17.29 5.75 17.71 5.99001 17.93 6.38L19 8.25C18.03 8.25 17.25 9.04 17.25 10V13C17.25 13.96 18.04 14.75 19 14.75H21.25V17C21.25 18.24 20.24 19.25 19 19.25H18.65C18.32 18.1 17.27 17.25 16.01 17.25L16.005 17.25L16 17.25C14.7401 17.25 13.6794 18.0951 13.3533 19.25H10.65C10.5743 18.9862 10.4602 18.7382 10.3141 18.5126C9.82501 17.7527 8.97177 17.25 8 17.25C7.02824 17.25 6.17501 17.7527 5.68593 18.5126C5.5398 18.7382 5.42568 18.9862 5.34998 19.25H5C3.76 19.25 2.75 18.24 2.75 17ZM21.25 13.25V12.2L19.85 9.75H19C18.86 9.75 18.75 9.86 18.75 10V13C18.75 13.14 18.86 13.25 19 13.25H21.25ZM16 18.75C16.69 18.75 17.25 19.31 17.25 20C17.25 20.69 16.69 21.25 16 21.25C15.31 21.25 14.75 20.69 14.75 20C14.75 19.31 15.31 18.75 16 18.75ZM6.75 20C6.75 20.69 7.31 21.25 8 21.25C8.69 21.25 9.25 20.69 9.25 20C9.25 19.31 8.69 18.75 8 18.75C7.31 18.75 6.75 19.31 6.75 20ZM3.35988 6.39001C3.49988 6.62001 3.74989 6.75 3.99989 6.75C4.12989 6.75 4.25992 6.72001 4.39992 6.64001L5.64992 5.89001C5.86992 5.76001 6.0099 5.51 6.0099 5.25V3.75C6.0099 3.34 5.6699 3 5.2599 3C4.8499 3 4.5099 3.34 4.5099 3.75V4.83002L3.61989 5.35999C3.25989 5.56999 3.14988 6.03001 3.35988 6.39001Z" fill="#292D32"/>
</svg>
