<svg viewBox="0 0 24 24" fill="none" xmlns="http://www.w3.org/2000/svg">
<path fill-rule="evenodd" clip-rule="evenodd" d="M9 22.75H15C20.43 22.75 22.75 20.43 22.75 15V9C22.75 3.57 20.43 1.25 15 1.25H9C3.57 1.25 1.25 3.57 1.25 9V15C1.25 20.43 3.57 22.75 9 22.75ZM2.75 9C2.75 4.39 4.39 2.75 9 2.75H15C19.61 2.75 21.25 4.39 21.25 9V15C21.25 19.61 19.61 21.25 15 21.25H9C4.39 21.25 2.75 19.61 2.75 15V9ZM17.829 9.8H17.899C18.279 9.8 18.609 9.51 18.649 9.13C18.689 8.72 18.389 8.34999 17.979 8.30999C16.9795 8.21172 15.9816 8.1308 14.9854 8.07297L14.8795 7.42995L14.8784 7.42314C14.7781 6.82152 14.5929 5.70996 12.8495 5.70996H11.1295C9.39338 5.70996 9.21031 6.77518 9.10024 7.41566L9.0995 7.41995L8.99673 8.05125C8.45348 8.08336 7.9109 8.12596 7.36904 8.17999L6.02904 8.30999C5.61904 8.34999 5.31905 8.72 5.35905 9.13C5.39905 9.54 5.75904 9.84 6.17904 9.8L6.78713 9.741L7.17999 15.7801C7.24999 16.7901 7.36 18.3101 9.89 18.3101H14.1C16.6357 18.3101 16.7396 16.7953 16.8096 15.7753L16.81 15.7701L17.2028 9.74069C17.4115 9.75969 17.6202 9.77948 17.829 9.8ZM15.7043 9.61865L15.31 15.6701L15.3099 15.672C15.24 16.6503 15.2293 16.8001 14.1 16.8001H9.89C8.7607 16.8001 8.75 16.6503 8.68012 15.672L8.67999 15.6701L8.28449 9.59958C10.7438 9.39909 13.2183 9.44157 15.7043 9.61865ZM10.5261 7.9878C11.5036 7.96393 12.483 7.97095 13.4644 8.00333L13.4095 7.66995C13.3895 7.52995 13.3495 7.30995 13.3095 7.25995C13.3095 7.25995 13.2095 7.19995 12.8495 7.19995H11.1295C10.7595 7.19995 10.6595 7.25995 10.6595 7.25995C10.6395 7.29995 10.5995 7.51996 10.5795 7.65996L10.5261 7.9878Z" fill="#292D32"/>
</svg>
