<svg viewBox="0 0 24 24" fill="none" xmlns="http://www.w3.org/2000/svg">
<path fill-rule="evenodd" clip-rule="evenodd" d="M14.6122 8.28757C15.3268 8.33514 16.0617 8.38407 16.8598 8.46008C17.2398 8.49008 17.5098 8.83008 17.4598 9.21008C17.4298 9.56008 17.1298 9.83008 16.7798 9.83008H16.7198C15.6798 9.73008 14.7298 9.66008 13.8198 9.62008C12.5898 9.56008 11.3698 9.54008 10.1498 9.59008C9.54979 9.62008 8.93979 9.67008 8.33979 9.72008L7.25979 9.83008H7.18979C6.83979 9.83008 6.54979 9.56008 6.50979 9.21008C6.46979 8.83008 6.73979 8.50008 7.11979 8.46008L8.2098 8.35007C8.49959 8.32312 8.78484 8.30524 9.07167 8.28727C9.21045 8.27858 9.34959 8.26986 9.4898 8.26007L9.5698 7.79008C9.6498 7.28008 9.80979 6.33008 11.2998 6.33008H12.6898C14.1998 6.33008 14.3498 7.32008 14.4198 7.80008L14.4998 8.28008C14.5372 8.28257 14.5747 8.28507 14.6122 8.28757ZM15.1605 10.8101C15.4105 10.8101 15.6605 10.9101 15.8305 11.1001C16.0005 11.2901 16.0905 11.5401 16.0705 11.7901L15.7605 15.7501L15.76 15.7564C15.7001 16.6054 15.6257 17.6601 13.7105 17.6601H10.2905C8.37529 17.6601 8.30086 16.6054 8.24095 15.7564L8.2405 15.7501L7.93048 11.7901C7.91048 11.5401 8.00049 11.2901 8.17049 11.1001C8.34049 10.9201 8.59049 10.8101 8.84049 10.8101H15.1605Z" fill="#292D32"/>
<path opacity="0.4" d="M16.1898 2H7.81978C4.17978 2 2.00977 4.17 2.00977 7.81V16.18C2.00977 19.82 4.17978 21.99 7.81978 21.99H16.1898C19.8298 21.99 21.9998 19.82 21.9998 16.18V7.81C21.9998 4.17 19.8298 2 16.1898 2Z" fill="#292D32"/>
</svg>
