<svg viewBox="0 0 25 24" fill="none" xmlns="http://www.w3.org/2000/svg">
<path fill-rule="evenodd" clip-rule="evenodd" d="M10 22.75H7C6.59 22.75 6.25 22.41 6.25 22V19.75H3C2.59 19.75 2.25 19.41 2.25 19V5C2.25 4.85 2.29 4.70999 2.38 4.57999L4.38 1.57999C4.52001 1.36999 4.75 1.25 5 1.25H22C22.41 1.25 22.75 1.59 22.75 2V14C22.75 14.2 22.67 14.39 22.53 14.53L17.53 19.53C17.39 19.67 17.2 19.75 17 19.75H12.4L10.62 22.42C10.48 22.62 10.25 22.75 10 22.75ZM7.75 21.25H9.60001L11.38 18.58C11.52 18.37 11.75 18.25 12 18.25H16.69L21.25 13.69V2.75H5.39999L3.75 5.23001V18.25H7C7.41 18.25 7.75 18.59 7.75 19V21.25ZM11.5 13.75H9.5C9.09 13.75 8.75 13.41 8.75 13V7C8.75 6.59 9.09 6.25 9.5 6.25H11.5C11.91 6.25 12.25 6.59 12.25 7V13C12.25 13.41 11.91 13.75 11.5 13.75ZM10.25 12.25H10.75V7.75H10.25V12.25ZM14.5 13.75H16.5C16.91 13.75 17.25 13.41 17.25 13V7C17.25 6.59 16.91 6.25 16.5 6.25H14.5C14.09 6.25 13.75 6.59 13.75 7V13C13.75 13.41 14.09 13.75 14.5 13.75ZM15.75 12.25H15.25V7.75H15.75V12.25Z" fill="#292D32"/>
</svg>
