<svg viewBox="0 0 24 24" fill="none" xmlns="http://www.w3.org/2000/svg">
<path fill-rule="evenodd" clip-rule="evenodd" d="M5.90055 11.3399C6.05055 11.4899 6.24055 11.5599 6.43055 11.5599C6.62055 11.5599 6.82055 11.4899 6.96055 11.3399C7.25055 11.0499 7.25055 10.5699 6.96055 10.2799L5.74072 9.06006H15.1309C17.4709 9.06006 19.3809 10.9701 19.3809 13.3101C19.3809 15.6501 17.4709 17.5601 15.1309 17.5601H7.13086C6.72086 17.5601 6.38086 17.9001 6.38086 18.3101C6.38086 18.7201 6.72086 19.0601 7.13086 19.0601H15.1309C18.3009 19.0601 20.8809 16.4801 20.8809 13.3101C20.8809 10.1401 18.3009 7.56006 15.1309 7.56006H5.62037L6.96055 6.21988C7.25055 5.92988 7.25055 5.44988 6.96055 5.15988C6.67055 4.86988 6.19055 4.86988 5.90055 5.15988L3.34055 7.71988C3.05055 8.00988 3.05055 8.48988 3.34055 8.77988L5.90055 11.3399Z" fill="#292D32"/>
</svg>
