<svg viewBox="0 0 24 24" fill="none" xmlns="http://www.w3.org/2000/svg">
<path fill-rule="evenodd" clip-rule="evenodd" d="M7.12 9.44H7.35H16.65C20.75 9.44 22 10.69 22 14.79V16.65C22 20.75 20.75 22 16.65 22H7.35C3.25 22 2 20.75 2 16.65V14.79C2 11.3 2.92 9.88 5.72 9.53V8.28C5.72 5.58 6.37 2 12 2C16.17 2 18.28 3.8 18.28 7.35C18.28 7.74 17.97 8.05 17.58 8.05C17.19 8.05 16.88 7.74 16.88 7.35C16.88 5.51 16.33 3.4 12 3.4C7.95 3.4 7.12 5.35 7.12 8.28V9.44ZM8.98 15.72C8.98 17.38 10.33 18.74 12 18.74C13.67 18.74 15.02 17.39 15.02 15.72C15.02 14.06 13.66 12.7 12 12.7C10.34 12.7 8.98 14.05 8.98 15.72ZM13.6311 15.7198C13.6311 16.6201 12.9013 17.3498 12.0011 17.3498C11.1009 17.3498 10.3711 16.6201 10.3711 15.7198C10.3711 14.8196 11.1009 14.0898 12.0011 14.0898C12.9013 14.0898 13.6311 14.8196 13.6311 15.7198Z" fill="#292D32"/>
</svg>
