<svg viewBox="0 0 24 24" fill="none" xmlns="http://www.w3.org/2000/svg">
<path fill-rule="evenodd" clip-rule="evenodd" d="M5.25 8V9.34221C2.22527 9.70987 1.25 11.2377 1.25 15V17C1.25 21.41 2.59 22.75 7 22.75H17C21.41 22.75 22.75 21.41 22.75 17V15C22.75 10.59 21.41 9.25 17 9.25H7C6.91554 9.25 6.83222 9.25049 6.75 9.25149V8C6.75 4.85 7.64 2.75 12 2.75C16.65 2.75 17.25 5.02 17.25 7C17.25 7.41 17.59 7.75 18 7.75C18.41 7.75 18.75 7.41 18.75 7C18.75 3.18 16.48 1.25 12 1.25C5.95 1.25 5.25 5.1 5.25 8ZM7 10.75C3.42 10.75 2.75 11.43 2.75 15V17C2.75 20.57 3.42 21.25 7 21.25H17C20.58 21.25 21.25 20.57 21.25 17V15C21.25 11.43 20.58 10.75 17 10.75H7ZM8.75 16C8.75 17.79 10.21 19.25 12 19.25C13.79 19.25 15.25 17.79 15.25 16C15.25 14.21 13.79 12.75 12 12.75C10.21 12.75 8.75 14.21 8.75 16ZM10.25 16C10.25 15.04 11.04 14.25 12 14.25C12.96 14.25 13.75 15.04 13.75 16C13.75 16.96 12.96 17.75 12 17.75C11.04 17.75 10.25 16.96 10.25 16Z" fill="#292D32"/>
</svg>
