<svg viewBox="0 0 24 24" fill="none" xmlns="http://www.w3.org/2000/svg">
<path fill-rule="evenodd" clip-rule="evenodd" d="M7.04999 17.7002C6.85999 17.7002 6.66999 17.6302 6.51999 17.4802C5.05999 16.0202 4.25 14.0702 4.25 12.0002C4.25 9.93023 5.05999 7.98023 6.51999 6.52023C6.80999 6.23023 7.28999 6.23023 7.57999 6.52023C7.86999 6.81023 7.86999 7.29023 7.57999 7.58023C6.39999 8.76023 5.75 10.3302 5.75 12.0002C5.75 13.6702 6.39999 15.2402 7.57999 16.4202C7.86999 16.7102 7.86999 17.1902 7.57999 17.4802C7.42999 17.6302 7.23999 17.7002 7.04999 17.7002ZM16.9506 17.7002C16.7606 17.7002 16.5706 17.6302 16.4206 17.4802C16.1306 17.1902 16.1306 16.7102 16.4206 16.4202C17.6006 15.2402 18.2506 13.6702 18.2506 12.0002C18.2506 10.3302 17.6006 8.76023 16.4206 7.58023C16.1306 7.29023 16.1306 6.81023 16.4206 6.52023C16.7106 6.23023 17.1906 6.23023 17.4806 6.52023C18.9406 7.98023 19.7506 9.93023 19.7506 12.0002C19.7506 14.0702 18.9406 16.0202 17.4806 17.4802C17.3306 17.6302 17.1406 17.7002 16.9506 17.7002ZM12.7504 11.4598L13.6504 11.7798C14.6204 12.1198 15.0804 12.7898 15.0804 13.8398C15.0804 15.0298 14.1304 16.0098 12.9704 16.0098H12.7404V16.1898C12.7404 16.5998 12.4004 16.9398 11.9904 16.9398C11.5804 16.9398 11.2404 16.5998 11.2404 16.1898V16.0098H11.2104C9.93039 16.0098 8.90039 14.9398 8.90039 13.6298C8.90039 13.2198 9.24039 12.8798 9.65039 12.8798C10.0604 12.8798 10.4004 13.2198 10.4004 13.6298C10.4004 14.1098 10.7704 14.5098 11.2104 14.5098H11.2404V12.5298L10.3404 12.2098C9.38039 11.8698 8.9104 11.1998 8.9104 10.1498C8.9104 8.9598 9.86039 7.9798 11.0204 7.9798H11.2504V7.7998C11.2504 7.3898 11.5904 7.0498 12.0004 7.0498C12.4104 7.0498 12.7504 7.3898 12.7504 7.7998V7.9798H12.7804C14.0604 7.9798 15.0904 9.0498 15.0904 10.3598C15.0904 10.7698 14.7504 11.1098 14.3404 11.1098C13.9304 11.1098 13.5904 10.7698 13.5904 10.3598C13.5904 9.8798 13.2204 9.4798 12.7804 9.4798H12.7504V11.4598ZM10.4104 10.1598C10.4104 10.6298 10.5204 10.6898 10.8404 10.7998L11.2504 10.9498V9.4898H11.0204C10.6804 9.4898 10.4104 9.7898 10.4104 10.1598ZM12.7504 14.5198H12.9804C13.3104 14.5198 13.5804 14.2098 13.5904 13.8398C13.5904 13.3698 13.4804 13.3098 13.1604 13.1998L12.7504 13.0598V14.5198Z" fill="#292D32"/>
<path opacity="0.4" d="M12 22C17.5228 22 22 17.5228 22 12C22 6.47715 17.5228 2 12 2C6.47715 2 2 6.47715 2 12C2 17.5228 6.47715 22 12 22Z" fill="#292D32"/>
</svg>
