<svg viewBox="0 0 24 24" fill="none" xmlns="http://www.w3.org/2000/svg">
<path fill-rule="evenodd" clip-rule="evenodd" d="M9 1.25C6.42603 1.25 4.42914 1.7602 3.09467 3.09467C1.7602 4.42914 1.25 6.42603 1.25 9V15C1.25 16.9506 1.54148 18.5641 2.25993 19.8128C2.99613 21.0923 4.13552 21.9113 5.65571 22.3416L5.65987 22.3428C6.58792 22.6209 7.685 22.75 9.00063 22.75H15.0006C16.3206 22.75 17.4206 22.62 18.3506 22.34L18.3666 22.3353C19.8756 21.9033 21.0075 21.086 21.7401 19.8128C22.4585 18.5641 22.75 16.9506 22.75 15V9C22.75 6.42603 22.2398 4.42914 20.9053 3.09467C19.5709 1.7602 17.574 1.25 15 1.25H9ZM15.2817 18.5956C16.2918 19.2092 17.0037 20.0907 17.2785 21.0604C16.619 21.1901 15.8697 21.25 15.0006 21.25H9.00063C8.13105 21.25 7.38134 21.1901 6.72157 21.0602C6.98472 20.1318 7.64844 19.2844 8.59092 18.6754C9.52596 18.0771 10.7168 17.72 12.0006 17.72L12.0394 17.7201C13.2504 17.7269 14.3769 18.0513 15.2817 18.5956ZM14.0056 16.4684C16.2835 17.045 18.134 18.5812 18.7149 20.6155C19.4916 20.2603 20.0468 19.748 20.4399 19.0647C20.9715 18.1409 21.25 16.8294 21.25 15V9C21.25 6.57397 20.7602 5.07086 19.8447 4.15533C18.9291 3.2398 17.426 2.75 15 2.75H9C6.57397 2.75 5.07086 3.2398 4.15533 4.15533C3.2398 5.07086 2.75 6.57397 2.75 9V15C2.75 16.8294 3.02852 18.1409 3.56007 19.0647C3.95322 19.748 4.50844 20.2603 5.28506 20.6155C5.97414 18.2026 8.44919 16.4905 11.3052 16.2492C11.5346 16.2299 11.7664 16.22 12 16.22C12.6954 16.22 13.3695 16.3068 14.0056 16.4684ZM12 6.25C9.60578 6.25 7.67 8.18581 7.67 10.58C7.67 12.9715 9.60307 14.92 12 14.92C14.3969 14.92 16.33 12.9715 16.33 10.58C16.33 8.18581 14.3942 6.25 12 6.25ZM12 7.75C10.44 7.75 9.17 9.02002 9.17 10.58C9.17 12.15 10.44 13.42 12 13.42C13.56 13.42 14.83 12.15 14.83 10.58C14.83 9.02002 13.56 7.75 12 7.75Z" fill="#292D32"/>
</svg>
