<svg viewBox="0 0 24 24" fill="none" xmlns="http://www.w3.org/2000/svg">
<path fill-rule="evenodd" clip-rule="evenodd" d="M17 7C17 9.76142 14.7614 12 12 12C9.23858 12 7 9.76142 7 7C7 4.23858 9.23858 2 12 2C14.7614 2 17 4.23858 17 7ZM21.4007 14.91C21.6207 15.26 21.7807 15.65 21.8807 16.04C22.2107 17.35 21.8607 18.8 20.8307 19.83C20.1007 20.56 19.1707 20.94 18.2207 20.98C17.8207 21.01 17.4207 20.97 17.0407 20.87C16.3507 20.71 15.7007 20.36 15.1707 19.83C14.4107 19.06 14.0107 18.06 14.0007 17.06C13.9807 16.01 14.3807 14.96 15.1707 14.17C16.0107 13.34 17.1207 12.94 18.2107 13.01C19.1707 13.06 20.1107 13.45 20.8307 14.17C21.0507 14.4 21.2507 14.65 21.4007 14.91ZM18.5407 18.6C18.8307 18.89 19.3107 18.89 19.6007 18.6C19.8907 18.31 19.8907 17.83 19.6007 17.54L19.0507 16.99L19.5807 16.46C19.8707 16.17 19.8707 15.69 19.5807 15.4C19.2807 15.11 18.8107 15.11 18.5207 15.4L17.9907 15.93L17.4907 15.42C17.1907 15.13 16.7207 15.13 16.4207 15.42C16.1307 15.72 16.1307 16.19 16.4207 16.49L16.9307 16.99L16.4007 17.52C16.1107 17.81 16.1107 18.28 16.4007 18.58C16.6907 18.87 17.1707 18.87 17.4607 18.58L17.9907 18.05L18.5407 18.6Z" fill="#292D32"/>
<path opacity="0.4" d="M21.0901 21.5C21.0901 21.78 20.8701 22 20.5901 22H3.41016C3.13016 22 2.91016 21.78 2.91016 21.5C2.91016 17.36 6.99015 14 12.0002 14C13.0302 14 14.0302 14.14 14.9502 14.41C14.3602 15.11 14.0002 16.02 14.0002 17C14.0002 17.75 14.2101 18.46 14.5801 19.06C14.7801 19.4 15.0401 19.71 15.3401 19.97C16.0401 20.61 16.9702 21 18.0002 21C19.1202 21 20.1302 20.54 20.8502 19.8C21.0102 20.34 21.0901 20.91 21.0901 21.5Z" fill="#292D32"/>
</svg>
