<svg viewBox="0 0 24 24" fill="none" xmlns="http://www.w3.org/2000/svg">
<path fill-rule="evenodd" clip-rule="evenodd" d="M12.1508 11.62H12.0708C12.0308 11.6133 11.9908 11.6156 11.9508 11.6178H11.9508C11.9308 11.6189 11.9108 11.62 11.8908 11.62C8.99078 11.53 6.80078 9.25 6.80078 6.44C6.80078 3.58 9.13078 1.25 11.9908 1.25C14.8508 1.25 17.1808 3.58 17.1808 6.44C17.1708 9.25 14.9708 11.53 12.1808 11.62H12.1508ZM11.9908 2.75C9.96078 2.75 8.30078 4.41 8.30078 6.44C8.30078 8.44 9.86078 10.05 11.8508 10.12C11.9108 10.11 12.0408 10.11 12.1708 10.12C14.1308 10.03 15.6708 8.42 15.6808 6.44C15.6808 4.41 14.0208 2.75 11.9908 2.75ZM19.5 19.75H15.5C15.09 19.75 14.75 19.41 14.75 19C14.75 18.59 15.09 18.25 15.5 18.25H19.5C19.91 18.25 20.25 18.59 20.25 19C20.25 19.41 19.91 19.75 19.5 19.75ZM6.56016 21.0499C8.02016 22.0299 9.95016 22.5599 11.9902 22.5599C12.4002 22.5599 12.7302 22.2099 12.7302 21.7999C12.7302 21.3899 12.3902 21.0499 11.9802 21.0499C10.2302 21.0499 8.60016 20.6099 7.39016 19.7999C6.43016 19.1599 5.91016 18.3299 5.91016 17.4799C5.91016 16.6299 6.43016 15.8199 7.39016 15.1799C9.88016 13.5199 14.0802 13.5199 16.5702 15.1799C16.9102 15.4099 17.3802 15.3199 17.6102 14.9699C17.8402 14.6299 17.7402 14.1599 17.4002 13.9299C14.4102 11.9299 9.55016 11.9299 6.56016 13.9299C5.18016 14.8499 4.41016 16.1099 4.41016 17.4799C4.41016 18.8499 5.17016 20.1199 6.56016 21.0499Z" fill="#292D32"/>
</svg>
