<svg viewBox="0 0 24 24" fill="none" xmlns="http://www.w3.org/2000/svg">
<path fill-rule="evenodd" clip-rule="evenodd" d="M7.25 7.26172C7.25 4.64172 9.38 2.51172 12 2.51172C14.62 2.51172 16.75 4.64172 16.75 7.26172C16.74 9.83172 14.73 11.9117 12.17 12.0017H12.15H12.1C12.04 11.9917 11.96 11.9917 11.88 12.0017C9.26 11.9117 7.25 9.83172 7.25 7.26172ZM6.93094 14.1606C9.74094 12.3006 14.2909 12.3006 17.0809 14.1606C18.3409 14.9906 19.0309 16.1406 19.0409 17.3606C19.0409 18.6006 18.3409 19.7406 17.0809 20.5906C15.6809 21.5306 13.8409 22.0006 12.0009 22.0006C10.1609 22.0006 8.32094 21.5306 6.92094 20.5906C5.66094 19.7506 4.96094 18.6106 4.96094 17.3806C4.96094 16.1506 5.66094 15.0006 6.93094 14.1606ZM10.1809 18.0706H13.8309C14.2109 18.0706 14.5209 17.7606 14.5209 17.3806C14.5209 17.0006 14.2109 16.6906 13.8309 16.6906H10.1809C9.80094 16.6906 9.49094 17.0006 9.49094 17.3806C9.49094 17.7606 9.80094 18.0706 10.1809 18.0706Z" fill="#292D32"/>
</svg>
