<svg viewBox="0 0 24 24" fill="none" xmlns="http://www.w3.org/2000/svg">
<path fill-rule="evenodd" clip-rule="evenodd" d="M15.76 9.39L16.72 10.35C17.09 10.73 17.09 11.34 16.71 11.71C16.53 11.9 16.28 11.99 16.03 11.99C15.79 11.99 15.54 11.9 15.35 11.71L14.39 10.75C13.64 11.25 12.74 11.54 11.77 11.54C9.14 11.54 7 9.4 7 6.77C7 4.14 9.15 2 11.78 2C14.41 2 16.55 4.13 16.55 6.77C16.55 7.74 16.26 8.64 15.76 9.39ZM2.91016 21.5C2.91016 17.36 6.99016 14 12.0002 14C17.0102 14 21.0902 17.36 21.0902 21.5C21.0902 21.78 20.8702 22 20.5902 22H3.41016C3.13016 22 2.91016 21.78 2.91016 21.5Z" fill="#292D32"/>
</svg>
