<svg viewBox="0 0 24 24" fill="none" xmlns="http://www.w3.org/2000/svg">
<path fill-rule="evenodd" clip-rule="evenodd" d="M16.2506 4.38813C16.5306 4.82813 16.7306 5.30813 16.8506 5.79813C17.2606 7.43813 16.8206 9.24813 15.5306 10.5381C14.6206 11.4581 13.4606 11.9281 12.2706 11.9781C11.7706 12.0181 11.2706 11.9581 10.8006 11.8381C9.93058 11.6381 9.12058 11.1981 8.46058 10.5381C7.51058 9.57813 7.01058 8.32813 7.00058 7.07813C6.98058 5.75813 7.48058 4.44813 8.47058 3.46813C9.52058 2.42813 10.9106 1.92813 12.2706 2.01813C13.4706 2.07813 14.6406 2.56813 15.5406 3.46813C15.8106 3.74813 16.0606 4.06813 16.2506 4.38813ZM12.6806 8.99813C13.0406 9.35813 13.6406 9.35813 14.0006 8.99813C14.3606 8.63813 14.3606 8.03813 14.0006 7.67813L13.3106 6.97813L13.9706 6.31813C14.3306 5.95813 14.3306 5.35813 13.9706 4.99813C13.6006 4.63813 13.0106 4.63813 12.6506 4.99813L11.9806 5.66813L11.3606 5.02813C10.9806 4.66813 10.3906 4.66813 10.0206 5.02813C9.66058 5.40813 9.66058 5.99813 10.0206 6.36813L10.6606 6.98813L10.0006 7.64813C9.64058 8.00813 9.64058 8.59813 10.0106 8.96813C10.3706 9.32813 10.9706 9.32813 11.3306 8.96813L11.9906 8.30813L12.6806 8.99813ZM2.91016 21.5C2.91016 17.36 6.99016 14 12.0002 14C17.0102 14 21.0902 17.36 21.0902 21.5C21.0902 21.78 20.8702 22 20.5902 22H3.41016C3.13016 22 2.91016 21.78 2.91016 21.5Z" fill="#292D32"/>
</svg>
