<svg viewBox="0 0 24 24" fill="none" xmlns="http://www.w3.org/2000/svg">
<path fill-rule="evenodd" clip-rule="evenodd" d="M12.0016 2C13.4716 2 14.8116 2.64 15.7116 3.66C16.5116 4.55 17.0016 5.72 17.0016 7C17.0016 7.4 16.9516 7.79 16.8516 8.16C16.7416 8.66 16.5416 9.14 16.2816 9.57C15.4116 11.02 13.8316 12 12.0016 12C10.7116 12 9.55156 11.51 8.68156 10.71C8.30156 10.39 7.98156 10 7.73156 9.57C7.26156 8.82 7.00156 7.94 7.00156 7C7.00156 5.65 7.54156 4.41 8.41156 3.51C9.32156 2.57 10.6016 2 12.0016 2ZM12.9416 7.92H13.8716C14.3916 7.92 14.8116 7.5 14.8116 6.98C14.8116 6.46 14.3916 6.04 13.8716 6.04H12.9416V5.15C12.9416 4.63 12.5216 4.21 12.0016 4.21C11.4816 4.21 11.0616 4.63 11.0616 5.15V6.04H10.1316C9.61156 6.04 9.19156 6.46 9.19156 6.98C9.19156 7.5 9.61156 7.92 10.1316 7.92H11.0616V8.89C11.0616 9.41 11.4816 9.83 12.0016 9.83C12.5216 9.83 12.9416 9.41 12.9416 8.89V7.92ZM2.91016 22C2.91016 17.86 6.99016 14.5 12.0002 14.5C17.0102 14.5 21.0902 17.86 21.0902 22C21.0902 22.28 20.8702 22.5 20.5902 22.5H3.41016C3.13016 22.5 2.91016 22.28 2.91016 22Z" fill="#292D32"/>
</svg>
