<svg viewBox="0 0 24 24" fill="none" xmlns="http://www.w3.org/2000/svg">
<path fill-rule="evenodd" clip-rule="evenodd" d="M7.25 6.75C7.25 4.13 9.38 2 12 2C14.62 2 16.75 4.13 16.75 6.75C16.74 9.32 14.73 11.4 12.17 11.49H12.15H12.1C12.04 11.48 11.96 11.48 11.88 11.49C9.26 11.4 7.25 9.32 7.25 6.75ZM13.9393 16.4999L13.0593 17.3799L13.9393 18.2599C14.2293 18.5499 14.2293 19.0299 13.9393 19.3199C13.7893 19.4699 13.5993 19.5399 13.4093 19.5399C13.2193 19.5399 13.0293 19.4699 12.8793 19.3199L11.9993 18.4399L11.1193 19.3199C10.9693 19.4699 10.7793 19.5399 10.5893 19.5399C10.3993 19.5399 10.2093 19.4699 10.0593 19.3199C9.7693 19.0299 9.7693 18.5499 10.0593 18.2599L10.9393 17.3799L10.0593 16.4999C9.7693 16.2099 9.7693 15.7299 10.0593 15.4399C10.3493 15.1499 10.8293 15.1499 11.1193 15.4399L11.9993 16.3199L12.8793 15.4399C13.1693 15.1499 13.6493 15.1499 13.9393 15.4399C14.2293 15.7299 14.2293 16.2099 13.9393 16.4999Z" fill="#292D32"/>
<path opacity="0.4" d="M17.0809 14.1499C14.2909 12.2899 9.74094 12.2899 6.93094 14.1499C5.66094 14.9999 4.96094 16.1499 4.96094 17.3799C4.96094 18.6099 5.66094 19.7499 6.92094 20.5899C8.32094 21.5299 10.1609 21.9999 12.0009 21.9999C13.8409 21.9999 15.6809 21.5299 17.0809 20.5899C18.3409 19.7399 19.0409 18.5999 19.0409 17.3599C19.0309 16.1299 18.3409 14.9899 17.0809 14.1499Z" fill="#292D32"/>
</svg>
