<svg viewBox="0 0 24 24" fill="none" xmlns="http://www.w3.org/2000/svg">
<path fill-rule="evenodd" clip-rule="evenodd" d="M12.625 22.7321C18.265 22.4076 22.75 17.7202 22.75 12C22.75 6.07 17.93 1.25 12 1.25C6.07 1.25 1.25 6.07 1.25 12C1.25 17.8117 5.8796 22.5572 11.6464 22.7443C11.7643 22.7481 11.8824 22.7501 12.0008 22.7501C12.2097 22.7501 12.4178 22.744 12.625 22.7321ZM19.068 17.9605C20.4288 16.3494 21.25 14.2687 21.25 12C21.25 6.9 17.1 2.75 12 2.75C6.9 2.75 2.75 6.9 2.75 12C2.75 14.2688 3.57127 16.3495 4.93209 17.9606C5.29037 17.2907 5.85908 16.6812 6.61081 16.1801C9.59081 14.2001 14.4208 14.2001 17.3908 16.1801C18.1415 16.6866 18.7096 17.2937 19.068 17.9605ZM11.713 21.2456C11.8083 21.2485 11.904 21.25 12 21.25C12.156 21.25 12.3111 21.2461 12.4652 21.2384C14.4676 21.1381 16.3796 20.3906 17.9208 19.1001C17.7408 18.4901 17.2608 17.9001 16.5508 17.4201C14.0908 15.7801 9.92081 15.7801 7.44081 17.4201C6.73081 17.9001 6.26081 18.4901 6.08081 19.1001C7.66729 20.4285 9.64653 21.1815 11.713 21.2456ZM12.1205 13.53H12.0505H11.9505C9.68047 13.46 7.98047 11.69 7.98047 9.50998C7.98047 7.28998 9.79047 5.47998 12.0105 5.47998C14.2305 5.47998 16.0405 7.28998 16.0405 9.50998C16.0305 11.7 14.3205 13.46 12.1505 13.53H12.1205ZM12.0005 6.96998C10.6005 6.96998 9.47047 8.10998 9.47047 9.49998C9.47047 10.87 10.5405 11.98 11.9005 12.03C11.9305 12.02 12.0305 12.02 12.1305 12.03C13.4705 11.96 14.5205 10.86 14.5305 9.49998C14.5305 8.10998 13.4005 6.96998 12.0005 6.96998Z" fill="#292D32"/>
</svg>
