<svg viewBox="0 0 24 24" fill="none" xmlns="http://www.w3.org/2000/svg">
<path fill-rule="evenodd" clip-rule="evenodd" d="M17 7C17 9.76142 14.7614 12 12 12C9.23858 12 7 9.76142 7 7C7 4.23858 9.23858 2 12 2C14.7614 2 17 4.23858 17 7ZM19.2091 14.7401C19.8191 14.1301 20.5291 13.8401 21.4291 14.7401C22.3291 15.6401 22.039 16.3501 21.419 16.9501L17.8791 20.4901C17.7491 20.6301 17.479 20.7601 17.289 20.7901L15.9391 20.9801C15.4491 21.0501 15.1091 20.7101 15.1791 20.2201L15.3691 18.8701C15.3991 18.6801 15.529 18.4201 15.669 18.2801L19.2091 14.7401Z" fill="#292D32"/>
<path opacity="0.4" d="M12.0002 14.5C6.99018 14.5 2.91016 17.86 2.91016 22C2.91016 22.28 3.13016 22.5 3.41016 22.5H20.5902C20.8702 22.5 21.0902 22.28 21.0902 22C21.0902 17.86 17.0102 14.5 12.0002 14.5Z" fill="#292D32"/>
</svg>
