<svg viewBox="0 0 24 24" fill="none" xmlns="http://www.w3.org/2000/svg">
<path fill-rule="evenodd" clip-rule="evenodd" d="M7.81 2H16.19C19.83 2 22 4.17 22 7.81V16.19C22 19 20.71 20.93 18.44 21.66C17.78 21.89 17.02 22 16.19 22H7.81C6.98 22 6.22 21.89 5.56 21.66C3.29 20.93 2 19 2 16.19V7.81C2 4.17 4.17 2 7.81 2ZM17.97 20.24C19.66 19.68 20.5 18.33 20.5 16.19V7.81C20.5 4.99 19.01 3.5 16.19 3.5H7.81C4.99 3.5 3.5 4.99 3.5 7.81V16.2C3.5 18.34 4.35 19.7 6.02 20.24H6.03C7.01 18.32 9.3 16.97 12 16.97C14.7 16.97 17 18.33 17.97 20.24ZM8.42188 11.58C8.42188 9.6 10.0219 8 12.0019 8C13.9819 8 15.5819 9.6 15.5819 11.58C15.5819 13.56 13.9819 15.17 12.0019 15.17C10.0219 15.17 8.42188 13.56 8.42188 11.58Z" fill="#292D32"/>
</svg>
