<svg viewBox="0 0 24 24" fill="none" xmlns="http://www.w3.org/2000/svg">
<path fill-rule="evenodd" clip-rule="evenodd" d="M8.5 10.03C8.5 8.09803 10.068 6.53003 12 6.53003C13.932 6.53003 15.5 8.09803 15.5 10.03C15.4907 11.9247 14.0067 13.4554 12.1213 13.5207H12.1027H12.0373H11.9533C9.984 13.4647 8.5 11.9247 8.5 10.03ZM11.9988 22.0001C14.6187 22.0001 16.9988 20.9901 18.7788 19.3501C18.5388 18.4401 17.8988 17.6101 16.9388 16.9701C14.2288 15.1501 9.78875 15.1501 7.05875 16.9701C6.10875 17.6101 5.45875 18.4401 5.21875 19.3501C6.99875 20.9901 9.37875 22.0001 11.9988 22.0001Z" fill="#292D32"/>
<path opacity="0.4" d="M12 22C17.5228 22 22 17.5228 22 12C22 6.47715 17.5228 2 12 2C6.47715 2 2 6.47715 2 12C2 17.5228 6.47715 22 12 22Z" fill="#292D32"/>
</svg>
