<svg viewBox="0 0 24 24" fill="none" xmlns="http://www.w3.org/2000/svg">
<path fill-rule="evenodd" clip-rule="evenodd" d="M7.25 7.26172C7.25 4.64172 9.38 2.51172 12 2.51172C14.62 2.51172 16.75 4.64172 16.75 7.26172C16.74 9.83172 14.73 11.9117 12.17 12.0017H12.15H12.1C12.04 11.9917 11.96 11.9917 11.88 12.0017C9.26 11.9117 7.25 9.83172 7.25 7.26172ZM6.93094 14.1606C9.74094 12.3006 14.2909 12.3006 17.0809 14.1606C18.3409 14.9906 19.0309 16.1406 19.0409 17.3606C19.0409 18.6006 18.3409 19.7406 17.0809 20.5906C15.6809 21.5306 13.8409 22.0006 12.0009 22.0006C10.1609 22.0006 8.32094 21.5306 6.92094 20.5906C5.66094 19.7506 4.96094 18.6106 4.96094 17.3806C4.96094 16.1506 5.66094 15.0006 6.93094 14.1606ZM11.3709 19.2606C11.5309 19.2606 11.6909 19.2006 11.8109 19.0806L14.3309 16.5606C14.5809 16.3206 14.5809 15.9206 14.3309 15.6806C14.0909 15.4406 13.6909 15.4406 13.4509 15.6806L11.3709 17.7606L10.5509 16.9406C10.3109 16.7006 9.91094 16.7006 9.67094 16.9406C9.43094 17.1806 9.43094 17.5806 9.67094 17.8206L10.9309 19.0806C11.0509 19.1906 11.2109 19.2606 11.3709 19.2606Z" fill="#292D32"/>
</svg>
