<svg viewBox="0 0 24 24" fill="none" xmlns="http://www.w3.org/2000/svg">
<path fill-rule="evenodd" clip-rule="evenodd" d="M7.25195 6.75269C7.25195 4.13269 9.38195 2.00269 12.002 2.00269C14.622 2.00269 16.752 4.13269 16.752 6.75269C16.742 9.32269 14.732 11.4027 12.172 11.4927H12.152H12.102C12.042 11.4827 11.962 11.4827 11.882 11.4927C9.26195 11.4027 7.25195 9.32269 7.25195 6.75269ZM10.1807 18.0698H13.8307C14.2107 18.0698 14.5107 17.7598 14.5207 17.3798C14.5207 16.9998 14.2107 16.6898 13.8307 16.6898H10.1807C9.80067 16.6898 9.49067 16.9998 9.49067 17.3798C9.49067 17.7598 9.80067 18.0698 10.1807 18.0698Z" fill="#292D32"/>
<path opacity="0.4" d="M17.0809 14.1599C14.2909 12.2999 9.74094 12.2999 6.93094 14.1599C5.66094 14.9999 4.96094 16.1499 4.96094 17.3799C4.96094 18.6099 5.66094 19.7499 6.92094 20.5899C8.32094 21.5299 10.1609 21.9999 12.0009 21.9999C13.8409 21.9999 15.6809 21.5299 17.0809 20.5899C18.3409 19.7399 19.0409 18.5999 19.0409 17.3599C19.0309 16.1399 18.3409 14.9899 17.0809 14.1599Z" fill="#292D32"/>
</svg>
