<svg viewBox="0 0 24 24" fill="none" xmlns="http://www.w3.org/2000/svg">
<path fill-rule="evenodd" clip-rule="evenodd" d="M6.25 7C6.25 10.17 8.83 12.75 12 12.75C15.17 12.75 17.75 10.17 17.75 7C17.75 3.83 15.17 1.25 12 1.25C8.83 1.25 6.25 3.83 6.25 7ZM7.75 7C7.75 4.66 9.66 2.75 12 2.75C14.34 2.75 16.25 4.66 16.25 7C16.25 9.34 14.34 11.25 12 11.25C9.66 11.25 7.75 9.34 7.75 7ZM2.66016 22C2.66016 22.41 3.00016 22.75 3.41016 22.75C3.82016 22.75 4.16016 22.41 4.16016 22C4.16016 18.55 7.68018 15.75 12.0002 15.75C12.5898 15.75 13.1705 15.7994 13.7361 15.9012C13.419 16.5448 13.25 17.2583 13.25 18C13.25 18.87 13.49 19.72 13.93 20.44C14.17 20.85 14.48 21.22 14.83 21.52C15.7 22.31 16.82 22.75 18 22.75C19.66 22.75 21.22 21.87 22.05 20.45C22.31 20.04 22.5 19.57 22.6 19.12C22.7 18.76 22.75 18.38 22.75 18C22.75 16.82 22.31 15.7 21.53 14.83C20.65 13.83 19.36 13.25 18 13.25C16.752 13.25 15.587 13.72 14.6996 14.5803C13.8214 14.3576 12.919 14.25 12.0002 14.25C6.85018 14.25 2.66016 17.73 2.66016 22ZM18 14.75C17.11 14.75 16.29 15.1 15.67 15.73C15.08 16.34 14.75 17.14 14.75 18C14.75 18.59 14.91 19.17 15.22 19.67C15.38 19.95 15.59 20.2 15.83 20.41C16.43 20.96 17.2 21.26 18 21.26C19.13 21.26 20.2 20.66 20.78 19.69C20.95 19.41 21.08 19.09 21.15 18.78C21.22 18.52 21.25 18.27 21.25 18.01C21.25 17.21 20.95 16.44 20.41 15.84C19.81 15.14 18.93 14.75 18 14.75ZM16.5098 18.73H19.4998C19.9098 18.73 20.2498 18.39 20.2498 17.98C20.2498 17.57 19.9098 17.23 19.4998 17.23H16.5098C16.0998 17.23 15.7598 17.57 15.7598 17.98C15.7598 18.39 16.0998 18.73 16.5098 18.73Z" fill="#292D32"/>
</svg>
