<svg viewBox="0 0 24 24" fill="none" xmlns="http://www.w3.org/2000/svg">
<path fill-rule="evenodd" clip-rule="evenodd" d="M6.25 7C6.25 10.17 8.83 12.75 12 12.75C15.17 12.75 17.75 10.17 17.75 7C17.75 3.83 15.17 1.25 12 1.25C8.83 1.25 6.25 3.83 6.25 7ZM7.75 7C7.75 4.66 9.66 2.75 12 2.75C14.34 2.75 16.25 4.66 16.25 7C16.25 9.34 14.34 11.25 12 11.25C9.66 11.25 7.75 9.34 7.75 7ZM14.8196 22.3499C15.0796 22.6099 15.4396 22.7499 15.8196 22.7499C15.8996 22.7499 15.9695 22.7398 16.0495 22.7198L17.3996 22.5299C17.7496 22.4799 18.1695 22.2699 18.4195 22.0199L21.3716 19.0679C21.4258 19.0268 21.4746 18.9782 21.5162 18.9232L21.9596 18.4799C22.4896 17.9499 22.7496 17.4199 22.7496 16.8499C22.7496 16.2899 22.4796 15.7299 21.9596 15.2099C21.3496 14.5999 20.0996 13.7899 18.6796 15.2099L15.1396 18.7499C14.8896 19.0099 14.6796 19.4199 14.6296 19.7699L14.4396 21.1199C14.3696 21.5899 14.5096 22.0399 14.8196 22.3499ZM20.8996 17.4199L20.7209 17.5986C20.2179 17.3558 19.809 16.9455 19.568 16.4415L19.7396 16.2699C19.9696 16.0399 20.1296 15.9199 20.3096 15.9199C20.4796 15.9199 20.6596 16.0299 20.8996 16.2699C21.1296 16.4899 21.2496 16.6999 21.2496 16.8499C21.2496 17.0299 21.0596 17.2599 20.8996 17.4199ZM19.6277 18.6917C19.1684 18.3903 18.7744 17.9955 18.474 17.5355L16.1996 19.8099C16.1696 19.8399 16.1196 19.9399 16.1196 19.9799L15.9396 21.2299L17.1896 21.0499C17.2296 21.0399 17.3295 20.9899 17.3595 20.9599L19.6277 18.6917ZM2.66016 22C2.66016 22.41 3.00016 22.75 3.41016 22.75C3.82016 22.75 4.16016 22.41 4.16016 21.99C4.16016 18.54 7.68018 15.74 12.0002 15.74C12.9502 15.74 13.8702 15.88 14.7502 16.14C15.1402 16.26 15.5602 16.04 15.6802 15.64C15.8002 15.25 15.5802 14.83 15.1802 14.71C14.1702 14.41 13.0902 14.25 12.0002 14.25C6.85018 14.25 2.66016 17.73 2.66016 22Z" fill="#292D32"/>
</svg>
