<svg viewBox="0 0 24 24" fill="none" xmlns="http://www.w3.org/2000/svg">
<path fill-rule="evenodd" clip-rule="evenodd" d="M7.25 6.75C7.25 4.13 9.38 2 12 2C14.62 2 16.75 4.13 16.75 6.75C16.74 9.32 14.73 11.4 12.17 11.49H12.15H12.1C12.04 11.48 11.96 11.48 11.88 11.49C9.26 11.4 7.25 9.32 7.25 6.75ZM12.75 16.6299H14C14.41 16.6299 14.75 16.9699 14.75 17.3799C14.75 17.7899 14.41 18.1299 14 18.1299H12.75V19.3799C12.75 19.7899 12.41 20.1299 12 20.1299C11.59 20.1299 11.25 19.7899 11.25 19.3799V18.1299H10C9.59 18.1299 9.25 17.7899 9.25 17.3799C9.25 16.9699 9.59 16.6299 10 16.6299H11.25V15.3799C11.25 14.9699 11.59 14.6299 12 14.6299C12.41 14.6299 12.75 14.9699 12.75 15.3799V16.6299Z" fill="#292D32"/>
<path opacity="0.4" d="M17.0809 14.1499C14.2909 12.2899 9.74094 12.2899 6.93094 14.1499C5.66094 14.9999 4.96094 16.1499 4.96094 17.3799C4.96094 18.6099 5.66094 19.7499 6.92094 20.5899C8.32094 21.5299 10.1609 21.9999 12.0009 21.9999C13.8409 21.9999 15.6809 21.5299 17.0809 20.5899C18.3409 19.7399 19.0409 18.5999 19.0409 17.3599C19.0309 16.1299 18.3409 14.9899 17.0809 14.1499Z" fill="#292D32"/>
</svg>
