<svg viewBox="0 0 24 24" fill="none" xmlns="http://www.w3.org/2000/svg">
<path fill-rule="evenodd" clip-rule="evenodd" d="M7.25 6.75C7.25 4.13 9.38 2 12 2C14.62 2 16.75 4.13 16.75 6.75C16.74 9.32 14.73 11.4 12.17 11.49H12.15H12.1C12.04 11.48 11.96 11.48 11.88 11.49C9.26 11.4 7.25 9.32 7.25 6.75ZM6.93094 14.1489C9.74094 12.2889 14.2909 12.2889 17.0809 14.1489C18.3409 14.9889 19.0309 16.1289 19.0409 17.3589C19.0409 18.5989 18.3409 19.7389 17.0809 20.5889C15.6809 21.5289 13.8409 21.9989 12.0009 21.9989C10.1609 21.9989 8.32094 21.5289 6.92094 20.5889C5.66094 19.7489 4.96094 18.6089 4.96094 17.3789C4.96094 16.1489 5.66094 14.9989 6.93094 14.1489Z" fill="#292D32"/>
</svg>
