<svg viewBox="0 0 24 24" fill="none" xmlns="http://www.w3.org/2000/svg">
<path fill-rule="evenodd" clip-rule="evenodd" d="M20.97 2.33002C20.25 1.51002 19.18 1 18 1C16.88 1 15.86 1.46002 15.13 2.21002C14.71 2.64002 14.39 3.15999 14.2 3.73999C14.07 4.13999 14 4.56 14 5C14 5.75 14.21 6.46 14.58 7.06C14.78 7.4 15.04 7.70997 15.34 7.96997C16.04 8.60997 16.97 9 18 9C18.44 9 18.86 8.92998 19.25 8.78998C20.17 8.49998 20.94 7.87 21.42 7.06C21.63 6.72 21.79 6.32999 21.88 5.92999C21.96 5.62999 22 5.32 22 5C22 3.98 21.61 3.04002 20.97 2.33002ZM19.49 5.72998H18.75V6.51001C18.75 6.92001 18.41 7.26001 18 7.26001C17.59 7.26001 17.25 6.92001 17.25 6.51001V5.72998H16.51C16.1 5.72998 15.76 5.38998 15.76 4.97998C15.76 4.56998 16.1 4.22998 16.51 4.22998H17.25V3.52002C17.25 3.11002 17.59 2.77002 18 2.77002C18.41 2.77002 18.75 3.11002 18.75 3.52002V4.22998H19.49C19.9 4.22998 20.24 4.56998 20.24 4.97998C20.24 5.38998 19.91 5.72998 19.49 5.72998ZM16.6495 20.2V20.49C15.1695 21.44 13.3995 22 11.4995 22C9.56953 22 7.76953 21.42 6.26953 20.43V20.2C6.26953 17.87 8.59953 15.97 11.4595 15.97C14.3295 15.97 16.6495 17.87 16.6495 20.2ZM14.2704 11.9199C14.2704 13.4718 13.0123 14.7299 11.4604 14.7299C9.90847 14.7299 8.65039 13.4718 8.65039 11.9199C8.65039 10.3679 9.90847 9.10986 11.4604 9.10986C13.0123 9.10986 14.2704 10.3679 14.2704 11.9199Z" fill="#292D32"/>
<path opacity="0.4" d="M21 12.5C21 15.85 19.27 18.79 16.65 20.49V20.2C16.65 17.87 14.33 15.97 11.46 15.97C8.6 15.97 6.27 17.87 6.27 20.2V20.43C3.7 18.73 2 15.82 2 12.5C2 7.25 6.25 3 11.5 3C12.81 3 14.06 3.25999 15.2 3.73999C15.07 4.13999 15 4.56 15 5C15 5.75 15.21 6.46 15.58 7.06C15.78 7.4 16.04 7.70997 16.34 7.96997C17.04 8.60997 17.97 9 19 9C19.44 9 19.86 8.92998 20.25 8.78998C20.73 9.92998 21 11.19 21 12.5Z" fill="#292D32"/>
</svg>
