<svg viewBox="0 0 24 24" fill="none" xmlns="http://www.w3.org/2000/svg">
<path fill-rule="evenodd" clip-rule="evenodd" d="M21.97 2.33C21.25 1.51 20.18 1 19 1C17.88 1 16.86 1.46 16.13 2.21C15.9764 2.36722 15.8362 2.53647 15.7109 2.71628C14.5633 2.24868 13.3065 2 12 2C6.49 2 2 6.49 2 12C2 14.9 3.25 17.51 5.23 19.34C5.23 19.35 5.23 19.35 5.22 19.36C5.2781 19.4181 5.34295 19.4694 5.40671 19.5199L5.40673 19.5199C5.4527 19.5563 5.49811 19.5923 5.54 19.63C5.55913 19.6459 5.57725 19.6619 5.595 19.6775C5.63291 19.7109 5.66913 19.7428 5.71 19.77C5.84885 19.8857 5.9996 19.9955 6.14848 20.1039C6.1926 20.136 6.23656 20.168 6.28 20.2C6.315 20.225 6.3475 20.2475 6.38 20.27C6.4125 20.2925 6.445 20.315 6.48 20.34C6.67 20.47 6.87 20.59 7.08 20.7C7.115 20.72 7.1525 20.7425 7.19 20.765L7.19018 20.7651C7.22762 20.7876 7.26506 20.81 7.3 20.83C7.5 20.94 7.71 21.04 7.93 21.13C8.01 21.17 8.09 21.21 8.17 21.24C8.39 21.33 8.61 21.41 8.83 21.48C8.91 21.51 8.99 21.54 9.07 21.56C9.31 21.63 9.55 21.69 9.79 21.75C9.86 21.77 9.93 21.79 10.01 21.8C10.29 21.86 10.57 21.9 10.86 21.93C10.9 21.93 10.94 21.94 10.98 21.95C11.32 21.98 11.66 22 12 22C12.34 22 12.68 21.98 13.01 21.95C13.05 21.95 13.09 21.94 13.13 21.93C13.42 21.9 13.7 21.86 13.98 21.8C14.0127 21.7953 14.0455 21.7863 14.0792 21.7769C14.1177 21.7663 14.1574 21.7553 14.2 21.75C14.263 21.7342 14.3267 21.7192 14.3906 21.7041C14.5699 21.6617 14.7504 21.619 14.92 21.56C15 21.53 15.08 21.5 15.16 21.48C15.2332 21.4534 15.3076 21.4278 15.3819 21.4023L15.3822 21.4022C15.5311 21.3511 15.68 21.3 15.82 21.24C15.9 21.21 15.98 21.17 16.06 21.13C16.27 21.04 16.48 20.94 16.69 20.83C16.7395 20.8052 16.7852 20.7766 16.8295 20.7489C16.8567 20.7319 16.8833 20.7152 16.91 20.7C16.9766 20.66 17.0432 20.6212 17.1098 20.5823L17.11 20.5822L17.1101 20.5822C17.2434 20.5044 17.3767 20.4266 17.51 20.34C17.559 20.312 17.6032 20.279 17.6493 20.2446C17.669 20.2299 17.689 20.215 17.71 20.2C17.91 20.06 18.1 19.92 18.28 19.77C18.2991 19.7541 18.3172 19.7381 18.335 19.7225C18.3729 19.6891 18.4091 19.6572 18.45 19.63L18.45 19.63L18.45 19.63C18.56 19.54 18.67 19.45 18.77 19.36C18.77 19.3558 18.77 19.3533 18.7692 19.3511C18.7688 19.3498 18.768 19.3485 18.7667 19.347C18.7653 19.3453 18.7631 19.3431 18.76 19.34C20.75 17.51 22 14.9 22 12C22 10.6912 21.7505 9.43241 21.2813 8.2833C21.7443 7.96219 22.1337 7.54311 22.42 7.06C22.63 6.72 22.79 6.33 22.88 5.93C22.96 5.63 23 5.32 23 5C23 3.98 22.61 3.04 21.97 2.33ZM15.4288 3.18791C15.3381 3.36385 15.2623 3.54788 15.2 3.74C15.2625 3.54912 15.3391 3.36473 15.4288 3.18791ZM15.2 3.74C15.07 4.14 15 4.56 15 5C15 5.75 15.21 6.46 15.58 7.06C15.78 7.4 16.04 7.71 16.34 7.97C17.04 8.61 17.97 9 19 9C19.3151 9 19.62 8.9641 19.9109 8.89229C20.2903 9.85167 20.5 10.9009 20.5 12C20.5 14.32 19.56 16.43 18.04 17.97C17.75 17.6 17.38 17.26 16.94 16.97C14.23 15.15 9.79 15.15 7.06 16.97C6.62 17.26 6.26 17.6 5.96 17.97C4.44 16.43 3.5 14.32 3.5 12C3.5 7.31 7.31 3.5 12 3.5C13.09 3.5 14.14 3.71 15.1 4.09C15.13 3.97 15.16 3.86 15.2 3.74ZM20.25 8.79C20.2328 8.79626 20.2156 8.80227 20.1984 8.80807C20.2156 8.80218 20.2328 8.79616 20.25 8.79ZM20.49 5.73H19.75V6.51C19.75 6.92 19.41 7.26 19 7.26C18.59 7.26 18.25 6.92 18.25 6.51V5.73H17.51C17.1 5.73 16.76 5.39 16.76 4.98C16.76 4.57 17.1 4.23 17.51 4.23H18.25V3.52C18.25 3.11 18.59 2.77 19 2.77C19.41 2.77 19.75 3.11 19.75 3.52V4.23H20.49C20.9 4.23 21.24 4.57 21.24 4.98C21.24 5.39 20.91 5.73 20.49 5.73ZM8.25 10.6797C8.25 8.60969 9.93 6.92969 12 6.92969C14.07 6.92969 15.75 8.60969 15.75 10.6797C15.74 12.7097 14.15 14.3497 12.13 14.4197H12.11H12.04H11.95C9.84 14.3597 8.25 12.7097 8.25 10.6797Z" fill="#292D32"/>
</svg>
