<svg viewBox="0 0 24 24" fill="none" xmlns="http://www.w3.org/2000/svg">
<path fill-rule="evenodd" clip-rule="evenodd" d="M7.25 7.26172C7.25 4.64172 9.38 2.51172 12 2.51172C14.62 2.51172 16.75 4.64172 16.75 7.26172C16.74 9.83172 14.73 11.9117 12.17 12.0017H12.15H12.1C12.04 11.9917 11.96 11.9917 11.88 12.0017C9.26 11.9117 7.25 9.83172 7.25 7.26172ZM6.93094 14.1489C9.74094 12.2889 14.2909 12.2889 17.0809 14.1489C18.3409 14.9889 19.0309 16.1289 19.0409 17.3589C19.0409 18.5989 18.3409 19.7389 17.0809 20.5889C15.6809 21.5289 13.8409 21.9989 12.0009 21.9989C10.1609 21.9989 8.32094 21.5289 6.92094 20.5889C5.66094 19.7489 4.96094 18.6089 4.96094 17.3789C4.96094 16.1489 5.66094 14.9989 6.93094 14.1489ZM13.9409 19.3189C14.2309 19.0289 14.2309 18.5489 13.9409 18.2589L13.0609 17.3789L13.9409 16.4989C14.2309 16.2089 14.2309 15.7289 13.9409 15.4389C13.6509 15.1489 13.1709 15.1489 12.8809 15.4389L12.0009 16.3189L11.1209 15.4389C10.8309 15.1489 10.3509 15.1489 10.0609 15.4389C9.77094 15.7289 9.77094 16.2089 10.0609 16.4989L10.9409 17.3789L10.0609 18.2589C9.77094 18.5489 9.77094 19.0289 10.0609 19.3189C10.2109 19.4689 10.4009 19.5389 10.5909 19.5389C10.7809 19.5389 10.9709 19.4689 11.1209 19.3189L12.0009 18.4389L12.8809 19.3189C13.0309 19.4689 13.2209 19.5389 13.4109 19.5389C13.6009 19.5389 13.7909 19.4689 13.9409 19.3189Z" fill="#292D32"/>
</svg>
