<svg viewBox="0 0 24 24" fill="none" xmlns="http://www.w3.org/2000/svg">
<path fill-rule="evenodd" clip-rule="evenodd" d="M6.25 7C6.25 10.17 8.83 12.75 12 12.75C15.17 12.75 17.75 10.17 17.75 7C17.75 3.83 15.17 1.25 12 1.25C8.83 1.25 6.25 3.83 6.25 7ZM7.75 7C7.75 4.66 9.66 2.75 12 2.75C14.34 2.75 16.25 4.66 16.25 7C16.25 9.34 14.34 11.25 12 11.25C9.66 11.25 7.75 9.34 7.75 7ZM2.66016 22C2.66016 22.41 3.00016 22.75 3.41016 22.75C3.82016 22.75 4.16016 22.41 4.16016 22C4.16016 18.55 7.68018 15.75 12.0002 15.75C12.4102 15.75 12.7502 15.41 12.7502 15C12.7502 14.59 12.4102 14.25 12.0002 14.25C6.85018 14.25 2.66016 17.73 2.66016 22ZM18.2 22.15C16.02 22.15 14.25 20.38 14.25 18.2C14.25 16.02 16.02 14.25 18.2 14.25C20.38 14.25 22.15 16.02 22.15 18.2C22.15 19.0211 21.8989 19.784 21.4694 20.4161C21.4902 20.4328 21.5103 20.4507 21.5295 20.4699L22.5295 21.4699C22.8195 21.7599 22.8195 22.24 22.5295 22.53C22.3795 22.68 22.1895 22.75 21.9995 22.75C21.8095 22.75 21.6195 22.68 21.4695 22.53L20.4695 21.53C20.4502 21.5107 20.4322 21.4906 20.4155 21.4698C19.7835 21.8991 19.0208 22.15 18.2 22.15ZM18.2 15.75C16.85 15.75 15.75 16.85 15.75 18.2C15.75 19.55 16.85 20.65 18.2 20.65C19.55 20.65 20.65 19.55 20.65 18.2C20.65 16.85 19.55 15.75 18.2 15.75Z" fill="#292D32"/>
</svg>
