<svg viewBox="0 0 24 24" fill="none" xmlns="http://www.w3.org/2000/svg">
<path fill-rule="evenodd" clip-rule="evenodd" d="M12.1605 11.62H12.0805C12.0305 11.61 11.9605 11.61 11.9005 11.62C9.00055 11.53 6.81055 9.25 6.81055 6.44C6.81055 3.58 9.14055 1.25 12.0005 1.25C14.8605 1.25 17.1905 3.58 17.1905 6.44C17.1805 9.25 14.9805 11.53 12.1905 11.62H12.1605ZM12.0005 2.75C9.97055 2.75 8.31055 4.41 8.31055 6.44C8.31055 8.44 9.87055 10.05 11.8605 10.12C11.9205 10.11 12.0505 10.11 12.1805 10.12C14.1405 10.03 15.6805 8.42 15.6905 6.44C15.6905 4.41 14.0305 2.75 12.0005 2.75ZM15.0593 21.44C15.2093 21.59 15.3993 21.66 15.5893 21.66C15.7793 21.66 15.9693 21.59 16.1193 21.44L16.9993 20.56L17.8793 21.44C18.0293 21.59 18.2193 21.66 18.4093 21.66C18.5993 21.66 18.7893 21.59 18.9393 21.44C19.2293 21.15 19.2293 20.67 18.9393 20.38L18.0593 19.5L18.9393 18.62C19.2293 18.33 19.2293 17.85 18.9393 17.56C18.6493 17.27 18.1693 17.27 17.8793 17.56L16.9993 18.44L16.1193 17.56C15.8293 17.27 15.3493 17.27 15.0593 17.56C14.7693 17.85 14.7693 18.33 15.0593 18.62L15.9393 19.5L15.0593 20.38C14.7693 20.67 14.7693 21.15 15.0593 21.44ZM6.56992 21.0499C8.02992 22.0299 9.95992 22.5599 11.9999 22.5599C12.4099 22.5599 12.7399 22.2099 12.7399 21.7999C12.7399 21.3899 12.3999 21.0499 11.9899 21.0499C10.2399 21.0499 8.60992 20.6099 7.39992 19.7999C6.44992 19.1599 5.91992 18.3299 5.91992 17.4799C5.91992 16.6299 6.43992 15.8199 7.39992 15.1799C9.88992 13.5199 14.0899 13.5199 16.5799 15.1799C16.9199 15.4099 17.3899 15.3199 17.6199 14.9699C17.8499 14.6299 17.7499 14.1599 17.4099 13.9299C14.4199 11.9299 9.55992 11.9299 6.56992 13.9299C5.18992 14.8499 4.41992 16.1099 4.41992 17.4799C4.41992 18.8499 5.17992 20.1199 6.56992 21.0499Z" fill="#292D32"/>
</svg>
