<svg viewBox="0 0 24 24" fill="none" xmlns="http://www.w3.org/2000/svg">
<path fill-rule="evenodd" clip-rule="evenodd" d="M14.3299 9.67004C14.3299 10.9569 13.2867 12.0001 11.9999 12.0001C10.7131 12.0001 9.66992 10.9569 9.66992 9.67004C9.66992 8.38322 10.7131 7.34009 11.9999 7.34009C13.2867 7.34009 14.3299 8.38322 14.3299 9.67004ZM15.5092 15.0901C15.9592 15.7601 15.4892 16.6601 14.6792 16.6601H9.31919C8.50919 16.6601 8.03919 15.7601 8.48919 15.0901C9.16919 14.0801 10.4892 13.4001 11.9992 13.4001C13.5092 13.4001 14.8292 14.0801 15.5092 15.0901Z" fill="#292D32"/>
<path opacity="0.4" d="M21.0802 8.58003V15.42C21.0802 16.54 20.4802 17.58 19.5102 18.15L13.5702 21.58C12.6002 22.14 11.4002 22.14 10.4202 21.58L4.48016 18.15C3.51016 17.59 2.91016 16.55 2.91016 15.42V8.58003C2.91016 7.46003 3.51016 6.41999 4.48016 5.84999L10.4202 2.42C11.3902 1.86 12.5902 1.86 13.5702 2.42L19.5102 5.84999C20.4802 6.41999 21.0802 7.45003 21.0802 8.58003Z" fill="#292D32"/>
</svg>
