<svg viewBox="0 0 24 24" fill="none" xmlns="http://www.w3.org/2000/svg">
<path fill-rule="evenodd" clip-rule="evenodd" d="M6.25 7C6.25 10.17 8.83 12.75 12 12.75C15.17 12.75 17.75 10.17 17.75 7C17.75 3.83 15.17 1.25 12 1.25C8.83 1.25 6.25 3.83 6.25 7ZM7.75 7C7.75 4.66 9.66 2.75 12 2.75C14.34 2.75 16.25 4.66 16.25 7C16.25 9.34 14.34 11.25 12 11.25C9.66 11.25 7.75 9.34 7.75 7ZM2.66016 22C2.66016 22.41 3.00016 22.75 3.41016 22.75C3.82016 22.75 4.16016 22.41 4.16016 22C4.16016 18.55 7.68015 15.75 12.0002 15.75C12.5887 15.75 13.1683 15.7992 13.7329 15.9006C13.4185 16.542 13.25 17.2567 13.25 18C13.25 18.87 13.49 19.72 13.94 20.44C14.78 21.87 16.34 22.75 18 22.75C19.17 22.75 20.28 22.33 21.11 21.57C21.49 21.25 21.81 20.87 22.06 20.45C22.51 19.72 22.75 18.87 22.75 18C22.75 15.38 20.62 13.25 18 13.25C16.93 13.25 15.87 13.62 15.03 14.29C14.9144 14.3821 14.8038 14.4789 14.6984 14.58C13.8205 14.3575 12.9186 14.25 12.0002 14.25C6.85015 14.25 2.66016 17.73 2.66016 22ZM18 14.75C17.26 14.75 16.56 15 15.97 15.47C15.2 16.08 14.75 17.01 14.75 18C14.75 18.59 14.91 19.17 15.22 19.67C15.8 20.65 16.87 21.25 18 21.25C18.79 21.25 19.55 20.96 20.13 20.44C20.39 20.22 20.61 19.96 20.77 19.68C21.09 19.17 21.25 18.59 21.25 18C21.25 16.21 19.79 14.75 18 14.75ZM16.8989 19.5201C17.0489 19.6701 17.2389 19.7401 17.4289 19.7401C17.6089 19.7401 17.7889 19.67 17.9389 19.54L20.0689 17.5701C20.3689 17.2901 20.3889 16.8101 20.1089 16.5101C19.8289 16.2101 19.3489 16.19 19.0489 16.47L17.4489 17.9501L16.9689 17.47C16.6789 17.18 16.1989 17.18 15.9089 17.47C15.6189 17.76 15.6189 18.2401 15.9089 18.5301L16.8989 19.5201Z" fill="#292D32"/>
</svg>
