<svg viewBox="0 0 24 24" fill="none" xmlns="http://www.w3.org/2000/svg">
<path fill-rule="evenodd" clip-rule="evenodd" d="M12 12.75C8.83 12.75 6.25 10.17 6.25 7C6.25 3.83 8.83 1.25 12 1.25C15.17 1.25 17.75 3.83 17.75 7C17.75 10.17 15.17 12.75 12 12.75ZM12 2.75C9.66 2.75 7.75 4.66 7.75 7C7.75 9.34 9.66 11.25 12 11.25C14.34 11.25 16.25 9.34 16.25 7C16.25 4.66 14.34 2.75 12 2.75ZM3.41016 22.75C3.00016 22.75 2.66016 22.41 2.66016 22C2.66016 17.73 6.85015 14.25 12.0002 14.25C12.919 14.25 13.8213 14.3576 14.6996 14.5803C15.587 13.72 16.752 13.25 18 13.25C19.36 13.25 20.65 13.83 21.53 14.83C22.31 15.7 22.75 16.82 22.75 18C22.75 18.38 22.7 18.76 22.6 19.12C22.5 19.57 22.31 20.04 22.05 20.45C21.22 21.87 19.66 22.75 18 22.75C16.82 22.75 15.7 22.31 14.83 21.52C14.48 21.22 14.17 20.85 13.93 20.44C13.49 19.72 13.25 18.87 13.25 18C13.25 17.2583 13.419 16.5448 13.7361 15.9012C13.1704 15.7994 12.5898 15.75 12.0002 15.75C7.68015 15.75 4.16016 18.55 4.16016 22C4.16016 22.41 3.82016 22.75 3.41016 22.75ZM15.67 15.73C16.29 15.1 17.11 14.75 18 14.75C18.93 14.75 19.81 15.14 20.41 15.84C20.95 16.44 21.25 17.21 21.25 18.01C21.25 18.27 21.22 18.52 21.15 18.78C21.08 19.09 20.95 19.41 20.78 19.69C20.2 20.66 19.13 21.26 18 21.26C17.2 21.26 16.43 20.96 15.83 20.41C15.59 20.2 15.38 19.95 15.22 19.67C14.91 19.17 14.75 18.59 14.75 18C14.75 17.14 15.08 16.34 15.67 15.73ZM17.25 18.73H16.5098C16.0998 18.73 15.7598 18.39 15.7598 17.98C15.7598 17.57 16.0998 17.23 16.5098 17.23H17.25V16.52C17.25 16.11 17.59 15.77 18 15.77C18.41 15.77 18.75 16.11 18.75 16.52V17.23H19.4998C19.9098 17.23 20.2498 17.57 20.2498 17.98C20.2498 18.39 19.9098 18.73 19.4998 18.73H18.75V19.51C18.75 19.93 18.41 20.26 18 20.26C17.59 20.26 17.25 19.92 17.25 19.51V18.73Z" fill="#292D32"/>
</svg>
