<svg viewBox="0 0 24 24" fill="none" xmlns="http://www.w3.org/2000/svg">
<path fill-rule="evenodd" clip-rule="evenodd" d="M12 2C17.51 2 22 6.49 22 12C22 14.9 20.75 17.51 18.76 19.34C18.7658 19.3458 18.7682 19.3482 18.7692 19.3511C18.77 19.3533 18.77 19.3558 18.77 19.36C18.67 19.45 18.56 19.54 18.45 19.63L18.45 19.63C18.4091 19.6572 18.3729 19.6891 18.335 19.7225C18.3172 19.7381 18.2991 19.7541 18.28 19.77C18.1 19.92 17.91 20.06 17.71 20.2C17.689 20.215 17.669 20.2299 17.6493 20.2446C17.6032 20.279 17.559 20.312 17.51 20.34C17.3767 20.4267 17.2433 20.5044 17.11 20.5822C17.0433 20.6211 16.9767 20.66 16.91 20.7C16.8833 20.7152 16.8567 20.7319 16.8295 20.7489C16.7852 20.7766 16.7395 20.8052 16.69 20.83C16.48 20.94 16.27 21.04 16.06 21.13C15.98 21.17 15.9 21.21 15.82 21.24C15.68 21.3 15.5311 21.3511 15.3822 21.4022C15.3078 21.4278 15.2333 21.4533 15.16 21.48C15.08 21.5 15 21.53 14.92 21.56C14.7504 21.619 14.5699 21.6617 14.3906 21.7041C14.3267 21.7192 14.263 21.7342 14.2 21.75C14.1574 21.7553 14.1177 21.7663 14.0792 21.7769C14.0455 21.7863 14.0127 21.7953 13.98 21.8C13.7 21.86 13.42 21.9 13.13 21.93C13.09 21.94 13.05 21.95 13.01 21.95C12.68 21.98 12.34 22 12 22C11.66 22 11.32 21.98 10.98 21.95C10.94 21.94 10.9 21.93 10.86 21.93C10.57 21.9 10.29 21.86 10.01 21.8C9.93 21.79 9.86 21.77 9.79 21.75C9.55 21.69 9.31 21.63 9.07 21.56C8.99 21.54 8.91 21.51 8.83 21.48C8.61 21.41 8.39 21.33 8.17 21.24C8.09 21.21 8.01 21.17 7.93 21.13C7.71 21.04 7.5 20.94 7.3 20.83C7.265 20.81 7.2275 20.7875 7.19 20.765C7.1525 20.7425 7.115 20.72 7.08 20.7C6.87 20.59 6.67 20.47 6.48 20.34C6.445 20.315 6.4125 20.2925 6.38 20.27C6.3475 20.2475 6.315 20.225 6.28 20.2C6.23656 20.168 6.1926 20.136 6.14848 20.1039C5.9996 19.9955 5.84885 19.8857 5.71 19.77C5.66913 19.7428 5.63291 19.7109 5.595 19.6775C5.57725 19.6619 5.55913 19.6459 5.54 19.63C5.49811 19.5923 5.4527 19.5563 5.40673 19.5199C5.34297 19.4695 5.27811 19.4181 5.22 19.36C5.23 19.35 5.23 19.35 5.23 19.34C3.25 17.51 2 14.9 2 12C2 6.49 6.49 2 12 2ZM7.06 16.97C9.79 15.15 14.23 15.15 16.94 16.97C17.38 17.26 17.75 17.6 18.04 17.97C19.56 16.43 20.5 14.32 20.5 12C20.5 7.31 16.69 3.5 12 3.5C7.31 3.5 3.5 7.31 3.5 12C3.5 14.32 4.44 16.43 5.96 17.97C6.26 17.6 6.62 17.26 7.06 16.97ZM8.25 10.6797C8.25 8.60969 9.93 6.92969 12 6.92969C14.07 6.92969 15.75 8.60969 15.75 10.6797C15.74 12.7097 14.15 14.3497 12.13 14.4197H12.11H12.04H11.95C9.84 14.3597 8.25 12.7097 8.25 10.6797Z" fill="#292D32"/>
</svg>
