<svg viewBox="0 0 24 24" fill="none" xmlns="http://www.w3.org/2000/svg">
<path fill-rule="evenodd" clip-rule="evenodd" d="M7.25 7.26172C7.25 4.64172 9.38 2.51172 12 2.51172C14.62 2.51172 16.75 4.64172 16.75 7.26172C16.74 9.83172 14.73 11.9117 12.17 12.0017H12.15H12.1C12.04 11.9917 11.96 11.9917 11.88 12.0017C9.26 11.9117 7.25 9.83172 7.25 7.26172ZM6.93094 14.1489C9.74094 12.2889 14.2909 12.2889 17.0809 14.1489C18.3409 14.9889 19.0309 16.1289 19.0409 17.3589C19.0409 18.5989 18.3409 19.7389 17.0809 20.5889C15.6809 21.5289 13.8409 21.9989 12.0009 21.9989C10.1609 21.9989 8.32094 21.5289 6.92094 20.5889C5.66094 19.7489 4.96094 18.6089 4.96094 17.3789C4.96094 16.1489 5.66094 14.9989 6.93094 14.1489ZM12.7509 18.1289H14.0009C14.4109 18.1289 14.7509 17.7889 14.7509 17.3789C14.7509 16.9689 14.4109 16.6289 14.0009 16.6289H12.7509V15.3789C12.7509 14.9689 12.4109 14.6289 12.0009 14.6289C11.5909 14.6289 11.2509 14.9689 11.2509 15.3789V16.6289H10.0009C9.59094 16.6289 9.25094 16.9689 9.25094 17.3789C9.25094 17.7889 9.59094 18.1289 10.0009 18.1289H11.2509V19.3789C11.2509 19.7889 11.5909 20.1289 12.0009 20.1289C12.4109 20.1289 12.7509 19.7889 12.7509 19.3789V18.1289Z" fill="#292D32"/>
</svg>
