<svg viewBox="0 0 24 24" fill="none" xmlns="http://www.w3.org/2000/svg">
<path fill-rule="evenodd" clip-rule="evenodd" d="M14.33 8.08002C14.33 9.36684 13.2868 10.41 11.9999 10.41C10.7131 10.41 9.66992 9.36684 9.66992 8.08002C9.66992 6.79319 10.7131 5.75 11.9999 5.75C13.2868 5.75 14.33 6.79319 14.33 8.08002ZM15.5092 13.4901C15.9592 14.1601 15.4892 15.0601 14.6792 15.0601H9.3192C8.5092 15.0601 8.03918 14.1601 8.48918 13.4901C9.16918 12.4801 10.4892 11.8 11.9992 11.8C13.5092 11.8 14.8292 12.4801 15.5092 13.4901Z" fill="#292D32"/>
<path opacity="0.4" d="M18 18.86H17.24C16.44 18.86 15.68 19.17 15.12 19.73L13.41 21.42C12.63 22.19 11.36 22.19 10.58 21.42L8.87 19.73C8.31 19.17 7.54 18.86 6.75 18.86H6C4.34 18.86 3 17.53 3 15.89V4.97998C3 3.33998 4.34 2.01001 6 2.01001H18C19.66 2.01001 21 3.33998 21 4.97998V15.89C21 17.52 19.66 18.86 18 18.86Z" fill="#292D32"/>
</svg>
