<svg viewBox="0 0 24 24" fill="none" xmlns="http://www.w3.org/2000/svg">
<path fill-rule="evenodd" clip-rule="evenodd" d="M17 7C17 9.76142 14.7614 12 12 12C9.23858 12 7 9.76142 7 7C7 4.23858 9.23858 2 12 2C14.7614 2 17 4.23858 17 7ZM18 13C19.18 13 20.25 13.51 20.97 14.33C21.61 15.04 22 15.98 22 17C22 17.32 21.96 17.63 21.88 17.93C21.79 18.33 21.63 18.72 21.42 19.06C20.73 20.22 19.46 21 18 21C16.97 21 16.04 20.61 15.34 19.97C15.04 19.71 14.78 19.4 14.58 19.06C14.21 18.46 14 17.75 14 17C14 15.92 14.43 14.93 15.13 14.21C15.86 13.46 16.88 13 18 13ZM16.51 17.73H19.5C19.91 17.73 20.25 17.39 20.25 16.98C20.25 16.57 19.91 16.23 19.5 16.23H16.51C16.1 16.23 15.76 16.57 15.76 16.98C15.76 17.39 16.1 17.73 16.51 17.73Z" fill="#292D32"/>
<path opacity="0.4" d="M21.0902 21.5C21.0902 21.78 20.8702 22 20.5902 22H3.41016C3.13016 22 2.91016 21.78 2.91016 21.5C2.91016 17.36 6.99018 14 12.0002 14C13.0302 14 14.0302 14.14 14.9502 14.41C14.3602 15.11 14.0002 16.02 14.0002 17C14.0002 17.75 14.2102 18.46 14.5802 19.06C14.7802 19.4 15.0402 19.71 15.3402 19.97C16.0402 20.61 16.9702 21 18.0002 21C19.1202 21 20.1302 20.54 20.8502 19.8C21.0102 20.34 21.0902 20.91 21.0902 21.5Z" fill="#292D32"/>
</svg>
