<svg viewBox="0 0 24 24" fill="none" xmlns="http://www.w3.org/2000/svg">
<path fill-rule="evenodd" clip-rule="evenodd" d="M7 7C7 4.24 9.24 2 12 2C14.76 2 17 4.24 17 7C17 9.76 14.76 12 12 12C9.24 12 7 9.76 7 7ZM11.47 9.21L14.17 6.51C14.63 6.05 14.85 5.51 14.18 4.82C13.5 4.14 12.95 4.36 12.49 4.82L9.79 7.52C9.68 7.62 9.58 7.83 9.56 7.97L9.41 9C9.35 9.37 9.61 9.63 9.99 9.58L11.02 9.44C11.16 9.41 11.37 9.31 11.47 9.21ZM2.91016 21.5C2.91016 17.36 6.99016 14 12.0002 14C17.0102 14 21.0902 17.36 21.0902 21.5C21.0902 21.78 20.8702 22 20.5902 22H3.41016C3.13016 22 2.91016 21.78 2.91016 21.5Z" fill="#292D32"/>
</svg>
