<svg viewBox="0 0 24 24" fill="none" xmlns="http://www.w3.org/2000/svg">
<path fill-rule="evenodd" clip-rule="evenodd" d="M12 12.75C8.83 12.75 6.25 10.17 6.25 7C6.25 3.83 8.83 1.25 12 1.25C15.17 1.25 17.75 3.83 17.75 7C17.75 10.17 15.17 12.75 12 12.75ZM12 2.75C9.66 2.75 7.75 4.66 7.75 7C7.75 9.34 9.66 11.25 12 11.25C14.34 11.25 16.25 9.34 16.25 7C16.25 4.66 14.34 2.75 12 2.75ZM3.41016 22.75C3.00016 22.75 2.66016 22.41 2.66016 22C2.66016 17.73 6.85015 14.25 12.0002 14.25C12.919 14.25 13.8213 14.3576 14.6996 14.5803C15.587 13.72 16.752 13.25 18 13.25C19.36 13.25 20.65 13.83 21.53 14.83C22.31 15.7 22.75 16.82 22.75 18C22.75 18.38 22.7 18.76 22.6 19.12C22.5 19.57 22.31 20.04 22.05 20.45C21.22 21.87 19.66 22.75 18 22.75C16.82 22.75 15.7 22.31 14.83 21.52C14.48 21.22 14.17 20.85 13.93 20.44C13.49 19.72 13.25 18.87 13.25 18C13.25 17.2583 13.419 16.5448 13.7361 15.9012C13.1704 15.7994 12.5898 15.75 12.0002 15.75C7.68015 15.75 4.16016 18.55 4.16016 22C4.16016 22.41 3.82016 22.75 3.41016 22.75ZM15.67 15.73C16.29 15.1 17.11 14.75 18 14.75C18.93 14.75 19.81 15.14 20.41 15.84C20.95 16.44 21.25 17.21 21.25 18.01C21.25 18.27 21.22 18.52 21.15 18.78C21.08 19.09 20.95 19.41 20.78 19.69C20.2 20.66 19.13 21.26 18 21.26C17.2 21.26 16.43 20.96 15.83 20.41C15.59 20.2 15.38 19.95 15.22 19.67C14.91 19.17 14.75 18.59 14.75 18C14.75 17.14 15.08 16.34 15.67 15.73ZM16.9194 19.7999C16.7294 19.7999 16.5394 19.7299 16.3894 19.5799C16.0994 19.2899 16.0994 18.8099 16.3894 18.5199L16.92 17.9893L16.4206 17.4899C16.1306 17.1999 16.1306 16.7199 16.4206 16.4299C16.7106 16.1399 17.1906 16.1399 17.4806 16.4299L17.98 16.9293L18.4994 16.4099C18.7894 16.1199 19.2694 16.1199 19.5594 16.4099C19.8494 16.6999 19.8494 17.1799 19.5594 17.4699L19.04 17.9893L19.5906 18.5399C19.8806 18.8299 19.8806 19.3099 19.5906 19.5999C19.4406 19.7499 19.2506 19.8199 19.0606 19.8199C18.8706 19.8199 18.6806 19.7499 18.5306 19.5999L17.98 19.0493L17.4494 19.5799C17.2994 19.7299 17.1094 19.7999 16.9194 19.7999Z" fill="#292D32"/>
</svg>
