<svg viewBox="0 0 24 24" fill="none" xmlns="http://www.w3.org/2000/svg">
<path fill-rule="evenodd" clip-rule="evenodd" d="M15.83 8.52002C16.7 9.31002 17.82 9.75 19 9.75C19.2727 9.75 19.5375 9.72881 19.7917 9.68508C20.0906 10.5935 20.25 11.5418 20.25 12.5C20.25 15.1271 19.0873 17.485 17.2512 19.0893C16.649 16.8738 14.2842 15.22 11.4595 15.22C8.66038 15.22 6.31277 16.8514 5.68461 19.0327C3.8856 17.4298 2.75 15.0964 2.75 12.5C2.75 7.67 6.68 3.75 11.5 3.75C12.4651 3.75 13.4105 3.89852 14.3163 4.20538C14.2721 4.46652 14.25 4.73188 14.25 5C14.25 5.87 14.49 6.72 14.93 7.44C15.17 7.85 15.48 8.22002 15.83 8.52002ZM19.0386 8.2512C18.2599 8.25 17.4475 7.96164 16.84 7.40997C16.6 7.19997 16.39 6.94998 16.23 6.66998C15.92 6.16998 15.76 5.59 15.76 5C15.76 4.65 15.81 4.29997 15.92 3.96997C16.07 3.49997 16.32 3.08998 16.67 2.72998C17.28 2.09998 18.11 1.75 19 1.75C19.93 1.75 20.81 2.14002 21.42 2.83002C21.96 3.43002 22.26 4.2 22.26 5C22.26 5.26 22.23 5.51002 22.16 5.77002C22.09 6.08002 21.97 6.38999 21.79 6.67999C21.4057 7.32372 20.8183 7.81056 20.0987 8.06061C20.0656 8.06792 20.0326 8.07769 20 8.09003C19.6983 8.19756 19.3716 8.25066 19.0386 8.2512ZM21.2048 9.20154C21.9692 8.80722 22.6148 8.20227 23.06 7.45001C23.32 7.04001 23.51 6.56999 23.61 6.12C23.71 5.75999 23.76 5.38 23.76 5C23.76 3.82 23.32 2.70002 22.54 1.83002C21.66 0.830017 20.37 0.25 19.01 0.25C17.71 0.25 16.5 0.770002 15.6 1.69C15.2767 2.01326 15.0057 2.38474 14.7945 2.7866C13.7408 2.43069 12.6371 2.25 11.5 2.25C5.85 2.25 1.25 6.85 1.25 12.5C1.25 18.15 5.85 22.75 11.5 22.75C17.15 22.75 21.75 18.15 21.75 12.51C21.75 11.3778 21.5683 10.2658 21.2048 9.20154ZM11.5 21.25C9.86695 21.25 8.33607 20.8 7.02558 20.0171C7.14716 18.1819 9.0878 16.72 11.4595 16.72C13.8511 16.72 15.8044 18.2065 15.8962 20.0633C14.6031 20.8177 13.1006 21.25 11.5 21.25ZM7.90039 10.9199C7.90039 12.8799 9.50039 14.4799 11.4604 14.4799C13.4204 14.4799 15.0204 12.8799 15.0204 10.9199C15.0204 8.95986 13.4204 7.35986 11.4604 7.35986C9.50039 7.35986 7.90039 8.95986 7.90039 10.9199ZM9.40039 10.9299C9.40039 9.78987 10.3304 8.86987 11.4604 8.86987C12.6004 8.86987 13.5204 9.78987 13.5204 10.9299C13.5204 12.0699 12.6004 12.9899 11.4604 12.9899C10.3204 12.9899 9.40039 12.0699 9.40039 10.9299ZM18.25 5.72998H17.5C17.09 5.72998 16.75 5.38998 16.75 4.97998C16.75 4.56998 17.09 4.22998 17.5 4.22998H18.25V3.52002C18.25 3.11002 18.59 2.77002 19 2.77002C19.41 2.77002 19.75 3.11002 19.75 3.52002V4.22998H20.49C20.9 4.22998 21.24 4.56998 21.24 4.97998C21.24 5.38998 20.91 5.72998 20.49 5.72998H19.75V6.51001C19.75 6.93001 19.41 7.26001 19 7.26001C18.59 7.26001 18.25 6.92001 18.25 6.51001V5.72998Z" fill="#292D32"/>
</svg>
