<svg viewBox="0 0 24 24" fill="none" xmlns="http://www.w3.org/2000/svg">
<path fill-rule="evenodd" clip-rule="evenodd" d="M12 2C13.47 2 14.81 2.64 15.71 3.66C16.51 4.55 17 5.72 17 7C17 7.4 16.95 7.79 16.85 8.16C16.74 8.66 16.54 9.14 16.28 9.57C15.41 11.02 13.83 12 12 12C10.71 12 9.55 11.51 8.68 10.71C8.3 10.39 7.98 10 7.73 9.57C7.26 8.82 7 7.94 7 7C7 5.65 7.54 4.41 8.41 3.51C9.32 2.57 10.6 2 12 2ZM9.19 6.98C9.19 7.5 9.61 7.92 10.13 7.92H13.87C14.39 7.92 14.81 7.5 14.81 6.98C14.81 6.46 14.39 6.04 13.87 6.04H10.13C9.61 6.04 9.19 6.46 9.19 6.98ZM2.91016 21.5C2.91016 17.36 6.99016 14 12.0002 14C17.0102 14 21.0902 17.36 21.0902 21.5C21.0902 21.78 20.8702 22 20.5902 22H3.41016C3.13016 22 2.91016 21.78 2.91016 21.5Z" fill="#292D32"/>
</svg>
