<svg viewBox="0 0 24 24" fill="none" xmlns="http://www.w3.org/2000/svg">
<path fill-rule="evenodd" clip-rule="evenodd" d="M8.88 3.1C9.74 2.41 10.82 2 12 2C14.76 2 17 4.24 17 7C17 7.94 16.74 8.82 16.28 9.57C16.02 10.02 15.68 10.42 15.29 10.75C14.41 11.54 13.26 12 12 12C10.17 12 8.59 11.02 7.73 9.57C7.26 8.82 7 7.94 7 7C7 5.42 7.73 4.01 8.88 3.1ZM11.92 8.92L14.59 6.46C14.97 6.11 14.99 5.51 14.64 5.12C14.29 4.74 13.7 4.72 13.32 5.07L11.31 6.92L10.72 6.33C10.35 5.96 9.76 5.96 9.39 6.33C9.02 6.7 9.02 7.29 9.39 7.66L10.62 8.9C10.8 9.08 11.04 9.17 11.28 9.17C11.51 9.17 11.74 9.09 11.92 8.92ZM2.91016 21.5C2.91016 17.36 6.99016 14 12.0002 14C17.0102 14 21.0902 17.36 21.0902 21.5C21.0902 21.78 20.8702 22 20.5902 22H3.41016C3.13016 22 2.91016 21.78 2.91016 21.5Z" fill="#292D32"/>
</svg>
