<svg viewBox="0 0 24 24" fill="none" xmlns="http://www.w3.org/2000/svg">
<path fill-rule="evenodd" clip-rule="evenodd" d="M10.2509 22.12C10.7409 22.54 11.3709 22.75 12.0009 22.75C12.6309 22.75 13.2609 22.54 13.7509 22.11L15.3309 20.75C15.4909 20.62 15.8909 20.47 16.1009 20.47H17.8009C19.2809 20.47 20.4809 19.27 20.4809 17.79V16.09C20.4809 15.88 20.6309 15.48 20.7709 15.32L22.1309 13.74C22.9709 12.76 22.9709 11.23 22.1309 10.25L20.7709 8.67C20.6309 8.51 20.4809 8.11 20.4809 7.9V6.2C20.4809 4.72 19.2809 3.52 17.8009 3.52H16.1009C15.8909 3.52 15.4909 3.38 15.3309 3.24L13.7509 1.88C12.7709 1.04 11.2409 1.04 10.2609 1.88L8.68086 3.24C8.52086 3.37 8.12086 3.52 7.91086 3.52H6.18086C4.70086 3.52 3.50086 4.72 3.50086 6.2V7.92C3.50086 8.13 3.36086 8.52 3.22086 8.68L1.87086 10.27C1.05086 11.24 1.05086 12.77 1.87086 13.74L3.22086 15.33C3.36086 15.49 3.50086 15.88 3.50086 16.09V17.8C3.50086 19.28 4.70086 20.48 6.18086 20.48H7.90086C8.11086 20.48 8.51086 20.62 8.67086 20.76L10.2509 22.12ZM5.00086 6.2C5.00086 5.55 5.53086 5.02 6.18086 5.02H7.91086C8.48086 5.02 9.22086 4.75 9.66086 4.38L11.2409 3.01C11.6509 2.66 12.3709 2.66 12.7809 3.01L14.3609 4.37C14.8009 4.75 15.5309 5.02 16.1109 5.02H17.8109C18.4609 5.02 18.9909 5.55 18.9909 6.2V7.89C18.9909 8.47 19.2609 9.2 19.6409 9.64L21.0009 11.22C21.3509 11.63 21.3509 12.35 21.0009 12.76L19.6409 14.34C19.2609 14.78 18.9909 15.51 18.9909 16.09V17.79C18.9909 18.44 18.4609 18.97 17.8109 18.97H16.1109C15.5309 18.97 14.8009 19.25 14.3609 19.62L12.7809 20.98C12.3709 21.33 11.6509 21.33 11.2409 20.98L9.66086 19.62C9.22086 19.24 8.49086 18.97 7.91086 18.97H6.18086C5.53086 18.97 5.00086 18.44 5.00086 17.79V16.08C5.00086 15.51 4.73086 14.79 4.36086 14.35L3.01086 12.76C2.66086 12.35 2.66086 11.64 3.01086 11.23L4.36086 9.64C4.73086 9.21 5.00086 8.48 5.00086 7.91V6.2ZM10.2605 14.95C10.4005 15.09 10.5905 15.17 10.7905 15.17C10.9905 15.17 11.1805 15.09 11.3205 14.95L16.1505 10.12C16.4405 9.83003 16.4405 9.35003 16.1505 9.06003C15.8605 8.77003 15.3805 8.77003 15.0905 9.06003L10.7905 13.36L8.90055 11.47C8.61055 11.18 8.13055 11.18 7.84055 11.47C7.55055 11.76 7.55055 12.24 7.84055 12.53L10.2605 14.95Z" fill="#292D32"/>
</svg>
