<svg viewBox="0 0 24 24" fill="none" xmlns="http://www.w3.org/2000/svg">
<path fill-rule="evenodd" clip-rule="evenodd" d="M19.2105 6.54011C20.3805 5.72011 21.2405 5.96011 21.6505 6.17011C22.0605 6.38011 22.7505 6.95011 22.7505 8.38011V15.6301C22.7505 17.0601 22.0605 17.6301 21.6505 17.8401C21.4605 17.9401 21.1705 18.0401 20.8005 18.0401C20.3705 18.0401 19.8305 17.9001 19.2105 17.4601L17.7305 16.4201C17.7305 16.3513 17.7353 16.2849 17.7402 16.2174C17.7453 16.1475 17.7505 16.0764 17.7505 16.0001V8.00011C17.7505 7.85896 17.7416 7.73553 17.7322 7.6048C17.7316 7.5966 17.7311 7.58837 17.7305 7.58011L19.2105 6.54011ZM13.3791 9.50012C13.3791 10.5384 12.5374 11.3801 11.4991 11.3801C10.4608 11.3801 9.61914 10.5384 9.61914 9.50012C9.61914 8.46182 10.4608 7.62012 11.4991 7.62012C12.5374 7.62012 13.3791 8.46182 13.3791 9.50012Z" fill="#292D32"/>
<path opacity="0.4" d="M13 3.25H7C3.58 3.25 2.25 4.58 2.25 8V16C2.25 18.3 3.5 20.75 7 20.75H13C16.42 20.75 17.75 19.42 17.75 16V8C17.75 4.58 16.42 3.25 13 3.25Z" fill="#292D32"/>
</svg>