<svg viewBox="0 0 24 24" fill="none" xmlns="http://www.w3.org/2000/svg">
<path fill-rule="evenodd" clip-rule="evenodd" d="M21.4 2.22891C21.1 1.92891 20.61 1.92891 20.31 2.22891L16.7303 5.80862C16.1164 4.26475 14.7538 3.62109 12.375 3.62109H6.375C2.955 3.62109 1.625 4.95109 1.625 8.37109V16.3711C1.625 17.5801 1.96844 18.8266 2.80335 19.7356L1.85 20.6889C1.55 20.9889 1.55 21.4789 1.85 21.7789C2 21.9189 2.2 21.9989 2.39 21.9989C2.59 21.9989 2.78 21.9189 2.93 21.7689L21.4 3.30891C21.7 3.00891 21.7 2.52891 21.4 2.22891ZM17.7405 7.79031C17.7505 7.72031 17.7505 7.64031 17.7405 7.57031L17.7305 7.58031C17.7305 7.61531 17.733 7.65031 17.7355 7.68531L17.7355 7.68539C17.738 7.72037 17.7405 7.75534 17.7405 7.79031ZM22.3802 15.6205V8.38047C22.3802 6.95047 21.6802 6.38047 21.2802 6.17047C21.1202 6.08047 20.9102 6.00047 20.6502 5.98047L15.0002 11.6305L5.91016 20.7105C6.15016 20.7405 6.38016 20.7505 6.62016 20.7505H12.6202C13.5702 20.7505 14.3602 20.6505 15.0002 20.4205C16.5902 19.8905 17.2902 18.6305 17.3602 16.4205L18.8402 17.4605C19.4602 17.9005 19.9902 18.0405 20.4202 18.0405C20.7902 18.0405 21.0902 17.9305 21.2802 17.8305C21.6802 17.6205 22.3802 17.0505 22.3802 15.6205Z" fill="#292D32"/>
</svg>
