<svg viewBox="0 0 24 24" fill="none" xmlns="http://www.w3.org/2000/svg">
<path fill-rule="evenodd" clip-rule="evenodd" d="M1.49094 22.7199C1.64094 22.8699 1.83094 22.9399 2.02094 22.9399C2.21094 22.9399 2.41094 22.8699 2.55094 22.7199L22.5509 2.71988C22.8409 2.42988 22.8409 1.94988 22.5509 1.65988C22.2609 1.36988 21.7809 1.36988 21.4909 1.65988L17.4535 5.69733C16.7532 3.55783 14.8361 3.25 13 3.25H7C3.58 3.25 2.25 4.58 2.25 8V16C2.25 17.4695 2.72831 18.7169 3.5981 19.5527L1.49094 21.6599C1.20094 21.9499 1.20094 22.4299 1.49094 22.7199ZM4.65843 18.4924L16.2253 6.92549C16.1948 6.86194 16.1725 6.79303 16.16 6.72C15.95 5.42 15.4 4.75 13 4.75H7C4.42 4.75 3.75 5.42 3.75 8V16C3.75 16.6218 3.86897 17.7561 4.65843 18.4924ZM8 20.75H13C16.2723 20.75 17.6312 19.5324 17.7425 16.4314L19.2103 17.46C19.8403 17.9 20.3703 18.04 20.8003 18.04C21.1703 18.04 21.4603 17.93 21.6503 17.83C22.0603 17.62 22.7503 17.05 22.7503 15.62V7C22.7503 6.59 22.4103 6.25 22.0003 6.25C21.5903 6.25 21.2503 6.59 21.2503 7V15.63C21.2503 16.17 21.0903 16.44 20.9603 16.51C20.8303 16.58 20.5103 16.55 20.0703 16.24L17.75 14.614V11C17.75 10.59 17.41 10.25 17 10.25C16.59 10.25 16.25 10.59 16.25 11V16C16.25 18.58 15.58 19.25 13 19.25H8C7.59 19.25 7.25 19.59 7.25 20C7.25 20.41 7.59 20.75 8 20.75Z" fill="#292D32"/>
</svg>
