<svg viewBox="0 0 24 24" fill="none" xmlns="http://www.w3.org/2000/svg">
<path fill-rule="evenodd" clip-rule="evenodd" d="M20.6809 2.22988C20.9809 1.92988 21.4709 1.92988 21.7709 2.22988C22.0809 2.52988 22.0809 3.00988 21.7709 3.30988L3.31086 21.7699C3.16086 21.9199 2.97086 21.9999 2.77086 21.9999C2.57086 21.9999 2.38086 21.9199 2.23086 21.7799C1.93086 21.4799 1.93086 20.9899 2.23086 20.6899L20.6809 2.22988ZM22.7505 15.62V8.37998C22.7505 6.94998 22.0605 6.37998 21.6505 6.16998C21.5005 6.07998 21.2905 5.99998 21.0205 5.97998L17.7505 9.24998V16C17.7505 16.0413 17.7478 16.0773 17.7452 16.1121C17.7428 16.1447 17.7405 16.1761 17.7405 16.21C17.7405 16.245 17.738 16.28 17.7355 16.315C17.733 16.35 17.7305 16.385 17.7305 16.42H17.7405L19.2105 17.46C19.8305 17.9 20.3705 18.04 20.8005 18.04C21.1705 18.04 21.4605 17.93 21.6505 17.83C22.0605 17.62 22.7505 17.05 22.7505 15.62Z" fill="#292D32"/>
<path opacity="0.4" fill-rule="evenodd" clip-rule="evenodd" d="M4.2 20.01L17.65 6.56C17.29 4.2 15.89 3.25 13 3.25H7C3.58 3.25 2.25 4.58 2.25 8V16C2.25 17.53 2.8 19.12 4.2 20.01ZM17.7491 16V9.25L6.28906 20.71C6.51906 20.74 6.74906 20.75 6.99906 20.75H12.9991C16.2791 20.75 17.6291 19.53 17.7391 16.42H17.7291C17.7291 16.385 17.7316 16.35 17.7341 16.315C17.7366 16.28 17.7391 16.245 17.7391 16.21C17.7391 16.1762 17.7414 16.1447 17.7438 16.1122L17.7438 16.1121C17.7464 16.0773 17.7491 16.0413 17.7491 16ZM17.7305 16.42C17.7305 16.385 17.733 16.35 17.7355 16.315C17.738 16.28 17.7405 16.245 17.7405 16.21C17.7505 16.28 17.7505 16.35 17.7405 16.42H17.7305ZM17.7405 7.78982C17.7505 7.71982 17.7505 7.63982 17.7405 7.56982L17.7305 7.57982C17.7305 7.61482 17.733 7.64982 17.7355 7.68482C17.738 7.71982 17.7405 7.75482 17.7405 7.78982Z" fill="#292D32"/>

</svg>
