<svg viewBox="0 0 24 24" fill="none" xmlns="http://www.w3.org/2000/svg">
<path fill-rule="evenodd" clip-rule="evenodd" d="M1.25 12C1.25 17.93 6.07 22.75 12 22.75C17.93 22.75 22.75 17.93 22.75 12C22.75 6.07 17.93 1.25 12 1.25C6.07 1.25 1.25 6.07 1.25 12ZM2.75 12C2.75 6.9 6.9 2.75 12 2.75C17.1 2.75 21.25 6.9 21.25 12C21.25 17.1 17.1 21.25 12 21.25C6.9 21.25 2.75 17.1 2.75 12ZM12 17.75C11.59 17.75 11.25 17.41 11.25 17V7C11.25 6.59 11.59 6.25 12 6.25C12.41 6.25 12.75 6.59 12.75 7V17C12.75 17.41 12.41 17.75 12 17.75ZM8.25 15.5697C8.25 15.9797 8.59 16.3197 9 16.3197C9.41 16.3197 9.75 15.9897 9.75 15.5697V8.42969C9.75 8.01969 9.41 7.67969 9 7.67969C8.59 7.67969 8.25 8.01969 8.25 8.42969V15.5697ZM5.25 14.1401C5.25 14.5501 5.59 14.8901 6 14.8901C6.41 14.8901 6.75 14.5601 6.75 14.1401V9.8501C6.75 9.4401 6.41 9.1001 6 9.1001C5.59 9.1001 5.25 9.4401 5.25 9.8501V14.1401ZM14.25 15.5697C14.25 15.9797 14.59 16.3197 15 16.3197C15.41 16.3197 15.75 15.9897 15.75 15.5697V8.42969C15.75 8.01969 15.41 7.67969 15 7.67969C14.59 7.67969 14.25 8.01969 14.25 8.42969V15.5697ZM18 14.8901C17.59 14.8901 17.25 14.5501 17.25 14.1401V9.8501C17.25 9.4401 17.59 9.1001 18 9.1001C18.41 9.1001 18.75 9.4401 18.75 9.8501V14.1401C18.75 14.5601 18.41 14.8901 18 14.8901Z" fill="#292D32"/>
</svg>
