<svg viewBox="0 0 24 24" fill="none" xmlns="http://www.w3.org/2000/svg">
<path fill-rule="evenodd" clip-rule="evenodd" d="M20.6809 2.22988C20.9809 1.92988 21.4709 1.92988 21.7709 2.22988C22.0809 2.52988 22.0809 3.00988 21.7709 3.30988L3.31086 21.7699C3.16086 21.9199 2.97086 21.9999 2.77086 21.9999C2.57086 21.9999 2.38086 21.9199 2.23086 21.7799C1.93086 21.4799 1.93086 20.9899 2.23086 20.6899L20.6809 2.22988ZM19.8304 19.2502C19.6704 19.2502 19.5204 19.2002 19.3804 19.1002C19.0504 18.8502 18.9804 18.3802 19.2304 18.0502C21.3704 15.2002 21.8404 11.3802 20.4604 8.0902C20.3004 7.7102 20.4804 7.2702 20.8604 7.1102C21.2404 6.9502 21.6804 7.1302 21.8404 7.5102C23.4304 11.2902 22.8904 15.6702 20.4304 18.9502C20.2904 19.1502 20.0604 19.2502 19.8304 19.2502ZM18.0003 16.7498C17.8403 16.7498 17.6903 16.6998 17.5503 16.5998C17.2203 16.3498 17.1503 15.8798 17.4003 15.5498C18.6603 13.8698 18.9303 11.6398 18.1203 9.70983C17.9603 9.32983 18.1403 8.88983 18.5203 8.72983C18.9003 8.56983 19.3403 8.74983 19.5003 9.12983C20.5203 11.5498 20.1703 14.3598 18.6003 16.4598C18.4503 16.6498 18.2303 16.7498 18.0003 16.7498Z" fill="#292D32"/>
<path opacity="0.4" fill-rule="evenodd" clip-rule="evenodd" d="M10.01 4.23021C11.47 3.32021 12.9 3.16021 14.02 3.78021C15.13 4.40021 15.75 5.69021 15.75 7.41021V8.25021L6.25 17.7502H5.5H5C2.58 17.7502 1.25 16.4202 1.25 14.0002V10.0002C1.25 7.58021 2.58 6.25021 5 6.25021H5.5H6.43C6.66 6.25021 6.89 6.18021 7.09 6.06021L10.01 4.23021ZM15.7505 13.67C15.7505 12.78 14.6705 12.33 14.0405 12.96L9.19047 17.83C8.74047 18.28 8.83047 19.04 9.37047 19.38L10.0105 19.78C10.8905 20.33 11.7505 20.6 12.5505 20.6C13.0705 20.6 13.5705 20.48 14.0205 20.23C15.1305 19.61 15.7505 18.32 15.7505 16.6V13.67Z" fill="#292D32"/>

</svg>
