<svg viewBox="0 0 24 24" fill="none" xmlns="http://www.w3.org/2000/svg">
<path fill-rule="evenodd" clip-rule="evenodd" d="M10.01 4.23168C11.47 3.32168 12.9 3.16168 14.02 3.78168C15.13 4.40168 15.75 5.69168 15.75 7.41168V16.5917C15.75 18.3117 15.13 19.6017 14.02 20.2217C13.57 20.4717 13.07 20.5917 12.55 20.5917C11.75 20.5917 10.89 20.3217 10.01 19.7717L7.09 17.9417C6.89 17.8217 6.66 17.7517 6.43 17.7517H5.5H5C2.58 17.7517 1.25 16.4217 1.25 14.0017V10.0017C1.25 7.58168 2.58 6.25168 5 6.25168H5.5H6.43C6.66 6.25168 6.89 6.18168 7.09 6.06168L10.01 4.23168ZM21.0814 11.9697L22.5314 13.4197C22.8214 13.7197 22.8214 14.1897 22.5314 14.4797C22.3814 14.6297 22.1914 14.6997 22.0014 14.6997C21.8114 14.6997 21.6214 14.6297 21.4714 14.4797L20.0214 13.0297L18.5314 14.5197C18.3814 14.6697 18.1914 14.7397 18.0014 14.7397C17.8114 14.7397 17.6214 14.6697 17.4714 14.5197C17.1814 14.2297 17.1814 13.7497 17.4714 13.4597L18.9614 11.9697L17.5114 10.5197C17.2214 10.2297 17.2214 9.74969 17.5114 9.45969C17.8014 9.16969 18.2814 9.16969 18.5714 9.45969L20.0214 10.9097L21.4214 9.50969C21.7114 9.21969 22.1914 9.21969 22.4814 9.50969C22.7714 9.79969 22.7714 10.2797 22.4814 10.5697L21.0814 11.9697Z" fill="#292D32"/>
</svg>
