<svg viewBox="0 0 24 24" fill="none" xmlns="http://www.w3.org/2000/svg">
<path fill-rule="evenodd" clip-rule="evenodd" d="M10.01 4.23168C11.47 3.32168 12.9 3.16168 14.02 3.78168C15.13 4.40168 15.75 5.69168 15.75 7.41168V16.5917C15.75 18.3117 15.13 19.6017 14.02 20.2217C13.57 20.4717 13.07 20.5917 12.55 20.5917C11.75 20.5917 10.89 20.3217 10.01 19.7717L7.09 17.9417C6.89 17.8217 6.66 17.7517 6.43 17.7517H5.5H5C2.58 17.7517 1.25 16.4217 1.25 14.0017V10.0017C1.25 7.58168 2.58 6.25168 5 6.25168H5.5H6.43C6.66 6.25168 6.89 6.18168 7.09 6.06168L10.01 4.23168ZM18 12.75H22C22.41 12.75 22.75 12.41 22.75 12C22.75 11.59 22.41 11.25 22 11.25H18C17.59 11.25 17.25 11.59 17.25 12C17.25 12.41 17.59 12.75 18 12.75Z" fill="#292D32"/>
</svg>
