<svg viewBox="0 0 24 24" fill="none" xmlns="http://www.w3.org/2000/svg">
<path fill-rule="evenodd" clip-rule="evenodd" d="M11.3381 4.23168C12.7981 3.32168 14.2281 3.16168 15.3481 3.78168C16.4581 4.40168 17.0781 5.69168 17.0781 7.41168V16.5917C17.0781 18.3117 16.4581 19.6017 15.3481 20.2217C14.8981 20.4717 14.3981 20.5917 13.8781 20.5917C13.0781 20.5917 12.2181 20.3217 11.3381 19.7717L8.41813 17.9417C8.21813 17.8217 7.98813 17.7517 7.75813 17.7517H6.82812H6.32812C3.90812 17.7517 2.57812 16.4217 2.57812 14.0017V10.0017C2.57812 7.58168 3.90812 6.25168 6.32812 6.25168H6.82812H7.75813C7.98813 6.25168 8.21813 6.18168 8.41813 6.06168L11.3381 4.23168ZM18.8784 16.6003C19.0184 16.7003 19.1684 16.7503 19.3284 16.7503C19.5584 16.7503 19.7884 16.6503 19.9284 16.4503C21.8984 13.8303 21.8984 10.1703 19.9284 7.55027C19.6784 7.22027 19.2084 7.15027 18.8784 7.40027C18.5484 7.65027 18.4784 8.12027 18.7284 8.45027C20.2984 10.5403 20.2984 13.4603 18.7284 15.5503C18.4784 15.8803 18.5484 16.3503 18.8784 16.6003Z" fill="#292D32"/>
</svg>
