<svg viewBox="0 0 24 24" fill="none" xmlns="http://www.w3.org/2000/svg">
<path fill-rule="evenodd" clip-rule="evenodd" d="M10.18 19.91C11.08 20.47 11.95 20.75 12.76 20.75C13.3 20.75 13.8 20.63 14.25 20.39C15.38 19.76 16.01 18.44 16.01 16.69V7.32996C16.01 5.56996 15.39 4.25996 14.25 3.62996C13.11 2.98996 11.67 3.15996 10.18 4.08996L7.2 5.94996C7 6.07996 6.76 6.14996 6.52 6.14996H5.06C2.6 6.14996 1.25 7.49996 1.25 9.95996V14.04C1.25 16.5 2.6 17.85 5.06 17.85H6.52C6.76 17.85 6.99 17.92 7.2 18.05L10.18 19.91ZM2.75 9.95996C2.75 8.33996 3.44 7.64996 5.06 7.64996H6.52C7.04 7.64996 7.55 7.49996 8 7.21996L10.98 5.36996C11.97 4.74996 12.9 4.58996 13.53 4.93996C14.16 5.27996 14.52 6.14996 14.52 7.31996V16.68C14.52 17.84 14.16 18.71 13.53 19.06C12.9 19.4 11.97 19.25 10.98 18.63L8 16.77C7.55 16.5 7.04 16.35 6.52 16.35H5.06C3.44 16.35 2.75 15.66 2.75 14.04V9.95996ZM18 12.75H22C22.41 12.75 22.75 12.41 22.75 12C22.75 11.59 22.41 11.25 22 11.25H18C17.59 11.25 17.25 11.59 17.25 12C17.25 12.41 17.59 12.75 18 12.75Z" fill="#292D32"/>
</svg>
