<svg viewBox="0 0 24 24" fill="none" xmlns="http://www.w3.org/2000/svg">
<path fill-rule="evenodd" clip-rule="evenodd" d="M11.3501 19.7601C12.2201 20.3101 13.0901 20.5901 13.8801 20.5901C14.4101 20.5901 14.9001 20.4701 15.3401 20.2101C16.4501 19.5901 17.0701 18.2901 17.0701 16.5701V7.40011C17.0701 5.67011 16.4601 4.38011 15.3401 3.76011C14.2201 3.14011 12.8001 3.31011 11.3401 4.22011L8.42008 6.05011C8.22008 6.17011 7.99008 6.24011 7.76008 6.24011H6.33008C3.91008 6.24011 2.58008 7.57011 2.58008 9.9901V13.9901C2.58008 16.4101 3.91008 17.7401 6.33008 17.7401H7.77008C8.00008 17.7401 8.23008 17.8101 8.43008 17.9301L11.3501 19.7601ZM4.08008 10.0001C4.08008 8.4201 4.75008 7.75011 6.33008 7.75011H7.76008C8.28008 7.75011 8.78008 7.61011 9.22008 7.33011L12.1401 5.51011C13.1101 4.90011 14.0101 4.75011 14.6201 5.09011C15.2301 5.42011 15.5801 6.27011 15.5801 7.41011V16.6001C15.5801 17.7301 15.2301 18.5801 14.6201 18.9201C14.0101 19.2601 13.1101 19.1001 12.1401 18.5001L9.22008 16.6701C8.78008 16.3901 8.28008 16.2501 7.76008 16.2501H6.33008C4.75008 16.2501 4.08008 15.5801 4.08008 14.0001V10.0001ZM18.8804 16.5998C19.0204 16.6998 19.1704 16.7498 19.3304 16.7498C19.5604 16.7498 19.7904 16.6498 19.9304 16.4498C21.9004 13.8298 21.9004 10.1698 19.9304 7.54978C19.6804 7.21978 19.2104 7.14978 18.8804 7.39978C18.5504 7.64978 18.4804 8.11978 18.7304 8.44978C20.3004 10.5398 20.3004 13.4598 18.7304 15.5498C18.4804 15.8798 18.5504 16.3498 18.8804 16.5998Z" fill="#292D32"/>
</svg>
