<svg viewBox="0 0 24 24" fill="none" xmlns="http://www.w3.org/2000/svg">
<path fill-rule="evenodd" clip-rule="evenodd" d="M20.68 2.22891C20.98 1.92891 21.47 1.92891 21.77 2.22891C22.08 2.52891 22.08 3.00891 21.77 3.30891L3.31 21.7689C3.16 21.9189 2.97 21.9989 2.77 21.9989C2.57 21.9989 2.38 21.9189 2.22 21.7789C1.92 21.4789 1.92 20.9889 2.22 20.6889L5.16 17.7489H5C2.58 17.7489 1.25 16.4189 1.25 13.9989V9.99891C1.25 7.57891 2.58 6.24891 5 6.24891H5.5H6.43C6.66 6.24891 6.89 6.17891 7.09 6.05891L10 4.23891C11.46 3.32891 12.89 3.16891 14.01 3.78891C15.07 4.37891 15.67 5.57891 15.73 7.17891L20.68 2.22891ZM19.3784 19.0992C19.5184 19.1992 19.6684 19.2492 19.8284 19.2492C20.0584 19.2492 20.2884 19.1492 20.4284 18.9492C22.8884 15.6692 23.4284 11.2892 21.8384 7.50922C21.6784 7.12922 21.2384 6.94922 20.8584 7.10922C20.4784 7.26922 20.2984 7.70922 20.4584 8.08922C21.8384 11.3792 21.3684 15.1992 19.2284 18.0492C18.9784 18.3792 19.0484 18.8492 19.3784 19.0992ZM17.5503 16.6003C17.6903 16.7003 17.8403 16.7503 18.0003 16.7503C18.2303 16.7503 18.4503 16.6503 18.6003 16.4603C20.1703 14.3603 20.5203 11.5503 19.5003 9.13032C19.3403 8.75032 18.9003 8.57032 18.5203 8.73032C18.1403 8.89032 17.9603 9.33032 18.1203 9.71032C18.9303 11.6403 18.6603 13.8703 17.4003 15.5503C17.1503 15.8803 17.2203 16.3503 17.5503 16.6003ZM14.0405 12.9581C14.6705 12.3281 15.7505 12.7781 15.7505 13.6681V16.5981C15.7505 18.3181 15.1305 19.6081 14.0205 20.2281C13.5705 20.4781 13.0705 20.5981 12.5505 20.5981C11.7505 20.5981 10.8905 20.3281 10.0105 19.7781L9.37047 19.3781C8.83047 19.0381 8.74047 18.2781 9.19047 17.8281L14.0405 12.9581Z" fill="#292D32"/>
</svg>
