<svg viewBox="0 0 24 24" fill="none" xmlns="http://www.w3.org/2000/svg">
<path fill-rule="evenodd" clip-rule="evenodd" d="M5.5 17.75V6.25H5C2.58 6.25 1.25 7.58 1.25 10V14C1.25 16.42 2.58 17.75 5 17.75H5.5ZM21.0795 11.9702L22.5295 13.4202C22.8195 13.7202 22.8195 14.1902 22.5295 14.4802C22.3795 14.6302 22.1895 14.7002 21.9995 14.7002C21.8095 14.7002 21.6195 14.6302 21.4695 14.4802L20.0195 13.0302L18.5295 14.5202C18.3795 14.6702 18.1895 14.7402 17.9995 14.7402C17.8095 14.7402 17.6195 14.6702 17.4695 14.5202C17.1795 14.2302 17.1795 13.7502 17.4695 13.4602L18.9595 11.9702L17.5095 10.5202C17.2195 10.2302 17.2195 9.75018 17.5095 9.46018C17.7995 9.17018 18.2795 9.17018 18.5695 9.46018L20.0195 10.9102L21.4195 9.51018C21.7095 9.22018 22.1895 9.22018 22.4795 9.51018C22.7695 9.80018 22.7695 10.2802 22.4795 10.5702L21.0795 11.9702Z" fill="#292D32"/>
<path opacity="0.4" d="M15.75 7.41021V16.5902C15.75 18.3102 15.13 19.6002 14.02 20.2202C13.57 20.4702 13.07 20.5902 12.55 20.5902C11.75 20.5902 10.89 20.3202 10.01 19.7702L7.09 17.9402C6.89 17.8202 6.66 17.7502 6.43 17.7502H5.5V6.25021H6.43C6.66 6.25021 6.89 6.18021 7.09 6.06021L10.01 4.23021C11.47 3.32021 12.9 3.16021 14.02 3.78021C15.13 4.40021 15.75 5.69021 15.75 7.41021Z" fill="#292D32"/>
</svg>
