<svg viewBox="0 0 24 24" fill="none" xmlns="http://www.w3.org/2000/svg">
<path fill-rule="evenodd" clip-rule="evenodd" d="M1.46945 22.5299C1.61945 22.6799 1.80945 22.7499 1.99945 22.7499C2.18945 22.7499 2.37945 22.6799 2.52945 22.5299L22.5295 2.52994C22.8195 2.23994 22.8195 1.75994 22.5295 1.46994C22.2395 1.17994 21.7595 1.17994 21.4695 1.46994L15.737 7.20237C15.6899 5.57674 15.0848 4.36482 14.01 3.76987C12.89 3.14987 11.47 3.31987 10.01 4.22987L7.09 6.05987C6.89 6.17987 6.66 6.24987 6.43 6.24987H5C2.58 6.24987 1.25 7.57987 1.25 9.99987V13.9999C1.25 16.4199 2.58 17.7499 5 17.7499H5.18952L1.46945 21.4699C1.17945 21.7599 1.17945 22.2399 1.46945 22.5299ZM6.68952 16.2499L14.2936 8.64578C14.2591 8.56013 14.24 8.46696 14.24 8.36987V7.40987C14.24 6.26987 13.89 5.41987 13.28 5.08987C12.67 4.74987 11.77 4.89987 10.8 5.50987L7.88 7.32987C7.45 7.60987 6.94 7.74987 6.43 7.74987H5C3.42 7.74987 2.75 8.41987 2.75 9.99987V13.9999C2.75 15.5799 3.42 16.2499 5 16.2499H6.68952ZM12.5496 20.5902C11.7596 20.5902 10.8896 20.3102 10.0196 19.7602C9.6696 19.5402 9.5596 19.0802 9.7796 18.7302C9.9996 18.3802 10.4596 18.2702 10.8096 18.4902C11.7796 19.0902 12.6796 19.2502 13.2896 18.9102C13.8996 18.5702 14.2496 17.7202 14.2496 16.5902V12.9502C14.2496 12.5402 14.5896 12.2002 14.9996 12.2002C15.4096 12.2002 15.7496 12.5402 15.7496 12.9502V16.5902C15.7496 18.3102 15.1296 19.6102 14.0196 20.2302C13.5696 20.4702 13.0696 20.5902 12.5496 20.5902ZM17.5503 16.5998C17.6903 16.6998 17.8403 16.7498 18.0003 16.7498C18.2303 16.7498 18.4503 16.6498 18.6003 16.4598C20.1703 14.3598 20.5203 11.5498 19.5003 9.12983C19.3403 8.74983 18.9003 8.56983 18.5203 8.72983C18.1403 8.88983 17.9603 9.32983 18.1203 9.70983C18.9303 11.6398 18.6603 13.8698 17.4003 15.5498C17.1503 15.8798 17.2203 16.3498 17.5503 16.5998ZM19.8304 19.2502C19.6704 19.2502 19.5204 19.2002 19.3804 19.1002C19.0504 18.8502 18.9804 18.3802 19.2304 18.0502C21.3704 15.2002 21.8404 11.3802 20.4604 8.0902C20.3004 7.7102 20.4804 7.2702 20.8604 7.1102C21.2504 6.9502 21.6804 7.1302 21.8404 7.5102C23.4304 11.2902 22.8904 15.6702 20.4304 18.9502C20.2904 19.1502 20.0604 19.2502 19.8304 19.2502Z" fill="#292D32"/>
</svg>
