<svg viewBox="0 0 24 24" fill="none" xmlns="http://www.w3.org/2000/svg">
<path fill-rule="evenodd" clip-rule="evenodd" d="M16.5292 5.40016C16.8292 5.69016 16.5792 6.14016 16.1592 6.14016L7.87923 6.13016C7.39923 6.13016 7.15923 5.55016 7.49923 5.21016L9.24923 3.45016C10.7292 1.98016 13.1192 1.98016 14.5992 3.45016L16.4892 5.36016L16.5292 5.40016ZM19 12.5H21.5C21.78 12.5 22 12.72 22 13V16C22 16.28 21.78 16.5 21.5 16.5H19C17.9 16.5 17 15.6 17 14.5C17 13.4 17.9 12.5 19 12.5ZM1.98986 20.9217L1.22986 21.6817C0.919859 21.9817 0.919859 22.4717 1.21986 22.7717C1.36986 22.9217 1.56986 23.0017 1.76986 23.0017C1.96986 23.0017 2.16986 22.9217 2.32986 22.7717L3.08986 22.0117C3.68986 22.4117 4.40986 22.6417 5.17986 22.6417C7.28986 22.6417 8.99986 20.9317 8.99986 18.8217C8.99986 16.7117 7.28986 15.0117 5.17986 15.0117C3.06986 15.0117 1.35986 16.7217 1.35986 18.8317C1.35986 19.6017 1.58986 20.3217 1.98986 20.9217ZM17.0994 22C19.4994 22 21.2594 20.72 21.8694 18.66C21.9694 18.34 21.7394 18 21.3894 18H19.1994C17.5294 18 16.0094 16.87 15.6794 15.23C15.2094 12.98 16.9294 11 19.0994 11H21.3894C21.7294 11 21.9694 10.67 21.8694 10.34C21.3294 8.51 19.8694 7.28 17.8494 7.05C17.6094 7.01 17.3594 7 17.0994 7H7.09937C6.81937 7 6.54938 7.02 6.29938 7.06C3.74938 7.38 2.10938 9.28 2.10938 12V13.47C2.10938 13.87 2.55938 14.12 2.92938 13.96C3.60938 13.66 4.34938 13.5 5.10938 13.5C8.13938 13.5 10.6094 15.97 10.6094 19C10.6094 19.72 10.4194 20.51 10.1194 21.21C9.95938 21.57 10.2094 22 10.5994 22H17.0994Z" fill="#292D32"/>
</svg>
