<svg viewBox="0 0 24 24" fill="none" xmlns="http://www.w3.org/2000/svg">
<path fill-rule="evenodd" clip-rule="evenodd" d="M2.75 12C2.75 9.67807 4.04842 8.13717 6.21118 7.8499C6.26247 7.84928 6.31376 7.84436 6.36506 7.8325C6.39004 7.82749 6.41502 7.81999 6.44 7.81C6.62 7.75 6.71999 7.75 6.99997 7.75H7H17H17.71C19.7521 7.99082 21.1447 9.58633 21.2443 11.75H19C17.48 11.75 16.25 12.98 16.25 14.5C16.25 16.02 17.48 17.25 19 17.25H21.2447C21.1399 19.6874 19.4957 21.25 17 21.25H12C11.59 21.25 11.25 21.59 11.25 22C11.25 22.41 11.59 22.75 12 22.75H17C20.44 22.75 22.75 20.44 22.75 17V16.5V12.5V12C22.75 9.1371 21.0761 6.94376 18.4441 6.35846C18.254 5.52632 17.8733 4.81343 17.3298 4.27001L15.5298 2.46996C13.8898 0.829959 11.1098 0.829969 9.45984 2.47997L6.26983 5.77001L6.26973 5.77011L6.26973 5.77011C6.05902 5.98082 5.86463 6.17521 5.70998 6.41058C2.98865 6.90065 1.25 9.05729 1.25 12V13C1.25 13.41 1.59 13.75 2 13.75C2.41 13.75 2.75 13.41 2.75 13V12ZM21.25 13.25H19C18.31 13.25 17.75 13.81 17.75 14.5C17.75 15.19 18.31 15.75 19 15.75H21.25V13.25ZM7.88984 6.24999H16.8498C16.7298 5.92999 16.5398 5.61001 16.2698 5.33001L14.4698 3.53002C13.3998 2.46002 11.5998 2.46002 10.5298 3.53002L7.88984 6.24999ZM2.52997 20.4157C2.1006 19.7837 1.84961 19.0209 1.84961 18.2C1.84961 16.02 3.61961 14.25 5.79961 14.25C7.97961 14.25 9.74961 16.02 9.74961 18.2C9.74961 20.38 7.97961 22.15 5.79961 22.15C4.97859 22.15 4.21572 21.899 3.58365 21.4695C3.56687 21.4904 3.54881 21.5106 3.52945 21.53L2.52945 22.53C2.37945 22.68 2.18945 22.75 1.99945 22.75C1.80945 22.75 1.61945 22.68 1.46945 22.53C1.17945 22.24 1.17945 21.7599 1.46945 21.4699L2.46945 20.4699C2.48882 20.4506 2.50902 20.4325 2.52997 20.4157ZM5.79961 15.75C4.44961 15.75 3.34961 16.85 3.34961 18.2C3.34961 19.55 4.44961 20.65 5.79961 20.65C7.14961 20.65 8.24961 19.55 8.24961 18.2C8.24961 16.85 7.14961 15.75 5.79961 15.75Z" fill="#292D32"/>
</svg>
