<svg viewBox="0 0 24 24" fill="none" xmlns="http://www.w3.org/2000/svg">
<path fill-rule="evenodd" clip-rule="evenodd" d="M17.7495 7.04997C17.5095 7.00997 17.2595 6.99998 16.9995 6.99998H6.99945C6.71945 6.99998 6.44945 7.01998 6.18945 7.05998C6.32945 6.77998 6.52947 6.52001 6.76947 6.28001L10.0195 3.02C11.3895 1.66 13.6094 1.66 14.9794 3.02L16.7294 4.78996C17.3694 5.41996 17.7094 6.21997 17.7495 7.04997ZM22 12.5H19C17.9 12.5 17 13.4 17 14.5C17 15.6 17.9 16.5 19 16.5H22V12.5ZM2 16.36C2.73 15.53 3.8 15 5 15C7.21 15 9 16.79 9 19C9 19.75 8.78998 20.46 8.41998 21.06C8.20998 21.42 7.94 21.74 7.63 22C6.93001 22.63 6.01 23 5 23C3.54 23 2.27002 22.22 1.58002 21.06C1.21002 20.46 1 19.75 1 19C1 17.99 1.38 17.07 2 16.36ZM6.07001 20.8C6.26001 20.8 6.44998 20.73 6.59998 20.58C6.88998 20.28 6.88998 19.81 6.59998 19.52L6.07001 18.99L6.57001 18.49C6.86001 18.2 6.86001 17.72 6.57001 17.43C6.28001 17.14 5.80001 17.14 5.51001 17.43L5.01001 17.93L4.47998 17.4C4.18998 17.11 3.70998 17.11 3.41998 17.4C3.12998 17.69 3.12998 18.17 3.41998 18.46L3.95001 18.99L3.40002 19.54C3.11002 19.83 3.11002 20.31 3.40002 20.6C3.55002 20.75 3.73999 20.82 3.92999 20.82C4.11999 20.82 4.31002 20.75 4.46002 20.6L5.01001 20.05L5.53998 20.58C5.68998 20.73 5.88001 20.8 6.07001 20.8Z" fill="#292D32"/>
<path opacity="0.4" d="M22 12V17C22 20 20 22 17 22H7.63C7.94 21.74 8.20998 21.42 8.41998 21.06C8.78998 20.46 9 19.75 9 19C9 16.79 7.21 15 5 15C3.8 15 2.73 15.53 2 16.36V12C2 9.28 3.64 7.38 6.19 7.06C6.45 7.02 6.72 7 7 7H17C17.26 7 17.51 7.00999 17.75 7.04999C20.33 7.34999 22 9.26 22 12Z" fill="#292D32"/>
</svg>
