<svg viewBox="0 0 24 24" fill="none" xmlns="http://www.w3.org/2000/svg">
<path fill-rule="evenodd" clip-rule="evenodd" d="M6.40731 10.1297C6.11285 10.1802 5.82587 10.2626 5.54481 10.3771C5.5302 10.3851 5.51534 10.3927 5.50023 10.3998C3.98023 11.0598 3.00023 12.5498 3.00023 14.1998C2.99934 14.2365 2.99587 14.2727 2.99 14.3082V16.1498C2.99 16.3598 3.01 16.5698 3.03 16.7698C3.22 19.6198 4.62 21.0198 7.43 21.2098C7.68 21.2398 7.88 21.2598 8.09 21.2598H15.89C19.19 21.2598 20.81 19.8098 20.97 16.7098C20.98 16.5298 20.99 16.3498 20.99 16.1498V14.1998C20.99 12.3898 19.78 10.7698 18.06 10.2398C17.7168 10.1378 17.3392 10.0788 16.9511 10.0708C16.9242 10.0703 16.8972 10.07 16.8702 10.07H9.97023L9.95567 10.0699H7.1197C6.87705 10.0699 6.63985 10.0898 6.40731 10.1297ZM1.49023 14.1998C1.49023 14.2405 1.49358 14.2804 1.5 14.3194V16.1498C1.5 16.4198 1.52 16.6898 1.55 16.9098C1.79 20.4598 3.79 22.4598 7.3 22.6998C7.56 22.7298 7.82 22.7498 8.1 22.7498H15.9C20 22.7498 22.28 20.6898 22.5 16.7798C22.51 16.5798 22.52 16.3698 22.52 16.1498V14.1998C22.52 14.0842 22.5164 13.9691 22.5092 13.8547V11.2698C22.5092 8.90218 21.2587 6.73837 19.2213 5.56285C19.1722 5.45815 19.1176 5.35865 19.0602 5.27002C18.9702 5.12002 18.8702 4.97002 18.7502 4.83002C18.1502 4.11002 17.2302 3.51002 15.8502 2.94002L13.4902 1.95002C13.4627 1.93854 13.4356 1.92706 13.4089 1.9157C13.332 1.88305 13.2575 1.8514 13.1796 1.82362L13.1697 1.81988C9.8297 0.539877 7.9397 1.36988 6.4597 4.77988C6.44117 4.81075 6.42646 4.84543 6.40851 4.88863C3.53294 5.63405 1.49023 8.25498 1.49023 11.2698V14.1998ZM20.9068 10.2676C20.435 9.78261 19.8758 9.37996 19.2514 9.0891C19.4116 8.59113 19.5139 8.13321 19.5601 7.71075C20.2467 8.4077 20.7153 9.29284 20.9068 10.2676ZM17.9159 6.31077C17.8736 6.20391 17.8401 6.13379 17.8002 6.07002C17.7862 6.04804 17.773 6.02686 17.7603 6.00631L17.7602 6.00623L17.76 6.00594C17.7089 5.92384 17.6641 5.85193 17.6002 5.78002C17.1702 5.26002 16.4102 4.78002 15.2802 4.32002L13.3008 3.49028L11.1121 8.56982H16.89C17.2075 8.56982 17.5188 8.59465 17.8205 8.6443C18.1025 7.77787 18.1547 7.11014 17.9992 6.56978C17.9865 6.51297 17.9739 6.47609 17.9638 6.44655C17.9579 6.42929 17.9529 6.41453 17.9492 6.39978C17.9361 6.37056 17.925 6.34083 17.9159 6.31077ZM4.62049 9.15539L5.59851 6.82077C4.31983 7.54069 3.39073 8.79962 3.10053 10.2683C3.535 9.82212 4.04647 9.44397 4.62049 9.15539ZM7.56011 6.01119L6.47659 8.59925C6.68678 8.58033 6.88802 8.57054 7.0978 8.56991L7.1197 8.56988H9.4697L9.46972 8.56982L11.8797 2.96988C11.4097 2.81988 10.9897 2.74988 10.6097 2.74988C9.3697 2.74988 8.6097 3.55988 7.8197 5.39988C7.8147 5.41488 7.8072 5.42988 7.7997 5.44488C7.7922 5.45988 7.7847 5.47488 7.7797 5.48988L7.56011 6.01119ZM12 18.75C11.59 18.75 11.25 18.41 11.25 18V16.1899H9.5C9.09 16.1899 8.75 15.8499 8.75 15.4399C8.75 15.0299 9.09 14.6899 9.5 14.6899H11.25V13C11.25 12.59 11.59 12.25 12 12.25C12.41 12.25 12.75 12.59 12.75 13V14.6899H14.5C14.91 14.6899 15.25 15.0299 15.25 15.4399C15.25 15.8499 14.91 16.1899 14.5 16.1899H12.75V18C12.75 18.41 12.41 18.75 12 18.75Z" fill="#292D32"/>
</svg>
