<svg viewBox="0 0 24 24" fill="none" xmlns="http://www.w3.org/2000/svg">
<path fill-rule="evenodd" clip-rule="evenodd" d="M6.22647 7.80995C4.07024 8.11612 2.75049 9.70613 2.75049 12V14.82C3.23544 14.5561 3.77125 14.3787 4.32527 14.2987C4.54745 14.2665 4.77289 14.25 5 14.25H5.00025H5.00049C7.62049 14.25 9.75049 16.38 9.75049 19C9.75049 19.79 9.55048 20.57 9.18048 21.25H17.0005C19.4962 21.25 21.1404 19.6874 21.2452 17.25H19C17.48 17.25 16.25 16.02 16.25 14.5C16.25 12.98 17.48 11.75 19 11.75H21.2452C21.1528 9.59612 19.8615 8.10975 17.8059 7.80911C17.7474 7.81342 17.6884 7.81055 17.63 7.79994C17.43 7.76994 17.22 7.75996 17 7.75996H7.00003C6.76003 7.75996 6.53002 7.77995 6.30002 7.80995H6.22647ZM7.90036 22.75H17.0005C20.4405 22.75 22.7505 20.44 22.7305 17V16.6685C22.7432 16.6143 22.75 16.5578 22.75 16.5C22.75 16.4422 22.7432 16.3857 22.7305 16.3315V12.6685C22.7432 12.6143 22.75 12.5578 22.75 12.5C22.75 12.4422 22.7432 12.3857 22.7305 12.3315V12C22.7305 9.09578 21.0474 6.95024 18.4224 6.40215C18.2576 5.59641 17.8514 4.85336 17.26 4.26997L15.51 2.48994C13.85 0.839941 11.15 0.839941 9.49002 2.48994L6.24002 5.74995C6.03598 5.9474 5.86228 6.15784 5.71891 6.37558C2.97616 6.87646 1.23047 9.04775 1.23047 12V16.1238C0.59413 16.9509 0.25 17.959 0.25 19C0.25 19.87 0.490002 20.72 0.940002 21.44C1.78 22.87 3.34 23.75 5 23.75C6.0741 23.75 7.09761 23.396 7.90036 22.75ZM7.21054 21.3694C7.18741 21.3902 7.16406 21.4104 7.1405 21.43C7.12601 21.4421 7.11207 21.4547 7.09868 21.4677C6.52278 21.9703 5.77586 22.25 5 22.25C3.87 22.25 2.79997 21.65 2.21997 20.67C1.90997 20.17 1.75 19.59 1.75 19C1.75 18.22 2.04 17.46 2.56 16.86C2.58905 16.8267 2.6187 16.7941 2.64891 16.7622C3.26274 16.1197 4.10863 15.76 4.99048 15.76C6.78048 15.76 8.24048 17.22 8.24048 19.01C8.24048 19.6 8.0805 20.18 7.7605 20.69C7.66311 20.8604 7.54349 21.0235 7.41066 21.17C7.34751 21.2392 7.28067 21.3058 7.21054 21.3694ZM19 15.75H21.2505V13.25H19C18.31 13.25 17.75 13.81 17.75 14.5C17.75 15.19 18.31 15.75 19 15.75ZM16.82 6.24995H7.86001L10.54 3.53993C11.62 2.47993 13.37 2.47993 14.44 3.53993L16.2 5.31996C16.48 5.59996 16.69 5.90995 16.82 6.24995ZM6.07041 20.7901C5.88041 20.7901 5.69038 20.7201 5.54038 20.5701L5.01563 20.0454L4.46109 20.5999C4.31109 20.7499 4.12106 20.8199 3.93106 20.8199C3.74106 20.8199 3.55109 20.7499 3.40109 20.5999C3.11109 20.3099 3.11109 19.8299 3.40109 19.5399L3.95563 18.9854L3.43039 18.4601C3.14039 18.1701 3.14039 17.6901 3.43039 17.4001C3.72039 17.1101 4.20039 17.1101 4.49039 17.4001L5.01563 17.9254L5.51108 17.4299C5.80108 17.1399 6.28108 17.1399 6.57108 17.4299C6.86108 17.7199 6.86108 18.1999 6.57108 18.4899L6.07562 18.9854L6.60037 19.5101C6.89037 19.8001 6.89037 20.2801 6.60037 20.5701C6.45037 20.7201 6.26041 20.7901 6.07041 20.7901Z" fill="#292D32"/>
</svg>
