<svg viewBox="0 0 24 24" fill="none" xmlns="http://www.w3.org/2000/svg">
<path fill-rule="evenodd" clip-rule="evenodd" d="M2.75 12C2.75 9.70529 4.07073 8.11495 6.22837 7.80961C6.25469 7.80891 6.27954 7.80673 6.29984 7.80001L6.3 7.79999C6.53 7.76999 6.76 7.75 7 7.75H17L17.0273 7.75C17.2374 7.75081 17.4383 7.7612 17.63 7.78996C17.669 7.79705 17.7084 7.80068 17.7476 7.80103C19.8368 8.08206 21.1515 9.57599 21.2447 11.75H19C17.48 11.75 16.25 12.98 16.25 14.5C16.25 16.02 17.48 17.25 19 17.25H21.2447C21.1399 19.6874 19.4957 21.25 17 21.25H7C4.42 21.25 2.75 19.58 2.75 17V12ZM21.25 15.75H19C18.31 15.75 17.75 15.19 17.75 14.5C17.75 13.81 18.31 13.25 19 13.25H21.25V15.75ZM22.75 12.5V12C22.75 9.08906 21.0592 6.94031 18.4237 6.39837C18.2597 5.59023 17.8529 4.84485 17.26 4.25996L15.51 2.48994C13.85 0.839941 11.15 0.839941 9.49005 2.48994L6.24005 5.74995C6.03474 5.94863 5.86014 6.16047 5.71624 6.37966C2.98625 6.88817 1.25 9.05571 1.25 12V17C1.25 20.44 3.56 22.75 7 22.75H17C20.44 22.75 22.75 20.44 22.75 17V16.5V12.5ZM7.86005 6.24995H16.82C16.69 5.90995 16.48 5.59996 16.2 5.31996L14.44 3.53996C13.37 2.47996 11.62 2.47996 10.54 3.53996L7.86005 6.24995Z" fill="#292D32"/>
</svg>
