<svg viewBox="0 0 24 24" fill="none" xmlns="http://www.w3.org/2000/svg">
<path fill-rule="evenodd" clip-rule="evenodd" d="M16 20.5C18.8 20.5 20.73 18.75 20.97 16.08C21 15.79 20.76 15.55 20.47 15.55H19.04C17.14 15.55 15.54 14.12 15.38 12.3C15.29 11.26 15.67 10.22 16.43 9.48C17.07 8.82 17.96 8.45 18.92 8.45H20.47C20.76 8.45 21 8.21 20.97 7.92C20.76 5.5 19.14 3.83 16.75 3.55C16.51 3.51 16.26 3.5 16 3.5H7C6.72 3.5 6.45 3.52 6.19 3.56C3.64 3.88 2 5.78 2 8.5V15.5C2 18.26 4.24 20.5 7 20.5H16ZM22.0002 13.0292V10.9692C22.0002 10.4192 21.5602 9.96922 21.0002 9.94922H18.9202C18.3602 9.94922 17.8502 10.1692 17.4802 10.5492C17.0602 10.9592 16.8202 11.5492 16.8802 12.1792C16.9702 13.2592 17.9602 14.0492 19.0402 14.0492H21.0002C21.5602 14.0292 22.0002 13.5792 22.0002 13.0292Z" fill="#292D32"/>
</svg>
