<svg viewBox="0 0 24 24" fill="none" xmlns="http://www.w3.org/2000/svg">
<path fill-rule="evenodd" clip-rule="evenodd" d="M17.26 4.26997C17.8514 4.85336 18.2576 5.59641 18.4224 6.40215C21.0474 6.95025 22.7305 9.09579 22.7305 12V12.3315C22.7432 12.3858 22.75 12.4422 22.75 12.5C22.75 12.5578 22.7432 12.6142 22.7305 12.6685V16.3315C22.7432 16.3858 22.75 16.4422 22.75 16.5C22.75 16.5578 22.7432 16.6142 22.7305 16.6685V17C22.7505 20.44 20.4405 22.75 17.0005 22.75H7.91185C7.09223 23.3866 6.06676 23.75 5 23.75C3.34 23.75 1.78 22.87 0.939999 21.44C0.489999 20.72 0.25 19.87 0.25 19C0.25 17.9144 0.615716 16.9129 1.23047 16.1122V12C1.23047 9.04774 2.97614 6.87644 5.71892 6.37557C5.86231 6.15784 6.03602 5.9474 6.24005 5.74995L9.49005 2.48994C11.15 0.839941 13.85 0.839941 15.51 2.48994L17.26 4.26997ZM21.2505 15.75V13.25H19C18.31 13.25 17.75 13.81 17.75 14.5C17.75 15.19 18.31 15.75 19 15.75H21.2505ZM21.2452 11.75H19C17.48 11.75 16.25 12.98 16.25 14.5C16.25 16.02 17.48 17.25 19 17.25H21.2451C21.1403 19.6874 19.4962 21.25 17.0005 21.25H9.18047C9.55047 20.57 9.75047 19.79 9.75047 19C9.75047 16.4003 7.65337 14.2831 5.06132 14.2504C5.04106 14.2501 5.02078 14.25 5.00047 14.25H5C4.18656 14.25 3.42036 14.4553 2.75047 14.8169V12C2.75047 9.70613 4.07023 8.11612 6.22647 7.80995H6.30005C6.53005 7.77995 6.76005 7.75996 7.00005 7.75996H17C17.22 7.75996 17.43 7.76994 17.63 7.79994C17.6884 7.81055 17.7474 7.81342 17.8059 7.80911C19.8615 8.10975 21.1528 9.59612 21.2452 11.75ZM2.55047 16.87C2.54378 16.8773 2.53697 16.8845 2.53004 16.8915C2.04406 17.4598 1.75 18.1967 1.75 19C1.75 19.59 1.91 20.17 2.22 20.67C2.81 21.67 3.85 22.25 5 22.25C5.75971 22.25 6.47142 21.9925 7.0371 21.5352C7.06759 21.4972 7.10211 21.462 7.14047 21.43C7.38047 21.23 7.60047 20.97 7.76047 20.69C8.08047 20.18 8.24047 19.6 8.24047 19.01C8.24047 17.22 6.78047 15.76 4.99047 15.76C4.06047 15.76 3.17047 16.16 2.55047 16.87ZM16.82 6.24995H7.86005L10.54 3.53993C11.62 2.47993 13.37 2.47993 14.44 3.53993L16.2 5.31996C16.48 5.59996 16.69 5.90995 16.82 6.24995ZM4.42891 20.7401C4.23891 20.7401 4.04891 20.6701 3.89891 20.5201L2.90891 19.5301C2.61891 19.2401 2.61891 18.76 2.90891 18.47C3.19891 18.18 3.67891 18.18 3.96891 18.47L4.44891 18.9501L6.04891 17.47C6.34891 17.19 6.82891 17.2101 7.10891 17.5101C7.38891 17.8101 7.36891 18.2901 7.06891 18.5701L4.9389 20.54C4.78891 20.67 4.60891 20.7401 4.42891 20.7401Z" fill="#292D32"/>
</svg>
