<svg viewBox="0 0 24 24" fill="none" xmlns="http://www.w3.org/2000/svg">
<path fill-rule="evenodd" clip-rule="evenodd" d="M2.75 11.1498V10.1499C2.75 8.3599 4.21 6.8999 6 6.8999H16C17.79 6.8999 19.25 8.3599 19.25 10.1499V10.8499H18.92C18.895 10.8499 18.87 10.8502 18.8451 10.8508C18.1191 10.867 17.4355 11.1551 16.9499 11.6601C16.3499 12.2501 16.0499 13.0601 16.1299 13.8901C16.1634 14.2925 16.2876 14.6699 16.482 15.0049C16.7141 15.4101 17.0483 15.7491 17.4494 15.9967C17.9099 16.2837 18.4578 16.4501 19.0399 16.4501H19.25V17.1499C19.25 18.9399 17.79 20.3999 16 20.3999H6C4.21 20.3999 2.75 18.9399 2.75 17.1499V11.1498ZM20.75 16.4501V17.1399C20.75 19.7699 18.62 21.8999 16 21.8999H6C3.38 21.8999 1.25 19.7699 1.25 17.1499V11.1498V10.1499V6.52985C1.25 4.07985 3.24 2.08984 5.69 2.08984H11.31C13.5977 2.08984 15.3307 3.44475 15.6838 5.3999H16C18.62 5.3999 20.75 7.5299 20.75 10.1499V10.8501H20.9599C21.9399 10.8501 22.7399 11.6401 22.7399 12.6201V14.6801C22.7499 15.6601 21.9499 16.4501 20.9699 16.4501H20.75ZM20.1226 14.9501H20.9699C21.1199 14.9501 21.2499 14.8301 21.2499 14.6801V12.6201C21.2499 12.4701 21.1199 12.3501 20.9699 12.3501H18.9199C18.5699 12.3501 18.2499 12.4801 18.0199 12.7201C18.0182 12.7218 18.0165 12.7234 18.0147 12.7251L18.01 12.7299C17.68 13.0599 17.55 13.5198 17.67 13.9698C17.82 14.5298 18.41 14.9399 19.07 14.9399H20C20.0417 14.9399 20.0826 14.9434 20.1226 14.9501ZM2.75 6.68821V6.52985C2.75 4.90985 4.07 3.58984 5.69 3.58984H11.31C12.5014 3.58984 13.7785 4.16102 14.1458 5.3999H6C4.74375 5.3999 3.60015 5.8896 2.75 6.68821ZM7 11.8999H13C13.41 11.8999 13.75 11.5599 13.75 11.1499C13.75 10.7399 13.41 10.3999 13 10.3999H7C6.59 10.3999 6.25 10.7399 6.25 11.1499C6.25 11.5599 6.59 11.8999 7 11.8999Z" fill="#292D32"/>
</svg>
