<svg viewBox="0 0 24 24" fill="none" xmlns="http://www.w3.org/2000/svg">
<path fill-rule="evenodd" clip-rule="evenodd" d="M16.5292 5.40016C16.8292 5.69016 16.5792 6.14016 16.1592 6.14016L7.87923 6.13016C7.39923 6.13016 7.15923 5.55016 7.49923 5.21016L9.24923 3.45016C10.7292 1.98016 13.1192 1.98016 14.5992 3.45016L16.4892 5.36016L16.5292 5.40016ZM19 12.5H21.5C21.78 12.5 22 12.72 22 13V16C22 16.28 21.78 16.5 21.5 16.5H19C17.9 16.5 17 15.6 17 14.5C17 13.4 17.9 12.5 19 12.5ZM1 19C1 16.79 2.79 15 5 15C7.21 15 9 16.79 9 19C9 19.75 8.79 20.46 8.42 21.06C7.73 22.22 6.46 23 5 23C3.54 23 2.27 22.22 1.58 21.06C1.21 20.46 1 19.75 1 19ZM5.75 19.73H6.49C6.91 19.73 7.24 19.39 7.24 18.98C7.24 18.57 6.9 18.23 6.49 18.23H5.75V17.52C5.75 17.11 5.41 16.77 5 16.77C4.59 16.77 4.25 17.11 4.25 17.52V18.23H3.51C3.1 18.23 2.76 18.57 2.76 18.98C2.76 19.39 3.1 19.73 3.51 19.73H4.25V20.51C4.25 20.92 4.59 21.26 5 21.26C5.41 21.26 5.75 20.92 5.75 20.51V19.73ZM17.0994 22C19.4994 22 21.2594 20.72 21.8694 18.66C21.9694 18.34 21.7394 18 21.3894 18H19.1994C17.5294 18 16.0094 16.87 15.6794 15.23C15.2094 12.98 16.9294 11 19.0994 11H21.3894C21.7294 11 21.9694 10.67 21.8694 10.34C21.3294 8.51 19.8694 7.28 17.8494 7.05C17.6094 7.01 17.3594 7 17.0994 7H7.09937C6.81937 7 6.54938 7.02 6.29938 7.06C3.74938 7.38 2.10938 9.28 2.10938 12V13.47C2.10938 13.87 2.55938 14.12 2.92938 13.96C3.60938 13.66 4.34938 13.5 5.10938 13.5C8.13938 13.5 10.6094 15.97 10.6094 19C10.6094 19.72 10.4194 20.51 10.1194 21.21C9.95938 21.57 10.2094 22 10.5994 22H17.0994Z" fill="#292D32"/>
</svg>
