<svg viewBox="0 0 24 24" fill="none" xmlns="http://www.w3.org/2000/svg">
<path fill-rule="evenodd" clip-rule="evenodd" d="M11.9392 2.21178L9.52922 7.82178H7.11922C6.71922 7.82178 6.32922 7.85178 5.94922 7.93178L6.94922 5.53178L6.98922 5.44178L7.04922 5.28178C7.05817 5.26089 7.06623 5.24089 7.07394 5.22179C7.09205 5.17686 7.10817 5.13686 7.12922 5.10178C8.28922 2.41178 9.58922 1.57178 11.9392 2.21178ZM18.7311 8.08953L18.7111 8.07953C18.1111 7.90953 17.5011 7.81953 16.8811 7.81953H10.6211L12.8711 2.58953L12.9011 2.51953C12.9632 2.54169 13.0272 2.56779 13.0923 2.59433L13.0923 2.59433C13.1741 2.62766 13.2576 2.6617 13.3411 2.68953L15.5511 3.61953C16.7811 4.12953 17.6411 4.65953 18.1711 5.29953C18.2611 5.41953 18.3411 5.52953 18.4211 5.65953C18.5111 5.79953 18.5811 5.93953 18.6211 6.08953C18.6611 6.17953 18.6911 6.25953 18.7111 6.34953C18.8611 6.85953 18.8711 7.43953 18.7311 8.08953ZM16.8783 9.32031C17.3683 9.32031 17.8383 9.39031 18.2883 9.52031C20.2883 10.1303 21.7583 11.9903 21.7583 14.2003V16.1503C21.7583 16.3503 21.7483 16.5503 21.7383 16.7403C21.5483 20.2403 19.5983 22.0003 15.8983 22.0003H8.09828C7.84828 22.0003 7.61828 21.9803 7.38828 21.9503C4.20828 21.7403 2.50828 20.0403 2.28828 16.8603C2.25828 16.6203 2.23828 16.3903 2.23828 16.1503V14.2003C2.23828 12.1903 3.45828 10.4603 5.19828 9.71031C5.79828 9.45031 6.43828 9.32031 7.11828 9.32031H16.8783ZM12.7483 16.1903H14.4983C14.9083 16.1903 15.2483 15.8603 15.2483 15.4403C15.2483 15.0303 14.9083 14.6903 14.4983 14.6903H12.7483V13.0003C12.7483 12.5903 12.4083 12.2503 11.9983 12.2503C11.5883 12.2503 11.2483 12.5903 11.2483 13.0003V14.6903H9.49828C9.08828 14.6903 8.74828 15.0303 8.74828 15.4403C8.74828 15.8603 9.08828 16.1903 9.49828 16.1903H11.2483V18.0003C11.2483 18.4103 11.5883 18.7503 11.9983 18.7503C12.4083 18.7503 12.7483 18.4103 12.7483 18.0003V16.1903Z" fill="#292D32"/>
</svg>
