<svg viewBox="0 0 24 24" fill="none" xmlns="http://www.w3.org/2000/svg">
<path fill-rule="evenodd" clip-rule="evenodd" d="M4.62049 9.15539C4.04647 9.44397 3.535 9.82213 3.10052 10.2683C3.39072 8.79962 4.31983 7.54069 5.59851 6.82077L4.62049 9.15539ZM6.40851 4.88863C3.53294 5.63405 1.49023 8.25498 1.49023 11.2698V14.1998C1.49023 14.2405 1.49358 14.2804 1.5 14.3194V16.1498C1.5 16.4198 1.52 16.6898 1.55 16.9098C1.79 20.4598 3.79 22.4698 7.3 22.6998C7.56 22.7298 7.82 22.7498 8.1 22.7498H15.9C20 22.7498 22.28 20.6898 22.5 16.7798C22.51 16.5798 22.52 16.3698 22.52 16.1498V14.1998C22.52 14.0842 22.5164 13.9691 22.5092 13.8547V11.2698C22.5092 8.90628 21.263 6.74587 19.2319 5.56897C19.1826 5.46642 19.1278 5.36922 19.0702 5.28024C18.9702 5.12024 18.8702 4.97024 18.7502 4.83024C18.1502 4.11024 17.2302 3.51024 15.8502 2.94024L13.4902 1.95024C13.4627 1.93875 13.4356 1.92727 13.4089 1.91591L13.4089 1.9159C13.3341 1.88415 13.2616 1.85335 13.186 1.82613L13.1697 1.81988C9.8297 0.539877 7.9397 1.36988 6.4597 4.77988C6.44117 4.81075 6.42646 4.84543 6.40851 4.88863ZM6.47659 8.59925L7.56011 6.01119L7.7797 5.48988C7.7847 5.47488 7.7922 5.45988 7.7997 5.44488C7.8072 5.42988 7.8147 5.41488 7.8197 5.39988C8.6097 3.55988 9.3697 2.74988 10.6097 2.74988C10.9897 2.74988 11.4097 2.81988 11.8797 2.96988L9.46972 8.56982H7.13M17.9162 6.31175C17.9252 6.34148 17.9362 6.37087 17.9492 6.39978C17.9529 6.41453 17.9579 6.42929 17.9638 6.44655C17.9739 6.47609 17.9865 6.51297 17.9992 6.56978C18.1547 7.11014 18.1025 7.77786 17.8205 8.6443C17.5188 8.59465 17.2075 8.56982 16.89 8.56982H11.1121L13.3008 3.49046L15.2702 4.31024C16.4102 4.78024 17.1702 5.26024 17.6002 5.78024C17.6641 5.85214 17.7089 5.92405 17.76 6.00616L17.7602 6.00645C17.773 6.02702 17.7862 6.04823 17.8002 6.07024C17.8402 6.13416 17.8737 6.20446 17.9162 6.31175ZM7.09862 8.56991C6.88854 8.57052 6.68706 8.5803 6.47659 8.59925ZM19.2604 9.09328C19.4205 8.59707 19.523 8.14139 19.5695 7.72032C20.251 8.41579 20.7162 9.29729 20.9068 10.2676C20.4372 9.78493 19.8812 9.38381 19.2604 9.09328ZM6.40723 10.1297C6.6398 10.0898 6.87703 10.0699 7.1197 10.0699H9.94741C9.955 10.0701 9.96261 10.0702 9.97023 10.0702H16.8702C16.9278 10.0702 16.9849 10.0714 17.0417 10.0736C17.3957 10.0883 17.7352 10.1458 18.06 10.2398C19.78 10.7698 20.99 12.3898 20.99 14.1998V16.1498C20.99 16.3498 20.98 16.5298 20.97 16.7098C20.81 19.8098 19.19 21.2598 15.89 21.2598H8.09C7.88 21.2598 7.68 21.2398 7.43 21.2098C4.62 21.0198 3.22 19.6198 3.03 16.7698C3.01 16.5698 2.99 16.3598 2.99 16.1498V14.3082C2.99587 14.2727 2.99934 14.2365 3.00023 14.1998C3.00023 12.5498 3.98023 11.0598 5.50023 10.3998C5.51534 10.3927 5.5302 10.3851 5.54481 10.3771C5.82585 10.2627 6.1128 10.1802 6.40723 10.1297Z" fill="#292D32"/>
</svg>
