<svg viewBox="0 0 24 24" fill="none" xmlns="http://www.w3.org/2000/svg">
<path fill-rule="evenodd" clip-rule="evenodd" d="M16.9995 7.00001C17.2595 7.00001 17.5095 7.01 17.7495 7.05C17.7095 6.22 17.3695 5.42002 16.7295 4.79002L14.9795 3.02C13.6095 1.66 11.3895 1.66 10.0195 3.02L6.76945 6.28001C6.52945 6.52001 6.32945 6.78001 6.18945 7.06001C6.44945 7.02001 6.71945 7.00001 6.99945 7.00001H16.9995ZM19 12.5H22V16.5H19C17.9 16.5 17 15.6 17 14.5C17 13.4 17.9 12.5 19 12.5Z" fill="#292D32"/>
<path opacity="0.4" d="M22 12V17C22 20 20 22 17 22H7C4 22 2 20 2 17V12C2 9.28 3.64 7.38 6.19 7.06C6.45 7.02 6.72 7 7 7H17C17.26 7 17.51 7.00999 17.75 7.04999C20.33 7.34999 22 9.26 22 12Z" fill="#292D32"/>
</svg>
