<svg viewBox="0 0 24 24" fill="none" xmlns="http://www.w3.org/2000/svg">
<path fill-rule="evenodd" clip-rule="evenodd" d="M7 21.25H16C19.44 21.25 21.75 18.94 21.75 15.49V14.6244C22.3437 14.3378 22.7499 13.7321 22.7499 13.0302V10.9702C22.7499 10.2728 22.3489 9.67047 21.75 9.38157V8.5C21.75 5.39 19.82 3.15 16.87 2.81C16.55 2.76 16.24 2.75 16 2.75H7C6.68 2.75 6.36998 2.78001 6.09998 2.82001C3.14998 3.19001 1.25 5.42 1.25 8.5V15.5C1.25 18.94 3.56 21.25 7 21.25ZM18.0025 11.0873C18.005 11.0849 18.0075 11.0824 18.01 11.08L18.017 11.073C18.018 11.0721 18.019 11.0711 18.0199 11.0702C18.2499 10.8302 18.5699 10.7002 18.9199 10.7002H20.9699C21.1299 10.7102 21.2499 10.8202 21.2499 10.9702V13.0302C21.2499 13.1575 21.1635 13.2632 21.0578 13.2922C21.0387 13.2907 21.0194 13.29 21 13.29H19.04C18.32 13.29 17.68 12.76 17.63 12.1C17.6118 11.8696 17.6525 11.6428 17.7497 11.4398C17.8121 11.3122 17.8969 11.193 18.0025 11.0873ZM18.8624 9.20058C18.8816 9.2002 18.9008 9.20001 18.92 9.20001H20.25V8.5C20.25 6.16 18.88 4.54998 16.66 4.28998C16.4201 4.25 16.2102 4.25 16.0003 4.25H16H7C6.76 4.25 6.52999 4.26999 6.29999 4.29999C4.09999 4.57999 2.75 6.18 2.75 8.5V15.5C2.75 18.08 4.42 19.75 7 19.75H16C18.58 19.75 20.25 18.08 20.25 15.5V14.8002H19.0399C17.5299 14.8002 16.2499 13.6802 16.1299 12.2402C16.0499 11.4102 16.3499 10.6002 16.9499 10.0102C17.4394 9.50117 18.13 9.21254 18.8624 9.20058ZM13 9.75H7C6.59 9.75 6.25 9.41 6.25 9C6.25 8.59 6.59 8.25 7 8.25H13C13.41 8.25 13.75 8.59 13.75 9C13.75 9.41 13.41 9.75 13 9.75Z" fill="#292D32"/>
</svg>
