<svg viewBox="0 0 24 24" fill="none" xmlns="http://www.w3.org/2000/svg">
<path fill-rule="evenodd" clip-rule="evenodd" d="M11.25 13C11.25 13.41 11.59 13.75 12 13.75C12.41 13.75 12.75 13.41 12.75 13V7.75C12.75 7.34 12.41 7 12 7C11.59 7 11.25 7.34 11.25 7.75V13ZM11.62 17.1698C11.74 17.2198 11.87 17.2499 12 17.2499C12.27 17.2499 12.52 17.1499 12.71 16.9599C12.8 16.8599 12.87 16.7499 12.92 16.6299C12.97 16.5099 13 16.3799 13 16.2499C13 16.1199 12.97 15.9899 12.92 15.8699C12.87 15.7399 12.8 15.6398 12.71 15.5398C12.43 15.2598 11.99 15.1699 11.62 15.3299C11.49 15.3799 11.39 15.4498 11.29 15.5398C11.1 15.7298 11 15.9899 11 16.2499C11 16.3799 11.02 16.5099 11.07 16.6299C11.13 16.7499 11.2 16.8599 11.29 16.9599C11.39 17.0499 11.49 17.1198 11.62 17.1698Z" fill="#292D32"/>
<path opacity="0.4" d="M21.0802 8.58003V15.42C21.0802 16.54 20.4802 17.58 19.5102 18.15L13.5702 21.58C12.6002 22.14 11.4002 22.14 10.4202 21.58L4.48016 18.15C3.51016 17.59 2.91016 16.55 2.91016 15.42V8.58003C2.91016 7.46003 3.51016 6.41999 4.48016 5.84999L10.4202 2.42C11.3902 1.86 12.5902 1.86 13.5702 2.42L19.5102 5.84999C20.4802 6.41999 21.0802 7.45003 21.0802 8.58003Z" fill="#292D32"/>
</svg>
