<svg viewBox="0 0 24 24" fill="none" xmlns="http://www.w3.org/2000/svg">
<path fill-rule="evenodd" clip-rule="evenodd" d="M10.0502 22.2301C10.6502 22.5801 11.3302 22.7501 12.0002 22.7501C12.6702 22.7501 13.3502 22.5801 13.9502 22.2301L19.8902 18.8001C21.0902 18.1001 21.8402 16.8101 21.8402 15.4201V8.58011C21.8402 7.19011 21.0902 5.90011 19.8902 5.20011L13.9502 1.77012C12.7402 1.07012 11.2502 1.07012 10.0502 1.77012L4.11017 5.20011C2.91017 5.90011 2.16016 7.19011 2.16016 8.58011V15.4201C2.16016 16.8101 2.91017 18.1001 4.11017 18.8001L10.0502 22.2301ZM10.8002 3.07011C11.1702 2.86011 11.5902 2.7501 12.0002 2.7501C12.4102 2.7501 12.8302 2.86011 13.1902 3.07011L19.1302 6.5001C19.8702 6.9301 20.3302 7.73011 20.3302 8.58011V15.4201C20.3302 16.2801 19.8702 17.0701 19.1302 17.5001L13.1902 20.9301C12.4602 21.3601 11.5402 21.3601 10.8002 20.9301L4.86017 17.5001C4.12017 17.0701 3.66016 16.2701 3.66016 15.4201V8.58011C3.66016 7.72011 4.12017 6.9301 4.86017 6.5001L10.8002 3.07011ZM12 13.75C11.59 13.75 11.25 13.41 11.25 13V7.75C11.25 7.34 11.59 7 12 7C12.41 7 12.75 7.34 12.75 7.75V13C12.75 13.41 12.41 13.75 12 13.75ZM12 17.25C11.73 17.25 11.48 17.15 11.29 16.96C11.2 16.86 11.13 16.75 11.07 16.63C11.02 16.51 11 16.38 11 16.25C11 15.99 11.11 15.73 11.29 15.54C11.66 15.17 12.34 15.17 12.71 15.54C12.89 15.73 13 15.99 13 16.25C13 16.38 12.97 16.51 12.92 16.63C12.87 16.75 12.8 16.86 12.71 16.96C12.52 17.15 12.27 17.25 12 17.25Z" fill="#292D32"/>
</svg>
