<svg viewBox="0 0 25 24" fill="none" xmlns="http://www.w3.org/2000/svg">
<path fill-rule="evenodd" clip-rule="evenodd" d="M1.97206 22.5278C2.11206 22.6678 2.30209 22.7478 2.50209 22.7478C2.57209 22.7478 2.6321 22.7378 2.7021 22.7178L7.34212 21.4278C8.92212 22.2878 10.6921 22.7378 12.5021 22.7378C18.4321 22.7378 23.2521 17.9178 23.2521 11.9878C23.2521 6.05779 18.4321 1.23779 12.5021 1.23779C6.57209 1.23779 1.75209 6.05779 1.75209 11.9878C1.75209 13.7678 2.19212 15.5278 3.03212 17.0878L1.77211 21.7978C1.70211 22.0578 1.78206 22.3378 1.97206 22.5278ZM7.8221 19.9778C7.7021 19.9178 7.57209 19.8778 7.44209 19.8778C7.38209 19.8778 7.31209 19.8878 7.25209 19.9078L3.5721 20.9278L4.5721 17.1878C4.6221 16.9978 4.59208 16.7878 4.49208 16.6178C3.68208 15.2178 3.25209 13.6278 3.25209 11.9978C3.25209 6.8978 7.40209 2.7478 12.5021 2.7478C17.6021 2.7478 21.7521 6.8978 21.7521 11.9978C21.7521 17.0978 17.6021 21.2478 12.5021 21.2478C10.8521 21.2478 9.2321 20.8078 7.8221 19.9778ZM13.3102 17.3298C13.9802 17.6198 14.6202 17.7598 15.2402 17.7598C15.6802 17.7598 16.1103 17.6798 16.5103 17.5098C16.9103 17.3398 17.2802 17.0798 17.6002 16.7298C17.7802 16.5198 17.9302 16.2898 18.0602 16.0298C18.1902 15.7498 18.2603 15.4598 18.2603 15.1598C18.2603 14.9298 18.2202 14.7098 18.1202 14.4598C18.0002 14.2098 17.8203 13.9898 17.5903 13.8298L15.9202 12.6498C15.7502 12.5298 15.5902 12.4398 15.4302 12.3798C14.9802 12.1898 14.4703 12.2398 14.1403 12.4498C13.9603 12.5398 13.7802 12.6798 13.6002 12.8598L13.4603 12.9998C13.3803 12.9498 13.2802 12.8698 13.1602 12.7698C12.9102 12.5598 12.6603 12.3198 12.4103 12.0799L12.4102 12.0798C12.1602 11.8298 11.9302 11.5698 11.7202 11.3298C11.6278 11.229 11.5637 11.1424 11.51 11.0698C11.4997 11.0559 11.4898 11.0426 11.4802 11.0298L11.6102 10.8898C11.7802 10.7198 11.9102 10.5398 12.0002 10.3898C12.1402 10.1598 12.2103 9.89981 12.2103 9.63981C12.2103 9.44981 12.1603 9.24979 12.0803 9.04979C12.0103 8.87979 11.9202 8.70979 11.8002 8.54979L10.6403 6.91981C10.4803 6.67981 10.2703 6.49981 10.0203 6.38981C9.29026 6.03981 8.37022 6.26979 7.73022 6.89979C7.39022 7.21979 7.13021 7.5898 6.97021 7.9998C6.82021 8.3898 6.74023 8.8098 6.74023 9.2498C6.74023 9.8698 6.88022 10.5198 7.16022 11.1798C7.42022 11.7898 7.78022 12.4098 8.23022 13.0398C8.67023 13.6398 9.17027 14.2198 9.71027 14.7698C10.2503 15.3098 10.8402 15.8098 11.4402 16.2498C12.0502 16.6998 12.6802 17.0598 13.3102 17.3298ZM8.78027 7.98979C9.03027 7.73979 9.23022 7.73979 9.29022 7.73979L9.41022 7.81981L10.5803 9.4698C10.6303 9.5398 10.6703 9.59981 10.7003 9.66981C10.6803 9.70981 10.6403 9.7698 10.5303 9.8798L10.1503 10.2698C9.96027 10.4698 9.86023 10.7198 9.86023 10.9998C9.86023 11.0998 9.87027 11.2098 9.90027 11.3098L10.0103 11.5698C10.1303 11.7798 10.3103 12.0298 10.5703 12.3398C10.8103 12.6198 11.0603 12.8898 11.3403 13.1798C11.6303 13.4598 11.9002 13.7098 12.1802 13.9498C12.4702 14.1998 12.7303 14.3798 12.9603 14.4998L13.1403 14.5798C13.5103 14.7098 13.9703 14.6298 14.2603 14.3398L14.6403 13.9598C14.7503 13.8498 14.8102 13.8198 14.8502 13.7998C14.9102 13.8198 14.9802 13.8598 15.0502 13.9098L16.7202 15.0698C16.7502 15.1298 16.7502 15.1598 16.7502 15.1798C16.7502 15.2498 16.7303 15.3298 16.7003 15.3998C16.6403 15.5298 16.5702 15.6298 16.4802 15.7298C16.3002 15.9098 16.1202 16.0498 15.9202 16.1298C15.3502 16.3698 14.6503 16.2898 13.8903 15.9598C13.3603 15.7298 12.8302 15.4298 12.3102 15.0498C11.7702 14.6498 11.2503 14.1998 10.7603 13.7198C10.2703 13.2298 9.83025 12.6998 9.44025 12.1698C9.06025 11.6398 8.75022 11.1098 8.54022 10.6098C8.34022 10.1298 8.24023 9.67981 8.24023 9.25981C8.24023 9.01981 8.28024 8.77981 8.37024 8.56981C8.46024 8.35981 8.59027 8.16979 8.78027 7.98979Z" fill="#292D32"/>
</svg>
