<svg viewBox="0 0 24 24" fill="none" xmlns="http://www.w3.org/2000/svg">
<path fill-rule="evenodd" clip-rule="evenodd" d="M9 22.75H15C20.43 22.75 22.75 20.43 22.75 15V9C22.75 3.57 20.43 1.25 15 1.25H9C3.57 1.25 1.25 3.57 1.25 9V15C1.25 20.43 3.57 22.75 9 22.75ZM2.75 9C2.75 4.39 4.39 2.75 9 2.75H15C19.61 2.75 21.25 4.39 21.25 9V15C21.25 19.61 19.61 21.25 15 21.25H9C4.39 21.25 2.75 19.61 2.75 15V9ZM17.5405 10.5499C17.6805 10.6599 17.8405 10.7099 18.0005 10.7099C18.2205 10.7099 18.4505 10.6099 18.5905 10.4199C18.8505 10.0899 18.7905 9.61991 18.4605 9.36991C14.5305 6.33991 9.46052 6.33991 5.54052 9.36991C5.22052 9.61991 5.16052 10.0899 5.41052 10.4199C5.66052 10.7399 6.13051 10.7999 6.46051 10.5499C9.82051 7.94992 14.1705 7.94992 17.5405 10.5499ZM15.9404 13.64C16.0804 13.75 16.2404 13.8 16.4004 13.8C16.6304 13.8 16.8504 13.7 16.9804 13.51C17.2404 13.18 17.1804 12.71 16.8504 12.46C13.9004 10.18 10.0804 10.18 7.13036 12.46C6.81036 12.71 6.75036 13.18 7.00036 13.51C7.25036 13.83 7.72037 13.89 8.05037 13.64C10.4504 11.79 13.5404 11.79 15.9404 13.64ZM14.1996 16.8899C14.0396 16.8899 13.8796 16.8399 13.7396 16.7299C12.6796 15.9099 11.3096 15.9099 10.2496 16.7299C9.91958 16.9799 9.44958 16.9199 9.19958 16.5999C8.94958 16.2699 9.00958 15.7999 9.32958 15.5499C10.9196 14.3199 13.0596 14.3199 14.6496 15.5499C14.9796 15.7999 15.0396 16.2699 14.7796 16.5999C14.6496 16.7899 14.4296 16.8899 14.1996 16.8899Z" fill="#292D32"/>
</svg>
