<svg viewBox="0 0 24 24" fill="none" xmlns="http://www.w3.org/2000/svg">
<path fill-rule="evenodd" clip-rule="evenodd" d="M21.5405 8.94989C21.6805 9.0599 21.8405 9.1099 22.0005 9.1099C22.2205 9.1099 22.4505 9.00991 22.5905 8.81991C22.8505 8.48991 22.7905 8.0199 22.4605 7.7699C16.1005 2.8599 7.89051 2.8599 1.54051 7.7699C1.22051 8.0199 1.16052 8.48991 1.41052 8.81991C1.66052 9.13991 2.13053 9.19989 2.46053 8.94989C8.25052 4.46989 15.7405 4.46989 21.5405 8.94989ZM16.7496 16.08C16.8896 16.19 17.0496 16.24 17.2096 16.24C17.4296 16.24 17.6496 16.14 17.7896 15.95C18.0496 15.62 17.9896 15.15 17.6596 14.9C14.2196 12.24 9.76958 12.24 6.32958 14.9C6.00958 15.15 5.94958 15.62 6.19958 15.95C6.44958 16.27 6.91958 16.33 7.24958 16.08C10.1396 13.85 13.8696 13.85 16.7496 16.08Z" fill="#292D32"/>
<path opacity="0.4" fill-rule="evenodd" clip-rule="evenodd" d="M18.6309 12.4299C18.7709 12.5399 18.9309 12.5899 19.0909 12.5899C19.3209 12.5899 19.5409 12.4899 19.6709 12.2999C19.9309 11.9699 19.8709 11.4999 19.5409 11.2499C14.9609 7.6999 9.03091 7.6999 4.44091 11.2499C4.12091 11.4999 4.06091 11.9699 4.31091 12.2999C4.56091 12.6199 5.03091 12.6799 5.36091 12.4299C9.39091 9.31989 14.6009 9.31989 18.6309 12.4299ZM14.1392 19.74C14.2792 19.85 14.4392 19.9 14.5992 19.9C14.8292 19.9 15.0492 19.79 15.1792 19.61C15.4392 19.28 15.3792 18.81 15.0492 18.56C13.1892 17.12 10.7892 17.12 8.92918 18.56C8.60918 18.81 8.54919 19.28 8.79919 19.61C9.04919 19.93 9.5192 19.99 9.8492 19.74C11.1492 18.73 12.8392 18.73 14.1392 19.74Z" fill="#292D32"/>
</svg>
