<svg viewBox="0 0 24 24" fill="none" xmlns="http://www.w3.org/2000/svg">
<path fill-rule="evenodd" clip-rule="evenodd" d="M21.5366 8.42746C21.6766 8.53746 21.8366 8.58744 21.9966 8.58744C22.2166 8.58744 22.4466 8.48746 22.5866 8.29746C22.8466 7.96746 22.7866 7.49744 22.4566 7.24744C16.0966 2.33744 7.88661 2.33744 1.53661 7.24744C1.21661 7.49744 1.15662 7.96746 1.40662 8.29746C1.65662 8.61746 2.12662 8.67746 2.45662 8.42746C8.24662 3.94746 15.7366 3.94746 21.5366 8.42746ZM18.6309 12.4299C18.7709 12.5399 18.9309 12.5899 19.0909 12.5899C19.3209 12.5899 19.5409 12.4899 19.6709 12.2999C19.9309 11.9699 19.8709 11.4999 19.5409 11.2499C14.9609 7.6999 9.03091 7.6999 4.44091 11.2499C4.12091 11.4999 4.06091 11.9699 4.31091 12.2999C4.56091 12.6199 5.03091 12.6799 5.36091 12.4299C9.39091 9.31989 14.6009 9.31989 18.6309 12.4299ZM17.2096 16.24C17.0496 16.24 16.8896 16.19 16.7496 16.08C13.8696 13.85 10.1396 13.85 7.24958 16.08C6.91958 16.33 6.44958 16.27 6.19958 15.95C5.94958 15.62 6.00958 15.15 6.32958 14.9C9.76958 12.24 14.2196 12.24 17.6596 14.9C17.9896 15.15 18.0496 15.62 17.7896 15.95C17.6496 16.14 17.4296 16.24 17.2096 16.24ZM14.1392 19.74C14.2792 19.85 14.4392 19.9 14.5992 19.9C14.8292 19.9 15.0492 19.79 15.1792 19.61C15.4392 19.28 15.3792 18.81 15.0492 18.56C13.1892 17.12 10.7892 17.12 8.92918 18.56C8.60918 18.81 8.54919 19.28 8.79919 19.61C9.04919 19.93 9.5192 19.99 9.8492 19.74C11.1492 18.73 12.8392 18.73 14.1392 19.74Z" fill="#292D32"/>
</svg>
