<svg viewBox="0 0 25 24" fill="none" xmlns="http://www.w3.org/2000/svg">
<path fill-rule="evenodd" clip-rule="evenodd" d="M12.5 11.7498H22.5C22.91 11.7498 23.25 11.4098 23.24 10.9998V1.9998C23.24 1.7798 23.14 1.55981 22.97 1.41981C22.8 1.26981 22.57 1.21981 22.35 1.25981L12.35 3.25981C12 3.32981 11.75 3.6398 11.75 3.9998V10.9998C11.75 11.4098 12.09 11.7498 12.5 11.7498ZM21.75 10.2498H13.25V4.61979L21.75 2.91981V10.2498ZM22.35 22.74C22.4 22.75 22.45 22.75 22.5 22.75C22.67 22.75 22.84 22.69 22.98 22.58C23.15 22.44 23.25 22.22 23.25 22V13C23.25 12.59 22.91 12.25 22.5 12.25H12.5C12.09 12.25 11.75 12.59 11.75 13V20C11.75 20.36 12 20.67 12.35 20.74L22.35 22.74ZM21.75 21.08L13.25 19.38V13.75H21.75V21.08ZM10.5 11.7501H2.5C2.09 11.7501 1.75 11.4101 1.75 11.0001V6.00014C1.75 5.65014 2.00003 5.34013 2.34003 5.27013L10.34 3.57015C10.56 3.52015 10.79 3.58014 10.97 3.72014C11.15 3.86014 11.25 4.08013 11.25 4.30013V11.0001C11.25 11.4101 10.91 11.7501 10.5 11.7501ZM3.25 10.2501H9.75V5.23015L3.25 6.61013V10.2501ZM10.3659 20.4344C10.4148 20.4427 10.4574 20.45 10.5 20.45C10.67 20.45 10.84 20.39 10.97 20.28C11.15 20.14 11.25 19.93 11.25 19.7V13C11.25 12.59 10.91 12.25 10.5 12.25H2.5C2.09 12.25 1.75 12.59 1.75 13V18C1.75 18.35 1.99003 18.66 2.34003 18.73L10.34 20.43C10.3489 20.4315 10.3575 20.4329 10.3659 20.4344ZM9.75 18.77L3.25 17.39V13.75H9.75V18.77Z" fill="#292D32"/>
</svg>
