<svg viewBox="0 0 24 24" fill="none" xmlns="http://www.w3.org/2000/svg">
<path fill-rule="evenodd" clip-rule="evenodd" d="M2.78998 5.84008L8.78998 4.56008C9.40998 4.42008 10 4.90008 10 5.53008V10.0001C10 10.5501 9.55 11.0001 9 11.0001H3C2.45 11.0001 2 10.5501 2 10.0001V6.82008C2 6.35008 2.32998 5.94008 2.78998 5.84008ZM12.8 20.16L20.8 21.76C21.42 21.88 22 21.41 22 20.78V14C22 13.45 21.55 13 21 13H13C12.45 13 12 13.45 12 14V19.18C12 19.66 12.33 20.07 12.8 20.16Z" fill="#292D32"/>
<path opacity="0.4" fill-rule="evenodd" clip-rule="evenodd" d="M12.8 3.83997L20.8 2.23998C21.42 2.11998 22 2.58998 22 3.21998V9.99998C22 10.55 21.55 11 21 11H13C12.45 11 12 10.55 12 9.99998V4.81998C12 4.33998 12.33 3.92997 12.8 3.83997ZM2.78998 18.16L8.78998 19.44C9.40998 19.58 10 19.1 10 18.47V14C10 13.45 9.55 13 9 13H3C2.45 13 2 13.45 2 14V17.18C2 17.65 2.32998 18.06 2.78998 18.16Z" fill="#292D32"/>
</svg>
