<svg viewBox="0 0 24 24" fill="none" xmlns="http://www.w3.org/2000/svg">
<path fill-rule="evenodd" clip-rule="evenodd" d="M12.8 3.84145L20.8 2.24144C21.42 2.12144 22 2.59145 22 3.22145V10.0014C22 10.5514 21.55 11.0015 21 11.0015H13C12.45 11.0015 12 10.5514 12 10.0014V4.82146C12 4.34146 12.33 3.93145 12.8 3.84145ZM12.8 20.16L20.8 21.76C21.42 21.88 22 21.41 22 20.78V14C22 13.45 21.55 13 21 13H13C12.45 13 12 13.45 12 14V19.18C12 19.66 12.33 20.07 12.8 20.16ZM8.78998 4.55959L2.78998 5.82958C2.32998 5.92958 2 6.33959 2 6.80959V9.99959C2 10.5496 2.45 10.9996 3 10.9996H9C9.55 10.9996 10 10.5496 10 9.99959V5.52959C10 4.89959 9.40998 4.41959 8.78998 4.55959ZM2.78998 18.17L8.78998 19.44C9.40998 19.58 10 19.1 10 18.47V14C10 13.45 9.55 13 9 13H3C2.45 13 2 13.45 2 14V17.19C2 17.66 2.32998 18.07 2.78998 18.17Z" fill="#292D32"/>
</svg>
