<svg viewBox="0 0 25 24" fill="none" xmlns="http://www.w3.org/2000/svg">
<path fill-rule="evenodd" clip-rule="evenodd" d="M7.5 20.75H17.5C20.94 20.75 23.25 18.44 23.25 15V9C23.25 5.56 20.94 3.25 17.5 3.25H7.5C4.06 3.25 1.75 5.56 1.75 9V15C1.75 18.44 4.06 20.75 7.5 20.75ZM3.25 9C3.25 6.42 4.92 4.75 7.5 4.75H17.5C20.08 4.75 21.75 6.42 21.75 9V15C21.75 17.58 20.08 19.25 17.5 19.25H7.5C4.92 19.25 3.25 17.58 3.25 15V9ZM10.2697 15.3202C10.5197 15.4602 10.7997 15.5302 11.0897 15.5302C11.4797 15.5302 11.8996 15.4002 12.3096 15.1602L14.7797 13.6802C15.4597 13.2702 15.8496 12.6602 15.8496 12.0102C15.8496 11.3602 15.4597 10.7502 14.7797 10.3402L12.3096 8.8602C11.5996 8.4302 10.8497 8.37023 10.2697 8.70023C9.67965 9.03023 9.34961 9.70022 9.34961 10.5302V13.4902C9.34961 14.3202 9.68965 14.9902 10.2697 15.3202ZM10.9996 9.99021C11.0196 9.98021 11.0497 9.97022 11.0897 9.97022C11.1897 9.97022 11.3497 10.0202 11.5297 10.1302L13.9996 11.6102C14.2496 11.7702 14.3397 11.9102 14.3397 12.0002C14.3397 12.0902 14.2496 12.2402 13.9996 12.3902L11.5297 13.8702C11.2697 14.0302 11.0796 14.0502 10.9996 14.0102C10.9296 13.9602 10.8496 13.7802 10.8496 13.4802V10.5202C10.8496 10.2102 10.9296 10.0302 10.9996 9.99021Z" fill="#292D32"/>
</svg>
