<svg viewBox="0 0 25 24" fill="none" xmlns="http://www.w3.org/2000/svg">
<path fill-rule="evenodd" clip-rule="evenodd" d="M1.75 12C1.75 17.93 6.57 22.75 12.5 22.75C18.43 22.75 23.25 17.93 23.25 12C23.25 6.07 18.43 1.25 12.5 1.25C6.57 1.25 1.75 6.07 1.75 12ZM3.25 12C3.25 6.9 7.4 2.75 12.5 2.75C17.6 2.75 21.75 6.9 21.75 12C21.75 17.1 17.6 21.25 12.5 21.25C7.4 21.25 3.25 17.1 3.25 12ZM9.26999 15.99C8.33999 15.99 7.46001 15.63 6.79001 14.97C6.12001 14.3 5.75 13.42 5.75 12.47V9.67001C5.75 8.75001 6.50001 8 7.42001 8H11.11C13.05 8 14.63 9.57999 14.63 11.52V14.29C14.63 15.21 13.88 15.96 12.97 15.96L9.29001 15.99H9.26999ZM7.42001 9.51001C7.32001 9.51001 7.25 9.58999 7.25 9.67999V12.48C7.25 13.02 7.46001 13.53 7.85001 13.91C8.23001 14.29 8.75001 14.53 9.29001 14.5L12.97 14.47C13.06 14.47 13.14 14.39 13.14 14.3V11.53C13.14 10.42 12.23 9.51001 11.12 9.51001H7.42001ZM18.5005 15.5301C18.3505 15.5301 18.2104 15.4901 18.0804 15.4001L15.3105 13.5501C15.1005 13.4101 14.9805 13.1801 14.9805 12.9301V11.0801C14.9805 10.8301 15.1105 10.5901 15.3105 10.4601L18.0804 8.61008C18.3104 8.46008 18.6105 8.4401 18.8505 8.5701C19.0905 8.7001 19.2505 8.9501 19.2505 9.2301V14.7701C19.2505 15.0501 19.1005 15.3001 18.8505 15.4301C18.7405 15.5001 18.6205 15.5301 18.5005 15.5301ZM16.4805 12.5301L17.7505 13.3801V10.6401L16.4805 11.4901V12.5301Z" fill="#292D32"/>
</svg>
