<svg viewBox="0 0 24 24" fill="none" xmlns="http://www.w3.org/2000/svg">
<path fill-rule="evenodd" clip-rule="evenodd" d="M6.25 12.4798V9.67976C6.25 9.16976 6.65999 8.75977 7.17999 8.75977H10.87C12.4 8.75977 13.64 9.99977 13.64 11.5298V14.2998C13.64 14.7998 13.23 15.2198 12.72 15.2198L9.04001 15.2498C7.50001 15.2598 6.25 14.0198 6.25 12.4798ZM17.75 13.9996V10.0196C17.75 9.58963 17.27 9.32964 16.91 9.56964L14.99 10.8496C14.84 10.9496 14.75 11.1196 14.75 11.2996V12.7196C14.75 12.8996 14.84 13.0696 14.99 13.1696L16.91 14.4496C17.27 14.6896 17.75 14.4296 17.75 13.9996Z" fill="#292D32"/>
<path opacity="0.4" d="M12 22C17.5228 22 22 17.5228 22 12C22 6.47715 17.5228 2 12 2C6.47715 2 2 6.47715 2 12C2 17.5228 6.47715 22 12 22Z" fill="#292D32"/>
</svg>
